<svg width="1200" height="1200" viewBox="0 0 1200 1200" xmlns="http://www.w3.org/2000/svg"><path d="M1200 375V-25a100 100 0 00-100-100h-50v-200a50 50 0 00-50-50H900a50 50 0 00-50 50v200H700v-400a50 50 0 00-50-50H550a50 50 0 00-50 50v400H350v-200a50 50 0 00-50-50H200a50 50 0 00-50 50v200h-50A100 100 0 000-25v400a400 400 0 00400 400h150v308a192 192 0 00193 192h157a100 100 0 01100 100v350a50 50 0 00100 0v-350a200 200 0 00-200-200H743a92 92 0 01-93-92V775h150a400 400 0 00400-400zM400 675a300 300 0 01-300-300V-25h1000v400a300 300 0 01-300 300H400z" fill-rule="evenodd"/></svg>