<svg width="1100" height="1200" viewBox="0 0 1100 1200" xmlns="http://www.w3.org/2000/svg"><path d="M200 800h700v300H200V800zm0 700h700v-300H200v300zm0-800h700V400H200v300zm0-400h700V0H200v300zm900 1161.5A238 238 0 01862 1700H240A238 238 0 010 1461.5v-1600A62.5 62.5 0 0162.5-200H200v-184.5A115.5 115.5 0 01315.5-500h469a112.5 112.5 0 0184 39.5A126 126 0 01900-378v178h135a62.5 62.5 0 0165 62.5v1599zM300-200h500v-182a16 16 0 00-15.5-18h-469a15.5 15.5 0 00-15.5 15.5V-200zm700 1661.5V-100H100v1561.5A138.5 138.5 0 00240 1600h622a138.5 138.5 0 00138-138.5z" fill-rule="evenodd"/></svg>