<svg width="1100" height="1200" viewBox="0 0 1100 1200" xmlns="http://www.w3.org/2000/svg"><path d="M900 300H200V0h700v300zm0 100H200v300h700V400zm0 800H200v300h700v-300zm0-400H200v300h700V800zm200 661.5A238.5 238.5 0 01862 1700H240A238.5 238.5 0 010 1461.5v-1600A62.5 62.5 0 0162.5-200H200v-184.5A115.5 115.5 0 01315.5-500h469A120.5 120.5 0 01900-378v178h135a62.5 62.5 0 0165 62.5v1599zM300-200h500v-178c0-11-10-22-15.5-22h-469a15.5 15.5 0 00-15.5 15.5V-200zm700 100H100v1561.5A138.5 138.5 0 00240 1600h622a138.5 138.5 0 00138-138.5V-100z" fill-rule="evenodd"/></svg>