<svg width="3100" height="1200" viewBox="0 0 3100 1200" xmlns="http://www.w3.org/2000/svg"><path d="M2750 0a350 350 0 00350-350v-250a100 100 0 00-100-100h-50v-150a50 50 0 00-100 0v150h-150v-250a50 50 0 00-100 0v250h-150v-150a50 50 0 00-100 0v150h-50a100 100 0 00-100 100v250A350 350 0 002550 0h50v150a150 150 0 00145.5 150H2850a50 50 0 0150 50v200a50 50 0 00100 0V350a150 150 0 00-150-150h-100a54.5 54.5 0 01-50-50V0h50zm-377-173a250 250 0 01-73-177v-250h700v250a250 250 0 01-250 250h-200a250 250 0 01-177-73zm-123 1323a500 500 0 00-65 4.5l-156-665a50 50 0 00-50-39.5h-250a50 50 0 000 100h212.5l35 150h-947L995 550h185.5a50 50 0 000-100H820a50 50 0 000 100h72l50 207-212.5 426A500 500 0 10550 2150a500 500 0 00497.5-450H1200a50 50 0 0036-15l821.5-635 30 129a500 500 0 10162.5-29zM550 2050a400 400 0 11132.5-777L505 1627.5a50 50 0 0045 72.5h396.5A400 400 0 01550 2050zm81-450l141.5-282.5a400 400 0 01174 282.5H631zm419 0a491.5 491.5 0 00-230.5-372l159-318 158.5 690h-87zm183.5-37L1050 800h950l33.5 142-800 621zM2250 2050a400 400 0 01-139.5-774.5l89.5 386a50 50 0 0050 38.5h11.5a50 50 0 0037.5-60l-91-390a400.55 400.55 0 1142 800zm-926-635a75 75 0 01-46.5-134l284.5-224.5a75.122 75.122 0 0193 118L1370.5 1400a75 75 0 01-46.5 15z" fill-rule="evenodd"/></svg>