<svg width="2700" height="1200" viewBox="0 0 2700 1200" xmlns="http://www.w3.org/2000/svg"><path d="M2135 454.5l-156-665a50 50 0 00-50-39.5h-250a50 50 0 000 100h212.5l35 150h-947L945-150h185.5a50 50 0 000-100H770a50 50 0 000 100h72l50 207-212.5 426A500 500 0 10500 1450a500 500 0 00497.5-450H1150a50 50 0 0036-15l821.5-635 30 129a500 500 0 10162.5-29 500 500 0 00-65 4.5zM500 1350a400 400 0 11132.5-777L455 927.5a50 50 0 0045 72.5h396.5A400 400 0 01500 1350zm81-450l141.5-282.5a400 400 0 01174 282.5H581zm419 0a491.5 491.5 0 00-230.5-372l159-318L1087 900h-87zm183.5-37L1000 100h950l33.5 142-800 621zM2200 1350a400 400 0 01-139.5-774.5l89.5 386a50 50 0 0050 38.5h11.5a50 50 0 0037.5-60l-91-390a400.55 400.55 0 1142 800z" fill-rule="evenodd"/></svg>