<svg width="4250" height="1200" viewBox="0 0 4250 1200" xmlns="http://www.w3.org/2000/svg"><path d="M446.5-200h3.5a253.5 253.5 0 00250-250 250 250 0 10-250 250h-3.5zm0-400A150 150 0 01555-554.5c28.65 27.2 44.9 65 45 104.5a153 153 0 01-150 150 150 150 0 01-104.5-45A150 150 0 01300-453.5 150 150 0 01450-600h-3.5zm300 1618.5V1700a150 150 0 01-150 150H300a150 150 0 01-150-150v-660a286 286 0 00-9.5-95.5A137 137 0 010 800V100a200 200 0 01200-200h472A268 268 0 00627 0H200a100 100 0 00-100 100v700c0 27.5 8.5 44.5 50 44.5 100 0 100 137 100 195V1700a50 50 0 0050 50h300a50 50 0 0050-50V925a237.5 237.5 0 00100 93.5h-3.5zM900-450a250 250 0 11253.5 250A253 253 0 01900-450zm283.5 1800a650 650 0 00200 467 211 211 0 01-100 32H996a141 141 0 01-146-157v-678a250 250 0 000-64 150 150 0 01-150-145V91c0-159 103-191 189.5-191h494C1517-100 1600-28 1600 91v650a650 650 0 00-416.5 609zm2500-534.5c-24.95.1-49.8 2-74.5 5.5l-54-229-118-500a50 50 0 00-50-38.5h-272.5a50 50 0 000 100H3350l40.5 171.5h-1044l-40-175h209a50 50 0 000-100h-394a50 50 0 000 100h82.5l54 230.5L2022.5 850a542 542 0 10343 555.5H2537a50 50 0 0036-16l905-700 35.5 150a541 541 0 10172-28.5l-2 4.5zM1826 1800a442 442 0 11150-857l-196.5 392.5a50 50 0 0044.5 72.5h441a442.5 442.5 0 01-439 392zm81-492l160-320.5a442.5 442.5 0 01200 321l-360-.5zm459 0a542 542 0 00-254-410.5l181.5-363 181 774-108.5-.5zm200-38l-200-847h1048.5l38 162-886.5 685zm1119.5 530a442 442 0 01-150-858l100 427.5a50 50 0 0050 38.5h11.5a50 50 0 0037.5-60l-100-427.5a442 442 0 1150 881l1-1.5z" fill-rule="evenodd"/></svg>