<svg width="3150" height="1200" viewBox="0 0 3150 1200" xmlns="http://www.w3.org/2000/svg"><path d="M974-360l50.7.25c581.85 5.5 833.15 104.85 844.8 108.25 36.4 14 61 47.6 64.15 84.95l.35 8.05V2317c0 53.5-41.5 97.35-93.95 101.2l-7.55.3h-1717c-53.5 0-97.35-41.5-101.2-93.95L14 2317V-158.5c0-37.8 22.2-73 56.9-89.7l11.65-5C119.3-267.7 390.35-360 974-360zm858.5 2045.5h-1717V2317h1717v-631.5zM974 1910a101.5 101.5 0 110 203 101.5 101.5 0 010-203zm0-2170l-50.4.25c-503.8 4.75-748.55 80.25-798.4 97.7l-9.7 3.55v1742h1717v-1742l-12-4.35C1763.85-182.3 1504.25-260 974-260zm227.5 478.5c12 0 22.8 9.5 25.05 21.05l.45 4.45v176c0 12-9.5 22.8-21.05 25.05l-4.45.45h-454a26.45 26.45 0 01-25.05-21.05L722 420V244c0-12 9.1-22.8 20.95-25.05l4.55-.45h454zm1363-1485c17-8.5 37.5-6.5 52.5 3.5 148.5 104.5 278.5 238 373 381.5s152 297 152.5 442c0 143.5-56 275.5-147 371.5A484.4 484.4 0 012639 87.5c-140 0-267-59.5-358-155.5-91.5-94.5-147-226.5-147-371.5 0-59 18.5-113 44-160.5 25-47 60.5-89.5 96-131.5 72.5-82.5 153.5-162 206-260 35.5-64 57.5-138.5 57.5-229.5 0-20 10-37 27-45.5zm67 138.5c-18.5 116.5-71 211-130 288.5-74 98-160.5 175.5-211 250-33.5 50.5-54 96-54 148.5 0 118 45.5 224.5 118 302A393.9 393.9 0 002547-26c-37-20.5-94.5-67.5-94.5-142 0-101.5 106.5-197.5 84.5-300.5l2.5 1.15c11.8 5.85 61.55 34.75 73.6 111.55l1.4 10.8c10.5 103 169-92.5 123.5-324l9.15 9.1c34.65 35.75 155.65 173.1 151.35 345.4-3.5 138.5-69.5 233-138.5 282 62.5-20 118.5-57 164-104.5 73-76 118.5-184 119.5-304 0-118-51-255-137-386.5-70.5-109.5-167-212.5-275-300.5z" fill-rule="evenodd"/></svg>