<svg width="2800" height="1200" viewBox="0 0 2800 1200" xmlns="http://www.w3.org/2000/svg"><path d="M2772-128c-108.5-108.5-136.5-183-161.5-248.5-19.5-51-37.5-99-86-148s-97-67-147.5-86c-65.5-25-140-53-248.5-161.5a49.8 49.8 0 00-70.5 0c-124 124-159 429-115 622.5l-3-3a299.55 299.55 0 00-424 0l-865 865c-117 117-117 307 0 424.5l7.5 7.5c-193-47-504-13-629.5 113a49.8 49.8 0 000 70.5c108.5 108.5 136.5 183 161.5 248.5 19.5 51 37.5 99 86 148s97 67 147.5 86c65.5 25 140 53 248.5 161.5 10 10 22.5 14.5 35.5 14.5s25.5-5 35.5-14.5c126-126 160-436.5 113-629.5l7 7a299.55 299.55 0 00424 0l865-865c117-117 117-307 0-424.5l-2.5-2.5c53 12 114 18.5 178 18.5 169 0 354.5-43 444.5-133.5 19-19.5 19-51-.5-70.5zM702 1862.5C599 1770 522 1741 459 1717c-46-17.5-79-30-112.5-63.5s-46-66.5-63.5-112.5c-24-63-53-140-145.5-243 102.5-64 284.5-84 421-70.5-63 19.5-134.5 50.5-202.5 99-22.5 16-27.5 47.5-11.5 69.5 10 13.5 25 21 40.5 21 10 0 20-3 29-9.5 105-75 221.5-101 288-109.5-8.5 65-34 181.5-110 287.5a49.7 49.7 0 0011.5 69.5c9 6.5 19 9.5 29 9.5 15.5 0 31-5.5 40.5-19.5 48.5-68 79.5-139.5 99-202.5 14 137-6.5 318.5-70 420zm514-584c-38 38-88 58.5-141.5 58.5S971 1316 933 1278.5l-212-212A198.1 198.1 0 01662.5 925c0-53.5 21-103.5 58.5-141.5L1076.5 428l234 756-94.5 94.5zm865.5-865l-315 315-263-727 83-83c38-38 88-58.5 141.5-58.5s103.5 21 141.5 58.5l212 212c38 38 58.5 88 58.5 141.5s-21 103.5-58.5 141.5zm160-441c63-19.5 134.5-50.5 202.5-99 22.5-16 27.5-47.5 11.5-69.5-16-22.5-47.5-27.5-70-11.5-105 75-221.5 101-288 109.5 8.5-65 34-181.5 110-288a50.307 50.307 0 00-81.5-59c-48.5 68-79.5 139.5-99 202.5-13-136.5 7-317.5 70.5-419.5 103 92.5 180 121.5 243 145.5 46 17.5 79 30 112.5 63.5s46 66.5 63.5 112.5c24 63 53 140 145.5 243-101.5 63.5-284 83.5-420.5 70z" fill-rule="evenodd"/></svg>