<svg width="2600" height="1200" viewBox="0 0 2600 1200" xmlns="http://www.w3.org/2000/svg"><path d="M1994 875a300 300 0 110 600 300 300 0 010-600zm-1456 0a300 300 0 110 600 300 300 0 010-600zm1994-169c-31.5-63.5-150-161-243.5-247s-550-535.5-671.5-650-1126-75-1245-75 8.5 86-27.5 147-222 433-272 535.5-47 186-47 300S14.5 1083 95 1177c18 21.5 33.5 38 50 50a400 400 0 11778.5 59.5l691.5 4.5a400 400 0 11762.5 3.5h10.5c94.5 0 189.5 3 189.5-138.5s-13.5-386-45-450h-.5zm-671-350c-240-35-768.5-104.5-950-111.5l-294-11 203-422c308.5 0 647.5 17.5 715 82s241.5 236.5 397 391c28.5 24.5 12 81-71 69.5v2z" fill-rule="evenodd"/></svg>