<svg width="2300" height="1200" viewBox="0 0 2300 1200" xmlns="http://www.w3.org/2000/svg"><path d="M2243.5 342a100 100 0 00-87-180l-90 38c-97-300-205-586.5-250-624-92-76-666.5-76-666.5-76s-574.5 0-666.5 76C438-386.5 330-100 233.5 200l-89-39.5a100 100 0 10-89 179l100 54a100 100 0 0018 6.5C102.5 634.5 50 836 50 886.5c0 213.5 70.5 588.5 95.5 613.5H234v150a50 50 0 0050 50h216a50 50 0 0050-50v-150h1200v150a50 50 0 0050 50h218.5a50 50 0 0050-50v-150h88.5c24.5-25 95.5-400 95.5-613.5 0-50-52.5-250-123.5-486.5a100 100 0 0017-6l97.5-52zM314 742a100.103 100.103 0 0194.5-176.5l200 106.5a101.119 101.119 0 11-96 178L314 742zm1336 65a100 100 0 0141-135.5L1891 565a100.103 100.103 0 1194.5 176.5l-200 106.5a100 100 0 01-135.5-41zM300 300c90.5-285 200-579 250-647a1221 1221 0 01300-42.5c150-7 294-10 300-10 7.5 0 154 3 302.5 10a1214 1214 0 01300 42.5c47.5 68 157 362 247.5 647H300z" fill-rule="evenodd"/></svg>