<svg width="2000" height="1200" viewBox="0 0 2000 1200" xmlns="http://www.w3.org/2000/svg"><path d="M1950 875h-250V275h100a100 100 0 00100-100V25a100 100 0 00-100-100h-105a250 250 0 00-445-100 250 250 0 00-400 0 250 250 0 00-400 0A250 250 0 000-25v1050a250 250 0 00200 245v105h-50a50 50 0 000 100h200a50 50 0 100-100h-50v-105a250 250 0 00150-95 250 250 0 00400 0 250 250 0 00400 0 250 250 0 00150 96.5V1375h-50a50 50 0 000 100h200a50 50 0 100-100h-50v-105a250 250 0 00200-245v-50h250a50 50 0 100-100zM1800 25v150h-100V25h100zM250 1175a150 150 0 01-150-150V-25a150 150 0 01300 0v1050a150 150 0 01-150 150zm400 0a150 150 0 01-150-150V-25a150 150 0 01300 0v1050a150 150 0 01-150 150zm400 0a150 150 0 01-150-150V-25a150 150 0 01300 0v1050a150 150 0 01-150 150zm550-150a150 150 0 01-300 0V-25a150 150 0 01300 0v1050z" fill-rule="evenodd"/></svg>