<svg width="2650" height="1200" viewBox="0 0 2650 1200" xmlns="http://www.w3.org/2000/svg"><path d="M1950 1550h-250V950h100a100 100 0 00100-100V700a100 100 0 00-100-100h-105a250 250 0 00-445-100 250 250 0 00-400 0 250 250 0 00-400 0A250 250 0 000 650v1050a250 250 0 00200 245v105h-50a50 50 0 000 100h200a50 50 0 100-100h-50v-105a250 250 0 00150-95 250 250 0 00400 0 250 250 0 00400 0 250 250 0 00150 96.5V2050h-50a50 50 0 000 100h200a50 50 0 100-100h-50v-105a250 250 0 00200-245v-50h250a50 50 0 100-100zm-150-850v150h-100V700h100zM250 1850a150 150 0 01-150-150V650a150 150 0 01300 0v1050a150 150 0 01-150 150zm400 0a150 150 0 01-150-150V650a150 150 0 01300 0v1050a150 150 0 01-150 150zm400 0a150 150 0 01-150-150V650a150 150 0 01300 0v1050a150 150 0 01-150 150zm550-150a150 150 0 01-300 0V650a150 150 0 01300 0v1050zM2300 0a350 350 0 00350-350v-250a100 100 0 00-100-100h-125v-200a50 50 0 00-100 0v200h-250v-200a50 50 0 00-100 0v200h-125a100 100 0 00-100 100v250A350 350 0 002100 0h50v155.5A144.5 144.5 0 002295.5 300H2400a50 50 0 0150 50v200a50 50 0 00100 0V350a150 150 0 00-150-150h-104.5a45 45 0 01-44.5-44.5V0h49zm-377-173a250 250 0 01-73-177v-250h700v250a250 250 0 01-250 250h-200a250 250 0 01-177-73z" fill-rule="evenodd"/></svg>