<svg width="4400" height="1200" viewBox="0 0 4400 1200" xmlns="http://www.w3.org/2000/svg"><path d="M4350 2275h-150V511c0-150-118-227-350-235V-747c0-264-172.5-428-450-428H2372c-72 0-122 63.5-122 150s50 150 122.5 150H2550v125a225 225 0 10450 0v-125h181.5a110.5 110.5 0 0094.5-50 168.5 168.5 0 0024-93.5 200 200 0 00-7-56.5h107c222.5 0 350 119.5 350 328V275c-232 6.5-350 85.5-350 235.5V2275h-150a50 50 0 000 100h1100a50 50 0 000-100zM2900-750a125 125 0 11-250 0v-125h250v125zm292.5-231.5a11 11 0 01-11 6.5H2373c-15.5 0-22.5-29.5-22.5-50s10.5-50 22-50H3176c13 0 25.5 27.5 25.5 56.5a71 71 0 01-9 37zM4100 2275h-600V511c0-58.5 29.5-136 283-136h26.5c260.5 0 290.5 77.5 290.5 136v1764zM3992 909.5a23 23 0 010 24l-245 364a24.5 24.5 0 01-20.5 10.5 25.5 25.5 0 01-10.5 0 24.5 24.5 0 01-16-33l65-235h-137.5a24 24 0 01-21.5-11.5 23 23 0 010-23.5l222-366a26.5 26.5 0 016-5.5 23.5 23.5 0 0111-4h5a24.5 24.5 0 0124 24.5v6.5l-43.5 235h142a24 24 0 0119.5 14zM3296.5 1075H3050a43 43 0 00-31.5 15 62 62 0 00-18.5 35v900a143.5 143.5 0 01-43 110 154.5 154.5 0 01-112 40h-191v-100h196c13.75 1.25 27.5-2.65 38.5-11a50 50 0 0011-36.5V1125a154.5 154.5 0 0150-106.5A143 143 0 013050 975h245l1.5 100zM813 2075a300 300 0 11-600 0 300 300 0 01600 0zm1450-715.5c-94.5-86-550-535.5-671.5-650s-1126-75-1245-75 8.5 86-27.5 147S100 1212 50 1315 0 1500.5 0 1617.5-11 1984 69.5 2078c18 21.5 33.5 38 50 50a400 400 0 11778.5 59.5l691 4.5a400 400 0 11761 5h10.5c94.5 0 189.5 3 189.5-138.5s-11-388.5-42.5-450-149-163.5-243.5-249h-1zm-427.5-105c-240-35-768.5-104.5-950-111.5l-294-11 203-422c308.5 0 647.5 17.5 715 82s241.5 236.5 397.5 391c28.5 26 12 82.5-71 71l-.5.5zM2269 2075a300 300 0 11-600 0 300 300 0 01600 0z" fill-rule="evenodd"/></svg>