<svg width="4250" height="1200" viewBox="0 0 4250 1200" xmlns="http://www.w3.org/2000/svg"><path d="M800 1950H250v700a150 150 0 01-150-150v-3700l1800 687.5V0h100v-512.5a100 100 0 00-64.5-93.5L700-1075v-325c0-27.5-15-50-42.5-50a50 50 0 00-50 50v287L450-1170.5V-1700a50 50 0 00-50-50 45 45 0 00-43.5 50v491l-221-84A100 100 0 000-1200v3700a250 250 0 00250 250h1000v-100H800v-700zm-100 700H350v-600h350v600zM650-450H250v400h400v-400zM550-150H350v-200h200v200zm800 100h400v-400h-400v400zm100-300h200v200h-200v-200zm-250-100H800v400h400v-400zm-100 300H900v-200h200v200zM650 650H250v400h400V650zM550 950H350V750h200v200zm650-850H800v400h400V100zm-100 300H900V200h200v200zM250 1600h400v-400H250v400zm100-300h200v200H350v-200zm850-650H800v400h400V650zm-100 300H900V750h200v200zM650 100H250v400h400V100zM550 400H350V200h200v200zm250 1200h400v-400H800v400zm100-300h200v200H900v-200zm2100 1150v450h-250v-450h250zm300-2350H1400a50 50 0 00-50 50v2600a250 250 0 00250 250h1500a250 250 0 00250-250V150a50 50 0 00-50-50zM1600 2900a150 150 0 01-150-150V750h1800v2000a150 150 0 01-150 150v-550h-450v550H1600zm300-1900v300h-200v-300h200zm100-100h-400v500h400V900zm450 100v300h-200v-300h200zm100-100h-400v500h400V900zm450 100v300h-200v-300h200zm100-100h-400v500h400V900zm-1200 800v300h-200v-300h200zm100-100h-400v500h400v-500zm450 100v300h-200v-300h200zm100-100h-400v500h400v-500zm450 100v300h-200v-300h200zm100-100h-400v500h400v-500zM2500-550v500h400v-500h-400zm300 400h-200v-300h200v300zm1450-650v-500a50 50 0 00-50-50H2300a50 50 0 00-50 50V0h100v-750h1800v3150a50 50 0 01-50 50h-150v-650h-500v750h650a150 150 0 00150-150V-800zm-400 3250h-300v-550h300v550zm100-2200h-500v500h500V250zm-100 400h-300V350h300v300zm100 400h-500v500h500v-500zm-100 400h-300v-300h300v300zm100-2000h-900v500h900v-500zm-500 400h-300v-300h300v300zm400 0h-300v-300h300v300z" fill-rule="evenodd"/></svg>