<svg width="2250" height="1200" viewBox="0 0 2250 1200" xmlns="http://www.w3.org/2000/svg"><path d="M1137.5-290.5A50 50 0 011208-361l107 107a50 50 0 11-70.5 70.5l-107-107zm816 674.5a50 50 0 00-70.5 70.5l107 107a50 50 0 0070.5-70.5l-107-107zm-709 0l-107 107a50 50 0 1070.5 70.5l107-107a50 50 0 00-70.5-70.5zM1918-169a50 50 0 0035.5-14.5l107-107A50 50 0 001990-361l-107 107a50 50 0 0035.5 85.5l-.5-.5zm-318-31a300 300 0 100 600 300 300 0 000-600zm0-100a50 50 0 0050-50v-150a50 50 0 00-100 0v150a50 50 0 0050 50zm0 800a50 50 0 00-50 50v150a50 50 0 00100 0V550a50 50 0 00-50-50zM996.5 150h150a50 50 0 000-100h-150a50 50 0 000 100zM2200 50h-150a50 50 0 000 100h150a50 50 0 000-100zM1000 1250a500 500 0 11-770-418.5V-279a271 271 0 01542 0V834a500 500 0 01228 416zm-100 0a400 400 0 00-228-360V-279a171 171 0 00-342 0V892.5A400 400 0 10900 1250zm-350-250V-200H450v1203a250 250 0 10100 0v-3z" fill-rule="evenodd"/></svg>