<svg width="2650" height="1200" viewBox="0 0 2650 1200" xmlns="http://www.w3.org/2000/svg"><path d="M947 996H493v-81l223-240a489 489 0 0079.5-105c21.9 30.5 45.8 59.6 71.5 87a1031.5 1031.5 0 01-74.5 86l-150 159.5h303L947 996zM486.5 491H600c0-68.5 29-116 88.5-125.5a841 841 0 01-29-95.5c-115.5 18.5-173 105-173 221zm856 421A650 650 0 11639 6a850 850 0 0114-103 750 750 0 10793.5 1022 850 850 0 01-104-13zm560.5 523c-79.5 0-126.5-39.5-126.5-100H1664c0 109.5 73.5 194.5 239 194.5 150 0 245.5-83 245.5-203A175.5 175.5 0 002009 1150a164 164 0 00127.5-163.5c0-104.5-75-183-200-196a844.5 844.5 0 01-246.5 106 200 200 0 00-19.5 86H1784c0-55.5 39.5-97 116-97A104 104 0 012017 992c0 73.5-54 111.5-138 111.5h-65v93.5h68c93.5 0 150 50 150 123.5a113.5 113.5 0 01-129 114.5zm338.5-973.5a850 850 0 01-50 87A634.5 634.5 0 012550 1125a646 646 0 01-1268.5 183.5 853.5 853.5 0 01-86 60.5 747.5 747.5 0 101046-907.5zm-6-386.5c0 414.2-335.8 750-750 750s-750-335.8-750-750 335.8-750 750-750a750 750 0 01750 750zm-100 0c0-359-291-650-650-650s-650 291-650 650 291 650 650 650 650-291 650-650zm-882-272l28.5 88.5 190.5-76.5v610H1585v-718.5h-100L1253.5-197z" fill-rule="evenodd"/></svg>