<svg width="1650" height="1200" viewBox="0 0 1650 1200" xmlns="http://www.w3.org/2000/svg"><path d="M850 252.3c-461.85 0-700-108.35-700-154.6S388.15-56.85 850-56.85s700 108.3 700 154.5c0 46.3-238.15 154.65-700 154.65m0 340.85c-461.85 0-700-108.3-700-154.5v-209.3C296.05 313 579.95 352.3 850 352.3s554-39.3 700-123v209.35c0 46.2-238.15 154.5-700 154.5m0 340.95c-461.85 0-700-108.3-700-154.55v-209.3c146.05 83.6 429.95 122.9 700 122.9s554-39.3 700-122.9v209.3c0 46.25-238.15 154.5-700 154.5m0 340.95c-461.85 0-700-108.3-700-154.55V911.2c146.05 83.6 429.95 122.9 700 122.9s554-39.3 700-122.9v209.25c0 46.25-238.15 154.5-700 154.5m0-1431.75c-385.3 0-800 79.65-800 254.5v1022.8c0 174.9 414.7 254.5 800 254.5s800-79.6 800-254.5V97.7c0-174.9-414.7-254.55-800-254.55" fill-rule="evenodd"/></svg>