<svg width="3550" height="1200" viewBox="0 0 3550 1200" xmlns="http://www.w3.org/2000/svg"><path d="M2752.25 1493.15c-460.6 0-698.05-108.3-698.05-154.55v-209.25c145.6 83.6 428.75 122.95 698.05 122.95 269.3 0 552.4-39.35 698.05-122.95v209.25c0 46.25-237.5 154.55-698.05 154.55zm0 340.9c-460.6 0-698.05-108.3-698.05-154.5v-209.3c145.6 83.6 428.75 122.9 698.05 122.9 269.3 0 552.4-39.3 698.05-122.9v209.3c0 46.2-237.5 154.5-698.05 154.5zm0 340.95c-460.6 0-698.05-108.3-698.05-154.55v-209.3c145.6 83.6 428.75 122.9 698.05 122.9 269.3 0 552.4-39.3 698.05-122.9v209.3c0 46.25-237.5 154.55-698.05 154.55zM1645.5 1456a2440.5 2440.5 0 00309-24.3v239.85a2329.6 2329.6 0 01-309 25.55V1456zm-797.75 446.25c-460.55 0-698.05-108.3-698.05-154.55v-209.3c145.65 83.6 428.75 122.9 698.05 122.9 269.35 0 552.45-39.35 698.05-123v209.4c0 46.25-237.45 154.55-698.05 154.55zM149.7 1197.5c145.65 83.6 428.75 122.9 698.05 122.9 269.35 0 552.45-39.35 698.05-123v209.35c0 46.25-237.45 154.55-698.05 154.55-460.55 0-698.05-108.3-698.05-154.55V1197.5zm0-340.9c145.65 83.55 428.75 122.9 698.05 122.9 269.3 0 552.45-39.35 698.05-122.9v209.25c0 46.25-237.45 154.55-698.05 154.55-460.55 0-698.05-108.3-698.05-154.55V856.6zm0-340.95c145.65 83.65 428.75 122.9 698.05 122.9 269.3 0 552.45-39.25 698.05-122.9v209.3c0 46.25-237.45 154.55-698.05 154.55-460.55 0-698.05-108.3-698.05-154.55v-209.3zm0-340.9c145.65 83.6 428.75 122.9 698.05 122.9 269.3 0 552.45-39.3 698.05-122.9v209.3c0 46.2-237.45 154.55-698.05 154.55-460.55 0-698.05-108.35-698.05-154.55v-209.3zM847.75-111.4c460.6 0 698.05 108.3 698.05 154.55 0 46.2-237.45 154.5-698.05 154.5-460.55 0-698.05-108.3-698.05-154.5 0-46.25 237.5-154.55 698.05-154.55zm50.35-600.35c145.65 83.6 428.75 122.9 698.05 122.9 269.3 0 552.45-39.3 698.05-122.9v209.3c0 46.2-237.45 154.55-698.05 154.55-460.55 0-698.05-108.35-698.05-154.55v-209.3zm698.05-286.15c460.6 0 698.05 108.3 698.05 154.55 0 46.2-237.45 154.5-698.05 154.5-460.55 0-698.05-108.3-698.05-154.5 0-46.25 237.5-154.55 698.05-154.55zm35.8 990.35c-68.55-132.7-404.35-197.25-733.85-203.2v-160.1c145.65 83.65 428.75 122.95 698.05 122.95 269.3 0 552.45-39.3 698.05-122.95v209.3c0 45-225.6 148.5-662.25 154zm13.55 340.7V92.35c254-4.45 511.95-43.75 648.7-122.3v209.3c0 44.5-220.9 146.35-648.7 153.8zm0 340.95V433.25c254-4.5 511.95-43.75 648.7-122.3v209.3c0 44.55-220.9 146.4-648.7 153.85zm310.2 315.35c-95.05 14.7-200.4 23.3-310.2 25.3v-240.6c254-4.5 511.95-43.75 648.7-122.25v133.05c-190.7 39-330.8 106.2-338.5 204.5zm-310.2 125.6a2450.15 2450.15 0 00309-24.25v239.75c-94.8 14.55-199.7 23.1-309 25.1v-240.6zM3450.3 997.7c0 46.25-237.5 154.6-698.05 154.6-460.6 0-698.05-108.35-698.05-154.6s237.45-154.55 698.05-154.55c460.55 0 698.05 108.3 698.05 154.55zm-698.05-254.55c-121.2 0-245.2 7.95-358.35 24.3v-1610.8c0-174.9-413.55-254.55-797.75-254.55-384.25 0-797.75 79.65-797.75 254.55v632.55C428.95-204.25 50-124.3 50 43.15V1747.7c0 174.9 413.55 254.55 797.75 254.55 345.95 0 714.55-64.85 784.8-205.35a2465 2465 0 00321.95-24.35v247.9c0 174.9 413.5 254.55 797.75 254.55S3550 2195.35 3550 2020.45V997.7c0-174.9-413.5-254.55-797.75-254.55z" fill-rule="evenodd"/></svg>