<svg width="2400" height="1200" viewBox="0 0 2400 1200" xmlns="http://www.w3.org/2000/svg"><path d="M800 150c386.6 0 700 313.4 700 700s-313.4 700-700 700-700-313.4-700-700 313.4-700 700-700zm0-100C358.15 50 0 408.15 0 850s358.15 800 800 800 800-358.15 800-800A800 800 0 00800 50zm1500 0h-50v-150a100 100 0 00100-100v-150a100 100 0 00-100-100H950a100 100 0 00-100 100v150a100 100 0 00-100 100v52.5c16.5 0 33-2.5 50-2.5s33.5 0 50 2.5V-100h1300V50h-939.5a900 900 0 01154 100H2300v150h-789a900 900 0 0167.5 100H2150v150h-502.5a890 890 0 0129.5 100h573v150h-552.5c0 16.5 2.5 33 2.5 50s0 33.5-2.5 50H2150v150h-473a890 890 0 01-29.5 100H2100v150h-522a902.5 902.5 0 01-67.5 100H2150v150h-785.5a900 900 0 01-154 100H2150a100 100 0 00100-100v-150a100 100 0 00-50-87 100 100 0 000-13v-150a100 100 0 000-13 100 100 0 0050-87V900a100 100 0 00100-100V650a100 100 0 00-100-100V400h50a100 100 0 00100-100V150a100 100 0 00-100-100zM950-200v-150h1300v150H950z" fill-rule="evenodd"/></svg>