<svg width="2400" height="1200" viewBox="0 0 2400 1200" xmlns="http://www.w3.org/2000/svg"><path d="M2400 1100v250c0 250-163 400-363.5 400h-1673C163.5 1750 0 1600 0 1350v-250a50 50 0 01100 0v250c0 200 118.5 300 263.5 300h1673c145 0 263.5-100 263.5-300v-250a50 50 0 01100 0zM1400 50h400V-50h-400V50zm0 300h400V250h-400v100zm0 300h400V550h-400v100zM1100 75h150V-75h-150V75zm0 300h150V225h-150v150zm0 300h150V525h-150v150zm300 275h400V850h-400v100zm-300 25h150V825h-150v150zm-700-25V-450a100 100 0 01100-100h1000a100 100 0 01100 100v150h350a100 100 0 01100 100v1400a100 100 0 01-100 100H950a100 100 0 01-100-100v-150H500a100 100 0 01-100-100zM1600-200H950v1400h1000V-200h-350zM500 950h350V800H650V700h200V550H650V450h200V300H650V200h200V50H650V-50h200v-150H650v-100h850v-150H500V950z" fill-rule="evenodd"/></svg>