<svg width="1800" height="1200" viewBox="0 0 1800 1200" xmlns="http://www.w3.org/2000/svg"><path d="M1800-250a100 100 0 00-100-100H100A100 100 0 000-250v500a100 100 0 0014 50 100 100 0 00-14 50v500a100 100 0 0014 50 100 100 0 00-14 50v500a100 100 0 00100 100h1600a100 100 0 00100-100V950a100 100 0 00-14-50 100 100 0 0014-50V350a100 100 0 00-14-50 100 100 0 0014-50v-500zm-1700 0h1600v500H100v-500zM1700 850H100V350h1600v500zm0 600H100V950h1600v500zm-300-250a100 100 0 11200 0 100 100 0 01-200 0zm0-600a100 100 0 11200 0 100 100 0 01-200 0zM1600 0a100 100 0 11-200 0 100 100 0 01200 0z" fill-rule="evenodd"/></svg>