<svg width="1900" height="1200" viewBox="0 0 1900 1200" xmlns="http://www.w3.org/2000/svg"><path d="M1800-200h-225v-100a75 75 0 00-150 0v100H475v-100a75 75 0 00-150 0v100H100A100 100 0 000-100v1400a100 100 0 00100 100h1700a100 100 0 00100-100V-100a100 100 0 00-100-100zm0 1500H100V100h1700v1200zM441 546l-41-137 253.5-109H800v800H628.5V469L441 546zm690.5 18H950c0-157 87-264 274.5-264C1389 300 1500 400 1500 545.5c0 108.5-80 200-167 289L1210 958h290v142H967V980l243-250c61.5-63 100-120 100-184s-28-100-86-100-92.5 46-92.5 118.5v-.5z" fill-rule="evenodd"/></svg>