<svg width="3300" height="1200" viewBox="0 0 3300 1200" xmlns="http://www.w3.org/2000/svg"><path d="M950 38v137H850v-450h100v183.5L1100-275h117L1067-89.5 1217 175h-117L1000-16l-50 54zm700-313l79.5 336 70.5-336h100l-108 450h-120.5l-79-311-79 311h-122L1283-275h100l72 336 81-336h114zm600 0h100v450h-100V-14.5h-166V175h-100v-450h100v177h166v-177zm750-350H300A300 300 0 000-325v1850a300 300 0 00300 300h2700a300 300 0 00300-300V-325a300 300 0 00-300-300zM750 1375a250 250 0 110-500 250 250 0 010 500zm600 150a250 250 0 110-500 250 250 0 010 500zm600 0a250 250 0 110-500 250 250 0 010 500zm600-150a250 250 0 110-500 250 250 0 010 500zm-903.5-990.5c-665 0-1242.5 300-1546.5 800V-325a200 200 0 01200-200h2700a200 200 0 01200 200v1511.5c-305.5-500.5-887.5-802-1553.5-802zM875 966l35.5 35.5L769 1143l-35.5-35.5L875 966zm450 509h50v-200h-50v200zm467-76l35.5 35.5L1969 1293l-35.5-35.5L1792 1399zm758-300v50h192.5v-50H2550z" fill-rule="evenodd"/></svg>