<svg width="2000" height="1200" viewBox="0 0 2000 1200" xmlns="http://www.w3.org/2000/svg"><path d="M1000-400C447.7-400 0 47.7 0 600s447.7 1000 1000 1000 1000-447.7 1000-1000A1000 1000 0 001000-400zM136.5 850h308v456.5a900 900 0 01-308-456.5zm817.5-7a96.5 96.5 0 110-193 96.5 96.5 0 010 193zm390.5 588v-431h250V695.5a200 200 0 10-100-6V900h-250v565.5A896 896 0 011000 1500h-5.5V938.5a200 200 0 10-100-6V1493a892 892 0 01-350-118.5V750H114a858.5 858.5 0 019.5-350h285a196 196 0 100-100h-256a900 900 0 011342-450V50H1292a196 196 0 100 100h300V-74a900 900 0 01-250 1505.5l2.5-.5zM1554 600a96.5 96.5 0 110-193 96.5 96.5 0 010 193zM500.5 346.5a96.5 96.5 0 11193 .05 96.5 96.5 0 01-193-.05zm700-243a96.5 96.5 0 11-193 0 96.5 96.5 0 01193 0z" fill-rule="evenodd"/></svg>