<svg width="2800" height="1200" viewBox="0 0 2800 1200" xmlns="http://www.w3.org/2000/svg"><path d="M800 250H400v500h400V250zM700 650H500V350h200v300zm650-400H950v500h400V250zm-100 400h-200V350h200v300zm650-400h-400v500h400V250zm-100 400h-200V350h200v300zm-450 300H950v500h400V950zm-100 400h-200v-300h200v300zM800 950H400v500h400V950zm-100 400H500v-300h200v300zm1200-400h-400v500h400V950zm-100 400h-200v-300h200v300zm597-2113a23.5 23.5 0 010 24.5l-250 372a25 25 0 01-21 11 26 26 0 01-10.5 0A25 25 0 012102-385l66-240h-143a24.5 24.5 0 01-21.5-12 23 23 0 010-24l226.5-374a25 25 0 0117.5-9.5h2.5a25 25 0 0124.5 25v6.5L2230-773h145a24.5 24.5 0 0122 10zm-197-537c-331.35 0-600 268.65-600 600H50a50 50 0 00-50 50V50a50 50 0 0050 50h100v2150a250 250 0 00250 250h1500a250 250 0 00250-250V100h100a50 50 0 0050-50v-159a600 600 0 00-100-1191zm-400 3700h-250v-450h250v450zm250-150a150 150 0 01-150 150v-550h-450v550H400a150 150 0 01-150-150V100h1800v2150zm250-2461.5c-16 3.35-32.65 5.85-50 7.5-16.6 2.15-33.3 3.5-50 4a500 500 0 11100-10v-1.5z" fill-rule="evenodd"/></svg>