<svg width="4100" height="1200" viewBox="0 0 4100 1200" xmlns="http://www.w3.org/2000/svg"><path d="M1363.5 1025H1100V375H600v650H450a57 57 0 01-50-57.5V225h1800v300h100V225h200a102.5 102.5 0 0080-42.5 105.5 105.5 0 0016-90.5l-350-1200a97 97 0 00-96-67H450a97 97 0 00-96 68.5L4 90a107.5 107.5 0 0016 91.5c18.5 26.1 48 42.15 80 43.5h200v742.5A156.5 156.5 0 00450 1125h863.5l50-100zM350 125H100l350-1200h1700l350 1200H350zm650 900H700V475h300v550zM4100 25v-240a110 110 0 00-110.5-110H3900v-200a50 50 0 00-50-50h-50a50 50 0 00-50 50v200h-200v-200a50 50 0 00-50-50h-50a50 50 0 00-50 50v200h-90a110 110 0 00-110 110V25a350 350 0 00350 350h50v155.5A144.5 144.5 0 003745.5 675H3850a50 50 0 0150 50v200a50 50 0 00100 0V725a150 150 0 00-150-150h-104.5a45 45 0 01-44.5-44.5V375h50a350 350 0 00349-350zm-550 250a250 250 0 01-250-250v-240c0-5.5 4.5-10 10-10h679.5a10.5 10.5 0 0110.5 10V25a250 250 0 01-250 250h-200zM2100 2075a300 300 0 11-600 0 300 300 0 01600 0zm1450-715.5c-97-84.5-550-534.5-674-652s-1126-75-1245-75 8.5 86-27.5 147-222 433-272 535.5-47 186-47 300-11 366.5 69.5 460.5c18 21.5 33.5 38 50 50a400 400 0 11775.5 64.5l691 4.5a400 400 0 11762.5 3.5h10.5c94.5 0 189.5 3 189.5-138.5s-11-388.5-42.5-450-148.5-164-240.5-250zm-427.5-105c-240-35-768.5-104.5-950-111.5l-294-11 203-422c308.5 0 647.5 17.5 715 82s241.5 236.5 397.5 391c25.5 26.5 9 83-74 71.5h2.5zm422.5 750a300 300 0 01-361 361 300 300 0 01-223.5-223.5 300 300 0 01361-361 300 300 0 01221 225l2.5-1.5z" fill-rule="evenodd"/></svg>