<svg width="1800" height="1200" viewBox="0 0 1800 1200" xmlns="http://www.w3.org/2000/svg"><path d="M1800 775V25a100 100 0 00-100-100h-125a312 312 0 0032-273 277 277 0 00-257-177 274 274 0 00-100 18.5c-93.5 36-260.5 225.5-350 334-90.5-108.5-257.5-300-350-334A274.5 274.5 0 00450-525a277.5 277.5 0 00-257 176.5 269 269 0 0042.5 245c6.5 10 14 19 21.5 28H100A100 100 0 000 24.5V775a50 50 0 000 100v750a100 100 0 00100 100h750a50 50 0 00100 0h750a100 100 0 00100-100V875a50 50 0 000-100zm-100 0H950V25h750v750zM1287-413a175.5 175.5 0 01227 100c36 91-14 238-114 238H950s246.5-303.5 337-338zM287-313a175.5 175.5 0 01227-100c89.5 34.5 336 338 336 338H450c-100 0-200-147-164-237.5l1-.5zM100 25h750v750H100V25zm0 1600V875h750v750H100zm1600 0H950V875h750v750z" fill-rule="evenodd"/></svg>