<svg width="2650" height="1200" viewBox="0 0 2650 1200" xmlns="http://www.w3.org/2000/svg"><path d="M2630 1409.5L2194.5 975A774.618 774.618 0 001077-98 778.5 778.5 0 00947 75H425a50 50 0 00-44.5 27.5l-375 750A50 50 0 0050 925h250v550a50 50 0 0050 50h1200a50 50 0 0050-50v-250h25a769.5 769.5 0 00500-181.5l436.5 436.5a50 50 0 1070.5-70.5h-2zM1525 825v292A674.5 674.5 0 011063.5 75H1475l375 750h-325zm575 100a671.5 671.5 0 01-477.5 200V925H1850a100 100 0 0089.5-144.5l-375-750A100 100 0 001475-25h-329.5A675 675 0 112100 925z" fill-rule="evenodd"/></svg>