<svg width="2600" height="1200" viewBox="0 0 2600 1200" xmlns="http://www.w3.org/2000/svg"><path d="M1150 1000H650v500h500v-500zm-100 400H750v-300h300v300zm1546-680L2246-480a100 100 0 00-96-70H450a100 100 0 00-96 72L4 722a100 100 0 0096 128h200v750a150 150 0 00150 150h1700a150 150 0 00150-150V850h200a100 100 0 0080-42 100 100 0 0016-88zm-696 930h-300v-550h300v550zm300-50a50 50 0 01-50 50h-150v-650h-500v650H450a50 50 0 01-50-50V850h1800v750zM100 750L450-450h1700l350 1200H100z" fill-rule="evenodd"/></svg>