<svg width="2700" height="1200" viewBox="0 0 2700 1200" xmlns="http://www.w3.org/2000/svg"><path d="M1885.5 891a50 50 0 010 69.5 50 50 0 01-71 0c-258.85-249.95-669.15-249.95-928 0a50 50 0 01-71 0 50 50 0 010-69.5c298.6-288.35 771.9-288.35 1070.5 0h-.5zm-712 357a250 250 0 10353.5 353.6 250 250 0 00-353.5-353.6zm-759-712.5a55 55 0 000 74 50 50 0 0070 0 1176.5 1176.5 0 011731 0 47.5 47.5 0 0070 0 55 55 0 000-74 1271.5 1271.5 0 00-1871 0zm2246-423.5a1808.5 1808.5 0 00-2621 0 53 53 0 000 73 50 50 0 0070.5 0 1711.5 1711.5 0 012480 0 50 50 0 0070.5 0 53 53 0 000-73z" fill-rule="evenodd"/></svg>