<svg width="2300" height="1200" viewBox="0 0 2300 1200" xmlns="http://www.w3.org/2000/svg"><path d="M1748.65-800v330.45l490 282.95a100.1 100.1 0 0146.6 112.5 100.1 100.1 0 01-96.6 74.1H2075v1900c0 55.15-44.85 100-100 100H375c-55.15 0-100-44.85-100-100V0H111.4a100.1 100.1 0 01-96.6-74.1 100.1 100.1 0 0146.6-112.5l1039.2-600a99.4 99.4 0 0197.95-.5l300.1 173.25V-800h250zM1975 0H375v1900h975v-800h500v800h125V0zm-225 1200h-300v700h300v-700zm-550-100v500H500v-500h700zm-100 100H900v300h200v-300zm-300 0H600v300h200v-300zm400-1050v500H500V150h700zm600 0v500h-400V150h400zm-700 100H900v300h200V250zm-300 0H600v300h200V250zm900 0h-200v300h200V250zm-550-949.65L111.4-100h2077.25L1150-699.65z" fill-rule="evenodd"/></svg>