<svg width="2250" height="1200" viewBox="0 0 2250 1200" xmlns="http://www.w3.org/2000/svg"><path d="M2200-1025H50a50 50 0 00-50 50v750a50 50 0 0050 50h100v2150a250 250 0 00250 250h1450a250 250 0 00250-250V-175h100a50 50 0 0050-50v-750a50 50 0 00-50-50zm-700 3150v-450h250v450h-250zm500-150a150 150 0 01-150 150v-550h-450v550H400a150 150 0 01-150-150V-175h1750v2150zM750-25H400v500h350V-25zM650 375H500V75h150v300zm650-400H950v500h350V-25zm-100 400h-150V75h150v300zm650-400h-350v500h350V-25zm-100 400h-150V75h150v300zM750 675H400v500h350V675zm-100 400H500V775h150v300zm650-400H950v500h350V675zm-100 400h-150V775h150v300zm650-400h-350v500h350V675zm-100 400h-150V775h150v300z" fill-rule="evenodd"/></svg>