<svg width="4600" height="1200" viewBox="0 0 4600 1200" xmlns="http://www.w3.org/2000/svg"><path d="M1149.1-1000c29 0 56.5 12.65 75.45 34.4l5.4 6.75L1550-518.7l320.1-440.15c17.05-23.5 43.5-38.25 72.15-40.75l8.75-.4h698.15c29 0 56.5 12.65 75.45 34.4l5.4 6.75 320 440.15 320.1-440.15c17.05-23.5 43.5-38.25 72.15-40.75l8.75-.4h698.15c29 0 56.5 12.65 75.45 34.4l5.4 6.75L4599.9-450h.1v2500c0 82.7-67.3 150-150 150H3150a149.3 149.3 0 01-93.75-33l-6.25-5.35a149.4 149.4 0 01-100 38.35H1650a149.3 149.3 0 01-93.75-33l-6.25-5.35a149.4 149.4 0 01-100 38.35H150c-82.7 0-150-67.3-150-150V-450h.05l370-508.9c17.1-23.5 43.5-38.25 72.2-40.75l8.75-.35h698.15zM4500-350H3100v2400a50 50 0 0050 50h750v-750h400v750h150a50 50 0 0050-50V-350zm-300 1800h-200v650h200v-650zM1500-350H100v2400a50 50 0 0050 50h750v-750h400v750h150a50 50 0 0050-50V-350zm-300 1800h-200v650h200v-650zm1500 0h-200v650h200v-650zm300-1800H1600v2400a50 50 0 0050 50h750v-750h400v750h150a50 50 0 0050-50V-350zm700 1700v500h-400v-500h400zm-3000 0v500H300v-500h400zm1500 0v500h-400v-500h400zm1400 100h-200v300h200v-300zm-3000 0H400v300h200v-300zm1500 0h-200v300h200v-300zm2200-850v500h-400V600h400zm-600 0v500h-400V600h400zm-2400 0v500H900V600h400zm-600 0v500H300V600h400zm1500 0v500h-400V600h400zm600 0v500h-400V600h400zm1400 100h-200v300h200V700zm-600 0h-200v300h200V700zm-2400 0h-200v300h200V700zm-600 0H400v300h200V700zm1500 0h-200v300h200V700zm600 0h-200v300h200V700zm1000-850v500h-400v-500h400zm-3000 0v500H300v-500h400zm600 0v500H900v-500h400zm3000 0v500h-400v-500h400zm-1500 0v500h-400v-500h400zm-600 0v500h-400v-500h400zM1200-50h-200v300h200V-50zm2400 0h-200v300h200V-50zm600 0h-200v300h200V-50zM600-50H400v300h200V-50zm2100 0h-200v300h200V-50zm-600 0h-200v300h200V-50z" fill-rule="evenodd"/></svg>