<svg width="2600" height="1200" viewBox="0 0 2600 1200" xmlns="http://www.w3.org/2000/svg"><path d="M2100 100h-450v-350h350l100 350zM367 550h583V200H468.5L367 550zm133-450h450v-350H600L500 100zm1150 100v350h583l-100-350h-483zm-600 350h500V200h-500v350zm0-450h500v-350h-500v350zm50 1400H600v-500h500v500zm-100-400H700v300h300v-300zm1580-292a100 100 0 01-80 42h-200v750a150 150 0 01-150 150H450a150 150 0 01-150-150V850H100a100 100 0 01-80-42 100 100 0 01-16-88L354-480a100 100 0 0196-70h1700a100 100 0 0196 72l350 1200a100 100 0 01-16 86zm-680 292h-300v550h300v-550zm300-250H400v750a50 50 0 0050 50h1050v-650h500v650h150a50 50 0 0050-50V850zm300-100L2150-450H450L100 750h2400z" fill-rule="evenodd"/></svg>