<svg width="3250" height="1200" viewBox="0 0 3250 1200" xmlns="http://www.w3.org/2000/svg"><path d="M2698.6-800v330.5l490.05 283a100.1 100.1 0 0146.6 112.5 100.1 100.1 0 01-96.6 74.1H3025V1900c0 55.1-44.85 100-100 100H425c-55.15 0-100-44.9-100-100V0H161.35a100.1 100.1 0 01-96.6-74.1 100.1 100.1 0 0146.6-112.5l1039.25-600a100.15 100.15 0 0150-13.35h898.8c17.55 0 34.85 4.65 50 13.4l299.2 172.7V-800h250zM2925 .1H425V1900h1875v-800h500v800h125V0zM2700 1200h-300v700h300v-700zm-1450-100v500H550v-500h700zm875 0v500h-700v-500h700zm-975 100H950v300h200v-300zm-300 0H650v300h200v-300zm1175 0h-200v300h200v-300zm-300 0h-200v300h200v-300zM1250 150.05v500H550v-500h700zm875 0v500h-700v-500h700zm625 0v500h-400v-500h400zm-1600 100H950v300h200v-300zm-300 0H650v300h200v-300zm1175 0h-200v300h200v-300zm-300 0h-200v300h200v-300zm925 0h-200v300h200v-300zm-550.6-950h-898.8l-1039.25 600h2977.3l-1039.25-600z" fill-rule="evenodd"/></svg>