<svg width="2900" height="1200" viewBox="0 0 2900 1200" xmlns="http://www.w3.org/2000/svg"><path d="M1749.45-325a100 100 0 0149.9 13.35L2098.6-138.9V-325h250V5.45l490 282.95a100.05 100.05 0 01-50 186.6h-113.55v950c0 55.15-44.9 100-100 100h-2200c-55.15 0-100-44.85-100-100V475H111.3a100.05 100.05 0 01-50-186.6l1039.2-600a100.2 100.2 0 0150-13.4zM2575 475H375v950h975V625h500v800h725V475zm-825 250h-300v700h300V725zm-550-100v500H500V625h700zm1225 0v500h-400V625h400zM1100 725H900v300h200V725zm-300 0H600v300h200V725zm1525 0h-200v300h200V725zm-575.55-950H1150.6L111.3 375h2677.25L1749.5-225z" fill-rule="evenodd"/></svg>