<svg width="2400" height="1200" viewBox="0 0 2400 1200" xmlns="http://www.w3.org/2000/svg"><path d="M1145.3-349a100.15 100.15 0 01109.4 0L1575-139.8V-325h250V23.45l486.7 317.85a100.6 100.6 0 0141.25 112.2 100.8 100.8 0 01-95.9 71.5H2125v950c0 55.15-44.85 100-100 100H375c-55.15 0-100-44.85-100-100V525H142.95a100.7 100.7 0 01-95.85-71.4 100.55 100.55 0 0141.25-112.35zM2025 525H375v950h975V675h500v800h175V525zm-275 250h-300v700h300V775zm-550-100v500H500V675h700zm-100 100H900v300h200V775zm-300 0H600v300h200V775zm400-1040.25L142.95 425h2114.1L1200-265.25z" fill-rule="evenodd"/></svg>