<svg width="2650" height="1200" viewBox="0 0 2650 1200" xmlns="http://www.w3.org/2000/svg"><path d="M1350-900c20.35 0 40.5 6.15 57.85 18.4l392.2 277.8V-800h250v373.3L2607.9-31.6A100.05 100.05 0 012550 150h-100v1850c0 82.7-67.3 150-150 150H400c-82.75 0-150-67.3-150-150V150H150A100 100 0 0192.2-31.6l1200-850A100.05 100.05 0 011350-900zM2350 150H350v1850c0 27.55 22.4 50 50 50h1150v-750h500v750h250c27.6 0 50-22.45 50-50V150zm-400 1250h-300v650h300v-650zm-699.95-100v500h-700v-500h700zm-100 100h-200v300h200v-300zm-300 0h-200v300h200v-300zm400-1100v500h-700V300h700zm900 0v500h-700V300h700zm-1000 100h-200v300h200V400zm-300 0h-200v300h200V400zm1200 0h-200v300h200V400zm-300 0h-200v300h200V400z" fill-rule="evenodd"/></svg>