<svg width="2600" height="1200" viewBox="0 0 2600 1200" xmlns="http://www.w3.org/2000/svg"><path d="M1300 800H600v500h700V800zM700 900h200v300H700V900zm500 300h-200V900h200v300zm1358-731.5l-558-395V-300h-250v196l-392-278a100 100 0 00-115.5 0L42.5 468A100 100 0 00100 650h200v850a150 150 0 00150 150h1700a150 150 0 00150-150V650h200a100 100 0 0058-181.5zM1900 1550h-300V900h300v650zm300-50a50 50 0 01-50 50h-150V800h-500v750H450a50 50 0 01-50-50V650h1800v850zm50-950H100l1200-850 1200 850h-250z" fill-rule="evenodd"/></svg>