<svg width="2200" height="1200" viewBox="0 0 2200 1200" xmlns="http://www.w3.org/2000/svg"><path d="M2100-950a100 100 0 01100 100v2900a100 100 0 01-100 100H100A100 100 0 010 2050V-850a100 100 0 01100-100zm0 600H100v2400h1400v-700h400v700h200V-350zm-300 1800h-200v600h200v-600zM700 1350v550H300v-550h400zm600 0v550H900v-550h400zm-700 100H400v350h200v-350zm600 0h-200v350h200v-350zM700 600v550H300V600h400zm600 0v550H900V600h400zm600 0v550h-400V600h400zM600 700H400v350h200V700zm600 0h-200v350h200V700zm600 0h-200v350h200V700zm100-850v550h-400v-550h400zm-1200 0v550H300v-550h400zm600 0v550H900v-550h400zm500 100h-200v350h200V-50zM600-50H400v350h200V-50zm600 0h-200v350h200V-50z" fill-rule="evenodd"/></svg>