<svg width="2800" height="1200" viewBox="0 0 2800 1200" xmlns="http://www.w3.org/2000/svg"><path d="M2482.25-825a100 100 0 0192.85 62.85l220.05 550A100.1 100.1 0 012702.25-75H2650v1950c0 82.7-67.3 150-150 150H1500c-38.4 0-73.5-14.5-100.05-38.35l-6.2 5.35a149.3 149.3 0 01-93.75 33H300c-82.75 0-150-67.3-150-150V-75H97.7A100 100 0 014.85-212.15l220-550a100 100 0 0192.8-62.85zM2550-75H1450v1950a50 50 0 0050 50h250v-750h500v750h250c27.6 0 50-22.45 50-50V-75zm-1200 0H250v1950c0 27.55 22.4 50 50 50h250v-750h500v750h250c27.6 0 50-22.45 50-50V-75zm800 1350h-300v650h300v-650zm-1200 0H650v650h300v-650zM2350 175v500h-700V175h700zm-1200 0v500H450V175h700zm1100 100h-200v300h200V275zm-300 0h-200v300h200V275zm-1200 0H550v300h200V275zm300 0H850v300h200V275z" fill-rule="evenodd"/></svg>