<svg width="2000" height="1200" viewBox="0 0 2000 1200" xmlns="http://www.w3.org/2000/svg"><path d="M1935.5-530.5L700-1000v-275c0-27.5-15-50-42.5-50a50 50 0 00-50 50v237L450-1095.5V-1575a50 50 0 00-50-50 45 45 0 00-43.5 50v441l-221-84.5A100 100 0 000-1125v3700a250 250 0 00250 250h1500a250 250 0 00250-250V-437.5a100 100 0 00-64.5-93zM725 2725v-450h550v450H725zm1175-150a150 150 0 01-150 150h-375v-550H625v550H250a150 150 0 01-150-150v-3700l1800 687.5V2575zM250-275v400h400v-400H250zM550 25H350v-200h200V25zm250-300v400h400v-400H800zm300 300H900v-200h200V25zm250-300v400h400v-400h-400zm300 300h-200v-200h200V25zM250 325v400h400V325H250zm300 300H350V425h200v200zm250-300v400h400V325H800zm300 300H900V425h200v200zm250-300v400h400V325h-400zm300 300h-200V425h200v200zM250 925v400h400V925H250zm300 300H350v-200h200v200zm250-300v400h400V925H800zm300 300H900v-200h200v200zm250-300v400h400V925h-400zm300 300h-200v-200h200v200zM250 1525v400h400v-400H250zm300 300H350v-200h200v200zm250-300v400h400v-400H800zm300 300H900v-200h200v200zm250-300v400h400v-400h-400zm300 300h-200v-200h200v200z" fill-rule="evenodd"/></svg>