<svg width="2400" height="1200" viewBox="0 0 2400 1200" xmlns="http://www.w3.org/2000/svg"><path d="M2370.5 48.5l-70.5-71V-1131a100 100 0 00-100-100h-200a100 100 0 00-100 100v790l-637-517.5a100 100 0 00-163 77.5v239L713.5-858.5A100 100 0 00550-781v239L163.5-858.5A100 100 0 000-781v3106a100 100 0 00100 100h2200a100 100 0 00100-100V119a100 100 0 00-29.5-70.5zM2300 2325H100V-781l550 450v-450l550 450v-450l800 650v-1000h200V19l100 100v2206zM1143 750.5v-100a50 50 0 01100 0v100a50 50 0 01-100 0zm650 400a50 50 0 01-50 50h-100a50 50 0 010-100h100a50 50 0 0151.5 49l-1.5 1zM1461 883a50 50 0 010-71l71-70.5a50.028 50.028 0 0170.5 71l-71 70.5a50 50 0 01-70.5 0zm-670-72a50.028 50.028 0 1171-70.5l70.5 71a50.028 50.028 0 01-71 70.5L791 811zm753 639.5h-50v-233a300 300 0 10-600 0V1451h-50a50 50 0 000 100h150v350a50 50 0 00100 0v-350h200v250a50 50 0 00100 0v-250h150a50 50 0 000-100v-.5zm-150 0H994v-233a200 200 0 11400 0v233zm-600-300a50 50 0 01-50 50H644a50 50 0 010-100h100a50 50 0 0150 50z" fill-rule="evenodd"/></svg>