<svg width="2000" height="1200" viewBox="0 0 2000 1200" xmlns="http://www.w3.org/2000/svg"><path d="M1935.5-456.5L707.5-925v-278a50 50 0 00-100 0v239l-150-57.5V-1501a50 50 0 00-100 0v441l-221-84.5a100 100 0 00-136.5 94V2525a250 250 0 00250 250h1500a250 250 0 00250-250V-363a100 100 0 00-64.5-93.5zM1900 2525a150 150 0 01-150 150H250a150 150 0 01-150-150v-3575.5L1900-363v2888zM950 1106.5v-100a50 50 0 01100 0v100a50 50 0 01-100 0zm500 350h100a50 50 0 010 100h-100a50 50 0 010-100zM1268 1239a50 50 0 010-71l71-70.5a50.028 50.028 0 0170.5 71l-71 70.5a50 50 0 01-70.5 0zm-671.5-72a50.028 50.028 0 0171-70.5l70.5 71a50.028 50.028 0 11-71 70.5l-70.5-71zM700 1806.5h-50a50 50 0 000 100h150v350a50 50 0 00100 0v-350h200v250a50 50 0 00100 0v-250h150a50 50 0 000-100h-50V1575a300 300 0 00-600 0v231.5zM800 1575a200 200 0 11400 0v233.5H800V1575zm-400-66a50 50 0 0150-50h100a50 50 0 010 100H450a50 50 0 01-50-52v2z" fill-rule="evenodd"/></svg>