<svg width="2600" height="1200" viewBox="0 0 2600 1200" xmlns="http://www.w3.org/2000/svg"><path d="M2596 709.5l-350-1194a94.5 94.5 0 00-96-65.5H450a94.5 94.5 0 00-96 66L4 713a110 110 0 0016 92.5 105 105 0 0080 44.5h191.5v737.5A168.5 168.5 0 00450 1750h1700a154.5 154.5 0 00141.5-162.5V850H2500a106.5 106.5 0 0080-46 113.5 113.5 0 0016-94.5zM2496 750h-304.5v837.5c0 32-20.5 62.5-41.5 62.5H450a69.5 69.5 0 01-58.5-62.5V750h-287l-4.5-3.5a15 15 0 010-6L450-450h1700l350 1187v6.5a34.5 34.5 0 01-6 6.5h2zM1250 75.5v-100a50 50 0 01100 0v100a50 50 0 01-100 0zm650 400a50 50 0 01-50 50h-100a50 50 0 110-100h100a50 50 0 0150 48.5v1.5zM1568 208a50 50 0 010-71l71-70.5a50.028 50.028 0 0170.5 71l-71 70.5a50 50 0 01-70.5 0zm-668-72a50.028 50.028 0 1171-70.5l70.5 71a50.028 50.028 0 01-71 70.5L900 136zm750 639.5h-50V542a300 300 0 10-600 0v233.5h-50a50 50 0 000 100h150v350a50 50 0 00100 0v-350h200v250a50 50 0 00100 0v-250h150a50 50 0 000-100zm-150 0h-400V542a200 200 0 11400 0v233.5zm-600-300a50 50 0 01-50 50H750a50 50 0 010-100h100a50 50 0 0150 50z" fill-rule="evenodd"/></svg>