<svg width="2000" height="1200" viewBox="0 0 2000 1200" xmlns="http://www.w3.org/2000/svg"><path d="M1950 2325h-200V706.5c0-86.5-70-132.5-150-144.5V-798.5c-5.5-263-181-426.5-458-426.5H122c-72 0-122 63.5-122 150s50 150 122.5 150H300v125a225 225 0 10450 0v-125h182a110.5 110.5 0 0094.5-50 169 169 0 0023.5-93.5 200 200 0 00-7-56.5h100c223 0 353.5 120 358 327.5V562c-80 12.5-150 58-150 144.5V2325h-201a50 50 0 000 100h800a50 50 0 000-100zM650-799.5a125 125 0 11-250 0V-925h250v125.5zm292.5-232a11 11 0 01-11 6.5H123c-15.5 0-22.5-29.5-22.5-50s10.5-50 22-50H926c13 0 25.5 27.5 25.5 56.5a71 71 0 01-9 37zM1650 2325h-200V706.5c0-50 91-50 95-50h11.5c4 0 94 0 94 50L1650 2325z" fill-rule="evenodd"/></svg>