<svg width="1800" height="1200" viewBox="0 0 1800 1200" xmlns="http://www.w3.org/2000/svg"><path d="M200 525H73.5a50 50 0 000 100H200a50 50 0 000-100zm400 850a200 200 0 00200 200h200a200 200 0 00200-200v-50H600v50zM900-125a50 50 0 0050-50v-126.5a50 50 0 00-100 0V-175a50 50 0 0050 50zM435.5 110.5a50 50 0 000-70.5L346-50a50 50 0 10-70.5 70.5L365 110a50 50 0 0070.5.5zM900-25c-303.75 0-550 246.25-550 550a512.5 512.5 0 0068 265.5c66 117 182 284.5 182 384.5v50h600v-50c0-100 116-267 182-384a513 513 0 0068-266c0-303.75-246.25-550-550-550zm50 818.5V1025H850V793.5l-185-183 70.5-71 164.5 163 165-163 70.5 71-185.5 183zM1726.5 525H1600a50 50 0 000 100h126.5a50 50 0 000-100zM1454-50l-89.5 89.5A50 50 0 001435 110l89.5-89.5A50 50 0 101454-50z" fill-rule="evenodd"/></svg>