<svg width="2250" height="1200" viewBox="0 0 2250 1200" xmlns="http://www.w3.org/2000/svg"><path d="M445 142a496 496 0 11894.5-176 1141 1141 0 00-250-28.5A1107 1107 0 00445 142zm1777 616.5v300a200 200 0 01-200 200h-77.5a865.5 865.5 0 01-184 236v191a200 200 0 01-200 200h-200a200 200 0 01-191.5-142 1009.5 1009.5 0 01-204-5 200 200 0 01-193 147H572a200 200 0 01-200-200v-240A834.5 834.5 0 01191 1152a250 250 0 01-11.5-485C290 298 661 37 1091.5 37c133.9 0 266.5 26 390.5 76.5L1625 36a155 155 0 01228.5 150L1837 366.5A833.5 833.5 0 011962 558h60.5A200 200 0 012222 758.5zm-100 0a100 100 0 00-100-100h-127A736 736 0 001732 400a54 54 0 000-7l19.5-216.5a55 55 0 00-51.5-59 54.5 54.5 0 00-26 7c-57 31-129.5 70.5-185 100a924 924 0 00-395-87.5c-416.5 0-762 269-832 622.5h-13.5a150 150 0 000 300c6.8.5 13.7.5 20.5 0a728.5 728.5 0 00206 350v281a100 100 0 00100 100h200a100 100 0 00100-100V1620c127.25 31.05 259.65 35 388.5 11.5v54.5a100 100 0 00100 100h200a100 100 0 00100-100v-236a757 757 0 00221-290h141a100 100 0 00100-100l-3.5-301.5zM1550 567a100 100 0 100 200 100 100 0 000-200z" fill-rule="evenodd"/></svg>