<svg width="3250" height="1200" viewBox="0 0 3250 1200" xmlns="http://www.w3.org/2000/svg"><path d="M426 700c0-32-22-50-63.5-50H330v-54.5h32.5c36.5 0 58-15.5 58-47a42 42 0 00-47-43.5c-30 0-46 16-46 39h-65c0-50 33.5-93.5 111-93.5s114 39.5 114 95.5a76.5 76.5 0 01-58.5 76 82 82 0 0163.5 82c0 57-47 96.5-119 96.5-79.5 0-115.5-40-115.5-95h64.5c0 25 18.5 40 50 40s53.5-17 53.5-45.5zm1432 550H100A100 100 0 010 1150V250a100 100 0 01100-100h2028c-27 36-55 71.5-83 106.5-145 184.5-295 375-295 593.5a787.5 787.5 0 00108 400zM550 300H200v650h350V300zm500 0H700v650h350V300zm350 408.5L1314.5 847h85.5V708.5zM1550 300h-84a85 85 0 0118.5 53.5c0 57-47 96.5-119 96.5-80 0-115.5-40-115.5-95h64.5c0 25 18.5 40 50 40s52.5-17 52.5-45a50 50 0 00-50-50h-167v650h200v-50h-150v-50l146.5-229.5h65.5v227h38V900h-38.5v50h88.5V300zM873.5 505.5a43.5 43.5 0 0144.5 50 130.5 130.5 0 01-46 87l-105 112V800h221v-53.5H854.5l61-65A193.5 193.5 0 00985 555a103 103 0 00-111.5-105A100 100 0 00762 561.5h65.5c0-34 14.5-56 46-56zM3250 850c0 386.6-313.4 700-700 700s-700-313.4-700-700c0-186 132-355 272-533.5C2272 125 2427-73 2427-302a50 50 0 0126.5-44.5 50 50 0 0150 3.5C2930-44 3250 468.5 3250 850zm-100 0c0-326.5-272-777-631-1058.5-34.5 223-184.5 415-319.5 587S1950 700 1950 850a600 600 0 00425 571.5 223.5 223.5 0 01-113-171.5c0-144 174.5-282 142-429.5A203.5 203.5 0 012515 995c14 145.5 242.5-134 177.5-464 0 0 239.5 197 226 491-9 200-68.5 317-144.5 384a600 600 0 00376-556z" fill-rule="evenodd"/></svg>