<svg width="2950" height="1200" viewBox="0 0 2950 1200" xmlns="http://www.w3.org/2000/svg"><path d="M2942.5 526.5A50 50 0 012900 550h-250v550a50 50 0 01-50 50H1400a50 50 0 01-50-50V550h-250a50 50 0 01-44.5-72.5l375-750A50 50 0 011475-300h1050a50 50 0 0144.5 27.5l375 750a50 50 0 01-2 49zM300 400h525a50 50 0 000-100H300a50 50 0 000 100zm750 350H675a50 50 0 000 100h375a50 50 0 000-100zm-225 300H75a50 50 0 000 100h750a50 50 0 000-100zm1650 200a125 125 0 100 250 125 125 0 000-250zm-950 0a125 125 0 100 250 125 125 0 000-250z" fill-rule="evenodd"/></svg>