<svg width="1400" height="1200" viewBox="0 0 1400 1200" xmlns="http://www.w3.org/2000/svg"><path d="M1188 202.5a2006.5 2006.5 0 00-518.5-530 70 70 0 00-110 57A667.5 667.5 0 01480 50c-72 136.5-184.5 250-285.5 362a1039 1039 0 00-134 182.5A456.6 456.6 0 000 817a750 750 0 00203.5 517A682.5 682.5 0 00700 1550a682 682 0 00495.5-216A750 750 0 001400 817c0-202.5-82-417-212-614.5zM1123.5 1265a595 595 0 01-200 139 520.5 520.5 0 00153.5-371.5C1083 738 842 512 842 512c67 339-167.5 626.5-182 477a209 209 0 00-113.5-180.5C579.5 958.5 422 1102 422 1250a220 220 0 0078 163.5 592 592 0 01-224-150 650 650 0 01-176-450 354.5 354.5 0 0150-174 950 950 0 01121.5-164l57-63.5a1568 1568 0 00242-318A769.5 769.5 0 00659-215a1914.5 1914.5 0 01447 470c126 197.5 194 391 194 562a647.05 647.05 0 01-176.5 448z" fill-rule="evenodd"/></svg>