<svg width="3800" height="1200" viewBox="0 0 3800 1200" xmlns="http://www.w3.org/2000/svg"><path d="M1350 975a71.5 71.5 0 00-68.5-50h-962a71.5 71.5 0 00-69.5 50L0 1733.5a70.5 70.5 0 0010 62.5c13.7 18.6 35.4 29.5 58.5 29.5H200V2325a100 100 0 00100 100h1000a100 100 0 00100-100v-500h128.5a72 72 0 0059.5-28.5 65.5 65.5 0 009-59.5l-247-762zm-250 1350H950v-300h150v300zm200 0h-100v-400H850v400H300v-500h1000v500zM111 1725l229-700h920.5l227.5 700H111zM1171.5-325H1300v500a100 100 0 00100 100h1000a100 100 0 00100-100v-500h127a72 72 0 0059.5-28.5 65.5 65.5 0 009-59.5L2450-1175a71.5 71.5 0 00-68.5-50h-962a71.5 71.5 0 00-69.5 50l-250 758.5a70.5 70.5 0 0010 62.5c14.4 19.3 37.5 30.15 61.5 29zM2200 175h-150v-300h150v300zm200 0h-100v-400h-350v400h-550v-500h1000v500zm-960.5-1300H2360l227.5 700H1211l228.5-700zM3797 1737l-247-762a71.5 71.5 0 00-68.5-50h-962a71.5 71.5 0 00-69.5 50l-250 758.5a70.5 70.5 0 0010 62.5c13.7 18.6 35.4 29.5 58.5 29.5H2400V2325a100 100 0 00100 100h1000a100 100 0 00100-100v-500h127a72 72 0 0059.5-28.5 65.5 65.5 0 0010.5-59.5zm-497 588h-150v-300h150v300zm200 0h-100v-400h-350v400h-550v-500h1000v500zm-1188.5-600l228.5-700h920.5l227.5 700H2311.5zm-492-1294.5a50 50 0 010 70.5L1500 819.5a50 50 0 01-70.5-70.5L1750 430.5a50 50 0 0169.5 0zm232 0l318 318a50 50 0 11-69.5 71l-318-318a50 50 0 0168-71h1.5zM2175 1025h-550a50 50 0 010-100h550a50 50 0 010 100z" fill-rule="evenodd"/></svg>