<svg width="1800" height="1200" viewBox="0 0 1800 1200" xmlns="http://www.w3.org/2000/svg"><path d="M1759.5 782.5V776c0-1.5 0-3.5-1.5-5 0-1.5-1.5-3.5-1.5-5s-1.5-3.5-1.5-5-1.5-3.5-1.5-5c-1.5-1.5-1.5-3.5-3.5-3.5-1.5-1.5-1.5-3.5-3.5-3.5l-3.5-3.5-3.5-3.5c-1.5-1.5-3.5-1.5-5-3.5-1.5 0-1.5-1.5-3.5-1.5l-547-245-48.5-260h322v100.5c0 28.5 22 50.5 50.5 50.5s50.5-22 50.5-50.5v-156c0-6.5-3.5-13.5-6.5-20a36.15 36.15 0 00-15-15c-1.5-1.5-3.5-1.5-5-3.5l-451.5-251.5c-3.5-1.5-6.5-3.5-10-3.5l-116-616c0-3.5-1.5-6.5-1.5-8.5-3.5-6.5-6.5-13.5-11.5-18.5s-13.5-10-20-11.5c-5-1.5-10-3.5-17-3.5s-11.5 1.5-17 3.5C881-768 874-765 869-760s-8.5 11.5-11.5 18.5C856-738 856-735 856-733L740-119c-3.5 1.5-6.5 1.5-10 3.5L278.5 136c-1.5 1.5-3.5 1.5-5 3.5-6.5 5-10 10-15 15-3.5 6.5-6.5 13.5-6.5 20V332c0 28.5 22 50.5 50.5 50.5s50.5-22 50.5-50.5V231.5h322l-48.5 260L79.5 740c-1.5 0-1.5 1.5-3.5 1.5-1.5 1.5-3.5 1.5-5 3.5-1.5 1.5-3.5 1.5-3.5 3.5L64 752c-1.5 1.5-1.5 3.5-3.5 3.5L57 759c-2.5 1.5-2.5 3-2.5 3 0 1.5-1.5 3.5-1.5 5s-1.5 3.5-1.5 5-1.5 3.5-1.5 5v159.5C50 965 72 987 100.5 987s50.5-22 50.5-50.5V836h409.5L354 1933.5c-5 27 13.5 53.5 40.5 58.5 13.5 1.5 25 0 35.5-6.5L905 1695l476.5 292c8.5 5 17 6.5 27 6.5 3.5 0 6.5 0 10-1.5 27-5 45.5-32 40.5-58.5L1249.5 836H1659v100.5c0 28.5 22 50.5 50.5 50.5s50.5-22 50.5-50.5v-154h-.5zm-446.5-651h-196.5L1093 9l220 122.5zm-298.5 0H793l28.5-151h163l30 151zm-111-584l62 332h-126l64-332zM774.5 232H1033l47 251.5H727.5l47-251.5zM1100 584.5l28.5 151H679l28.5-151H1100zm-606-453L714 9l-23.5 122.5H494zm-162.5 604l270-122.5-25 122.5h-245zm287 320.5l183 104L575 1289l43.5-233zM471 1841l69-369 267 162.5L471 1841zm129-449.5L903.5 1217l303.5 173-303.5 188L600 1391.5zm632.5-102.5l-228-129 183-104 45 233zm35.5 183l69 369-335.5-206.5L1268 1472zm-99-522l-265 151-265-151 22-114h486.5l21.5 114zm38.5-337L1476 735.5h-245L1207.5 613z" fill-rule="evenodd"/></svg>