<svg width="2050" height="1200" viewBox="0 0 2050 1200" xmlns="http://www.w3.org/2000/svg"><path d="M200-450h1050v1750H200V-450zm1250 4.5v2091a202.5 202.5 0 01-200 204.5H200A202.5 202.5 0 010 1645.5v-2091A202.5 202.5 0 01200-650h1050a202.5 202.5 0 01200 204.5zm-100 0A100 100 0 001250-550H200a100 100 0 00-100 104.5v2091A100 100 0 00200 1750h1050a100 100 0 00100-104.5v-2091zM725 1400a125 125 0 100 250 125 125 0 000-250zM2000-900h-300v-300a50 50 0 00-100 0v300h-300a50 50 0 000 100h300v300a50 50 0 00100 0v-300h300a50 50 0 000-100z" fill-rule="evenodd"/></svg>