<svg width="2450" height="1200" viewBox="0 0 2450 1200" xmlns="http://www.w3.org/2000/svg"><path d="M2150-575H350A300 300 0 0050-275V845.5l.2 11.2A300 300 0 00350 1145.45h551.2l748.75 571.85c13.05 10 29.05 15.4 45.5 15.4l7.25-.35a75 75 0 0067.75-74.65v-512.2H2150a300 300 0 00300-300V-275a300 300 0 00-300-300zM1075-75a75 75 0 0175 75v356.5a50 50 0 01-12 32.5L857.5 716.25a25 25 0 01-19 8.75H769a12.5 12.5 0 01-11.5-17.4l135-315.2A12.5 12.5 0 00881 375h-56a75 75 0 01-75-75V0a75 75 0 0175-75m850 0a75 75 0 0175 75v356.5a50 50 0 01-12 32.5l-280.5 327.25a25 25 0 01-19 8.75H1369a12.5 12.5 0 01-11.5-17.4l135-315.2A12.5 12.5 0 001481 375h-56a75 75 0 01-75-75V0a75 75 0 0175-75" fill-rule="evenodd"/></svg>