<svg width="2300" height="1200" viewBox="0 0 2300 1200" xmlns="http://www.w3.org/2000/svg"><path d="M1200-450a300 300 0 110 600 300 300 0 010-600zM850-600a300 300 0 100-600 300 300 0 000 600zm1413.5 1875v300a200 200 0 01-200 200H1986a866.5 866.5 0 01-186 236v189a200 200 0 01-200 200h-200a200 200 0 01-190-140 1010 1010 0 01-204-5 200 200 0 01-193 145H613a200 200 0 01-200-200v-237.5A833 833 0 01232 1669a250 250 0 01-11.5-485A857.5 857.5 0 01588 710.5a300 300 0 11506.5-155h37.5a1036.5 1036.5 0 01390.5 76l143-77.5A155 155 0 011894 704l-16 180.5a833.5 833.5 0 01125 191.5h60.5a200 200 0 01200 199zm-100 0a100 100 0 00-100-100H1936a735 735 0 00-162.5-257.5 62 62 0 000-7L1793 694a54.5 54.5 0 00-81-53.5c-57 31-129.5 70.5-185 100a924 924 0 00-395-87.5c-416.5 0-762 269-832 622.5h-13.5a150 150 0 000 300c6.8.5 13.7.5 20.5 0a728.5 728.5 0 00206 350V2200a100 100 0 00100 100h200a100 100 0 00100-100v-63.5a933.524 933.524 0 00387 13.5v50a100 100 0 00100 100h200a100 100 0 00100-100v-235a757 757 0 00221-290h141a100 100 0 00100-100l1.5-300zm-574-191.5a100 100 0 100 200 100 100 0 000-200z" fill-rule="evenodd"/></svg>