<svg width="2500" height="1200" viewBox="0 0 2500 1200" xmlns="http://www.w3.org/2000/svg"><path d="M50-650a50 50 0 0150 50v2350h2350a50 50 0 110 100H50a50 50 0 01-50-50V-600a50 50 0 0150-50zM250 0l399.95 600L1050 501.5l400 702.05 400-300.9 400 500.9v196.5H250V0zm1775-515.1a28.75 28.75 0 0117.75 31.7l-63.4 359.25h233.05a38.35 38.35 0 0131.3 60.5L1865.2 470.7a28.9 28.9 0 01-35.9 9.45 28.85 28.85 0 01-15.35-33.7L1918.9 68.7h-231.3a38.4 38.4 0 01-32.15-59.35L1990.4-504.1a28.75 28.75 0 0134.6-11z" fill-rule="evenodd"/></svg>