<svg width="3100" height="1200" viewBox="0 0 3100 1200" xmlns="http://www.w3.org/2000/svg"><path d="M2246.5-55a100 100 0 00-96.5-70H450a100 100 0 00-96 70L4 1145a103 103 0 0016 89.5 100 100 0 0080 40.5h200v750a150 150 0 00150 150h1700a150 150 0 00150-150v-750h200a100 100 0 0080-42 104.5 104.5 0 0016-90L2246.5-55zM1900 2075h-300v-550h300v550zm300-50a50 50 0 01-50 50h-150v-650h-500v650H450a50 50 0 01-50-50v-750h1800v750zm50-850H100L450-25h1700l350 1200h-250zm-1150 250H600v500h500v-500zm-100 400H700v-300h300v300zM2600-75a50 50 0 01-100 0 300 300 0 00-300-300 50 50 0 010-100 400 400 0 01400 400zm500 0a50 50 0 01-100 0c0-441.85-358.15-800-800-800a50 50 0 010-100c497.05 0 900 402.95 900 900zm-250 0a50 50 0 01-100 0c0-303.75-246.25-550-550-550a50 50 0 010-100c359 0 650 291 650 650z" fill-rule="evenodd"/></svg>