<svg width="3300" height="1200" viewBox="0 0 3300 1200" xmlns="http://www.w3.org/2000/svg"><path d="M2763.5 1575a50 50 0 01-27.5-91.5 631.5 631.5 0 00100-83.5 642.5 642.5 0 00-100-83 50 50 0 0155-83.5 750 750 0 01142.5 123 65 65 0 010 87 746 746 0 01-142 123.5 50 50 0 01-28 8zm-277.5 3a50 50 0 01-27.5-8.5 750 750 0 01-142.5-123 65 65 0 010-87 746 746 0 01142-123.5 50 50 0 0155 83.5 631.5 631.5 0 00-100 83.5 642.5 642.5 0 00100 83 50 50 0 01-26.5 89l-.5 3zm514-2103a200 200 0 01200 200v1850a200 200 0 01-200 200H300a200 200 0 01-200-200V-325a200 200 0 01200-200h2700zm0-100H300A300 300 0 000-325v1850a300 300 0 00300 300h2700a300 300 0 00300-300V-325a300 300 0 00-300-300zM1500 132v455a450 450 0 01139.5 57.5L1961 325a900 900 0 00-461-193zm1217-57V-60l-85 135h85zm-936.5 710.5a450 450 0 0158 139.5h455A900 900 0 002100 464l-319.5 321.5zM300-325v1400h2700V-325H300zm703.5 1300h-550a944.5 944.5 0 01242-584.5L1085 780a400 400 0 00-81.5 195zM1350 628.5a400 400 0 00-195 81L765.5 320A944.5 944.5 0 011350 77.5v551zm100 0v-550a944.5 944.5 0 01584.5 242l-389.5 389a400 400 0 00-195-81zM1796.5 975a400 400 0 00-81-195L2105 390.5A944.5 944.5 0 012347.5 975h-551zm539-750c-93 0-135.5-50-135.5-114h87.5c0 27 19 41 50 41 36.5 0 50-23 50-60a50 50 0 00-50-55.5 74.5 74.5 0 00-50 17.5L2219 42l24.5-217H2460v71h-146l-8.5 79a122.5 122.5 0 0150-10.5 117 117 0 01124 129 129 129 0 01-144 131.5zm509.5-80h-41v73.5h-87V145h-175.5V83l170-258h92.5V75h41v70z" fill-rule="evenodd"/></svg>