<svg width="2600" height="1200" viewBox="0 0 2600 1200" xmlns="http://www.w3.org/2000/svg"><path d="M2600 1650a50 50 0 01-50 50H50a50 50 0 010-100h2500a50 50 0 0150 50zm0-2050v1750a100 100 0 01-100 100H100A100 100 0 010 1350V-400a100 100 0 01100-100h2400a100 100 0 01100 100zm-100 0H100v1750h2400V-400zM593 469h-17c0 24.5-14.8 46.65-37.5 56l6.5 16c29.05-12.1 48-40.5 48-72zm1807 781H200V-300h2200v1550zM800 600h600V300H800v300zM405 0a8 8 0 007 4.5h88L462.5 140a8 8 0 004.5 9.5h3.5a8 8 0 006.5-3.5L613-50a8 8 0 00-6.5-13H519l22.5-127.5a8 8 0 00-8-8h-4L408-12.5A8 8 0 00405 0zm0 472.5a102.5 102.5 0 00205 0c0-45.5-66-150-92-191a12.5 12.5 0 00-21 0c-26.5 39.5-92.5 144.5-92.5 190l.5 1zm216.5 436a185.5 185.5 0 00-34-100 321.5 321.5 0 00-83-85 11.5 11.5 0 00-6.5 0h-5a11.5 11.5 0 00-6 10c0 17.45-4.3 34.6-12.5 50a309.5 309.5 0 01-46 58 169 169 0 00-21.5 29 73 73 0 00-9.5 35.5 120 120 0 0032.5 83 109.5 109.5 0 0079.5 34.5A109.5 109.5 0 00589 989a120 120 0 0032.5-81.5v1zM1850 750H800v300h1050V750zm350-900H800v300h1400v-300zM500 742.5a123.5 123.5 0 01-14 50 250 250 0 01-39 50l-9 10a155 155 0 00-19.5 26.5 56.5 56.5 0 00-7.5 28 103.5 103.5 0 0028 72c10 10.65 22.3 18.9 36 24a35.5 35.5 0 01-12.5-26c0-23.5 25-46.5 20-71a33.5 33.5 0 0118 29c0 24 40-22 29-76.5A125 125 0 01567 942a83.5 83.5 0 01-22 58 95 95 0 0032-22.5 103.5 103.5 0 0028.5-72A170 170 0 00574 816a307.5 307.5 0 00-74-73.5z" fill-rule="evenodd"/></svg>