<svg width="2500" height="1200" viewBox="0 0 2500 1200" xmlns="http://www.w3.org/2000/svg"><path d="M1000 425h500v300h-500V425zM900-25H600L493.5 325H900V-25zM370 725h530V425H461l-91 300zm630-750v350h500V-25h-500zm600 350h408.5l-8.5-27.5-7-22.5-15-50-15-50-63-200h-300v350zm530 400l-91.5-300H1600v300h530zm350 259.5a100 100 0 01-80 40.5h-750v300h103a97 97 0 0197 97v6a97 97 0 01-97 97H747a97 97 0 01-97-97v-6a97 97 0 0197-97h103v-300H100A100 100 0 014.5 896L87 625l76-250s180-615 187-615l4.5-14.5A100 100 0 01450-325h1600a100 100 0 0195.5 71l70 229 91.5 300 137 450 50 171a100 100 0 01-13.5 88.5h-.5zm-80-59.5L2111-25l-61-200H450L100 925h2300z" fill-rule="evenodd"/></svg>