<svg width="3100" height="1200" viewBox="0 0 3100 1200" xmlns="http://www.w3.org/2000/svg"><path d="M50 225h200a50 50 0 000-100H50a50 50 0 000 100zm1000-800v-200a50 50 0 00-100 0v200a50 50 0 00100 0zm515.5 255L1707-461.5a50 50 0 10-70.5-70.5L1495-390.5a50 50 0 0070.5 70.5zM365.5 880L507 738.5a50 50 0 10-70.5-70.5L295 809.5a50 50 0 1070.5 70.5zM505-390.5L363.5-532a50 50 0 10-70.5 70.5L434.5-320a50 50 0 1070.5-70.5zM400 175A604.5 604.5 0 011600 75h-545a200 200 0 00-193 141.5l-4.5 14c-10.5 24.5-20 56-32.5 95.5-18 58-41.5 135-65 212.5L710 700a600 600 0 01-310-525zm691.5 650H1500V475h-300l-108.5 350zm508.5 400h500V925h-500v300zm-615-50l-15 50h530V925h-439l-76 250zm1615-377.5l-7-22.5-30.5-100-62.5-200h-300v350h408.5l-8.5-27.5zM1600 825h500V475h-500v350zm1495.5 571l-50-171-137-450-91.5-300-69.5-229a100 100 0 00-97.5-71H1050a100 100 0 00-95.5 71l-4.5 14c-7 0-187 615-187 615l-76 250-82.5 271a100 100 0 0095.5 129h750v300h-103a97 97 0 00-97 97v6a97 97 0 0097 97h1006a97 97 0 0097-97v-6a97 97 0 00-97-97h-103v-300h750a100 100 0 0095.5-129zM700 1425l350-1150h1600l61 200 289 950H700zm1992-325l-7.5-25-45.5-150h-439v300h530l-15-50-15-50-8-25z" fill-rule="evenodd"/></svg>