<svg width="4800" height="1200" viewBox="0 0 4800 1200" xmlns="http://www.w3.org/2000/svg"><path d="M1600-400h300l106.5 350H1600v-350zM370 350h530V50H461l-91 300zm1130-750h-500v350h500v-350zm-500 750h330l78.5-258a200 200 0 0119-42H1000v300zM900-400H600L491.5-50H900v-350zm369 950H100L450-600h1600l167.5 550H2322l-176.5-579a100 100 0 00-95.5-71H450a100 100 0 00-95.5 71L4.5 521A100 100 0 00100 650h750v300H747a97 97 0 00-97 97v6a97 97 0 0097 97h339.5L1269 550zm2200-200h331V50h-427.5a200 200 0 0119 42l77.5 258zm431 0h530l-91.5-300H3900v300zm0-750v350h408.5L4200-400h-300zm-100 0h-500v350h500v-350zm-600 0h-300L2793.5-50H3200v-350zm1595.5 921l-350-1150a100 100 0 00-95.5-71H2750a100 100 0 00-95.5 71L2478-50h104.5L2750-600h1600l350 1150H3531l182.5 600H4053a97 97 0 0097-97v-6a97 97 0 00-97-97h-103V650h750a100 100 0 0095.5-129zM2150 1100h500V800h-500v300zm-462.5-550l-15 50-15 50-7 22.5-8.5 27.5h408V350h-300l-62.5 200zm-76 250L1566 950l-7.5 25-8.5 25-15 50-15 50h530V800h-439 .5zm850-450H2150v350h500V350h-189 .5zM3159 700l-9-27.5-7-22.5-15-50-15-50-63-200h-300v350h409zm91 300l-7.5-25-7.5-25-45.5-150H2750v300h530l-15-50-15-50zm396 271a100 100 0 01-96 129h-750v300h103a97 97 0 0197 97v6a97 97 0 01-97 97H1897a97 97 0 01-97-97v-6a97 97 0 0197-97h103v-300h-750a100 100 0 01-95.5-129l36.5-121 7.5-25 7.5-25 15-50 15-50 7.5-25 6.5-25 61-200 30.5-100 9-29 6.5-21 15-50 61-200 67-215 4.5-14.5A100 100 0 011600 50h1600a100 100 0 0195.5 71l4.5 14.5 65.5 214.5 61 200 15 50 6.5 21 9 29 30.5 100 62.5 200 7.5 25 7.5 25 15 50 15 50 7.5 25 7.5 25 36 121zm-96 29l-289-950-61-200H1600l-350 1150h2300z" fill-rule="evenodd"/></svg>