<svg width="2650" height="1200" viewBox="0 0 2650 1200" xmlns="http://www.w3.org/2000/svg"><path d="M300 1450a100 100 0 01100 100v200a100 100 0 01-100 100H100A100 100 0 010 1750v-200a100 100 0 01100-100h200zm2300 150a50 50 0 110 100H800a50 50 0 110-100h1800zM300 750a100 100 0 01100 100v200a100 100 0 01-100 100H100A100 100 0 010 1050V850a100 100 0 01100-100h200zm2300 150a50 50 0 110 100H800a50 50 0 110-100h1800zM300 50a100 100 0 01100 100v200a100 100 0 01-100 100H100A100 100 0 010 350V150A100 100 0 01100 50h200zm2300 150a50 50 0 110 100H800a50 50 0 110-100h1800zM300-650a100 100 0 01100 100v200a100 100 0 01-100 100H100A100 100 0 010-350v-200a100 100 0 01100-100h200zm2300 150a50 50 0 110 100H800a50 50 0 110-100h1800z" fill-rule="evenodd"/></svg>