<svg width="1900" height="1200" viewBox="0 0 1900 1200" xmlns="http://www.w3.org/2000/svg"><path d="M1688.5 644L1100 790a150 150 0 11-23.5-97l589-145.5 23 96.5zM1900 775A950 950 0 11204 188l-84-84a25 25 0 010-35.5L288.5-100a25 25 0 0135.5 0l91 90a944.5 944.5 0 01340.5-145v-103.5H700a100 100 0 01-100-100v-50a100 100 0 01100-100h500a100 100 0 01100 100v50a100 100 0 01-100 100h-55.5V-155A950 950 0 011900 775zm-100 0c0-469.45-380.55-850-850-850S100 305.55 100 775s380.55 850 850 850 850-380.55 850-850zm-574-214.5A350 350 0 00950 425v100a250 250 0 01164.5 63l111.5-27.5zm305-75.5l100-24.5A750 750 0 00950 25v100a647 647 0 01581 360zm-200 50l100-25a550 550 0 00-481-285v100a446.5 446.5 0 01380 209.5l1 .5z" fill-rule="evenodd"/></svg>