<svg width="2200" height="1200" viewBox="0 0 2200 1200" xmlns="http://www.w3.org/2000/svg"><path d="M1700 600c0 331.35-268.65 600-600 600S500 931.35 500 600 768.65 0 1100 0s600 268.65 600 600zm-550-800v-250a50 50 0 00-100 0v250a50 50 0 00100 0zm0 1850v-250a50 50 0 00-100 0v250a50 50 0 00100 0zM350 600a50 50 0 00-50-50H50a50 50 0 000 100h250a50 50 0 0050-50zm1850 0a50 50 0 00-50-50h-250a50 50 0 000 100h250a50 50 0 0050-50zM570 70a50 50 0 000-70.5l-177-177a50 50 0 10-70.5 70.5L500 70a50 50 0 0070.5 0h-.5zm1308 1308a50 50 0 000-70.5L1700 1130a50 50 0 10-70 70l177 177a50 50 0 0070.5 0l.5 1zm-1485 0l177-178a50 50 0 10-70-70l-177 177a50 50 0 1070.5 70.5l-.5.5zM1700 70l177-177a50 50 0 10-70.5-70.5L1630 0a50 50 0 1070 70z" fill-rule="evenodd"/></svg>