<svg width="2100" height="1200" viewBox="0 0 2100 1200" xmlns="http://www.w3.org/2000/svg"><path d="M2080.5 987c0-247.5-255-486.5-493.5-630 93-119 146.5-266.5 146.5-420.5 0-101.5-24-201-67-292 37.5-32 75.5-82 90-147 11.5-50.5 12.5-128-48-212C1665-774.5 1601-811 1528-817c-69.5-5.5-138 18-183.5 63.5-16.5 16.5-29.5 36-39.5 57-80.5-32.5-167-50-255.5-50s-175 17.5-255.5 50c-9.5-21-22.5-40.5-39-57-45.5-45.5-113.5-69-183.5-63.5-73 6-137 42-180.5 102.5-60.5 84-59.5 161.5-48 212 15 65 52.5 115 90 147-43 91-67 190.5-67 292 0 154 53.5 301.5 146.5 420.5C274 500.5 19 739.5 19 987c0 143.5 116 269 231.5 303.5 1 28.5 3 56.5 6 83.5-7.5 13-14.5 26.5-20.5 40.5-38.5 90.5-43 196-13.5 298S313 1901.5 394 1957c58.5 40.5 122.5 61 186.5 61 27.5 0 55-4 82-11.5 39.5-11.5 75-31 106.5-57.5 49.5 9 102.5 14 158 14h245.5c56 0 108.5-5 158-14a287.5 287.5 0 00188.5 69c63.5 0 128-20.5 186.5-61 81-55.5 141.5-142.5 171.5-244.5 29.5-102 25-208-13.5-298-6-14.5-13-27.5-20.5-40.5 3-27 5-55 6-83.5 115.5-34.5 231.5-160 231.5-303.5zm-1310 795c-9.5 22-22 41-35.5 58.5-27 34-60.5 58.5-100 70-.5 0-1 0-1.5.5-59.5 16.5-124 4-182-36-62-42.5-108.5-110-132-190a380.5 380.5 0 01-14.5-110c.5-42.5 8-84 24-121 8.5-20 19.5-37.5 32-54 27.5-36.5 62.5-63 104-75 17.5-5 35.5-7.5 53.5-7.5 3 0 6 .5 9 .5 32 1.5 64.5 10.5 96 27.5 8.5 4.5 17 9.5 25.5 15 62 42.5 108.5 110 132 190 22.5 80.5 19 162.5-10.5 231.5zm402 81H927c-29 0-56.5-1.5-83.5-4.5 7-12 13-24.5 18.5-37.5 38.5-90.5 43-196 13.5-298S785 1334 704 1278.5c-16-11-32.5-20-49.5-28 70-148 220-251.5 394.5-251.5s325 103 394.5 251.5c-16.5 8-33 17-49 28-81 55.5-141.5 142.5-171.5 244.5-29.5 102-25 208 13.5 298 5.5 13 12 25.5 18.5 37.5-26 3-53.5 4.5-82.5 4.5zm608.5-178c-23.5 80-70 147.5-132 190-58 40-123 52.5-182 36-.5 0-1 0-1.5-.5-39.5-11.5-73.5-36.5-100-70-14-17.5-26.5-36.5-35.5-58.5-29.5-69-33-151-9.5-231s70-147.5 132-190c8-5.5 16.5-10.5 25-15 31.5-17 64-26 96-27.5 3 0 6-1 9-1 18 0 36 2.5 53.5 7.5 41.5 12 76.5 38.5 104 75 12 16 23 33.5 32 54 16 37.5 23.5 78.5 24 121 0 36.5-4.5 73.5-15 110zM1604.5 615a49.5 49.5 0 00-70.5-5c-21 18-23 49.5-5 70.5 221 256 221 435.5 221 579.5 0 4-.5 7-.5 11-26-18-55-32.5-86-41.5-40-11.5-81.5-14-122.5-8.5-83-189-271.5-322-491-322s-408.5 132.5-491 322a296 296 0 00-122 8.5c-31 9-59.5 23-86 41.5 0-3.5-.5-7-.5-11 0-144 0-323.5 221-579.5 18-21 15.5-52.5-5-70.5s-52.5-15.5-70.5 5c-196.5 228-236.5 403-244 569.5-65.5-32-132-108.5-132-197.5 0-199 227-417.5 461.5-554.5 22.5 21 46 41.5 71 59.5 9 6.5 19 9.5 29 9.5 15.5 0 31-7.5 40.5-21 16-22.5 11-53.5-11.5-70A584.75 584.75 0 01466.5-64c0-99.5 25.5-198 73.5-284 13.5-24 5-54.5-19.5-68h-.5c-30-16-67.5-57.5-79.5-109-10-44 .5-88.5 31.5-131.5 26-36 64-57.5 107.5-61 39.5-3 80 10 104.5 34.5 8.5 8.5 15 19 20 30.5-38.5 22.5-75.5 49-109.5 79.5-20.5 18.5-22.5 50-4 70.5 10 11 23.5 16.5 37.5 16.5 12 0 24-4 33.5-12.5C768.5-594 906.5-647 1050-647s281.5 52.5 388.5 148.5C1448-490 1460-486 1472-486c13.5 0 27.5-5.5 37.5-16.5a49.9 49.9 0 00-4-70.5c-34-30.5-70.5-56.5-109.5-79.5 5-11.5 11.5-22 20-30.5 24.5-24.5 64.5-37.5 104.5-34.5 43 3.5 81.5 25 107.5 61 31 43 41.5 87 31.5 131.5-12 52-49.5 93-79.5 109h-.5c-24 13.5-32.5 44-19.5 68 48 86.5 73.5 184.5 73.5 284 0 187.5-91 365-244 474.5a50.3 50.3 0 0029 91c10 0 20.5-3 29-9.5 25.5-18 49-38.5 71-59.5C1753.5 569.5 1980 788 1980 987c0 89-66.5 165.5-132 197.5-7-166.5-47-341.5-243.5-569.5zM1155 174c-28.5 0-52-22-54.5-49.5V97l73-106c10.5-15.5 11.5-35 3-51.5A49.4 49.4 0 001132-87H968.5c-18.5 0-35.5 10.5-44 26.5C916-44 917-24 927.5-9L1000 97.5V120c-.5 29.5-25 54-54.5 54-30.5 0-55-24.5-55-55h-100c0 85.5 69.5 155 155 155 40.5 0 77.5-16 105-41.5 27.5 25.5 64 41.5 104.5 41.5 85.5 0 155-69.5 155-155h-100c0 30.5-25 55-55 55zM766-117.5a72 72 0 100-144 72 72 0 000 144zm568 0a72 72 0 100-144 72 72 0 000 144z" fill-rule="evenodd"/></svg>