<svg width="1550" height="1200" viewBox="0 0 1550 1200" xmlns="http://www.w3.org/2000/svg"><path d="M1534 331a81.5 81.5 0 00-65-65 900 900 0 00-338 0 81.5 81.5 0 00-65 65 900 900 0 000 338 81.5 81.5 0 0065 65 900 900 0 00338 0 81.5 81.5 0 0065-65 900 900 0 000-338zm-84 219h-300V450h300v100zm84-869a81.5 81.5 0 00-65-65 900 900 0 00-338 0 81.5 81.5 0 00-65 65 900 900 0 000 338 81.5 81.5 0 0065 65 900 900 0 00338 0 81.5 81.5 0 0065-65 900 900 0 000-338zm-84 219h-100V0h-100v-100h-100v-100h100v-100h100v100h100v100zm-450 1350a500 500 0 11-771-416V-279a271 271 0 01542 0V834a500 500 0 01229 416zm-100 0a396 396 0 00-229-357.5V-279a171 171 0 00-342 0V892.5A396 396 0 00100 1250a400 400 0 10800 0zm-350-250V-150H450v1150a256 256 0 00-200 250 250 250 0 00500 0 256 256 0 00-200-250z" fill-rule="evenodd"/></svg>