<svg width="2600" height="1200" viewBox="0 0 2600 1200" xmlns="http://www.w3.org/2000/svg"><path d="M2570.5 2154.5l-529-529.5H2150a200 200 0 00200-200V-625a350 350 0 00-350-350h-150a150 150 0 00-300 0h-500a150 150 0 00-300 0H600a350 350 0 00-350 350v2050a200 200 0 00200 200h107.5l-529 529.5A100.056 100.056 0 00170 2296l670.5-671h918l671 670.5A100.056 100.056 0 002571 2154l-.5.5zM2000 1325a150 150 0 110-300 150 150 0 010 300zM400 425v-900h1800v900H400zm50 750a150 150 0 11300 0 150 150 0 01-300 0z" fill-rule="evenodd"/></svg>