<svg width="3050" height="1200" viewBox="0 0 3050 1200" xmlns="http://www.w3.org/2000/svg"><path d="M3046 1969.5a50 50 0 01-66 26 3724.5 3724.5 0 00-2909.5 0 50.06 50.06 0 01-39.5-92 3784.5 3784.5 0 01769-234V1447a378.5 378.5 0 01-306-187.5c-64.5-117.5-54.5-280 7.5-459.5A3331.5 3331.5 0 01713 340.5C778 223 815.5 150 850 150s72 73 137 190.5A3337 3337 0 011200 800c62 179.5 72 342 7.5 459.5A378.5 378.5 0 01900 1447v203a3840.5 3840.5 0 01625-50c109 0 217.5 5.5 325 14.5V1297c-196-14.5-361.5-110.5-439.5-260.5-89-163-75-388 10.5-636.5a4628 4628 0 01291-636.5C1800-400 1853-500 1900-500s100 100 188 263.5A4628 4628 0 012379 400c85 250 100 473.5 10.5 636.5-78 150-244 246.5-439.5 260.5v327a3779 3779 0 011069.5 280 50 50 0 0126.5 65.5z" fill-rule="evenodd"/></svg>