<svg width="2500" height="1200" viewBox="0 0 2500 1200" xmlns="http://www.w3.org/2000/svg"><path d="M50-650a50 50 0 0150 50v2350h2350a50 50 0 110 100H50a50 50 0 01-50-50V-600a50 50 0 0150-50zM250 0l399.95 600L1050 501.5l400 702.05 400-300.9 400 500.9v196.5H250V0zm2100 50a50 50 0 0150 50v200c0 82.7-67.3 150-150 150h-600c-82.7 0-150-67.3-150-150V100a50 50 0 11100 0v200c0 27.55 22.4 50 50 50h600c27.6 0 50-22.45 50-50V100a50 50 0 0150-50zm-175.9-346.2a50.022 50.022 0 01-78.2 62.4 1964.7 1964.7 0 00-95.9-111.5V180a50 50 0 11-100 0l.1-525.3a1964.4 1964.4 0 00-96 111.5 50.042 50.042 0 01-78.25-62.4c155.8-195.3 200.5-203.45 221.5-203.8h5.25c21 .35 65.75 8.5 221.5 203.8z" fill-rule="evenodd"/></svg>