<svg width="4250" height="1200" viewBox="0 0 4250 1200" xmlns="http://www.w3.org/2000/svg"><path d="M800 1600h400v-400H800v400zm100-300h200v200H900v-200zm300-650H800v400h400V650zm-100 300H900V750h200v200zm2350 600h500v-500h-500v500zm100-400h300v300h-300v-300zm700-1950v-500a50 50 0 00-50-50H2300a50 50 0 00-50 50V0h100v-750h1800v3150a50 50 0 01-50 50h-150v-650h-500v750h650a150 150 0 00150-150V-800zm-400 3250h-300v-550h300v550zM2500-550v500h400v-500h-400zm300 400h-200v-300h200v300zm1150-400h-900v500h900v-500zm-500 400h-300v-300h300v300zm400 0h-300v-300h300v300zM1750-50v-400h-400v400h400zm-300-300h200v200h-200v-200zM800 1950H250v700a150 150 0 01-150-150v-3700l1788 683V0h100v-517a100 100 0 00-64.5-93.5L707.5-1075v-325a50 50 0 00-100 0v289L453-1170a50 50 0 003.5-16.5V-1700a50 50 0 00-100 0v491l-221-84.5A100 100 0 000-1200v3700a250 250 0 00250 250h1000v-100H800v-700zm-100 700H350v-600h350v600zM650-450H250v400h400v-400zM550-150H350v-200h200v200zm650 250H800v400h400V100zm-100 300H900V200h200v200zM650 100H250v400h400V100zM550 400H350V200h200v200zm650-850H800v400h400v-400zm-100 300H900v-200h200v200zm2850 400h-500v500h500V250zm-100 400h-300V350h300v300zm-3200 0H250v400h400V650zM550 950H350V750h200v200zm-300 650h400v-400H250v400zm100-300h200v200H350v-200zM3300 100H1400a50 50 0 00-50 50v2600a250 250 0 00250 250h1500a250 250 0 00250-250V150a50 50 0 00-50-50zm-300 2800h-250v-460.5h250V2900zm250-150a150 150 0 01-150 150v-560.5h-450V2900H1600a150 150 0 01-150-150V750h1800v2000zM1969 900h-369v500h369V900zm-100 400h-169v-300h169v300zm665.5-400h-369v500H2534l.5-500zm-100 400h-169v-300H2434l.5 300zM3100 900h-369v500h369V900zm-100 400h-169v-300h169v300zm-1031 300h-369v500h369v-500zm-100 400h-169v-300h169v300zm665.5-400h-369v500H2534l.5-500zm-100 400h-169v-300H2434l.5 300zm665.5-400h-369v500h369v-500zm-100 400h-169v-300h169v300z" fill-rule="evenodd"/></svg>