<svg width="2000" height="1200" viewBox="0 0 2000 1200" xmlns="http://www.w3.org/2000/svg"><path d="M1540-270c65-60 125-80 180-80 100-5 175 55 185 70 15 20 40 25 60 15s30-25 30-45c0-50-110-100-125-105-80-35-240-70-405 75-70 65-140 95-210 90-105-5-175-85-175-90-20-20-50-25-70-5s-25 50-5 70c5 5 100 115 245 125h20c95-5 185-45 270-120zm0 295c65-55 125-80 175-80 100-5 180 55 190 70 15 20 40 25 60 15s30-25 30-45c0-50-110-100-120-105-80-35-240-75-405 75-70 65-140 95-210 90-105-5-175-85-175-90-20-20-50-25-70-5s-25 50-5 70c5 5 100 115 245 125h20c90-5 180-45 265-120zm0 295c65-55 125-80 180-80 100-5 175 55 190 70 15 20 40 25 60 15s30-25 30-45c0-50-110-100-120-105-80-35-240-75-405 75-70 65-140 95-210 90-105-5-175-85-175-90-20-20-50-25-70-5s-25 50-5 70c5 5 100 115 245 125h20c85-5 175-45 260-120zm-540 930c0 275-225 500-500 500S0 1525 0 1250c0-170 90-325 230-415V-280c0-150 120-270 270-270s270 120 270 270V835c140 90 230 245 230 415zm-100 0c0-160-95-295-230-360V-280c0-95-75-170-170-170s-170 75-170 170V890c-135 65-230 200-230 360 0 220 180 400 400 400s400-180 400-400zm-350-250V-150H450v1150c-115 25-200 130-200 250 0 140 110 245 250 245s250-110 250-245c0-120-85-225-200-250z" fill-rule="evenodd"/></svg>