<svg width="2500" height="1200" viewBox="0 0 2500 1200" xmlns="http://www.w3.org/2000/svg"><path d="M2094.5 345.5A633.5 633.5 0 00856 171a422 422 0 00-155-30 436.5 436.5 0 00-432.5 434A472.05 472.05 0 000 1003.5 467 467 0 00462 1475h1472.5a578 578 0 00160-1129.5zM2265 1235a460.5 460.5 0 01-330.5 140H462a358.55 358.55 0 01-257-108.5 374.5 374.5 0 01130.5-610l34.5-13V583a343 343 0 01100-241 329 329 0 01400-56.5l57.5 33L942 253a540.5 540.5 0 01518-428 530.5 530.5 0 01380 160.5A550 550 0 012000 375v50l39 9a474.5 474.5 0 01361 464.5 479.6 479.6 0 01-135 336.5z" fill-rule="evenodd"/></svg>