<svg width="3200" height="1200" viewBox="0 0 3200 1200" xmlns="http://www.w3.org/2000/svg"><path d="M2300-300v-150a50 50 0 01100 0v150a50 50 0 01-100 0zM1855-74.5a50 50 0 0070.5-70.5l-106-105a50 50 0 10-69.5 69.5l105 106zm990 0l105-106a50 50 0 10-69.5-69.5l-106 105a50 50 0 0070.5 70.5zm0 850a50 50 0 00-70.5 70.5l106 104a50 50 0 1069.5-69.5l-105-105zM3150 300h-150a50 50 0 000 100h150a50 50 0 000-100zm-800-450a500 500 0 00-395 194c8.5 7.5 17 15 25.5 23a743 743 0 01208 423.5 666 666 0 01263.5 200 657 657 0 0179.5 127A500 500 0 002350-150zm150 1273.5a571 571 0 01-565.5 576.5H462A467 467 0 010 1228.5 472.05 472.05 0 01268.5 800 436.5 436.5 0 01700 366a422 422 0 01155 30 633.5 633.5 0 011240 174.5 575 575 0 01405 553zm-100 0a474.5 474.5 0 00-365.5-465L1997 650v-50a550 550 0 00-157.5-387.5A530.5 530.5 0 001460 50a540.5 540.5 0 00-524.5 426.5L921 542l-57.5-33a329 329 0 00-400 56.5 343 343 0 00-100 241V867L329 880a374.5 374.5 0 00-130.5 610A359 359 0 00462 1600h1472.5a460.5 460.5 0 00330-139.5 479.55 479.55 0 00135.5-337z" fill-rule="evenodd"/></svg>