<svg width="3450" height="1200" viewBox="0 0 3450 1200" xmlns="http://www.w3.org/2000/svg"><path d="M700 1436a50 50 0 01-50 50h-75.5l28.5 70a50 50 0 01-92.5 38l-35.5-87-82.5 45a50.4 50.4 0 11-50-87.5l66-36.5-58.5-47a50.15 50.15 0 1163-78l61.5 50 26.5-75a50 50 0 1194 33.5l-26.5 74.5H650a50 50 0 0150 50zm775-50h-79.5l26.5-74.5a50 50 0 10-94-33.5l-28 75-61.5-50a50.15 50.15 0 00-63 78l58.5 47.5-66 36.5a50.4 50.4 0 0050 87.5l82.5-45 35.5 87a50 50 0 1092.5-38L1400 1486h75a50 50 0 000-100zm825 0h-79.5l26.5-74.5a50 50 0 10-94-33.5l-26.5 75-61.5-50a50.767 50.767 0 10-65 78l58.5 47.5-66 36.5a50.4 50.4 0 0050 87.5l82.5-45 35.5 87a50 50 0 1092.5-38l-28.5-70h75.5a50 50 0 000-100v-.5zm-1246.5 455.5H974l26-74.5a50 50 0 10-94-33.5l-26.5 74.5-61.5-50a50.15 50.15 0 10-63 78l58.5 47.5L750 1920a50.4 50.4 0 0050 87.5l82.5-45.5 36 87a50 50 0 1092.5-38l-28.5-70h75.5a50 50 0 000-100l-4.5.5zm825 0H1800l26.5-74.5a50 50 0 10-94-33.5L1706 1808l-61.5-50a50.15 50.15 0 00-63 78l58.5 47.5-66 36.5a50.4 50.4 0 0050 87.5l82.5-45.5 36 87a50 50 0 1092.5-38l-28.5-70h75.5a50 50 0 000-100l-3.5.5zm56-716.5H462A467 467 0 010 653.5 472.05 472.05 0 01268.5 225 436.5 436.5 0 01700-209a422 422 0 01155 30A633.5 633.5 0 012095-4.5 578 578 0 011934.5 1125zm330-240A479.55 479.55 0 002400 548.5a474.5 474.5 0 00-365.5-465L1997 75V25a550 550 0 00-157.5-387.5A530.5 530.5 0 001460-525 540.5 540.5 0 00935.5-98.5L921-33l-57.5-33a329 329 0 00-400 56.5 343 343 0 00-100 241V292L329 305a374.5 374.5 0 00-130.5 610A359 359 0 00462 1025h1472.5A460.5 460.5 0 002265 885h-.5zm765-1114v-11c6.4-344-267-628.15-611-635A605.5 605.5 0 001900-575c28.5 21.35 55.4 44.75 80.5 70a750 750 0 01208 427.5 667 667 0 01263.5 200 686.5 686.5 0 0165.5 752.5H2913c302-7.1 541.75-256.45 537-558.5A554.5 554.5 0 003029.5-229z" fill-rule="evenodd"/></svg>