<svg width="3700" height="1200" viewBox="0 0 3700 1200" xmlns="http://www.w3.org/2000/svg"><path d="M1992.5 1011.5a236 236 0 01-65 162.5l-13 12.5a245 245 0 01-22 18l-14 9.5a240 240 0 01-26.5 14l-10.5 4.5a241.5 241.5 0 01-37.5 11.5h-9a242 242 0 01-45 6H50a50 50 0 010-100h576a224 224 0 00159-63.5 221.5 221.5 0 0068-156 218.5 218.5 0 00-59-158 211.5 211.5 0 00-144-65h-24a50 50 0 010-100 321.5 321.5 0 01321 322 304 304 0 01-89.5 220.5H1750a138.5 138.5 0 100-277 50 50 0 010-100 239 239 0 01242.5 238.5zM1334 1400H250a50 50 0 000 100h1084c44.95 0 88 18 119.5 50a172 172 0 010 242c-31.5 32-74.55 50-119.5 50a50 50 0 000 100 271.25 271.25 0 100-542.5v.5zM3279.5-104v-11c6.4-344-267-628.15-611-635A605.5 605.5 0 002150-450c28.5 21.35 55.4 44.75 80.5 70a750 750 0 01208 427.5 667 667 0 01263.5 200 686.5 686.5 0 0165.5 752.5H3163c302-7.1 541.75-256.45 537-558.5A554.5 554.5 0 003279.5-104zM2345 120.5A633.5 633.5 0 001106-54a422.5 422.5 0 00-155-30 435.5 435.5 0 00-430 400 282 282 0 01100-9.5 342 342 0 0194-192A329 329 0 011115 58l57.5 33 14.5-65.5A540.5 540.5 0 011710-400a530.5 530.5 0 01380 160.5A550 550 0 012250 150v50l39 9a474.5 474.5 0 01361 464.5 479.5 479.5 0 01-137 337 461 461 0 01-328.5 139.5H2062a340 340 0 01-69 100h191.5a578 578 0 00160-1129.5h.5z" fill-rule="evenodd"/></svg>