<svg width="3450" height="1200" viewBox="0 0 3450 1200" xmlns="http://www.w3.org/2000/svg"><path d="M3450 791.5c4.75 302.25-235.3 551.65-537.5 558.5H2517a686.5 686.5 0 00-67-753.5 667.5 667.5 0 00-263.5-200 753 753 0 00-208-427.5 733 733 0 00-78.5-69 605.5 605.5 0 01518.5-300c344 6.85 617.4 291 611 635v11A554.5 554.5 0 013450 791.5zm-950 232a571 571 0 01-565.5 576.5H462A467 467 0 010 1128.5 472.05 472.05 0 01268.5 700 436.5 436.5 0 01700 266a422 422 0 01155 30 633.5 633.5 0 011238.5 174.5 575 575 0 01406.5 553zm-100 0a474.5 474.5 0 00-365.5-465L1997 550v-50a550 550 0 00-157.5-387.5A530.5 530.5 0 001460-50a540.5 540.5 0 00-524.5 426.5L921 442l-57.5-33a329 329 0 00-400 56.5 343 343 0 00-100 241V767L329 780a374.5 374.5 0 00-130.5 610A358.5 358.5 0 00462 1500h1472.5a460.5 460.5 0 00330-139.5 479.55 479.55 0 00135.5-337z" fill-rule="evenodd"/></svg>