<svg width="2200" height="1200" viewBox="0 0 2200 1200" xmlns="http://www.w3.org/2000/svg"><path d="M1278.5 1800.8H850v-507.5c391.25-52.65 674.7-399.5 648.35-793.4C1471.95 106 1144.8-200 750-200 355.25-200 28.1 106 1.7 499.9c-26.4 393.85 257.1 740.75 648.3 793.4v507.5H221.5a83.5 83.5 0 00-78 113.5l32 83a84 84 0 0078 53.5h993a84 84 0 0078-53.5l32-83a83.5 83.5 0 00-69.8-113.1l-8.2-.4zM100 550.8c0-359 291-650 650-650s650 291 650 650-291 650-650 650c-353.85 0-641.65-282.75-649.8-634.65l-.2-15.35zM1650 100a50 50 0 01-100 0 300 300 0 00-300-300 50 50 0 010-100 400 400 0 01400 400zm290.5 0a50 50 0 01-100 0c-.85-325.4-265.1-588.55-590.5-588a50 50 0 010-100c379.9.55 687.9 308.1 689 688h1.5zm259.5 0a50 50 0 01-100 0 850 850 0 00-850-850 50 50 0 010-100c519 0 940.85 416.25 949.85 933.1l.15 16.9zM750 450a100 100 0 11-7.5.25l7.5-.25zm0-250a350 350 0 1012 .2l-12-.2zm0-150l5.85.35a50 50 0 11-11.7 0L750 50z" fill-rule="evenodd"/></svg>