<svg width="1900" height="1200" viewBox="0 0 1900 1200" xmlns="http://www.w3.org/2000/svg"><path d="M1329 701.5a50 50 0 11-70.5 70.5 436.5 436.5 0 00-616.5 0 50 50 0 01-70.5-70.5c209.4-208.7 548.1-208.7 757.5 0zm-550 295a243 243 0 10343.5 0A243 243 0 00778 996l1 .5zM284.5 415a50 50 0 0070.5 70.5c328.7-328 860.8-328 1189.5 0A50 50 0 001615 415C1247.3 48.25 652.2 48.25 284.5 415zM1873 157.5c-509.8-509.65-1336.2-509.65-1846 0a50.75 50.75 0 1073 70.5c470.75-470.55 1233.75-470.55 1704.5 0a50 50 0 0070.5-70.5h-2z" fill-rule="evenodd"/></svg>