<svg width="2350" height="1200" viewBox="0 0 2350 1200" xmlns="http://www.w3.org/2000/svg"><path d="M1950 2700h-200V1097c0-84.5-67.5-130-146-143V-423.5c-4-263-180.5-426.5-458-426.5H122C50-850 0-786.5 0-700s50 150 122.5 150H300v125a225 225 0 10450 0v-125h181.5a110.5 110.5 0 0094.5-50 168.5 168.5 0 0024-93.5 200 200 0 00-7-56.5h103c223 0 353.5 120 358 327.5v1375c-82 11.5-154 57.5-154 144.5v1603h-200a50 50 0 000 100h800a50 50 0 000-100zM650-425a125 125 0 11-250 0v-125h250v125zm292.5-231.5a11 11 0 01-11 6.5H123c-15.5 0-22.5-29.5-22.5-50s10.5-50 22-50H926c13 0 25.5 27.5 25.5 56.5a71 71 0 01-9 37zM1650 2700h-200V1100c0-50 91-50 95-50h11.5c4 0 94 0 94 47l-.5 1603zm-200-3700a50 50 0 010-100 400 400 0 01400 400 50 50 0 01-100 0 300 300 0 00-300-300zm900 300a50 50 0 01-100 0c0-441.85-358.15-800-800-800a50 50 0 010-100c497.05 0 900 402.95 900 900zm-250 0a50 50 0 01-100 0c0-303.75-246.25-550-550-550a50 50 0 010-100c359 0 650 291 650 650z" fill-rule="evenodd"/></svg>