<svg width="2000" height="1200" viewBox="0 0 2000 1200" xmlns="http://www.w3.org/2000/svg"><path d="M1405.5 169.5l-105.5-60a313.5 313.5 0 00-104.5-155V-250c0-325.5-65-777-196-777S805-576 805-250v204.5A313.5 313.5 0 00700 108l-106.5 61.5C311.5 332.5-47 614 18.5 728a100 100 0 0094 37c156.5 0 459-130 677-256l60.5-35 24.5 12a50 50 0 00-2.5 10.5l-117.5 1700a50 50 0 0050 53.5h392a50 50 0 0050-53.5L1129 496.5a50 50 0 00-3-10.5l23.5-11.5L1209 509c218 126 520.5 256 677 256a100 100 0 0094-37c66.5-113.5-292-395.5-574.5-558.5zM903-100v-150c0-307.5 50-562 96-650 45 90.5 96 345 96 650v150a295.5 295.5 0 00-32.5-9.5 316.5 316.5 0 00-126.5 0c-15 5-33 9.5-33 9.5zm50 90a166 166 0 0150-6 213.5 213.5 0 11-50 6zM128 664.5c57-84.5 250-255 516.5-408.5l44.5-25.5A312 312 0 00767 407l-26.5 15.5c-230 132.5-488 234-612.5 242zm1131.5-242L1234 408a312 312 0 0078.5-176.5l43 25c265 153 459.5 324 516.5 408-124.5-8-382.5-109.5-612.5-242z" fill-rule="evenodd"/></svg>