<svg width="48" height="48" viewBox="0 0 48 48" xmlns="http://www.w3.org/2000/svg">
    <path d="M22.148 26.755a1 1 0 0 1 .762.352L29 34.282V31a1 1 0 0 1 1-1h3a2 2 0 0 0 2-2V18a2 2 0 0 0-2-2H15a2 2 0 0 0-2 2v10a2 2 0 0 0 2 2h7.732l-1.345-1.597a1 1 0 0 1 .76-1.648m8.199 11.184a1 1 0 0 1-1.107-.291L24.434 32H15a4 4 0 0 1-4-4V18a4 4 0 0 1 4-4h18a4 4 0 0 1 4 4v10a4 4 0 0 1-4 4h-2v5c0 .419-.262.794-.655.939M29 21a1.5 1.5 0 1 1 .001 2.999A1.5 1.5 0 0 1 29 21zm-5 0a1.5 1.5 0 1 1 .001 2.999A1.5 1.5 0 0 1 24 21zm-3.5 1.5a1.5 1.5 0 1 1-2.999.001A1.5 1.5 0 0 1 20.5 22.5" fill-rule="evenodd" fill="#EA1B0A"/>
</svg>
