<svg width="48" height="48" viewBox="0 0 48 48" xmlns="http://www.w3.org/2000/svg">
    <path d="M25.5 16.25a2.75 2.75 0 1 0-5.5 0 2.75 2.75 0 0 0 5.5 0zm-4.93 12.71c.762-.175 2.193.677 4.334 2.457a.75.75 0 1 1-.959 1.154c-.98-.815-1.8-1.414-2.42-1.783l.085.053a4.753 4.753 0 0 0 8.564 1.564.75.75 0 0 1 1.243.84 6.254 6.254 0 0 1-11.188-1.76c-.331.566-.705 1.304-1.108 2.2a.75.75 0 1 1-1.368-.616c1.143-2.538 2.056-3.933 2.818-4.109zM19.75 23a.75.75 0 1 1 0 1.5 4.25 4.25 0 0 0-4.25 4.25v6a.75.75 0 1 1-1.5 0v-6A5.75 5.75 0 0 1 19.75 23zm6.516 0a6.254 6.254 0 0 1 5.967 4.386c.322-.574.687-1.325 1.079-2.237a.75.75 0 0 1 1.378.593c-.887 2.065-1.638 3.383-2.295 3.913a.745.745 0 0 1-1.036.226c-.826-.191-2.084-.995-3.79-2.363a.75.75 0 1 1 .938-1.17c.995.797 1.825 1.381 2.45 1.74l-.1-.06a4.753 4.753 0 0 0-8.531-1.433.75.75 0 0 1-1.243-.84A6.245 6.245 0 0 1 26.266 23zM22.75 12a4.25 4.25 0 1 1 0 8.5 4.25 4.25 0 0 1 0-8.5z" fill-rule="evenodd" fill="#EA1B0A"/>
</svg>
