<svg width="48" height="48" viewBox="0 0 48 48" xmlns="http://www.w3.org/2000/svg">
    <path d="M20.32 22.21a1 1 0 1 1 1.229 1.579c-2.797 2.178-5.037 4.261-6.68 6.212L34 30a1 1 0 0 1 0 2H14.87c1.643 1.951 3.883 4.035 6.68 6.211a1 1 0 1 1-1.228 1.578c-3.505-2.727-6.191-5.34-7.983-7.767a1.712 1.712 0 0 1 0-2.044c1.79-2.425 4.476-5.04 7.982-7.767zm7.355-14c3.506 2.729 6.192 5.343 7.982 7.768.451.608.452 1.43 0 2.044-1.792 2.426-4.478 5.04-7.983 7.767a1 1 0 0 1-1.228-1.578c2.796-2.177 5.036-4.26 6.68-6.21L14 18a1 1 0 0 1 0-2h19.126c-1.642-1.95-3.882-4.034-6.679-6.211a1 1 0 1 1 1.228-1.578z" fill-rule="evenodd" fill="#EA1B0A"/>
</svg>
