<svg width="48" height="48" viewBox="0 0 48 48" xmlns="http://www.w3.org/2000/svg">
    <path d="M12 26.125c0-4.5 2.4-8.5 6.2-10.6.2.7.4 1.3.8 1.8-3.1 1.8-5 5.1-5 8.7v.1c-.7-.1-1.3-.1-2 0zm12 9.9c-1.9 0-3.9-.6-5.5-1.7-.3.6-.6 1.2-1.1 1.7 4 2.6 9.1 2.6 13.1 0-.5-.5-.8-1.1-1.1-1.7-1.5 1.1-3.4 1.7-5.4 1.7zm10-10s0 .1 0 0c.7 0 1.3 0 2 .1v-.1c0-4.4-2.4-8.4-6.2-10.5-.2.7-.4 1.3-.8 1.8 3.1 1.8 5 5.1 5 8.7zm-10-8c2.2 0 4-1.8 4-4s-1.8-4-4-4-4 1.8-4 4 1.8 4 4 4zm-11 10c-2.2 0-4 1.8-4 4s1.8 4 4 4 4-1.8 4-4-1.8-4-4-4zm22 0c-2.2 0-4 1.8-4 4s1.8 4 4 4 4-1.8 4-4-1.8-4-4-4z" fill-rule="evenodd" fill="#EA1B0A"/>
</svg>
