<svg width="48" height="48" viewBox="0 0 48 48" xmlns="http://www.w3.org/2000/svg">
    <path d="M31 10a1 1 0 0 1 1 1v5.062l2.634-4.561a.997.997 0 0 1 1.262-.419l.104.053 4.33 2.5A1.002 1.002 0 0 1 40.696 15L32 30.06V37a1 1 0 0 1-1 1H13a1 1 0 0 1-1-1V11a1 1 0 0 1 1-1h18zm-1 2H14v24h16v-3.738l-3.366 1.79c-.11.058-.228.095-.348.11l-.12.007a1 1 0 0 1-1-.965L25.017 29H16v-2h9.685l1.155-2H16v-2h11.994L30 19.526V12zM19 31v2h-3v-2h3zm14.866-14.17l-6.5 11.259 2.598 1.5 6.5-11.258-2.598-1.5zM26 19v2H16v-2h10zm2-4v2H16v-2h12zm7.866-1.633l-1 1.73 2.598 1.5 1-1.73-2.598-1.5z" fill-rule="evenodd" fill="#EA1B0A"/>
</svg>
