<svg width="48" height="48" viewBox="0 0 48 48" xmlns="http://www.w3.org/2000/svg">
    <path d="M14.182 36.87h18.654v-2.427H14.182v2.427zm9.273-21.077c4.493 0 8.29 3.841 8.29 8.388v8.055h1.31c1.046 0 1.963.928 1.963 1.986l-.022 3.084c-.215 1.092-1 1.771-2.05 1.771H13.963c-1.047 0-1.964-.929-1.964-1.987v-2.868c0-1.058.917-1.986 1.964-1.986h1.2V24.18c0-4.547 3.796-8.388 8.29-8.388zm0 2.207c-3.312 0-6.11 2.83-6.11 6.18v8.056h12.219V24.18c0-3.35-2.799-6.18-6.11-6.18zm0-4.192c-.603 0-1.091-.495-1.091-1.104v-2.648c0-.61.488-1.104 1.09-1.104.603 0 1.091.495 1.091 1.104v2.648c0 .61-.488 1.104-1.09 1.104zm-8.602 2.339l-1.636-2.097a1.111 1.111 0 0 1 .18-1.55 1.081 1.081 0 0 1 1.531.183l1.637 2.096a1.11 1.11 0 0 1-.18 1.55 1.083 1.083 0 0 1-1.532-.182zm16.345.42c-.236 0-.475-.078-.675-.238a1.113 1.113 0 0 1-.18-1.55l1.637-2.097a1.085 1.085 0 0 1 1.532-.182c.473.377.553 1.072.18 1.55l-1.636 2.097c-.215.276-.535.42-.858.42z" fill-rule="evenodd" fill="#EA1B0A"/>
</svg>
