<svg width="48" height="48" viewBox="0 0 48 48" xmlns="http://www.w3.org/2000/svg">
    <path d="M18.5 23a1.5 1.5 0 1 1 0-3 1.5 1.5 0 0 1 0 3zm5 0a1.5 1.5 0 1 1 0-3 1.5 1.5 0 0 1 0 3zm5 0a1.5 1.5 0 1 1 0-3 1.5 1.5 0 0 1 0 3zm8.3-8.6c-.2-.8-.7-1.4-1.4-1.8-.8-.4-1.6-.6-2.4-.6H15c-.5 0-1.1.1-1.6.2-.8.2-1.4.7-1.8 1.4-.4.8-.6 1.6-.6 2.4v11c0 .6.1 1.1.2 1.6.2.8.7 1.4 1.4 1.8.7.4 1.5.6 2.4.6h5.7l7.7 5.8c.4.3 1.1.2 1.4-.2.1-.2.2-.4.2-.6v-5h3c.5 0 1.1-.1 1.6-.2.8-.2 1.4-.7 1.8-1.4.4-.7.6-1.5.6-2.3V16c0-.6-.1-1.1-.2-1.6zM35 27c0 .3 0 .7-.1 1-.1.3-.3.6-.5.7-.5.2-.9.3-1.4.3h-4c-.6 0-1 .4-1 1v4l-6.4-4.8c-.2-.1-.4-.2-.6-.2h-6c-.3 0-.7 0-1-.1-.3-.1-.6-.3-.7-.5-.2-.5-.3-.9-.3-1.4V16c0-.3 0-.7.1-1 .1-.3.3-.6.6-.7.4-.2.9-.3 1.3-.3h18c.3 0 .7 0 1 .1.3.1.6.3.7.6.2.4.3.9.3 1.3v11z" fill-rule="evenodd" fill="#EA1B0A"/>
</svg>
