<svg width="48" height="48" viewBox="0 0 48 48" xmlns="http://www.w3.org/2000/svg">
    <path d="M16.5 16v8a4.5 4.5 0 0 0 4.5 4.5h3.833l2 1.5h-5.166L16.6 33.8A1 1 0 0 1 15 33v-3h-1a3 3 0 0 1-3-3v-8a3 3 0 0 1 3-3h2.5zM34 13a3 3 0 0 1 3 3v8a3 3 0 0 1-3 3h-2v3a1 1 0 0 1-1.6.8L25.333 27H21a3 3 0 0 1-3-3v-8a3 3 0 0 1 3-3h13zm0 2H21a1 1 0 0 0-1 1v8a1 1 0 0 0 1 1h4.667a1 1 0 0 1 .6.2L30 28v-2a1 1 0 0 1 1-1h3a1 1 0 0 0 1-1v-8a1 1 0 0 0-1-1zm-7.017 7.086c.196 0 .376.044.53.122.332.17.546.501.546.906a.982.982 0 0 1-.547.894 1.164 1.164 0 0 1-.529.122c-.628 0-1.076-.435-1.076-1.016 0-.592.448-1.028 1.076-1.028zm.072-6.324c1.67 0 2.564.968 2.564 2.177 0 1.693-1.778 2.055-1.778 3.314h-1.74c0-1.104.686-1.693 1.212-2.23.325-.332.59-.645.59-1.047 0-.376-.254-.653-.738-.653-.593 0-.786.35-.786.629l-.118-.013-1.527-.169c0-.015 0-.03.002-.046.018-1.022.676-1.962 2.32-1.962z" fill-rule="evenodd" fill="#EA1B0A"/>
</svg>
