<svg width="48" height="48" viewBox="0 0 48 48" xmlns="http://www.w3.org/2000/svg">
    <path d="M37.9 31.2c-3.3-3.5-4.4-5-5.4-12.4-.2-1.4-.7-2.8-1.5-4-1.1-1.8-2.9-3.1-5-3.6V11c0-1.1-.9-2-2-2s-2 .9-2 2v.2c-2.1.5-3.9 1.8-5 3.6-.8 1.2-1.3 2.6-1.5 4-1 7.4-2.1 9-5.4 12.4-.1.1-.1.2-.1.3v.9c0 1.1.9 2 2 2h7c.4 2.7 2.9 4.7 5.6 4.3 2.2-.3 4-2.1 4.3-4.3h7c1.1 0 2-.9 2-2v-1.2zM34 32.4H12c.7-.8 1.4-1.7 2-2.7.1-.2.3-.5.4-.7 1.6-2.7 2.6-5.7 2.9-8.9 0-.7 0-1.4.2-2.1.7-3 3.4-5.1 6.5-5 3.1-.1 5.8 2 6.4 5 .2.7.3 1.4.2 2.1.2 3.1 1.2 6.2 2.8 8.9l.6.9c.6.9 1.3 1.8 2 2.5h-2z" fill-rule="evenodd" fill="#EA1B0A"/>
</svg>
