<svg width="48" height="48" viewBox="0 0 48 48" xmlns="http://www.w3.org/2000/svg">
    <path d="M34.989 29.053l-2.479-2.479a1.743 1.743 0 0 0-2.465 0l-1.778 1.783a27.043 27.043 0 0 1-2.293-1.098c-1.082-.583-2.272-1.34-3.06-2.13-.905-.901-1.773-2.338-2.392-3.538a28.397 28.397 0 0 1-.736-1.534c-.057-.127-.102-.232-.142-.323l1.782-1.778a1.738 1.738 0 0 0 0-2.465l-2.478-2.479a1.74 1.74 0 0 0-2.465 0l-3.641 3.642.001-.001c-.291.304-.337.669-.343 1.048.003.66.202 1.487.532 2.455.999 2.885 3.21 6.928 5.52 9.25 1.549 1.545 3.874 3.044 6.112 4.179a25.955 25.955 0 0 0 3.18 1.375c.972.334 1.802.536 2.463.539.376-.006.739-.053 1.04-.34l3.642-3.641a1.743 1.743 0 0 0 0-2.465" fill-rule="evenodd" fill="#EA1B0A"/>
</svg>
