<svg width="48" height="48" viewBox="0 0 48 48" xmlns="http://www.w3.org/2000/svg">
    <path d="M31.846 32.039c.7.7.7 1.8 0 2.6l-3.7 3.6c-.3.2-.6.3-1 .3-.9 0-1.7-.2-2.5-.5-1.1-.4-2.2-.9-3.2-1.4-2.2-1.1-4.3-2.5-6.1-4.2-2.4-2.6-4.3-5.8-5.5-9.2-.3-.8-.4-1.7-.5-2.5-.1-.4.1-.7.3-1l3.6-3.6c.7-.7 1.8-.7 2.5 0l2.5 2.5c.7.7.7 1.8 0 2.5l-1.8 1.8.1.3c.1.4.4.9.7 1.5.6 1.3 1.4 2.4 2.4 3.5 1 .8 2 1.5 3.1 2.1 1 .5 1.9.9 2.3 1.1l1.8-1.8c.7-.7 1.8-.7 2.5 0l2.5 2.4zm-2.138-8.508a.795.795 0 0 1-.236-.559 3.973 3.973 0 0 0-1.166-2.803 3.973 3.973 0 0 0-2.803-1.166.81.81 0 0 1-.717-1.197.796.796 0 0 1 .689-.41 5.563 5.563 0 0 1 3.927 1.633 5.563 5.563 0 0 1 1.631 3.927c.003.32-.189.609-.484.73a.792.792 0 0 1-.863-.178l.022.023zm4.245-.055l.016.017a.795.795 0 0 1-.794-.795c-.033-4.364-3.58-7.912-7.944-7.944a.796.796 0 0 1-.795-.789.782.782 0 0 1 .784-.789c5.225.045 9.47 4.291 9.516 9.517 0 .433-.35.783-.783.783zm3.944-.126a.795.795 0 0 1-.795-.795c-.04-6.33-5.186-11.476-11.515-11.515a.796.796 0 0 1-.692-1.184.782.782 0 0 1 .68-.395c7.204.044 13.062 5.901 13.105 13.105 0 .434-.35.784-.783.784z" fill-rule="evenodd" fill="#EA1B0A"/>
</svg>
