<?xml version="1.0" encoding="UTF-8"?>
<svg width="32px" height="32px" viewBox="0 0 32 32" version="1.1" xmlns="http://www.w3.org/2000/svg" xmlns:xlink="http://www.w3.org/1999/xlink">
    <title>icon/container/core_icons/bulb_idea</title>
    <g id="Icons-variable-width---for-Exporting-only" stroke="none" stroke-width="1" fill="none" fill-rule="evenodd">
        <g id="icon-/-32-/-idea-bulb" fill="#39393A">
            <path d="M20,27 L20,29 C20,30.104 19.104,31 18,31 L14,31 C12.896,31 12,30.104 12,29 L12,27 L20,27 Z M16,7.0001 C20.418,7.0001 24,10.5811 24,15.0001 C24,19.2071 19.996,20.7931 19.996,25.0001 L19.996,25.0001 L11.996,25.0001 C11.996,20.7951 8,19.2051 8,15.0001 C8,10.5811 11.582,7.0001 16,7.0001 Z M18.121,12.4641 L16,14.5861 L13.878,12.4641 L12.464,13.8781 L15,16.4141 L15,20.0001 L17,20.0001 L17,16.4141 L19.535,13.8781 L18.121,12.4641 Z M4,14 C4.552,14 5,14.448 5,15 C5,15.552 4.552,16 4,16 L2,16 C1.448,16 1,15.552 1,15 C1,14.448 1.448,14 2,14 L4,14 Z M30,14 C30.553,14 31,14.448 31,15 C31,15.552 30.553,16 30,16 L28,16 C27.447,16 27,15.552 27,15 C27,14.448 27.447,14 28,14 L30,14 Z M6.8077,4.3937 L8.2217,5.8077 C8.6127,6.1987 8.6127,6.8317 8.2217,7.2217 C7.8317,7.6127 7.1987,7.6127 6.8077,7.2217 L5.3937,5.8077 C5.0027,5.4167 5.0027,4.7837 5.3937,4.3937 C5.7837,4.0027 6.4167,4.0027 6.8077,4.3937 Z M26.6063,4.3937 C26.9973,4.7837 26.9973,5.4167 26.6063,5.8077 L25.1923,7.2217 C24.8013,7.6127 24.1693,7.6127 23.7783,7.2217 C23.3873,6.8317 23.3873,6.1987 23.7783,5.8077 L25.1923,4.3937 C25.5833,4.0027 26.2163,4.0027 26.6063,4.3937 Z M16,0 C16.552,0 17,0.448 17,1 L17,3 C17,3.552 16.552,4 16,4 C15.448,4 15,3.552 15,3 L15,1 C15,0.448 15.448,0 16,0 Z" id="â—-icon"></path>
        </g>
    </g>
</svg>