<?xml version="1.0" encoding="UTF-8"?>
<svg width="32px" height="32px" viewBox="0 0 32 32" version="1.1" xmlns="http://www.w3.org/2000/svg" xmlns:xlink="http://www.w3.org/1999/xlink">
    <title>icon/container/core_icons/close</title>
    <g id="Icons-variable-width---for-Exporting-only" stroke="none" stroke-width="1" fill="none" fill-rule="evenodd">
        <g id="icon-/-32-/-close" fill="#39393A">
            <path d="M22.7034024,21.1868692 L17.4154024,15.9830822 L22.6234024,10.7003592 C23.0108301,10.3068987 23.0056814,9.67411778 22.6119024,9.28700345 C22.2181234,8.89988911 21.5848302,8.90503366 21.1974024,9.29849411 L15.9894024,14.5812172 L10.7014024,9.37743021 C10.4468507,9.12701114 10.07793,9.03130625 9.7336093,9.12636665 C9.38928858,9.22142705 9.12187829,9.4928108 9.0321093,9.83829027 C8.94234032,10.1837697 9.04385067,10.5508584 9.29840241,10.8012775 L14.5854024,16.0060636 L9.37740241,21.2887867 C9.12018489,21.5418372 9.01941801,21.9137571 9.11374967,22.2619012 C9.20808133,22.6100452 9.48286848,22.8803712 9.83271983,22.9691988 C10.1825712,23.0580264 10.5531795,22.951567 10.8024024,22.6906518 L16.0114024,17.4069295 L21.2984024,22.6117157 C21.4874265,22.7978913 21.7427708,22.9013437 22.0081825,22.8992821 C22.2735942,22.8972205 22.5272979,22.789814 22.7134024,22.6007246 C22.89986,22.4119853 23.0035751,22.1569224 23.0017725,21.8917258 C23.0001405,21.6707287 22.9253539,21.4578036 22.7910311,21.285278 L22.7034024,21.1868692 Z" id="â—-icon"></path>
        </g>
    </g>
</svg>