<?xml version="1.0" encoding="UTF-8"?>
<svg width="32px" height="32px" viewBox="0 0 32 32" version="1.1" xmlns="http://www.w3.org/2000/svg" xmlns:xlink="http://www.w3.org/1999/xlink">
    <title>icon/container/core_icons/dragndrop</title>
    <g id="Icons-variable-width---for-Exporting-only" stroke="none" stroke-width="1" fill="none" fill-rule="evenodd">
        <g id="icon-/-32-/-dragndrop" fill="#39393A">
            <path d="M27,29 L13,29 C11.9,29 11,28.1 11,27 L11,13 C11,11.9 11.9,11 13,11 L27,11 C28.1,11 29,11.9 29,13 L29,27 C29,28.1 28.1,29 27,29 Z M9,21 L7,21 C5.9,21 5,20.1 5,19 L5,7 C5,5.9 5.9,5 7,5 L19,5 C20.1,5 21,5.9 21,7 L21,9 L23,9 L23,7 C23,4.8 21.2,3 19,3 L7,3 C4.8,3 3,4.8 3,7 L3,19 C3,21.2 4.8,23 7,23 L9,23 L9,21 Z" id="â—-icon"></path>
        </g>
    </g>
</svg>