<?xml version="1.0" encoding="UTF-8"?>
<svg width="32px" height="32px" viewBox="0 0 32 32" version="1.1" xmlns="http://www.w3.org/2000/svg" xmlns:xlink="http://www.w3.org/1999/xlink">
    <title>icon/container/core_icons/edit</title>
    <g id="Icons-variable-width---for-Exporting-only" stroke="none" stroke-width="1" fill="none" fill-rule="evenodd">
        <g id="icon-/-32-/-edit" fill="#39393A">
            <path d="M27,30 L5,30 C4.448,30 4,30.447 4,31 C4,31.553 4.448,32 5,32 L27,32 C27.553,32 28,31.553 28,31 C28,30.447 27.553,30 27,30 Z M18.8662,7.2324 L21.4642,8.7324 L20.4642,10.4634 L17.8662,8.9634 L18.8662,7.2324 Z M12.9642,23.4544 L10.3662,21.9544 L16.8662,10.6964 L19.4642,12.1964 L12.9642,23.4544 Z M8.6652,27.9004 C8.8192,27.9894 8.9922,28.0344 9.1652,28.0344 C9.3262,28.0344 9.4872,27.9954 9.6342,27.9174 L13.7992,25.7034 C13.9652,25.6154 14.1022,25.4824 14.1962,25.3204 L23.6962,8.8664 C23.8292,8.6364 23.8642,8.3634 23.7962,8.1074 C23.7272,7.8514 23.5592,7.6324 23.3302,7.5004 L19.0002,5.0004 C18.5222,4.7234 17.9092,4.8864 17.6342,5.3664 L8.1342,21.8204 C8.0402,21.9824 7.9942,22.1684 8.0002,22.3554 L8.1652,27.0694 C8.176575,27.371275 8.32193438,27.64865 8.55840313,27.8291734 L8.6652,27.9004 Z" id="â—-icon"></path>
        </g>
    </g>
</svg>