<svg xmlns="http://www.w3.org/2000/svg" width="32" height="32" viewBox="0 0 32 32">
  <path fill="#39393A" fill-rule="evenodd" d="M10.42,4 L17.86,4 C18.84859,4 19.7844025,4.92584615 21.3765625,6.53846154 C21.5997625,6.76369231 21.8434225,6.97484615 22.0740625,7.20192308 C22.3028425,7.43084615 22.5446425,7.67269231 22.7715625,7.89423077 L23.3952493,8.50592597 L23.8086637,8.92359251 C24.7178659,9.86110998 25.235807,10.551564 25.29441,11.251179 L25.3,11.3846154 L25.3,24.3076923 C25.3,26.2774194 23.7366129,27.8927079 21.7772164,27.9948704 L21.58,28 L10.42,28 C8.4355,28 6.80809677,26.448251 6.70516805,24.5034406 L6.7,24.3076923 L6.7,7.69230769 C6.7,5.72258065 8.2633871,4.10729208 10.2227836,4.00512958 L10.42,4 Z M17.1915625,5.84615385 L10.42,5.84615385 C9.44217143,5.84615385 8.63979864,6.596337 8.56559948,7.54809997 L8.56,7.69230769 L8.56,24.3076923 C8.56,25.2782418 9.31580952,26.0746415 10.2747107,26.1482884 L10.42,26.1538462 L21.58,26.1538462 C22.5578286,26.1538462 23.3602014,25.403663 23.4344005,24.4519 L23.44,24.3076923 L23.44,12.3076923 C23.44,11.3892308 22.50814,11.3846154 21.58,11.3846154 L18.79,11.3846154 C18.3141721,11.3846154 17.9201368,11.027248 17.8662738,10.5689696 L17.86,10.4615385 L17.8587803,7.32965745 C17.8506396,6.67600901 17.7882031,6.08527855 17.3095693,5.88523362 L17.1915625,5.84615385 Z M15.3025,12.3076923 C15.5401931,12.3076923 15.7945332,12.383932 15.9709375,12.5384615 C16.1473418,12.6929911 16.2273311,12.9082835 16.290625,13.1153846 C16.417212,13.5295868 16.4188962,14.0115409 16.34875,14.5576923 C16.2957195,14.9705772 16.0669479,15.5230729 15.941875,16 C15.976537,16.0631394 15.9634519,16.1098969 16,16.1730769 C16.5016755,17.0403003 17.1649599,17.9032702 17.8890625,18.5384615 C17.9761579,18.6148646 18.062647,18.5850308 18.150625,18.6538462 C18.484535,18.5894671 18.8964376,18.42676 19.196875,18.3942308 C19.7849884,18.3305523 20.2732356,18.3049508 20.708125,18.4230769 C20.9255702,18.48214 21.1499847,18.6000335 21.3184375,18.7692308 C21.4868903,18.938428 21.58,19.1882375 21.58,19.4326923 C21.58,19.7388465 21.4208844,20.1277295 21.115,20.2980769 C20.8091156,20.4683846 20.4761886,20.4711538 20.0396875,20.4711538 C19.2778808,20.4711538 18.5841529,20.1261695 17.918125,19.6634615 C17.0977227,19.8438298 16.2992015,19.957684 15.41875,20.2692308 C14.7869685,20.4927862 14.4057698,20.7661535 13.849375,21.0192308 C13.669845,21.3168742 13.509407,21.7190597 13.32625,21.9711538 C12.9818436,22.445188 12.6236055,22.8372483 12.2509375,23.0961538 C11.8782695,23.3550585 11.3999455,23.4947329 10.9721875,23.2692308 C10.7631361,23.1587366 10.5696147,22.985008 10.478125,22.75 C10.3866355,22.514992 10.4147874,22.2530865 10.5071875,22.0576923 C10.6919872,21.6669049 11.0537512,21.4037994 11.4953125,21.1057692 C11.9009298,20.8319994 12.5922462,20.5927434 13.151875,20.3269231 L13.5174276,19.7029037 C13.8206032,19.1817907 14.1160007,18.6472587 14.3725,18.0192308 C14.6650734,17.302876 14.7654073,16.6977382 14.95375,16.0288462 C14.5957409,15.3070858 14.2421419,14.5597369 14.1690625,13.9519231 C14.1218445,13.5592028 14.1380182,13.1863319 14.314375,12.8557692 C14.4907318,12.5252065 14.8983927,12.3076923 15.3025,12.3076923 Z M12.28,21.7403846 C12.2161415,21.7803169 12.0762696,21.8167323 12.0184375,21.8557692 C11.7013059,22.0698158 11.4900231,22.2812403 11.4068163,22.3917809 L11.3754329,22.4377035 L11.3825766,22.4459989 L11.3825766,22.4459989 L11.408125,22.4615385 C11.450947,22.4841132 11.5014189,22.5034369 11.7278125,22.3461538 C11.8762733,22.2430129 12.0856268,21.9668791 12.28,21.7403846 Z M15.593125,17.1538462 C15.4490448,17.5781791 15.4196707,17.9361806 15.244375,18.3653846 C15.0454899,18.8523483 14.7734463,19.2012834 14.546875,19.6634615 C14.7581719,19.5825049 14.882671,19.4804154 15.0990625,19.4038462 C15.7715427,19.1658898 16.3834911,19.0854225 17.04625,18.9134615 C16.4998555,18.385948 16.0118975,17.7926274 15.593125,17.1538462 Z M20.2133558,19.2881129 L20.0978125,19.2884615 C19.9342832,19.2919378 19.7327689,19.3071123 19.545625,19.3173077 C19.7066238,19.3558942 19.8875674,19.5480769 20.0396875,19.5480769 C20.3261117,19.5480769 20.5141214,19.5223542 20.599284,19.504446 L20.652,19.49 L20.65,19.4326923 L20.6545591,19.4083032 L20.6179201,19.3787923 C20.5892835,19.3595783 20.5438433,19.3358394 20.475625,19.3173077 C20.4312556,19.3052569 20.3776848,19.2971763 20.3147652,19.2925429 L20.2133558,19.2881129 Z M15.3675186,13.2703946 L15.33,13.228 L15.1996763,13.2281391 C15.1939317,13.2284313 15.1896124,13.2292106 15.18625,13.2307692 L15.1766209,13.2412186 L15.1571875,13.2884615 C15.1222381,13.3539714 15.0646432,13.5502785 15.0990625,13.8365385 C15.1204311,14.0142622 15.3210628,14.3309911 15.3896875,14.5576923 L15.41875,14.4134615 C15.4800649,13.9360508 15.476224,13.5630446 15.41875,13.375 C15.4043815,13.3279877 15.3846771,13.2937762 15.3675186,13.2703946 Z"/>
</svg>
