<?xml version="1.0" encoding="UTF-8"?>
<svg width="32px" height="32px" viewBox="0 0 32 32" version="1.1" xmlns="http://www.w3.org/2000/svg" xmlns:xlink="http://www.w3.org/1999/xlink">
    <title>icon/container/core_icons/file_image</title>
    <g id="Icons-variable-width---for-Exporting-only" stroke="none" stroke-width="1" fill="none" fill-rule="evenodd">
        <g id="icon-/-32-/-file_image" fill="#39393A">
            <path d="M3.11113542,3.11113542 L14,3.11113542 L14,0 L3.11113542,0 C1.39219792,0 0,1.39219792 0,3.11113542 L0,14 L3.11113542,14 L3.11113542,3.11113542 Z M12.3333828,18 L6,26 L25,26 L20.25,19.599985 L17.0358086,23.9359871 L12.3333828,18 Z M24,10.5 C24,9.11664063 22.8833594,8 21.5,8 C20.1166406,8 19,9.11664063 19,10.5 C19,11.8833594 20.1166406,13 21.5,13 C22.8833594,13 24,11.8832812 24,10.5 Z M28.8888646,0 L18,0 L18,3.11113542 L28.8888646,3.11113542 L28.8888646,14 L32,14 L32,3.11113542 C32,1.39219792 30.6077292,0 28.8888646,0 Z M28.8888646,28.8888646 L18,28.8888646 L18,32 L28.8888646,32 C30.6077292,32 32,30.6078021 32,28.8888646 L32,18 L28.8888646,18 L28.8888646,28.8888646 Z M3.11113542,18 L0,18 L0,28.8888646 C0,30.6077292 1.39219792,32 3.11113542,32 L14,32 L14,28.8888646 L3.11113542,28.8888646 L3.11113542,18 Z" id="â—-icon"></path>
        </g>
    </g>
</svg>