<?xml version="1.0" encoding="UTF-8"?>
<svg width="32px" height="32px" viewBox="0 0 32 32" version="1.1" xmlns="http://www.w3.org/2000/svg" xmlns:xlink="http://www.w3.org/1999/xlink">
    <title>icon/container/core_icons/file</title>
    <g id="Icons-variable-width---for-Exporting-only" stroke="none" stroke-width="1" fill="none" fill-rule="evenodd">
        <g id="icon-/-32-/-file" fill="#39393A">
            <path d="M8,28 L8,4 L16,4 L16,11 C16,11.552 16.447,12 17,12 L24,12 L24,28 L8,28 Z M18,5.414 L22.586,10 L18,10 L18,5.414 Z M25.707,10.293 L17.707,2.293 C17.52,2.105 17.266,2 17,2 L7,2 C6.447,2 6,2.448 6,3 L6,29 C6,29.552 6.447,30 7,30 L25,30 C25.553,30 26,29.552 26,29 L26,11 C26,10.7791667 25.9270833,10.5652778 25.7939815,10.3918981 L25.707,10.293 Z M10,16 L22,16 L22,14 L10,14 L10,16 Z M10,20 L22,20 L22,18 L10,18 L10,20 Z M10,24 L15,24 L15,22 L10,22 L10,24 Z" id="â—-icon"></path>
        </g>
    </g>
</svg>