<?xml version="1.0" encoding="UTF-8"?>
<svg width="32px" height="32px" viewBox="0 0 32 32" version="1.1" xmlns="http://www.w3.org/2000/svg" xmlns:xlink="http://www.w3.org/1999/xlink">
    <title>icon/container/core_icons/gift</title>
    <g id="Icons-variable-width---for-Exporting-only" stroke="none" stroke-width="1" fill="none" fill-rule="evenodd">
        <g id="icon-/-32-/-gift" fill="#39393A">
            <path d="M23,1 C25.2092847,1 27,2.79071525 27,5 C27,5.72884726 26.8049504,6.41226407 26.4641969,7.00086017 L27,7 C27.5522847,7 28,7.44771525 28,8 L28,8 L28,17 C28.5522847,17 29,17.4477153 29,18 C29,18.5128358 28.6139598,18.9355072 28.1166211,18.9932723 L28,19 L28,28 C28,28.5522847 27.5522847,29 27,29 L27,29 L17,29 C17,29.5522847 16.5522847,30 16,30 C15.4871642,30 15.0644928,29.6139598 15.0067277,29.1166211 L15,29 L5,29 C4.44771525,29 4,28.5522847 4,28 L4,28 L4,19 C3.44771525,19 3,18.5522847 3,18 C3,17.4871642 3.38604019,17.0644928 3.88337887,17.0067277 L4,17 L4,8 C4,7.44771525 4.44771525,7 5,7 L5,7 L5.53379663,7.00086017 C5.19304318,6.41226407 4.99799356,5.72884726 4.99799356,5 C4.99799356,2.79071525 6.78870881,1 8.99799356,1 C9.97753335,1 10.9051159,1.35451011 11.627397,1.98633484 L15.999,5.801 L20.3705965,1.98633484 C21.0326876,1.40716217 21.8672888,1.06101081 22.7562862,1.00734095 Z M15,19 L6,19 L6,27 L15,27 L15,19 Z M26,19 L17,19 L17,27 L26,27 L26,19 Z M26,9 L17,9 L17,17 L26,17 L26,9 Z M15,9 L6,9 L6,17 L15,17 L15,9 Z M23,3 C22.5089321,3 22.0481348,3.1761108 21.6864865,3.49246631 L21.6864865,3.49246631 L17.666,7 L23,7 C24.0541221,7 24.9181433,6.18370551 24.9945128,5.14920552 L24.9945128,5.14920552 L25,5 C25,3.89528475 24.1047153,3 23,3 Z M8.99799356,3 C7.89327831,3 6.99799356,3.89528475 6.99799356,5 L7.00348078,5.14920552 C7.07985023,6.18370551 7.94387145,7 8.99799356,7 L14.3319936,7 L10.311507,3.49246631 C9.94985873,3.1761108 9.48906144,3 8.99799356,3 Z" id="â—-icon"></path>
        </g>
    </g>
</svg>