<?xml version="1.0" encoding="UTF-8"?>
<svg width="32px" height="32px" viewBox="0 0 32 32" version="1.1" xmlns="http://www.w3.org/2000/svg" xmlns:xlink="http://www.w3.org/1999/xlink">
    <title>icon/container/core_icons/question_mark</title>
    <g id="Icons-variable-width---for-Exporting-only" stroke="none" stroke-width="1" fill="none" fill-rule="evenodd">
        <g id="icon-/-32-/-question-mark" fill="#39393A">
            <path d="M15.6,24.65 C16.875,24.65 17.825,23.75 17.825,22.55 C17.825,21.325 16.875,20.425 15.6,20.425 C14.3,20.425 13.375,21.325 13.375,22.55 C13.375,23.75 14.3,24.65 15.6,24.65 Z M15.75,7.35 C12.275,7.35 10.95,9.375 10.95,11.5 L14.35,11.875 C14.35,11.3 14.75,10.575 15.975,10.575 C16.975,10.575 17.5,11.15 17.5,11.925 C17.5,14.1 13.775,14.975 13.775,18.7 L17.375,18.7 C17.375,16.125 21.05,15.325 21.05,11.85 C21.05,9.35 19.225,7.35 15.75,7.35 Z" id="â—-icon"></path>
        </g>
    </g>
</svg>