<?xml version="1.0" encoding="UTF-8"?>
<svg width="32px" height="32px" viewBox="0 0 32 32" version="1.1" xmlns="http://www.w3.org/2000/svg" xmlns:xlink="http://www.w3.org/1999/xlink">
    <title>icon/container/core_icons/search</title>
    <g id="Icons-variable-width---for-Exporting-only" stroke="none" stroke-width="1" fill="none" fill-rule="evenodd">
        <g id="icon-/-32-/-search" fill="#39393A">
            <path d="M15,5 C20.5228475,5 25,9.4771525 25,15 C25,17.315318 24.2131407,19.4468552 22.8922479,21.1417858 L27.9657826,26.2151834 C28.3563069,26.6057077 28.3563069,27.2388727 27.9657826,27.629397 C27.6052986,27.989881 27.0380676,28.0176105 26.6457764,27.7125856 L26.551569,27.629397 L21.5119844,22.5893094 C19.7623558,24.0919619 17.4872197,25 15,25 C9.4771525,25 5,20.5228475 5,15 C5,9.4771525 9.4771525,5 15,5 Z M15,7 C10.581722,7 7,10.581722 7,15 C7,19.418278 10.581722,23 15,23 C19.418278,23 23,19.418278 23,15 C23,10.581722 19.418278,7 15,7 Z" id="â—-icon"></path>
        </g>
    </g>
</svg>