<svg xmlns="http://www.w3.org/2000/svg" width="32" height="32" viewBox="0 0 32 32">
  <path fill="#39393A" fill-rule="evenodd" d="M19.2107594,10.7607594 C21.3107594,12.5607594 24.4107594,12.4607594 26.3107594,10.3607594 C28.1107594,8.26075943 28.0107594,5.16075943 25.9107594,3.26075943 C23.8107594,1.36075943 20.7107594,1.56075943 18.8107594,3.66075943 C17.5107594,5.16075943 17.1107594,7.36075943 18.0107594,9.16075943 L12.8107594,12.2607594 C10.8107594,10.3607594 7.61075943,10.5607594 5.71075943,12.6607594 C3.81075943,14.7607594 4.01075943,17.8607594 6.11075943,19.7607594 C8.01075943,21.4607594 10.9107594,21.4607594 12.8107594,19.7607594 L18.0107594,22.8607594 C16.8107594,25.3607594 17.9107594,28.3607594 20.4107594,29.5607594 C22.9107594,30.7607594 25.9107594,29.6607594 27.1107594,27.1607594 C28.3107594,24.6607594 27.2107594,21.6607594 24.7107594,20.4607594 C24.0107594,20.1607594 23.2107594,19.9607594 22.5107594,19.9607594 C21.3107594,19.9607594 20.1107594,20.4607594 19.2107594,21.2607594 L14.0107594,18.1607594 C14.7107594,16.8607594 14.7107594,15.2607594 14.0107594,13.8607594 L19.2107594,10.7607594 Z M22.5107594,3.96075943 C24.2107594,3.96075943 25.5107594,5.26075943 25.5107594,6.96075943 C25.5107594,8.66075943 24.2107594,9.96075943 22.5107594,9.96075943 C20.8107594,9.96075943 19.5107594,8.66075943 19.5107594,6.96075943 C19.5107594,5.26075943 20.8107594,3.96075943 22.5107594,3.96075943 Z M9.51075943,18.9607594 C7.81075943,18.9607594 6.51075943,17.6607594 6.51075943,15.9607594 C6.51075943,14.2607594 7.81075943,12.9607594 9.51075943,12.9607594 C11.2107594,12.9607594 12.5107594,14.2607594 12.5107594,15.9607594 C12.5107594,17.6607594 11.2107594,18.9607594 9.51075943,18.9607594 Z M22.5107594,27.9607594 C20.8107594,27.9607594 19.5107594,26.6607594 19.5107594,24.9607594 C19.5107594,23.2607594 20.8107594,21.9607594 22.5107594,21.9607594 C24.2107594,21.9607594 25.5107594,23.2607594 25.5107594,24.9607594 C25.5107594,26.6607594 24.2107594,27.9607594 22.5107594,27.9607594 Z"/>
</svg>
