<?xml version="1.0" encoding="UTF-8"?>
<svg width="32px" height="32px" viewBox="0 0 32 32" version="1.1" xmlns="http://www.w3.org/2000/svg" xmlns:xlink="http://www.w3.org/1999/xlink">
    <title>icon/container/core_icons/solar_panel</title>
    <g id="Icons-variable-width---for-Exporting-only" stroke="none" stroke-width="1" fill="none" fill-rule="evenodd">
        <g id="icon-/-32-/-solar-panel" fill="#39393A">
            <path d="M23.8576,14 L24.4286,18 L20.2926,18 L20.0596,14 L23.8576,14 Z M18.0574,14 L18.2914,18 L13.7094,18 L13.9424,14 L18.0574,14 Z M11.9403,14 L11.7073,18 L7.5713,18 L8.1423,14 L11.9403,14 Z M17.707,8 L17.94,12 L14.06,12 L14.293,8 L17.707,8 Z M12.2907,8 L12.0577,12 L8.4287,12 L8.9997,8 L12.2907,8 Z M23,8 L23.571,12 L19.942,12 L19.709,8 L23,8 Z M20,20 L12,20 L5.011,20 L7.01,6 L24.99,6 L26.989,20 L20,20 Z M26.848,4.858 C26.777,4.366 26.355,4 25.857,4 L6.143,4 C5.645,4 5.223,4.366 5.152,4.858 L2.867,20.858 C2.826,21.146 2.912,21.436 3.102,21.655 C3.292,21.874 3.567,22 3.857,22 L12,22 L12,24 L11,24 C10.447,24 10,24.448 10,25 C10,25.552 10.447,26 11,26 L21,26 C21.553,26 22,25.552 22,25 C22,24.448 21.553,24 21,24 L20,24 L20,22 L28.143,22 C28.433,22 28.708,21.874 28.898,21.655 C29.088,21.436 29.174,21.146 29.133,20.858 L26.848,4.858 Z" id="â—-icon"></path>
        </g>
    </g>
</svg>