<svg xmlns="http://www.w3.org/2000/svg" width="32" height="32" viewBox="0 0 32 32">
  <path fill="#39393A" fill-rule="evenodd" d="M27,20.0021267 C27.5522847,20.0021267 28,20.4498419 28,21.0021267 L28,25.0021267 C28,27.2081267 26.206,29.0021267 24,29.0021267 L8,29.0021267 C5.794,29.0021267 4,27.2081267 4,25.0021267 L4,21.0021267 C4,20.4498419 4.44771525,20.0021267 5,20.0021267 C5.55228475,20.0021267 6,20.4498419 6,21.0021267 L6,25.0021267 C6,26.1051267 6.897,27.0021267 8,27.0021267 L24,27.0021267 C25.103,27.0021267 26,26.1051267 26,25.0021267 L26,21.0021267 C26,20.4498419 26.4477153,20.0021267 27,20.0021267 Z M14.973,2.34012665 C15.5792397,1.88662445 16.4117603,1.88662445 17.018,2.34012665 C19.443,4.13012665 22.056,6.81512665 24.785,10.3211267 C25.0138659,10.6022508 25.0726708,10.9852194 24.9386933,11.3220582 C24.8047158,11.658897 24.4989383,11.8968532 24.1395094,11.9439833 C23.7800806,11.9911134 23.4232911,11.8400365 23.207,11.5491267 C21.167,8.92881415 19.2104961,6.80156806 17.3671514,5.19293158 L17,4.87812665 L17,20.0021267 C17,20.5544114 16.5522847,21.0021267 16,21.0021267 C15.4871642,21.0021267 15.0644928,20.6160865 15.0067277,20.1187478 L15,20.0021267 L15,4.87212665 C13.046,6.51612665 10.962,8.75212665 8.785,11.5501267 C8.56870891,11.8410365 8.21191941,11.9921134 7.85249055,11.9449833 C7.4930617,11.8978532 7.18728419,11.659897 7.0533067,11.3230582 C6.9193292,10.9862194 6.97813414,10.6032508 7.207,10.3221267 C9.933,6.81912665 12.546,4.13312665 14.973,2.34012665 Z"/>
</svg>
