<svg xmlns="http://www.w3.org/2000/svg" width="32" height="32" viewBox="0 0 32 32">
  <path fill="#39393A" fill-rule="evenodd" d="M16,20 C17.6568542,20 19,21.3431458 19,23 C19,24.6568542 17.6568542,26 16,26 C14.3431458,26 13,24.6568542 13,23 C13,21.3431458 14.3431458,20 16,20 Z M16,15 C17.9,15 19.6,15.7 21,17.1 C21.4,17.5 21.4,18.1 21,18.5 C20.6,18.9 20,18.9 19.6,18.5 C18.6,17.5 17.3,17 16,17 C14.7,17 13.4,17.5 12.5,18.5 C12.3,18.7 12,18.8 11.8,18.8 C11.5,18.8 11.3,18.7 11.1,18.5 C10.7,18.1 10.7,17.5 11.1,17.1 C12.4,15.8 14.2,15 16,15 Z M16,10 C19.2,10 22.2,11.2 24.5,13.5 C24.9,13.9 24.9,14.5 24.5,14.9 C24.3,15.1 24,15.2 23.8,15.2 C23.5,15.2 23.3,15.1 23.1,14.9 C21.2,13 18.7,12 16,12 C13.3,12 10.8,13 8.9,14.9 C8.5,15.3 7.9,15.3 7.5,14.9 C7.1,14.5 7.1,13.9 7.5,13.5 C9.8,11.2 12.8,10 16,10 Z M16,5 C20.4,5 24.6,6.7 27.7,9.8 C28.1,10.2 28.1,10.8 27.7,11.2 C27.5,11.4 27.2,11.5 27,11.5 C26.7428571,11.5 26.5591837,11.4265306 26.3860058,11.2795918 L26.3,11.2 C23.5,8.5 19.9,7 16,7 C12.1,7 8.5,8.5 5.7,11.2 C5.3,11.6 4.7,11.6 4.3,11.2 C3.9,10.8 3.9,10.2 4.3,9.8 C7.4,6.7 11.6,5 16,5 Z"/>
</svg>
