<svg width="4800" height="1200" viewBox="0 0 4800 1200" xmlns="http://www.w3.org/2000/svg"><path d="M1400 1450a100 100 0 01100 100v200a100 100 0 01-100 100h-200a100 100 0 01-100-100v-200a100 100 0 01100-100h200zm2300 150a50 50 0 110 100H1900a50 50 0 110-100h1800zM1400 750a100 100 0 01100 100v200a100 100 0 01-100 100h-200a100 100 0 01-100-100V850a100 100 0 01100-100h200zm2300 150a50 50 0 110 100H1900a50 50 0 110-100h1800zM1400 50a100 100 0 01100 100v200a100 100 0 01-100 100h-200a100 100 0 01-100-100V150a100 100 0 01100-100h200zm2300 150a50 50 0 110 100H1900a50 50 0 110-100h1800zM1400-650a100 100 0 01100 100v200a100 100 0 01-100 100h-200a100 100 0 01-100-100v-200a100 100 0 01100-100h200zm2300 150a50 50 0 110 100H1900a50 50 0 110-100h1800z" fill-rule="evenodd"/></svg>