<?xml version="1.0" encoding="UTF-8"?>
<svg width="96px" height="96px" viewBox="0 0 96 96" version="1.1" xmlns="http://www.w3.org/2000/svg" xmlns:xlink="http://www.w3.org/1999/xlink">
    <title>pictograms/Energy &amp; Mobility/battery</title>
    <g id="Symbols" stroke="none" stroke-width="1" fill="none" fill-rule="evenodd">
        <g id="pictograms/energy&amp;mobility/battery" fill="#39393A">
            <path d="M55,42 L41,42 L41,36 L55,36 L55,42 Z M55,44 L41,44 L41,50 L55,50 L55,44 Z M55,60 L41,60 L41,66 L55,66 L55,60 Z M55,52 L41,52 L41,58 L55,58 L55,52 Z M59,65.23 C59,67.8604979 56.8704922,69.9944853 54.24,70.0000945 L41.8,70.0000945 C40.5297274,70.0079893 39.308738,69.5089663 38.4076905,68.6135504 C37.5066431,67.7181345 37,66.5002977 37,65.23 L37,33.23 C37.0109219,32.5474671 37.5673797,31.9999126 38.25,32 L41,32 L41,28.31 C41,27.6973499 41.2433743,27.1097924 41.6765833,26.6765833 C42.1097924,26.2433743 42.6973499,26 43.31,26 L52.69,26 C53.9935068,26.0540183 55.017359,27.1354899 55,28.44 L55,32 L57.7,32 C58.040096,31.9863852 58.3710375,32.1120459 58.6163863,32.3479583 C58.8617351,32.5838706 59.0002724,32.9096317 59,33.25 L59,65.23 Z M43,32 L53,32 L53,28.44 C53,28.22 52.8,28 52.69,28 L43.31,28 C43.1387917,28 43,28.1387917 43,28.31 L43,32 Z M57,34 L39,34 L39,65.23 C39,65.9698772 39.2959096,66.6790223 39.8218919,67.1993692 C40.3478743,67.719716 41.0601662,68.0080131 41.8,68.0001627 L54.24,68.0001627 C55.7659221,67.9944912 57,66.755932 57,65.23 L57,34 Z" id="â—-Pictogram"></path>
        </g>
    </g>
</svg>