<?xml version="1.0" encoding="UTF-8"?>
<svg width="96px" height="96px" viewBox="0 0 96 96" version="1.1" xmlns="http://www.w3.org/2000/svg" xmlns:xlink="http://www.w3.org/1999/xlink">
    <title>pictograms/Energy &amp; Mobility/lightning</title>
    <g id="Symbols" stroke="none" stroke-width="1" fill="none" fill-rule="evenodd">
        <g id="pictograms/energy&amp;mobility/lightning" fill="#39393A">
            <path d="M60.82,44.58 L43.82,68.58 C43.585279,69.0825791 42.9875791,69.299721 42.485,69.065 C41.9824209,68.8302789 41.765279,68.2325791 42,67.73 L46.68,51 L36,51 C35.6313491,51.0017854 35.2916156,50.8005966 35.115964,50.4764776 C34.9403124,50.1523586 34.9572353,49.7578849 35.16,49.45 L50.16,26.45 L50.22,26.36 C50.3901522,26.1480121 50.6392714,26.0144264 50.91,25.99 L51,25.99 C51.3148263,25.9799565 51.6159839,26.1188334 51.8127544,26.3647965 C52.0095249,26.6107596 52.0789068,26.9350571 52,27.24 L49.19,43 L60,43 C60.3752818,42.9979757 60.7201041,43.2062412 60.8929783,43.5393404 C61.0658525,43.8724395 61.0376721,44.2742887 60.82,44.58 Z" id="â—-Pictogram"></path>
        </g>
    </g>
</svg>