<?xml version="1.0" encoding="UTF-8"?>
<svg width="96px" height="96px" viewBox="0 0 96 96" version="1.1" xmlns="http://www.w3.org/2000/svg" xmlns:xlink="http://www.w3.org/1999/xlink">
    <title>pictograms/Energy &amp; Mobility/natural_gas</title>
    <g id="Symbols" stroke="none" stroke-width="1" fill="none" fill-rule="evenodd">
        <g id="pictograms/energy&amp;mobility/natural-gas" fill="#39393A">
            <path d="M57.76,40.05 C54.9918384,35.9031438 51.4751432,32.3084506 47.39,29.45 C46.9634239,29.1529549 46.4073852,29.1167103 45.9458576,29.3558655 C45.48433,29.5950208 45.1933019,30.0702 45.19,30.59 C45.2052109,32.8261101 44.6584818,35.0302192 43.6,37 C42.16,39.73 39.91,42 37.89,44.24 C36.8663743,45.355409 35.9677066,46.5793407 35.21,47.89 C34.4325232,49.2453549 34.0158999,50.7775646 33.999851,52.34 C33.9828927,56.1806141 35.4396177,59.8814829 38.07,62.68 C40.6427887,65.4275334 44.235947,66.9907201 48,67 L48,67 C51.7573435,66.9864028 55.3426733,65.4234739 57.91,62.68 C60.5476731,59.8845966 62.0116995,56.1833661 62.0000696,52.34 C62.0000696,48.29 60.36,44 57.76,40.05 Z M56.47,61.3 C55.3426217,62.492568 53.9807607,63.4390614 52.47,64.08 C54.4469498,62.1143313 55.5528511,59.4378341 55.54,56.65 C55.66,50.76 50.84,46.24 50.84,46.24 C52.18,53.02 47.49,58.77 47.2,55.78 C47.1602072,54.2521613 46.2897374,52.8678459 44.93,52.17 C45.59,55.17 42.44,58.04 42.44,61 C42.4662849,62.263447 43.034541,63.4545993 44,64.27 C42.2958198,63.6278498 40.7627402,62.6012339 39.52,61.27 C37.2337695,58.833771 35.9732532,55.6108601 36,52.27 C36.0265195,51.043001 36.3710893,49.8438981 37,48.79 C37.6898598,47.6125741 38.5045605,46.5128958 39.43,45.51 L40.57,44.24 C42.4479805,42.3350994 44.0745195,40.1977465 45.41,37.88 C46.4284546,35.9675644 47.0316108,33.8616291 47.18,31.7 C50.67295,34.3020498 53.6963307,37.4809959 56.12,41.1 C58.64,45.05 60.000232,48.92 60.000232,52.34 C60.0199266,55.6695929 58.7556133,58.8787281 56.47,61.3 Z" id="â—-Pictogram"></path>
        </g>
    </g>
</svg>