<?xml version="1.0" encoding="UTF-8"?>
<svg width="96px" height="96px" viewBox="0 0 96 96" version="1.1" xmlns="http://www.w3.org/2000/svg" xmlns:xlink="http://www.w3.org/1999/xlink">
    <title>pictograms/Energy &amp; Mobility/pylon</title>
    <g id="Symbols" stroke="none" stroke-width="1" fill="none" fill-rule="evenodd">
        <g id="pictograms/energy&amp;mobility/pylon" fill="#39393A">
            <path d="M65.19,51.15 L65.19,51.02 C65.19,50.99 65.19,50.95 65.16,50.92 C65.16,50.89 65.13,50.85 65.13,50.82 C65.13,50.79 65.1,50.75 65.1,50.72 C65.1,50.69 65.07,50.65 65.07,50.62 C65.04,50.59 65.04,50.55 65,50.55 C64.97,50.52 64.97,50.48 64.93,50.48 C64.9,50.45 64.9,50.45 64.86,50.41 C64.83,50.38 64.83,50.38 64.79,50.34 C64.76,50.31 64.72,50.31 64.69,50.27 C64.66,50.27 64.66,50.24 64.62,50.24 L53.68,45.34 L52.71,40.14 L59.15,40.14 L59.15,42.15 C59.15,42.72 59.59,43.16 60.16,43.16 C60.73,43.16 61.17,42.72 61.17,42.15 L61.17,39.16 L61.17,39.03 C61.17,38.9 61.1,38.76 61.04,38.63 C60.97,38.5 60.87,38.4 60.74,38.33 C60.71,38.3 60.67,38.3 60.64,38.26 L51.61,33.23 C51.54,33.2 51.48,33.16 51.41,33.16 L49.09,20.84 C49.09,20.77 49.06,20.71 49.06,20.67 C48.99,20.54 48.93,20.4 48.83,20.3 C48.73,20.2 48.56,20.1 48.43,20.07 C48.33,20.04 48.23,20 48.09,20 C47.95,20 47.86,20.03 47.75,20.07 C47.62,20.14 47.48,20.2 47.38,20.3 C47.28,20.4 47.21,20.53 47.15,20.67 C47.12,20.74 47.12,20.8 47.12,20.84 L44.8,33.12 C44.73,33.15 44.67,33.15 44.6,33.19 L35.57,38.22 C35.54,38.25 35.5,38.25 35.47,38.29 C35.34,38.39 35.27,38.49 35.17,38.59 C35.1,38.72 35.04,38.86 35.04,38.99 L35.04,39.12 L35.04,42.14 C35.04,42.71 35.48,43.15 36.05,43.15 C36.62,43.15 37.06,42.71 37.06,42.14 L37.06,40.13 L43.5,40.13 L42.53,45.33 L31.59,50.3 C31.56,50.3 31.56,50.33 31.52,50.33 C31.49,50.36 31.45,50.36 31.42,50.4 C31.39,50.43 31.35,50.43 31.35,50.47 C31.32,50.5 31.32,50.5 31.28,50.54 C31.25,50.57 31.25,50.61 31.21,50.61 C31.18,50.64 31.18,50.64 31.14,50.68 C31.09,50.71 31.09,50.74 31.09,50.74 C31.09,50.77 31.06,50.81 31.06,50.84 C31.06,50.87 31.03,50.91 31.03,50.94 C31.03,50.97 31,51.01 31,51.04 L31,51.14 L31,51.21 L31,54.23 C31,54.8 31.44,55.24 32.01,55.24 C32.58,55.24 33.02,54.8 33.02,54.23 L33.02,52.22 L41.21,52.22 L37.08,74.17 C36.98,74.71 37.35,75.24 37.89,75.34 C38.16,75.37 38.39,75.34 38.6,75.21 L48.1,69.4 L57.63,75.24 C57.8,75.34 57.97,75.37 58.17,75.37 C58.24,75.37 58.3,75.37 58.37,75.34 C58.91,75.24 59.28,74.7 59.18,74.17 L54.99,52.22 L63.18,52.22 L63.18,54.23 C63.18,54.8 63.62,55.24 64.19,55.24 C64.76,55.24 65.2,54.8 65.2,54.23 L65.2,51.21 L65.2,51.15 L65.19,51.15 Z M56.26,38.13 L52.33,38.13 L51.86,35.68 L56.26,38.13 Z M50.29,38.13 L45.86,38.13 L46.43,35.11 L49.69,35.11 L50.29,38.13 Z M48.07,26.45 L49.31,33.09 L46.79,33.09 L48.07,26.45 Z M45.49,40.14 L50.66,40.14 L51.6,45.17 L44.55,45.17 L45.49,40.14 Z M52,47.19 L52.57,50.21 L43.58,50.21 L44.15,47.19 L52,47.19 Z M39.88,38.13 L44.28,35.68 L43.81,38.13 L39.88,38.13 Z M36.63,50.21 L42.03,47.76 L41.53,50.21 L36.63,50.21 Z M42.37,56.62 L46.03,58.7 L41.5,61.28 L42.37,56.62 Z M39.42,72.32 L40.8,64.94 L46.14,68.19 L39.42,72.32 Z M42,63.33 L48.07,59.84 L54.14,63.3 L48.07,67.06 L42,63.33 Z M54.65,61.28 L50.09,58.7 L53.75,56.62 L54.65,61.28 Z M55.36,64.94 L56.74,72.32 L50.03,68.19 L55.36,64.94 Z M53.38,54.5 L48.08,57.52 L42.78,54.5 L43.22,52.22 L52.95,52.22 L53.38,54.5 Z M54.15,47.76 L59.52,50.21 L54.62,50.21 L54.15,47.76 Z" id="â—-Pictogram"></path>
        </g>
    </g>
</svg>