<?xml version="1.0" encoding="UTF-8"?>
<svg width="96px" height="96px" viewBox="0 0 96 96" version="1.1" xmlns="http://www.w3.org/2000/svg" xmlns:xlink="http://www.w3.org/1999/xlink">
    <title>pictograms/Energy &amp; Mobility/scooter_fuel</title>
    <g id="Symbols" stroke="none" stroke-width="1" fill="none" fill-rule="evenodd">
        <g id="pictograms/energy&amp;mobility/scooter-fuel" fill="#39393A">
            <path d="M82.74,13.16 C82.3432397,12.8202232 81.7518058,12.8430677 81.3824368,13.2124368 C81.0130677,13.5818058 80.9902232,14.1732397 81.33,14.57 L83.33,16.57 L83.33,19 C83.3316616,19.4018897 83.5737563,19.7637369 83.9446054,19.918621 C84.3154545,20.073505 84.7429942,19.9913286 85.03,19.71 L85.03,30.35 C85.03,31.0514016 84.4614016,31.62 83.76,31.62 C83.0585984,31.62 82.49,31.0514016 82.49,30.35 L82.49,21.25 C82.4847216,20.3809909 82.1337483,19.5498248 81.514582,18.9400399 C80.8954157,18.3302549 80.0589884,17.9920113 79.19,18 L79.19,15.24 C79.19,13.8592881 78.0707119,12.74 76.69,12.74 L66.94,12.74 C65.5592881,12.74 64.44,13.8592881 64.44,15.24 L64.44,32.93 C64.4305968,33.0531541 64.4305968,33.1768459 64.44,33.3 L63.84,33.3 C63.2877153,33.3 62.84,33.7477153 62.84,34.3 L62.84,36 C62.84,36.5522847 63.2877153,37 63.84,37 L79.76,37 C80.3122847,37 80.76,36.5522847 80.76,36 L80.76,34.3 C80.76,33.7477153 80.3122847,33.3 79.76,33.3 L79.16,33.3 C79.1689595,33.1768294 79.1689595,33.0531706 79.16,32.93 L79.16,20 L79.16,20 C79.8614016,20 80.43,20.5685984 80.43,21.27 L80.43,30.37 C80.43,32.1759711 81.8940289,33.64 83.7,33.64 L83.7,33.64 C84.5759221,33.6480529 85.418454,33.3043394 86.0387898,32.6858834 C86.6591256,32.0674274 87.0053946,31.2259425 87.0000621,30.35 L87.0000621,17.43 L82.74,13.16 Z M76.93,22.38 L66.71,22.38 L66.71,15.57 L76.92,15.57 L76.93,22.38 Z M66.65,51.08 C62.75,40.83 56.4,37.43 56.12,37.29 C55.8016411,37.124434 55.4189774,37.1421376 55.1172652,37.3363907 C54.815553,37.5306437 54.6410515,37.8716629 54.66,38.23 L54.66,39.01 L51,39.01 C50.4477153,39.01 50,39.4577153 50,40.01 C50,40.5622847 50.4477153,41.01 51,41.01 L54.84,41.01 L55,44.08 C54.9886853,44.1662974 54.9886853,44.2537026 55,44.34 C55.8253409,46.9302573 56.2864243,49.6227154 56.37,52.34 C56.37,56 51.06,60.65 49.98,60.81 L44.48,60.81 C42.99,58.81 43.84,54.9 44.48,52.95 L45,52.95 C46.1045695,52.95 47,52.0545695 47,50.95 L47,48.92 C47.0035188,47.3382086 45.7782765,46.0254491 44.2,45.92 L32.2,45.11 L32,45.11 C30.3431458,45.11 29,46.4531458 29,48.11 L29,51 C29.0041842,51.1866352 29.0344782,51.3717655 29.09,51.55 C21.93,58.82 23.09,63.39 23.09,63.55 C23.2145106,63.9952375 23.6279962,64.297082 24.09,64.28 L38.83,64.28 L41.68,67.13 C42.2437029,67.6891042 43.0060512,68.0019547 43.8,68.0001179 L55.28,68.0001179 C55.9439371,68.0058845 56.5910687,67.7913463 57.12,67.39 L70.79,56.81 C71.035247,56.6212074 71.1792561,56.3294966 71.18,56.02 C71.18,52.91 68.49,51.5 66.65,51.08 Z M30.9999738,51 L30.9999738,48 C30.9980331,47.7436014 31.1067428,47.4988113 31.2982775,47.3283455 C31.4898121,47.1578796 31.7455607,47.0783018 32,47.11 L32,47.11 L44,47.92 C44.5627658,47.9666167 44.9967468,48.4353161 45,49 L45,51 L30.9999738,51 Z M39,68.32 C37.6227379,70.6154244 35.136868,72.0142013 32.46,72 C29.1748387,72.0491334 26.2030772,70.0573361 25,67 L37.62,67 L39,68.32 Z M72.3400791,64.27 C72.3545515,67.4961113 70.3589581,70.3901719 67.3384086,71.5234356 C64.3178592,72.6566994 60.911105,71.7895166 58.8,69.35 L71,59.92 C71.8788391,61.1998952 72.3463119,62.7174376 72.3400791,64.27 L72.3400791,64.27 Z" id="â—-Pictogram"></path>
        </g>
    </g>
</svg>