<?xml version="1.0" encoding="UTF-8"?>
<svg width="96px" height="96px" viewBox="0 0 96 96" version="1.1" xmlns="http://www.w3.org/2000/svg" xmlns:xlink="http://www.w3.org/1999/xlink">
    <title>pictograms/Energy &amp; Mobility/solar_farm</title>
    <g id="Symbols" stroke="none" stroke-width="1" fill="none" fill-rule="evenodd">
        <g id="pictograms/energy&amp;mobility/solar-farm" fill="#39393A">
            <path d="M32,30 L38,30 L40.13,37 L32,37 L32,30 Z M7.4,45 L18,45 L18,39 L9.22,39 L7.4,45 Z M30,30 L20,30 L20,37 L30,37 L30,30 Z M20,45 L26.6,45 L28.17,39.84 C28.263867,39.5462895 28.3913805,39.2644177 28.55,39 L20,39 L20,45 Z M18,30 L12,30 L9.83,37 L18,37 L18,30 Z M25.38,49 L2,49 L9,26 L41,26 L44.35,37 L46.44,37 L42.91,25.42 C42.6548974,24.5781314 41.8796686,24.0017833 41,24 L9,24 C8.12033142,24.0017833 7.34510261,24.5781314 7.09,25.42 L0.09,48.42 C-0.0934189015,49.0252946 0.0202817396,49.681678 0.396606611,50.1900122 C0.772931483,50.6983463 1.3675268,50.9987186 2,51 L17,51 L17,57 L14.94,57 C13.8685676,57 13,57.8685676 13,58.94 L13,59.06 C13,60.1314324 13.8685676,61 14.94,61 L21.73,61 L25.38,49 Z M69.38,45 L76,45 L76,39 L67.45,39 C67.6086195,39.2644177 67.736133,39.5462895 67.83,39.84 L69.38,45 Z M78,45 L88.6,45 L86.77,39 L78,39 L78,45 Z M78,30 L78,37 L86.17,37 L84,30 L78,30 Z M76,30 L66,30 L66,37 L76,37 L76,30 Z M64,30 L58,30 L55.87,37 L64,37 L64,30 Z M95.91,48.42 L88.91,25.42 C88.6548974,24.5781314 87.8796686,24.0017833 87,24 L55,24 C54.1203314,24.0017833 53.3451026,24.5781314 53.09,25.42 L49.56,37 L51.65,37 L55,26 L87,26 L94,49 L70.62,49 L74.27,61 L81.06,61 C82.1314324,61 83,60.1314324 83,59.06 L83,58.94 C83,58.42548 82.7956077,57.9320334 82.4317872,57.5682128 C82.0679666,57.2043923 81.57452,57 81.06,57 L79,57 L79,51 L94,51 C94.6324732,50.9987186 95.2270685,50.6983463 95.6033934,50.1900122 C95.9797183,49.681678 96.0934189,49.0252946 95.91,48.42 Z M43,60 L53,60 L53,54 L43,54 L43,60 Z M33.75,49 L33.45,50 L33.15,51 L33.01,51.45 L32.84,52 L41,52 L41,45 L35,45 L33.75,49 Z M32.23,54 L31.32,57 L31.17,57.5 L31,58 L30.7,59 L30.4,60 L41,60 L41,54 L32.22,54 L32.23,54 Z M49.23,45 L43,45 L43,52 L53,52 L53,45 L49.22,45 L49.23,45 Z M63.18,52 L63,51.45 L62.86,51 L62.56,50 L62.26,49 L61,45 L55,45 L55,52 L63.17,52 L63.18,52 Z M65,58 L64.85,57.5 L64.7,57 L63.79,54 L55,54 L55,60 L65.6,60 L65.3,59 L65,58 Z M72.92,63.42 C73.1039313,64.0269802 72.9890617,64.685225 72.6104158,65.1940304 C72.2317699,65.7028358 71.6342335,66.0018867 71,66 L56,66 L56,72 L58.06,72 C59.1314324,72 60,72.8685676 60,73.94 L60,74.06 C60,75.1314324 59.1314324,76 58.06,76 L37.94,76 C36.8685676,76 36,75.1314324 36,74.06 L36,73.94 C36,72.8685676 36.8685676,72 37.94,72 L40,72 L40,66 L25,66 C24.3675268,65.9987186 23.7729315,65.6983463 23.3966066,65.1900122 C23.0202817,64.681678 22.9065811,64.0252946 23.09,63.42 L23.82,61 L23.97,60.5 L24.12,60 L24.42,59 L24.72,58 L24.87,57.5 L25,57 L26.22,53 L26.83,51 L27.01,50.42 L27.14,50 L27.44,49 L28.66,45 L30,40.7 L30.09,40.41 C30.3486959,39.5720904 31.1230645,39.0004361 32,39 L64,39 C64.8796686,39.0017833 65.6548974,39.5781314 65.91,40.42 L66,40.71 L67.31,45 L68.53,49 L68.83,50 L68.96,50.42 L69.14,51 L69.75,53 L71,57 L71.15,57.5 L71.3,58 L71.6,59 L71.9,60 L72.05,60.5 L72.2,61 L72.92,63.42 Z M71,64 L65.22,45 L64,41 L32,41 L25,64 L71,64 Z" id="â—-Pictogram"></path>
        </g>
    </g>
</svg>