<?xml version="1.0" encoding="UTF-8"?>
<svg width="96px" height="96px" viewBox="0 0 96 96" version="1.1" xmlns="http://www.w3.org/2000/svg" xmlns:xlink="http://www.w3.org/1999/xlink">
    <title>pictograms/Energy &amp; Mobility/solar_sun</title>
    <g id="Symbols" stroke="none" stroke-width="1" fill="none" fill-rule="evenodd">
        <g id="pictograms/energy&amp;mobility/solar-sun" fill="#39393A">
            <path d="M17,36 L21,36 C21.5522847,36 22,35.5522847 22,35 C22,34.4477153 21.5522847,34 21,34 L17,34 C16.4477153,34 16,34.4477153 16,35 C16,35.5522847 16.4477153,36 17,36 Z M37,20 L37,16 C37,15.4477153 36.5522847,15 36,15 C35.4477153,15 35,15.4477153 35,16 L35,20 C35,20.5522847 35.4477153,21 36,21 C36.5522847,21 37,20.5522847 37,20 Z M47.31,25.1 L50.14,22.27 C50.4253762,22.0256101 50.5496819,21.6418816 50.4618101,21.276581 C50.3739383,20.9112805 50.0887195,20.6260617 49.723419,20.5381899 C49.3581184,20.4503181 48.9743899,20.5746238 48.73,20.86 L45.9,23.69 C45.5602232,24.0867603 45.5830677,24.6781942 45.9524368,25.0475632 C46.3218058,25.4169323 46.9132397,25.4397768 47.31,25.1 L47.31,25.1 Z M23.31,49.1 L26.14,46.27 C26.4253762,46.0256101 26.5496819,45.6418816 26.4618101,45.276581 C26.3739383,44.9112805 26.0887195,44.6260617 25.723419,44.5381899 C25.3581184,44.4503181 24.9743899,44.5746238 24.73,44.86 L21.9,47.69 C21.6146238,47.9343899 21.4903181,48.3181184 21.5781899,48.683419 C21.6660617,49.0487195 21.9512805,49.3339383 22.316581,49.4218101 C22.6818816,49.5096819 23.0656101,49.3853762 23.31,49.1 Z M26.1,23.69 L23.27,20.86 C23.0256101,20.5746238 22.6418816,20.4503181 22.276581,20.5381899 C21.9112805,20.6260617 21.6260617,20.9112805 21.5381899,21.276581 C21.4503181,21.6418816 21.5746238,22.0256101 21.86,22.27 L24.69,25.1 C24.9343899,25.3853762 25.3181184,25.5096819 25.683419,25.4218101 C26.0487195,25.3339383 26.3339383,25.0487195 26.4218101,24.683419 C26.5096819,24.3181184 26.3853762,23.9343899 26.1,23.69 L26.1,23.69 Z M24,35 C24.0398861,28.7418298 28.8490549,23.5485385 35.0857346,23.0288152 C41.3224143,22.5090919 46.9248289,26.8347512 48,33 L37.1,33 C35.328633,32.9845481 33.7580772,34.1360177 33.24,35.83 L33.15,36.11 L33.15,36.11 C32.94,36.6 32.75,37.23 32.5,38.02 C32.14,39.18 31.67,40.72 31.2,42.27 L30.2,45.5 C26.3765522,43.3890536 24.0019062,39.3674757 24,35 Z M37.83,48 L46,48 L46,41 L40,41 L37.83,48 Z M48,56 L58,56 L58,50 L48,50 L48,56 Z M35.7,55 L35.4,56 L46,56 L46,50 L37.22,50 L35.7,55 Z M68,47.45 L67.86,47 L67.25,45 L66,41 L60,41 L60,48 L68.17,48 L68,47.45 Z M48,48 L58,48 L58,41 L48,41 L48,48 Z M77.91,59.42 L76.91,56 L74.17,47 L72.34,41 L70.95,36.42 C70.6907192,35.5638318 69.8944235,34.9839652 69,34.9996756 L37,34.9996756 C36.1203314,35.0017833 35.3451026,35.5781314 35.09,36.42 L35,36.7 C34.86,36.7 31.26,49 31.26,49 L29.74,54 L28.09,59.42 C27.9065811,60.0252946 28.0202817,60.681678 28.3966066,61.1900122 C28.7729315,61.6983463 29.3675268,61.9987186 30,62 L45,62 L45,68 L42.94,68 C41.8685676,68 41,68.8685676 41,69.94 L41,70.06 C41,71.1314324 41.8685676,72 42.94,72 L63.06,72 C64.1314324,72 65,71.1314324 65,70.06 L65,69.94 C65,68.8685676 64.1314324,68 63.06,68 L61,68 L61,62 L76,62 C76.6324732,61.9987186 77.2270685,61.6983463 77.6033934,61.1900122 C77.9797183,60.681678 78.0934189,60.0252946 77.91,59.42 Z M30,60 L37,37 L69,37 L70.22,41 L76,60 L30,60 Z M69.84,53.5 L69.69,53 L68.78,50 L60,50 L60,56 L70.6,56 L70.3,55 L70,54 L69.84,53.5 Z" id="â—-Pictogram"></path>
        </g>
    </g>
</svg>