<?xml version="1.0" encoding="UTF-8"?>
<svg width="96px" height="96px" viewBox="0 0 96 96" version="1.1" xmlns="http://www.w3.org/2000/svg" xmlns:xlink="http://www.w3.org/1999/xlink">
    <title>pictograms/Energy &amp; Mobility/water</title>
    <g id="Symbols" stroke="none" stroke-width="1" fill="none" fill-rule="evenodd">
        <g id="pictograms/energy&amp;mobility/water" fill="#39393A">
            <path d="M49.24,30 C48.9726093,29.5759251 48.5063355,29.3187008 48.005,29.3187008 C47.5036645,29.3187008 47.0373907,29.5759251 46.77,30 C43.7,34.66 36,47 36,52.32 C36,58.947417 41.372583,64.32 48,64.32 C54.627417,64.32 60,58.947417 60,52.32 C60,47 52.3,34.66 49.24,30 Z M52.45,60.44 L51.68,58.59 C54.3259456,57.4760002 56.0338251,54.8706933 56,52 L58,52 C58.0283852,55.6752946 55.8311622,59.0027438 52.44,60.42 L52.45,60.44 Z" id="â—-Pictogram"></path>
        </g>
    </g>
</svg>