<svg xmlns="http://www.w3.org/2000/svg" width="40" height="40" viewBox="0 0 40 40">
  <path fill="#39393A" fill-rule="evenodd" d="M6.47300955,1.2865393 C3.8419758,1.78711285 1.78706782,3.84201575 1.28649303,6.473043 C-0.428831011,15.4910802 -0.428831011,24.5089198 1.28649303,33.526957 C1.78706782,36.1579842 3.8419758,38.2128872 6.47300955,38.7134607 C10.9819405,39.5710217 15.4910691,40 20,40 C24.5089309,40 29.0180595,39.5710217 33.5269905,38.7134607 C36.1580242,38.2128872 38.2129322,36.1579842 38.713507,33.526957 C40.428831,24.5089198 40.428831,15.4910802 38.713507,6.473043 C38.2129322,3.84201575 36.1580242,1.78711285 33.5269905,1.2865393 C29.0180595,0.428780507 24.5089309,0 20,0 C15.4910691,0 10.9819405,0.428780507 6.47300955,1.2865393 Z"/>
</svg>
