<svg xmlns="http://www.w3.org/2000/svg" width="24" height="24" viewBox="0 0 24 24">
  <path fill="#39393A" fill-rule="evenodd" d="M3.88380573,0.77192358 C2.30518548,1.07226771 1.07224069,2.30520945 0.771895819,3.8838258 C-0.257298606,9.29464814 -0.257298606,14.7053519 0.771895819,20.1161742 C1.07224069,21.6947905 2.30518548,22.9277323 3.88380573,23.2280764 C6.58916428,23.742613 9.29464145,24 12,24 C14.7053586,24 17.4108357,23.742613 20.1161943,23.2280764 C21.6948145,22.9277323 22.9277593,21.6947905 23.2281042,20.1161742 C24.2572986,14.7053519 24.2572986,9.29464814 23.2281042,3.8838258 C22.9277593,2.30520945 21.6948145,1.07226771 20.1161943,0.77192358 C17.4108357,0.257268304 14.7053586,0 12,0 C9.29464145,0 6.58916428,0.257268304 3.88380573,0.77192358 Z"/>
</svg>
