<svg xmlns="http://www.w3.org/2000/svg" width="24" height="24" viewBox="0 0 24 24">
  <path fill="#39393A" fill-rule="evenodd" d="M12,0 C14.7053586,0 17.4108357,0.257268304 20.1161943,0.77192358 C21.6948145,1.07226771 22.9277593,2.30520945 23.2281042,3.8838258 C24.2572986,9.29464814 24.2572986,14.7053519 23.2281042,20.1161742 C22.9277593,21.6947905 21.6948145,22.9277323 20.1161943,23.2280764 C17.4108357,23.742613 14.7053586,24 12,24 C9.29464145,24 6.58916428,23.742613 3.88380573,23.2280764 C2.30518548,22.9277323 1.07224069,21.6947905 0.771895819,20.1161742 C-0.257298606,14.7053519 -0.257298606,9.29464814 0.771895819,3.8838258 C1.07224069,2.30520945 2.30518548,1.07226771 3.88380573,0.77192358 C6.58916428,0.257268304 9.29464145,0 12,0 Z M11.9999978,2 C9.42043149,2 6.84007554,2.24540399 4.25761506,2.73667969 C3.48560652,2.88356001 2.88353168,3.48563335 2.73666889,4.25754598 C1.7544437,9.4214352 1.7544437,14.5785648 2.73665159,19.7423631 C2.88353168,20.5143666 3.48560652,21.11644 4.25749044,21.2632966 C6.84050784,21.7545649 9.42089295,22 11.9999978,22 C14.579107,22 17.1594922,21.7545649 19.742385,21.2633203 C20.5143935,21.11644 21.1164683,20.5143666 21.2633311,19.742454 C22.2455563,14.5785648 22.2455563,9.42143519 21.2633484,4.25763695 C21.1164683,3.48563335 20.5143935,2.88356 19.7424264,2.73668758 C17.1599245,2.24540399 14.5795685,2 11.9999978,2 Z"/>
</svg>
