<svg xmlns="http://www.w3.org/2000/svg" width="48" height="48" viewBox="0 0 48 48">
  <path fill="#39393A" fill-rule="evenodd" d="M24,0 C29.4107171,0 34.8216714,0.514536608 40.2323886,1.54384716 C43.3896291,2.14453542 45.8555186,4.6104189 46.4562084,7.7676516 C48.5145972,18.5892963 48.5145972,29.4107037 46.4562084,40.2323484 C45.8555186,43.3895811 43.3896291,45.8554646 40.2323886,46.4561528 C34.8216714,47.485226 29.4107171,48 24,48 C18.5892829,48 13.1783286,47.485226 7.76761147,46.4561528 C4.61037096,45.8554646 2.14448139,43.3895811 1.54379164,40.2323484 C-0.514597213,29.4107037 -0.514597213,18.5892963 1.54379164,7.7676516 C2.14448139,4.6104189 4.61037096,2.14453542 7.76761147,1.54384716 C13.1783286,0.514536608 18.5892829,0 24,0 Z M23.9999978,2 C18.7148873,2 13.4290542,2.5027076 8.14142079,3.50860327 C5.790792,3.95582772 3.95577238,5.7908428 3.50856471,8.14137178 C1.4971451,18.7160833 1.4971451,29.2839167 3.50854741,39.8585373 C3.95577238,42.2091572 5.79079201,44.0441723 8.14129618,44.491373 C13.4299545,45.4972317 18.7158167,46 23.9999978,46 C29.2841833,46 34.5700455,45.4972317 39.8585792,44.4913967 C42.209208,44.0441723 44.0442276,42.2091572 44.4914353,39.8586282 C46.5028549,29.2839167 46.5028549,18.7160833 44.4914526,8.14146275 C44.0442276,5.79084278 42.209208,3.95582771 39.8586207,3.50861116 C34.5709458,2.5027076 29.2851127,2 23.9999978,2 Z"/>
</svg>
