<svg xmlns="http://www.w3.org/2000/svg" width="32" height="32" viewBox="0 0 32 32">
  <path fill="#39393A" fill-rule="evenodd" d="M5.17840764,1.02923144 C3.07358064,1.42969028 1.42965426,3.0736126 1.02919443,5.1784344 C-0.343064808,12.3928642 -0.343064808,19.6071358 1.02919443,26.8215656 C1.42965426,28.9263874 3.07358064,30.5703097 5.17840764,30.9707686 C8.78555237,31.6568174 12.3928553,32 16,32 C19.6071447,32 23.2144476,31.6568174 26.8215924,30.9707686 C28.9264194,30.5703097 30.5703457,28.9263874 30.9708056,26.8215656 C32.3430648,19.6071358 32.3430648,12.3928642 30.9708056,5.1784344 C30.5703457,3.0736126 28.9264194,1.42969028 26.8215924,1.02923144 C23.2144476,0.343024406 19.6071447,0 16,0 C12.3928553,0 8.78555237,0.343024406 5.17840764,1.02923144 Z"/>
</svg>
