<svg xmlns="http://www.w3.org/2000/svg" width="48" height="48" viewBox="0 0 48 48">
  <path fill="#39393A" fill-rule="evenodd" d="M7.76761147,1.54384716 C4.61037096,2.14453542 2.14448139,4.6104189 1.54379164,7.7676516 C-0.514597213,18.5892963 -0.514597213,29.4107037 1.54379164,40.2323484 C2.14448139,43.3895811 4.61037096,45.8554646 7.76761147,46.4561528 C13.1783286,47.485226 18.5892829,48 24,48 C29.4107171,48 34.8216714,47.485226 40.2323886,46.4561528 C43.3896291,45.8554646 45.8555186,43.3895811 46.4562084,40.2323484 C48.5145972,29.4107037 48.5145972,18.5892963 46.4562084,7.7676516 C45.8555186,4.6104189 43.3896291,2.14453542 40.2323886,1.54384716 C34.8216714,0.514536608 29.4107171,0 24,0 C18.5892829,0 13.1783286,0.514536608 7.76761147,1.54384716 Z"/>
</svg>
