<svg xmlns="http://www.w3.org/2000/svg" width="40" height="40" viewBox="0 0 40 40">
  <path fill="#39393A" fill-rule="evenodd" d="M20,0 C24.5089309,0 29.0180595,0.428780507 33.5269905,1.2865393 C36.1580242,1.78711285 38.2129322,3.84201575 38.713507,6.473043 C40.428831,15.4910802 40.428831,24.5089198 38.713507,33.526957 C38.2129322,36.1579842 36.1580242,38.2128872 33.5269905,38.7134607 C29.0180595,39.5710217 24.5089309,40 20,40 C15.4910691,40 10.9819405,39.5710217 6.47300955,38.7134607 C3.8419758,38.2128872 1.78706782,36.1579842 1.28649303,33.526957 C-0.428831011,24.5089198 -0.428831011,15.4910802 1.28649303,6.473043 C1.78706782,3.84201575 3.8419758,1.78711285 6.47300955,1.2865393 C10.9819405,0.428780507 15.4910691,0 20,0 Z M19.9999978,2 C15.6167354,2 11.232728,2.41693973 6.84681888,3.25129541 C5.02239684,3.59840515 3.59835881,5.02243965 3.2512661,6.84676318 C1.5829113,15.6178673 1.5829113,24.3821327 3.25124881,33.1531459 C3.59835881,34.9775603 5.02239685,36.4015949 6.84669427,36.7486809 C11.2334723,37.5830094 15.6175088,38 19.9999978,38 C24.3824912,38 28.7665277,37.5830094 33.1531812,36.7487046 C34.9776032,36.4015949 36.4016412,34.9775604 36.7487339,33.1532368 C38.4170887,24.3821327 38.4170887,15.6178673 36.7487512,6.84685415 C36.4016412,5.02243964 34.9776032,3.59840514 33.1532226,3.2513033 C28.767272,2.41693973 24.3832646,2 19.9999978,2 Z"/>
</svg>
