<svg xmlns="http://www.w3.org/2000/svg" width="32" height="32" viewBox="0 0 32 32">
  <path fill="#39393A" fill-rule="evenodd" d="M16,0 C19.6071447,0 23.2144476,0.343024406 26.8215924,1.02923144 C28.9264194,1.42969028 30.5703457,3.0736126 30.9708056,5.1784344 C32.3430648,12.3928642 32.3430648,19.6071358 30.9708056,26.8215656 C30.5703457,28.9263874 28.9264194,30.5703097 26.8215924,30.9707686 C23.2144476,31.6568174 19.6071447,32 16,32 C12.3928553,32 8.78555237,31.6568174 5.17840764,30.9707686 C3.07358064,30.5703097 1.42965426,28.9263874 1.02919443,26.8215656 C-0.343064808,19.6071358 -0.343064808,12.3928642 1.02919443,5.1784344 C1.42965426,3.0736126 3.07358064,1.42969028 5.17840764,1.02923144 C8.78555237,0.343024406 12.3928553,0 16,0 Z M15.9999978,2 C12.5185834,2 9.03640178,2.33117186 5.55221697,2.99398755 C4.25400168,3.24098258 3.24094525,4.2540365 2.9939675,5.55215458 C1.6686775,12.5196512 1.6686775,19.4803488 2.9939502,26.4477545 C3.24094525,27.7459635 4.25400169,28.7590174 5.55209236,29.0059887 C9.03699007,29.6687872 12.5192009,30 15.9999978,30 C19.4807991,30 22.9630099,29.6687872 26.4477831,29.0060124 C27.7459983,28.7590174 28.7590547,27.7459635 29.0060325,26.4478454 C30.3313225,19.4803488 30.3313225,12.5196512 29.0060498,5.55224555 C28.7590547,4.25403649 27.7459983,3.24098257 26.4478245,2.99399544 C22.9635982,2.33117186 19.4814166,2 15.9999978,2 Z"/>
</svg>
