<svg width="48" height="48" viewBox="0 0 48 48" xmlns="http://www.w3.org/2000/svg">
    <path d="M22.47 11.117C28.815 14.491 34 21.081 34 27c0 5.734-3.352 10-10 10-5.382 0-9-3.289-9-8 0-2.805.805-4.586 2.858-7.413l.377-.517c2.399-3.295 3.158-5.27 2.77-8.966a1 1 0 0 1 1.464-.987zm.633 2.69c.001 3.166-1.012 5.365-3.25 8.44l-.377.516C17.65 25.278 17 26.715 17 29c0 2.484 1.305 4.422 3.56 5.367-.434-.604-.664-1.343-.664-2.159 0-3.791 3.894-4.356 5.104-9.208 2.558 2.071 4 5 4 8 0 .977-.234 2.193-.915 3.18C30.726 32.927 32 30.32 32 27c0-4.595-3.88-9.953-8.897-13.193z" fill-rule="evenodd" fill="#EA1B0A"/>
</svg>
