<svg width="48" height="48" viewBox="0 0 48 48" xmlns="http://www.w3.org/2000/svg">
    <path d="M16.969 11.5s4.687 1.595 4.687 6.25-3.906 7.813-3.906 12.5c0 4.688 1.563 6.25 1.563 6.25s-3.907-1.53-3.907-6.25c0-4.623 3.906-7.845 3.906-12.5S16.97 11.5 16.97 11.5zm5.468 0s4.688 1.595 4.688 6.25-3.906 7.813-3.906 12.5c0 4.688 1.562 6.25 1.562 6.25s-3.906-1.53-3.906-6.25c0-4.623 3.906-7.845 3.906-12.5s-2.343-6.25-2.343-6.25zm5.47 0s4.687 1.595 4.687 6.25-3.907 7.813-3.907 12.5c0 4.688 1.563 6.25 1.563 6.25s-3.906-1.53-3.906-6.25c0-4.623 3.906-7.845 3.906-12.5s-2.344-6.25-2.344-6.25z" fill-rule="evenodd" fill="#EA1B0A"/>
</svg>
