<svg width="48" height="48" viewBox="0 0 48 48" xmlns="http://www.w3.org/2000/svg">
    <path d="M38 31c0 .551-.449 1-1 1h-2.8c.098-.247.16-.512.16-.803 0-.984-.635-1.739-1.463-1.931.791-.192 1.355-.948 1.355-1.823 0-1.356-1.079-2.303-2.794-2.303-1.907 0-2.723 1.007-2.723 2.303h1.811c0-.492.324-.792.912-.792.576 0 .923.336.923.888 0 .683-.42.995-1.223.995h-.791v1.463h.791c.936 0 1.343.42 1.343 1.092 0 .587-.456.911-1.043.911-.636 0-1.02-.288-1.02-.827H28.64c0 .299.048.573.131.827H25V16h12c.551 0 1 .449 1 1v14zm-15 1H11c-.551 0-1-.449-1-1V17c0-.551.449-1 1-1h12v16zm14-18H11c-1.654 0-3 1.346-3 3v14c0 1.654 1.346 3 3 3h26c1.654 0 3-1.346 3-3V17c0-1.654-1.346-3-3-3zm-20.59 7.391c.576 0 .852.432.852 1.02 0 .66-.384 1.247-.996 1.895l-2.41 2.578v1.236h5.288v-1.464h-2.878l1.2-1.27c.863-.912 1.654-1.86 1.654-2.975 0-1.476-1.079-2.53-2.71-2.53-1.859 0-2.723 1.102-2.723 2.721h1.8c0-.743.276-1.21.923-1.21" fill-rule="evenodd" fill="#EA1B0A"/>
</svg>
