<svg width="48" height="48" viewBox="0 0 48 48" xmlns="http://www.w3.org/2000/svg">
    <path d="M33.375 17c.156 0 .3.065.43.195s.195.274.195.43v13.75c0 .156-.065.3-.195.43a.597.597 0 0 1-.43.195H30.25l-2.07-2.07a.584.584 0 0 0-.43-.176.584.584 0 0 0-.43.176L25.25 32H14.625a.597.597 0 0 1-.43-.195.597.597 0 0 1-.195-.43v-13.75c0-.156.065-.3.195-.43a.597.597 0 0 1 .43-.195h18.75zm-13.75 1.25c.182 0 .332.059.45.176a.608.608 0 0 1 .175.449v7.5c0 .156-.059.3-.176.43a.577.577 0 0 1-.449.195h-3.75a.597.597 0 0 1-.43-.195.597.597 0 0 1-.195-.43v-7.5c0-.182.065-.332.195-.45a.629.629 0 0 1 .43-.175zM36.5 9a.5.5 0 0 1 .5.5v3h3a.5.5 0 1 1 0 1h-3v3a.5.5 0 1 1-1 0v-3h-3a.5.5 0 1 1 0-1l3-.001V9.5a.5.5 0 0 1 .5-.5zm-10 17.375v-7.5a.577.577 0 0 0-.195-.45.629.629 0 0 0-.43-.175h-3.75a.608.608 0 0 0-.45.176.608.608 0 0 0-.175.449v7.5c0 .156.059.3.176.43.117.13.267.195.449.195h3.75c.156 0 .3-.065.43-.195a.597.597 0 0 0 .195-.43zm6.25 0v-7.5a.577.577 0 0 0-.195-.45.629.629 0 0 0-.43-.175h-3.75c-.156 0-.3.059-.43.176a.577.577 0 0 0-.195.449v7.559c0 .156.065.3.195.43s.274.195.43.195h2.559a.886.886 0 0 0-.381-.274 1.67 1.67 0 0 0-.616-.098c-.09 0-.198.01-.322.03-.123.02-.244.03-.361.03v-.684h.312c.43 0 .765-.075 1.006-.225a.724.724 0 0 0 .362-.654c0-.183-.05-.323-.147-.42-.098-.098-.257-.147-.478-.147-.222 0-.433.04-.635.117a2.996 2.996 0 0 0-.674.391l-.254-.508a3.74 3.74 0 0 1 .83-.469 2.37 2.37 0 0 1 .87-.156c.364 0 .663.104.898.313.234.208.351.481.351.82 0 .247-.065.465-.195.654-.13.19-.339.349-.625.479h-.117v.058h.176c.247.066.439.15.576.254a.908.908 0 0 1 .302.43h.313c.156 0 .3-.065.43-.195a.597.597 0 0 0 .195-.43zm-16.367-4.746l1.797-1.387h.508v4.63h-.684V21.18l.058-.059-.058-.058-.059.117-1.328.879-.234-.43zm7.11 2.676l.195-.059 1.933.059v.625h-3.183v-.43c.338-.247.624-.485.859-.713.234-.228.488-.511.762-.85.22-.286.38-.53.478-.732.098-.202.147-.394.147-.576 0-.221-.059-.39-.176-.508-.117-.117-.287-.176-.508-.176-.221 0-.42.052-.596.157-.175.104-.374.28-.595.527l-.254-.567c.26-.312.507-.527.742-.644.234-.117.508-.176.82-.176.417 0 .742.117.977.352.234.234.351.56.351.976 0 .404-.13.801-.39 1.192-.26.39-.716.866-1.367 1.425l-.196.118z" fill-rule="evenodd" fill="#EA1B0A"/>
</svg>
