<svg width="48" height="48" viewBox="0 0 48 48" xmlns="http://www.w3.org/2000/svg">
    <path d="M17.573 25.065V23h12.81v2.065h-12.81zm0-6.195v-2.065h12.81v2.065h-12.81zm-3.99-7.278a.082.082 0 0 0-.078.078v24.66c0 .04.038.078.078.078h20.834a.08.08 0 0 0 .077-.078l.001-24.66a.082.082 0 0 0-.078-.078H13.583zm20.834 26.816H13.583a2.08 2.08 0 0 1-2.078-2.078V11.67a2.08 2.08 0 0 1 2.078-2.078h20.834a2.08 2.08 0 0 1 2.078 2.078l-.001 24.66a2.08 2.08 0 0 1-2.077 2.078z" fill-rule="evenodd" fill="#EA1B0A"/>
</svg>
