<svg width="48" height="48" viewBox="0 0 48 48" xmlns="http://www.w3.org/2000/svg">
    <path d="M36 33v-4c0-2.666-14-2.666-14 0v4c0 2.667 14 2.667 14 0zm2 0c0 5.334-18 5.334-18 0v-4c0-5.333 18-5.333 18 0v4zM28 15v11.074h-2l.002-.366c-3.43 1.784-10.553 1.719-14.002-.052v1.58l.052-.025c.584 1.19 4.642 2.043 8.716 1.72l.069.875 1.214-.595c.978 1.993 10.05 2.5 13.235.607.37-.22.59-.44.674-.63l1.83.805c-.271.618-.781 1.126-1.48 1.544-3.688 2.19-12.594 1.913-15.402-.61l.018-.002c-3.472.275-6.87-.152-8.927-1.23L12 31c0 1.198 4.247 2.29 8.768 1.931l.158 1.994C15.25 35.375 10 34.027 10 31V15c0-5.333 18-5.333 18 0zm-16 6.656v1.58l.05-.025c.98 1.993 10.052 2.5 13.237.607.37-.22.589-.439.673-.63l.04.018.002-1.498c-3.43 1.784-10.554 1.718-14.002-.052zm0-4v1.58l.05-.025c.98 1.992 10.052 2.5 13.237.607.37-.22.589-.439.673-.63l.04.018.002-1.498c-3.43 1.784-10.554 1.718-14.002-.052zM12 15v.236l.05-.025c.98 1.992 10.052 2.5 13.237.607.37-.22.589-.439.673-.63l.04.018V15c0-2.667-14-2.667-14 0z" fill-rule="nonzero" fill="#EA1B0A"/>
</svg>
