<svg width="1200" height="1200" viewBox="0 0 1200 1200" xmlns="http://www.w3.org/2000/svg"><path d="M550 895.5C408.35 871.6 300 748.4 300 600s108.35-271.55 250-295.5V59.55a50 50 0 00-59.15-49.15C212 61.9 0 306.45 0 600s212 538.15 490.85 589.6a50 50 0 0059.15-49.2V895.5zm331.1-400.05C893.25 528 900 563.2 900 600c0 148.35-108.35 271.55-250 295.5v244.95a50 50 0 0059.15 49.15C988 1138.15 1200 893.55 1200 600c0-75.35-14.05-147.5-39.55-213.95a50 50 0 00-73.95-24l-205.4 133.4zM830.55 409l205.6-133.5a50 50 0 009.95-75.4A599.85 599.85 0 00709.15 10.45 50 50 0 00650 59.6v244.9a300.05 300.05 0 01171.15 93.7l9.4 10.8z" fill-rule="evenodd"/></svg>