<svg width="1600" height="1200" viewBox="0 0 1600 1200" xmlns="http://www.w3.org/2000/svg"><path d="M800-200c180.4 0 360.75 17.15 541.1 51.5a260.6 260.6 0 01207.45 207.4 2869.1 2869.1 0 010 1082.2 260.6 260.6 0 01-207.5 207.5A2889.25 2889.25 0 01800.1 1400c-180.4 0-360.75-17.15-541.1-51.45A260.75 260.75 0 0151.5 1141.1a2870.4 2870.4 0 010-1082.2A260.7 260.7 0 01259-148.5 2889.3 2889.3 0 01800-200zm424.9 417.65a50 50 0 00-42 16.65l-3.65 4.7-443.8 623.85L408.7 630.5a50 50 0 00-62.9 77.5l4.9 4 367.5 261.35c7 5 14.95 7.9 22.95 8.9l6 .35 6-.35a50 50 0 0031-16l3.8-4.65L1260.7 297a50 50 0 00-35.8-79.35z" fill-rule="evenodd"/></svg>