<svg width="1600" height="1200" viewBox="0 0 1600 1200" xmlns="http://www.w3.org/2000/svg"><path d="M800-200c179.45 0 363.85 15 538.3 49.9 104.7 20 189.45 104.85 209.35 209.7a2803.3 2803.3 0 010 1078.3c-19.9 104.85-104.65 189.7-209.35 209.7a2790.4 2790.4 0 01-1076.6 0c-104.7-20-189.45-104.85-209.35-209.7a2803.3 2803.3 0 010-1078.3C72.25-45.25 157-130.1 261.7-150.1 436.15-185 620.5-200 800-200zm0 99.85l-43.6.3c-159.95 2.35-319.85 17.6-479.75 49.6C219.8-36 167.5 9.75 153.85 69.95l-1.85 9.6-6.9 38.35a2824.5 2824.5 0 006.9 1005c14.25 56.95 59.95 109.35 120 123l47.85 8.8a2811.5 2811.5 0 001003.5-7c59.85-14.95 114.65-64.85 124.65-129.75a2824.35 2824.35 0 000-1043.4c-9.5-57-55.2-109.55-115.5-123.05l-52.75-10.05a2652.45 2652.45 0 00-436.15-41.3l-43.6-.3zm419.65 279.9a49.85 49.85 0 0135.7 79.25L784 922.5a49.85 49.85 0 01-34.65 20.65l-6 .35c-10 0-20.1-3-28.9-9.2l-366.35-261a50 50 0 01-11.7-69.6 49.8 49.8 0 0169.5-11.75l325.75 232 442.45-622.9a49.8 49.8 0 0145.5-21.3z" fill-rule="evenodd"/></svg>