<svg width="1600" height="1200" viewBox="0 0 1600 1200" xmlns="http://www.w3.org/2000/svg"><path d="M800-200c179.45 0 363.85 15 538.3 49.9 104.7 20 189.45 104.85 209.35 209.7a2803.3 2803.3 0 010 1078.3c-19.9 104.85-104.65 189.7-209.35 209.7a2790.4 2790.4 0 01-1076.6 0c-104.7-20-189.45-104.85-209.35-209.7a2803.3 2803.3 0 010-1078.3C72.25-45.25 157-130.1 261.7-150.1 436.15-185 620.5-200 800-200zm0 99.85c-174.5 0-348.9 15-523.35 49.9C219.8-36 167.5 9.75 153.85 69.95l-1.85 9.6-6.9 38.35a2824.5 2824.5 0 006.9 1005c14.25 56.95 59.95 109.35 120 123l47.85 8.8a2811.5 2811.5 0 001003.5-7c59.85-14.95 114.65-64.85 124.65-129.75a2824.35 2824.35 0 000-1043.4c-9.5-57-55.2-109.55-115.5-123.05l-52.75-10.05c-159.9-29-319.85-41.6-479.75-41.6z" fill-rule="evenodd"/></svg>