<svg width="1300" height="1200" viewBox="0 0 1300 1200" xmlns="http://www.w3.org/2000/svg"><path d="M650-50c358.4 0 650 291.6 650 650s-291.6 650-650 650S0 958.4 0 600c0-122.4 33.85-240.1 97-342-20.95 6.3-43 13.7-67.65 22.45a50.027 50.027 0 01-33.3-94.35c66.85-23.55 129.3-43.8 217.4-52.65l1.1-.05.5-.05-1.6.1a50.4 50.4 0 019.9 0l1.8.3A49.85 49.85 0 01266.9 171l.4 1.6c18.7 86.35 18.8 152 17 222.9a50.05 50.05 0 01-50 48.75h-1.2A50 50 0 01184.3 393c.8-31.85 1-59.45-.05-85.6A546.7 546.7 0 00100 600c0 303.25 246.75 550 550 550s550-246.75 550-550S953.25 50 650 50c-77.9 0-153.15 15.95-223.75 47.4a49.9 49.9 0 01-66-25.3 49.9 49.9 0 0125.3-66A645.3 645.3 0 01650-50zm0 250.1a50 50 0 0150 50v331.7l148.85 177.4a50 50 0 11-76.6 64.25L611.75 632.1A48.8 48.8 0 01600 601.85V250.1a50 50 0 0150-50z" fill-rule="evenodd"/></svg>