<svg width="1600" height="1200" viewBox="0 0 1600 1200" xmlns="http://www.w3.org/2000/svg"><path d="M1350 111.75l132.9 265.85h-265.8L1350 111.75zM382.9 677.6H117.1L250 411.75 382.9 677.6zm967.1-27.65a250 250 0 00250-250 49.65 49.65 0 00-5.25-22.35l-200-400a50.65 50.65 0 00-57.9-25.9L923.1 64.5A149.65 149.65 0 00800-.05a149.65 149.65 0 00-148.9 138.8L236.85 251.7a50 50 0 00-31.6 25.9l-200 400A49.65 49.65 0 000 699.95a250 250 0 00250 250 250 250 0 00250-250 49.65 49.65 0 00-5.25-22.35L322 332.1l354.9-96.75c17.75 25.5 43.3 44.85 73.1 55.45v859.15H250a50 50 0 100 100h1100a50 50 0 100-100H850V290.8a149.3 149.3 0 0098.9-129.6l306.35-83.6-150 300a49.5 49.5 0 00-5.25 22.35 250 250 0 00250 250z" fill-rule="evenodd"/></svg>