<svg width="1500" height="1200" viewBox="0 0 1500 1200" xmlns="http://www.w3.org/2000/svg"><path d="M1262.5 735.5v97h-75.25v470.3c0 50.95-39.5 92.8-89.45 96.7l-7.55.3h-680a97.1 97.1 0 01-96.7-89.45l-.3-7.55-.05-470.3h-75.25v-97h1024.5zm-172.25 97H410.2v470.3h680V832.5zm-97.5 276.3v97h-485.5v-97h485.5zm0-194.5v97h-485.5v-97h485.5zM97.25 282.25h1306c51.05 0 93 39.65 96.3 89.75l.2 7.25v561c0 50.95-39.5 92.85-89.45 96.7l-7.55.3h-140.5v-97h140.5v-561H97.25v561h140.5v97H97.25A97.1 97.1 0 01.5 947.8l-.3-7.55v-561c0-50.95 39.45-92.85 89.4-96.7l7.6-.3zm1112 202a53 53 0 110 106 53 53 0 010-106zM751.25-200c116.5.5 273.5 46.5 371.5 93 32.5 16 58.5 32 75 48.5 7.7 8.15 14.7 17 16.85 28.85l.65 6.15v183c0 17.5-7 33-18 44a64.25 64.25 0 01-36.8 17.6l-7.2.4h-124.5c-17.5 0-33-7-44-18a64.25 64.25 0 01-17.6-36.8l-.4-7.2V70l-7.2-2.65-4.3-1.85-15.9-6a1139.5 1139.5 0 00-19.2-6.7l-21.9-7.3c-46-15-103.5-29-149-29-40 0-88.5 11-130.5 23.5l-21.95 6.9-19.95 6.75c-12.5 4.4-23.35 8.5-32 11.85l-11.1 4.5v89.5c0 17.5-7 33-18 44a64.25 64.25 0 01-36.8 17.6l-7.2.4h-124.5c-17 0-32.5-7-44-17.5a64.25 64.25 0 01-17.6-36.8l-.4-7.2V-23c.5-14.5 8-25 17.5-34.5 17-16.5 42.5-32.5 75.5-48.5s72-31.5 114.5-45.5c85-27.5 181-48.5 258.5-48.5z" fill-rule="evenodd"/></svg>