<svg width="1600" height="1200" viewBox="0 0 1600 1200" xmlns="http://www.w3.org/2000/svg"><path d="M155.55-44.45H700V-200H155.55A155.5 155.5 0 000-44.45V500h155.55V-44.45zM616.65 700L300 1100h950l-237.5-320-160.7 216.8L616.65 700zM1200 325c0-69.15-55.85-125-125-125a124.85 124.85 0 00-125 125c0 69.15 55.85 125 125 125s125-55.85 125-125zm244.45-525H900v155.55h544.45V500H1600V-44.45A155.5 155.5 0 001444.45-200zm0 1444.45H900V1400h544.45A155.5 155.5 0 001600 1244.45V700h-155.55v544.45zM155.5 700H0v544.45A155.5 155.5 0 00155.55 1400H700v-155.55H155.55V700z" fill-rule="evenodd"/></svg>