<svg width="1300" height="1200" viewBox="0 0 1300 1200" xmlns="http://www.w3.org/2000/svg"><path d="M1150 25a150 150 0 01150 150v600a150 150 0 01-150 150H950v225a62.5 62.5 0 01-100 50L483.35 925H150A150 150 0 010 775V175A150 150 0 01150 25h1000zm0 100H150a50 50 0 00-50 50v600a50 50 0 0050 50h333.35a100 100 0 0160 20L850 1075V885a60 60 0 0160-60h240a50 50 0 0050-50V175a50 50 0 00-50-50zM400 400a75 75 0 110 150 75 75 0 010-150zm250.15 0a75 75 0 110 150 75 75 0 010-150zm250 0a75 75 0 110 150 75 75 0 010-150z" fill-rule="evenodd"/></svg>