<svg width="1600" height="1200" viewBox="0 0 1600 1200" xmlns="http://www.w3.org/2000/svg"><path d="M1595 603L1303.5 3a50 50 0 00-45-28h-917a50 50 0 00-45 28L5 603a50 50 0 0045 72h200v500a50 50 0 0050 50h1000a50 50 0 0050-50V675h200a50 50 0 0045-72zm-345 72v450H350V575H130L373 75h854l243 500h-220v100zm-204.15-401.15l-7.95-66.25-61.35 26.25c-116.35 50-250.5 113-327.85 203.6a256.65 256.65 0 00-66.6 170.65 335 335 0 0062.45 180.75L560.3 934.7a50 50 0 1086.6 50l84.25-145.85A335 335 0 00918.9 802.5a256.75 256.75 0 00114.5-142.95c39.8-112.3 27.5-260.1 12.45-385.7zm-192.8 353.9l-63.95 110.7a196.5 196.5 0 0080.4-22.85 157.35 157.35 0 0069.65-89.5c23.35-89 28.35-181.9 14.7-272.9A677.35 677.35 0 00725 502.4a157.05 157.05 0 00-42.7 105c.9 28.15 7.85 55.8 20.4 81.05l63.9-110.7a50.02 50.02 0 0186.65 50h-.2z" fill-rule="evenodd"/></svg>