<svg width="1600" height="1200" viewBox="0 0 1600 1200" xmlns="http://www.w3.org/2000/svg"><path d="M1595 603L1303.5 3a50 50 0 00-45-28h-917a50 50 0 00-45 28L5 603a50 50 0 0045 72h200v500a50 50 0 0050 50h1000a50 50 0 0050-50V675h200a50 50 0 0045-72zm-345 72v450H350V575H130L373 75h854l243 500h-220v100zM834.05 363.6a47.7 47.7 0 0113.6 34.15V577.3h179.55a47.75 47.75 0 110 95.45H847.65V852.3a47.75 47.75 0 11-95.45 0V672.75H572.65a47.75 47.75 0 110-95.45H752.2V397.75a48.25 48.25 0 0181.85-34.15z" fill-rule="evenodd"/></svg>