<svg width="1200" height="1200" viewBox="0 0 1200 1200" xmlns="http://www.w3.org/2000/svg"><path d="M1162.35 195c-15.05-80-75.3-140-155.65-155C871.15 15 735.5 0 600 0 464.45 0 328.85 15 193.3 40 113 55 52.7 115 37.65 195c-50.15 270-50.15 545 0 810 15.05 80 75.3 140 155.65 155 135.55 25 271.15 40 406.7 40s271.15-15 406.7-40c80.35-15 140.6-75 155.65-155a2196.7 2196.7 0 000-810zM650 900c0 25-25 50-50 50s-50-25-50-50V550c0-25 25-50 50-50s50 25 50 50v350zm-50-500c-40 0-75-35-75-75s35-75 75-75 75 35 75 75-35 75-75 75z" fill-rule="evenodd"/></svg>