<svg width="1200" height="1200" viewBox="0 0 1200 1200" xmlns="http://www.w3.org/2000/svg"><path d="M865.1 1023.15c59.05-96.8 97.05-226.8 104.25-373.15h128.1c-15.1 151.9-98.8 283.55-219.3 364.65l-13.05 8.5zM102.55 650H230.7c7.15 146.35 45.25 276.35 104.25 373.2-123.1-77.45-210.5-206.55-230.5-357L102.5 650zm232.4-473.2c-59 96.8-97.1 226.85-104.25 373.2H102.55C117.7 398.1 201.4 266.35 321.9 185.3l13.05-8.5zM650 550V109.25C765.2 150.9 857.1 332.2 869.45 550H650zm0 540.75V650h219.45c-12 212.25-99.6 389.85-210.65 437.3l-8.8 3.45zM550 650v440.75c-115.15-41.6-207.05-222.9-219.4-440.75H550zm0-540.7V550H330.6c12-212.2 99.6-389.8 210.6-437.25l8.8-3.45zM1097.45 550h-128.1c-7.15-146.35-45.2-276.35-104.25-373.15 123.1 77.4 210.5 206.55 230.5 357l1.85 16.15zM600 0C269.2 0 0 269.15 0 600s269.2 600 600 600c330.85 0 600-269.15 600-600C1200 274.25 939.05 8.3 615.25.2L600 0z" fill-rule="evenodd"/></svg>