<svg width="1300" height="1200" viewBox="0 0 1300 1200" xmlns="http://www.w3.org/2000/svg"><path d="M1100 0c110 0 200 90 200 200v550c0 110-90 200-200 200H950v250a50 50 0 01-80.1 39.95L485 950H200C90 950 0 860 0 750V200C0 90 90 0 200 0h900zM925 250H725a25 25 0 00-25 25v200a25 25 0 0025 25h74.95l-90.9 181.9a12.5 12.5 0 0011.2 18.1h67.25a25 25 0 0020-10L945 506.65a25 25 0 004.95-15L950 275a25 25 0 00-25-25zm-350 0H375a25 25 0 00-25 25v200a25 25 0 0025 25h74.95l-90.9 181.9a12.5 12.5 0 0011.2 18.1h67.25a25 25 0 0020-10L595 506.65a25 25 0 004.95-15L600 275a25 25 0 00-25-25z" fill-rule="evenodd"/></svg>