<svg width="1100" height="1200" viewBox="0 0 1100 1200" xmlns="http://www.w3.org/2000/svg"><path d="M900.95 761.15C839.65 748.4 792.3 707 764.2 652l-5-10.5a39 39 0 01-5.05-17.8c0-32.3 88.75-25.8 88.75-71.65 0-19.35-23.65-31.5-40.85-31.5-15.6 0-28.55 11.4-45.15 11.4a34.8 34.8 0 01-8.5-1.4c2.2-27.25 3.5-55.15 3.5-82.3 0-24.4-1.3-58.8-12.1-81.7-34.4-74.5-100.25-118.1-182.6-118.1-89.55 0-157.5 33.65-197 118.1-10.7 22.9-12.85 57.3-12.85 82.35 0 27.25 2.15 54.4 4.3 81.65-3.55.75-7.2 1.4-10.7 1.4-15.85 0-29.4-11.45-44.4-11.45-17.95 0-39.3 12.2-39.3 32.3 0 44.35 88.7 38.6 88.7 70.9a40.4 40.4 0 01-5 17.85c-27.9 60.2-75.9 105.3-141.8 119.6a18.7 18.7 0 00-15.8 19.35c0 33.7 75.9 45.8 98.9 49.4 6.3 17.2 3.5 47.25 28.5 47.25 18.65 0 36.6-7.15 55.2-7.15 75.9 0 96 68 183.35 68 91 0 108.2-68 184.75-68 18.6 0 37.3 6.4 55.9 6.4 24.3 0 22.25-30 27.9-46.5l15.3-2.55 12.5-2.5c30.7-6.7 71-19.8 71-44.35 0-8.6-4.15-15.1-11.7-18.1l-4-1.25zM1100 943.75A206.3 206.3 0 01893.75 1150h-687.4A206.35 206.35 0 010 943.75v-687.5A206.35 206.35 0 01206.35 50h687.4A206.3 206.3 0 011100 256.25v687.5z" fill-rule="evenodd"/></svg>