<svg width="1200" height="1200" viewBox="0 0 1200 1200" xmlns="http://www.w3.org/2000/svg"><path d="M769.6 675.9c-13.65-4.95-23.5-7.4-33.45 7.5-9.9 14.85-38.4 48.3-47 58.2-8.7 9.95-17.4 11.2-32.25 3.75-14.85-7.45-62.7-23.15-119.5-73.75-44.15-39.4-74-88.05-82.65-102.95-8.65-14.85-.9-22.9 6.5-30.3 6.7-6.65 14.9-17.35 22.35-26 7.4-8.7 9.9-14.9 14.85-24.8 4.95-9.95 2.5-18.6-1.25-26.05-3.7-7.45-33.45-80.6-45.8-110.35-12.05-28.95-24.3-25-33.45-25.5-8.65-.4-18.55-.5-28.5-.5-9.85 0-26 3.7-39.6 18.6-13.6 14.85-52 50.8-52 123.95 0 73.1 53.25 143.75 60.7 153.7 7.4 9.9 104.75 160 253.8 224.35 35.45 15.3 63.1 24.45 84.7 31.3 35.6 11.3 68 9.7 93.6 5.85 28.5-4.25 87.9-35.9 100.25-70.65 12.4-34.7 12.4-64.45 8.7-70.65-3.75-6.2-13.65-9.9-28.5-17.35-14.85-7.4-87.9-43.35-101.5-48.35zm-421.35 349.65l-18-10.75-187.1 49.1 49.95-182.4-11.75-18.7a493.05 493.05 0 01-75.6-263c.1-272.5 221.85-494.2 494.45-494.2 132 0 256.1 51.5 349.4 144.95a491.25 491.25 0 01144.65 349.65c-.1 272.5-221.85 494.2-494.25 494.2a493.65 493.65 0 01-251.75-68.85zM600 5.15C272.25 5.15 5.5 271.9 5.35 599.75c0 104.8 27.35 207.1 79.4 297.25L.4 1205.15l315.2-82.7a594.1 594.1 0 00284.15 72.4c328 0 594.75-266.75 594.9-594.65a591.05 591.05 0 00-174-420.65A590.75 590.75 0 00600 5.15z" fill-rule="evenodd"/></svg>