<svg width="1200" height="1200" viewBox="0 0 1200 1200" xmlns="http://www.w3.org/2000/svg"><path d="M1150 825.1a50 50 0 0150 50v200c0 110.3-89.7 200-200 200H200c-110.3 0-200-89.7-200-200v-200a50 50 0 11100 0v200c0 55.15 44.85 100 100 100h800c55.15 0 100-44.85 100-100v-200a50 50 0 0150-50zM548.65-58a85.35 85.35 0 01102.25 0c121.25 89.5 251.9 223.75 388.35 399.05a50 50 0 11-78.9 61.4c-102-131-199.85-237.35-292-317.8L650 68.9v756.2a50 50 0 01-99.65 5.85l-.35-5.85V68.6c-97.7 82.2-201.9 194-310.75 333.9a50 50 0 11-78.9-61.4C296.65 166 427.3 31.65 548.65-58z" fill-rule="evenodd"/></svg>