<?xml version="1.0" encoding="UTF-8"?>
<svg width="96px" height="96px" viewBox="0 0 96 96" version="1.1" xmlns="http://www.w3.org/2000/svg" xmlns:xlink="http://www.w3.org/1999/xlink">
    <title>pictograms/Marketing &amp; Payment/assessed_home</title>
    <g id="Symbols" stroke="none" stroke-width="1" fill="none" fill-rule="evenodd">
        <g id="pictograms/Marketing-&amp;-Payment/assessed-home" fill="#39393A">
            <path d="M66.89,49.55 L59.39,34.55 C59.2205498,34.2137203 58.8765582,34.0011413 58.5,34 L37.5,34 C37.1234418,34.0011413 36.7794502,34.2137203 36.61,34.55 L29.11,49.55 C28.9540308,49.8595182 28.9694547,50.2277279 29.1507631,50.5231178 C29.3320714,50.8185078 29.6534068,50.9989511 30,51 L35,51 L35,62 C35,62.5522847 35.4477153,63 36,63 L60,63 C60.5522847,63 61,62.5522847 61,62 L61,51 L66,51 C66.3465932,50.9989511 66.6679286,50.8185078 66.8492369,50.5231178 C67.0305453,50.2277279 67.0459692,49.8595182 66.89,49.55 Z M58.1,43 L49.1,56.5 C48.7570158,56.9959784 48.2292967,57.3335234 47.6352084,57.4369249 C47.0411202,57.5403263 46.430389,57.4009292 45.94,57.05 L39.94,52.55 C38.929319,51.826507 38.6965071,50.4206811 39.4200001,49.41 C40.1434931,48.399319 41.5493189,48.166507 42.56,48.89 L46.7,52.06 L54.4,40.44 C54.8508331,39.7629911 55.631957,39.3820107 56.4430079,39.4435562 C57.2540589,39.5051017 57.968749,39.99959 58.3122602,40.7368766 C58.6557713,41.4741633 58.5746157,42.3394461 58.1,43 Z" id="â—-Pictogram"></path>
        </g>
    </g>
</svg>