<?xml version="1.0" encoding="UTF-8"?>
<svg width="96px" height="96px" viewBox="0 0 96 96" version="1.1" xmlns="http://www.w3.org/2000/svg" xmlns:xlink="http://www.w3.org/1999/xlink">
    <title>pictograms/Marketing &amp; Payment/checkmark_solid</title>
    <g id="Symbols" stroke="none" stroke-width="1" fill="none" fill-rule="evenodd">
        <g id="pictograms/Marketing-&amp;-Payment/checkmark-solid" fill="#39393A">
            <path d="M31.7676115,25.5438472 C28.610371,26.1445354 26.1444814,28.6104189 25.5437916,31.7676516 C23.4854028,42.5892963 23.4854028,53.4107037 25.5437916,64.2323484 C26.1444814,67.3895811 28.610371,69.8554646 31.7676115,70.4561528 C37.1783286,71.485226 42.5892829,72 48,72 C53.4107171,72 58.8216714,71.485226 64.2323886,70.4561528 C67.3896291,69.8554646 69.8555186,67.3895811 70.4562084,64.2323484 C72.5145972,53.4107037 72.5145972,42.5892963 70.4562084,31.7676516 C69.8555186,28.6104189 67.3896291,26.1445354 64.2323886,25.5438472 C58.8216714,24.5145366 53.4107171,24 48,24 C42.5892829,24 37.1783286,24.5145366 31.7676115,25.5438472 Z M61.2928932,39.2928932 C61.6834175,38.9023689 62.3165825,38.9023689 62.7071068,39.2928932 C63.0675907,39.6533772 63.0953203,40.2206082 62.7902954,40.6128994 L62.7071068,40.7071068 L44,59.4142136 L34.2928932,49.7071068 C33.9023689,49.3165825 33.9023689,48.6834175 34.2928932,48.2928932 C34.6533772,47.9324093 35.2206082,47.9046797 35.6128994,48.2097046 L35.7071068,48.2928932 L44,56.585 L61.2928932,39.2928932 Z" id="â—-Pictogram"></path>
        </g>
    </g>
</svg>