<?xml version="1.0" encoding="UTF-8"?>
<svg width="96px" height="96px" viewBox="0 0 96 96" version="1.1" xmlns="http://www.w3.org/2000/svg" xmlns:xlink="http://www.w3.org/1999/xlink">
    <title>pictograms/Marketing &amp; Payment/coin_03</title>
    <g id="Symbols" stroke="none" stroke-width="1" fill="none" fill-rule="evenodd">
        <g id="pictograms/Marketing-&amp;-Payment/coin_03" fill="#39393A">
            <path d="M55.0029,29.9976 C45.7659,29.9976 41.0029,27.8306 41.0029,26.9066 C41.0029,25.9826 45.7659,23.8156 55.0029,23.8156 C64.2399,23.8156 69.0029,25.9826 69.0029,26.9066 C69.0029,27.8306 64.2399,29.9976 55.0029,29.9976 L55.0029,29.9976 Z M55.0029,36.8156 C45.7659,36.8156 41.0029,34.6486 41.0029,33.7246 L41.0029,29.5396 C43.9239,31.2116 49.6019,31.9976 55.0029,31.9976 C60.4039,31.9976 66.0819,31.2116 69.0029,29.5396 L69.0029,33.7246 C69.0029,34.6486 64.2399,36.8156 55.0029,36.8156 L55.0029,36.8156 Z M55.0029,43.6336 C45.7659,43.6336 41.0029,41.4676 41.0029,40.5426 L41.0029,36.3566 C43.9239,38.0296 49.6019,38.8156 55.0029,38.8156 C60.4039,38.8156 66.0819,38.0296 69.0029,36.3566 L69.0029,40.5426 C69.0029,41.4676 64.2399,43.6336 55.0029,43.6336 L55.0029,43.6336 Z M55.7209,50.4416 C54.3469,47.7866 47.6109,46.4956 41.0029,46.3766 L41.0029,43.1756 C43.9239,44.8476 49.6019,45.6336 55.0029,45.6336 C60.4039,45.6336 66.0819,44.8476 69.0029,43.1756 L69.0029,47.3616 C69.0029,48.2616 64.4789,50.3306 55.7209,50.4416 L55.7209,50.4416 Z M55.9929,57.2556 L55.9929,52.4396 C61.0879,52.3496 66.2599,51.5646 69.0029,49.9946 L69.0029,54.1796 C69.0029,55.0706 64.5719,57.1066 55.9929,57.2556 L55.9929,57.2556 Z M55.9929,64.0736 L55.9929,59.2576 C61.0879,59.1676 66.2599,58.3826 69.0029,56.8126 L69.0029,60.9976 C69.0029,61.8876 64.5719,63.9236 55.9929,64.0736 L55.9929,64.0736 Z M55.9929,70.8916 L55.9929,66.0756 C61.0879,65.9856 66.2599,65.2006 69.0029,63.6296 L69.0029,67.8156 C69.0029,68.7056 64.5719,70.7426 55.9929,70.8916 L55.9929,70.8916 Z M39.9929,74.9996 C30.7559,74.9996 25.9929,72.8336 25.9929,71.9096 L25.9929,67.7236 C28.9139,69.3956 34.5919,70.1816 39.9929,70.1816 C45.3949,70.1816 51.0719,69.3956 53.9929,67.7236 L53.9929,71.9096 C53.9929,72.8336 49.2309,74.9996 39.9929,74.9996 L39.9929,74.9996 Z M25.9929,60.9056 C28.9139,62.5776 34.5919,63.3636 39.9929,63.3636 C45.3949,63.3636 51.0719,62.5776 53.9929,60.9056 L53.9929,65.0906 C53.9929,66.0156 49.2309,68.1816 39.9929,68.1816 C30.7559,68.1816 25.9929,66.0156 25.9929,65.0906 L25.9929,60.9056 Z M25.9929,54.0866 C28.9139,55.7596 34.5919,56.5456 39.9929,56.5456 C45.3949,56.5456 51.0719,55.7596 53.9929,54.0866 L53.9929,58.2726 C53.9929,59.1976 49.2309,61.3636 39.9929,61.3636 C30.7559,61.3636 25.9929,59.1976 25.9929,58.2726 L25.9929,54.0866 Z M39.9929,48.3636 C49.2309,48.3636 53.9929,50.5296 53.9929,51.4546 C53.9929,52.3786 49.2309,54.5456 39.9929,54.5456 C30.7559,54.5456 25.9929,52.3786 25.9929,51.4546 C25.9929,50.5296 30.7559,48.3636 39.9929,48.3636 L39.9929,48.3636 Z M55.0029,21.8156 C47.2969,21.8156 39.0029,23.4086 39.0029,26.9066 L39.0029,46.3756 C31.5939,46.5066 23.9929,48.1056 23.9929,51.4546 L23.9929,71.9096 C23.9929,75.4076 32.2869,76.9996 39.9929,76.9996 C46.9289,76.9996 54.3179,75.7056 55.7319,72.8966 C63.2239,72.7996 71.0029,71.2036 71.0029,67.8156 L71.0029,26.9066 C71.0029,23.4086 62.7089,21.8156 55.0029,21.8156 L55.0029,21.8156 Z" id="â—-Pictogram"></path>
        </g>
    </g>
</svg>