<?xml version="1.0" encoding="UTF-8"?>
<svg width="96px" height="96px" viewBox="0 0 96 96" version="1.1" xmlns="http://www.w3.org/2000/svg" xmlns:xlink="http://www.w3.org/1999/xlink">
    <title>pictograms/Marketing &amp; Payment/coins3</title>
    <g id="Symbols" stroke="none" stroke-width="1" fill="none" fill-rule="evenodd">
        <g id="pictograms/Marketing-&amp;-Payment/coins3" fill="#39393A">
            <path d="M39.94,56.42 L30.86,56.42 L30.86,54.8 L35.32,50 C35.9422712,49.3749011 36.4771209,48.6684958 36.91,47.9 C37.3479347,48.5107768 37.825636,49.0920358 38.34,49.64 C37.875357,50.2403104 37.3779338,50.8145171 36.85,51.36 L33.85,54.55 L39.91,54.55 L39.94,56.42 Z M30.73,46.32 L33,46.32 C33,44.95 33.58,44 34.77,43.81 C34.5390255,43.1853768 34.3453512,42.5475873 34.19,41.9 C31.88,42.27 30.73,44 30.73,46.32 L30.73,46.32 Z M47.85,54.74 C45.3188999,60.3986882 39.1444962,63.4830359 33.0999009,62.108231 C27.0553057,60.733426 22.8223136,55.2819821 22.9876611,49.0852184 C23.1530085,42.8884547 27.6706906,37.6705039 33.78,36.62 C33.8312201,35.9282641 33.9247283,35.2403114 34.06,34.56 C26.8161925,35.505271 21.3067749,41.5315187 21.0130765,48.8308355 C20.7193782,56.1301523 25.72682,62.5795607 32.8712648,64.1037635 C40.0157095,65.6279663 47.2192235,61.783655 49.93,55 C49.2319785,54.9562023 48.5373249,54.8693706 47.85,54.74 L47.85,54.74 Z M59.06,65.2 C57.47,65.2 56.53,64.41 56.53,63.2 L54.28,63.2 C54.28,65.39 55.75,67.09 59.06,67.09 C62.06,67.09 63.97,65.43 63.97,63.03 C64.0156281,61.3335926 62.8410624,59.8474933 61.18,59.5 C62.6985951,59.1537208 63.7642314,57.787199 63.73,56.23 C63.73,54.14 62.23,52.57 59.73,52.31 C58.2101512,53.2748891 56.5458144,53.9905877 54.8,54.43 C54.5436492,54.9671761 54.4104109,55.5547911 54.41,56.15 L56.68,56.15 C56.68,55.04 57.47,54.21 59,54.21 C59.6039341,54.1335958 60.2110266,54.3255939 60.6612023,54.7353693 C61.1113781,55.1451446 61.3594472,55.7315628 61.34,56.34 C61.34,57.81 60.26,58.57 58.58,58.57 L57.28,58.57 L57.28,60.44 L58.64,60.44 C60.51,60.44 61.64,61.44 61.64,62.91 C61.6520751,63.5732806 61.3733987,64.2086523 60.8772563,64.6490268 C60.3811139,65.0894012 59.7171603,65.2907051 59.06,65.2 L59.06,65.2 Z M65.83,45.73 C65.5312225,46.3291865 65.1973075,46.9101986 64.83,47.47 C69.2479903,49.6040693 72.0399249,54.0937493 72,59 C72.112751,65.5051507 67.3707848,71.0793304 60.9316813,72.0108049 C54.4925778,72.9422795 48.3653519,68.9404268 46.63,62.67 C46.0820799,63.1083001 45.5076568,63.5124001 44.91,63.88 C47.0839154,70.2629211 53.2616172,74.4005849 59.9915295,73.9812157 C66.7214417,73.5618466 72.3376765,68.6892528 73.7023579,62.0858269 C75.0670392,55.4824009 71.842361,48.7827209 65.83,45.73 L65.83,45.73 Z M65.71,38 C65.71,46.2842712 58.9942712,53 50.71,53 C42.4257288,53 35.71,46.2842712 35.71,38 C35.71,29.7157288 42.4257288,23 50.71,23 C54.6882473,23 58.503556,24.5803526 61.3166017,27.3933983 C64.1296474,30.206444 65.71,34.0217527 65.71,38 Z M63.71,38 C63.71,30.8202983 57.8897017,25 50.71,25 C43.5302983,25 37.71,30.8202983 37.71,38 C37.71,45.1797017 43.5302983,51 50.71,51 C57.8897017,51 63.71,45.1797017 63.71,38 L63.71,38 Z M46.07,32.56 L46.64,34.33 L50.45,32.8 L50.45,45 L52.7,45 L52.7,30.63 L50.7,30.63 L46.07,32.56 Z" id="â—-Pictogram"></path>
        </g>
    </g>
</svg>