<?xml version="1.0" encoding="UTF-8"?>
<svg width="96px" height="96px" viewBox="0 0 96 96" version="1.1" xmlns="http://www.w3.org/2000/svg" xmlns:xlink="http://www.w3.org/1999/xlink">
    <title>pictograms/Marketing &amp; Payment/coin_04</title>
    <g id="Symbols" stroke="none" stroke-width="1" fill="none" fill-rule="evenodd">
        <g id="pictograms/Marketing-&amp;-Payment/coin_04" fill="#39393A">
            <path d="M68.045,67.363 C58.833,67.363 54.084,65.197 54.084,64.272 L54.084,60.087 C56.996,61.759 62.659,62.546 68.045,62.546 C73.431,62.546 79.093,61.759 82.006,60.087 L82.006,64.272 C82.006,65.197 77.256,67.363 68.045,67.363 L68.045,67.363 Z M68.045,74.181 C58.833,74.181 54.084,72.015 54.084,71.091 L54.084,66.905 C56.996,68.577 62.659,69.363 68.045,69.363 C73.431,69.363 79.093,68.577 82.006,66.905 L82.006,71.091 C82.006,72.015 77.256,74.181 68.045,74.181 L68.045,74.181 Z M68.045,81 C58.833,81 54.084,78.834 54.084,77.909 L54.084,73.723 C56.996,75.395 62.659,76.181 68.045,76.181 C73.431,76.181 79.093,75.395 82.006,73.723 L82.006,77.909 C82.006,78.834 77.256,81 68.045,81 L68.045,81 Z M45.91,66.62 C48.082,66.582 50.176,66.415 52.09,66.134 L52.09,70.931 C50.194,71.223 48.097,71.402 45.91,71.442 L45.91,66.62 Z M29.955,75.545 C20.744,75.545 15.994,73.379 15.994,72.454 L15.994,68.268 C18.907,69.94 24.569,70.726 29.955,70.726 C35.342,70.726 41.004,69.939 43.916,68.266 L43.916,72.454 C43.916,73.379 39.167,75.545 29.955,75.545 L29.955,75.545 Z M15.994,61.45 C18.907,63.122 24.569,63.908 29.955,63.908 C35.342,63.908 41.004,63.121 43.916,61.448 L43.916,64.891 L43.916,65.635 C43.916,66.56 39.167,68.726 29.955,68.726 C20.744,68.726 15.994,66.56 15.994,65.635 L15.994,61.45 Z M15.994,54.632 C18.907,56.303 24.569,57.09 29.955,57.09 C35.341,57.09 41.004,56.303 43.916,54.632 L43.916,58.073 L43.916,58.817 C43.916,59.742 39.167,61.908 29.955,61.908 C20.744,61.908 15.994,59.742 15.994,58.817 L15.994,54.632 Z M15.994,47.813 C18.907,49.486 24.569,50.271 29.955,50.271 C35.341,50.271 41.004,49.486 43.916,47.813 L43.916,51.999 C43.916,52.924 39.167,55.09 29.955,55.09 C20.744,55.09 15.994,52.924 15.994,51.999 L15.994,47.813 Z M15.994,40.995 C18.907,42.667 24.569,43.453 29.955,43.453 C35.341,43.453 41.004,42.667 43.916,40.995 L43.916,45.181 C43.916,46.105 39.167,48.272 29.955,48.272 C20.744,48.272 15.994,46.105 15.994,45.181 L15.994,40.995 Z M29.955,35.272 C39.167,35.272 43.916,37.438 43.916,38.363 C43.916,39.287 39.167,41.453 29.955,41.453 C20.744,41.453 15.994,39.287 15.994,38.363 C15.994,37.438 20.744,35.272 29.955,35.272 L29.955,35.272 Z M30.962,23.265 C33.875,24.937 39.537,25.723 44.923,25.723 C50.309,25.723 55.972,24.937 58.884,23.265 L58.884,27.451 C58.884,28.375 54.135,30.542 44.923,30.542 C35.712,30.542 30.962,28.375 30.962,27.451 L30.962,23.265 Z M44.923,17.542 C54.135,17.542 58.884,19.708 58.884,20.633 C58.884,21.557 54.135,23.723 44.923,23.723 C35.712,23.723 30.962,21.557 30.962,20.633 C30.962,19.708 35.712,17.542 44.923,17.542 L44.923,17.542 Z M45.639,37.349 C44.268,34.695 37.552,33.404 30.962,33.285 L30.962,30.083 C33.875,31.756 39.537,32.542 44.923,32.542 C50.309,32.542 55.972,31.756 58.884,30.083 L58.884,34.269 C58.884,35.169 54.372,37.239 45.639,37.349 L45.639,37.349 Z M45.91,44.163 L45.91,39.347 C50.99,39.258 56.149,38.472 58.884,36.901 L58.884,41.087 C58.884,41.977 54.466,44.014 45.91,44.163 L45.91,44.163 Z M45.91,50.982 L45.91,46.165 C50.99,46.075 56.149,45.29 58.884,43.719 L58.884,47.905 C58.884,48.796 54.466,50.833 45.91,50.982 L45.91,50.982 Z M52.114,57.289 C50.213,57.583 48.106,57.755 45.91,57.795 L45.91,52.983 C50.99,52.893 56.149,52.108 58.884,50.538 L58.884,53.199 C55.07,53.979 52.268,55.323 52.114,57.289 L52.114,57.289 Z M45.91,59.801 C48.082,59.763 50.176,59.596 52.09,59.316 L52.09,64.111 C50.194,64.402 48.096,64.573 45.91,64.613 L45.91,59.801 Z M82.006,57.454 C82.006,58.379 77.256,60.546 68.045,60.546 C58.833,60.546 54.084,58.379 54.084,57.454 C54.084,56.529 58.833,54.363 68.045,54.363 C77.256,54.363 82.006,56.529 82.006,57.454 L82.006,57.454 Z M68.045,52.363 C65.621,52.363 63.141,52.522 60.878,52.849 L60.878,20.633 C60.878,17.135 52.607,15.542 44.923,15.542 C37.238,15.542 28.968,17.135 28.968,20.633 L28.968,33.284 C21.579,33.415 14,35.014 14,38.363 L14,72.454 C14,75.952 22.271,77.545 29.955,77.545 C36.874,77.545 44.246,76.248 45.651,73.438 C47.915,73.409 50.101,73.242 52.09,72.951 L52.09,77.909 C52.09,81.407 60.36,83 68.045,83 C75.73,83 84,81.407 84,77.909 L84,57.454 C84,53.956 75.73,52.363 68.045,52.363 L68.045,52.363 Z" id="â—-Pictogram"></path>
        </g>
    </g>
</svg>