<?xml version="1.0" encoding="UTF-8"?>
<svg width="96px" height="96px" viewBox="0 0 96 96" version="1.1" xmlns="http://www.w3.org/2000/svg" xmlns:xlink="http://www.w3.org/1999/xlink">
    <title>pictograms/Marketing &amp; Payment/coins1</title>
    <g id="Symbols" stroke="none" stroke-width="1" fill="none" fill-rule="evenodd">
        <g id="pictograms/Marketing-&amp;-Payment/coins1" fill="#39393A">
            <path d="M54,37 C53.74,37 53.49,37 53.24,37 C50.2090058,31.8775607 43.6533726,30.0951582 38.4459259,32.9776586 C33.2384792,35.860159 31.2683755,42.3618493 34,47.65 C31.6291689,51.0214705 31.3420053,55.435414 33.2560164,59.085649 C35.1700275,62.735884 38.9640212,65.0098611 43.0854989,64.9770711 C47.2069766,64.944281 50.9643093,62.6102264 52.82,58.93 C56.8789661,59.3896104 60.8583616,57.5621119 63.1548163,54.1838367 C65.451271,50.8055616 65.6865522,46.4329214 63.7658607,42.8277318 C61.8451693,39.2225423 58.0848487,36.9785885 54,37 L54,37 Z M44,34 C46.7297297,34.0162662 49.3045529,35.270573 51,37.41 C48.0163751,38.2569346 45.5289332,40.3240726 44.1502841,43.1023171 C42.771635,45.8805616 42.6299052,49.111713 43.76,52 C38.7894373,51.9337257 34.813726,47.8505627 34.8800002,42.88 C34.9462744,37.9094373 39.0294373,33.9337259 44,34 L44,34 Z M43,63 C38.0294373,63 34,58.9705627 34,54 C34.0005627,52.4412686 34.4109482,50.9100823 35.19,49.56 C37.2611131,52.3477611 40.5270932,53.9937261 44,54 C44.26,54 44.51,54 44.76,54 C46.1606895,56.1790608 48.2854667,57.7938915 50.76,58.56 C49.1433011,61.3109686 46.1908531,63.0002559 43,63 L43,63 Z" id="â—-Pictogram"></path>
        </g>
    </g>
</svg>