<?xml version="1.0" encoding="UTF-8"?>
<svg width="96px" height="96px" viewBox="0 0 96 96" version="1.1" xmlns="http://www.w3.org/2000/svg" xmlns:xlink="http://www.w3.org/1999/xlink">
    <title>pictograms/Marketing &amp; Payment/graph_up_and_down</title>
    <g id="Symbols" stroke="none" stroke-width="1" fill="none" fill-rule="evenodd">
        <g id="pictograms/Marketing-&amp;-Payment/graph-up-and-down" fill="#39393A">
            <path d="M70,66 C70,66.5522847 69.5522847,67 69,67 L28,67 C27.4477153,67 27,66.5522847 27,66 L27,30 C27,29.4477153 27.4477153,29 28,29 C28.5522847,29 29,29.4477153 29,30 L29,65 L69,65 C69.5522847,65 70,65.4477153 70,66 Z M32,62 L67,62 L67,43 L62,46 L56,35 L49,48 L43,42 L37.83,46 L32,38 L32,62 Z" id="â—-Pictogram"></path>
        </g>
    </g>
</svg>