<?xml version="1.0" encoding="UTF-8"?>
<svg width="96px" height="96px" viewBox="0 0 96 96" version="1.1" xmlns="http://www.w3.org/2000/svg" xmlns:xlink="http://www.w3.org/1999/xlink">
    <title>pictograms/Marketing &amp; Payment/home_being_assessed</title>
    <g id="Symbols" stroke="none" stroke-width="1" fill="none" fill-rule="evenodd">
        <g id="pictograms/Marketing-&amp;-Payment/home-being-assessed" fill="#39393A">
            <path d="M73.6,63.69 L64.89,55 C68.7234598,51.007557 70.1357797,45.2732611 68.5949526,39.9571661 C67.0541254,34.6410711 62.7942395,30.5508182 57.4199526,29.2271661 C52.0456657,27.903514 46.3734598,29.547557 42.54,33.54 C41.5164815,34.5666679 40.6413624,35.7312495 39.94,37 L29.5,37 C29.1234418,37.0011413 28.7794502,37.2137203 28.61,37.55 L21.11,52.55 C20.9540308,52.8595182 20.9694547,53.2277279 21.1507631,53.5231178 C21.3320714,53.8185078 21.6534068,53.9989511 22,54 L27,54 L27,65 C27,65.5522847 27.4477153,66 28,66 L52,66 C52.5522847,66 53,65.5522847 53,65 L53,60 L53.5,60 C57.1588608,60.0171977 60.7041549,58.730256 63.5,56.37 L72.23,65.1 C72.4743899,65.3853762 72.8581184,65.5096819 73.223419,65.4218101 C73.5887195,65.3339383 73.8739383,65.0487195 73.9618101,64.683419 C74.0496819,64.3181184 73.9253762,63.9343899 73.64,63.69 L73.6,63.69 Z M51.5,52 L51.5,57.84 C46.9279653,57.1598219 43.0225217,54.186108 41.1506649,49.9597271 C39.2788081,45.7333462 39.7012024,40.8428404 42.27,37 L50.5,37 L58,52 L51.5,52 Z M63,54 C60.479243,56.5561593 57.0400077,57.9966767 53.45,58 L53.45,54 L58,54 C58.6920863,53.9996328 59.3347954,53.6414847 59.6992185,53.0531146 C60.0636415,52.4647444 60.0979786,51.7297845 59.79,51.11 L52.29,36.11 C51.95227,35.4303423 51.258944,35.0004027 50.5,35 L43.91,35 L43.91,35 C47.2125423,31.1808116 52.3702341,29.5237362 57.2792371,30.7046999 C62.1882402,31.8856635 66.0279256,35.7072468 67.2320742,40.6106142 C68.4362228,45.5139816 66.8035392,50.6794465 63,54 Z" id="â—-Pictogram"></path>
        </g>
    </g>
</svg>