<?xml version="1.0" encoding="UTF-8"?>
<svg width="96px" height="96px" viewBox="0 0 96 96" version="1.1" xmlns="http://www.w3.org/2000/svg" xmlns:xlink="http://www.w3.org/1999/xlink">
    <title>pictograms/Marketing &amp; Payment/moving_home</title>
    <g id="Symbols" stroke="none" stroke-width="1" fill="none" fill-rule="evenodd">
        <g id="pictograms/Marketing-&amp;-Payment/moving-home" fill="#39393A">
            <path d="M71.85,48.53 C71.6668845,48.8229855 71.3455015,49.0006914 71,49 L66,49 L66,60 C66,60.5522847 65.5522847,61 65,61 L41,61 C40.4477153,61 40,60.5522847 40,60 L40,49 L35,49 C34.6534068,48.9989511 34.3320714,48.8185078 34.1507631,48.5231178 C33.9694547,48.2277279 33.9540308,47.8595182 34.11,47.55 L41.61,32.55 C41.7794502,32.2137203 42.1234418,32.0011413 42.5,32 L63.5,32 C63.8765582,32.0011413 64.2205498,32.2137203 64.39,32.55 L71.89,47.55 C72.0487824,47.8612237 72.0336179,48.2327518 71.85,48.53 Z M19,46 L29.5,46 C30.0522847,46 30.5,45.5522847 30.5,45 C30.5,44.4477153 30.0522847,44 29.5,44 L19,44 C18.4477153,44 18,44.4477153 18,45 C18,45.5522847 18.4477153,46 19,46 Z M34,53 L26.5,53 C25.9477153,53 25.5,53.4477153 25.5,54 C25.5,54.5522847 25.9477153,55 26.5,55 L34,55 C34.5522847,55 35,54.5522847 35,54 C35,53.4477153 34.5522847,53 34,53 Z M29.5,59 L14.5,59 C13.9477153,59 13.5,59.4477153 13.5,60 C13.5,60.5522847 13.9477153,61 14.5,61 L29.5,61 C30.0522847,61 30.5,60.5522847 30.5,60 C30.5,59.4477153 30.0522847,59 29.5,59 Z M62.5,63 C61.1192881,63 60,64.1192881 60,65.5 C60,66.8807119 61.1192881,68 62.5,68 C63.8807119,68 65,66.8807119 65,65.5 C65,64.1192881 63.8807119,63 62.5,63 L62.5,63 Z M43.5,63 C42.1192881,63 41,64.1192881 41,65.5 C41,66.8807119 42.1192881,68 43.5,68 C44.8807119,68 46,66.8807119 46,65.5 C46,64.1192881 44.8807119,63 43.5,63 L43.5,63 Z" id="â—-Pictogram"></path>
        </g>
    </g>
</svg>