<?xml version="1.0" encoding="UTF-8"?>
<svg width="96px" height="96px" viewBox="0 0 96 96" version="1.1" xmlns="http://www.w3.org/2000/svg" xmlns:xlink="http://www.w3.org/1999/xlink">
    <title>pictograms/Marketing &amp; Payment/payment</title>
    <g id="Symbols" stroke="none" stroke-width="1" fill="none" fill-rule="evenodd">
        <g id="pictograms/Marketing-&amp;-Payment/payment" fill="#39393A">
            <path d="M38.24,49.93 L31.68,50.74 L31.43,50.74 C30.4127487,50.7473478 29.5520468,49.9899301 29.43,48.98 L28.11,38.08 L63.84,33.69 L65,43.63 C65.7310764,43.8565349 66.4405416,44.1476834 67.12,44.5 L64.7,24.5 C64.4512381,22.4841116 62.7311215,20.9747093 60.7,20.99 L60.7,20.99 C60.5368201,20.9799864 60.3731799,20.9799864 60.21,20.99 L28.45,24.89 C27.3946638,25.0268263 26.4373514,25.5785412 25.7898773,26.4230726 C25.1424032,27.267604 24.8581459,28.3353278 25,29.39 L27.44,49.24 C27.5699244,50.2929236 28.1128163,51.2511042 28.9492365,51.9037371 C29.7856568,52.5563699 30.8470845,52.8499902 31.9,52.72 L38.23,51.94 C38.23,51.54 38.17,51.15 38.17,50.75 C38.17,50.35 38.22,50.2 38.24,49.93 Z M27.33,31.75 L27,29.14 C26.9350049,28.6135423 27.081815,28.0828284 27.4081315,27.6646183 C27.7344479,27.2464081 28.2135382,26.9749622 28.74,26.91 L60.52,22.999947 L60.77,22.999947 C61.7872513,22.9926522 62.6479532,23.7500699 62.77,24.76 L63.09,27.36 L27.33,31.75 Z M61,45 C60.74,45 60.5,45 60.25,45.05 C57.1671108,40.0729824 50.7261012,38.3827115 45.596596,41.2046056 C40.4670908,44.0264996 38.4466238,50.3716815 41,55.64 C38.6438848,59.0112169 38.3653149,63.4152306 40.2778677,67.0564563 C42.1904204,70.6976819 45.9745557,72.9677609 50.0874225,72.9413782 C54.2002894,72.9145326 57.9547298,70.5956718 59.82,66.93 C63.8789661,67.3896104 67.8583616,65.5621119 70.1548163,62.1838367 C72.451271,58.8055616 72.6865522,54.4329214 70.7658607,50.8277318 C68.8451693,47.2225423 65.0848487,44.9785885 61,45 L61,45 Z M50,71.0000013 C45.0294373,71.0000013 41,66.9705627 41,62 C41.0023138,60.4446602 41.4126397,58.9171445 42.19,57.57 C44.2632161,60.35399 47.5288605,61.996079 51,62 C51.26,62 51.52,62 51.77,62 C53.172431,64.175309 55.2969951,65.7864368 57.77,66.55 C56.1540089,69.3078928 53.1964663,71.0017235 50,71.0000013 Z M58.82,55.44 C58.6500873,55.7372341 58.4631077,56.0243813 58.26,56.3 L58.26,56.36 C58.0578726,56.6317794 57.8408748,56.8921767 57.61,57.14 C55.9007868,58.9718094 53.5053677,60.008254 51,60.0000489 L50.76,60.0000489 C47.7875514,59.917133 45.047895,58.3713979 43.44,55.87 C43.2563669,55.5831894 43.0894233,55.2860296 42.94,54.98 L42.94,54.92 C42.7887855,54.611163 42.655237,54.2939854 42.54,53.97 C41.2071125,49.8705265 42.9681931,45.4015985 46.7394246,43.3135169 C50.5106561,41.2254353 55.2329177,42.1046214 58,45.41 C58.4190706,45.9384901 58.7779513,46.5120284 59.07,47.12 L59.18,47.35 C59.24,47.49 59.3,47.64 59.36,47.79 L59.49,48.13 C59.49,48.26 59.58,48.4 59.61,48.53 C59.64,48.66 59.69,48.81 59.72,48.95 C59.75,49.09 59.78,49.19 59.8,49.31 C59.82,49.43 59.86,49.66 59.88,49.84 C59.9,50.02 59.88,50.04 59.88,50.14 C59.88,50.42 59.88,50.71 59.88,50.99 C59.9185714,52.5401596 59.5532794,54.0736969 58.82,55.44 Z" id="â—-Pictogram"></path>
        </g>
    </g>
</svg>