<?xml version="1.0" encoding="UTF-8"?>
<svg width="96px" height="96px" viewBox="0 0 96 96" version="1.1" xmlns="http://www.w3.org/2000/svg" xmlns:xlink="http://www.w3.org/1999/xlink">
    <title>pictograms/Marketing &amp; Payment/paypal</title>
    <g id="Symbols" stroke="none" stroke-width="1" fill="none" fill-rule="evenodd">
        <g id="pictograms/Marketing-&amp;-Payment/paypal" fill="#39393A">
            <path d="M50,25.9998521 C54.42,25.9998521 57.87,26.93 59.78,29.09 C61.51,31.09 62.02,33.22 61.52,36.41 C61.52,36.65 61.44,36.9 61.39,37.16 C59.7,45.78 53.91,48.76 46.53,48.76 L42.75,48.76 C41.8485323,48.7542237 41.0786717,49.4092432 40.94,50.3 L39,62.4400797 L31.1,62.4400797 C30.7762686,62.4438934 30.4672614,62.3049754 30.2552978,62.0602538 C30.0433343,61.8155323 29.9499418,61.4898614 30,61.17 L35.34,27.54 C35.4837466,26.6439095 36.2625255,25.9885437 37.17,25.9998521 L50,25.9998521 M64.87,36.48 C64.5105883,36.0809709 64.1119107,35.7191459 63.68,35.4 C63.68,35.83 63.59,36.27 63.52,36.73 C63.52,37 63.43,37.27 63.38,37.55 C63.38,37.63 63.38,37.71 63.32,37.79 L63.32,37.79 C64.96,39.64 65.32,42.27 64.66,45.42 C63.2,53 58.14,55.6 51.67,55.6 L50.67,55.6 C49.8792062,55.5952318 49.2035494,56.1689026 49.08,56.95 L49,57.38 L47.75,65.3 L47.68,65.64 C47.5537138,66.4170027 46.8871442,66.9907588 46.1,67 L39.43,67 C39.1494264,66.9883739 38.8866701,66.8593131 38.7059633,66.6443671 C38.5252565,66.4294212 38.4432534,66.1483997 38.48,65.87 L38.7,64.45 L36.65,64.45 L36.48,65.56 C36.3475582,66.4207789 36.5957152,67.296627 37.16,67.96 C37.7369785,68.6051919 38.5645048,68.9697409 39.43,68.9601903 L46.1,68.9601903 C47.8704189,68.9756384 49.3909007,67.7050407 49.69,65.96 L49.75,65.65 L49.75,65.58 L51,57.72 L51,57.62 L51.64,57.62 C59.94,57.62 65.13,53.54 66.64,45.83 C67.42,41.83 66.81,38.71 64.84,36.48" id="â—-Pictogram"></path>
        </g>
    </g>
</svg>