<?xml version="1.0" encoding="UTF-8"?>
<svg width="96px" height="96px" viewBox="0 0 96 96" version="1.1" xmlns="http://www.w3.org/2000/svg" xmlns:xlink="http://www.w3.org/1999/xlink">
    <title>pictograms/Marketing &amp; Payment/reward_program</title>
    <g id="Symbols" stroke="none" stroke-width="1" fill="none" fill-rule="evenodd">
        <g id="pictograms/Marketing-&amp;-Payment/reward-program" fill="#39393A">
            <path d="M60.0000011,53.31 L60.0000011,70 C60.0005583,70.3702114 59.7965393,70.7104396 59.469708,70.8843306 C59.1428766,71.0582216 58.7467175,71.037319 58.44,70.83 L48.57,64.26 C48.2339631,64.0358005 47.7960369,64.0358005 47.46,64.26 L37.59,70.83 C37.2826985,71.0547085 36.8744637,71.0854407 36.5369838,70.909272 C36.1995039,70.7331032 35.9913253,70.3805954 36,70 L36,53.31 C42.8205291,59.4535388 53.1794709,59.4535388 60.0000011,53.31 Z M64,40 C64,48.836556 56.836556,56 48,56 C39.163444,56 32,48.836556 32,40 C32,31.163444 39.163444,24 48,24 C56.836556,24 64,31.163444 64,40 Z M53,42 L59,36 L51,36 L48,28 L45,36 L37,36 L43,42 L41,50 L48,45 L55,50 L53,42 Z" id="â—-Pictogram"></path>
        </g>
    </g>
</svg>