<?xml version="1.0" encoding="UTF-8"?>
<svg width="96px" height="96px" viewBox="0 0 96 96" version="1.1" xmlns="http://www.w3.org/2000/svg" xmlns:xlink="http://www.w3.org/1999/xlink">
    <title>pictograms/Marketing &amp; Payment/save1</title>
    <g id="Symbols" stroke="none" stroke-width="1" fill="none" fill-rule="evenodd">
        <g id="pictograms/Marketing-&amp;-Payment/save1" fill="#39393A">
            <path d="M35,38.07 C32.411371,34.300941 32.7088803,29.2561745 35.7225767,25.8175062 C38.7362732,22.3788379 43.6984406,21.4222423 47.7744578,23.4941714 C51.8504749,25.5661004 54.0020076,30.1387461 53,34.6 C51.328004,34.2086686 49.6171652,34.0073935 47.9,34 C43.2807046,33.9777011 38.7701196,35.4008081 35,38.07 L35,38.07 Z M60,37.59 C59.8176855,37.5924404 59.6388958,37.6405761 59.48,37.73 C58.34,38.35 56.89,39.14 55.78,39.73 L55.78,39.73 C53.3189121,38.5828962 50.6352791,37.9922238 47.92,38 C39.59,38 32.68,43.38 31.28,50.45 L31.01,50.45 C29.3531458,50.45 28.01,51.7931458 28.01,53.45 C28.01,55.1068542 29.3531458,56.45 31.01,56.45 C31.1498173,56.4601163 31.2901827,56.4601163 31.43,56.45 C32.1120276,59.1267009 33.5408909,61.5543813 35.55,63.45 L35.55,69 C35.55,70.1045695 36.4454305,71 37.55,71 L41.55,71 C42.6545695,71 43.55,70.1045695 43.55,69 L43.55,67.69 C46.0952163,68.3106756 48.742527,68.3890387 51.32,67.92 L51.32,69 C51.32,70.1045695 52.2154305,71 53.32,71 L57.32,71 C58.4245695,71 59.32,70.1045695 59.32,69 L59.32,64.22 C61.2438793,62.6756588 62.761223,60.6845743 63.74,58.42 L66.56,58.42 C67.6645695,58.42 68.56,57.5245695 68.56,56.42 L68.56,50.42 C68.56,49.3154305 67.6645695,48.42 66.56,48.42 L64,48.42 C63.287755,46.4954286 62.1807024,44.741176 60.75,43.27 C60.7528936,43.2233782 60.7528936,43.1766218 60.75,43.13 L61.14,38.8 C61.1680204,38.4930933 61.0660089,38.1885073 60.8587972,37.9603843 C60.6515854,37.7322612 60.3581794,37.6015252 60.05,37.6 L60,37.59 Z M60.05,35.5999025 C60.9286261,35.5930389 61.7689336,35.9592587 62.3619704,36.6075948 C62.9550072,37.2559308 63.2450586,38.1254731 63.16,39 L62.83,42.61 C63.8355493,43.7655858 64.676818,45.0544094 65.33,46.44 L66.54,46.44 C68.749139,46.44 70.54,48.230861 70.54,50.44 L70.54,56.44 C70.54,58.649139 68.749139,60.44 66.54,60.44 L65,60.44 C64.0565251,62.2149602 62.8112705,63.8121347 61.32,65.16 L61.32,69 C61.32,71.209139 59.529139,73.0000668 57.32,73.0000668 L53.32,73.0000668 C51.5569647,73.0008345 50.0012801,71.847272 49.49,70.16 C48.97,70.2 48.45,70.22 47.93,70.22 C47.0874853,70.2192718 46.2458413,70.1658341 45.41,70.06 C44.9305202,71.8047874 43.3394407,73.0103991 41.53,73.0000668 L37.53,73.0000668 C35.320861,73.0000668 33.53,71.209139 33.53,69 L33.53,64.16 C31.9278271,62.4766935 30.694842,60.4773504 29.91,58.29 C27.6703525,57.7874435 26.0605475,55.8245336 26.0061373,53.529839 C25.951727,51.2351444 27.4666887,49.1981421 29.68,48.59 C31.89,41.21 39.31,36 47.92,36 C50.597765,36.0002947 53.2500612,36.5198866 55.73,37.53 L58.59,36 C59.0438994,35.7518297 59.552688,35.6211948 60.07,35.62 L60.05,35.5999025 Z M59.05,48.6 C59.05,47.4954305 58.1545695,46.6 57.05,46.6 C55.9454305,46.6 55.05,47.4954305 55.05,48.6 C55.05,49.7045695 55.9454305,50.6 57.05,50.6 C57.5873749,50.6054012 58.104314,50.3943152 58.4843146,50.0143146 C58.8643152,49.634314 59.0754012,49.1173749 59.07,48.58 L59.05,48.6 Z" id="â—-Pictogram"></path>
        </g>
    </g>
</svg>