<?xml version="1.0" encoding="UTF-8"?>
<svg width="96px" height="96px" viewBox="0 0 96 96" version="1.1" xmlns="http://www.w3.org/2000/svg" xmlns:xlink="http://www.w3.org/1999/xlink">
    <title>pictograms/Marketing &amp; Payment/save2</title>
    <g id="Symbols" stroke="none" stroke-width="1" fill="none" fill-rule="evenodd">
        <g id="pictograms/Marketing-&amp;-Payment/save2" fill="#39393A">
            <path d="M49,25 C52.3137085,25 55,27.6862915 55,31 C55,34.3137085 52.3137085,37 49,37 C45.6862915,37 43,34.3137085 43,31 C43,27.6862915 45.6862915,25 49,25 L49,25 Z M42,22 C45.3137085,22 48,19.3137085 48,16 C48,12.6862915 45.3137085,10 42,10 C38.6862915,10 36,12.6862915 36,16 C36,19.3137085 38.6862915,22 42,22 Z M70.27,59.5 L70.27,65.5 C70.27,67.709139 68.479139,69.5 66.27,69.5 L64.72,69.5 C63.7643461,71.2779722 62.5054206,72.8753185 61,74.22 L61,78 C61,80.209139 59.209139,82.0000255 57,82.0000255 L53,82.0000255 C51.2589485,81.9931373 49.722306,80.8608745 49.2,79.2 C48.68,79.24 48.16,79.26 47.64,79.26 C46.7974853,79.2592718 45.9558413,79.2058341 45.12,79.1 C44.6275489,80.821731 43.0507611,82.0063643 41.26,82.0000255 L37.26,82.0000255 C35.050861,82.0000255 33.26,80.209139 33.26,78 L33.26,73.25 C31.6571234,71.567236 30.4240414,69.5677356 29.64,67.38 C27.4003525,66.8774435 25.7905475,64.9145336 25.7361373,62.619839 C25.681727,60.3251444 27.1966887,58.2881421 29.41,57.68 C30.6410814,53.7419685 33.2506116,50.3797574 36.76,48.21 C34.8352097,46.2875101 34.4447413,43.3105934 35.8086239,40.9567435 C37.1725066,38.6028936 39.9493918,37.461225 42.5745038,38.1750683 C45.1996157,38.8889116 47.0159494,41.2796083 47,44 C46.9987112,44.372656 46.9618777,44.7443393 46.89,45.11 L47.64,45.11 C50.3170579,45.1076245 52.9692339,45.6237971 55.45,46.63 L58.31,45.08 C59.314179,44.533224 60.5378074,44.5835978 61.4936458,45.2110629 C62.4494843,45.8385279 62.9823269,46.9411986 62.88,48.08 L62.56,51.69 C63.5653455,52.8457398 64.406595,54.134534 65.06,55.52 L66.27,55.52 C68.471352,55.5199725 70.2589932,57.2986755 70.27,59.5 Z M68.27,59.5 C68.27,58.3954305 67.3745695,57.5 66.27,57.5 L63.72,57.5 C63.0080213,55.5752971 61.9009356,53.8209922 60.47,52.35 C60.4726365,52.3033706 60.4726365,52.2566294 60.47,52.21 L60.86,47.88 C60.9055842,47.4730291 60.7192129,47.074848 60.3775047,46.8491518 C60.0357965,46.6234556 59.5964176,46.6083326 59.24,46.81 C58.1,47.43 56.65,48.22 55.54,48.81 L55.54,48.81 C53.0682742,47.6502452 50.3702756,47.0525873 47.64,47.06 C39.31,47.06 32.4,52.44 31,59.51 L30.73,59.51 C29.0731458,59.51 27.73,60.8531458 27.73,62.51 C27.73,64.1668542 29.0731458,65.51 30.73,65.51 C30.8664894,65.5198432 31.0035106,65.5198432 31.14,65.51 C31.8220276,68.1867009 33.2508909,70.6143813 35.26,72.51 L35.26,78 C35.26,79.1045695 36.1554305,80 37.26,80 L41.26,80 C42.3645695,80 43.26,79.1045695 43.26,78 L43.26,76.73 C45.7927257,77.3603073 48.4295093,77.4522882 51,77 L51,78 C51,79.1045695 51.8954305,80 53,80 L57,80 C58.1045695,80 59,79.1045695 59,78 L59,73.3 C60.9238793,71.7556588 62.441223,69.7645743 63.42,67.5 L66.24,67.5 C67.3445695,67.5 68.24,66.6045695 68.24,65.5 L68.27,59.5 Z M56.79,55.67 C55.6854305,55.67 54.79,56.5654305 54.79,57.67 C54.79,58.7745695 55.6854305,59.67 56.79,59.67 C57.8945695,59.67 58.79,58.7745695 58.79,57.67 C58.79,56.5654305 57.8945695,55.67 56.79,55.67 Z" id="â—-Pictogram"></path>
        </g>
    </g>
</svg>