<?xml version="1.0" encoding="UTF-8"?>
<svg width="96px" height="96px" viewBox="0 0 96 96" version="1.1" xmlns="http://www.w3.org/2000/svg" xmlns:xlink="http://www.w3.org/1999/xlink">
    <title>pictograms/Marketing &amp; Payment/smart_bill</title>
    <g id="Symbols" stroke="none" stroke-width="1" fill="none" fill-rule="evenodd">
        <g id="pictograms/Marketing-&amp;-Payment/smart-bill" fill="#39393A">
            <path d="M62,62 L34,62 L34,28 L62,28 L62,62 Z M62,26 L34,26 C32.8954305,26 32,26.8954305 32,28 L32,68 C32,69.1045695 32.8954305,70 34,70 L62,70 C63.1045695,70 64,69.1045695 64,68 L64,28 C64,26.8954305 63.1045695,26 62,26 L62,26 Z M62,24 C64.209139,24 66,25.790861 66,28 L66,68 C66,70.209139 64.209139,72 62,72 L34,72 C31.790861,72 30,70.209139 30,68 L30,28 C30,25.790861 31.790861,24 34,24 L62,24 Z M59,31 L55,31 L55,33 L59,33 L59,31 Z M59,35 L55,35 L55,37 L59,37 L59,35 Z M59,39 L55,39 L55,41 L59,41 L59,39 Z M59,43 L55,43 L55,45 L59,45 L59,43 Z M51,31 L37,31 L37,33 L51,33 L51,31 Z M51,35 L37,35 L37,37 L51,37 L51,35 Z M51,39 L37,39 L37,41 L51,41 L51,39 Z M51,43 L37,43 L37,45 L51,45 L51,43 Z M59,53 L54,53 L54,55 L59,55 L59,53 Z M59,48 L37,48 L37,50 L59,50 L59,48 Z M50,66 C50,64.8954305 49.1045695,64 48,64 C46.8954305,64 46,64.8954305 46,66 C46,67.1045695 46.8954305,68 48,68 C49.1045695,68 50,67.1045695 50,66 Z" id="â—-Pictogram"></path>
        </g>
    </g>
</svg>