<?xml version="1.0" encoding="UTF-8"?>
<svg width="32px" height="32px" viewBox="0 0 32 32" version="1.1" xmlns="http://www.w3.org/2000/svg" xmlns:xlink="http://www.w3.org/1999/xlink">
    <title>icon/container/device_control_social_media/briefcase</title>
    <g id="Icons-variable-width---for-Exporting-only" stroke="none" stroke-width="1" fill="none" fill-rule="evenodd">
        <g id="icon-/-32-/-briefcase" fill="#39393A">
            <path d="M20,5 L12,5 L12,7 L10,7 L10,4 C10,3.44771525 10.4477153,3 11,3 L21,3 C21.5522847,3 22,3.44771525 22,4 L22,7 L20,7 L20,5 Z M4,28 L28,28 C29.1045695,28 30,27.1045695 30,26 L30,9 C30,7.8954305 29.1045695,7 28,7 L4,7 C2.8954305,7 2,7.8954305 2,9 L2,26 C2,27.1045695 2.8954305,28 4,28 Z M4,9 L28,9 L28,14 L4,14 L4,9 Z M19,16 L28,16 L28,26 L4,26 L4,16 L13,16 L13,18 L19,18 L19,16 Z" id="â—-icon"></path>
        </g>
    </g>
</svg>