<?xml version="1.0" encoding="UTF-8"?>
<svg width="32px" height="32px" viewBox="0 0 32 32" version="1.1" xmlns="http://www.w3.org/2000/svg" xmlns:xlink="http://www.w3.org/1999/xlink">
    <title>icon/container/device_control_social_media/home_solutions</title>
    <g id="Icons-variable-width---for-Exporting-only" stroke="none" stroke-width="1" fill="none" fill-rule="evenodd">
        <g id="icon-/-32-/-home-solutions" fill="#39393A">
            <path d="M31.9,15.560004 L26.07,3.56000402 C25.9017466,3.216613 25.5523951,2.99923875 25.17,3.000002 L6.83,3.000002 C6.4476049,2.99923875 6.09825342,3.216613 5.93,3.56000402 L0.1,15.560004 C-0.0520209917,15.8702642 -0.0331161049,16.237019 0.15,16.530004 C0.333115454,16.8229895 0.65449853,17.0006954 1,17.000002 L5,17.000002 L5,27.000002 C5,27.5522888 5.44771525,28.000002 6,28.000002 L26,28.000002 C26.5522847,28.000002 27,27.5522888 27,27.000002 L27,17.000002 L31,17.000002 C31.5325988,17.0007246 31.9723053,16.5838827 32,16.052004 C32.008696,15.8821948 31.9742957,15.712945 31.9,15.560004 Z M25,17.000004 L25,26.000004 L7,26.000004 L7,15.000004 L2.6,15.000004 L7.46,5.00000402 L24.54,5.00000402 L29.4,15.000004 L25,15.000004 L25,17.000004 Z M21.312,13.082004 C21.6331536,12.6324442 21.5290598,12.0076576 21.0795,11.686504 C20.6299402,11.3653505 20.0051536,11.4694442 19.684,11.919004 L15.37,17.958004 L13.205,15.793004 C12.8126211,15.4140318 12.1889152,15.4194516 11.8031814,15.8051854 C11.4174476,16.1909192 11.4120278,16.8146251 11.791,17.207004 L14.791,20.207004 C14.9987387,20.4150103 15.2874801,20.5210712 15.5804685,20.4969926 C15.8734569,20.472914 16.1410084,20.3211354 16.312,20.082004 L21.312,13.082004 Z" id="â—-icon"></path>
        </g>
    </g>
</svg>