<?xml version="1.0" encoding="UTF-8"?>
<svg width="32px" height="32px" viewBox="0 0 32 32" version="1.1" xmlns="http://www.w3.org/2000/svg" xmlns:xlink="http://www.w3.org/1999/xlink">
    <title>icon/container/device_control_social_media/home_add_solution</title>
    <g id="Icons-variable-width---for-Exporting-only" stroke="none" stroke-width="1" fill="none" fill-rule="evenodd">
        <g id="icon-/-32-/-home-add-solution" fill="#39393A">
            <path d="M31.9,15.560004 L26.07,3.56000402 C25.9017466,3.216613 25.5523951,2.99923875 25.17,3.000002 L6.83,3.000002 C6.4476049,2.99923875 6.09825342,3.216613 5.93,3.56000402 L0.1,15.560004 C-0.0520209917,15.8702642 -0.0331161049,16.237019 0.15,16.530004 C0.333115454,16.8229895 0.65449853,17.0006954 1,17.000002 L5,17.000002 L5,27.000002 C5,27.5522888 5.44771525,28.000002 6,28.000002 L26,28.000002 C26.5522847,28.000002 27,27.5522888 27,27.000002 L27,17.000002 L31,17.000002 C31.5325988,17.0007246 31.9723053,16.5838827 32,16.052004 C32.008696,15.8821948 31.9742957,15.712945 31.9,15.560004 Z M25,17.000004 L25,26.000004 L7,26.000004 L7,15.000004 L2.6,15.000004 L7.46,5.00000402 L24.54,5.00000402 L29.4,15.000004 L25,15.000004 L25,17.000004 Z M16.681,10.772004 C16.8592703,10.9541909 16.9572187,11.2001421 16.953,11.455004 L16.953,15.046004 L20.544,15.046004 C20.8923776,15.0347264 21.2192285,15.2141462 21.3967545,15.5141106 C21.5742805,15.8140751 21.5742805,16.186933 21.3967545,16.4868974 C21.2192285,16.7868618 20.8923776,16.9662817 20.544,16.955004 L16.953,16.955004 L16.953,20.546004 C16.9642777,20.8943816 16.7848578,21.2212326 16.4848934,21.3987586 C16.184929,21.5762845 15.812071,21.5762845 15.5121066,21.3987586 C15.2121422,21.2212326 15.0327223,20.8943816 15.044,20.546004 L15.044,16.955004 L11.453,16.955004 C11.1046224,16.9662817 10.7777715,16.7868618 10.6002455,16.4868974 C10.4227195,16.186933 10.4227195,15.8140751 10.6002455,15.5141106 C10.7777715,15.2141462 11.1046224,15.0347264 11.453,15.046004 L15.044,15.046004 L15.044,11.455004 C15.0478057,11.0690789 15.2811893,10.7225375 15.6373743,10.5739276 C15.9935594,10.4253177 16.404034,10.5032243 16.681,10.772004 L16.681,10.772004 Z" id="â—-icon"></path>
        </g>
    </g>
</svg>