<?xml version="1.0" encoding="UTF-8"?>
<svg width="32px" height="32px" viewBox="0 0 32 32" version="1.1" xmlns="http://www.w3.org/2000/svg" xmlns:xlink="http://www.w3.org/1999/xlink">
    <title>icon/container/device_control_social_media/home_green</title>
    <g id="Icons-variable-width---for-Exporting-only" stroke="none" stroke-width="1" fill="none" fill-rule="evenodd">
        <g id="icon-/-32-/-home-green" fill="#39393A">
            <path d="M31.9,15.560004 L26.07,3.56000402 C25.9017466,3.216613 25.5523951,2.99923875 25.17,3.000002 L6.83,3.000002 C6.4476049,2.99923875 6.09825342,3.216613 5.93,3.56000402 L0.1,15.560004 C-0.0520209917,15.8702642 -0.0331161049,16.237019 0.15,16.530004 C0.333115454,16.8229895 0.65449853,17.0006954 1,17.000002 L5,17.000002 L5,27.000002 C5,27.5522888 5.44771525,28.000002 6,28.000002 L26,28.000002 C26.5522847,28.000002 27,27.5522888 27,27.000002 L27,17.000002 L31,17.000002 C31.5325988,17.0007246 31.9723053,16.5838827 32,16.052004 C32.008696,15.8821948 31.9742957,15.712945 31.9,15.560004 Z M25,17.000004 L25,26.000004 L7,26.000004 L7,15.000004 L2.6,15.000004 L7.46,5.00000402 L24.54,5.00000402 L29.4,15.000004 L25,15.000004 L25,17.000004 Z M20.917,8.97700402 L20.758,7.65200402 L19.531,8.17700402 C17.204,9.17700402 14.521,10.437004 12.974,12.249004 C12.1252848,13.1840896 11.6510524,14.3992212 11.642,15.662004 C11.698248,16.9627642 12.1322681,18.2189554 12.891,19.277004 L11.206,22.194004 C11.0245156,22.5035744 11.0228167,22.8866535 11.2015481,23.1978214 C11.3802796,23.5089894 11.7120366,23.700535 12.0708817,23.6997485 C12.4297268,23.6989572 12.7606384,23.5059548 12.938,23.194004 L14.623,20.277004 C15.918717,20.4046672 17.2235587,20.1520387 18.378,19.550004 C19.4668469,18.9109301 20.2820931,17.8931184 20.668,16.691004 C21.464,14.445004 21.218,11.489004 20.917,8.97700402 Z M17.061,16.055004 L15.782,18.269004 C16.3445711,18.2337501 16.8929758,18.0778912 17.39,17.812004 C18.0606864,17.4092272 18.5573028,16.7710769 18.783,16.022004 C19.2500757,14.2414268 19.3501033,12.3844516 19.077,10.564004 C17.3645007,11.2374862 15.8071644,12.2528 14.5,13.548004 C13.9638397,14.1172864 13.6593219,14.8661007 13.646,15.648004 C13.6639058,16.2113823 13.8030676,16.7642777 14.054,17.269004 L15.332,15.055004 C15.6081424,14.5764493 16.2199453,14.4123617 16.6985,14.688504 C17.1770547,14.9646464 17.3411424,15.5764493 17.065,16.055004 L17.061,16.055004 Z" id="â—-icon"></path>
        </g>
    </g>
</svg>