<?xml version="1.0" encoding="UTF-8"?>
<svg width="32px" height="32px" viewBox="0 0 32 32" version="1.1" xmlns="http://www.w3.org/2000/svg" xmlns:xlink="http://www.w3.org/1999/xlink">
    <title>icon/container/device_control_social_media/password_invisible</title>
    <g id="Icons-variable-width---for-Exporting-only" stroke="none" stroke-width="1" fill="none" fill-rule="evenodd">
        <g id="icon-/-32-/-password-invisible" fill="#39393A">
            <path d="M25.70725,5.29325 C26.09825,5.68425 26.09825,6.31625 25.70725,6.70725 L5.70725,26.70725 C5.51225,26.90225 5.25625,27.00025 5.00025,27.00025 C4.74425,27.00025 4.48825,26.90225 4.29325,26.70725 C3.90225,26.31625 3.90225,25.68425 4.29325,25.29325 L8.36580155,21.2205474 C5.61627518,19.0382759 4.16553578,16.3200988 4.01358333,16.0263241 L4.00025,16.00025 C4.00025,16.00025 8.00025,8.00025 16.00025,8.00025 C17.7293639,8.00025 19.2716132,8.37397937 20.6269977,8.95988295 L24.29325,5.29325 C24.68425,4.90225 25.31625,4.90225 25.70725,5.29325 Z M23.6348856,10.7801012 C26.5451285,13.0900071 28.00025,16.00025 28.00025,16.00025 C28.00025,16.00025 27.9991389,16.0024722 27.9969167,16.0068426 L27.97025,16.05825 L27.97025,16.05825 L27.9169167,16.1576574 C27.3058056,17.2780278 23.3335833,24.00025 16.00025,24.00025 C14.2715434,24.00025 12.7296134,23.6266967 11.3744601,23.0410311 L13.5098933,20.9054509 C14.257561,21.2858072 15.1038306,21.50025 16.00025,21.50025 C19.03725,21.50025 21.50025,19.03725 21.50025,16.00025 C21.50025,15.1038306 21.2858072,14.257561 20.9054509,13.5098933 Z M19.3687592,15.046612 C19.4544172,15.3497812 19.50025,15.6696631 19.50025,16.00025 C19.50025,17.93325 17.93325,19.50025 16.00025,19.50025 C15.6696631,19.50025 15.3497812,19.4544172 15.046612,19.3687592 Z M16.00025,10.50025 C12.96225,10.50025 10.50025,12.96225 10.50025,16.00025 C10.50025,16.8968187 10.7148183,17.7433621 11.0954308,18.491279 L12.6320256,16.9548951 C12.5461844,16.6514273 12.50025,16.331203 12.50025,16.00025 C12.50025,14.06725 14.06725,12.50025 16.00025,12.50025 C16.331203,12.50025 16.6514273,12.5461844 16.9548951,12.6320256 L18.491279,11.0954308 C17.7433621,10.7148183 16.8968187,10.50025 16.00025,10.50025 Z" id="â—-icon"></path>
        </g>
    </g>
</svg>