<svg xmlns="http://www.w3.org/2000/svg" width="32" height="32" viewBox="0 0 32 32">
  <path fill="#39393A" fill-rule="evenodd" d="M16,7.8181818 C10.772727,7.8181818 6.277273,11.2 4.5,16 C6.277273,20.8 10.772727,24.1818182 16,24.1818182 C21.227273,24.1818182 25.722727,20.8 27.5,16 C25.722727,11.2 21.227273,7.8181818 16,7.8181818 Z M16,21.4545454 C13.072727,21.4545454 10.772727,19.0545454 10.772727,16 C10.772727,12.9454545 13.072727,10.5454545 16,10.5454545 C18.927273,10.5454545 21.227273,12.9454545 21.227273,16 C21.227273,19.0545454 18.927273,21.4545454 16,21.4545454 Z M16,12.7272727 C14.222727,12.7272727 12.863636,14.1454545 12.863636,16 C12.863636,17.8545454 14.222727,19.2727273 16,19.2727273 C17.777273,19.2727273 19.136364,17.8545454 19.136364,16 C19.136364,14.1454545 17.777273,12.7272727 16,12.7272727 Z"/>
</svg>
