<?xml version="1.0" encoding="UTF-8"?>
<svg width="32px" height="32px" viewBox="0 0 32 32" version="1.1" xmlns="http://www.w3.org/2000/svg" xmlns:xlink="http://www.w3.org/1999/xlink">
    <title>icon/container/device_control_social_media/printer</title>
    <g id="Icons-variable-width---for-Exporting-only" stroke="none" stroke-width="1" fill="none" fill-rule="evenodd">
        <g id="icon-/-32-/-printer" fill="#39393A">
            <path d="M27,15 L25,15 L25,5 C25,3.9 24.1,3 23,3 L9,3 C7.9,3 7,3.9 7,5 L7,15 L5,15 C3.9,15 3,15.9 3,17 L3,26 C3,27.1 3.9,28 5,28 L27,28 C28.1,28 29,27.1 29,26 L29,17 C29,15.9 28.1,15 27,15 Z M9,5 L23,5 L23,15 L9,15 L9,5 Z M27,26 L5,26 L5,17 L27,17 L27,26 Z M23.5,21 C24.3,21 25,21.7 25,22.5 C25,23.3 24.3,24 23.5,24 C22.7,24 22,23.3 22,22.5 C22,21.7 22.7,21 23.5,21 Z M11,11 L21,11 L21,13 L11,13 L11,11 Z M11,7 L21,7 L21,9 L11,9 L11,7 Z" id="â—-icon"></path>
        </g>
    </g>
</svg>