<?xml version="1.0" encoding="UTF-8"?>
<svg width="32px" height="32px" viewBox="0 0 32 32" version="1.1" xmlns="http://www.w3.org/2000/svg" xmlns:xlink="http://www.w3.org/1999/xlink">
    <title>icon/container/device_control_social_media/quote</title>
    <g id="Icons-variable-width---for-Exporting-only" stroke="none" stroke-width="1" fill="none" fill-rule="evenodd">
        <g id="icon-/-32-/-quote" fill="#39393A">
            <path d="M25,4 C27.2,4 29,5.8 29,8 L29,19 C29,21.2 27.2,23 25,23 L22,23 L22,28 C22,28.379 21.785,28.726 21.446,28.895 C21.107,29.064 20.701,29.026 20.398,28.799 L12.7,23 L7,23 C4.8,23 3,21.2 3,19 L3,8 C3,5.8 4.8,4 7,4 L25,4 Z M25,6 L7,6 C5.9,6 5,6.9 5,8 L5,19 C5,20.1 5.9,21 7,21 L13,21 C13.2,21 13.4,21.1 13.6,21.2 L20,26 L20,22 C20,21.447 20.447,21 21,21 L25,21 C26.1,21 27,20.1 27,19 L27,8 C27,6.9 26.1,6 25,6 Z M21.5,9 C21.7761424,9 22,9.22385762 22,9.5 L21.999037,13.8334418 C21.999013,13.9415601 21.963944,14.0467578 21.8990876,14.1332634 L19.15,17.8 C19.0555728,17.9259029 18.9073787,18 18.75,18 L17.4045085,18 C17.2664373,18 17.1545085,17.8880712 17.1545085,17.75 C17.1545085,17.7111887 17.1635448,17.6729105 17.1809017,17.6381966 L18.999,14 L17.5,14 C17.2238576,14 17,13.7761424 17,13.5 L17,9.5 C17,9.22385762 17.2238576,9 17.5,9 L21.5,9 Z M14.5,9 C14.7761424,9 15,9.22385762 15,9.5 L14.999037,13.8334418 C14.999013,13.9415601 14.963944,14.0467578 14.8990876,14.1332634 L12.15,17.8 C12.0555728,17.9259029 11.9073787,18 11.75,18 L10.4045085,18 C10.2664373,18 10.1545085,17.8880712 10.1545085,17.75 C10.1545085,17.7111887 10.1635448,17.6729105 10.1809017,17.6381966 L11.999,14 L10.5,14 C10.2238576,14 10,13.7761424 10,13.5 L10,9.5 C10,9.22385762 10.2238576,9 10.5,9 L14.5,9 Z" id="â—-icon"></path>
        </g>
    </g>
</svg>