<?xml version="1.0" encoding="UTF-8"?>
<svg width="32px" height="32px" viewBox="0 0 32 32" version="1.1" xmlns="http://www.w3.org/2000/svg" xmlns:xlink="http://www.w3.org/1999/xlink">
    <title>icon/container/device_control_social_media/quote_filled</title>
    <g id="Icons-variable-width---for-Exporting-only" stroke="none" stroke-width="1" fill="none" fill-rule="evenodd">
        <g id="icon-/-32-/-quote-filled" fill="#39393A">
            <path d="M25,3 C27.2,3 29,4.8 29,7 L29,18 C29,20.2 27.2,22 25,22 L22,22 L22,27 C22,27.379 21.785,27.726 21.446,27.895 C21.107,28.064 20.701,28.026 20.398,27.799 L12.7,22 L7,22 C4.8,22 3,20.2 3,18 L3,7 C3,4.8 4.8,3 7,3 L25,3 Z M21.5,8 L17.5,8 C17.2238576,8 17,8.22385763 17,8.5 L17,8.5 L17,12.5 C17,12.7761424 17.2238576,13 17.5,13 L17.5,13 L18.999,13 L17.1809017,16.6381966 C17.1635448,16.6729105 17.1545085,16.7111887 17.1545085,16.75 C17.1545085,16.8880712 17.2664373,17 17.4045085,17 L17.4045085,17 L18.75,17 C18.9073787,17 19.0555728,16.9259029 19.15,16.8 L19.15,16.8 L21.8990876,13.1332634 C21.963944,13.0467578 21.999013,12.9415601 21.999037,12.8334418 L21.999037,12.8334418 L22,8.5 C22,8.22385763 21.7761424,8 21.5,8 L21.5,8 Z M14.5,8 L10.5,8 C10.2238576,8 10,8.22385763 10,8.5 L10,8.5 L10,12.5 C10,12.7761424 10.2238576,13 10.5,13 L10.5,13 L11.999,13 L10.1809017,16.6381966 C10.1635448,16.6729105 10.1545085,16.7111887 10.1545085,16.75 C10.1545085,16.8880712 10.2664373,17 10.4045085,17 L10.4045085,17 L11.75,17 C11.9073787,17 12.0555728,16.9259029 12.15,16.8 L12.15,16.8 L14.8990876,13.1332634 C14.963944,13.0467578 14.999013,12.9415601 14.999037,12.8334418 L14.999037,12.8334418 L15,8.5 C15,8.22385763 14.7761424,8 14.5,8 L14.5,8 Z" id="â—-icon"></path>
        </g>
    </g>
</svg>