<svg xmlns="http://www.w3.org/2000/svg" width="32" height="32" viewBox="0 0 32 32">
  <path fill="#39393A" fill-rule="evenodd" d="M29,27.9983 L3,27.9983 C2.448,27.9983 2,27.5513 2,26.9983 C2,26.4463 2.448,25.9983 3,25.9983 L29,25.9983 C29.553,25.9983 30,26.4463 30,26.9983 C30,27.5513 29.553,27.9983 29,27.9983 Z M12.999,13.9997 L18.999,13.9997 L18.999,11.9997 L12.999,11.9997 L12.999,13.9997 Z M6.756,14.2427 L5.342,12.8287 L8.17,9.9997 L5.342,7.1717 L6.756,5.7567 L9.584,8.5857 L10.999,9.9997 L6.756,14.2427 Z M3,2.9997 C2.448,2.9997 2,3.4477 2,3.9997 L2,22.9987 C2,23.5507 2.448,23.9987 3,23.9987 L29,23.9987 C29.553,23.9987 30,23.5507 30,22.9987 L30,3.9997 C30,3.4477 29.553,2.9997 29,2.9997 L3,2.9997 Z"/>
</svg>
