<?xml version="1.0" encoding="UTF-8"?>
<svg width="32px" height="32px" viewBox="0 0 32 32" version="1.1" xmlns="http://www.w3.org/2000/svg" xmlns:xlink="http://www.w3.org/1999/xlink">
    <title>icon/container/device_control_social_media/social_pinterest</title>
    <g id="Icons-variable-width---for-Exporting-only" stroke="none" stroke-width="1" fill="none" fill-rule="evenodd">
        <g id="icon-/-32-/-social-pinterest" fill="#39393A">
            <path d="M16,5 C9.92522523,5 5,9.92522523 5,16 C5,20.660961 7.8991992,24.6403403 11.9908909,26.2424424 C11.8950951,25.3725726 11.8081081,24.038038 12.0294294,23.0877878 L13.3188188,17.6197197 L13.3188188,17.6197197 L13.2675488,17.5016266 C13.1752628,17.2708083 12.9906907,16.7179179 12.9906907,15.9878879 C12.9906907,14.4573574 13.8770771,13.3155155 14.9803804,13.3155155 C15.9196196,13.3155155 16.3721722,14.0202202 16.3721722,14.8647648 C16.3721722,15.8084084 15.7720721,17.22002 15.4615616,18.5281281 C15.2017017,19.6226226 16.011011,20.5156156 17.0900901,20.5156156 C19.0456456,20.5156156 20.5486486,18.4543544 20.5486486,15.4780781 C20.5486486,12.8442442 18.6558559,11.0032032 15.9537538,11.0032032 C12.8233233,11.0032032 10.9866867,13.3496496 10.9866867,15.7764765 C10.9866867,16.7223223 11.3511512,17.7353353 11.8048048,18.286987 C11.8950951,18.395996 11.9083083,18.4917918 11.8818819,18.603003 L11.5757758,19.8505506 L11.5757758,19.8505506 C11.5273273,20.0520521 11.4161161,20.0938939 11.208008,19.996997 C9.83383383,19.3572573 8.97497497,17.3488488 8.97497497,15.7357357 C8.97497497,12.2650651 11.4964965,9.07847848 16.2433433,9.07847848 C20.0597598,9.07847848 23.025025,11.7981982 23.025025,15.4318318 C23.025025,19.2229229 20.6345345,22.2740741 17.3169169,22.2740741 C16.2026026,22.2740741 15.1543544,21.695996 14.7953954,21.0111111 L14.1105105,23.6262262 L14.1105105,23.6262262 C13.8616617,24.581982 13.1910911,25.7788789 12.7429429,26.5089089 C13.7724725,26.8282282 14.8658659,27 16,27 C22.0747748,27 27,22.0758759 27,16 C27,9.92522523 22.0747748,5 16,5 Z" id="â—-icon"></path>
        </g>
    </g>
</svg>