<svg xmlns="http://www.w3.org/2000/svg" width="32" height="32" viewBox="0 0 32 32">
  <path fill="#39393A" fill-rule="evenodd" d="M26.2948475,10.4722785 L26.2948475,11.1948018 C26.2948475,18.5103507 20.6952916,27 10.4896493,27 C7.50924051,27 4.52883171,26.0968458 2,24.4711683 C4.9804088,24.83243 7.87050218,24.0195912 10.218703,22.2132828 C7.87050218,22.2132828 5.79324756,20.5876053 4.9804088,18.3297199 C5.79324756,18.5103507 6.69640174,18.4200353 7.50924051,18.2394044 C4.96946147,17.7139329 3.19400466,15.5748923 3.08873343,13.0575507 L3.08378502,12.7301639 C3.89662378,13.181741 4.70946254,13.3623719 5.61261672,13.4526873 C3.17410044,11.8270098 2.45157709,8.5756547 3.89662378,6.046823 C6.69640174,9.47880888 10.850911,11.6463789 15.3666819,11.8270098 C14.6441585,8.84660096 16.5407823,5.86619216 19.5211911,5.14366881 C21.4178149,4.69209172 23.4950695,5.32429965 24.8498008,6.76934634 C26.1142166,6.49840009 27.2883171,6.046823 28.3721021,5.41461507 C27.920525,6.67903092 27.1076862,7.76281594 25.9335858,8.48533928 C27.0173708,8.30470845 28.1011558,8.03376219 29.0946254,7.5821851 C28.4443544,8.55759162 27.5746169,9.45984265 26.6170929,10.2230982 L26.2948475,10.4722785 Z"/>
</svg>
