<?xml version="1.0" encoding="UTF-8"?>
<svg width="32px" height="32px" viewBox="0 0 32 32" version="1.1" xmlns="http://www.w3.org/2000/svg" xmlns:xlink="http://www.w3.org/1999/xlink">
    <title>icon/container/device_control_social_media/social_xing</title>
    <g id="Icons-variable-width---for-Exporting-only" stroke="none" stroke-width="1" fill="none" fill-rule="evenodd">
        <g id="icon-/-32-/-social-xing" fill="#39393A">
            <path d="M22.585,8.9722 L17.795,17.4412 C17.792,17.4452 17.792,17.4512 17.795,17.4552 L20.845,23.0272 C20.905,23.1472 20.907,23.2692 20.85,23.3622 C20.794,23.4512 20.692,23.5002 20.563,23.5002 L18.401,23.5002 C18.07,23.5002 17.904,23.2802 17.797,23.0882 C17.797,23.0882 14.731,17.4632 14.723,17.4482 C14.877,17.1772 19.537,8.9122 19.537,8.9122 C19.653,8.7032 19.793,8.5002 20.116,8.5002 L22.302,8.5002 C22.432,8.5002 22.534,8.5492 22.589,8.6382 C22.647,8.7302 22.645,8.8522 22.585,8.9722 M12.358,19.0162 L10.188,19.0162 C10.058,19.0162 9.968,18.9522 9.913,18.8632 C9.856,18.7712 9.853,18.6462 9.913,18.5272 L12.205,14.4762 C12.208,14.4722 12.208,14.4662 12.205,14.4612 L10.738,11.9242 C10.678,11.8032 10.682,11.6952 10.738,11.6032 C10.793,11.5132 10.898,11.4652 11.028,11.4652 L13.184,11.4652 C13.516,11.4652 13.688,11.6712 13.795,11.8632 C13.795,11.8632 15.27,14.4472 15.278,14.4612 C15.19,14.6162 12.939,18.5882 12.939,18.5882 C12.829,18.7882 12.682,19.0162 12.358,19.0162 M26,5.0002 L6,5.0002 C5.447,5.0002 5,5.4482 5,6.0002 L5,26.0002 C5,26.5522 5.447,27.0002 6,27.0002 L26,27.0002 C26.553,27.0002 27,26.5522 27,26.0002 L27,6.0002 C27,5.4482 26.553,5.0002 26,5.0002" id="â—-icon"></path>
        </g>
    </g>
</svg>