<svg xmlns="http://www.w3.org/2000/svg" width="32" height="32" viewBox="0 0 32 32">
  <path fill="#39393A" fill-rule="evenodd" d="M31.4030973,9.67256637 C31.2084071,8.50442478 30.8190265,7.53097345 30.1376106,6.55752212 C29.2615044,5.68141593 28.190708,5.2920354 27.0225664,5.19469027 L26.2437423,5.16290051 L24.7804986,5.11528806 C23.0320649,5.06600461 21.1780514,5.0377889 19.6282333,5.02163487 L15.6843154,5.00071239 C14.2809741,5.00529206 8.81341048,5.03931246 5.02256637,5.2920354 C3.85442478,5.2920354 2.68628319,5.77876106 1.90752212,6.65486726 C1.22610619,7.53097345 0.836725664,8.60176991 0.642035398,9.7699115 C0.447345133,11.4247788 0.35,13.1769912 0.35,14.8318584 L0.35,17.1681416 C0.35,18.8230088 0.447345133,20.5752212 0.642035398,22.2300885 C0.836725664,23.3982301 1.22610619,24.3716814 1.90752212,25.3451327 C2.88097345,26.2212389 4.04911504,26.7079646 5.31460177,26.7079646 L5.81606889,26.7413112 L6.40180449,26.7719626 C7.76173573,26.8362809 9.67559116,26.8869933 11.4312461,26.9241 L16.2634722,26.9992876 L18.3277564,26.9837379 C20.6542605,26.9574144 24.2174754,26.888481 26.9252212,26.7079646 C28.0933628,26.7079646 29.2615044,26.2212389 30.0402655,25.3451327 C30.7216814,24.4690265 31.1110619,23.3982301 31.3057522,22.2300885 C31.5004425,20.5752212 31.5977876,18.8230088 31.5977876,17.1681416 L31.5977876,14.8318584 C31.6951327,13.079646 31.5977876,11.3274336 31.4030973,9.67256637 Z M13.1022124,20.2831858 L13.1022124,11.3274336 L21.4738938,15.7079646 L13.1022124,20.2831858 Z"/>
</svg>
