<?xml version="1.0" encoding="UTF-8"?>
<svg width="32px" height="32px" viewBox="0 0 32 32" version="1.1" xmlns="http://www.w3.org/2000/svg" xmlns:xlink="http://www.w3.org/1999/xlink">
    <title>icon/container/device_control_social_media/toolkit</title>
    <g id="Icons-variable-width---for-Exporting-only" stroke="none" stroke-width="1" fill="none" fill-rule="evenodd">
        <g id="icon-/-32-/-toolkit" fill="#39393A">
            <path d="M12,7 L12,5 L20,5 L20,7 L22,7 L22,4 C22,3.44771525 21.5522847,3 21,3 L11,3 C10.4477153,3 10,3.44771525 10,4 L10,7 L12,7 Z M4,28 L28,28 C29.1045695,28 30,27.1045695 30,26 L30,9 C30,7.8954305 29.1045695,7 28,7 L4,7 C2.8954305,7 2,7.8954305 2,9 L2,26 C2,27.1045695 2.8954305,28 4,28 Z M4,9 L28,9 L28,26 L4,26 L4,9 Z M21.059,21.4690006 C19.427264,21.4686529 17.9582047,20.4803192 17.343,18.969 C17.33,18.938 17.319,18.905 17.308,18.869 L17.308,18.869 C17.2979244,18.8350049 17.2859046,18.8016166 17.272,18.769 L8.104,18.769 C7.37443185,18.769 6.783,18.1775682 6.783,17.448 C6.783,16.7184318 7.37443185,16.127 8.104,16.127 L17.277,16.127 L17.343,15.927 C17.9315238,14.4881466 19.2975918,13.5181828 20.8500245,13.43687 C22.4024573,13.3555572 23.8623813,14.1775021 24.598,15.547 L24.623,15.598 C24.63,15.615 24.638,15.631 24.647,15.649 L21.315,15.649 L20.383,17.449 L21.311,19.243 L24.642,19.243 L24.618,19.294 L24.594,19.345 C23.8995878,20.6526842 22.5396234,21.4698169 21.059,21.4690006 Z" id="â—-icon"></path>
        </g>
    </g>
</svg>