<?xml version="1.0" encoding="UTF-8"?>
<svg width="32px" height="32px" viewBox="0 0 32 32" version="1.1" xmlns="http://www.w3.org/2000/svg" xmlns:xlink="http://www.w3.org/1999/xlink">
    <title>icon/container/device_control_social_media/video_replay</title>
    <g id="Icons-variable-width---for-Exporting-only" stroke="none" stroke-width="1" fill="none" fill-rule="evenodd">
        <g id="icon-/-32-/-video-replay" fill="#39393A">
            <path d="M16,3 C23.168,3 29,8.832 29,16 C29,23.168 23.168,29 16,29 C8.832,29 3,23.168 3,16 C3,13.1746803 3.9017991,10.4746105 5.56609174,8.24283051 C4.4747892,8.53581886 3.40609959,8.92089084 2.1016,9.4328 C1.5886,9.6318 1.0066,9.3828 0.8056,8.8668 C0.6036,8.3538 0.8566,7.7728 1.3706,7.5708 C3.3666,6.7878 5.2326,6.1108 7.8716,5.7508 C8.3796,5.6898 8.8516,6.0028 8.9756,6.4958 C9.6326,9.0788 9.7026,11.0628 9.72364191,13.2048 C9.7286,13.7578 9.2856,14.2098 8.7336,14.2148 L8.7236,14.2148 C8.1756,14.2148 7.7286,13.7738 7.7236,13.2248 C7.70748362,11.6162322 7.65367291,10.358104 7.46091849,9.06666217 C5.8675927,11.0236592 5,13.4521183 5,16 C5,22.065 9.935,27 16,27 C22.065,27 27,22.065 27,16 C27,9.935 22.065,5 16,5 L16,3 Z" id="â—-icon"></path>
        </g>
    </g>
</svg>