<svg xmlns="http://www.w3.org/2000/svg" width="32" height="32" viewBox="0 0 32 32">
  <path fill="#39393A" fill-rule="evenodd" d="M2.001,14.0973 L4.001,14.8253 L4.001,21.0003 L8.898,21.0003 L9.495,21.6713 L14,26.7393 L14,18.4653 L16,19.1923 L16,26.7393 C16,27.5703 15.487,28.3143 14.711,28.6093 C14.479,28.6973 14.238,28.7393 14.001,28.7393 C13.44,28.7393 12.893,28.5033 12.505,28.0683 L12.505,28.0683 L8.001,23.0003 L4.001,23.0003 C2.896,23.0003 2.001,22.1043 2.001,21.0003 L2.001,21.0003 L2.001,14.0973 Z M25.8884,22.7919 L27.8174,23.4939 C27.2704,24.3519 26.6364,25.1619 25.8994,25.8999 C25.3224,26.4759 24.6934,27.0039 24.0294,27.4679 C23.8544,27.5899 23.6554,27.6489 23.4574,27.6489 C23.1414,27.6489 22.8314,27.4999 22.6364,27.2219 C22.3204,26.7699 22.4304,26.1459 22.8824,25.8299 C23.4524,25.4319 23.9914,24.9789 24.4854,24.4849 C25.0104,23.9599 25.4754,23.3899 25.8884,22.7919 L25.8884,22.7919 Z M19.8324,20.5871 L21.9334,21.3521 C21.8414,21.4541 21.7554,21.5591 21.6574,21.6571 C21.3244,21.9891 20.9644,22.2901 20.5874,22.5541 C20.4134,22.6751 20.2134,22.7341 20.0154,22.7341 C19.7004,22.7341 19.3894,22.5851 19.1954,22.3071 C18.8794,21.8541 18.9894,21.2301 19.4424,20.9141 C19.5794,20.8181 19.7014,20.6961 19.8324,20.5871 L19.8324,20.5871 Z M1,9.54 C1.114,9.54 1.229,9.559 1.342,9.601 L31.342,20.52 C31.748,20.668 32,21.051 32,21.459 C32,21.573 31.98,21.689 31.939,21.801 C31.792,22.208 31.408,22.46 31,22.46 C30.887,22.46 30.771,22.44 30.658,22.399 L0.658,11.48 C0.252,11.333 0,10.949 0,10.541 C0,10.427 0.02,10.312 0.061,10.199 C0.208,9.793 0.593,9.54 1,9.54 Z M22.637,4.7781 C22.953,4.3251 23.576,4.2151 24.029,4.5321 C24.693,4.9971 25.322,5.5241 25.899,6.1001 C28.544,8.7451 30,12.2611 30,16.0001 C30,16.6261 29.944,17.2431 29.864,17.8541 L29.864,17.8541 L27.943,17.1541 C27.98,16.7731 28,16.3881 28,16.0001 C28,12.7951 26.752,9.7821 24.485,7.5151 C23.991,7.0211 23.452,6.5681 22.883,6.1701 C22.431,5.8541 22.32,5.2301 22.637,4.7781 Z M19.1953,9.6939 C19.5113,9.2409 20.1353,9.1299 20.5873,9.4459 C20.9653,9.7099 21.3243,10.0109 21.6563,10.3419 C23.0993,11.7859 23.9153,13.6849 23.9863,15.7139 L23.9863,15.7139 L21.9053,14.9569 C21.6943,13.7509 21.1263,12.6399 20.2433,11.7579 C19.9943,11.5099 19.7243,11.2829 19.4423,11.0859 C18.9893,10.7699 18.8793,10.1459 19.1953,9.6939 Z M14.0001,3.2607 C14.2381,3.2607 14.4791,3.3037 14.7111,3.3917 C15.4871,3.6867 16.0001,4.4307 16.0001,5.2607 L16.0001,5.2607 L16.0001,12.8077 L14.0001,12.0797 L14.0001,5.2607 L9.4951,10.3287 L9.4211,10.4127 L5.5391,8.9997 L8.0011,8.9997 L12.5051,3.9327 C12.8921,3.4967 13.4391,3.2607 14.0001,3.2607 Z"/>
</svg>
