<svg xmlns="http://www.w3.org/2000/svg" width="32" height="32" viewBox="0 0 32 32">
  <path fill="#39393A" fill-rule="evenodd" d="M13.99945,3.2605 C14.23745,3.2605 14.47845,3.3025 14.71045,3.3905 C15.48645,3.6865 15.99945,4.4295 15.99945,5.2605 L15.99945,5.2605 L15.99945,26.7395 C15.99945,27.5695 15.48645,28.3135 14.71045,28.6085 C14.47845,28.6965 14.23745,28.7395 14.00045,28.7395 C13.43945,28.7395 12.89245,28.5035 12.50445,28.0675 L12.50445,28.0675 L8.00045,22.9995 L4.00045,22.9995 C2.89545,22.9995 2.00045,22.1045 2.00045,20.9995 L2.00045,20.9995 L2.00045,10.9995 C2.00045,9.8955 2.89545,8.9995 4.00045,8.9995 L4.00045,8.9995 L8.00045,8.9995 L12.50445,3.9315 C12.89245,3.4965 13.43845,3.2605 13.99945,3.2605 Z M24.02855,4.5316 C24.69255,4.9966 25.32155,5.5236 25.89855,6.0996 C28.54355,8.7446 29.99955,12.2606 29.99955,15.9996 C29.99955,19.7386 28.54355,23.2546 25.89855,25.8986 C25.32155,26.4756 24.69255,27.0026 24.02855,27.4676 C23.85355,27.5896 23.65455,27.6486 23.45655,27.6486 C23.14155,27.6486 22.83055,27.4996 22.63655,27.2216 C22.31955,26.7696 22.43055,26.1456 22.88255,25.8296 C23.45155,25.4316 23.99055,24.9786 24.48455,24.4846 C26.75155,22.2176 27.99955,19.2046 27.99955,15.9996 C27.99955,12.7946 26.75155,9.7816 24.48455,7.5146 C23.99055,7.0206 23.45155,6.5676 22.88255,6.1696 C22.43055,5.8536 22.31955,5.2306 22.63655,4.7776 C22.95255,4.3246 23.57555,4.2146 24.02855,4.5316 Z M13.99945,5.2605 L13.99845,5.2605 L9.49445,10.3285 L8.89745,10.9995 L4.00045,10.9995 L4.00045,20.9995 L8.89745,20.9995 L9.49445,21.6715 L13.99945,26.7395 L13.99945,5.2605 Z M20.58615,9.4456 C20.96415,9.7096 21.32415,10.0106 21.65615,10.3416 C23.16715,11.8536 23.99915,13.8626 23.99915,15.9996 C23.99915,18.1366 23.16715,20.1456 21.65715,21.6566 C21.32415,21.9886 20.96415,22.2896 20.58615,22.5536 C20.41215,22.6746 20.21215,22.7336 20.01515,22.7336 C19.70015,22.7336 19.38915,22.5846 19.19515,22.3066 C18.87815,21.8536 18.98915,21.2306 19.44215,20.9136 C19.72415,20.7166 19.99415,20.4896 20.24415,20.2406 C21.37515,19.1096 21.99915,17.6026 21.99915,15.9996 C21.99915,14.3966 21.37515,12.8896 20.24315,11.7566 C19.99415,11.5096 19.72415,11.2826 19.44215,11.0856 C18.98915,10.7696 18.87815,10.1456 19.19515,9.6926 C19.51115,9.2406 20.13415,9.1296 20.58615,9.4456 Z"/>
</svg>
