<?xml version="1.0" encoding="UTF-8"?>
<svg width="24px" height="32px" viewBox="0 0 24 32" version="1.1" xmlns="http://www.w3.org/2000/svg" xmlns:xlink="http://www.w3.org/1999/xlink">
    <title>icon/height32/alert</title>
    <g id="Icons-variable-width---for-Exporting-only" stroke="none" stroke-width="1" fill="none" fill-rule="evenodd">
        <g id="icon-/-32-/-alert" transform="translate(-4.000000, 0.000000)" fill="#39393A">
            <path d="M27.77,23.1599938 L17.82,4.99999384 C17.4452251,4.34893554 16.7512211,3.94765791 16,3.94765791 C15.2487789,3.94765791 14.5547749,4.34893554 14.18,4.99999384 L4.23,23.1599938 C3.94301225,23.7801033 3.99246917,24.5038142 4.36114896,25.0791167 C4.72982874,25.6544192 5.36670291,26.0016866 6.05,26.0000122 L25.95,26.0000122 C26.6332971,26.0016866 27.2701713,25.6544192 27.638851,25.0791167 C28.0075308,24.5038142 28.0569878,23.7801033 27.77,23.1599938 Z M15,9.94765791 C15,9.39537316 15.4477153,8.94765791 16,8.94765791 C16.5522847,8.94765791 17,9.39537316 17,9.94765791 L17,16.9476579 C17,17.4999427 16.5522847,17.9476579 16,17.9476579 C15.4477153,17.9476579 15,17.4999427 15,16.9476579 L15,9.94765791 Z M16,22.9476579 C15.1715729,22.9476579 14.5,22.276085 14.5,21.4476579 C14.5,20.6192308 15.1715729,19.9476579 16,19.9476579 C16.8284271,19.9476579 17.5,20.6192308 17.5,21.4476579 C17.5,22.276085 16.8284271,22.9476579 16,22.9476579 Z" id="â—-icon"></path>
        </g>
    </g>
</svg>