<?xml version="1.0" encoding="UTF-8"?>
<svg width="18px" height="33px" viewBox="0 0 18 33" version="1.1" xmlns="http://www.w3.org/2000/svg" xmlns:xlink="http://www.w3.org/1999/xlink">
    <title>icon/height32/arrow_down</title>
    <g id="Icons-variable-width---for-Exporting-only" stroke="none" stroke-width="1" fill="none" fill-rule="evenodd">
        <g id="icon-/-32-/-arrow-down" transform="translate(-7.000000, 1.000000)" fill="#39393A">
            <path d="M16.0039,6.49898703 C16.5174,6.49898703 16.939502,6.8844105 16.9971824,7.38223375 L17.0039,7.49898703 L17.00354,22.6281282 C18.953375,20.9852104 21.0357246,18.7466005 23.211,15.951887 C23.408,15.697887 23.703,15.565887 24.001,15.565887 C24.216,15.565887 24.432,15.634887 24.614,15.776887 C25.05,16.115887 25.128,16.743887 24.789,17.179887 C22.062,20.684887 19.448,23.369887 17.022,25.162887 C16.408,25.614887 15.586,25.612887 14.978,25.161887 C12.553,23.371887 9.939,20.685887 7.211,17.179887 C6.872,16.743887 6.95,16.115887 7.386,15.776887 C7.821,15.437887 8.449,15.515887 8.789,15.951887 C10.9677412,18.7499572 13.0526055,20.9913149 15.0038612,22.6343663 L15.0039,7.49898703 C15.0039,6.94598703 15.4509,6.49898703 16.0039,6.49898703 Z" id="â—-icon"></path>
        </g>
    </g>
</svg>