<?xml version="1.0" encoding="UTF-8"?>
<svg width="8px" height="32px" viewBox="0 0 8 32" version="1.1" xmlns="http://www.w3.org/2000/svg" xmlns:xlink="http://www.w3.org/1999/xlink">
    <title>icon/height32/bulletlist_square</title>
    <g id="Icons-variable-width---for-Exporting-only" stroke="none" stroke-width="1" fill="none" fill-rule="evenodd">
        <g id="icon-/-32-/-bulletlist-square" transform="translate(-12.000000, 0.000000)" fill="#39393A">
            <path d="M16,12 C16.9036667,12 17.8076667,12.1 18.7113333,12.2666667 C19.2466667,12.3666667 19.6483333,12.7666667 19.749,13.3 C20.0836667,15.0666667 20.0836667,16.9333333 19.749,18.7 C19.6483333,19.2333333 19.2466667,19.6333333 18.7113333,19.7333333 C17.8076667,19.9 16.9036667,20 16,20 C15.0963333,20 14.1926667,19.9 13.2886667,19.7333333 C12.753,19.6333333 12.3513333,19.2333333 12.251,18.7 C11.9163333,16.9333333 11.9163333,15.1 12.251,13.3 C12.3513333,12.7666667 12.753,12.3666667 13.2886667,12.2666667 C14.1022667,12.1166667 14.9155967,12.0206667 15.7288997,12.0029667 L16,12 Z" id="â—-icon"></path>
        </g>
    </g>
</svg>