<?xml version="1.0" encoding="UTF-8"?>
<svg width="21px" height="32px" viewBox="0 0 21 32" version="1.1" xmlns="http://www.w3.org/2000/svg" xmlns:xlink="http://www.w3.org/1999/xlink">
    <title>icon/height32/change_contract_01</title>
    <g id="Icons-variable-width---for-Exporting-only" stroke="none" stroke-width="1" fill="none" fill-rule="evenodd">
        <g id="icon-/-32-/-change-contract-01" transform="translate(-7.000000, 0.000000)" fill="#39393A">
            <path d="M18.5,8.25 C18.5,6.73121356 17.2687864,5.5 15.75,5.5 C14.2312136,5.5 13,6.73121356 13,8.25 C13,9.76878644 14.2312136,11 15.75,11 C17.2687864,11 18.5,9.76878644 18.5,8.25 Z M13.5706103,20.9602018 C14.242864,20.805507 15.4370319,21.4518794 17.181375,22.830551 L17.4226528,23.0230842 L17.9042238,23.4173394 C18.2227599,23.6821179 18.2663391,24.1549878 18.0015606,24.4735238 C17.7367821,24.7920599 17.2639122,24.8356391 16.9453762,24.5708606 C16.053919,23.8298498 15.2956654,23.2677521 14.6995407,22.8943057 L14.6103527,22.8409628 C15.1034921,24.938147 16.9870151,26.5 19.2344,26.5 C20.8321884,26.5 22.2949564,25.7053897 23.1740541,24.4049651 C23.406033,24.0618053 23.8722751,23.9716753 24.2154349,24.2036541 C24.5585947,24.435633 24.6487247,24.9018751 24.4167459,25.2450349 C23.2616034,26.9538047 21.3357022,28 19.2344,28 C16.3851043,28 13.9805047,26.0923392 13.2284138,23.4848301 C12.8978673,24.0509655 12.5239395,24.7893857 12.1206757,25.6850189 C11.9506168,26.062713 11.5065753,26.2310346 11.1288811,26.0609757 C10.751187,25.8909168 10.5828654,25.4468753 10.7529243,25.0691811 L11.0125808,24.5038493 C12.0352123,22.3239186 12.8676022,21.1224343 13.5706103,20.9602018 Z M12.75,15 C13.1642136,15 13.5,15.3357864 13.5,15.75 C13.5,16.1642136 13.1642136,16.5 12.75,16.5 C10.4712661,16.5 8.61228036,18.2919642 8.50489948,20.5440358 L8.5,20.75 L8.5,26.75 C8.5,27.1642136 8.16421356,27.5 7.75,27.5 C7.37030423,27.5 7.05650904,27.2178461 7.00684662,26.8517706 L7,26.75 L7,20.75 C7,17.5737864 9.57378644,15 12.75,15 Z M19.2656,15 C22.0676698,15 24.4396626,16.8449474 25.232833,19.3860969 C25.4386742,19.0200259 25.6620591,18.5809794 25.8987044,18.0738979 L26.0422486,17.7615243 L26.3120337,17.149479 C26.4755768,16.7689182 26.9166602,16.5929906 27.297221,16.7565337 C27.6777818,16.9200768 27.8537094,17.3611602 27.6901663,17.741721 C26.8025046,19.8072881 26.0515503,21.1250013 25.3953617,21.6550464 C25.2633662,21.8626409 25.0305241,22 24.7656,22 C24.6158791,22 24.4764048,21.9561288 24.3593311,21.8805402 C23.6606445,21.7192188 22.6531826,21.1195398 21.3268209,20.1106397 L21.0572936,19.903412 L20.5688904,19.5177003 C20.2457484,19.258563 20.1938624,18.7865324 20.4529997,18.4633904 C20.712137,18.1402484 21.1841676,18.0883624 21.5073096,18.3474997 C22.4117292,19.072781 23.1796838,19.6214523 23.7821899,19.9843442 L23.8566181,20.0271375 C23.3169386,17.9967007 21.4656111,16.5 19.2656,16.5 C17.6678116,16.5 16.2050436,17.2946103 15.3259459,18.5950349 C15.093967,18.9381947 14.6277249,19.0283247 14.2845651,18.7963459 C13.9414053,18.564367 13.8512753,18.0981249 14.0832541,17.7549651 C15.2383966,16.0461953 17.1642978,15 19.2656,15 Z M15.75,4 C18.0972136,4 20,5.90278644 20,8.25 C20,10.5972136 18.0972136,12.5 15.75,12.5 C13.4027864,12.5 11.5,10.5972136 11.5,8.25 C11.5,5.90278644 13.4027864,4 15.75,4 Z" id="â—-icon"></path>
        </g>
    </g>
</svg>