<svg xmlns="http://www.w3.org/2000/svg" width="24" height="32" viewBox="0 0 24 32">
  <path fill="#39393A" fill-rule="evenodd" d="M15,21.9099999 C12.167,21.4319999 10,18.9679999 10,15.9999999 C10,13.0319999 12.167,10.5689999 15,10.0899999 L15,5.19099995 C15,4.8937645 14.8677083,4.61194858 14.6390966,4.42198641 C14.410485,4.23202423 14.109216,4.15360586 13.817,4.20799995 C8.24,5.23799995 4,10.1289999 4,15.9999999 C4,21.8709999 8.24,26.7629999 13.817,27.7919999 C14.1093881,27.8464262 14.4108301,27.7678824 14.6394814,27.577694 C14.8681326,27.3875057 15.0002639,27.1054103 15,26.8079999 L15,21.9099999 Z M21.622,13.9089999 C21.865,14.5599999 22,15.2639999 22,15.9999999 C22,18.9669999 19.833,21.4309999 17,21.9099999 L17,26.8089999 C17,27.1062354 17.1322917,27.3880513 17.3609034,27.5780135 C17.589515,27.7679757 17.890784,27.846394 18.183,27.7919999 C23.76,26.7629999 28,21.8709999 28,15.9999999 C28,14.4929999 27.719,13.0499999 27.209,11.7209999 C27.1008642,11.4391487 26.8711899,11.2212318 26.5840501,11.1280424 C26.2969104,11.0348531 25.9830398,11.0763659 25.73,11.2409999 L21.622,13.9089999 Z M20.611,12.1799999 L24.723,9.50999995 C24.9684865,9.35075587 25.1319087,9.09198013 25.1701909,8.80188223 C25.208473,8.51178434 25.1177737,8.21947399 24.922,8.00199995 C23.155898,6.02850003 20.7864142,4.69485232 18.183,4.20899995 C17.8909857,4.15522505 17.5901755,4.23399995 17.362,4.42399995 C17.132912,4.61326107 17.0001863,4.89484505 17,5.19199995 L17,10.0899999 C18.3205726,10.3161912 19.5246367,10.9772119 20.4231964,11.9636739 L20.611,12.1799999 Z" transform="translate(-4)"/>
</svg>
