<svg xmlns="http://www.w3.org/2000/svg" width="26" height="32" viewBox="0 0 26 32">
  <path fill="#39393A" fill-rule="evenodd" d="M21,30 C20.8,30 20.6,29.9 20.4,29.8 L12.7,24 L7,24 C4.8,24 3,22.2 3,20 L3,9 C3,6.8 4.8,5 7,5 L25,5 C27.2,5 29,6.8 29,9 L29,20 C29,22.2 27.2,24 25,24 L22,24 L22,29 C22,29.4 21.8,29.7 21.4,29.9 C21.3,30 21.2,30 21,30 Z M7,7 C5.9,7 5,7.9 5,9 L5,20 C5,21.1 5.9,22 7,22 L13,22 C13.2,22 13.4,22.1 13.6,22.2 L20,27 L20,23 C20,22.4 20.4,22 21,22 L25,22 C26.1,22 27,21.1 27,20 L27,9 C27,7.9 26.1,7 25,7 L7,7 Z" transform="translate(-3)"/>
</svg>
