<svg xmlns="http://www.w3.org/2000/svg" width="32" height="32" viewBox="0 0 32 32">
  <path fill="#39393A" fill-rule="evenodd" d="M16,0 C19.588785,0 23.2772586,0.299531981 26.7663551,0.998439938 C28.8598131,1.39781591 30.5545171,3.09516381 30.953271,5.19188768 C32.3489097,12.2808112 32.3489097,19.6692668 30.953271,26.7581903 C30.5545171,28.8549142 28.8598131,30.5522621 26.7663551,30.9516381 C19.6884735,32.349454 12.3115265,32.349454 5.23364486,30.9516381 C3.14018692,30.5522621 1.44548287,28.8549142 1.04672897,26.7581903 C-0.348909657,19.6692668 -0.348909657,12.2808112 1.04672897,5.19188768 C1.44548287,3.09516381 3.14018692,1.39781591 5.23364486,0.998439938 C8.72274143,0.299531981 12.411215,0 16,0 Z M16,1.99687988 L15.1277259,2.0031779 C11.9293873,2.04957532 8.73104881,2.35465419 5.53271028,2.99531981 C4.39626168,3.2798752 3.34978193,4.19519501 3.07703427,5.39886427 L3.04049844,5.59126365 L2.90183711,6.35753574 C1.746326,13.0053307 1.79254644,19.8245796 3.04049844,26.4586583 C3.32461059,27.5968799 4.23850467,28.6449922 5.44029907,28.9181654 L6.39747727,29.0936358 C13.0349175,30.2509496 19.8435445,30.2046571 26.4672897,28.9547582 C27.6635514,28.6552262 28.7601246,27.6567863 28.9595016,26.3588144 C30.2554517,19.4695788 30.2554517,12.3806552 28.9595016,5.49141966 C28.7696188,4.35034544 27.8563729,3.29983267 26.6503372,3.02987332 L25.5950156,2.82885538 C22.6874351,2.30132316 19.7798546,2.04535737 16.8722741,2.0031779 L16,1.99687988 Z M24.3927447,7.59501389 C24.7506957,7.62758607 25.0634255,7.85062623 25.2112341,8.178764 C25.3590427,8.50690178 25.3190418,8.88932447 25.1065421,9.17965679 L15.6809969,22.4509204 C15.5170914,22.6814873 15.2644882,22.8299655 14.9875359,22.8631834 L14.8675389,22.8702662 C14.668162,22.8702662 14.4657944,22.8103588 14.2903427,22.6855538 L6.96323988,17.4667083 C6.51453002,17.1468828 6.40964471,16.5232944 6.72897196,16.0738846 C7.04829922,15.6244747 7.67091632,15.5194257 8.11962617,15.8392512 L14.6342679,20.4790016 L23.4826168,8.02146646 C23.6870505,7.72538138 24.0347936,7.56244172 24.3927447,7.59501389 Z"/>
</svg>
