<?xml version="1.0" encoding="UTF-8"?>
<svg width="32px" height="32px" viewBox="0 0 32 32" version="1.1" xmlns="http://www.w3.org/2000/svg" xmlns:xlink="http://www.w3.org/1999/xlink">
    <title>icon/height32/checkbox_mixed_inverted</title>
    <g id="Icons-variable-width---for-Exporting-only" stroke="none" stroke-width="1" fill="none" fill-rule="evenodd">
        <g id="â—-icon" fill="#39393A">
            <path d="M16,0 C19.588785,0 23.2772586,0.299531981 26.7663551,0.998439938 C28.8598131,1.39781591 30.5545171,3.09516381 30.953271,5.19188768 C32.3489097,12.2808112 32.3489097,19.6692668 30.953271,26.7581903 C30.5545171,28.8549142 28.8598131,30.5522621 26.7663551,30.9516381 C19.6884735,32.349454 12.3115265,32.349454 5.23364486,30.9516381 C3.14018692,30.5522621 1.44548287,28.8549142 1.04672897,26.7581903 C-0.348909657,19.6692668 -0.348909657,12.2808112 1.04672897,5.19188768 C1.44548287,3.09516381 3.14018692,1.39781591 5.23364486,0.998439938 C8.72274143,0.299531981 12.411215,0 16,0 Z M24.1746725,15 L7.82532751,15 C7.58951847,15 7.39301389,15.0952371 7.23580786,15.2857143 C7.07860183,15.4761914 7,15.7142843 7,16 C7,16.2857157 7.07860183,16.5238086 7.23580786,16.7142857 C7.39301389,16.9047629 7.58951847,17 7.82532751,17 L24.1746725,17 C24.4104815,17 24.6069861,16.9047629 24.7641921,16.7142857 C24.9213982,16.5238086 25,16.2857157 25,16 C25,15.7142843 24.9213982,15.4761914 24.7641921,15.2857143 C24.6069861,15.0952371 24.4104815,15 24.1746725,15 Z"></path>
        </g>
    </g>
</svg>