<?xml version="1.0" encoding="UTF-8"?>
<svg width="32px" height="32px" viewBox="0 0 32 32" version="1.1" xmlns="http://www.w3.org/2000/svg" xmlns:xlink="http://www.w3.org/1999/xlink">
    <title>icon/height32/checkbox</title>
    <g id="Icons-variable-width---for-Exporting-only" stroke="none" stroke-width="1" fill="none" fill-rule="evenodd">
        <g id="icon-/-32-/-checkbox" fill="#39393A">
            <path d="M16,0 C19.588785,0 23.2772586,0.299531981 26.7663551,0.998439938 C28.8598131,1.39781591 30.5545171,3.09516381 30.953271,5.19188768 C32.3489097,12.2808112 32.3489097,19.6692668 30.953271,26.7581903 C30.5545171,28.8549142 28.8598131,30.5522621 26.7663551,30.9516381 C19.6884735,32.349454 12.3115265,32.349454 5.23364486,30.9516381 C3.14018692,30.5522621 1.44548287,28.8549142 1.04672897,26.7581903 C-0.348909657,19.6692668 -0.348909657,12.2808112 1.04672897,5.19188768 C1.44548287,3.09516381 3.14018692,1.39781591 5.23364486,0.998439938 C8.72274143,0.299531981 12.411215,0 16,0 Z M16,1.99687988 C12.5109034,1.99687988 9.02180685,2.29641186 5.53271028,2.99531981 C4.39626168,3.2798752 3.34978193,4.19519501 3.07703427,5.39886427 L3.04049844,5.59126365 L2.90183711,6.35753574 C1.746326,13.0053307 1.79254644,19.8245796 3.04049844,26.4586583 C3.32461059,27.5968799 4.23850467,28.6449922 5.44029907,28.9181654 L6.39747727,29.0936358 C13.0349175,30.2509496 19.8435445,30.2046571 26.4672897,28.9547582 C27.6635514,28.6552262 28.7601246,27.6567863 28.9595016,26.3588144 C30.2554517,19.4695788 30.2554517,12.3806552 28.9595016,5.49141966 C28.7696188,4.35034544 27.8563729,3.29983267 26.6503372,3.02987332 L25.5950156,2.82885538 C22.3966771,2.24856994 19.1983385,1.99687988 16,1.99687988 Z" id="â—-icon"></path>
        </g>
    </g>
</svg>