<svg xmlns="http://www.w3.org/2000/svg" width="24" height="33" viewBox="0 0 24 33">
  <path fill="#39393A" fill-rule="evenodd" d="M27.9892295,9.97059429 C27.9892295,10.1653671 27.9323016,10.3558925 27.8252287,10.5185943 C25.0702287,14.7125943 21.5232287,18.8305943 17.5662287,22.4275943 C16.6694559,23.2314291 15.3115115,23.2318599 14.4142287,22.4285943 C10.4582287,18.8335943 6.91022873,14.7155943 4.15322873,10.5185943 C3.87733386,10.0581439 4.01373911,9.46203547 4.46242042,9.1673871 C4.91110173,8.87273873 5.51232815,8.98444545 5.82522873,9.42059429 C8.49122873,13.4795943 11.9262287,17.4645943 15.7592287,20.9485943 C15.8926932,21.0604085 16.0872507,21.0599864 16.2202287,20.9475943 C20.0552287,17.4625943 23.4902287,13.4765943 26.1532287,9.42059429 C26.395891,9.05089247 26.8525674,8.88447788 27.2761945,9.01138141 C27.66131,9.12674825 27.9359648,9.45961886 27.9822973,9.85143848 L27.9892295,9.97059429 Z" transform="translate(-4 1)"/>
</svg>
