<?xml version="1.0" encoding="UTF-8"?>
<svg width="16px" height="32px" viewBox="0 0 16 32" version="1.1" xmlns="http://www.w3.org/2000/svg" xmlns:xlink="http://www.w3.org/1999/xlink">
    <title>icon/height32/chevron_small_down</title>
    <g id="Icons-variable-width---for-Exporting-only" stroke="none" stroke-width="1" fill="none" fill-rule="evenodd">
        <g id="icon-/-32-/-chevron-small-down" transform="translate(-8.000000, 0.000000)" fill="#39393A">
            <path d="M7.99987235,12.0007888 C7.99931531,11.5612287 8.2858562,11.1728405 8.70600872,11.0436689 C9.12616124,10.9144973 9.5814015,11.0748324 9.82787491,11.4387888 C12.0458749,14.7117888 14.1208749,17.2117888 15.9998724,18.8747888 C17.8808749,17.2097888 19.9558749,14.7097888 22.1718749,11.4387888 C22.4817067,10.9814971 23.1035831,10.8619571 23.5608749,11.1717889 C24.0181667,11.4816206 24.1377066,12.1034971 23.8278749,12.5607888 C21.3788749,16.1757888 19.1618749,18.8087888 17.0508749,20.6107888 C16.4458164,21.1308634 15.5514388,21.1304384 14.9468749,20.6097888 C12.8378749,18.8087888 10.6208749,16.1757888 8.17087491,12.5607888 C8.08150833,12.428492 8.02551399,12.2771918 8.00682987,12.1197862 L7.99987235,12.0007888 Z" id="â—-icon"></path>
        </g>
    </g>
</svg>