<svg xmlns="http://www.w3.org/2000/svg" width="26" height="32" viewBox="0 0 26 32">
  <path fill="#39393A" fill-rule="evenodd" d="M16,3 C23.168,3 29,8.832 29,16 C29,23.168 23.168,29 16,29 C8.832,29 3,23.168 3,16 C3,13.5517793 3.67713574,11.1976052 4.94076775,9.1606775 C4.52149715,9.28609941 4.08069628,9.43439814 3.5875,9.6088 C3.0655,9.7898 2.4965,9.5178 2.3115,8.9978 C2.1275,8.4768 2.4015,7.9058 2.9215,7.7218 C4.2575,7.2508 5.5065,6.8458 7.2685,6.6688 L7.29064826,6.66782712 C7.29432058,6.66753823 7.29799416,6.66726941 7.30166882,6.66702067 L7.2685,6.6688 C7.31206705,6.66479183 7.35539115,6.66365357 7.39825596,6.66524431 C7.42090138,6.66572874 7.44392791,6.66715216 7.46689024,6.6693647 C7.47910402,6.67144388 7.49101986,6.67292604 7.50288478,6.67461711 C7.70706304,6.70057755 7.90438201,6.79060235 8.063,6.944 C8.20229825,7.07873684 8.29407418,7.24412927 8.33798221,7.41922617 C8.34048908,7.42983818 8.34308281,7.44077852 8.3455,7.4518 C8.7205,9.1788 8.7215,10.4918 8.6865,11.9098 C8.6725,12.4528 8.2275,12.8848 7.6865,12.8848 L7.6615,12.8848 C7.1095,12.8708 6.6725,12.4118 6.6865,11.8598 C6.70239124,11.2225613 6.70621709,10.6714639 6.68460075,10.1483931 C5.58746087,11.8877092 5,13.9034232 5,16 C5,22.065 9.935,27 16,27 C22.065,27 27,22.065 27,16 C27,9.935 22.065,5 16,5 C14.442,5 12.937,5.319 11.525,5.948 C11.021,6.175 10.43,5.946 10.205,5.442 C9.979,4.938 10.206,4.347 10.711,4.122 C12.38,3.378 14.159,3 16,3 Z M16,8.002 C16.553,8.002 17,8.449 17,9.002 L16.9992083,15.636 L19.9774,19.1844 C20.3334,19.6074 20.2774,20.2384 19.8544,20.5934 C19.4304,20.9484 18.8004,20.8934 18.4454,20.4694 L15.2344,16.6424 C15.157775,16.5524879 15.0980232,16.4492118 15.0578727,16.3365664 C15.0500515,16.3141664 15.0428736,16.2916425 15.0365206,16.2689562 C15.0317083,16.2518488 15.0273608,16.2343974 15.0234772,16.2167703 C15.0197779,16.2004242 15.0165107,16.183751 15.013674,16.167028 C15.010418,16.1466469 15.0075971,16.1258952 15.0054205,16.1049496 C15.0027239,16.082044 15.0011119,16.0593072 15.0002758,16.0365612 C15.0002281,16.0249288 15,16.0124915 15,16 L15,9.002 C15,8.449 15.447,8.002 16,8.002 Z" transform="translate(-3)"/>
</svg>
