<?xml version="1.0" encoding="UTF-8"?>
<svg width="26px" height="32px" viewBox="0 0 26 32" version="1.1" xmlns="http://www.w3.org/2000/svg" xmlns:xlink="http://www.w3.org/1999/xlink">
    <title>icon/height32/dashboard</title>
    <g id="Icons-variable-width---for-Exporting-only" stroke="none" stroke-width="1" fill="none" fill-rule="evenodd">
        <g id="icon-/-32-/-dashboard" transform="translate(-3.000000, 0.000000)" fill="#39393A">
            <path d="M4.5,6 C5.05228475,6 5.5,6.44771525 5.5,7 L5.5,25 L27.5,25 C28.0522847,25 28.5,25.4477153 28.5,26 C28.5,26.5522847 28.0522847,27 27.5,27 L4.5,27 C3.94771525,27 3.5,26.5522847 3.5,26 L3.5,7 C3.5,6.44771525 3.94771525,6 4.5,6 Z M9.5,13 C10.0522847,13 10.5,13.4477153 10.5,14 L10.5,22 C10.5,22.5522847 10.0522847,23 9.5,23 C8.94771525,23 8.5,22.5522847 8.5,22 L8.5,14 C8.5,13.4477153 8.94771525,13 9.5,13 Z M14.5,17 C15.0522847,17 15.5,17.4477153 15.5,18 L15.5,22 C15.5,22.5522847 15.0522847,23 14.5,23 C13.9477153,23 13.5,22.5522847 13.5,22 L13.5,18 C13.5,17.4477153 13.9477153,17 14.5,17 Z M19.5,10 C20.0522847,10 20.5,10.4477153 20.5,11 L20.5,22 C20.5,22.5522847 20.0522847,23 19.5,23 C18.9477153,23 18.5,22.5522847 18.5,22 L18.5,11 C18.5,10.4477153 18.9477153,10 19.5,10 Z M24.5,13 C25.0522847,13 25.5,13.4477153 25.5,14 L25.5,22 C25.5,22.5522847 25.0522847,23 24.5,23 C23.9477153,23 23.5,22.5522847 23.5,22 L23.5,14 C23.5,13.4477153 23.9477153,13 24.5,13 Z" id="â—-icon"></path>
        </g>
    </g>
</svg>