<?xml version="1.0" encoding="UTF-8"?>
<svg width="26px" height="32px" viewBox="0 0 26 32" version="1.1" xmlns="http://www.w3.org/2000/svg" xmlns:xlink="http://www.w3.org/1999/xlink">
    <title>icon/height32/datepicker</title>
    <g id="Icons-variable-width---for-Exporting-only" stroke="none" stroke-width="1" fill="none" fill-rule="evenodd">
        <g id="icon-/-32-/-datepicker" transform="translate(-3.000000, 0.000000)" fill="#39393A">
            <path d="M17,23 L20,23 L20,20 L17,20 L17,23 Z M17,18 L20,18 L20,15 L17,15 L17,18 Z M12,23 L15,23 L15,20 L12,20 L12,23 Z M12,18 L15,18 L15,15 L12,15 L12,18 Z M22,23 L25,23 L25,20 L22,20 L22,23 Z M29,8 C29,6.9 28.1,6 27,6 L23,6 L23,4 C23,3.4 22.6,3 22,3 C21.4,3 21,3.4 21,4 L21,6 L11,6 L11,4 C11,3.4 10.6,3 10,3 C9.4,3 9,3.4 9,4 L9,6 L5,6 C3.9,6 3,6.9 3,8 L3,25 C3,26.1 3.9,27 5,27 L27,27 C28.1,27 29,26.1 29,25 L29,8 Z M27,25 L5,25 L5,8 L27,8 L27,25 Z M22,18 L25,18 L25,15 L22,15 L22,18 Z M10,20 L7,20 L7,23 L10,23 L10,20 Z M10,15 L7,15 L7,18 L10,18 L10,15 Z M25,10 L7,10 L7,13 L25,13 L25,10 Z" id="â—-icon"></path>
        </g>
    </g>
</svg>