<?xml version="1.0" encoding="UTF-8"?>
<svg width="24px" height="32px" viewBox="0 0 24 32" version="1.1" xmlns="http://www.w3.org/2000/svg" xmlns:xlink="http://www.w3.org/1999/xlink">
    <title>icon/height32/download</title>
    <g id="Icons-variable-width---for-Exporting-only" stroke="none" stroke-width="1" fill="none" fill-rule="evenodd">
        <g id="icon-/-32-/-download" transform="translate(-4.000000, 0.000000)" fill="#39393A">
            <path d="M27,20.002 C27.5522847,20.002 28,20.4497153 28,21.002 L28,25.002 C28,27.208 26.206,29.002 24,29.002 L8,29.002 C5.794,29.002 4,27.208 4,25.002 L4,21.002 C4,20.4497153 4.44771525,20.002 5,20.002 C5.55228475,20.002 6,20.4497153 6,21.002 L6,25.002 C6,26.105 6.897,27.002 8,27.002 L24,27.002 C25.103,27.002 26,26.105 26,25.002 L26,21.002 C26,20.4497153 26.4477153,20.002 27,20.002 Z M15.992,2 C16.5048358,2 16.9275072,2.38604019 16.9852723,2.88337887 L16.992,3 L16.992,18.13 C18.946,16.486 21.03,14.25 23.207,11.452 C23.4232911,11.1610902 23.7800806,11.0100132 24.1395094,11.0571434 C24.4989383,11.1042735 24.8047158,11.3422296 24.9386933,11.6790684 C25.0726708,12.0159072 25.0138659,12.3988759 24.785,12.68 C22.059,16.183 19.446,18.869 17.019,20.662 C16.4127603,21.1155022 15.5802397,21.1155022 14.974,20.662 C12.6644762,18.9572381 10.1844308,16.4406848 7.59606025,13.1762641 L7.207,12.681 L7.12919129,12.5710935 C6.96644513,12.3048545 6.93607639,11.9748024 7.0533067,11.6800684 C7.18728419,11.3432296 7.4930617,11.1052735 7.85249055,11.0581434 C8.21191941,11.0110132 8.56870891,11.1620902 8.785,11.453 C10.825,14.0733125 12.7815039,16.2005586 14.6248486,17.8091951 L14.992,18.124 L14.992,3 C14.992,2.44771525 15.4397153,2 15.992,2 Z" id="â—-icon"></path>
        </g>
    </g>
</svg>