<?xml version="1.0" encoding="UTF-8"?>
<svg width="16px" height="32px" viewBox="0 0 16 32" version="1.1" xmlns="http://www.w3.org/2000/svg" xmlns:xlink="http://www.w3.org/1999/xlink">
    <title>icon/height32/edit_no_line</title>
    <g id="Icons-variable-width---for-Exporting-only" stroke="none" stroke-width="1" fill="none" fill-rule="evenodd">
        <g id="icon-/-32-/-edit-no-line" transform="translate(-8.000000, 0.000000)" fill="#39393A">
            <path d="M18.951334,7.198 L21.549334,8.698 L20.549334,10.429 L17.951334,8.929 L18.951334,7.198 Z M13.049334,23.42 L10.451334,21.92 L16.951334,10.662 L19.549334,12.162 L13.049334,23.42 Z M8.75033403,27.866 C8.90433403,27.955 9.07733403,28 9.25033403,28 C9.41133403,28 9.57233403,27.961 9.71933403,27.883 L13.884334,25.669 C14.050334,25.581 14.187334,25.448 14.281334,25.286 L23.781334,8.832 C23.914334,8.602 23.949334,8.329 23.881334,8.073 C23.812334,7.817 23.644334,7.598 23.415334,7.466 L19.085334,4.966 C18.607334,4.689 17.994334,4.852 17.719334,5.332 L8.21933403,21.786 C8.12533403,21.948 8.07933403,22.134 8.08533403,22.321 L8.25033403,27.035 C8.26170903,27.336875 8.4070684,27.61425 8.64353715,27.7947734 L8.75033403,27.866 Z" id="â—-icon"></path>
        </g>
    </g>
</svg>