<?xml version="1.0" encoding="UTF-8"?>
<svg width="22px" height="32px" viewBox="0 0 22 32" version="1.1" xmlns="http://www.w3.org/2000/svg" xmlns:xlink="http://www.w3.org/1999/xlink">
    <title>icon/height32/equal_sign</title>
    <g id="Icons-variable-width---for-Exporting-only" stroke="none" stroke-width="1" fill="none" fill-rule="evenodd">
        <g id="icon-/-32-/-equal-sign" transform="translate(-5.000000, 0.000000)" fill="#39393A">
            <path d="M26,19.5 L6,19.5 C5.4,19.5 5,19.9 5,20.5 C5,21.1 5.4,21.5 6,21.5 L26,21.5 C26.6,21.5 27,21.1 27,20.5 C27,19.9 26.6,19.5 26,19.5 Z M26,10.5 L6,10.5 C5.4,10.5 5,10.9 5,11.5 C5,12.1 5.4,12.5 6,12.5 L26,12.5 C26.6,12.5 27,12.1 27,11.5 C27,10.9 26.6,10.5 26,10.5 Z" id="â—-icon"></path>
        </g>
    </g>
</svg>