<?xml version="1.0" encoding="UTF-8"?>
<svg width="24px" height="32px" viewBox="0 0 24 32" version="1.1" xmlns="http://www.w3.org/2000/svg" xmlns:xlink="http://www.w3.org/1999/xlink">
    <title>icon/height32/filter</title>
    <g id="Icons-variable-width---for-Exporting-only" stroke="none" stroke-width="1" fill="none" fill-rule="evenodd">
        <g id="icon-/-32-/-filter" transform="translate(-4.000000, 0.000000)" fill="#39393A">
            <path d="M27,15 L23.9,15 C23.3,12.9 21.1,11.6 19,12.2 C17.6,12.6 16.6,13.6 16.2,15 L5,15 C4.4,15 4,15.4 4,16 C4,16.6 4.4,17 5,17 L16.1,17 C16.7,19.1 18.9,20.4 21,19.8 C22.4,19.4 23.4,18.4 23.8,17 L27,17 C27.6,17 28,16.6 28,16 C28,15.4 27.6,15 27,15 Z M20,18 C18.9,18 18,17.1 18,16 C18,14.9 18.9,14 20,14 C21.1,14 22,14.9 22,16 C22,17.1 21.1,18 20,18 Z M27,24 L18.9,24 C18.3,21.9 16.1,20.6 14,21.2 C12.6,21.6 11.6,22.6 11.2,24 L5,24 C4.4,24 4,24.4 4,25 C4,25.6 4.4,26 5,26 L11.1,26 C11.7,28.1 13.9,29.4 16,28.8 C17.4,28.4 18.4,27.4 18.8,26 L27,26 C27.6,26 28,25.6 28,25 C28,24.4 27.6,24 27,24 Z M15,27 C13.9,27 13,26.1 13,25 C13,23.9 13.9,23 15,23 C16.1,23 17,23.9 17,25 C17,26.1 16.1,27 15,27 Z M5,8 L8.1,8 C8.7,10.1 10.9,11.4 13,10.8 C14.4,10.4 15.4,9.4 15.8,8 L27,8 C27.6,8 28,7.6 28,7 C28,6.4 27.6,6 27,6 L15.9,6 C15.3,3.9 13.1,2.6 11,3.2 C9.6,3.6 8.6,4.6 8.2,6 L5,6 C4.4,6 4,6.4 4,7 C4,7.6 4.4,8 5,8 Z M12,5 C13.1,5 14,5.9 14,7 C14,8.1 13.1,9 12,9 C10.9,9 10,8.1 10,7 C10,5.9 10.9,5 12,5 Z" id="â—-icon"></path>
        </g>
    </g>
</svg>