<svg xmlns="http://www.w3.org/2000/svg" width="26" height="32" viewBox="0 0 26 32">
  <path fill="#39393A" fill-rule="evenodd" d="M6.2495,9.1205 L14.9165,14.1235 C15.5865,14.5105 15.9995,15.2265 15.9995,15.9995 C15.9995,16.7735 15.5865,17.4895 14.9165,17.8755 L6.2495,22.8795 C5.5795,23.2675 4.7535,23.2675 4.0835,22.8795 C3.4135,22.4935 2.9995,21.7775 2.9995,21.0035 L2.9995,10.9965 C2.9995,10.2225 3.4135,9.5065 4.0835,9.1205 C4.7535,8.7325 5.5795,8.7325 6.2495,9.1205 Z M19.25,9.1205 L27.917,14.1235 C28.587,14.5105 29,15.2265 29,15.9995 C29,16.7735 28.587,17.4895 27.917,17.8755 L19.25,22.8795 C18.58,23.2675 17.754,23.2675 17.083,22.8795 C16.413,22.4935 16,21.7775 16,21.0035 L16,10.9965 C16,10.2225 16.413,9.5065 17.083,9.1205 C17.754,8.7325 18.58,8.7325 19.25,9.1205 Z" transform="translate(-3)"/>
</svg>
