<?xml version="1.0" encoding="UTF-8"?>
<svg width="24px" height="32px" viewBox="0 0 24 32" version="1.1" xmlns="http://www.w3.org/2000/svg" xmlns:xlink="http://www.w3.org/1999/xlink">
    <title>icon/height32/fullscreen_enter</title>
    <g id="Icons-variable-width---for-Exporting-only" stroke="none" stroke-width="1" fill="none" fill-rule="evenodd">
        <g id="icon-/-32-/-fullscreen-enter" transform="translate(-4.000000, 0.000000)" fill="#39393A">
            <path d="M21.1,5.99234281 C20.6,5.89234281 20.2,5.49234281 20.2,4.99234281 C20.2,4.39234281 20.6,3.99234281 21.2,3.99234281 L21.3,3.99234281 C22.3,4.09234281 23.3,4.29234281 24.3,4.49234281 C25.9,4.79234281 27.1,6.09234281 27.5,7.69234281 C27.7,8.69234281 27.8,9.69234281 28,10.6923428 C28.1,11.1923428 27.7,11.6923428 27.1,11.7923428 L27,11.7923428 C26.5,11.7923428 26.1,11.3923428 26,10.8923428 C25.9,9.89234281 25.7,8.99234281 25.6,7.99234281 C25.4,7.29234281 24.8,6.69234281 24.1,6.49234281 L22.7723032,6.24307168 C22.2102041,6.13928159 21.6714286,6.04948567 21.1,5.99234281 Z M6,10.8923428 C6.1,9.89234281 6.3,8.99234281 6.4,7.99234281 C6.58666667,7.24567615 7.12177778,6.6732317 7.84272593,6.51892059 L8,6.49234281 C9,6.29234281 9.9,6.19234281 10.9,6.09234281 C11.4,5.99234281 11.8,5.59234281 11.8,5.09234281 C11.8,4.49234281 11.4,4.09234281 10.8,4.09234281 L10.7,4.09234281 C9.7,4.19234281 8.7,4.39234281 7.7,4.59234281 C6.1,4.89234281 4.8,6.19234281 4.5,7.79234281 C4.3,8.79234281 4.2,9.79234281 4,10.7923428 C3.9,11.2923428 4.3,11.7923428 4.9,11.8923428 L5,11.8923428 C5.5,11.7923428 5.9,11.3923428 6,10.8923428 Z M10.9,25.9923428 C9.9,25.8923428 9,25.6923428 8,25.4923428 C7.25333333,25.3056761 6.68088889,24.770565 6.52657778,24.1309206 L6.5,23.9923428 C6.3,22.9923428 6.2,22.0923428 6.1,21.0923428 C6,20.5923428 5.6,20.1923428 5.1,20.1923428 C4.5,20.1923428 4.1,20.5923428 4.1,21.1923428 L4.1,21.2923428 C4.2,22.2923428 4.4,23.2923428 4.6,24.2923428 C4.9,25.8923428 6.2,27.0923428 7.8,27.4923428 C8.8,27.6923428 9.8,27.7923428 10.8,27.9923428 C11.3,28.0923428 11.8,27.6923428 11.9,27.0923428 L11.9,26.9923428 C11.8,26.3923428 11.4,25.9923428 10.9,25.9923428 Z M26,21.0923428 C25.9,22.0923428 25.7,22.9923428 25.6,23.9923428 C25.4133333,24.7390095 24.8782222,25.3114539 24.1572741,25.465765 L24,25.4923428 C23,25.6923428 22.1,25.7923428 21.1,25.9923428 C20.6,26.0923428 20.2,26.4923428 20.2,26.9923428 C20.2,27.5923428 20.6,27.9923428 21.2,27.9923428 L21.3,27.9923428 C22.3,27.8923428 23.3,27.6923428 24.3,27.4923428 C25.9,27.1923428 27.1,25.8923428 27.5,24.2923428 C27.66,23.4923428 27.82,22.6923428 27.9288,21.8923428 L28,21.2923428 C28.1,20.7923428 27.7,20.2923428 27.1,20.1923428 L27,20.1923428 C26.5,20.1923428 26,20.5923428 26,21.0923428 Z" id="â—-icon"></path>
        </g>
    </g>
</svg>