<svg xmlns="http://www.w3.org/2000/svg" width="20" height="32" viewBox="0 0 20 32">
  <path fill="#39393A" fill-rule="evenodd" d="M25.1,11.8 C25.6,11.9 26,12.3 26,12.8 C26,13.4 25.6,13.8 25,13.8 L24.9,13.8 C23.9,13.7 22.9,13.5 21.9,13.3 C20.3,13 19.1,11.7 18.7,10.1 C18.5,9.1 18.3,8.1 18.2,7.1 C18.1,6.6 18.5,6.1 19.1,6 L19.2,6 C19.7,6 20.1,6.4 20.2,6.9 C20.3,7.9 20.5,8.8 20.7,9.8 C20.9,10.6 21.5,11.2 22.2,11.3 C23.2,11.6 24.2,11.7 25.1,11.8 Z M11.8,6.9 C11.7,7.9 11.5,8.8 11.3,9.8 C11.1,10.6 10.5,11.2 9.8,11.3 C8.8,11.5 7.9,11.6 6.9,11.8 C6.4,11.9 6,12.3 6,12.8 C6,13.4 6.4,13.8 7,13.8 L7.1,13.8 C8.1,13.7 9.1,13.5 10.1,13.3 C11.7,13 13,11.7 13.3,10.1 C13.46,9.3 13.62,8.5 13.7288,7.7 L13.8,7.1 C13.9,6.6 13.5,6.1 12.9,6 L12.8,6 C12.3,6 11.8,6.4 11.8,6.9 Z M6.9,20.2 C7.9,20.3 8.8,20.5 9.8,20.7 C10.5466667,20.8866667 11.1191111,21.4217778 11.2734222,22.0614222 L11.3,22.2 C11.5,23.2 11.6,24.1 11.8,25.1 C11.9,25.6 12.3,26 12.8,26 C13.4,26 13.8,25.6 13.8,25 L13.8,24.9 C13.7,23.9 13.5,22.9 13.3,21.9 C13,20.3 11.7,19.1 10.1,18.7 C9.1,18.5 8.1,18.3 7.1,18.2 C6.6,18.1 6.1,18.5 6,19.1 L6,19.2 C6,19.8 6.4,20.2 6.9,20.2 Z M20.2,25.1 C20.3,24.1 20.5,23.2 20.7,22.2 C20.8866667,21.4533333 21.4217778,20.8808889 22.0614222,20.7265778 L22.2,20.7 C23.2,20.5 24.1,20.4 25.1,20.2 C25.6,20.1 26,19.7 26,19.2 C26,18.6 25.6,18.2 25,18.2 L24.9,18.2 C23.9,18.3 22.9,18.5 21.9,18.7 C20.3,19 19,20.3 18.7,21.9 C18.5,22.9 18.3,23.9 18.2,24.9 C18.1,25.4 18.5,25.9 19.1,26 L19.2,26 C19.7,26 20.2,25.6 20.2,25.1 Z" transform="translate(-6)"/>
</svg>
