<svg xmlns="http://www.w3.org/2000/svg" width="24" height="32" viewBox="0 0 24 32">
  <path fill="#39393A" fill-rule="evenodd" d="M24.707,4.293125 C26.411,5.997125 27.348,8.271125 27.277,10.531125 C27.2173158,12.4343882 26.5069391,14.2667483 25.045538,16.2705322 L24.795,16.606125 C23.468,18.336125 22.771,19.992125 22.722,21.532125 C22.669,23.242125 23.393,24.978125 24.707,26.293125 C25.098,26.684125 25.098,27.316125 24.707,27.707125 C24.512,27.902125 24.256,28.000125 24,28.000125 C23.744,28.000125 23.488,27.902125 23.293,27.707125 C21.589,26.003125 20.652,23.729125 20.723,21.469125 C20.7826842,19.6056513 21.5352438,17.6730696 22.962823,15.7172944 L23.207,15.391125 C24.57,13.604125 25.229,12.040125 25.277,10.469125 C25.331,8.758125 24.607,7.022125 23.293,5.707125 C22.902,5.316125 22.902,4.684125 23.293,4.293125 C23.684,3.902125 24.316,3.902125 24.707,4.293125 Z M16.707,4.293125 C18.411,5.997125 19.348,8.271125 19.277,10.531125 C19.2173158,12.4343882 18.5069391,14.2667483 17.045538,16.2705322 L16.795,16.606125 C15.468,18.336125 14.771,19.992125 14.722,21.532125 C14.668,23.242125 15.392,24.978125 16.707,26.293125 C17.098,26.684125 17.098,27.316125 16.707,27.707125 C16.512,27.902125 16.256,28.000125 16,28.000125 C15.744,28.000125 15.488,27.902125 15.293,27.707125 C13.589,26.003125 12.652,23.729125 12.723,21.469125 C12.7826842,19.6056513 13.5361413,17.6730696 14.9629647,15.7172944 L15.207,15.391125 C16.57,13.604125 17.229,12.040125 17.277,10.469125 C17.331,8.758125 16.608,7.022125 15.293,5.707125 C14.902,5.316125 14.902,4.684125 15.293,4.293125 C15.684,3.902125 16.316,3.902125 16.707,4.293125 Z M8.707,4.293125 C10.411,5.997125 11.348,8.271125 11.277,10.531125 C11.2173158,12.4343882 10.5060416,14.2667483 9.04539627,16.2705322 L8.795,16.606125 C7.468,18.336125 6.771,19.992125 6.722,21.532125 C6.668,23.242125 7.392,24.978125 8.707,26.293125 C9.098,26.684125 9.098,27.316125 8.707,27.707125 C8.512,27.902125 8.256,28.000125 8,28.000125 C7.744,28.000125 7.488,27.902125 7.293,27.707125 C5.589,26.003125 4.652,23.729125 4.723,21.469125 C4.78268421,19.6056513 5.53614127,17.6730696 6.96296472,15.7172944 L7.207,15.391125 C8.57,13.604125 9.229,12.040125 9.278,10.469125 C9.332,8.758125 8.608,7.022125 7.293,5.707125 C6.902,5.316125 6.902,4.684125 7.293,4.293125 C7.684,3.902125 8.316,3.902125 8.707,4.293125 Z" transform="translate(-4)"/>
</svg>
