<?xml version="1.0" encoding="UTF-8"?>
<svg width="24px" height="32px" viewBox="0 0 24 32" version="1.1" xmlns="http://www.w3.org/2000/svg" xmlns:xlink="http://www.w3.org/1999/xlink">
    <title>icon/height32/info</title>
    <g id="Icons-variable-width---for-Exporting-only" stroke="none" stroke-width="1" fill="none" fill-rule="evenodd">
        <g id="icon-/-32-/-info" transform="translate(-4.000000, 0.000000)" fill="#39393A">
            <path d="M27.2468619,7.9 C26.9456067,6.3 25.7405858,5.1 24.1338912,4.8 C21.4225941,4.3 18.7112971,4 16,4 C13.2887029,4 10.5774059,4.3 7.86610879,4.8 C6.25941423,5.1 5.05439331,6.3 4.75313808,7.9 C3.74895397,13.3 3.74895397,18.8 4.75313808,24.1 C5.05439331,25.7 6.25941423,26.9 7.86610879,27.2 C10.5774059,27.7 13.2887029,28 16,28 C18.7112971,28 21.4225941,27.7 24.1338912,27.2 C25.7405858,26.9 26.9456067,25.7 27.2468619,24.1 C28.251046,18.8 28.251046,13.2 27.2468619,7.9 Z M17,22 C17,22.5 16.5,23 16,23 C15.5,23 15,22.5 15,22 L15,15 C15,14.5 15.5,14 16,14 C16.5,14 17,14.5 17,15 L17,22 Z M16,12 C15.2,12 14.5,11.3 14.5,10.5 C14.5,9.7 15.2,9 16,9 C16.8,9 17.5,9.7 17.5,10.5 C17.5,11.3 16.8,12 16,12 Z" id="â—-icon"></path>
        </g>
    </g>
</svg>