<?xml version="1.0" encoding="UTF-8"?>
<svg width="22px" height="32px" viewBox="0 0 22 32" version="1.1" xmlns="http://www.w3.org/2000/svg" xmlns:xlink="http://www.w3.org/1999/xlink">
    <title>icon/height32/lock</title>
    <g id="Icons-variable-width---for-Exporting-only" stroke="none" stroke-width="1" fill="none" fill-rule="evenodd">
        <g id="icon-/-32-/-lock" transform="translate(-5.000000, 0.000000)" fill="#39393A">
            <path d="M25,12 L23,12 L23,10 C23,6.1 19.9,3 16,3 C12.1,3 9,6.1 9,10 L9,12 L7,12 C5.9,12 5,12.9 5,14 L5,27 C5,28.1 5.9,29 7,29 L25,29 C26.1,29 27,28.1 27,27 L27,14 C27,12.9 26.1,12 25,12 Z M11,10 C11,7.2 13.2,5 16,5 C18.8,5 21,7.2 21,10 L21,12 L11,12 L11,10 Z M25,27 L7,27 L7,14 L25,14 L25,27 Z M17,18 L17,23 L15,23 L15,18 L17,18 Z" id="â—-icon"></path>
        </g>
    </g>
</svg>