<svg xmlns="http://www.w3.org/2000/svg" width="18" height="32" viewBox="0 0 18 32">
  <path fill="#39393A" fill-rule="evenodd" d="M8,15 L24,15 C24.5522847,15 25,15.4477153 25,16 C25,16.5522847 24.5522847,17 24,17 L8,17 C7.44771525,17 7,16.5522847 7,16 C7,15.4477153 7.44771525,15 8,15 Z M8,21 L24,21 C24.5522847,21 25,21.4477153 25,22 C25,22.5522847 24.5522847,23 24,23 L8,23 C7.44771525,23 7,22.5522847 7,22 C7,21.4477153 7.44771525,21 8,21 Z M8,9 L24,9 C24.5522847,9 25,9.44771525 25,10 C25,10.5522847 24.5522847,11 24,11 L8,11 C7.44771525,11 7,10.5522847 7,10 C7,9.44771525 7.44771525,9 8,9 Z" transform="translate(-7)"/>
</svg>
