<?xml version="1.0" encoding="UTF-8"?>
<svg width="26px" height="33px" viewBox="0 0 26 33" version="1.1" xmlns="http://www.w3.org/2000/svg" xmlns:xlink="http://www.w3.org/1999/xlink">
    <title>icon/height32/messenger_01</title>
    <g id="Icons-variable-width---for-Exporting-only" stroke="none" stroke-width="1" fill="none" fill-rule="evenodd">
        <g id="icon-/-32-/-messenger-01" transform="translate(-3.000000, 0.000000)" fill="#39393A">
            <path d="M8.5,8 L8.5,16 C8.5,18.4142733 10.4012365,20.3844891 12.7881643,20.495102 L13,20.5 L16.8333333,20.5 L18.833,22 L13.6666667,22 L8.6,25.8 C7.94076375,26.2944272 7,25.8240453 7,25 L7,22 L6,22 C4.34314575,22 3,20.6568542 3,19 L3,11 C3,9.34314575 4.34314575,8 6,8 L8.5,8 Z M26,5 C27.6568542,5 29,6.34314575 29,8 L29,16 C29,17.6568542 27.6568542,19 26,19 L24,19 L24,22 C24,22.8240453 23.0592363,23.2944272 22.4,22.8 L17.3333333,19 L13,19 C11.3431458,19 10,17.6568542 10,16 L10,8 C10,6.34314575 11.3431458,5 13,5 L26,5 Z M26,7 L13,7 C12.4477153,7 12,7.44771525 12,8 L12,16 C12,16.5522847 12.4477153,17 13,17 L17.6666667,17 C17.8830369,17 18.0935705,17.0701779 18.2666667,17.2 L22,20 L22,18 C22,17.4477153 22.4477153,17 23,17 L26,17 C26.5522847,17 27,16.5522847 27,16 L27,8 C27,7.44771525 26.5522847,7 26,7 Z M18.9832581,14.0861698 C19.1792272,14.0861698 19.3585508,14.1298496 19.5121386,14.2077651 C19.844932,14.3777624 20.0587272,14.7094932 20.0587272,15.1144174 C20.0587272,15.5110778 19.844932,15.8404476 19.5121386,16.0080838 C19.3585508,16.0859993 19.1792272,16.1296791 18.9832581,16.1296791 C18.3550944,16.1296791 17.9066084,15.6952416 17.9066084,15.1144174 C17.9066084,14.5217879 18.3550944,14.0861698 18.9832581,14.0861698 Z M19.0552708,7.76203357 C20.72455,7.76203357 21.619397,8.73007383 21.619397,9.93894362 C21.619397,11.547189 20.014746,11.9546897 19.8542809,13.0703848 L19.8413903,13.2527107 L18.101397,13.2527107 C18.101397,12.1489087 18.7871709,11.5598208 19.3126279,11.023857 C19.638338,10.6909456 19.9028963,10.3781034 19.9028963,9.97554027 C19.9028963,9.60012953 19.6489628,9.32270336 19.1650608,9.32270336 C18.6179091,9.32270336 18.4109533,9.62145604 18.3823516,9.88654971 L18.3788232,9.95192953 L16.7343353,9.77012685 L16.7355158,9.72408591 C16.7544044,8.70174095 17.4119635,7.76203357 19.0552708,7.76203357 Z" id="â—-icon"></path>
        </g>
    </g>
</svg>