<?xml version="1.0" encoding="UTF-8"?>
<svg width="24px" height="32px" viewBox="0 0 24 32" version="1.1" xmlns="http://www.w3.org/2000/svg" xmlns:xlink="http://www.w3.org/1999/xlink">
    <title>icon/height32/pages</title>
    <g id="Icons-variable-width---for-Exporting-only" stroke="none" stroke-width="1" fill="none" fill-rule="evenodd">
        <g id="icon-/-32-/-pages" transform="translate(-4.000000, 0.000000)" fill="#39393A">
            <path d="M26,2 L6,2 C4.9,2 4,2.9 4,4 L4,28 C4,29.1 4.9,30 6,30 L26,30 C27.1,30 28,29.1 28,28 L28,4 C28,2.9 27.1,2 26,2 Z M26,28 L9,28 L9,4 L26,4 L26,28 Z M12,9 L23,9 L23,11 L12,11 L12,9 Z M12,15 L23,15 L23,17 L12,17 L12,15 Z" id="â—-icon"></path>
        </g>
    </g>
</svg>