<?xml version="1.0" encoding="UTF-8"?>
<svg width="24px" height="32px" viewBox="0 0 24 32" version="1.1" xmlns="http://www.w3.org/2000/svg" xmlns:xlink="http://www.w3.org/1999/xlink">
    <title>icon/height32/password_visible</title>
    <g id="Icons-variable-width---for-Exporting-only" stroke="none" stroke-width="1" fill="none" fill-rule="evenodd">
        <g id="icon-/-32-/-password-visible" transform="translate(-4.000000, 0.000000)" fill="#39393A">
            <path d="M16,8 C24,8 28,16 28,16 C28,16 27.9988889,16.0022222 27.9966667,16.0065926 L27.97,16.058 C27.59,16.78 23.6,24 16,24 C8.4,24 4.41,16.78 4.03,16.058 L4,16 C4,16 4.00111111,15.9977778 4.00333333,15.9934074 L4.03,15.942 C4.41,15.22 8.4,8 16,8 Z M16,10.5 C12.962,10.5 10.5,12.962 10.5,16 C10.5,19.037 12.962,21.5 16,21.5 C19.037,21.5 21.5,19.037 21.5,16 C21.5,12.962 19.037,10.5 16,10.5 Z M16,12.5 C17.933,12.5 19.5,14.067 19.5,16 C19.5,17.933 17.933,19.5 16,19.5 C14.067,19.5 12.5,17.933 12.5,16 C12.5,14.067 14.067,12.5 16,12.5 Z" id="â—-icon"></path>
        </g>
    </g>
</svg>