<svg xmlns="http://www.w3.org/2000/svg" width="24" height="32" viewBox="0 0 24 32">
  <path fill="#39393A" fill-rule="evenodd" d="M26.5058742,5.3036895 L26.6131225,5.39991871 C27.0036465,5.79044301 27.0036465,6.42360791 26.6131225,6.81413221 L23.2329707,10.195609 C25.1421218,11.6450596 26.6395908,13.6548079 27.5,16.0000001 C25.722727,20.8442611 21.227273,24.2572631 16,24.2572631 C14.0329673,24.2572631 12.1695625,23.7739714 10.5156298,22.9129862 L6.8141325,26.6131221 C6.45364788,26.9736058 5.88641676,27.0013353 5.49412578,26.6963107 L5.3868775,26.6000811 C4.9963535,26.2095571 4.9963535,25.5763921 5.3868775,25.1858681 L8.76702926,21.804391 C6.85787824,20.3549406 5.36040922,18.3451923 4.5,16.0000001 C6.277273,11.1557391 10.772727,7.74273681 16,7.74273681 C17.9670327,7.74273681 19.8304375,8.22602855 21.4843702,9.0870138 L25.1858675,5.38687811 C25.5463521,5.02639414 26.1135832,4.99866461 26.5058742,5.3036895 Z M20.4134812,13.0136719 L18.8449421,14.5834091 C19.0326077,15.0084864 19.136364,15.4875867 19.136364,16.0000001 C19.136364,17.8545455 17.777273,19.2727274 16,19.2727274 C15.4594639,19.2727274 14.9576095,19.1415458 14.5209073,18.9068037 L12.9396456,20.4885211 C13.7292003,21.0810008 14.6880289,21.4456495 15.7361545,21.4982435 L16,21.5048421 L16.213047,21.500545 C19.0380999,21.3862965 21.227273,19.007524 21.227273,16.0000001 C21.227273,14.8919424 20.9301155,13.8692311 20.4134812,13.0136719 Z M16,10.4951581 C13.072727,10.4951581 10.772727,12.9172881 10.772727,16.0000001 C10.772727,17.1080578 11.0698845,18.1307691 11.5865188,18.9863283 L13.1550579,17.4165911 C12.9673923,16.9915138 12.863636,16.5124135 12.863636,16.0000001 C12.863636,14.1454546 14.222727,12.7272728 16,12.7272728 C16.5405361,12.7272728 17.0423905,12.8584545 17.4790927,13.0931965 L19.0603544,11.5114792 C18.2050035,10.8696261 17.1509908,10.4951581 16,10.4951581 Z" transform="translate(-4)"/>
</svg>
