<?xml version="1.0" encoding="UTF-8"?>
<svg width="28px" height="32px" viewBox="0 0 28 32" version="1.1" xmlns="http://www.w3.org/2000/svg" xmlns:xlink="http://www.w3.org/1999/xlink">
    <title>icon/height32/payment</title>
    <g id="Icons-variable-width---for-Exporting-only" stroke="none" stroke-width="1" fill="none" fill-rule="evenodd">
        <g id="icon-/-32-/-payment" transform="translate(-2.000000, 0.000000)" fill="#39393A">
            <path d="M21,28 C16.453,28 14,26.58 14,26 L14,24.6 C15.736,25.522 18.374,26 21,26 C23.626,26 26.264,25.522 28,24.6 L28,26 C28,26.5651282 25.6711821,27.9277318 21.345633,27.9972373 L21,28 Z M4,23 L4,21.6 C5.736,22.522 8.374,23 11,23 C11.337,23 11.666,22.968 12,22.952 L12,24.953 L11.3348148,24.9915926 C11.2237778,24.9966667 11.1123333,25 11,25 C6.56958974,25 4.1271716,23.6518869 4.00483221,23.0462341 L4,23 Z M4,17.6 C5.736,18.522 8.374,19 11,19 C13.626,19 16.264,18.522 18,17.6 L18,18.215 C15.325,18.603 13.046,19.521 12.282,20.939 C11.856,20.967 11.432,21 11,21 C6.453,21 4,19.58 4,19 L4,17.6 Z M4,13.6 C5.736,14.522 8.374,15 11,15 C13.626,15 16.264,14.522 18,13.6 L18,15 C18,15.581 15.547,17 11,17 C6.453,17 4,15.581 4,15 L4,13.6 Z M4,9.6 C5.736,10.522 8.374,11 11,11 C13.626,11 16.264,10.522 18,9.6 L18,11 C18,11.581 15.547,13 11,13 C6.453,13 4,11.581 4,11 L4,9.6 Z M11,5 C15.547,5 18,6.419 18,7 C18,7.581 15.547,9 11,9 C6.453,9 4,7.581 4,7 C4,6.43389744 6.32881788,5.07221828 10.654367,5.00276077 L11,5 Z M28,22 C28,22.58 25.547,24 21,24 C16.453,24 14,22.58 14,22 C14,21.42 16.453,20 21,20 C25.4304103,20 27.8728284,21.3481131 27.9951678,21.9537659 L28,22 Z M21,18 C20.665,18 20.33,18.01 19.996,18.025 L19.997,15.023 C19.997,15.016 20,15.008 20,15 L19.997,15 L20,7 C20,4.42870833 15.6596602,3.0577934 11.2795914,3.00178796 L11,3 C6.527,3 2,4.374 2,7 L2,23 C2,25.626 6.527,27 11,27 C11.409,27 11.809,26.965 12.213,26.942 C13.155,28.953 17.098,30 21,30 C25.473,30 30,28.626 30,26 L30,22 C30,19.4287083 25.6596602,18.0577934 21.2795914,18.001788 L21,18 Z" id="â—-icon"></path>
        </g>
    </g>
</svg>