<?xml version="1.0" encoding="UTF-8"?>
<svg width="26px" height="32px" viewBox="0 0 26 32" version="1.1" xmlns="http://www.w3.org/2000/svg" xmlns:xlink="http://www.w3.org/1999/xlink">
    <title>icon/height32/rewind</title>
    <g id="Icons-variable-width---for-Exporting-only" stroke="none" stroke-width="1" fill="none" fill-rule="evenodd">
        <g id="icon-/-32-/-rewind" transform="translate(-3.000000, 0.000000)" fill="#39393A">
            <path d="M12.7505,9.1205 C13.4205,8.7325 14.2465,8.7325 14.9165,9.1205 C15.5865,9.5065 16.0005,10.2225 16.0005,10.9965 L16.0005,10.9965 L16.000169,15.9724186 C16.0096897,15.2098073 16.4208312,14.5059766 17.083,14.1235 L17.083,14.1235 L25.75,9.1205 C26.42,8.7325 27.246,8.7325 27.917,9.1205 C28.587,9.5065 29,10.2225 29,10.9965 L29,10.9965 L29,21.0035 C29,21.7775 28.587,22.4935 27.917,22.8795 C27.246,23.2675 26.42,23.2675 25.75,22.8795 L25.75,22.8795 L17.083,17.8755 C16.413,17.4895 16,16.7735 16,15.9995 L16.0005,16.0265 L16.0005,21.0035 C16.0005,21.7222143 15.6435306,22.3909184 15.0560955,22.7918338 L14.9165,22.8795 C14.2465,23.2675 13.4205,23.2675 12.7505,22.8795 L12.7505,22.8795 L4.0835,17.8755 C3.4135,17.4895 3.0005,16.7735 3.0005,15.9995 C3.0005,15.2265 3.4135,14.5105 4.0835,14.1235 L4.0835,14.1235 Z" id="â—-icon"></path>
        </g>
    </g>
</svg>