<svg xmlns="http://www.w3.org/2000/svg" width="25" height="32" viewBox="0 0 25 32">
  <path fill="#39393A" fill-rule="evenodd" d="M15,5 C20.5228475,5 25,9.4771525 25,15 C25,17.315318 24.2131407,19.4468552 22.8922479,21.1417858 L27.9657826,26.2151834 C28.3563069,26.6057077 28.3563069,27.2388727 27.9657826,27.629397 C27.6052986,27.989881 27.0380676,28.0176105 26.6457764,27.7125856 L26.551569,27.629397 L21.5119844,22.5893094 C19.7623558,24.0919619 17.4872197,25 15,25 C9.4771525,25 5,20.5228475 5,15 C5,9.4771525 9.4771525,5 15,5 Z M15,7 C10.581722,7 7,10.581722 7,15 C7,19.418278 10.581722,23 15,23 C19.418278,23 23,19.418278 23,15 C23,10.581722 19.418278,7 15,7 Z" transform="translate(-4)"/>
</svg>
