<svg xmlns="http://www.w3.org/2000/svg" width="24" height="32" viewBox="0 0 24 32">
  <path fill="#39393A" fill-rule="evenodd" d="M26.984375,14.26875 L6.284375,4.16875 C5.684375,3.86875 4.984375,3.96875 4.584375,4.46875 C4.184375,4.96875 3.984375,5.56875 4.284375,6.16875 L9.284375,16.06875 L4.184375,25.86875 C3.884375,26.46875 3.984375,27.06875 4.484375,27.56875 C4.984375,28.06875 5.684375,28.16875 6.184375,27.86875 L26.884375,17.76875 C27.584375,17.46875 27.984375,16.76875 27.984375,15.96875 C27.984375,15.16875 27.684375,14.66875 26.984375,14.26875 Z M6.684375,6.66875 L23.984375,15.06875 L11.084375,15.06875 L6.684375,6.66875 Z M11.084375,17.06875 L23.984375,17.06875 L6.784375,25.46875 L11.084375,17.06875 Z" transform="translate(-4)"/>
</svg>
