<?xml version="1.0" encoding="UTF-8"?>
<svg width="16px" height="32px" viewBox="0 0 16 32" version="1.1" xmlns="http://www.w3.org/2000/svg" xmlns:xlink="http://www.w3.org/1999/xlink">
    <title>icon/height32/smartphone</title>
    <g id="Icons-variable-width---for-Exporting-only" stroke="none" stroke-width="1" fill="none" fill-rule="evenodd">
        <g id="icon-/-32-/-smartphone" transform="translate(-8.000000, 0.000000)" fill="#39393A">
            <path d="M20,3 L12,3 C9.8,3 8,4.8 8,7 L8,25 C8,27.2 9.8,29 12,29 L20,29 C22.2,29 24,27.2 24,25 L24,7 C24,4.8 22.2,3 20,3 Z M22,25 C22,26.1 21.1,27 20,27 L12,27 C10.9,27 10,26.1 10,25 L10,22 L22,22 L22,25 Z M22,20 L10,20 L10,7 C10,5.9 10.9,5 12,5 L20,5 C21.1,5 22,5.9 22,7 L22,20 Z M16,26 C16.8,26 17.5,25.3 17.5,24.5 C17.5,23.7 16.8,23 16,23 C15.2,23 14.5,23.7 14.5,24.5 C14.5,25.3 15.2,26 16,26 Z" id="â—-icon"></path>
        </g>
    </g>
</svg>