<svg xmlns="http://www.w3.org/2000/svg" width="22" height="33" viewBox="0 0 22 33">
  <path fill="#39393A" fill-rule="evenodd" d="M21.901986,8.73712254 C21.1375746,8.73712254 20.5430324,9.33166476 20.5430324,10.0960762 C20.5430324,10.8604876 21.1375746,11.4550298 21.901986,11.4550298 C22.6663975,11.4550298 23.2609397,10.8604876 23.2609397,10.0960762 C23.2609397,9.33166476 22.6663975,8.73712254 21.901986,8.73712254 Z M20.9677054,5 L11.1152914,5 C7.7179073,5 5,7.7179073 5,11.1152914 L5,20.8827708 C5,24.2801549 7.7179073,26.9980622 11.1152914,26.9980622 L20.8827708,26.9980622 C24.2801549,26.9980622 26.9980622,24.2801549 26.9980622,20.8827708 L26.9980622,11.1152914 C27.0829968,7.7179073 24.3650895,5 20.9677054,5 Z M24.9596317,20.9677054 C24.9596317,23.1760051 23.1760051,25.0445663 20.8827708,25.0445663 L11.1152914,25.0445663 C8.90699175,25.0445663 7.03843048,23.2609397 7.03843048,20.9677054 L7.03843048,11.1152914 C7.03843048,8.90699175 8.82205714,7.12336508 11.1152914,7.03843048 L20.8827708,7.03843048 C23.0910705,7.03843048 24.9596317,8.82205714 24.9596317,11.1152914 L24.9596317,20.9677054 Z M16.0414984,10.35088 C12.8986566,10.35088 10.35088,12.8986566 10.35088,16.0414984 C10.35088,19.1843402 12.8986566,21.7321168 16.0414984,21.7321168 C19.1843402,21.7321168 21.7321168,19.1843402 21.7321168,16.0414984 C21.7321168,12.8989181 19.1840787,10.35088 16.0414984,10.35088 Z M16.0414984,19.6936863 C14.0030679,19.6936863 12.3893105,18.0799289 12.3893105,16.0414984 C12.3893105,14.0030679 14.0030679,12.3893105 16.0414984,12.3893105 C18.0799289,12.3893105 19.6936863,14.0030679 19.6936863,16.0414984 C19.6936863,18.0799289 18.0799289,19.6936863 16.0414984,19.6936863 Z" transform="translate(-5)"/>
</svg>
