<svg xmlns="http://www.w3.org/2000/svg" width="22" height="32" viewBox="0 0 22 32">
  <path fill="#39393A" fill-rule="evenodd" d="M23.6045291,23.4185052 L23.6045291,17.7180484 C23.6045291,14.6668287 21.9709398,13.2491982 19.7963845,13.2491982 C18.0195354,13.2491982 17.2326757,14.2391875 16.8007581,14.9255516 L16.830693,14.9255516 L16.830693,13.4801244 L13.5207503,13.4801244 C13.5207503,13.4801244 13.5656526,14.4102439 13.5207503,23.4185052 L16.830693,23.4185052 L16.830693,17.8613082 C16.830693,17.5747886 16.8456604,17.2733016 16.9311886,17.059481 C17.1728059,16.4714744 17.7180484,15.8556711 18.6353387,15.8556711 C19.822043,15.8556711 20.2967247,16.757994 20.2967247,18.1050637 L20.2967247,23.4185052 L23.6045291,23.4185052 Z M8.39547089,23.4185052 L11.7032753,23.4185052 L11.7032753,13.4801244 L8.39547089,13.4801244 L8.39547089,23.4185052 Z M10.0696861,8.69481971 C8.93857518,8.69481971 8.19447954,9.43891535 8.19447954,10.4139372 C8.19447954,11.3117699 8.84093935,12.055224 9.86253883,12.1273249 L10.0397512,12.1330547 C11.200797,12.1330547 11.9170959,11.3590242 11.9170959,10.4139372 C11.9028769,9.48766644 11.2692142,8.76980659 10.2360973,8.70033628 L10.0696861,8.69481971 Z M27,22.8754009 C27,25.1525901 25.1525901,27 22.8732627,27 L9.12673729,27 C6.84740986,27 5,25.1525901 5,22.8754009 L5,9.12459909 C5,6.84740986 6.84740986,5 9.12673729,5 L22.8732627,5 C25.1525901,5 27,6.84740986 27,9.12459909 L27,22.8754009 Z" transform="translate(-5)"/>
</svg>
