<?xml version="1.0" encoding="UTF-8"?>
<svg width="22px" height="32px" viewBox="0 0 22 32" version="1.1" xmlns="http://www.w3.org/2000/svg" xmlns:xlink="http://www.w3.org/1999/xlink">
    <title>icon/height32/social_snapchat</title>
    <g id="Icons-variable-width---for-Exporting-only" stroke="none" stroke-width="1" fill="none" fill-rule="evenodd">
        <g id="icon-/-32-/-social-snapchat" transform="translate(-5.000000, 0.000000)" fill="#39393A">
            <path d="M23.0186607,19.2233453 C21.7930914,18.9677668 20.8459476,18.140185 20.2841875,17.0400826 L20.1833997,16.830693 C20.1256682,16.7173681 20.0829041,16.6019049 20.0829041,16.4736126 C20.0829041,15.8278744 21.8576149,15.958305 21.8576149,15.0410147 C21.8576149,14.6539994 21.3850714,14.4102439 21.0408203,14.4102439 C20.7286422,14.4102439 20.4699193,14.639032 20.1384974,14.639032 C20.0829041,14.639032 20.0251725,14.6262027 19.967441,14.6112353 C20.0123433,14.0659928 20.0380017,13.5079211 20.0380017,12.9648168 C20.0380017,12.4773059 20.0123433,11.7888036 19.7963845,11.3312275 C19.1078822,9.84089805 17.7907474,8.96851006 16.1443289,8.96851006 C14.3525124,8.96851006 12.9947517,9.6420449 12.2036155,11.3312275 C11.9897949,11.7888036 11.9470308,12.4773059 11.9470308,12.977646 C11.9470308,13.5228885 11.9897949,14.0659928 12.032559,14.6112353 C11.9619983,14.6262027 11.8892993,14.639032 11.8187385,14.639032 C11.502284,14.639032 11.2307318,14.4102439 10.931383,14.4102439 C10.5721644,14.4102439 10.1445233,14.6539994 10.1445233,15.0559821 C10.1445233,15.9433375 11.9192341,15.8278744 11.9192341,16.4736126 C11.9192341,16.6019049 11.8743318,16.7173681 11.8187385,16.830693 C11.2606667,18.0345029 10.3006123,18.9368257 8.9834775,19.2233453 C8.78248615,19.2661094 8.66702303,19.4093692 8.66702303,19.6103606 C8.66702303,20.2838954 10.1851492,20.5255127 10.6448634,20.5982117 C10.7710176,20.9424628 10.7154242,21.5432987 11.2157644,21.5432987 C11.5878122,21.5432987 11.9470308,21.4000389 12.3190786,21.4000389 C13.8372048,21.4000389 14.2391875,22.7599378 15.9861017,22.7599378 C17.8057148,22.7599378 18.149966,21.4000389 19.6809214,21.4000389 C20.0529692,21.4000389 20.4271552,21.5283312 20.799203,21.5283312 C21.2845758,21.5283312 21.2439498,20.9274954 21.3572748,20.5982117 L21.6632461,20.5465681 L21.9121278,20.4967482 C22.5269504,20.3629552 23.332977,20.1014797 23.332977,19.6103606 C23.332977,19.4380823 23.2497178,19.308219 23.0993577,19.2477009 L23.0186607,19.2233453 Z M27,22.8754009 C27,25.1525901 25.1525901,27 22.8754009,27 L9.12673729,27 C6.84954806,27 5,25.1525901 5,22.8754009 L5,9.12459909 C5,6.84740986 6.84954806,5 9.12673729,5 L22.8754009,5 C25.1525901,5 27,6.84740986 27,9.12459909 L27,22.8754009 Z" id="â—-icon"></path>
        </g>
    </g>
</svg>