<svg xmlns="http://www.w3.org/2000/svg" width="22" height="32" viewBox="0 0 22 32">
  <path fill="#39393A" fill-rule="evenodd" d="M27,6.18461538 L27,25.7307692 C27,26.4076923 26.4923077,26.9153846 25.8153846,26.9153846 L20.2307692,26.9153846 L20.2307692,18.4538462 L23.1076923,18.4538462 L23.5307692,15.1538462 L20.2307692,15.1538462 L20.2307692,13.0384615 C20.2307692,12.1076923 20.4,11.4307692 21.8384615,11.4307692 L23.6153846,11.4307692 L23.6153846,8.46923077 C22.7692308,8.38461538 21.9230769,8.3 20.9923077,8.3 C18.4538462,8.3 16.8461538,9.82307692 16.8461538,12.7 L16.8461538,15.1538462 L13.8846154,15.1538462 L13.8846154,18.4538462 L16.8461538,18.4538462 L16.8461538,27 L6.18461538,27 C5.50769231,27 5,26.4923077 5,25.8153846 L5,6.18461538 C5,5.50769231 5.50769231,5 6.18461538,5 L25.7307692,5 C26.4076923,5 27,5.50769231 27,6.18461538 Z" transform="translate(-5)"/>
</svg>
