<svg xmlns="http://www.w3.org/2000/svg" width="32" height="32" viewBox="0 0 32 32">
  <path fill="#39393A" fill-rule="evenodd" d="M10.0576503,5.94234971 C12.6857968,5.94234971 14.6850179,6.99300774 16.4566576,8.28741109 L16.6864834,8.45756229 L13.7152686,11.4287771 C12.800064,10.5135726 11.4288571,10.0575703 10.0576503,10.0575703 C6.85763429,10.0575703 4.11522058,12.799984 4.11522058,16 C4.11522058,19.200016 6.85763429,21.9424297 10.0576503,21.9424297 C12.7194048,21.9424297 14.736046,20.2196156 15.2707709,18.0291918 L15.3152766,17.8288091 L10.0576503,17.8288091 L10.0576503,13.9423897 L19.4288971,13.9423897 C19.6576983,14.6287931 19.6576983,15.5423977 19.6576983,16.2288011 C19.6576983,21.9424297 15.7712789,26.0576503 10.0576503,26.0576503 C4.57122286,26.0576503 -3.19744231e-14,21.4864274 -3.19744231e-14,16 C-3.19744231e-14,10.5135726 4.57122286,5.94234971 10.0576503,5.94234971 Z M28.5711829,10.7430137 L28.5711829,14.1718309 L32,14.1718309 L32,16.6854434 L28.3439817,16.6854434 L28.3439817,20.1142606 L25.8303692,20.1142606 L25.8303692,16.6854434 L22.401552,16.6854434 L22.401552,14.1718309 L26.0575703,14.1718309 L26.0575703,10.7430137 L28.5711829,10.7430137 Z"/>
</svg>
