<?xml version="1.0" encoding="UTF-8"?>
<svg width="32px" height="32px" viewBox="0 0 32 32" version="1.1" xmlns="http://www.w3.org/2000/svg" xmlns:xlink="http://www.w3.org/1999/xlink">
    <title>icon/height32/social_youtube</title>
    <g id="Icons-variable-width---for-Exporting-only" stroke="none" stroke-width="1" fill="none" fill-rule="evenodd">
        <g id="icon-/-32-/-social-youtube" fill="#39393A">
            <path d="M12.8571613,20.7143227 L12.8571613,11.2856773 L21.0223071,16 L12.8571613,20.7143227 Z M31.0576082,8.43530103 C30.6959431,7.08332549 29.6311265,6.01825024 28.2788923,5.65684384 C25.8279516,5 15.9998706,5 15.9998706,5 C15.9998706,5 6.17204845,5 3.72110771,5.65684384 C2.36887347,6.01825024 1.30405691,7.08332549 0.942650517,8.43530103 C0.285806679,10.8862418 0.285806679,16 0.285806679,16 C0.285806679,16 0.285806679,21.1137582 0.942650517,23.564699 C1.30405691,24.9166745 2.36887347,25.9817498 3.72110771,26.3431562 C6.17204845,27 15.9998706,27 15.9998706,27 C15.9998706,27 25.8279516,27 28.2788923,26.3431562 C29.6311265,25.9817498 30.6959431,24.9166745 31.0576082,23.564699 C31.7141933,21.1137582 31.7141933,16 31.7141933,16 C31.7141933,16 31.7141933,10.8862418 31.0576082,8.43530103 L31.0576082,8.43530103 Z" id="â—-icon"></path>
        </g>
    </g>
</svg>