<?xml version="1.0" encoding="UTF-8"?>
<svg width="24px" height="32px" viewBox="0 0 24 32" version="1.1" xmlns="http://www.w3.org/2000/svg" xmlns:xlink="http://www.w3.org/1999/xlink">
    <title>icon/height32/star</title>
    <g id="Icons-variable-width---for-Exporting-only" stroke="none" stroke-width="1" fill="none" fill-rule="evenodd">
        <g id="icon-/-32-/-star" transform="translate(-4.000000, 0.000000)" fill="#39393A">
            <path d="M15.9998,3.9999 C18.7108,3.9999 21.4228,4.2999 24.1338,4.7999 C25.7398,5.0999 26.9448,6.2999 27.2468,7.8999 C28.2508,13.1999 28.2508,18.7999 27.2468,24.0999 C26.9448,25.6999 25.7398,26.8999 24.1338,27.1999 C21.4228,27.6999 18.7108,27.9999 15.9998,27.9999 C13.2888,27.9999 10.5778,27.6999 7.8658,27.1999 C6.2588,26.8999 5.0538,25.6999 4.7528,24.0999 C3.7488,18.7999 3.7488,13.2999 4.7528,7.8999 C5.0538,6.2999 6.2588,5.0999 7.8658,4.7999 C10.3066,4.3499 12.74659,4.0619 15.186499,4.0088 L15.9998,3.9999 Z M16.4718,8.1739 C16.4008,7.9729 16.2118,7.8389 15.9998,7.8389 C15.7868,7.8389 15.5988,7.9729 15.5278,8.1739 L13.8008,13.1069 L8.5758,13.2249 C8.3628,13.2289 8.1778,13.3679 8.1108,13.5699 C8.0458,13.7719 8.1148,13.9939 8.2838,14.1229 L12.4408,17.2899 L10.9388,22.2949 C10.8788,22.4989 10.9528,22.7179 11.1248,22.8429 C11.2968,22.9679 11.5278,22.9709 11.7028,22.8499 L15.7158,20.0719 C15.8868,19.9539 16.1128,19.9539 16.2838,20.0719 L20.2968,22.8499 C20.4708,22.9709 20.7028,22.9679 20.8748,22.8429 C21.0468,22.7179 21.1208,22.4989 21.0598,22.2949 L19.5588,17.2899 L23.7158,14.1229 C23.8848,13.9939 23.9538,13.7719 23.8878,13.5699 C23.8218,13.3679 23.6368,13.2289 23.4238,13.2249 L18.1988,13.1069 L16.4718,8.1739 Z" id="â—-icon"></path>
        </g>
    </g>
</svg>