<?xml version="1.0" encoding="UTF-8"?>
<svg width="32px" height="32px" viewBox="0 0 32 32" version="1.1" xmlns="http://www.w3.org/2000/svg" xmlns:xlink="http://www.w3.org/1999/xlink">
    <title>icon/height32/thumb_up</title>
    <g id="Icons-variable-width---for-Exporting-only" stroke="none" stroke-width="1" fill="none" fill-rule="evenodd">
        <g id="icon-/-32-/-thumb_up" fill="#39393A">
            <path d="M32,14.1118012 C32,11.5279503 30.1118012,10.3354037 28.3229814,10.3354037 L22.3602484,10.3354037 C22.757764,9.14285714 23.1552795,7.65217391 23.2546584,6.45962733 C23.3490683,4.57142857 22.7259627,3.3110559 22.1521863,2.67850932 L22.0621118,2.58385093 C21.1677019,1.59006211 19.7763975,1.0931677 18.2857143,1.0931677 L17.5900621,1.0931677 C16.8447205,1.0931677 16.1867236,1.61723602 15.9436141,2.33782997 L15.6852768,3.29379425 C15.3667697,4.42886723 14.709739,6.55567726 13.8136646,8.34782609 L13.394419,9.25643301 L13.1816731,9.70304464 C12.4450915,11.2273715 11.7958412,12.3229814 11.3291925,12.3229814 L10.136646,12.3229814 L10.136646,12.1242236 C10.136646,11.7267081 9.83850932,11.3291925 9.34161491,11.3291925 L0.695652174,11.3291925 C0.298136646,11.3291925 2.13162821e-14,11.7267081 2.13162821e-14,12.1242236 L2.13162821e-14,29.6149068 C2.13162821e-14,30.0124224 0.298136646,30.4099379 0.795031056,30.4099379 L9.44099379,30.4099379 C9.83850932,30.4099379 10.136646,30.1118012 10.136646,29.7142857 C11.3291925,30.4099379 13.1180124,30.9068323 15.5031056,30.9068323 L25.0434783,30.9068323 C27.9254658,30.9068323 28.4223602,29.1180124 28.5217391,27.9254658 L28.519354,27.7139876 C28.5098137,27.392795 28.4621118,26.931677 28.2236025,26.5341615 C29.3167702,26.0372671 29.9130435,25.242236 30.0124224,23.9503106 C30.0124224,23.2546584 29.9130435,22.5590062 29.6149068,22.0621118 C30.5093168,21.6645963 31.2049689,20.8695652 31.3043478,19.2795031 C31.3043478,18.3850932 31.1055901,17.689441 30.6086957,17.0931677 C31.5031056,16.4968944 32,15.4037267 32,14.1118012 Z M5.06832298,26.931677 C4.17391304,26.931677 3.37888199,26.136646 3.37888199,25.242236 C3.37888199,24.2484472 4.17391304,23.552795 5.06832298,23.552795 C5.96273292,23.552795 6.75776398,24.3478261 6.75776398,25.242236 C6.75776398,26.136646 6.0621118,26.931677 5.06832298,26.931677 Z M27.826087,15.9006211 L23.7515528,15.9006211 C23.2546584,15.9006211 22.757764,16.3975155 22.757764,16.8944099 C22.757764,17.3913043 23.2546584,17.8881988 23.7515528,17.8881988 L27.826087,17.8881988 C28.1242236,17.8881988 28.621118,17.9875776 28.9192547,18.2857143 C29.2173913,18.5838509 29.2173913,18.9813665 29.2173913,19.2795031 L29.2154184,19.4344753 L29.2069087,19.5811438 C29.1524343,20.1744725 28.8265084,20.5423584 26.9638905,20.5697796 L24.0496894,20.5714286 C23.552795,20.5714286 23.0559006,21.068323 23.0559006,21.5652174 C23.0559006,22.0621118 23.552795,22.5590062 24.0496894,22.5590062 L26.6335404,22.5590062 C27.1304348,22.5590062 27.4285714,22.6583851 27.6273292,22.8571429 C27.9254658,23.1552795 27.9254658,23.6521739 27.9254658,23.8509317 C27.826087,24.5465839 27.6273292,24.6459627 27.3291925,24.7453416 C26.931677,24.9440994 26.2360248,24.9440994 25.3416149,24.9440994 L21.863354,24.9440994 C21.3664596,24.9440994 20.8695652,25.4409938 20.8695652,25.9378882 C20.8695652,26.4347826 21.3664596,26.931677 21.863354,26.931677 L24.8447205,26.931677 C26.2057791,26.931677 26.324132,27.4287593 26.3344236,27.8177802 L26.3344236,28.0547638 L26.3275625,28.1821014 C26.2903169,28.5801641 26.0761545,28.9192547 24.8447205,28.9192547 L15.3043478,28.9192547 C12.5217391,28.9192547 10.8322981,28.0248447 9.9378882,27.3291925 L9.9378882,14.310559 L11.1304348,14.310559 C13.0186335,14.310559 13.9130435,12.5217391 15.5031056,9.24223602 L15.7146606,8.75796846 L15.918343,8.26848657 C16.9827467,5.65110038 17.689441,2.98136646 17.689441,2.98136646 L18.1863354,2.98136646 C19.1801242,2.98136646 21.3664596,3.27950311 21.1677019,6.26086957 C20.9689441,8.74534161 19.2795031,12.3229814 19.2795031,12.3229814 L28.2236025,12.3229814 C29.0186335,12.3229814 29.9130435,12.621118 29.9130435,14.1118012 C30.0081015,15.252498 29.3757588,15.8476441 28.0160152,15.8972396 L27.826087,15.9006211 Z" id="â—-icon"></path>
        </g>
    </g>
</svg>