<svg xmlns="http://www.w3.org/2000/svg" width="20" height="32" viewBox="0 0 20 32">
  <path fill="#39393A" fill-rule="evenodd" d="M11,25 L13,25 L13,13 L11,13 L11,25 Z M10.3,6 L22.1,4 C22.7,3.9 23,3.4 22.9,2.8 C22.8,2.2 22.3,1.9 21.7,2 L10,4 C9.4,4.1 9.1,4.6 9.2,5.2 C9.3,5.7 9.8,6.1 10.3,6 Z M19,25 L21,25 L21,13 L19,13 L19,25 Z M15,25 L17,25 L17,13 L15,13 L15,25 Z M7,8 C6.4,8 6,8.4 6,9 L6,29 C6,29.6 6.4,30 7,30 L25,30 C25.6,30 26,29.6 26,29 L26,9 C26,8.4 25.6,8 25,8 L7,8 Z M8,28 L8,10 L24,10 L24,28 L8,28 Z" transform="translate(-6)"/>
</svg>
