<svg xmlns="http://www.w3.org/2000/svg" width="18" height="32" viewBox="0 0 18 32">
  <path fill="#39393A" fill-rule="evenodd" d="M25,17 C25,14.8 23.2,13 21,13 L11,13 C8.8,13 7,14.8 7,17 L7,27 C7,27.6 7.4,28 8,28 C8.6,28 9,27.6 9,27 L9,17 C9,15.9 9.9,15 11,15 L21,15 C22.1,15 23,15.9 23,17 L23,27 C23,27.6 23.4,28 24,28 C24.6,28 25,27.6 25,27 L25,17 Z M16,9 C17.3954305,9 18.5,7.8954305 18.5,6.5 C18.5,5.1045695 17.3954305,4 16,4 C14.6045695,4 13.5,5.1045695 13.5,6.5 C13.5,7.8954305 14.6045695,9 16,9 Z M16,11 C13.5,11 11.5,9 11.5,6.5 C11.5,4 13.5,2 16,2 C18.5,2 20.5,4 20.5,6.5 C20.5,9 18.5,11 16,11 Z" transform="translate(-7)"/>
</svg>
