<svg width="1600" height="1200" viewBox="0 0 1600 1200" xmlns="http://www.w3.org/2000/svg"><path d="M459.45 291.7a50.006 50.006 0 00-55.2-83.4c-136.3 90.15-263.75 201-381.15 331.5a92.65 92.65 0 00.15 122.6 2006.35 2006.35 0 00381 329.3 50.006 50.006 0 0055.2-83.4A1905 1905 0 01102.5 601C213 479.15 332.3 375.8 459.4 291.7zm681.15 616.6a50 50 0 1055.15 83.4c136.1-90 263.5-200.85 381.15-331.45a92.7 92.7 0 00-.15-122.6 2008.15 2008.15 0 00-381-329.35 50.006 50.006 0 00-55.2 83.4 1906.95 1906.95 0 01356.9 307.35c-110.7 122-230 225.35-356.85 309.25z" fill-rule="evenodd"/></svg>