<svg xmlns="http://www.w3.org/2000/svg" width="20" height="18" viewBox="0 0 20 18">
  <path fill="#39393A" fill-rule="evenodd" d="M14.8196126,7.21083625 C15.2556126,6.87183625 15.8836126,6.94983625 16.2226126,7.38583625 C16.5626126,7.82083625 16.4846126,8.44883625 16.0476126,8.78883625 C13.2495424,10.9675775 11.0081847,13.0524417 9.3657541,15.0036975 L24.5010126,15.0037362 C25.0540126,15.0037362 25.5010126,15.4507362 25.5010126,16.0037362 C25.5010126,16.5172362 25.1155891,16.9393383 24.6177658,16.9970187 L24.5010126,17.0037362 L9.37204917,17.0033763 C11.0145632,18.9532113 13.2538991,21.0355608 16.0486126,23.2108362 C16.3016126,23.4078362 16.4346126,23.7028362 16.4346126,24.0008362 C16.4346126,24.2158362 16.3656126,24.4318362 16.2236126,24.6138362 C15.8836126,25.0498362 15.2556126,25.1278362 14.8206126,24.7888362 C11.3156126,22.0618362 8.62961255,19.4478362 6.83761255,17.0218362 C6.38561255,16.4078362 6.38661255,15.5858362 6.83761255,14.9778362 C8.62761255,12.5528362 11.3136126,9.93883625 14.8196126,7.21083625 Z" transform="translate(-6 -7)"/>
</svg>
