<svg xmlns="http://www.w3.org/2000/svg" width="26" height="18" viewBox="0 0 26 18">
  <path fill="#39393A" fill-rule="evenodd" d="M14.1475,18.7549 C14.4305,18.7549 14.7115,18.8749 14.9095,19.1069 L21.0005,26.2819 L21.0005,22.9999 C21.0005,22.4479 21.4475,21.9999 22.0005,21.9999 L25.0005,21.9999 C26.1045,21.9999 27.0005,21.1049 27.0005,19.9999 L27.0005,9.9999 C27.0005,8.8959 26.1045,7.9999 25.0005,7.9999 L7.0005,7.9999 C5.8955,7.9999 5.0005,8.8959 5.0005,9.9999 L5.0005,19.9999 C5.0005,21.1049 5.8955,21.9999 7.0005,21.9999 L14.7315,21.9999 L13.3865,20.4029 C13.0285,19.9829 13.0795,19.3509 13.5005,18.9929 C13.6885,18.8329 13.9185,18.7549 14.1475,18.7549 Z M22.3455,29.9389 C22.2325,29.9799 22.1155,29.9999 22.0005,29.9999 C21.7125,29.9999 21.4325,29.8759 21.2385,29.6479 L16.4335,23.9999 L7.0005,23.9999 C4.7915,23.9999 3.0005,22.2089 3.0005,19.9999 L3.0005,9.9999 C3.0005,7.7909 4.7915,5.9999 7.0005,5.9999 L25.0005,5.9999 C27.2095,5.9999 29.0005,7.7909 29.0005,9.9999 L29.0005,19.9999 C29.0005,22.2089 27.2095,23.9999 25.0005,23.9999 L23.0005,23.9999 L23.0005,28.9999 C23.0005,29.4189 22.7385,29.7939 22.3455,29.9389 Z M21,13 C21.829,13 22.5,13.671 22.5,14.5 C22.5,15.329 21.829,16 21,16 C20.171,16 19.5,15.329 19.5,14.5 C19.5,13.671 20.171,13 21,13 Z M16,13 C16.829,13 17.5,13.671 17.5,14.5 C17.5,15.329 16.829,16 16,16 C15.171,16 14.5,15.329 14.5,14.5 C14.5,13.671 15.171,13 16,13 Z M12.5,14.5 C12.5,15.329 11.829,16 11,16 C10.171,16 9.5,15.329 9.5,14.5 C9.5,13.671 10.171,13 11,13 C11.829,13 12.5,13.671 12.5,14.5 Z" transform="translate(-3 -6)"/>
</svg>
