<svg xmlns="http://www.w3.org/2000/svg" width="16" height="26" viewBox="0 0 16 26">
  <path fill="#39393A" fill-rule="evenodd" d="M22,3 C23.1,3 24,3.9 24,5 L24,27.9 C24,28.3 23.8,28.6 23.4,28.8 C23,29 22.6,28.9 22.3,28.7 L16.6,24 C16.2,23.7 15.7,23.7 15.3,24 L9.6,28.7 C9.3,28.9 8.9,29 8.5,28.8 C8.1,28.6 8,28.3 8,27.9 L8,5 C8,3.9 8.9,3 10,3 L22,3 Z M22,25.86 L22,5 L10,5 L10,25.778 L14.1,22.4 C15.1582011,21.6063492 16.5489796,21.5685563 17.7013647,22.335792 L17.8723632,22.4569213 L22,25.86 Z" transform="translate(-8 -3)"/>
</svg>
