<?xml version="1.0" encoding="UTF-8"?>
<svg width="28px" height="22px" viewBox="0 0 28 22" version="1.1" xmlns="http://www.w3.org/2000/svg" xmlns:xlink="http://www.w3.org/1999/xlink">
    <title>icon/no_container/camera_video</title>
    <g id="Icons-variable-width---for-Exporting-only" stroke="none" stroke-width="1" fill="none" fill-rule="evenodd">
        <g id="icon-/-32-/-camera-video" transform="translate(-2.000000, -5.000000)" fill="#39393A">
            <path d="M17.5,14 C20,14 22,12 22,9.5 C22,7 20,5 17.5,5 C15,5 13,7 13,9.5 C13,12 15,14 17.5,14 Z M17.5,7 C18.9,7 20,8.1 20,9.5 C20,10.9 18.9,12 17.5,12 C16.1,12 15,10.9 15,9.5 C15,8.1 16.1,7 17.5,7 Z M7.5,14 C10,14 12,12 12,9.5 C12,7 10,5 7.5,5 C5,5 3,7 3,9.5 C3,12 5,14 7.5,14 Z M7.5,7 C8.9,7 10,8.1 10,9.5 C10,10.9 8.9,12 7.5,12 C6.1,12 5,10.9 5,9.5 C5,8.1 6.1,7 7.5,7 Z M28.74375,16.4041088 L28.6,16.3 C28.1,15.9 27.4,15.9 26.7,16.1 L22.5,17.9 L22.5,17 C22.5,15.9 21.6,15 20.5,15 L4.5,15 C3.4,15 2.5,15.9 2.5,17 L2.5,25 C2.5,26.1 3.4,27 4.5,27 L20.5,27 C21.6,27 22.5,26.1 22.5,25 L22.5,24.2 L26.8,25.9 C27.8,26.3 29,25.8 29.4,24.8 C29.48,24.56 29.496,24.384 29.4992,24.1696 L29.5,18 C29.5,17.3583333 29.2479167,16.8006944 28.74375,16.4041088 Z M20.5,25 L4.5,25 L4.5,17 L20.5,17 L20.5,25 Z M27.5,24 L22.5,22 L22.5,20 L27.5,18 L27.5,24 Z" id="â—-icon"></path>
        </g>
    </g>
</svg>