<?xml version="1.0" encoding="UTF-8"?>
<svg width="26px" height="20px" viewBox="0 0 26 20" version="1.1" xmlns="http://www.w3.org/2000/svg" xmlns:xlink="http://www.w3.org/1999/xlink">
    <title>icon/no_container/camera</title>
    <g id="Icons-variable-width---for-Exporting-only" stroke="none" stroke-width="1" fill="none" fill-rule="evenodd">
        <g id="icon-/-32-/-camera" transform="translate(-3.000000, -6.000000)" fill="#39393A">
            <path d="M9.58578644,7 L11,5.58578644 C11.3750728,5.21071368 11.8837806,5 12.4142136,5 L19.5857864,5 C20.1162194,5 20.6249272,5.21071368 21,5.58578644 L22.4142136,7 L26,7 C27.6568542,7 29,8.34314575 29,10 L29,23 C29,24.6568542 27.6568542,26 26,26 L6,26 C4.34314575,26 3,24.6568542 3,23 L3,10 C3,8.34314575 4.34314575,7 6,7 L9.58578644,7 Z M6,9 C5.44771525,9 5,9.44771525 5,10 L5,23 C5,23.5522847 5.44771525,24 6,24 L26,24 C26.5522847,24 27,23.5522847 27,23 L27,10 C27,9.44771525 26.5522847,9 26,9 L21.5857864,9 L19.5857864,7 L12.4142136,7 L10.4142136,9 L6,9 Z M16,22 C12.6862915,22 10,19.3137085 10,16 C10,12.6862915 12.6862915,10 16,10 C19.3137085,10 22,12.6862915 22,16 C22,19.3137085 19.3137085,22 16,22 Z M16,20 C18.209139,20 20,18.209139 20,16 C20,13.790861 18.209139,12 16,12 C13.790861,12 12,13.790861 12,16 C12,18.209139 13.790861,20 16,20 Z" id="â—-icon"></path>
        </g>
    </g>
</svg>