<svg xmlns="http://www.w3.org/2000/svg" width="24" height="32" viewBox="0 0 24 32">
  <path fill="#39393A" fill-rule="evenodd" d="M12.3228128,14.2108401 C12.7588128,13.8718339 13.3868128,13.9498353 13.7258128,14.3858433 C14.0658128,14.8208512 13.9878128,15.4488626 13.5508128,15.7888688 C10.7541812,17.9665295 8.51368983,20.0504079 6.87148815,22.0008333 L26.0021877,22 C26.5544725,22 27.0021877,22.4477153 27.0021877,23 C27.0021877,23.5522847 26.5544725,24 26.0021877,24 L6.87271343,24.0005473 C8.51545819,25.951285 10.7556608,28.0346964 13.5518128,30.2111312 C13.8048128,30.4081348 13.9378128,30.7031402 13.9378128,31.0011456 C13.9378128,31.2161495 13.8688128,31.4321534 13.7268128,31.6141567 C13.3868128,32.0501647 12.7588128,32.1281661 12.3238128,31.7891599 C8.81881282,29.0621103 6.13281282,26.4480627 4.34081282,24.0220186 C3.88881282,23.4080074 3.88981282,22.5859925 4.34081282,21.9779814 C6.13081282,19.5529373 8.81681282,16.9388897 12.3228128,14.2108401 Z M19.6771872,0.210836247 C23.1831872,2.93883625 25.8691872,5.55283625 27.6591872,7.97783625 C28.1101872,8.58583625 28.1111872,9.40783625 27.6591872,10.0218362 C25.8671872,12.4478362 23.1811872,15.0618362 19.6761872,17.7888362 C19.2411872,18.1278362 18.6131872,18.0498362 18.2731872,17.6138362 C18.1311872,17.4318362 18.0621872,17.2158362 18.0621872,17.0008362 C18.0621872,16.7028362 18.1951872,16.4078362 18.4481872,16.2108362 C21.2443392,14.0344411 23.4845418,11.9510675 25.1272866,10.0003653 L6.00218772,10 C5.44990297,10 5.00218772,9.55228475 5.00218772,9 C5.00218772,8.44771525 5.44990297,8 6.00218772,8 L25.1285118,8.00068773 C23.4863102,6.05029785 21.2458188,3.9664573 18.4491872,1.78883625 C18.0121872,1.44883625 17.9341872,0.820836247 18.2741872,0.385836247 C18.6131872,-0.0501637527 19.2411872,-0.128163753 19.6771872,0.210836247 Z" transform="translate(-4)"/>
</svg>
