<?xml version="1.0" encoding="UTF-8"?>
<svg width="26px" height="24px" viewBox="0 0 26 24" version="1.1" xmlns="http://www.w3.org/2000/svg" xmlns:xlink="http://www.w3.org/1999/xlink">
    <title>icon/no_container/chat</title>
    <g id="Icons-variable-width---for-Exporting-only" stroke="none" stroke-width="1" fill="none" fill-rule="evenodd">
        <g id="icon-/-32-/-chat" transform="translate(-3.000000, -5.000000)" fill="#39393A">
            <path d="M25,5 C27.2,5 29,6.8 29,9 L29,20 C29,22.2 27.2,24 25,24 L22,24 L22,29 C22,29.379 21.785,29.726 21.446,29.895 C21.107,30.064 20.701,30.026 20.398,29.799 L12.7,24 L7,24 C4.8,24 3,22.2 3,20 L3,9 C3,6.8 4.8,5 7,5 L25,5 Z M25,7 L7,7 C5.9,7 5,7.9 5,9 L5,20 C5,21.1 5.9,22 7,22 L13,22 C13.2,22 13.4,22.1 13.6,22.2 L20,27 L20,23 C20,22.447 20.447,22 21,22 L25,22 C26.1,22 27,21.1 27,20 L27,9 C27,7.9 26.1,7 25,7 Z" id="â—-icon"></path>
        </g>
    </g>
</svg>