<svg xmlns="http://www.w3.org/2000/svg" width="10" height="16" viewBox="0 0 10 16">
  <path fill="#39393A" fill-rule="evenodd" d="M13.0007372,24.0001284 C12.561177,24.0006847 12.1727889,23.7141439 12.0436172,23.2939913 C11.9144456,22.8738388 12.0747807,22.4185986 12.4387372,22.1721251 C15.7117372,19.9541251 18.2117372,17.8791251 19.8747372,16.0001251 C18.2097372,14.1191251 15.7097372,12.0441251 12.4387372,9.82812514 C11.9814454,9.51829339 11.8619054,8.89641692 12.1717372,8.43912516 C12.4815689,7.98183339 13.1034454,7.86229341 13.5607372,8.17212514 C17.1757372,10.6211251 19.8087372,12.8381251 21.6107372,14.9491251 C22.1307372,15.5581251 22.1307372,16.4431251 21.6097372,17.0531251 C19.8087372,19.1621251 17.1757372,21.3791251 13.5607372,23.8291251 C13.428271,23.9181363 13.2770259,23.9740324 13.1196863,23.9929406 L13.0007372,24.0001284 Z" transform="translate(-12 -8)"/>
</svg>
