<?xml version="1.0" encoding="UTF-8"?>
<svg width="14px" height="24px" viewBox="0 0 14 24" version="1.1" xmlns="http://www.w3.org/2000/svg" xmlns:xlink="http://www.w3.org/1999/xlink">
    <title>icon/no_container/chevron_bold_left</title>
    <g id="Icons-variable-width---for-Exporting-only" stroke="none" stroke-width="1" fill="none" fill-rule="evenodd">
        <g id="icon-/-32-/-chevron-bold-left" transform="translate(-7.000000, -4.000000)" fill="#39393A">
            <path d="M20.0294057,27.9892295 C19.8346329,27.9892295 19.6441075,27.9323016 19.4814057,27.8252287 C15.2874057,25.0702287 11.1694057,21.5232287 7.57240571,17.5662287 C6.7685709,16.6694559 6.76814008,15.3115115 7.57140571,14.4142287 C11.1664057,10.4582287 15.2844057,6.91022873 19.4814057,4.15322873 C19.9418561,3.87733386 20.5379645,4.01373911 20.8326129,4.46242042 C21.1272613,4.91110173 21.0155545,5.51232815 20.5794057,5.82522873 C16.5204057,8.49122873 12.5354057,11.9262287 9.05140571,15.7592287 C8.93959154,15.8926932 8.94001357,16.0872507 9.05240571,16.2202287 C12.5374057,20.0552287 16.5234057,23.4902287 20.5794057,26.1532287 C20.9491075,26.395891 21.1155221,26.8525674 20.9886186,27.2761945 C20.8732517,27.66131 20.5403811,27.9359648 20.1485615,27.9822973 L20.0294057,27.9892295 Z" id="â—-icon"></path>
        </g>
    </g>
</svg>