<?xml version="1.0" encoding="UTF-8"?>
<svg width="32px" height="26px" viewBox="0 0 32 26" version="1.1" xmlns="http://www.w3.org/2000/svg" xmlns:xlink="http://www.w3.org/1999/xlink">
    <title>icon/no_container/compare</title>
    <g id="Icons-variable-width---for-Exporting-only" stroke="none" stroke-width="1" fill="none" fill-rule="evenodd">
        <g id="icon-/-32-/-compare" transform="translate(0.000000, -3.000000)" fill="#39393A">
            <path d="M27,6.23481333 L29.658,11.5518133 L24.342,11.5518133 L27,6.23481333 Z M7.658,17.5518133 L2.342,17.5518133 L5,12.2348133 L7.658,17.5518133 Z M27,16.9988133 C29.762,16.9988133 32,14.7598133 32,11.9988133 C32,11.8488133 31.967,11.6948133 31.895,11.5518133 L27.895,3.55181333 C27.684,3.13681333 27.2,2.90981333 26.737,3.03381333 L18.462,5.29081333 C17.921,4.51181333 17.021,3.99881333 16,3.99881333 C14.42,3.99881333 13.14,5.22481333 13.022,6.77481333 L4.737,9.03381333 C4.451,9.11181333 4.229,9.30581333 4.105,9.55181333 L0.105,17.5518133 C0.033,17.6948133 0,17.8488133 0,17.9988133 C0,20.7608133 2.238,22.9988133 5,22.9988133 C7.762,22.9988133 10,20.7608133 10,17.9988133 C10,17.8488133 9.967,17.6948133 9.895,17.5518133 L6.44,10.6428133 L13.538,8.70681333 C13.893,9.21681333 14.404,9.60381333 15,9.81581333 L15,26.9988133 L5,26.9988133 C4.447,26.9988133 4,27.4458133 4,27.9988133 C4,28.5518133 4.447,28.9988133 5,28.9988133 L27,28.9988133 C27.553,28.9988133 28,28.5518133 28,27.9988133 C28,27.4458133 27.553,26.9988133 27,26.9988133 L17,26.9988133 L17,9.81581333 C18.094,9.42581333 18.887,8.42781333 18.978,7.22381333 L25.105,5.55181333 L22.105,11.5518133 C22.033,11.6948133 22,11.8478133 22,11.9988133 C22,14.7598133 24.238,16.9988133 27,16.9988133 Z" id="â—-icon"></path>
        </g>
    </g>
</svg>