<?xml version="1.0" encoding="UTF-8"?>
<svg width="30px" height="28px" viewBox="0 0 30 28" version="1.1" xmlns="http://www.w3.org/2000/svg" xmlns:xlink="http://www.w3.org/1999/xlink">
    <title>icon/no_container/contract</title>
    <g id="Icons-variable-width---for-Exporting-only" stroke="none" stroke-width="1" fill="none" fill-rule="evenodd">
        <g id="icon-/-32-/-contract" transform="translate(-1.000000, -2.000000)" fill="#39393A">
            <path d="M20.584974,2 C21.1372588,2 21.584974,2.44771525 21.584974,3 L21.584974,8.062 L24.219174,3.5008 C24.4745312,3.05508571 25.0213271,2.88270306 25.4808515,3.08213273 L25.585174,3.1348 L29.915174,5.6348 C30.144174,5.7668 30.312174,5.9858 30.381174,6.2418 C30.4378407,6.45513333 30.4229796,6.68027222 30.3394842,6.88249444 L30.281174,7.0008 L21.584974,22.061 L21.584974,29 C21.584974,29.5522847 21.1372588,30 20.584974,30 L2.58497403,30 C2.03268928,30 1.58497403,29.5522847 1.58497403,29 L1.58497403,3 C1.58497403,2.44771525 2.03268928,2 2.58497403,2 L20.584974,2 Z M19.584974,4 L3.58497403,4 L3.58497403,28 L19.584974,28 L19.584974,24.262 L16.219174,26.0518 C16.108924,26.1103 15.990799,26.1468625 15.8707053,26.1614875 L15.750174,26.1688 C15.620424,26.1688 15.490674,26.1434875 15.3689397,26.0932844 L15.250174,26.0348 L15.1433772,25.9635734 C14.9406897,25.8088391 14.8049397,25.5829484 14.7631272,25.3314641 L14.750174,25.2038 L14.602974,21 L5.58497403,21 L5.58497403,19 L15.269974,19 L16.424974,17 L5.58497403,17 L5.58497403,15 L17.578974,15 L19.584974,11.526 L19.584974,4 Z M8.58497403,23 L8.58497403,25 L5.58497403,25 L5.58497403,23 L8.58497403,23 Z M23.451174,8.8308 L16.951174,20.0888 L19.549174,21.5888 L26.049174,10.3308 L23.451174,8.8308 Z M15.584974,11 L15.584974,13 L5.58497403,13 L5.58497403,11 L15.584974,11 Z M17.584974,7 L17.584974,9 L5.58497403,9 L5.58497403,7 L17.584974,7 Z M25.451174,5.3668 L24.451174,7.0978 L27.049174,8.5978 L28.049174,6.8668 L25.451174,5.3668 Z" id="â—-icon"></path>
        </g>
    </g>
</svg>