<?xml version="1.0" encoding="UTF-8"?>
<svg width="10px" height="12px" viewBox="0 0 10 12" version="1.1" xmlns="http://www.w3.org/2000/svg" xmlns:xlink="http://www.w3.org/1999/xlink">
    <title>icon/no_container/currency_dollar</title>
    <g id="Icons-variable-width---for-Exporting-only" stroke="none" stroke-width="1" fill="none" fill-rule="evenodd">
        <g id="icon-/-32-/-currency-dollar" transform="translate(-11.000000, -10.000000)" fill="#39393A">
            <path d="M16.9814,24.0283 L16.9814,22.2993 C18.9974,21.9943 20.4724,20.7153 20.4724,18.5553 C20.4724,17.1163 19.8254,15.8743 17.4664,15.1363 L16.9814,14.9923 L16.9814,12.2023 C17.6824,12.3283 18.1864,12.6883 18.5294,13.1553 L20.3824,11.6263 C19.7524,10.7623 18.7624,9.9873 16.9814,9.8443 L16.9814,8.5123 L15.4874,8.5123 L15.4874,9.8613 C13.0024,10.1863 12.0674,11.8783 12.0674,13.6063 C12.0674,15.0643 12.6974,16.3413 14.9834,17.0613 L15.4874,17.2233 L15.4874,20.0133 C14.3174,19.8873 13.7944,19.3113 13.3804,18.5913 L11.5274,20.1753 C12.0124,21.0763 13.1654,22.2103 15.4874,22.3533 L15.4874,24.0283 L16.9814,24.0283 Z M15.4874,14.4873 C15.0374,14.2173 14.8924,13.8763 14.8924,13.4253 C14.8924,12.9763 15.0904,12.5803 15.4874,12.3633 L15.4874,14.4873 Z M16.9814,19.8513 L16.9814,17.7273 C17.4494,17.9803 17.6474,18.3223 17.6474,18.7903 C17.6474,19.2943 17.4134,19.6543 16.9814,19.8513 L16.9814,19.8513 Z" id="â—-icon"></path>
        </g>
    </g>
</svg>