<?xml version="1.0" encoding="UTF-8"?>
<svg width="16px" height="24px" viewBox="0 0 16 24" version="1.1" xmlns="http://www.w3.org/2000/svg" xmlns:xlink="http://www.w3.org/1999/xlink">
    <title>icon/no_container/electricity</title>
    <g id="Icons-variable-width---for-Exporting-only" stroke="none" stroke-width="1" fill="none" fill-rule="evenodd">
        <g id="icon-/-32-/-electricity" transform="translate(-8.000000, -4.000000)" fill="#39393A">
            <path d="M9.15829083,18.2375848 C8.79129083,18.2375848 8.45329083,18.0365848 8.27829083,17.7135848 C8.10329083,17.3905848 8.12029083,16.9985848 8.32029083,16.6905848 L17.0522908,3.30258477 C17.2462908,3.00558477 17.6242908,2.88458477 17.9552908,3.01558477 C18.2862908,3.14658477 18.4802908,3.49258477 18.4182908,3.84258477 L16.7652908,13.2085848 L22.8422908,13.2085848 C23.2162908,13.2085848 23.5582908,13.4165848 23.7302908,13.7485848 C23.9022908,14.0815848 23.8742908,14.4805848 23.6582908,14.7865848 L13.7882908,28.7195848 C13.5772908,29.0175848 13.1832908,29.1205848 12.8532908,28.9645848 C12.5242908,28.8075848 12.3552908,28.4375848 12.4532908,28.0865848 L15.1892908,18.2375848 L9.15829083,18.2375848 Z" id="â—-icon"></path>
        </g>
    </g>
</svg>