<?xml version="1.0" encoding="UTF-8"?>
<svg width="30px" height="32px" viewBox="0 0 30 32" version="1.1" xmlns="http://www.w3.org/2000/svg" xmlns:xlink="http://www.w3.org/1999/xlink">
    <title>icon/no_container/fax</title>
    <g id="Icons-variable-width---for-Exporting-only" stroke="none" stroke-width="1" fill="none" fill-rule="evenodd">
        <g id="icon-/-32-/-fax" transform="translate(-1.000000, 0.000000)" fill="#39393A">
            <path d="M26.2492154,18.71 L26.2492154,20.65 L24.7449154,20.6497 L24.7449154,30.0557 C24.7449154,31.0747476 23.9557997,31.9123893 22.9563396,31.989854 L22.8049154,31.9957 L9.20491537,31.9957 C8.18586775,31.9957 7.34822603,31.2065844 7.27076139,30.2071243 L7.26491537,30.0557 L7.26391537,20.6497 L5.75921537,20.65 L5.75921537,18.71 L26.2492154,18.71 Z M22.8049154,20.6497 L9.20391537,20.6497 L9.20491537,30.0557 L22.8049154,30.0557 L22.8049154,20.6497 Z M20.8549154,26.1757 L20.8549154,28.1157 L11.1449154,28.1157 L11.1449154,26.1757 L20.8549154,26.1757 Z M20.8549154,22.2857 L20.8549154,24.2257 L11.1449154,24.2257 L11.1449154,22.2857 L20.8549154,22.2857 Z M2.94491537,9.645 L29.0649154,9.645 C30.086279,9.645 30.9254112,10.4377066 30.9910355,11.4403935 L30.9950846,11.585 L30.9950846,22.805 C30.9950846,23.8240476 30.2058155,24.6616893 29.2063407,24.739154 L29.0549154,24.745 L26.2449154,24.745 L26.2449154,22.805 L29.0549154,22.805 L29.0549154,11.585 L2.94491537,11.585 L2.94491537,22.805 L5.75491537,22.805 L5.75491537,24.745 L2.94491537,24.745 C1.92586775,24.745 1.08822603,23.9558844 1.01076139,22.9564243 L1.00491537,22.805 L1.00491537,11.585 C1.00491537,10.5659524 1.79403102,9.72831066 2.79349112,9.65084602 L2.94491537,9.645 Z M25.1849154,13.685 C25.7703372,13.685 26.2449154,14.1595782 26.2449154,14.745 C26.2449154,15.3304218 25.7703372,15.805 25.1849154,15.805 C24.5994935,15.805 24.1249154,15.3304218 24.1249154,14.745 C24.1249154,14.1595782 24.5994935,13.685 25.1849154,13.685 Z M16.0249154,0 C18.3549154,0.01 21.4949154,0.93 23.4549154,1.86 C24.1049154,2.18 24.6249154,2.5 24.9549154,2.83 C25.1092011,2.99285714 25.2487929,3.17040816 25.291825,3.40673469 L25.3049154,3.53 L25.3049154,7.19 C25.3049154,7.54 25.1649154,7.85 24.9449154,8.07 C24.7477725,8.25857143 24.4918541,8.38836735 24.2086471,8.4216035 L24.0649154,8.43 L21.5749154,8.43 C21.2249154,8.43 20.9149154,8.29 20.6949154,8.07 C20.5063439,7.87285714 20.376548,7.61693878 20.3433119,7.33373178 L20.3349154,7.19 L20.3349154,5.4 L20.1912117,5.34666667 L20.1049154,5.31 L19.7871376,5.19074074 C19.6693598,5.14814815 19.5404709,5.10296296 19.4026931,5.05592593 L18.9649154,4.91 C18.0449154,4.61 16.8949154,4.33 15.9849154,4.33 C15.1849154,4.33 14.2149154,4.55 13.3749154,4.8 L12.9360354,4.93824 L12.5374754,5.07312 C12.2872354,5.16064 12.0699554,5.24208 11.8977954,5.30976 L11.6749154,5.4 L11.6749154,7.19 C11.6749154,7.54 11.5349154,7.85 11.3149154,8.07 C11.1177725,8.25857143 10.8618541,8.38836735 10.5786471,8.4216035 L10.4349154,8.43 L7.94491537,8.43 C7.60491537,8.43 7.29491537,8.29 7.06491537,8.08 C6.87634394,7.88285714 6.74654802,7.62693878 6.71331187,7.34373178 L6.70491537,7.2 L6.70491537,3.54 C6.71491537,3.25 6.86491537,3.04 7.05491537,2.85 C7.39491537,2.52 7.90491537,2.2 8.56491537,1.88 C9.22491537,1.56 10.0049154,1.25 10.8549154,0.97 C12.5549154,0.42 14.4749154,0 16.0249154,0 Z" id="â—-icon"></path>
        </g>
    </g>
</svg>