<?xml version="1.0" encoding="UTF-8"?>
<svg width="24px" height="32px" viewBox="0 0 24 32" version="1.1" xmlns="http://www.w3.org/2000/svg" xmlns:xlink="http://www.w3.org/1999/xlink">
    <title>icon/no_container/file_alert</title>
    <g id="Icons-variable-width---for-Exporting-only" stroke="none" stroke-width="1" fill="none" fill-rule="evenodd">
        <g id="icon-/-32-/-file-alert" transform="translate(-3.000000, 0.000000)" fill="#39393A">
            <path d="M6,5 L6,7 L5,7 L5,30 L20,30 L20,29 L22,29 L22,31 C22,31.5522847 21.5522847,32 21,32 L4,32 C3.44771525,32 3,31.5522847 3,31 L3,6 C3,5.44771525 3.44771525,5 4,5 L6,5 Z M20,0 C20.2210137,0 20.434484,0.0731644725 20.6080295,0.206080627 L20.7071068,0.292893219 L26.7071068,6.29289322 C26.8633871,6.44917353 26.9625983,6.65185492 26.9913276,6.86855602 L27,7 L27,26 C27,26.5128358 26.6139598,26.9355072 26.1166211,26.9932723 L26,27 L9,27 C8.48716416,27 8.06449284,26.6139598 8.00672773,26.1166211 L8,26 L8,1 C8,0.487164161 8.38604019,0.0644928393 8.88337887,0.00672773133 L9,0 L20,0 Z M19,2 L10,2 L10,25 L25,25 L25,8 L20,8 C19.4871642,8 19.0644928,7.61395981 19.0067277,7.11662113 L19,7 L19,2 Z M17,19 C17.6501331,18.999894 18.2263256,19.4186127 18.427,20.037 C18.5751919,20.4936599 18.4958366,20.9936636 18.2135358,21.3820003 C17.931235,21.770337 17.4801032,22.0000783 17,22 C16.3498669,22.000106 15.7736744,21.5813873 15.573,20.963 C15.4248081,20.5063401 15.5041634,20.0063364 15.7864642,19.6179997 C16.068765,19.229663 16.5198968,18.9999217 17,19 Z M17,9 C17.5522847,9 18,9.44771525 18,10 L18,16 C18,16.5522847 17.5522847,17 17,17 C16.4477153,17 16,16.5522847 16,16 L16,10 C16,9.44771525 16.4477153,9 17,9 Z M23.585,6 L21,3.415 L21,6 L23.585,6 Z" id="â—-icon"></path>
        </g>
    </g>
</svg>