<?xml version="1.0" encoding="UTF-8"?>
<svg width="26px" height="16px" viewBox="0 0 26 16" version="1.1" xmlns="http://www.w3.org/2000/svg" xmlns:xlink="http://www.w3.org/1999/xlink">
    <title>icon/no_container/forward</title>
    <g id="Icons-variable-width---for-Exporting-only" stroke="none" stroke-width="1" fill="none" fill-rule="evenodd">
        <g id="icon-/-32-/-forward" transform="translate(-3.000000, -8.000000)" fill="#39393A">
            <path d="M6.2495,9.1205 L14.9165,14.1235 C15.5865,14.5105 15.9995,15.2265 15.9995,15.9995 C15.9995,16.7735 15.5865,17.4895 14.9165,17.8755 L6.2495,22.8795 C5.5795,23.2675 4.7535,23.2675 4.0835,22.8795 C3.4135,22.4935 2.9995,21.7775 2.9995,21.0035 L2.9995,10.9965 C2.9995,10.2225 3.4135,9.5065 4.0835,9.1205 C4.7535,8.7325 5.5795,8.7325 6.2495,9.1205 Z M19.25,9.1205 L27.917,14.1235 C28.587,14.5105 29,15.2265 29,15.9995 C29,16.7735 28.587,17.4895 27.917,17.8755 L19.25,22.8795 C18.58,23.2675 17.754,23.2675 17.083,22.8795 C16.413,22.4935 16,21.7775 16,21.0035 L16,10.9965 C16,10.2225 16.413,9.5065 17.083,9.1205 C17.754,8.7325 18.58,8.7325 19.25,9.1205 Z" id="â—-icon"></path>
        </g>
    </g>
</svg>