<?xml version="1.0" encoding="UTF-8"?>
<svg width="26px" height="23px" viewBox="0 0 26 23" version="1.1" xmlns="http://www.w3.org/2000/svg" xmlns:xlink="http://www.w3.org/1999/xlink">
    <title>icon/no_container/get_in_touch</title>
    <g id="Icons-variable-width---for-Exporting-only" stroke="none" stroke-width="1" fill="none" fill-rule="evenodd">
        <g id="icon-/-32-/-get-in-touch" transform="translate(-3.000000, -7.000000)" fill="#39393A">
            <path d="M26,7 C27.6568542,7 29,8.34314575 29,10 L29,22 C29,23.6568542 27.6568542,25 26,25 L22,25 L22,29.5 C22,30.1903559 21.4403559,30.75 20.75,30.75 C20.4795372,30.75 20.2163702,30.6622777 20,30.5 L12.6666667,25 L6,25 C4.34314575,25 3,23.6568542 3,22 L3,10 C3,8.34314575 4.34314575,7 6,7 L26,7 Z M26,9 L6,9 C5.44771525,9 5,9.44771525 5,10 L5,22 C5,22.5522847 5.44771525,23 6,23 L12.6666667,23 C13.0994071,23 13.5204743,23.1403557 13.8666667,23.4 L20,28 L20,24.2 C20,23.5372583 20.5372583,23 21.2,23 L26,23 C26.5522847,23 27,22.5522847 27,22 L27,10 C27,9.44771525 26.5522847,9 26,9 Z M11,14.5 C11.8284271,14.5 12.5,15.1715729 12.5,16 C12.5,16.8284271 11.8284271,17.5 11,17.5 C10.1715729,17.5 9.5,16.8284271 9.5,16 C9.5,15.1715729 10.1715729,14.5 11,14.5 Z M16.0025298,14.5 C16.830957,14.5 17.5025298,15.1715729 17.5025298,16 C17.5025298,16.8284271 16.830957,17.5 16.0025298,17.5 C15.1741027,17.5 14.5025298,16.8284271 14.5025298,16 C14.5025298,15.1715729 15.1741027,14.5 16.0025298,14.5 Z M21.0025298,14.5 C21.830957,14.5 22.5025298,15.1715729 22.5025298,16 C22.5025298,16.8284271 21.830957,17.5 21.0025298,17.5 C20.1741027,17.5 19.5025298,16.8284271 19.5025298,16 C19.5025298,15.1715729 20.1741027,14.5 21.0025298,14.5 Z" id="â—-icon"></path>
        </g>
    </g>
</svg>