<?xml version="1.0" encoding="UTF-8"?>
<svg width="30px" height="23px" viewBox="0 0 30 23" version="1.1" xmlns="http://www.w3.org/2000/svg" xmlns:xlink="http://www.w3.org/1999/xlink">
    <title>icon/no_container/home</title>
    <g id="Icons-variable-width---for-Exporting-only" stroke="none" stroke-width="1" fill="none" fill-rule="evenodd">
        <g id="icon-/-32-/-home" transform="translate(-1.000000, -4.000000)" fill="#39393A">
            <path d="M1.10699856,16.553 C0.952139762,16.8629025 0.968713175,17.2308792 1.15080404,17.5256057 C1.3328949,17.8203322 1.65455845,17.999815 2.00099856,18 L5.98299856,18 L5.98299856,26 C5.98299856,26.6 6.38299856,27 6.98299856,27 L24.9829986,27 C25.5829986,27 25.9829986,26.6 25.9829986,26 L25.9829986,18 L29.9829986,18 C30.2829986,18 30.6829986,17.8 30.8829986,17.5 C31.0829986,17.2 30.9829986,16.9 30.8829986,16.6 L24.8829986,4.6 C24.6829986,4.2 24.3829986,4 23.9829986,4 L7.98299856,4 C7.58299856,4 7.28299856,4.2 7.08299856,4.6 L1.10699856,16.553 Z M23.9829986,25 L7.98299856,25 L7.98299856,18 L23.9829986,18 L23.9829986,25 Z M3.58299856,16 L8.58299856,6 L23.3829986,6 L28.3829986,16 L3.58299856,16 Z" id="â—-icon"></path>
        </g>
    </g>
</svg>