<?xml version="1.0" encoding="UTF-8"?>
<svg width="32px" height="25px" viewBox="0 0 32 25" version="1.1" xmlns="http://www.w3.org/2000/svg" xmlns:xlink="http://www.w3.org/1999/xlink">
    <title>icon/no_container/home_services</title>
    <g id="Icons-variable-width---for-Exporting-only" stroke="none" stroke-width="1" fill="none" fill-rule="evenodd">
        <g id="icon-/-32-/-home-services" transform="translate(0.000000, -3.000000)" fill="#39393A">
            <path d="M31.9,15.560004 L26.07,3.56000402 C25.9017466,3.216613 25.5523951,2.99923875 25.17,3.000002 L6.83,3.000002 C6.4476049,2.99923875 6.09825342,3.216613 5.93,3.56000402 L0.1,15.560004 C-0.0520209917,15.8702642 -0.0331161049,16.237019 0.15,16.530004 C0.333115454,16.8229895 0.65449853,17.0006954 1,17.000002 L5,17.000002 L5,27.000002 C5,27.5522888 5.44771525,28.000002 6,28.000002 L26,28.000002 C26.5522847,28.000002 27,27.5522888 27,27.000002 L27,17.000002 L31,17.000002 C31.5325988,17.0007246 31.9723053,16.5838827 32,16.052004 C32.008696,15.8821948 31.9742957,15.712945 31.9,15.560004 Z M25,17.000004 L25,26.000004 L7,26.000004 L7,15.000004 L2.6,15.000004 L7.46,5.00000402 L24.54,5.00000402 L29.4,15.000004 L25,15.000004 L25,17.000004 Z M15.545,10.054004 C16.5782827,11.0879914 16.883743,12.6441398 16.318,13.992004 C16.307,14.020004 16.293,14.048004 16.279,14.076004 L16.279,14.076004 C16.265,14.104004 16.251,14.132004 16.24,14.160004 L22.049,19.975004 C22.5115385,20.4375425 22.5115385,21.1874655 22.049,21.650004 C21.5864615,22.1125425 20.8365385,22.1125425 20.374,21.650004 L14.559,15.835004 L14.391,15.919004 C13.1058331,16.4583128 11.6248374,16.2073508 10.5890923,15.2747523 C9.55334729,14.3421538 9.14896864,12.8954997 9.551,11.561004 L9.567,11.513004 L9.584,11.466004 L11.7,13.578004 L13.431,13.029004 L13.98,11.303004 L11.864,9.19100402 L11.912,9.17400402 L11.912,9.17400402 L11.96,9.15800402 C13.228717,8.76965285 14.608174,9.11442092 15.545,10.054004 Z" id="â—-icon"></path>
        </g>
    </g>
</svg>