<?xml version="1.0" encoding="UTF-8"?>
<svg width="32px" height="25px" viewBox="0 0 32 25" version="1.1" xmlns="http://www.w3.org/2000/svg" xmlns:xlink="http://www.w3.org/1999/xlink">
    <title>icon/no_container/home_setup</title>
    <g id="Icons-variable-width---for-Exporting-only" stroke="none" stroke-width="1" fill="none" fill-rule="evenodd">
        <g id="icon-/-32-/-home-setup" transform="translate(0.000000, -3.000000)" fill="#39393A">
            <path d="M25.17,3 C25.5099068,2.99932356 25.823705,3.17100067 26.0074113,3.450334 L26.07,3.56000402 L31.9,15.560004 C31.9742957,15.712945 32.008696,15.8821948 32,16.052004 C31.9742835,16.5458914 31.5933119,16.9405888 31.1125902,16.9938758 L31,17 L27,17 L27,27 C27,27.5128397 26.6139598,27.9355094 26.1166211,27.9932743 L26,28 L6,28 C5.48716416,28 5.06449284,27.6139635 5.00672773,27.1166235 L5,27 L5,17 L1,17 C0.65449853,17.0006954 0.333115454,16.8229895 0.15,16.530004 C-0.0102265917,16.2736421 -0.0447289697,15.9608002 0.0509911641,15.6787453 L0.1,15.560004 L5.93,3.56000402 C6.07955859,3.25476756 6.37220701,3.0490999 6.7039619,3.00770039 L6.83,3 L25.17,3 Z M24.54,5.00000402 L7.46,5.00000402 L2.6,15.000004 L7,15.000004 L7,26.000004 L25,26.000004 L25,15.000004 L29.4,15.000004 L24.54,5.00000402 Z M16.5,10.000004 C16.7761424,10.000004 17,10.2238616 17,10.500004 L17.0007613,11.6262175 C17.3675098,11.7206895 17.7138936,11.8658698 18.031992,12.0538376 L18.828,11.257004 C18.9218043,11.1629623 19.0491727,11.1101102 19.182,11.1101102 C19.3148273,11.1101102 19.4421957,11.1629623 19.536,11.257004 L20.243,11.964004 C20.3370417,12.0578083 20.3898938,12.1851768 20.3898938,12.318004 C20.3898938,12.4508313 20.3370417,12.5781998 20.243,12.672004 L19.4467617,13.4690198 C19.6346124,13.7871325 19.7796793,14.1335142 19.8740452,14.5002475 L21,14.500004 C21.2761424,14.500004 21.5,14.7238616 21.5,15.000004 L21.5,16.000004 C21.5,16.2761464 21.2761424,16.500004 21,16.500004 L19.8737865,16.5007654 C19.7793145,16.8675138 19.6341343,17.2138976 19.4461664,17.531996 L20.243,18.328004 C20.3370417,18.4218083 20.3898938,18.5491768 20.3898938,18.682004 C20.3898938,18.8148313 20.3370417,18.9421998 20.243,19.036004 L19.536,19.743004 C19.4421957,19.8370457 19.3148273,19.8898978 19.182,19.8898978 C19.0491727,19.8898978 18.9218043,19.8370457 18.828,19.743004 L18.031992,18.9461704 C17.7138936,19.1341383 17.3675098,19.2793185 17.0007613,19.3737905 L17,20.500004 C17,20.7761464 16.7761424,21.000004 16.5,21.000004 L15.5,21.000004 C15.2238576,21.000004 15,20.7761464 15,20.500004 L15.0002435,19.3740492 C14.6335101,19.2796833 14.2871285,19.1346164 13.9690158,18.9467657 L13.172,19.743004 C13.0781957,19.8370457 12.9508273,19.8898978 12.818,19.8898978 C12.6851727,19.8898978 12.5578043,19.8370457 12.464,19.743004 L11.757,19.036004 C11.6629583,18.9421998 11.6101062,18.8148313 11.6101062,18.682004 C11.6101062,18.5491768 11.6629583,18.4218083 11.757,18.328004 L12.5538336,17.531996 C12.3658657,17.2138976 12.2206855,16.8675138 12.1262135,16.5007654 L11,16.500004 C10.7238576,16.500004 10.5,16.2761464 10.5,16.000004 L10.5,15.000004 C10.5,14.7238616 10.7238576,14.500004 11,14.500004 L12.1259548,14.5002475 C12.2204204,14.1331269 12.3656941,13.7864009 12.5538336,13.4680121 L11.757,12.672004 C11.6629583,12.5781998 11.6101062,12.4508313 11.6101062,12.318004 C11.6101062,12.1851768 11.6629583,12.0578083 11.757,11.964004 L12.464,11.257004 C12.5578043,11.1629623 12.6851727,11.1101102 12.818,11.1101102 C12.9508273,11.1101102 13.0781957,11.1629623 13.172,11.257004 L13.968008,12.0538376 C14.2863969,11.8656981 14.6331228,11.7204244 15.0002435,11.6259588 L15,10.500004 C15,10.2238616 15.2238576,10.000004 15.5,10.000004 L16.5,10.000004 Z M16,13.500004 C14.8954305,13.500004 14,14.3954345 14,15.500004 C14,16.6045735 14.8954305,17.500004 16,17.500004 C17.1045695,17.500004 18,16.6045735 18,15.500004 C18,14.3954345 17.1045695,13.500004 16,13.500004 Z" id="â—-icon"></path>
        </g>
    </g>
</svg>