<?xml version="1.0" encoding="UTF-8"?>
<svg width="24px" height="32px" viewBox="0 0 24 32" version="1.1" xmlns="http://www.w3.org/2000/svg" xmlns:xlink="http://www.w3.org/1999/xlink">
    <title>icon/no_container/landline</title>
    <g id="Icons-variable-width---for-Exporting-only" stroke="none" stroke-width="1" fill="none" fill-rule="evenodd">
        <g id="icon-/-32-/-electric-landline" transform="translate(-4.000000, 0.000000)" fill="#39393A">
            <path d="M20.5260554,13 L19.8950554,10.861 L23.4220554,13 L20.5260554,13 Z M16.0000554,16.58 L13.6950554,15 L18.3040554,15 L16.0000554,16.58 Z M23.0320554,28.571 L17.9740554,25.603 L21.5400554,23.51 L23.0320554,28.571 Z M17.7680554,17.792 L19.5040554,16.603 L20.3820554,19.585 L17.7680554,17.792 Z M11.7260554,21.935 L16.0000554,19.005 L20.2720554,21.935 L16.0000554,24.443 L11.7260554,21.935 Z M8.96705545,28.571 L10.4600554,23.51 L14.0240554,25.603 L8.96705545,28.571 Z M12.4960554,16.603 L14.2310554,17.792 L11.6170554,19.584 L12.4960554,16.603 Z M8.57705545,13 L12.1040554,10.86 L11.4730554,13 L8.57705545,13 Z M16.0000554,4.718 L16.8150554,7.484 L15.1840554,7.484 L16.0000554,4.718 Z M14.5940554,9.484 L17.4050554,9.484 L18.4410554,13 L13.5580554,13 L14.5940554,9.484 Z M27.5180554,13.145 L19.0560554,8.012 L16.9590554,0.898 C16.8340554,0.473 16.4430554,0.181 16.0000554,0.181 C15.5560554,0.181 15.1660554,0.473 15.0410554,0.898 L12.9430554,8.012 L4.48105545,13.145 C4.09705545,13.377 3.91605545,13.837 4.03705545,14.269 C4.15705545,14.701 4.55105545,15 5.00005545,15 L10.8830554,15 L8.91205545,21.689 C8.90505545,21.708 8.90005545,21.727 8.89505545,21.746 L6.33505545,30.431 C6.21805545,30.825 6.35405545,31.249 6.67705545,31.502 C7.00405545,31.755 7.44905545,31.784 7.79905545,31.576 L16.0000554,26.763 L24.2000554,31.576 C24.3560554,31.668 24.5310554,31.7140302 24.7060554,31.7140302 C24.9240554,31.7140302 25.1410554,31.643 25.3220554,31.502 C25.6450554,31.249 25.7810554,30.825 25.6650554,30.431 L21.1160554,15 L27.0000554,15 C27.4480554,15 27.8420554,14.701 27.9630554,14.269 C28.0840554,13.837 27.9020554,13.377 27.5180554,13.145 L27.5180554,13.145 Z" id="â—-icon"></path>
        </g>
    </g>
</svg>