<?xml version="1.0" encoding="UTF-8"?>
<svg width="18px" height="25px" viewBox="0 0 18 25" version="1.1" xmlns="http://www.w3.org/2000/svg" xmlns:xlink="http://www.w3.org/1999/xlink">
    <title>icon/no_container/location</title>
    <g id="Icons-variable-width---for-Exporting-only" stroke="none" stroke-width="1" fill="none" fill-rule="evenodd">
        <g id="icon-/-32-/-location" transform="translate(-7.000000, -3.000000)" fill="#39393A">
            <path d="M16,3.45 C11.2,3.45 7.3,7.35 7.3,12.15 C7.3,16.85 11.5,23.55 15.3,28.15 C15.5,28.35 15.7,28.55 16,28.55 C16.3,28.55 16.5,28.35 16.7,28.15 C20.4,23.65 24.7,16.85 24.7,12.15 C24.7,7.43727273 20.9405289,3.5921157 16.2609076,3.45384974 L16,3.45 Z M16,17.35 C13,17.35 10.6,14.95 10.6,11.95 C10.6,8.95 13,6.55 16,6.55 C19,6.55 21.4,8.95 21.4,11.95 C21.4,14.95 19,17.35 16,17.35 Z" id="â—-icon"></path>
        </g>
    </g>
</svg>