<?xml version="1.0" encoding="UTF-8"?>
<svg width="24px" height="24px" viewBox="0 0 24 24" version="1.1" xmlns="http://www.w3.org/2000/svg" xmlns:xlink="http://www.w3.org/1999/xlink">
    <title>icon/no_container/logout</title>
    <g id="Icons-variable-width---for-Exporting-only" stroke="none" stroke-width="1" fill="none" fill-rule="evenodd">
        <g id="icon-/-32-/-logout" transform="translate(-5.000000, -4.000000)" fill="#39393A">
            <path d="M18,4 C19.654,4 21,5.346 21,7 L21,11 C21,11.553 20.553,12 20,12 C19.447,12 19,11.553 19,11 L19,7 C19,6.448 18.552,6 18,6 L8,6 C7.448,6 7,6.448 7,7 L7,25 C7,25.552 7.448,26 8,26 L18,26 C18.552,26 19,25.552 19,25 L19,21 C19,20.447 19.447,20 20,20 C20.553,20 21,20.447 21,21 L21,25 C21,26.654 19.654,28 18,28 L8,28 C6.346,28 5,26.654 5,25 L5,7 C5,5.346 6.346,4 8,4 L18,4 Z M23.2162,11.3786 C23.5582,10.9476 24.1852,10.8716 24.6212,11.2156 C26.5442,12.7386 27.9192,14.1186 28.8242,15.4336 C29.0582,15.7746 29.0582,16.2256 28.8242,16.5666 C27.9192,17.8816 26.5442,19.2616 24.6212,20.7846 C24.4362,20.9296 24.2182,20.9995947 24.0012,20.9995947 C23.7052,20.9995947 23.4132,20.8706 23.2162,20.6206 C22.8732,20.1876 22.9462,19.5586 23.3792,19.2156 C24.235825,18.537475 24.9707156,17.8876781 25.5959305,17.264866 L25.8572,16.9995947 L16.0002,16.9995947 C15.4472,16.9995947 15.0002,16.5526 15.0002,15.9995947 C15.0002,15.4870282 15.3856235,15.064126 15.8834467,15.0063266 L16.0002,14.9995947 L25.8572,14.9995947 C25.1782,14.2976 24.3582,13.5596 23.3792,12.7846 C22.9462,12.4416 22.8732,11.8126 23.2162,11.3786 Z" id="â—-icon"></path>
        </g>
    </g>
</svg>