<?xml version="1.0" encoding="UTF-8"?>
<svg width="24px" height="19px" viewBox="0 0 24 19" version="1.1" xmlns="http://www.w3.org/2000/svg" xmlns:xlink="http://www.w3.org/1999/xlink">
    <title>icon/no_container/menu</title>
    <g id="Icons-variable-width---for-Exporting-only" stroke="none" stroke-width="1" fill="none" fill-rule="evenodd">
        <g id="icon-/-32-/-menu" transform="translate(-4.000000, -6.000000)" fill="#39393A">
            <path d="M5.5,9 L26.5,9 C27.3,9 28,8.3 28,7.5 C28,6.7 27.3,6 26.5,6 L5.5,6 C4.7,6 4,6.7 4,7.5 C4,8.3 4.7,9 5.5,9 Z M26.5,22 L5.5,22 C4.7,22 4,22.7 4,23.5 C4,24.3 4.7,25 5.5,25 L26.5,25 C27.3,25 28,24.3 28,23.5 C28,22.7 27.3,22 26.5,22 Z M26.5,14 L5.5,14 C4.7,14 4,14.7 4,15.5 C4,16.3 4.7,17 5.5,17 L26.5,17 C27.3,17 28,16.3 28,15.5 C28,14.7 27.3,14 26.5,14 Z" id="â—-icon"></path>
        </g>
    </g>
</svg>