<?xml version="1.0" encoding="UTF-8"?>
<svg width="32px" height="20px" viewBox="0 0 32 20" version="1.1" xmlns="http://www.w3.org/2000/svg" xmlns:xlink="http://www.w3.org/1999/xlink">
    <title>icon/no_container/meter_read_auto</title>
    <g id="Icons-variable-width---for-Exporting-only" stroke="none" stroke-width="1" fill="none" fill-rule="evenodd">
        <g id="icon-/-32-/-meter-read-auto" transform="translate(0.000000, -8.000000)" fill="#39393A">
            <path d="M18.062,8.003 C17.9959036,8.53428549 17.9826843,9.07048581 18.0223421,9.60373722 L18.062,10.003 L17,10.003 L17,26.003 L20.772,26.003 C20.706463,25.8027931 20.6652035,25.5957042 20.6489252,25.3861763 L20.641,25.176 L22.441,25.176 C22.441,25.715 22.825,26.003 23.461,26.003 C23.7234794,26.0361174 23.9876026,25.9555074 24.1868584,25.781469 C24.3861141,25.6074307 24.5015147,25.3565487 24.504,25.092 C24.504,24.462 24.1462852,24.0534844 23.3303306,24.0048809 L23.161,24 L22.37,24 L22.37,22.534 L23.161,22.534 C23.964,22.534 24.384,22.222 24.384,21.539 C24.4011332,21.2923617 24.3080878,21.0508112 24.1299226,20.879402 C23.9814515,20.736561 23.7865916,20.6546689 23.5835217,20.6467618 L23.461,20.651 C22.9182308,20.651 22.6004083,20.9066213 22.5547242,21.332919 L22.549,21.443 L20.738,21.443 C20.738,20.15 21.554,19.143 23.461,19.143 C25.176,19.143 26.255,20.087 26.255,21.443 C26.2752479,22.2896289 25.7165249,23.0413278 24.9,23.266 C25.7811592,23.4867473 26.3891127,24.2920774 26.36,25.2 C26.3586052,25.4058201 26.3277081,25.6100169 26.2685426,25.8064214 L26.2,26 L29,26 C29.5128358,26 29.9355072,25.6139598 29.9932723,25.1166211 L30,25 L30,15.921 C30.6438373,15.5477325 31.2320665,15.0869853 31.7480851,14.5523891 L32,14.279 L32,25.003 C32,26.6006809 30.75108,27.9066609 29.1762728,27.9979073 L29,28.003 L3,28.003 C1.40231912,28.003 0.0963391206,26.75408 0.00509269341,25.1792728 L0,25.003 L0,11.003 C0,9.40531912 1.24891996,8.09933912 2.82372721,8.00809269 L3,8.003 L18.062,8.003 Z M15,10 L3,10 C2.48716416,10 2.06449284,10.3860402 2.00672773,10.8833789 L2,11 L2,25 C2,25.5128358 2.38604019,25.9355072 2.88337887,25.9932723 L3,26 L15,26 L15,10 Z M8.22430814,13.8676664 L8.41,13.881 C9.11386092,13.82158 9.81000974,14.0626917 10.3263379,14.544725 C10.8426661,15.0267583 11.13098,15.7047208 11.12,16.411 C10.9732892,17.4920857 10.4536608,18.4850973 9.65517361,19.2208537 L9.466,19.386 L8.266,20.656 L11.14,20.656 L11.14,22.12 L5.852,22.12 L5.852,20.885 L8.262,18.307 C8.82746883,17.8281139 9.18580035,17.1490757 9.262,16.412 C9.262,15.866 9.02402041,15.4545102 8.52884548,15.3985117 L8.41,15.392 L8.28551852,15.3981695 C7.76729037,15.4513905 7.52296741,15.8457161 7.49070815,16.4555105 L7.487,16.6 L5.687,16.6 C5.60646182,15.8563739 5.86750843,15.1163455 6.39679507,14.5878363 C6.88197448,14.1033696 7.5445573,13.8445601 8.22430814,13.8676664 L8.22430814,13.8676664 Z M21.7579582,4.75747909 C24.1009442,2.41436074 27.8997494,2.41414625 30.243,4.757 C31.3684381,5.88224747 32.0007187,7.40852497 32.0007187,9 C32.0007187,10.591475 31.3684381,12.1177525 30.243,13.243 C27.8997494,15.5858537 24.1009442,15.5856393 21.7579582,13.2425209 C19.4149721,10.8994026 19.4149721,7.10059744 21.7579582,4.75747909 Z M28.8285,6.56047326 C28.5965938,6.56047326 28.3742212,6.64567328 28.2024681,6.79757582 L25.293,9.707 L23.879,8.293 C23.4885347,7.90225855 22.8552415,7.9020347 22.4645,8.29250001 C22.1038156,8.65292953 22.0758799,9.22026566 22.3808279,9.61274417 L22.464,9.707 L25.293,12.536 L29.536,8.293 C29.7382202,8.11365111 29.8539625,7.85629437 29.8539625,7.586 C29.8539625,7.35431911 29.7689274,7.13214342 29.6172859,6.96045009 L29.4545319,6.79757582 C29.2827788,6.64567328 29.0604062,6.56047326 28.8285,6.56047326 Z" id="â—-icon"></path>
        </g>
    </g>
</svg>