<svg xmlns="http://www.w3.org/2000/svg" width="26" height="15" viewBox="0 0 26 15">
  <path fill="#39393A" fill-rule="evenodd" d="M25.375,9 C25.5312508,9 25.6744785,9.06510352 25.8046875,9.1953125 C25.9348965,9.32552148 26,9.46874922 26,9.625 L26,23.375 C26,23.5312508 25.9348965,23.6744785 25.8046875,23.8046875 C25.6744785,23.9348965 25.5312508,24 25.375,24 L22.25,24 L20.1796875,21.9296875 C20.0624994,21.8124994 19.9192717,21.7539062 19.75,21.7539062 C19.5807283,21.7539062 19.4375006,21.8124994 19.3203125,21.9296875 L17.25,24 L6.625,24 C6.46874922,24 6.32552148,23.9348965 6.1953125,23.8046875 C6.06510352,23.6744785 6,23.5312508 6,23.375 L6,9.625 C6,9.46874922 6.06510352,9.32552148 6.1953125,9.1953125 C6.32552148,9.06510352 6.46874922,9 6.625,9 L25.375,9 Z M7.875,10.25 L11.625,10.25 C11.8072926,10.25 11.9570307,10.3085932 12.0742188,10.4257812 C12.1679692,10.5195317 12.2242189,10.6341142 12.2429688,10.769531 L12.25,10.875 L12.25,18.375 C12.25,18.5312508 12.1914068,18.6744785 12.0742188,18.8046875 C11.9804683,18.9088547 11.8658858,18.9713544 11.730469,18.9921876 L11.625,19 L7.875,19 C7.71874922,19 7.57552148,18.9348965 7.4453125,18.8046875 C7.34114531,18.7005203 7.27864562,18.5880211 7.25781244,18.4671877 L7.25,18.375 L7.25,10.875 C7.25,10.6927074 7.31510352,10.5429693 7.4453125,10.4257812 C7.54947969,10.3320308 7.66197888,10.2757811 7.78281226,10.2570312 L7.875,10.25 Z M28,0 C28.2761424,0 28.5,0.223857625 28.5,0.5 L28.5,3.5 L31.5,3.5 C31.7761424,3.5 32,3.72385763 32,4 C32,4.27614237 31.7761424,4.5 31.5,4.5 L28.5,4.5 L28.5,7.5 C28.5,7.77614237 28.2761424,8 28,8 C27.7238576,8 27.5,7.77614237 27.5,7.5 L27.5,4.5 L24.5,4.5 C24.2238576,4.5 24,4.27614237 24,4 C24,3.72385763 24.2238576,3.5 24.5,3.5 L27.5,3.5 L27.5,0.5 C27.5,0.223857625 27.7238576,0 28,0 Z M18.5,18.375 L18.5,10.875 C18.5,10.6927074 18.4348965,10.5429693 18.3046875,10.4257812 C18.1744785,10.3085932 18.0312508,10.25 17.875,10.25 L14.125,10.25 C13.9427074,10.25 13.7929693,10.3085932 13.6757812,10.4257812 C13.5585932,10.5429693 13.5,10.6927074 13.5,10.875 L13.5,18.375 C13.5,18.5312508 13.5585932,18.6744785 13.6757812,18.8046875 C13.7929693,18.9348965 13.9427074,19 14.125,19 L17.875,19 C18.0312508,19 18.1744785,18.9348965 18.3046875,18.8046875 C18.4348965,18.6744785 18.5,18.5312508 18.5,18.375 Z M24.75,18.375 L24.75,10.875 C24.75,10.6927074 24.6848965,10.5429693 24.5546875,10.4257812 C24.4244785,10.3085932 24.2812508,10.25 24.125,10.25 L20.375,10.25 C20.2187492,10.25 20.0755215,10.3085932 19.9453125,10.4257812 C19.8151035,10.5429693 19.75,10.6927074 19.75,10.875 L19.75,18.4335938 C19.75,18.5898445 19.8151035,18.7330723 19.9453125,18.8632812 C20.0755215,18.9934902 20.2187492,19.0585938 20.375,19.0585938 L22.9335938,19.0585938 C22.8424475,18.9414057 22.7154956,18.8502607 22.5527344,18.7851562 C22.3899731,18.7200518 22.1848971,18.6875 21.9375,18.6875 C21.8767358,18.6875 21.8087385,18.6918402 21.7335071,18.7005208 L21.6152344,18.7167969 C21.4915358,18.7363282 21.3710943,18.7460938 21.2539062,18.7460938 L21.2539062,18.0625 L21.5664062,18.0625 C21.9960959,18.0625 22.331379,17.987631 22.5722656,17.8378906 C22.8131522,17.6881503 22.9335938,17.4700535 22.9335938,17.1835938 C22.9335938,17.0013012 22.8847661,16.8613286 22.7871094,16.7636719 C22.6894526,16.6660151 22.529949,16.6171875 22.3085938,16.6171875 C22.0872385,16.6171875 21.8756521,16.6562496 21.6738281,16.734375 C21.4720042,16.8125004 21.2473971,16.9427074 21,17.125 L20.7460938,16.6171875 C21.0325535,16.4088531 21.3092435,16.2526047 21.5761719,16.1484375 C21.8431003,16.0442703 22.1328109,15.9921875 22.4453125,15.9921875 C22.8098977,15.9921875 23.1093738,16.0963531 23.34375,16.3046875 C23.5781262,16.5130219 23.6953125,16.7864566 23.6953125,17.125 C23.6953125,17.3723971 23.630209,17.5904938 23.5,17.7792969 C23.369791,17.9680999 23.1614598,18.1276035 22.875,18.2578125 L22.7578125,18.2578125 L22.7578125,18.3164062 L22.9335938,18.3164062 C23.1809908,18.3815107 23.3730462,18.4661453 23.5097656,18.5703125 C23.6464851,18.6744797 23.7473955,18.8177074 23.8125,19 L24.125,19 C24.2812508,19 24.4244785,18.9348965 24.5546875,18.8046875 C24.6848965,18.6744785 24.75,18.5312508 24.75,18.375 Z M8.3828125,13.6289062 L10.1796875,12.2421875 L10.6875,12.2421875 L10.6875,16.8710938 L10.0039062,16.8710938 L10.0039062,13.1796875 L10.0625,13.1210938 L10.0039062,13.0625 L9.9453125,13.1796875 L8.6171875,14.0585938 L8.3828125,13.6289062 Z M15.4921875,16.3046875 L15.6875,16.2460938 L17.6210938,16.3046875 L17.6210938,16.9296875 L14.4375,16.9296875 L14.4375,16.5 C14.7760434,16.2526029 15.0624988,16.0149751 15.296875,15.7871094 C15.5312512,15.5592437 15.7851549,15.2760434 16.0585938,14.9375 C16.279949,14.6510402 16.4394526,14.4069021 16.5371094,14.2050781 C16.6347661,14.0032542 16.6835938,13.8111988 16.6835938,13.6289062 C16.6835938,13.407551 16.6250006,13.2382818 16.5078125,13.1210938 C16.3906244,13.0039057 16.2213553,12.9453125 16,12.9453125 C15.7786447,12.9453125 15.580079,12.9973953 15.4042969,13.1015625 C15.2285147,13.2057297 15.029949,13.3815092 14.8085938,13.6289062 L14.5546875,13.0625 C14.8151055,12.7499984 15.0624988,12.5351568 15.296875,12.4179688 C15.5312512,12.3007807 15.8046859,12.2421875 16.1171875,12.2421875 C16.5338562,12.2421875 16.8593738,12.3593738 17.09375,12.59375 C17.3281262,12.8281262 17.4453125,13.1536438 17.4453125,13.5703125 C17.4453125,13.9739604 17.3151055,14.3710918 17.0546875,14.7617188 C16.7942695,15.1523457 16.3385449,15.6276014 15.6875,16.1875 L15.4921875,16.3046875 Z" transform="translate(-6 -9)"/>
</svg>
