<?xml version="1.0" encoding="UTF-8"?>
<svg width="32px" height="21px" viewBox="0 0 32 21" version="1.1" xmlns="http://www.w3.org/2000/svg" xmlns:xlink="http://www.w3.org/1999/xlink">
    <title>icon/no_container/meter_read_auto_02</title>
    <g id="Icons-variable-width---for-Exporting-only" stroke="none" stroke-width="1" fill="none" fill-rule="evenodd">
        <g id="icon-/-32-/-meter-read-auto-02" transform="translate(0.000000, -8.000000)" fill="#39393A">
            <path d="M18.062,8.503 C17.9959036,9.03428549 17.9826843,9.57048581 18.0223421,10.1037372 L18.062,10.503 L17,10.503 L17,26.503 L20.772,26.503 C20.706463,26.3027931 20.6652035,26.0957042 20.6489252,25.8861763 L20.641,25.676 L22.441,25.676 C22.441,26.215 22.825,26.503 23.461,26.503 C23.7234794,26.5361174 23.9876026,26.4555074 24.1868584,26.281469 C24.3861141,26.1074307 24.5015147,25.8565487 24.504,25.592 C24.504,24.962 24.1462852,24.5534844 23.3303306,24.5048809 L23.161,24.5 L22.37,24.5 L22.37,23.034 L23.161,23.034 C23.964,23.034 24.384,22.722 24.384,22.039 C24.4011332,21.7923617 24.3080878,21.5508112 24.1299226,21.379402 C23.9814515,21.236561 23.7865916,21.1546689 23.5835217,21.1467618 L23.461,21.151 C22.9182308,21.151 22.6004083,21.4066213 22.5547242,21.832919 L22.549,21.943 L20.738,21.943 C20.738,20.65 21.554,19.643 23.461,19.643 C25.176,19.643 26.255,20.587 26.255,21.943 C26.2752479,22.7896289 25.7165249,23.5413278 24.9,23.766 C25.7811592,23.9867473 26.3891127,24.7920774 26.36,25.7 C26.3586052,25.9058201 26.3277081,26.1100169 26.2685426,26.3064214 L26.2,26.5 L29,26.5 C29.5128358,26.5 29.9355072,26.1139598 29.9932723,25.6166211 L30,25.5 L30,16.421 C30.6438373,16.0477325 31.2320665,15.5869853 31.7480851,15.0523891 L32,14.779 L32,25.503 C32,27.1006809 30.75108,28.4066609 29.1762728,28.4979073 L29,28.503 L3,28.503 C1.40231912,28.503 0.0963391206,27.25408 0.00509269341,25.6792728 L0,25.503 L0,11.503 C0,9.90531912 1.24891996,8.59933912 2.82372721,8.50809269 L3,8.503 L18.062,8.503 Z M15,10.5 L3,10.5 C2.48716416,10.5 2.06449284,10.8860402 2.00672773,11.3833789 L2,11.5 L2,25.5 C2,26.0128358 2.38604019,26.4355072 2.88337887,26.4932723 L3,26.5 L15,26.5 L15,10.5 Z M8.22430814,14.3676664 L8.41,14.381 C9.11386092,14.32158 9.81000974,14.5626917 10.3263379,15.044725 C10.8426661,15.5267583 11.13098,16.2047208 11.12,16.911 C10.9732892,17.9920857 10.4536608,18.9850973 9.65517361,19.7208537 L9.466,19.886 L8.266,21.156 L11.14,21.156 L11.14,22.62 L5.852,22.62 L5.852,21.385 L8.262,18.807 C8.82746883,18.3281139 9.18580035,17.6490757 9.262,16.912 C9.262,16.366 9.02402041,15.9545102 8.52884548,15.8985117 L8.41,15.892 L8.28551852,15.8981695 C7.76729037,15.9513905 7.52296741,16.3457161 7.49070815,16.9555105 L7.487,17.1 L5.687,17.1 C5.60646182,16.3563739 5.86750843,15.6163455 6.39679507,15.0878363 C6.88197448,14.6033696 7.5445573,14.3445601 8.22430814,14.3676664 L8.22430814,14.3676664 Z M26,3.5 C29.3137085,3.5 32,6.1862915 32,9.5 C32,12.8137085 29.3137085,15.5 26,15.5 C22.6862915,15.5 20,12.8137085 20,9.5 C20,6.1862915 22.6862915,3.5 26,3.5 Z M26.51,10.65 L25.51,10.65 C24.8472583,10.65 24.31,11.1872583 24.31,11.85 C24.31,12.4713203 24.7821997,12.9823525 25.387307,13.0438045 L25.51,13.05 L26.51,13.05 C27.1727417,13.05 27.71,12.5127417 27.71,11.85 C27.71,11.2286797 27.2378003,10.7176475 26.632693,10.6561955 L26.51,10.65 Z M28.41,6.75 L23.61,6.75 C22.9472583,6.75 22.41,7.2872583 22.41,7.95 C22.41,8.57132034 22.8821997,9.08235254 23.487307,9.14380454 L23.61,9.15 L28.41,9.15 C29.0727417,9.15 29.61,8.6127417 29.61,7.95 C29.61,7.32867966 29.1378003,6.81764746 28.532693,6.75619546 L28.41,6.75 Z" id="â—-icon"></path>
        </g>
    </g>
</svg>