<?xml version="1.0" encoding="UTF-8"?>
<svg width="6px" height="25px" viewBox="0 0 6 25" version="1.1" xmlns="http://www.w3.org/2000/svg" xmlns:xlink="http://www.w3.org/1999/xlink">
    <title>icon/no_container/more</title>
    <g id="Icons-variable-width---for-Exporting-only" stroke="none" stroke-width="1" fill="none" fill-rule="evenodd">
        <g id="icon-/-32-/-more" transform="translate(-13.000000, -3.000000)" fill="#39393A">
            <path d="M16,23 C17.3807119,23 18.5,24.1192881 18.5,25.5 C18.5,26.8807119 17.3807119,28 16,28 C14.6192881,28 13.5,26.8807119 13.5,25.5 C13.5,24.1192881 14.6192881,23 16,23 Z M16,13 C17.3807119,13 18.5,14.1192881 18.5,15.5 C18.5,16.8807119 17.3807119,18 16,18 C14.6192881,18 13.5,16.8807119 13.5,15.5 C13.5,14.1192881 14.6192881,13 16,13 Z M16,3 C17.3807119,3 18.5,4.11928813 18.5,5.5 C18.5,6.88071187 17.3807119,8 16,8 C14.6192881,8 13.5,6.88071187 13.5,5.5 C13.5,4.11928813 14.6192881,3 16,3 Z" id="â—-icon"></path>
        </g>
    </g>
</svg>