<svg xmlns="http://www.w3.org/2000/svg" width="24" height="18" viewBox="0 0 24 18">
  <path fill="#39393A" fill-rule="evenodd" d="M28,10.3 L28,22 C28,23.6392857 26.791199,24.9066327 25.1805712,24.9950665 L25,25 L7,25 C5.36071429,25 4.09336735,23.791199 4.00493349,22.1805712 L4,22 L4,10.3 C7.49444444,13.8888889 10.9888889,16.7641975 14.8203018,19.1786523 L15.5,19.6 L16,19.9 L16.5,19.6 C20.3722222,17.2388889 23.8876543,14.4317901 27.3832647,10.9259774 L28,10.3 Z M7,7 L25,7 C26,7 26.8,7.4 27.3,8.2 C23.7,12.1 20.1,15.1 16,17.6 C11.9,15 8.3,12.1 4.7,8.2 C5.16666667,7.54666667 5.89466667,7.06755556 6.8026963,7.00657778 L7,7 Z" transform="translate(-4 -7)"/>
</svg>
