<svg xmlns="http://www.w3.org/2000/svg" width="28" height="30" viewBox="0 0 28 30">
  <path fill="#39393A" fill-rule="evenodd" d="M29.95,24.5244849 L29.95,23.3244849 L29.213116,22.5340529 L28.8732241,22.159372 C26.3925606,19.3898829 25.4323529,17.4538967 24.55,10.9244849 C24.3666667,9.64115161 23.93125,8.35781828 23.24375,7.22853587 L23.05,6.92448494 C21.95,5.12448494 20.15,3.82448494 18.05,3.32448494 L18.05,3.12448494 C18.05,2.02448494 17.15,1.12448494 16.05,1.12448494 C14.95,1.12448494 14.05,2.02448494 14.05,3.12448494 L14.05,3.32448494 C12.05,3.80067542 10.3221088,5.00248948 9.21186157,6.67077584 L9.05,6.92448494 C8.25,8.12448494 7.75,9.52448494 7.55,10.9244849 L7.43176493,11.7687726 C6.46034218,18.4527433 5.32058824,20.0578183 2.15,23.3244849 C2.07,23.4044849 2.054,23.4844849 2.0508,23.5644849 L2.05,24.5244849 C2.05,25.6244849 2.95,26.5244849 4.05,26.5244849 L11.05,26.5244849 C11.45,29.2244849 13.95,31.2244849 16.65,30.8244849 C18.85,30.5244849 20.65,28.7244849 20.95,26.5244849 L27.95,26.5244849 C29.05,26.5244849 29.95,25.6244849 29.95,24.5244849 Z M28.05,24.5244849 L4.05,24.5244849 C4.75,23.7244849 5.45,22.8244849 6.05,21.8244849 C6.15,21.6244849 6.35,21.3244849 6.45,21.1244849 C8.05,18.4244849 9.05,15.4244849 9.35,12.2244849 C9.35,11.6244849 9.35,11.0244849 9.47594752,10.4244849 L9.55,10.1244849 C10.25,7.12448494 12.95,5.02448494 16.05,5.12448494 C19.15,5.02448494 21.85,7.12448494 22.45,10.1244849 C22.65,10.8244849 22.75,11.5244849 22.65,12.2244849 C22.85,15.3244849 23.85,18.4244849 25.45,21.1244849 L26.05,22.0244849 C26.65,22.9244849 27.35,23.8244849 28.05,24.5244849 Z" transform="translate(-2 -1)"/>
</svg>
