<?xml version="1.0" encoding="UTF-8"?>
<svg width="20px" height="4px" viewBox="0 0 20 4" version="1.1" xmlns="http://www.w3.org/2000/svg" xmlns:xlink="http://www.w3.org/1999/xlink">
    <title>icon/no_container/option</title>
    <g id="Icons-variable-width---for-Exporting-only" stroke="none" stroke-width="1" fill="none" fill-rule="evenodd">
        <g id="icon-/-32-/-option" transform="translate(-6.000000, -14.000000)" fill="#39393A">
            <path d="M24,14 C25.1045695,14 26,14.8954305 26,16 C26,17.1045695 25.1045695,18 24,18 C22.8954305,18 22,17.1045695 22,16 C22,14.8954305 22.8954305,14 24,14 Z M8,14 C9.1045695,14 10,14.8954305 10,16 C10,17.1045695 9.1045695,18 8,18 C6.8954305,18 6,17.1045695 6,16 C6,14.8954305 6.8954305,14 8,14 Z M16,14 C17.1045695,14 18,14.8954305 18,16 C18,17.1045695 17.1045695,18 16,18 C14.8954305,18 14,17.1045695 14,16 C14,14.8954305 14.8954305,14 16,14 Z" id="â—-icon"></path>
        </g>
    </g>
</svg>