<?xml version="1.0" encoding="UTF-8"?>
<svg width="14px" height="16px" viewBox="0 0 14 16" version="1.1" xmlns="http://www.w3.org/2000/svg" xmlns:xlink="http://www.w3.org/1999/xlink">
    <title>icon/no_container/pause</title>
    <g id="Icons-variable-width---for-Exporting-only" stroke="none" stroke-width="1" fill="none" fill-rule="evenodd">
        <g id="icon-/-32-/-pause" transform="translate(-9.000000, -8.000000)" fill="#39393A">
            <path d="M13,24 L10,24 C9.4,24 9,23.6 9,23 L9,9 C9,8.4 9.4,8 10,8 L13,8 C13.6,8 14,8.4 14,9 L14,23 C14,23.6 13.6,24 13,24 Z M23,23 L23,9 C23,8.4 22.6,8 22,8 L19,8 C18.4,8 18,8.4 18,9 L18,23 C18,23.6 18.4,24 19,24 L22,24 C22.6,24 23,23.6 23,23 Z" id="â—-icon"></path>
        </g>
    </g>
</svg>