<?xml version="1.0" encoding="UTF-8"?>
<svg width="28px" height="25px" viewBox="0 0 28 25" version="1.1" xmlns="http://www.w3.org/2000/svg" xmlns:xlink="http://www.w3.org/1999/xlink">
    <title>icon/no_container/pc_mac</title>
    <g id="Icons-variable-width---for-Exporting-only" stroke="none" stroke-width="1" fill="none" fill-rule="evenodd">
        <g id="icon-/-32-/-pc_mac" transform="translate(-2.000000, -3.000000)" fill="#39393A">
            <path d="M29,26 L3,26 C2.4,26 2,26.4 2,27 C2,27.6 2.4,28 3,28 L29,28 C29.6,28 30,27.6 30,27 C30,26.4 29.6,26 29,26 Z M28,3 L4,3 C2.9,3 2,3.9 2,5 L2,22 C2,23.1 2.9,24 4,24 L28,24 C29.1,24 30,23.1 30,22 L30,5 C30,3.9 29.1,3 28,3 Z M28,22 L4,22 L4,5 L28,5 L28,22 Z" id="â—-icon"></path>
        </g>
    </g>
</svg>