<svg xmlns="http://www.w3.org/2000/svg" width="32" height="32" viewBox="0 0 32 32">
  <path fill="#39393A" fill-rule="evenodd" d="M16,0 C24.836556,0 32,7.163444 32,16 C32,24.836556 24.836556,32 16,32 C7.163444,32 0,24.836556 0,16 C0,7.163444 7.163444,0 16,0 Z M16,2 C8.2680135,2 2,8.2680135 2,16 C2,23.7319865 8.2680135,30 16,30 C23.7319865,30 30,23.7319865 30,16 C30,8.2680135 23.7319865,2 16,2 Z M23.7178201,19.0869634 C24.2222137,19.3119201 24.4487421,19.9031753 24.2237855,20.4075689 C22.7878294,23.6272426 19.587168,25.7462489 16.0005,25.7462489 C12.412996,25.7462489 9.21223445,23.6273859 7.77621453,20.4075689 C7.55125786,19.9031753 7.77778627,19.3119201 8.28217991,19.0869634 C8.78657354,18.8620067 9.37782879,19.0885351 9.60278547,19.5929288 C10.7201178,22.0981903 13.2096805,23.7462489 16.0005,23.7462489 C18.7904467,23.7462489 21.279932,22.0980787 22.3972145,19.5929288 C22.6221712,19.0885351 23.2134265,18.8620067 23.7178201,19.0869634 Z M10.5,10 C11.3284271,10 12,10.6715729 12,11.5 C12,12.3284271 11.3284271,13 10.5,13 C9.67157288,13 9,12.3284271 9,11.5 C9,10.6715729 9.67157288,10 10.5,10 Z M21.5,10 C22.3284271,10 23,10.6715729 23,11.5 C23,12.3284271 22.3284271,13 21.5,13 C20.6715729,13 20,12.3284271 20,11.5 C20,10.6715729 20.6715729,10 21.5,10 Z"/>
</svg>
