<svg xmlns="http://www.w3.org/2000/svg" width="32" height="32" viewBox="0 0 32 32">
  <path fill="#39393A" fill-rule="evenodd" d="M16,0 C24.836556,0 32,7.163444 32,16 C32,24.836556 24.836556,32 16,32 C7.163444,32 0,24.836556 0,16 C0,7.163444 7.163444,0 16,0 Z M16,2 C8.2680135,2 2,8.2680135 2,16 C2,23.7319865 8.2680135,30 16,30 C23.7319865,30 30,23.7319865 30,16 C30,8.2680135 23.7319865,2 16,2 Z M16.0005,17 C19.587168,17 22.7878294,19.1190063 24.2237855,22.3386799 C24.4487421,22.8430735 24.2222137,23.4343288 23.7178201,23.6592855 C23.2134265,23.8842421 22.6221712,23.6577137 22.3972145,23.1533201 C21.279932,20.6481702 18.7904467,19 16.0005,19 C13.2096805,19 10.7201178,20.6480585 9.60278547,23.1533201 C9.37782879,23.6577137 8.78657354,23.8842421 8.28217991,23.6592855 C7.77778627,23.4343288 7.55125786,22.8430735 7.77621453,22.3386799 C9.21223445,19.118863 12.412996,17 16.0005,17 Z M10.5,10 C11.3284271,10 12,10.6715729 12,11.5 C12,12.3284271 11.3284271,13 10.5,13 C9.67157288,13 9,12.3284271 9,11.5 C9,10.6715729 9.67157288,10 10.5,10 Z M21.5,10 C22.3284271,10 23,10.6715729 23,11.5 C23,12.3284271 22.3284271,13 21.5,13 C20.6715729,13 20,12.3284271 20,11.5 C20,10.6715729 20.6715729,10 21.5,10 Z"/>
</svg>
