<svg xmlns="http://www.w3.org/2000/svg" width="32" height="26" viewBox="0 0 32 26">
  <path fill="#39393A" fill-rule="evenodd" d="M27.3329158,15.1585 C27.584091,15.1585 27.8095569,15.2687034 27.9635242,15.4434059 C29.5475769,16.8176454 31.0759646,19.0735027 31.7190148,20.8218329 C31.8791592,21.2572348 31.6560189,21.7400204 31.2206171,21.9001648 C30.7852152,22.0603092 30.3024296,21.8371689 30.1422852,21.4017671 C29.7527854,20.3427918 28.9473408,19.0150377 28.0235614,17.9107723 C27.1065496,23.7253116 22.0745915,28.17053 16.00305,28.1715 C12.4342196,28.1715 9.11417288,26.6263947 6.81649002,23.9870449 C6.5118802,23.6371394 6.54859961,23.1065499 6.89850512,22.80194 C7.24841063,22.4973302 7.77900015,22.5340496 8.08360998,22.8839551 C10.0655183,25.1605746 12.9253459,26.4915 16.0029158,26.4915 C21.3296681,26.490649 25.728095,22.5212349 26.4032208,17.3794477 C25.0467441,18.1286286 23.6875196,19.2181998 22.9038686,20.1690402 C22.6088159,20.5270415 22.0794111,20.5780714 21.7214098,20.2830186 C21.3634085,19.9879659 21.3123786,19.4585611 21.6074314,19.1005598 C22.8128106,17.6380167 25.0588571,15.9826391 27.0354439,15.226277 L26.8952041,15.281464 C27.0226655,15.2034613 27.1725383,15.1585 27.3329158,15.1585 Z M15.99995,3.8285 C19.5695605,3.8285 22.8894952,5.37326727 25.1866244,8.01308654 C25.4911616,8.36305523 25.4543321,8.89363712 25.1043635,9.19817437 C24.7543948,9.50271161 24.2238129,9.46588214 23.9192756,9.11591346 C21.937993,6.83905927 19.0784231,5.5085 16.0000842,5.50849999 C10.6735789,5.50935114 6.27443208,9.47957967 5.59965999,14.6216221 C6.95564622,13.8719745 8.31361964,12.7833179 9.09613136,11.8338598 C9.39118407,11.4758585 9.92058893,11.4248286 10.2785902,11.7198814 C10.6365915,12.0149341 10.6876214,12.5443389 10.3925686,12.9023402 C9.25118052,14.2872398 7.17441286,15.8462629 5.27876029,16.6498041 L5.09672938,16.7251919 C4.97169439,16.7990909 4.82584352,16.8415 4.67008423,16.8415 C4.47489974,16.8415 4.29524005,16.7749524 4.15259194,16.6633041 L4.07161635,16.5910746 C2.47568523,15.2195429 0.928918294,12.9426729 0.280985172,11.1810671 C0.120840785,10.7456652 0.343981065,10.2628796 0.779382937,10.1027352 C1.21478481,9.94259078 1.69757044,10.1657311 1.85771483,10.6011329 C2.24744279,11.6607285 3.05360299,12.9894179 3.97806205,14.094068 C4.89367568,8.27751526 9.92726602,3.82947038 15.99995,3.8285 Z" transform="translate(0 -3)"/>
</svg>
