<?xml version="1.0" encoding="UTF-8"?>
<svg width="24px" height="24px" viewBox="0 0 24 24" version="1.1" xmlns="http://www.w3.org/2000/svg" xmlns:xlink="http://www.w3.org/1999/xlink">
    <title>icon/no_container/save</title>
    <g id="Icons-variable-width---for-Exporting-only" stroke="none" stroke-width="1" fill="none" fill-rule="evenodd">
        <g id="icon-/-32-/-save" transform="translate(-4.000000, -4.000000)" fill="#39393A">
            <path d="M27.4,8 L24,4.6 C23.6,4.2 23.1,4 22.6,4 L8,4 C5.8,4 4,5.8 4,8 L4,24 C4,26.2 5.8,28 8,28 L24,28 C26.2,28 28,26.2 28,24 L28,9.4 C28,8.9 27.8,8.4 27.4,8 Z M11,10 L11,6 L16,6 L16,10 L11,10 Z M18,6 L21,6 L21,10 L18,10 L18,6 Z M11,26 L11,19 L21,19 L21,26 L11,26 Z M26,24 C26,25.1 25.1,26 24,26 L23,26 L23,17 L9,17 L9,26 L8,26 C6.9,26 6,25.1 6,24 L6,8 C6,6.9 6.9,6 8,6 L9,6 L9,12 L23,12 L23,6.4 L26,9.4 L26,24 Z" id="â—-icon"></path>
        </g>
    </g>
</svg>