<?xml version="1.0" encoding="UTF-8"?>
<svg width="24px" height="24px" viewBox="0 0 24 24" version="1.1" xmlns="http://www.w3.org/2000/svg" xmlns:xlink="http://www.w3.org/1999/xlink">
    <title>icon/no_container/settings</title>
    <g id="Icons-variable-width---for-Exporting-only" stroke="none" stroke-width="1" fill="none" fill-rule="evenodd">
        <g id="icon-/-32-/-settings" transform="translate(-4.000000, -4.000000)" fill="#39393A">
            <path d="M27,14 L24.769,14 C24.5440795,13.0129271 24.1531909,12.0712102 23.613,11.215 L25.192,9.636 C25.3797164,9.44860256 25.4852012,9.1942456 25.4852012,8.929 C25.4852012,8.6637544 25.3797164,8.40939744 25.192,8.222 L23.778,6.808 C23.5906026,6.62028364 23.3362456,6.51479884 23.071,6.51479884 C22.8057544,6.51479884 22.5513974,6.62028364 22.364,6.808 L20.785,8.387 C19.9287898,7.84680911 18.9870729,7.45592051 18,7.231 L18,5 C18,4.44771525 17.5522847,4 17,4 L15,4 C14.4477153,4 14,4.44771525 14,5 L14,7.231 C13.0129271,7.45592051 12.0712102,7.84680911 11.215,8.387 L9.636,6.808 C9.44860256,6.62028364 9.1942456,6.51479884 8.929,6.51479884 C8.6637544,6.51479884 8.40939744,6.62028364 8.222,6.808 L6.808,8.222 C6.62028364,8.40939744 6.51479884,8.6637544 6.51479884,8.929 C6.51479884,9.1942456 6.62028364,9.44860256 6.808,9.636 L8.387,11.215 C7.84680911,12.0712102 7.45592051,13.0129271 7.231,14 L5,14 C4.44771525,14 4,14.4477153 4,15 L4,17 C4,17.5522847 4.44771525,18 5,18 L7.231,18 C7.45592051,18.9870729 7.84680911,19.9287898 8.387,20.785 L6.808,22.364 C6.62028364,22.5513974 6.51479884,22.8057544 6.51479884,23.071 C6.51479884,23.3362456 6.62028364,23.5906026 6.808,23.778 L8.222,25.192 C8.40939744,25.3797164 8.6637544,25.4852012 8.929,25.4852012 C9.1942456,25.4852012 9.44860256,25.3797164 9.636,25.192 L11.215,23.613 C12.0712102,24.1531909 13.0129271,24.5440795 14,24.769 L14,27 C14,27.5522847 14.4477153,28 15,28 L17,28 C17.5522847,28 18,27.5522847 18,27 L18,24.769 C18.9870729,24.5440795 19.9287898,24.1531909 20.785,23.613 L22.364,25.192 C22.5513974,25.3797164 22.8057544,25.4852012 23.071,25.4852012 C23.3362456,25.4852012 23.5906026,25.3797164 23.778,25.192 L25.192,23.778 C25.3797164,23.5906026 25.4852012,23.3362456 25.4852012,23.071 C25.4852012,22.8057544 25.3797164,22.5513974 25.192,22.364 L23.613,20.785 C24.1531909,19.9287898 24.5440795,18.9870729 24.769,18 L27,18 C27.5522847,18 28,17.5522847 28,17 L28,15 C28,14.4477153 27.5522847,14 27,14 Z M16,20 C13.790861,20 12,18.209139 12,16 C12,13.790861 13.790861,12 16,12 C18.209139,12 20,13.790861 20,16 C20,18.209139 18.209139,20 16,20 Z" id="â—-icon"></path>
        </g>
    </g>
</svg>