<?xml version="1.0" encoding="UTF-8"?>
<svg width="30px" height="30px" viewBox="0 0 30 30" version="1.1" xmlns="http://www.w3.org/2000/svg" xmlns:xlink="http://www.w3.org/1999/xlink">
    <title>icon/no_container/shading</title>
    <g id="Icons-variable-width---for-Exporting-only" stroke="none" stroke-width="1" fill="none" fill-rule="evenodd">
        <g id="icon-/-32-/-shading" transform="translate(-1.000000, -1.000000)" fill="#39393A">
            <path d="M8.2217,22.3643 C8.6127,21.9733 9.2447,21.9733 9.6357,22.3643 C10.0267,22.7553 10.0267,23.3873 9.6357,23.7783 L9.6357,23.7783 L6.8077,26.6063 C6.6127,26.8013 6.3567,26.8993 6.1007,26.8993 C5.8447,26.8993 5.5887,26.8013 5.3937,26.6063 C5.0027,26.2163 5.0027,25.5833 5.3937,25.1923 L5.3937,25.1923 Z M16,9 C17.93,9 19.68,9.785 20.947,11.053 L20.946,11.053 C22.1480158,12.2535632 22.9157332,13.8874247 22.9932206,15.697103 L22.9997,16.0003 C22.9997,19.8593 19.8597,23.0003 15.9997,23.0003 C14.0707,23.0003 12.3207,22.2153 11.0527,20.9473 L11.0527,20.9473 C9.78459697,19.6791014 9,17.9295045 9,16 C9,12.14 12.14,9 16,9 Z M16,11 C13.243,11 11,13.243 11,16 C11,17.379 11.561,18.629 12.466,19.534 L12.466,19.533 L19.5330247,12.4650249 C18.68468,11.6171441 17.5334131,11.0714439 16.256998,11.0065212 Z M6,15 C6.552,15 7,15.448 7,16 C7,16.552 6.552,17 6,17 L2,17 C1.448,17 1,16.552 1,16 C1,15.448 1.448,15 2,15 L6,15 Z M25.1924,5.3936 C25.5834,5.0026 26.2154,5.0026 26.6064,5.3936 C26.9974,5.7846 26.9974,6.4166 26.6064,6.8076 L26.6064,6.8076 L23.7784,9.6356 C23.5834,9.8306 23.3274,9.9286 23.0714,9.9286 C22.8154,9.9286 22.5594,9.8306 22.3644,9.6356 C21.9734,9.2456 21.9734,8.6126 22.3644,8.2216 L22.3644,8.2216 Z M5.3937,5.3937 C5.7837,5.0027 6.4167,5.0027 6.8077,5.3937 L6.8077,5.3937 L9.6357,8.2217 C10.0267,8.6127 10.0267,9.2447 9.6357,9.6357 C9.4407,9.8307 9.1847,9.9287 8.9287,9.9287 C8.6727,9.9287 8.4167,9.8307 8.2217,9.6357 L8.2217,9.6357 L5.3937,6.8077 C5.0027,6.4167 5.0027,5.7837 5.3937,5.3937 Z M16,1 C16.552,1 17,1.448 17,2 L17,6 C17,6.552 16.552,7 16,7 C15.448,7 15,6.552 15,6 L15,2 C15,1.448 15.448,1 16,1 Z" id="â—-icon"></path>
        </g>
    </g>
</svg>