<svg xmlns="http://www.w3.org/2000/svg" width="28" height="24" viewBox="0 0 28 24">
  <path fill="#39393A" fill-rule="evenodd" d="M29.2803848,7.9 C29.0803848,7.7 28.7803848,7.5 28.4803848,7.5 L9.28038476,7.5 L8.48038476,4.3 C8.38038476,3.8 7.98038476,3.5 7.48038476,3.5 L3.48038476,3.5 C2.88038476,3.5 2.48038476,3.9 2.48038476,4.5 C2.48038476,5.1 2.88038476,5.5 3.48038476,5.5 L6.68038476,5.5 L10.4803848,20.7 C10.5803848,21.2 10.9803848,21.5 11.4803848,21.5 L24.4803848,21.5 C24.8803848,21.5 25.2803848,21.2 25.4803848,20.8 L29.4803848,8.8 C29.5803848,8.5 29.4803848,8.2 29.2803848,7.9 Z M23.7803848,19.5 L12.2803848,19.5 L11.2803848,15.5 L25.0803848,15.5 L23.7803848,19.5 Z M25.7803848,13.5 L10.7803848,13.5 L9.78038476,9.5 L27.0803848,9.5 L25.7803848,13.5 Z M16.4803848,26 C16.4803848,27.4 15.3803848,28.5 13.9803848,28.5 C12.5803848,28.5 11.4803848,27.4 11.4803848,26 C11.4803848,24.6 12.5803848,23.5 13.9803848,23.5 C15.3803848,23.5 16.4803848,24.6 16.4803848,26 Z M25.4803848,26 C25.4803848,27.4 24.3803848,28.5 22.9803848,28.5 C21.5803848,28.5 20.4803848,27.4 20.4803848,26 C20.4803848,24.6 21.5803848,23.5 22.9803848,23.5 C24.3803848,23.5 25.4803848,24.6 25.4803848,26 Z" transform="translate(-2 -4)"/>
</svg>
