<svg xmlns="http://www.w3.org/2000/svg" width="32" height="16" viewBox="0 0 32 16">
  <path fill="#39393A" fill-rule="evenodd" d="M9.18860237,9.83398117 C9.64919745,9.52923437 9.77553744,8.90880218 9.47079064,8.4482071 C9.16604384,7.98761202 8.54561165,7.86127202 8.08501657,8.16601883 C5.35935693,9.96941641 2.80972922,12.1869087 0.461515322,14.7960353 C-0.154787363,15.4778024 -0.154115218,16.5653328 0.465203965,17.2479401 C2.77284993,19.8040286 5.33973416,22.017679 8.08503317,23.8339922 C8.54563432,24.1387298 9.16606399,24.0123774 9.47080162,23.5517763 C9.77553926,23.0911751 9.64918692,22.4707455 9.18858577,22.1660078 C6.62492357,20.4698671 4.22147472,18.4052068 2.05126816,16.0197586 C4.26051626,13.5829485 6.64689681,11.5156679 9.18860237,9.83398117 Z M22.8116511,22.1658741 C22.3509761,22.4705 22.2244733,23.090899 22.5290992,23.551574 C22.8337251,24.0122491 23.4541241,24.1387519 23.9147992,23.8341259 C26.6365796,22.0343217 29.1856921,19.8170539 31.5382438,17.2052707 C32.154822,16.5231976 32.1541498,15.4356672 31.5348306,14.7530599 C29.2305791,12.199722 26.6637231,9.98631863 23.9153671,8.16624986 C23.4548996,7.8613103 22.8344146,7.98739058 22.529475,8.44785807 C22.2245354,8.90832555 22.3506157,9.52881057 22.8110832,9.83375014 C25.3781167,11.5337401 27.7816859,13.5983106 29.9487443,15.981173 C27.7354172,18.4205876 25.3494324,20.487741 22.8116511,22.1658741 Z" transform="translate(0 -8)"/>
</svg>
