<?xml version="1.0" encoding="UTF-8"?>
<svg width="16px" height="26px" viewBox="0 0 16 26" version="1.1" xmlns="http://www.w3.org/2000/svg" xmlns:xlink="http://www.w3.org/1999/xlink">
    <title>icon/no_container/smartphone_checked</title>
    <g id="Icons-variable-width---for-Exporting-only" stroke="none" stroke-width="1" fill="none" fill-rule="evenodd">
        <g id="icon-/-32-/-smartphone-checked" transform="translate(-8.000000, -3.000000)" fill="#39393A">
            <path d="M20,3 L12,3 C9.8,3 8,4.8 8,7 L8,25 C8,27.2 9.8,29 12,29 L20,29 C22.2,29 24,27.2 24,25 L24,7 C24,4.8 22.2,3 20,3 Z M22,25 C22,26.1 21.1,27 20,27 L12,27 C10.9,27 10,26.1 10,25 L10,22 L22,22 L22,25 Z M16,26 C16.8,26 17.5,25.3 17.5,24.5 C17.5,23.7 16.8,23 16,23 C15.2,23 14.5,23.7 14.5,24.5 C14.5,25.3 15.2,26 16,26 Z M20.2928932,9.50646821 C20.6834175,9.11594391 21.3165825,9.11594391 21.7071068,9.50646821 C22.0675907,9.86695217 22.0953203,10.4341832 21.7902954,10.8264744 L21.7071068,10.9206818 L15.7071068,16.9206818 C15.3466228,17.2811657 14.7793918,17.3088953 14.3871006,17.0038704 L14.2928932,16.9206818 L11.5631508,14.1909393 C11.1726265,13.800415 11.1726265,13.16725 11.5631508,12.7767258 C11.9236347,12.4162418 12.4908658,12.3885123 12.883157,12.6935371 L12.9773643,12.7767258 L15,14.799 L20.2928932,9.50646821 Z" id="â—-icon"></path>
        </g>
    </g>
</svg>