<?xml version="1.0" encoding="UTF-8"?>
<svg width="24px" height="24px" viewBox="0 0 24 24" version="1.1" xmlns="http://www.w3.org/2000/svg" xmlns:xlink="http://www.w3.org/1999/xlink">
    <title>icon/no_container/social_whatsapp</title>
    <g id="Icons-variable-width---for-Exporting-only" stroke="none" stroke-width="1" fill="none" fill-rule="evenodd">
        <g id="icon-/-32-/-social-whatsapp" transform="translate(-4.000000, -4.000000)" fill="#39393A">
            <path d="M19.3916182,17.5184936 C19.1192143,17.4193288 18.9211127,17.3697749 18.7230111,17.6671553 C18.5249095,17.9646498 17.9554673,18.6339982 17.7820571,18.8323849 C17.608761,19.0306005 17.4354079,19.05552 17.1383126,18.9067443 C16.8411032,18.7579685 15.8836122,18.4442222 14.7486054,17.43176 C13.8651887,16.6438586 13.2688311,15.6708001 13.095478,15.3732486 C12.9221819,15.0758111 13.0770592,14.9150033 13.225835,14.7667977 C13.3594994,14.6336466 13.5229873,14.4196923 13.671535,14.2462251 C13.8201397,14.0727009 13.8696366,13.9486736 13.9686874,13.750515 C14.0677382,13.5521283 14.0182413,13.3786041 13.9439389,13.2298854 C13.8696366,13.0811666 13.2753319,11.6184425 13.0277334,11.0233965 C12.7865216,10.4440891 12.5415463,10.5225542 12.3591263,10.5133163 C12.1860013,10.5047057 11.9876716,10.5028809 11.7896271,10.5028809 C11.5915255,10.5028809 11.2695677,10.5772403 10.9972208,10.8746778 C10.7248169,11.1722293 9.95715901,11.8911316 9.95715901,13.3537416 C9.95715901,14.8164087 11.0219692,16.2293508 11.1705739,16.4276804 C11.3191216,16.6260671 13.2659229,19.6274713 16.2468555,20.9146754 C16.9558356,21.2208375 17.5093681,21.4037137 17.9408691,21.5405714 C18.6527575,21.7668429 19.3005508,21.7349094 19.8125127,21.6583831 C20.3834376,21.5730751 21.5706214,20.9395379 21.8182769,20.245441 C22.0658754,19.5512302 22.0658754,18.9562982 21.991573,18.8323849 C21.9173277,18.7084146 21.7192261,18.6339982 21.4220738,18.4852225 C21.1249214,18.3365607 19.6640221,17.6177155 19.3916182,17.5184936 Z M10.9650592,24.5105554 L10.604154,24.296316 L6.86297665,25.2777 L7.86152491,21.6300992 L7.62652878,21.2561354 C6.63704734,19.6823285 6.11447888,17.8634321 6.11521783,15.9956662 C6.11738711,10.5456489 10.5516918,6.11168637 16.004047,6.11168637 C18.6442609,6.11259875 21.1261189,7.1421681 22.9924023,9.01056133 C24.8586286,10.8788975 25.8858029,13.3624663 25.8848356,16.0035925 C25.8826096,21.4540659 21.4483048,25.8883707 16.0001124,25.8883707 C14.2224444,25.8876864 12.4827545,25.4111933 10.9650592,24.5105554 Z M15.9999983,4.10312801 C9.44491191,4.10312801 4.10985518,9.43778557 4.10723207,15.9948678 C4.10637671,18.0909581 4.65397873,20.1368672 5.6947248,21.9404811 L4.00755402,28.103128 L10.3120197,26.4493163 C12.0490865,27.396771 14.0048406,27.8961877 15.9952653,27.896872 C22.5545715,27.896872 27.8901415,22.5616442 27.8927681,16.0043909 C27.8939621,12.8267253 26.6580797,9.83872171 24.4127575,7.59083338 C22.1674352,5.34288803 19.1814275,4.10438254 15.9999983,4.10312801 Z" id="â—-icon"></path>
        </g>
    </g>
</svg>