<svg xmlns="http://www.w3.org/2000/svg" width="28" height="20" viewBox="0 0 28 20">
  <path fill="#39393A" fill-rule="evenodd" d="M25.5,14.5 C24.7,14.5 24,15.2 24,16 C24,16.8 24.7,17.5 25.5,17.5 C26.3,17.5 27,16.8 27,16 C27,15.2 26.3,14.5 25.5,14.5 Z M26,6 L6,6 C3.8,6 2,7.8 2,10 L2,22 C2,24.2 3.8,26 6,26 L26,26 C28.2,26 30,24.2 30,22 L30,10 C30,7.8 28.2,6 26,6 Z M21,24 L6,24 C4.9,24 4,23.1 4,22 L4,10 C4,8.9 4.9,8 6,8 L21,8 L21,24 Z M28,22 C28,23.1 27.1,24 26,24 L23,24 L23,8 L26,8 C27.1,8 28,8.9 28,10 L28,22 Z" transform="translate(-2 -6)"/>
</svg>
