<svg xmlns="http://www.w3.org/2000/svg" width="30" height="20" viewBox="0 0 30 20">
  <path fill="#39393A" fill-rule="evenodd" d="M5,11 C3.3,11 2,12.3 2,14 C2,15.7 3.3,17 5,17 C6.7,17 8,15.7 8,14 C8,12.3607143 6.79119898,11.0933673 5.18057125,11.0049335 L5,11 Z M20,15 L12,15 C10.9,15 10,15.9 10,17 L10,26 L22,26 L22,17 C22,15.95 21.1799587,15.0822314 20.1486946,15.0055128 L20,15 Z M24,19 L24,26 L31,26 L31,20.7 C31,19.7 30.2,19 29.3,19 L24,19 Z M27,17 C28.7,17 30,15.7 30,14 C30,12.3 28.7,11 27,11 C25.3,11 24,12.3 24,14 C24,15.6392857 25.208801,16.9066327 26.8194288,16.9950665 L27,17 Z M16,13 C17.9,13 19.5,11.4 19.5,9.5 C19.5,7.6 17.9,6 16,6 C14.1,6 12.5,7.6 12.5,9.5 C12.5,11.3366667 13.9951111,12.893 15.8110481,12.9947148 L16,13 Z M1,21.7 L1,26 L8,26 L8,19 L2.8,19 C1.8,19 1.1,19.8 1.1,20.7 L1,21.7 Z" transform="translate(-1 -6)"/>
</svg>
