<?xml version="1.0" encoding="UTF-8"?>
<svg width="32px" height="32px" viewBox="0 0 32 32" version="1.1" xmlns="http://www.w3.org/2000/svg" xmlns:xlink="http://www.w3.org/1999/xlink">
    <title>icon/container/orientation_radio_checkbox/checkbox_checked_inverted</title>
    <g id="Icons-variable-width---for-Exporting-only" stroke="none" stroke-width="1" fill="none" fill-rule="evenodd">
        <g id="icon-/-32-/-checkbox-checked-inverted" fill="#39393A">
            <path d="M16.0003077,0 C19.6076923,0 23.2150769,0.343384615 26.8218462,1.02953846 C28.9270769,1.42953846 30.5707692,3.07384615 30.9707692,5.17846154 C32.3436923,12.3932308 32.3436923,19.6073846 30.9707692,26.8221538 C30.5707692,28.9267692 28.9270769,30.5704615 26.8218462,30.9710769 C23.2150769,31.6572308 19.6076923,32 16.0003077,32 C12.3929231,32 8.78553846,31.6572308 5.17876923,30.9710769 C3.07415385,30.5704615 1.42984615,28.9267692 1.02923077,26.8221538 C-0.343076923,19.6073846 -0.343076923,12.3932308 1.02923077,5.17846154 C1.42984615,3.07384615 3.07415385,1.42953846 5.17876923,1.02953846 C8.78553846,0.343384615 12.3929231,0 16.0003077,0 Z M24.4976657,8.35274277 C24.1784927,8.32374448 23.8674104,8.44946606 23.6581924,8.68603713 L23.5846937,8.77986166 L14.7086937,21.2568617 L8.17369372,16.6098617 C7.72358165,16.2895365 7.09901888,16.3947496 6.77869372,16.8448617 C6.48300896,17.2603497 6.549913,17.8244822 6.91598088,18.1607577 L7.01369372,18.2398617 L14.3636937,23.4668617 C14.5044937,23.5668617 14.6625737,23.6252623 14.8225737,23.6446225 L14.9426937,23.6518626 L15.0630657,23.6447688 C15.3011952,23.6162518 15.5213796,23.5029215 15.6829697,23.3256999 L15.7586937,23.2318617 L25.2136937,9.93986166 C25.4268575,9.6490757 25.4669835,9.26605548 25.3187129,8.93740499 C25.1704424,8.6087545 24.8567354,8.38536584 24.4976657,8.35274277 Z" id="â—-icon"></path>
        </g>
    </g>
</svg>