<?xml version="1.0" encoding="UTF-8"?>
<svg width="32px" height="32px" viewBox="0 0 32 32" version="1.1" xmlns="http://www.w3.org/2000/svg" xmlns:xlink="http://www.w3.org/1999/xlink">
    <title>icon/container/orientation_radio_checkbox/divide</title>
    <g id="Icons-variable-width---for-Exporting-only" stroke="none" stroke-width="1" fill="none" fill-rule="evenodd">
        <g id="icon-/-32-/-divide" fill="#39393A">
            <path d="M16,22 C16.8284271,22 17.5,22.6715729 17.5,23.5 C17.5,24.3284271 16.8284271,25 16,25 C15.1715729,25 14.5,24.3284271 14.5,23.5 C14.5,22.6715729 15.1715729,22 16,22 Z M6,15 L26,15 C26.6,15 27,15.4 27,16 C27,16.5571429 26.655102,16.9418367 26.1254373,16.9939504 L26,17 L6,17 C5.4,17 5,16.6 5,16 C5,15.4428571 5.34489796,15.0581633 5.87456268,15.0060496 L6,15 Z M16,7 C16.8284271,7 17.5,7.67157288 17.5,8.5 C17.5,9.32842712 16.8284271,10 16,10 C15.1715729,10 14.5,9.32842712 14.5,8.5 C14.5,7.67157288 15.1715729,7 16,7 Z" id="â—-icon"></path>
        </g>
    </g>
</svg>