<?xml version="1.0" encoding="UTF-8"?>
<svg width="96px" height="96px" viewBox="0 0 96 96" version="1.1" xmlns="http://www.w3.org/2000/svg" xmlns:xlink="http://www.w3.org/1999/xlink">
    <title>pictograms/E_World/adequate_disposal</title>
    <g id="Symbols" stroke="none" stroke-width="1" fill="none" fill-rule="evenodd">
        <g id="pictograms/e_world/adequate-disposal" fill="#39393A">
            <path d="M30,74 C30,77.3137085 32.6862915,80 36,80 L58,80 C61.3137085,80 64,77.3137085 64,74 L64,42 L30,42 L30,74 Z M32,44 L62,44 L62,74 C62,76.209139 60.209139,78 58,78 L36,78 C33.790861,78 32,76.209139 32,74 L32,44 Z M41,71 L38,71 L38,49 L41,49 L41,71 Z M56,71 L53,71 L53,49 L56,49 L56,71 Z M48.5,71 L45.5,71 L45.5,49 L48.5,49 L48.5,71 Z M64,37 L64,38 L30,38 L30,37 C30,34.790861 31.790861,33 34,33 L42,33 C42,31.8954305 42.8954305,31 44,31 L50,31 C51.1045695,31 52,31.8954305 52,33 L60,33 C62.209139,33 64,34.790861 64,37 Z M69,36 C69,36.5522847 68.5522847,37 68,37 C67.4477153,37 67,36.5522847 67,36 C67,32.6862915 64.3137085,30 61,30 C60.4477153,30 60,29.5522847 60,29 C60,28.4477153 60.4477153,28 61,28 C65.418278,28 69,31.581722 69,36 Z M79,36 C79,36.5522847 78.5522847,37 78,37 C77.4477153,37 77,36.5522847 77,36 C77,27.163444 69.836556,20 61,20 C60.4477153,20 60,19.5522847 60,19 C60,18.4477153 60.4477153,18 61,18 C70.9411255,18 79,26.0588745 79,36 L79,36 Z M74,36 C74,36.5522847 73.5522847,37 73,37 C72.4477153,37 72,36.5522847 72,36 C72,29.9248678 67.0751322,25 61,25 C60.4477153,25 60,24.5522847 60,24 C60,23.4477153 60.4477153,23 61,23 C68.1797017,23 74,28.8202983 74,36 L74,36 Z" id="â—-Pictogram"></path>
        </g>
    </g>
</svg>