<?xml version="1.0" encoding="UTF-8"?>
<svg width="96px" height="96px" viewBox="0 0 96 96" version="1.1" xmlns="http://www.w3.org/2000/svg" xmlns:xlink="http://www.w3.org/1999/xlink">
    <title>pictograms/E_World/car_sharing</title>
    <g id="Symbols" stroke="none" stroke-width="1" fill="none" fill-rule="evenodd">
        <g id="pictograms/e_world/car-sharing" fill="#39393A">
            <path d="M16.93,32 L17,32 C19.7478934,31.967605 21.967605,29.7478934 22,27 C22,24.2385763 19.7614237,22 17,22 L17,22 C14.2385763,22 12,24.2385763 12,27 C12,29.7614237 14.2385763,32 17,32 L16.93,32 Z M16.93,23.9999473 L16.93,23.9999473 C17.747076,23.9951617 18.5307748,24.3238096 19.1,24.91 C19.67319,25.4542748 19.9984368,26.2095701 20,27 C19.9732363,28.6456409 18.6456409,29.9732363 17,30 C16.2121745,29.9861097 15.4614411,29.6628274 14.91,29.1 C14.3238096,28.5307748 13.9951617,27.747076 13.9999473,26.93 C14.0380309,25.3005456 15.3701019,23.9995562 17,23.9999473 L16.93,23.9999473 Z M22.93,56.52 L22.93,70 C22.93,71.6568542 21.5868542,73 19.93,73 L14,73 C12.3431458,73 11,71.6568542 11,70 L11,56.83 C11.0447026,56.1871762 10.980465,55.5414197 10.81,54.92 C10.0389372,54.9413921 9.29457288,54.6367842 8.75970873,54.0809824 C8.22484459,53.5251805 7.94903006,52.7696736 8,52 L8,38 C8,35.790861 9.790861,34 12,34 L21.18,34 C20.7303061,34.5949355 20.4070175,35.2755432 20.23,36 L12,36 C10.8954305,36 10,36.8954305 10,38 L10,52 C10,52.55 10.17,52.89 11,52.89 C13,52.89 13,55.63 13,56.79 L13,70 C13,70.5522847 13.4477153,71 14,71 L20,71 C20.5522847,71 21,70.5522847 21,70 L21,55 C21.4898296,55.6443463 22.1325331,56.1564469 22.87,56.49 L22.93,56.52 Z M26,27 C26,24.2385763 28.2385763,22 31,22 L31,22 C33.7614237,22 36,24.2385763 36,27 C36,29.7614237 33.7614237,32 31,32 L31,32 C28.2521066,31.967605 26.032395,29.7478934 26,27 Z M25,55 C23.3937975,54.9706841 22.0837309,53.7042865 22,52.1 L22,37.85 C22,35.37 23.38,34 25.87,34 L35.87,34 C38.44,34 40,35.44 40,37.85 L40,43.24 C38.6,45.99 36.79,49.62 36.15,50.93 C35.2231829,52.9893421 34.827782,55.2482849 35,57.5 L35,57.84 C35,58.07 35,58.32 35,58.59 C35,62.38 35.09,66.26 36.87,68.35 L37,68.49 L37,69.87 C37,71.63 35.7,72.87 33.69,72.99 C33.38,72.99 32.12,72.99 30.85,72.99 C29.58,72.99 28.32,73 28,73 C27.183116,73.0006538 26.4012894,72.6681643 25.8350998,72.0793271 C25.2689102,71.4904899 24.9673244,70.6962305 25,69.88 L25,55 Z M53.26,67 C53.26,69.4267735 51.7981469,71.6145912 49.5561006,72.5432772 C47.3140543,73.4719632 44.7333473,72.9586287 43.0173593,71.2426407 C41.3013713,69.5266527 40.7880368,66.9459457 41.7167228,64.7038994 C42.6454088,62.4618531 44.8332265,61 47.26,61 C50.5737085,61 53.26,63.6862915 53.26,67 L53.26,67 Z M87.15,57.62 C86.52,56.35 84.15,54.4 82.28,52.68 C80.41,50.96 71.28,41.97 68.85,39.68 C66.42,37.39 46.33,38.18 43.95,38.18 C41.57,38.18 44.12,39.9 43.4,41.12 C42.68,42.34 39,49.74 38,51.8 C37,53.86 37.06,55.52 37.06,57.8 C37.06,60.08 36.84,65.13 38.45,67.01 C38.81,67.44 39.12,67.77 39.45,68.01 C38.981044,64.7626043 40.5425122,61.5580936 43.3889992,59.9262203 C46.2354861,58.294347 49.7898181,58.5660011 52.3552469,60.6115019 C54.9206756,62.6570027 55.9770169,66.0615901 55.02,69.2 L68.84,69.29 C67.7579965,65.9743062 68.9487839,62.3397531 71.7830496,60.3071452 C74.6173153,58.2745374 78.4417786,58.3123784 81.2352702,60.4006699 C84.0287618,62.4889613 85.1473992,66.146365 84,69.4400993 L84.21,69.4400993 C86.1,69.4400993 88,69.5 88,66.67 C88,63.84 87.78,58.9 87.15,57.62 Z M73.73,50.62 L73.73,50.62 C68.93,49.92 58.36,48.53 54.73,48.39 L48.85,48.17 L52.91,39.73 C59.08,39.73 65.86,40.08 67.21,41.37 C68.56,42.66 72.04,46.1 75.16,49.19 C75.71,49.68 75.38,50.81 73.72,50.58 L73.73,50.62 Z M82.38,67 C82.38,70.3137085 79.6937085,73 76.38,73 C73.0662915,73 70.38,70.3137085 70.38,67 C70.38,63.6862915 73.0662915,61 76.38,61 C79.6937085,61 82.38,63.6862915 82.38,67 Z" id="â—-Pictogram"></path>
        </g>
    </g>
</svg>