<?xml version="1.0" encoding="UTF-8"?>
<svg width="96px" height="96px" viewBox="0 0 96 96" version="1.1" xmlns="http://www.w3.org/2000/svg" xmlns:xlink="http://www.w3.org/1999/xlink">
    <title>pictograms/E_World/charge_light</title>
    <g id="Symbols" stroke="none" stroke-width="1" fill="none" fill-rule="evenodd">
        <g id="pictograms/e_world/charge-light" fill="#39393A">
            <path d="M48.93,57 L44,57 C43.2412235,57.0266252 42.5231492,57.3497586 42,57.9 C41.4058777,58.4430391 41.0470992,59.1964737 41,60 L41,77.55 C41.0259463,77.8128381 40.9468581,78.0752674 40.78,78.28 C40.5622897,78.4441961 40.2917564,78.5225084 40.02,78.5 L37,78.5 L37,78 C36.93,75.58 34.5,74 32.17,74 L28.6,74 C28.3240529,73.9995028 28.0601655,74.1130554 27.8708046,74.313778 C27.6814438,74.5145005 27.5834427,74.7845496 27.6,75.06 L27.6,76 L25.17,76 C24.8386292,76 24.57,76.2686292 24.57,76.6 L24.57,77.39 C24.57,77.7213708 24.8386292,77.99 25.17,77.99 L27.58,77.99 L27.58,80.99 L25.19,80.99 C24.8586292,80.99 24.59,81.2586292 24.59,81.59 L24.59,82.35 C24.59,82.6813708 24.8586292,82.95 25.19,82.95 L27.57,82.95 L27.57,83.95 C27.5732532,84.5146839 28.0072342,84.9833833 28.57,85.03 L32.13,85.03 C34.47,85 37,82.67 37,81 L37,80.5 L39.9,80.5 C40.7009398,80.5530511 41.4897339,80.2829161 42.09,79.75 C42.6791477,79.1740956 42.9923899,78.3727782 42.95,77.55 L42.95,60 C43.0037097,59.7322263 43.1443194,59.4896746 43.35,59.31 C43.5162435,59.1235686 43.7504942,59.0118491 44,59 L48.94,59 L48.93,57 Z M35.19,80 C35.2808474,80.8366374 34.9778609,81.668003 34.37,82.25 C33.7612351,82.7828846 32.9677543,83.0557558 32.16,83.01 L29.71,83.01 C29.6437258,83.01 29.59,82.9562742 29.59,82.89 L29.59,76.1 C29.59,76.068174 29.6026428,76.0376516 29.6251472,76.0151472 C29.6476516,75.9926428 29.678174,75.98 29.71,75.98 L32.17,75.98 C33.0082458,75.9510405 33.826388,76.240427 34.46,76.79 C35.0371194,77.3672686 35.310929,78.1812969 35.2,78.99 L35.19,80 Z M62.84,55.69 C62.9300956,55.8373169 62.9300956,56.0226831 62.84,56.17 L57.94,63.45 C57.8468079,63.5838815 57.6931019,63.662609 57.53,63.66 C57.4607579,63.6745678 57.3892421,63.6745678 57.32,63.66 C57.1849852,63.6221075 57.0726753,63.5281841 57.0114961,63.4020019 C56.9503168,63.2758197 56.9461317,63.1294722 57,63 L58.3,58.3 L55.55,58.3 C55.3754968,58.3072737 55.2108145,58.2191878 55.12,58.07 C55.0339237,57.9251564 55.0339237,57.7448436 55.12,57.6 L59.56,50.28 C59.5940967,50.2373725 59.634574,50.2002683 59.68,50.17 C59.7454124,50.1252052 59.8210931,50.0976849 59.9,50.09 L60,50.09 C60.2667064,50.0954441 60.4800556,50.3132381 60.48,50.58 L60.48,50.71 L59.61,55.41 L62.45,55.41 C62.6206915,55.4269447 62.769368,55.5336868 62.84,55.69 L62.84,55.69 Z M70,83 L67,83 L67,47.72 C67,44.72 64.64,43.18 60,43.02 L60,22.56 C60,17.28 56.55,14 51,14 L30.45,14 C29,14 28,15.27 28,17 C28,18.73 29,20 30.45,20 L34,20 L34,22.5 C34,24.9852814 36.0147186,27 38.5,27 C40.9852814,27 43,24.9852814 43,22.5 L43,20 L46.63,20 C47.3900584,20.0139082 48.103917,19.6362053 48.52,19 C48.858946,18.4368173 49.0257939,17.7868058 49,17.13 C49.0107164,16.7490638 48.9669406,16.3685509 48.87,16 L51,16 C55.45,16 58,18.39 58,22.56 L58,43 C53.36,43.13 51,44.71 51,47.71 L51,83 L48,83 C47.4477153,83 47,83.4477153 47,84 C47,84.5522847 47.4477153,85 48,85 L70,85 C70.5522847,85 71,84.5522847 71,84 C71,83.4477153 70.5522847,83 70,83 Z M41,22.5 C41,23.8807119 39.8807119,25 38.5,25 C37.1192881,25 36,23.8807119 36,22.5 L36,20 L41,20 L41,22.5 Z M46.85,17.87 C46.8119291,17.9558469 46.7235632,18.0080631 46.63,18 L30.46,18 C30.15,18 30.01,17.41 30.01,17 C30.01,16.59 30.22,16 30.45,16 L46.52,16 C46.78,16 47.03,16.55 47.03,17.13 C47.0384996,17.388455 46.976261,17.6443246 46.85,17.87 L46.85,17.87 Z M65,83 L53,83 L53,47.72 C53,46.55 53.59,45 58.65,45 L59.18,45 C64.4,45 65,46.55 65,47.72 L65,83 Z" id="â—-Pictogram"></path>
        </g>
    </g>
</svg>