<?xml version="1.0" encoding="UTF-8"?>
<svg width="96px" height="96px" viewBox="0 0 96 96" version="1.1" xmlns="http://www.w3.org/2000/svg" xmlns:xlink="http://www.w3.org/1999/xlink">
    <title>pictograms/E_World/e_car_sharing</title>
    <g id="Symbols" stroke="none" stroke-width="1" fill="none" fill-rule="evenodd">
        <g id="pictograms/e_world/e-car-sharing" fill="#39393A">
            <path d="M89.93,27 L89.93,22.19 C89.9244949,20.9788806 88.9411319,19.9999875 87.73,20 L85.93,20 L85.93,16 C85.93,15.4477153 85.4822847,15 84.93,15 L83.93,15 C83.3777153,15 82.93,15.4477153 82.93,16 L82.93,20 L78.93,20 L78.93,16 C78.93,15.4477153 78.4822847,15 77.93,15 L76.93,15 C76.3777153,15 75.93,15.4477153 75.93,16 L75.93,20 L74.13,20 C72.9149736,20 71.93,20.9849736 71.93,22.2 L71.93,27 C71.93,30.8659932 75.0640068,34 78.93,34 L79.93,34 L79.93,37.11 C79.9299816,37.8799535 80.2372067,38.6180836 80.7835202,39.1606423 C81.3298337,39.703201 82.0700649,40.0053284 82.84,40 L84.93,40 C85.4822847,40 85.93,40.4477153 85.93,41 L85.93,45 C85.93,45.5522847 86.3777153,46 86.93,46 C87.4822847,46 87.93,45.5522847 87.93,45 L87.93,41 C87.93,39.3431458 86.5868542,38 84.93,38 L82.84,38 C82.3507237,37.9945931 81.9554069,37.5992763 81.95,37.11 L81.95,35 L81.95,35 L81.95,34 L82.95,34 C86.8081805,33.9889766 89.93,30.8581962 89.93,27 Z M13.93,32 L14,32 C16.7478934,31.967605 18.967605,29.7478934 19,27 C19,24.2385763 16.7614237,22 14,22 L14,22 C11.2385763,22 9,24.2385763 9,27 C9,29.7614237 11.2385763,32 14,32 L13.93,32 Z M13.93,23.9999473 L13.93,23.9999473 C14.747076,23.9951617 15.5307748,24.3238096 16.1,24.91 C16.67319,25.4542748 16.9984368,26.2095701 17,27 C16.9732363,28.6456409 15.6456409,29.9732363 14,30 C13.2121745,29.9861097 12.4614411,29.6628274 11.91,29.1 C11.3238096,28.5307748 10.9951617,27.747076 10.9999473,26.93 C11.0380309,25.3005456 12.3701019,23.9995562 14,23.9999473 L13.93,23.9999473 Z M19.93,56.52 L19.93,70 C19.93,71.6568542 18.5868542,73 16.93,73 L11,73 C9.34314575,73 8,71.6568542 8,70 L8,56.83 C8.04470258,56.1871762 7.98046503,55.5414197 7.81,54.92 C7.03893725,54.9413921 6.29457288,54.6367842 5.75970873,54.0809824 C5.22484459,53.5251805 4.94903006,52.7696736 5,52 L5,38 C5,35.790861 6.790861,34 9,34 L18.18,34 C17.7303061,34.5949355 17.4070175,35.2755432 17.23,36 L9,36 C7.8954305,36 7,36.8954305 7,38 L7,52 C7,52.55 7.17,52.89 8,52.89 C10,52.89 10,55.63 10,56.79 L10,70 C10,70.5522847 10.4477153,71 11,71 L17,71 C17.5522847,71 18,70.5522847 18,70 L18,55 C18.4898296,55.6443463 19.1325331,56.1564469 19.87,56.49 L19.93,56.52 Z M23,27 C23,24.2385763 25.2385763,22 28,22 L28,22 C30.7614237,22 33,24.2385763 33,27 C33,29.7614237 30.7614237,32 28,32 L28,32 C25.2521066,31.967605 23.032395,29.7478934 23,27 Z M22,55 C20.3937975,54.9706841 19.0837309,53.7042865 19,52.1 L19,37.85 C19,35.37 20.38,34 22.87,34 L32.87,34 C35.44,34 37,35.44 37,37.85 L37,43.24 C35.6,45.99 33.79,49.62 33.15,50.93 C32.2231829,52.9893421 31.827782,55.2482849 32,57.5 L32,57.84 C32,58.07 32,58.32 32,58.59 C32,62.38 32.09,66.26 33.87,68.35 L34,68.49 L34,69.87 C34,71.63 32.7,72.87 30.69,72.99 C30.38,72.99 29.12,72.99 27.85,72.99 C26.58,72.99 25.32,73 25,73 C24.183116,73.0006538 23.4012894,72.6681643 22.8350998,72.0793271 C22.2689102,71.4904899 21.9673244,70.6962305 22,69.88 L22,55 Z M50.26,67 C50.26,69.4267735 48.7981469,71.6145912 46.5561006,72.5432772 C44.3140543,73.4719632 41.7333473,72.9586287 40.0173593,71.2426407 C38.3013713,69.5266527 37.7880368,66.9459457 38.7167228,64.7038994 C39.6454088,62.4618531 41.8332265,61 44.26,61 C47.5737085,61 50.26,63.6862915 50.26,67 L50.26,67 Z M84.15,57.62 C83.52,56.35 81.15,54.4 79.28,52.68 C77.41,50.96 68.28,41.97 65.85,39.68 C63.42,37.39 43.33,38.18 40.95,38.18 C38.57,38.18 41.12,39.9 40.4,41.12 C39.68,42.34 36,49.74 35,51.8 C34,53.86 34.06,55.52 34.06,57.8 C34.06,60.08 33.84,65.13 35.45,67.01 C35.81,67.44 36.12,67.77 36.45,68.01 C35.981044,64.7626043 37.5425122,61.5580936 40.3889992,59.9262203 C43.2354861,58.294347 46.7898181,58.5660011 49.3552469,60.6115019 C51.9206756,62.6570027 52.9770169,66.0615901 52.02,69.2 L65.84,69.29 C64.7579965,65.9743062 65.9487839,62.3397531 68.7830496,60.3071452 C71.6173153,58.2745374 75.4417786,58.3123784 78.2352702,60.4006699 C81.0287618,62.4889613 82.1473992,66.146365 81,69.4400993 L81.21,69.4400993 C83.1,69.4400993 85,69.5 85,66.67 C85,63.84 84.78,58.9 84.15,57.62 Z M70.73,50.62 L70.73,50.62 C65.93,49.92 55.36,48.53 51.73,48.39 L45.85,48.17 L49.91,39.73 C56.08,39.73 62.86,40.08 64.21,41.37 C65.56,42.66 69.04,46.1 72.16,49.19 C72.71,49.68 72.38,50.81 70.72,50.58 L70.73,50.62 Z M79.38,67 C79.38,70.3137085 76.6937085,73 73.38,73 C70.0662915,73 67.38,70.3137085 67.38,67 C67.38,63.6862915 70.0662915,61 73.38,61 C76.6937085,61 79.38,63.6862915 79.38,67 Z M78.92,32 C76.1585763,32 73.92,29.7614237 73.92,27 L73.92,22.19 C73.92,22.0795431 74.0095431,21.9899999 74.12,21.9899999 L87.73,21.9899999 C87.8421842,21.9898727 87.934658,22.077943 87.94,22.19 L87.94,27 C87.94,29.7614237 85.7014237,32 82.94,32 L78.92,32 Z" id="â—-Pictogram"></path>
        </g>
    </g>
</svg>