<?xml version="1.0" encoding="UTF-8"?>
<svg width="96px" height="96px" viewBox="0 0 96 96" version="1.1" xmlns="http://www.w3.org/2000/svg" xmlns:xlink="http://www.w3.org/1999/xlink">
    <title>pictograms/E_World/e_mobil_enablement</title>
    <g id="Symbols" stroke="none" stroke-width="1" fill="none" fill-rule="evenodd">
        <g id="pictograms/e_world/e-mobil-enablement" fill="#39393A">
            <path d="M76,31 L76,26.2 C76,25.614787 75.7668488,25.0536875 75.3521034,24.6408188 C74.937358,24.2279501 74.375207,23.9973399 73.79,24 L72,24 L72,20 C72,19.4477153 71.5522847,19 71,19 L70,19 C69.4477153,19 69,19.4477153 69,20 L69,24 L65,24 L65,20 C65,19.4477153 64.5522847,19 64,19 L63,19 C62.4477153,19 62,19.4477153 62,20 L62,24 L60.2,24 C58.9849736,24 58,24.9849736 58,26.2 L58,31 C58,34.8659932 61.1340068,38 65,38 L66,38 L66,41.11 C65.9999816,41.8799535 66.3072067,42.6180836 66.8535202,43.1606423 C67.3998337,43.703201 68.1400649,44.0053284 68.91,44 L71,44 C71.5522847,44 72,44.4477153 72,45 L72,49 C72,49.5522847 72.4477153,50 73,50 C73.5522847,50 74,49.5522847 74,49 L74,45 C74,43.3431458 72.6568542,42 71,42 L68.91,42 C68.4207237,41.9945931 68.0254069,41.5992763 68.02,41.11 L68.02,39 L68.02,39 L68.02,38 L69.02,38 C72.8781805,37.9889766 76,34.8581962 76,31 L76,31 Z M65,35.9999999 C62.2385763,35.9999999 60,33.7614237 60,30.9999999 L60,26.2 C60,26.0895431 60.0895431,25.9999999 60.2,25.9999999 L73.79,25.9999999 C73.9021842,25.9998727 73.994658,26.087943 74,26.2 L74,30.9999999 C74,33.7614237 71.7614237,35.9999999 69,35.9999999 L65,35.9999999 Z M35.26,70 C35.26,73.3137085 32.5737085,76 29.26,76 C25.9462915,76 23.26,73.3137085 23.26,70 C23.26,66.6862915 25.9462915,64 29.26,64 C32.5737085,64 35.26,66.6862915 35.26,70 Z M69.15,60.62 C68.52,59.35 66.15,57.4 64.28,55.68 C62.41,53.96 53.28,44.97 50.85,42.68 C48.42,40.39 28.33,41.18 25.95,41.18 C23.57,41.18 26.12,42.9 25.4,44.12 C24.68,45.34 21,52.74 20,54.8 C19,56.86 19.06,58.52 19.06,60.8 C19.06,63.08 18.84,68.13 20.45,70.01 C20.81,70.44 21.12,70.77 21.45,71.01 C20.981044,67.7626043 22.5425122,64.5580936 25.3889992,62.9262203 C28.2354861,61.294347 31.7898181,61.5660011 34.3552469,63.6115019 C36.9206756,65.6570027 37.9770169,69.0615901 37.02,72.2 L50.84,72.29 C49.7579965,68.9743062 50.9487839,65.3397531 53.7830496,63.3071452 C56.6173153,61.2745374 60.4417786,61.3123784 63.2352702,63.4006699 C66.0287618,65.4889613 67.1473992,69.146365 66,72.4400993 L66.21,72.4400993 C68.1,72.4400993 70,72.5 70,69.67 C70,66.84 69.78,61.9 69.15,60.62 Z M55.73,53.62 L55.73,53.62 C50.93,52.92 40.36,51.53 36.73,51.39 L30.85,51.17 L34.91,42.73 C41.08,42.73 47.86,43.08 49.21,44.37 C50.56,45.66 54.04,49.1 57.16,52.19 C57.71,52.68 57.38,53.81 55.72,53.58 L55.73,53.62 Z M64.38,70 C64.38,73.3137085 61.6937085,76 58.38,76 C55.0662915,76 52.38,73.3137085 52.38,70 C52.38,66.6862915 55.0662915,64 58.38,64 C61.6937085,64 64.38,66.6862915 64.38,70 Z" id="â—-Pictogram"></path>
        </g>
    </g>
</svg>