<?xml version="1.0" encoding="UTF-8"?>
<svg width="96px" height="96px" viewBox="0 0 96 96" version="1.1" xmlns="http://www.w3.org/2000/svg" xmlns:xlink="http://www.w3.org/1999/xlink">
    <title>pictograms/E_World/electricity_tenant</title>
    <g id="Symbols" stroke="none" stroke-width="1" fill="none" fill-rule="evenodd">
        <g id="pictograms/e_world/electricity-tenant" fill="#39393A">
            <path d="M37,38 L29,38 L29,48 L37,48 L37,38 Z M35,46 L31,46 L31,40 L35,40 L35,46 Z M48,38 L40,38 L40,48 L48,48 L48,38 Z M46,46 L42,46 L42,40 L46,40 L46,46 Z M59,38 L51,38 L51,48 L59,48 L59,38 Z M57,46 L53,46 L53,40 L57,40 L57,46 Z M48,52 L40,52 L40,62 L48,62 L48,52 Z M46,60 L42,60 L42,54 L46,54 L46,60 Z M37,52 L29,52 L29,62 L37,62 L37,52 Z M35,60 L31,60 L31,54 L35,54 L35,60 Z M59,52 L51,52 L51,62 L59,62 L59,52 Z M57,60 L53,60 L53,54 L57,54 L57,60 Z M68.94,17.74 C69.031877,17.8904129 69.031877,18.0795871 68.94,18.23 L63.94,25.67 C63.8458802,25.8092695 63.6880798,25.8919268 63.52,25.89 C63.4507285,25.9042817 63.3792715,25.9042817 63.31,25.89 C63.087288,25.7863592 62.9728495,25.5362898 63.04,25.3 L64.36,20.5 L61.5,20.5 C61.3239575,20.503065 61.1598045,20.4114447 61.07,20.26 C60.9799044,20.1126831 60.9799044,19.9273169 61.07,19.78 L65.6,12.3 C65.6343222,12.257584 65.6747651,12.2205113 65.72,12.19 C65.7889021,12.144786 65.8679119,12.1173043 65.95,12.11 L66,12.11 C66.2722294,12.1154457 66.4900545,12.3377162 66.49,12.61 L66.49,12.74 L65.6,17.54 L68.5,17.54 C68.6716304,17.5246636 68.8387019,17.6006052 68.94,17.74 Z M65,7 C58.372583,7 53,12.372583 53,19 L22,19 C21.4477153,19 21,19.4477153 21,20 L21,34 C21,34.5522847 21.4477153,35 22,35 L24,35 L24,78 C24,80.7614237 26.2385763,83 29,83 L59,83 C61.7614237,83 64,80.7614237 64,78 L64,35 L66,35 C66.5522847,35 67,34.5522847 67,34 L67,30.82 C73.118439,29.7487723 77.4081292,24.1855025 76.8884208,17.9957749 C76.3687124,11.8060474 71.2114032,7.03597642 65,7 Z M57,81 L52,81 L52,72 L57,72 L57,81 Z M62,78 C62,79.6568542 60.6568542,81 59,81 L59,70 L50,70 L50,81 L29,81 C27.3431458,81 26,79.6568542 26,78 L26,35 L62,35 L62,78 Z M67,28.77 C66.68,28.8366667 66.3466667,28.8866667 66,28.92 C65.6681942,28.9631821 65.3344509,28.9898815 65,29 C59.672714,28.9946724 55.2848789,24.8139549 55.0221674,19.4931479 C54.7594559,14.172341 58.714113,9.57971813 64.0149633,9.0496331 C69.3158136,8.51954807 74.1015909,12.2381275 74.8977068,17.505594 C75.6938227,22.7730605 72.2207402,27.7398698 67,28.8 L67,28.77 Z" id="â—-Pictogram"></path>
        </g>
    </g>
</svg>