<?xml version="1.0" encoding="UTF-8"?>
<svg width="96px" height="96px" viewBox="0 0 96 96" version="1.1" xmlns="http://www.w3.org/2000/svg" xmlns:xlink="http://www.w3.org/1999/xlink">
    <title>pictograms/E_World/led_traffic_light</title>
    <g id="Symbols" stroke="none" stroke-width="1" fill="none" fill-rule="evenodd">
        <g id="pictograms/e_world/led-traffic-light" fill="#39393A">
            <path d="M64,87 L60,87 L60,54.63 C60,52.9 58.6,51.98 57,51.74 L57,24.53 C56.89,19.27 53.38,16 47.84,16 L27.44,16 C26,16 25,17.27 25,19 C25,20.73 26,22 27.45,22 L31,22 L31,24.5 C31,26.9852814 33.0147186,29 35.5,29 C37.9852814,29 40,26.9852814 40,24.5 L40,22 L43.64,22 C44.4000584,22.0139082 45.113917,21.6362053 45.53,21 C45.8649086,20.4355223 46.0282214,19.7857457 46,19.13 C46.0074573,18.7485845 45.9603131,18.3680634 45.86,18 L47.86,18 C52.32,18 54.93,20.4 55.02,24.55 L55.02,51.74 C53.42,51.99 52.02,52.9 52.02,54.63 L52.02,87 L48,87 C47.4477153,87 47,87.4477153 47,88 C47,88.5522847 47.4477153,89 48,89 L64,89 C64.5522847,89 65,88.5522847 65,88 C65,87.4477153 64.5522847,87 64,87 Z M38,24.51 C38,25.8907119 36.8807119,27.01 35.5,27.01 C34.1192881,27.01 33,25.8907119 33,24.51 L33,22 L38,22 L38,24.51 Z M43.85,19.87 C43.8119291,19.9558469 43.7235632,20.0080631 43.63,20 L27.46,20 C27.15,20 27.01,19.41 27.01,19 C27.01,18.59 27.22,18 27.45,18 L43.52,18 C43.78,18 44.03,18.55 44.03,19.13 C44.0384996,19.388455 43.976261,19.6443246 43.85,19.87 Z M58,87 L54,87 L54,54.63 C54,53.63 55.82,53.63 55.9,53.63 L56.13,53.63 C56.21,53.63 58.01,53.63 58.01,54.63 L58,87 Z" id="â—-Pictogram"></path>
        </g>
    </g>
</svg>