<?xml version="1.0" encoding="UTF-8"?>
<svg width="96px" height="96px" viewBox="0 0 96 96" version="1.1" xmlns="http://www.w3.org/2000/svg" xmlns:xlink="http://www.w3.org/1999/xlink">
    <title>pictograms/E_World/quattiers_app_plus</title>
    <g id="Symbols" stroke="none" stroke-width="1" fill="none" fill-rule="evenodd">
        <g id="pictograms/e_world/quattiers-app-plus" fill="#39393A">
            <path d="M37,27 L58,27 L58,62 L37,62 L37,27 Z M62.0002048,27.09 L62.0002048,68.91 C62.0222236,71.142936 60.2328777,72.9725421 58,73 L37,73 C34.7671223,72.9725421 32.9777764,71.142936 32.9997952,68.91 L32.9997952,27.09 C32.9777764,24.857064 34.7671223,23.0274579 37,23 L58,23 C60.2328777,23.0274579 62.0222236,24.857064 62.0002048,27.09 Z M60,27.09 C60.0245883,26.5441521 59.8247802,26.0120102 59.4470094,25.6172398 C59.0692387,25.2224693 58.5464011,24.9994465 58,24.999999 L37,24.999999 C36.4535989,24.9994465 35.9307613,25.2224693 35.5529906,25.6172398 C35.1752198,26.0120102 34.9754117,26.5441521 35,27.09 L35,68.91 C34.9754117,69.4558479 35.1752198,69.9879898 35.5529906,70.3827602 C35.9307613,70.7775307 36.4535989,71.0005535 37,70.999999 L58,70.999999 C58.5464011,71.0005535 59.0692387,70.7775307 59.4470094,70.3827602 C59.8247802,69.9879898 60.0245883,69.4558479 60,68.91 L60,27.09 Z M47.5,64 C46.1192881,64 45,65.1192881 45,66.5 C45,67.8807119 46.1192881,69 47.5,69 C48.8807119,69 50,67.8807119 50,66.5 C50,65.1192881 48.8807119,64 47.5,64 Z M73,18 L67,18 L67,12 C67,11.4477153 66.5522847,11 66,11 C65.4477153,11 65,11.4477153 65,12 L65,18 L59,18 C58.4477153,18 58,18.4477153 58,19 C58,19.5522847 58.4477153,20 59,20 L65,20 L65,26 C65,26.5522847 65.4477153,27 66,27 C66.5522847,27 67,26.5522847 67,26 L67,20 L73,20 C73.5522847,20 74,19.5522847 74,19 C74,18.4477153 73.5522847,18 73,18 Z" id="â—-Pictogram"></path>
        </g>
    </g>
</svg>