<svg width="48" height="48" viewBox="0 0 48 48" xmlns="http://www.w3.org/2000/svg">
    <path d="M23 29.719c-2.833-.478-5-2.942-5-5.91s2.167-5.431 5-5.91v-4.9a1 1 0 0 0-1.183-.982C16.24 13.047 12 17.937 12 23.809c0 5.87 4.24 10.763 9.817 11.792A1 1 0 0 0 23 34.617v-4.898zm6.622-8.001c.243.65.378 1.355.378 2.09 0 2.968-2.167 5.432-5 5.91v4.9a1 1 0 0 0 1.183.983C31.76 34.57 36 29.68 36 23.809c0-1.507-.281-2.95-.791-4.28a1 1 0 0 0-1.479-.48l-4.108 2.669zm-1.011-1.73l4.112-2.67a1 1 0 0 0 .199-1.507 11.997 11.997 0 0 0-6.739-3.793A1 1 0 0 0 25 13v4.898a6.001 6.001 0 0 1 3.611 2.09z" fill-rule="evenodd" fill="#EA1B0A"/>
</svg>
