<svg width="48" height="48" viewBox="0 0 48 48" xmlns="http://www.w3.org/2000/svg">
    <path d="M35 28.002a1 1 0 0 1 1 1v4c0 2.206-1.794 4-4 4H16c-2.206 0-4-1.794-4-4v-4a1 1 0 0 1 2 0v4c0 1.103.897 2 2 2h16c1.103 0 2-.897 2-2v-4a1 1 0 0 1 1-1zM23.992 10a1 1 0 0 1 1 1v15.13c1.954-1.644 4.038-3.88 6.215-6.678a1 1 0 1 1 1.578 1.228c-2.726 3.503-5.339 6.189-7.766 7.982a1.707 1.707 0 0 1-2.045 0c-2.425-1.79-5.038-4.475-7.767-7.981a1 1 0 1 1 1.578-1.228c2.176 2.795 4.257 5.029 6.207 6.671V11a1 1 0 0 1 1-1z" fill-rule="evenodd" fill="#EA1B0A"/>
</svg>
