<svg width="48" height="48" viewBox="0 0 48 48" xmlns="http://www.w3.org/2000/svg">
    <path d="M35 37.134H13a1 1 0 1 0 0 2h22a1 1 0 1 0 0-2m-8.134-22.767l2.598 1.5-1 1.73-2.598-1.5 1-1.73zm-5.902 16.222l-2.598-1.5 6.5-11.258 2.598 1.5-6.5 11.258zm-4.299 4.446a1 1 0 0 0 .97.017l4.164-2.214c.166-.088.303-.221.397-.383L31.696 16a1.002 1.002 0 0 0-.366-1.366l-4.33-2.5a.998.998 0 0 0-1.366.366l-9.5 16.454c-.094.162-.14.348-.134.535l.165 4.714c.013.345.201.658.5.83z" fill-rule="evenodd" fill="#EA1B0A"/>
</svg>
