<svg width="48" height="48" viewBox="0 0 48 48" xmlns="http://www.w3.org/2000/svg">
    <path d="M35 23h-3.1c-.6-2.1-2.8-3.4-4.9-2.8-1.4.4-2.4 1.4-2.8 2.8H13c-.6 0-1 .4-1 1s.4 1 1 1h11.1c.6 2.1 2.8 3.4 4.9 2.8 1.4-.4 2.4-1.4 2.8-2.8H35c.6 0 1-.4 1-1s-.4-1-1-1zm-7 3c-1.1 0-2-.9-2-2s.9-2 2-2 2 .9 2 2-.9 2-2 2zm7 6h-8.1c-.6-2.1-2.8-3.4-4.9-2.8-1.4.4-2.4 1.4-2.8 2.8H13c-.6 0-1 .4-1 1s.4 1 1 1h6.1c.6 2.1 2.8 3.4 4.9 2.8 1.4-.4 2.4-1.4 2.8-2.8H35c.6 0 1-.4 1-1s-.4-1-1-1zm-12 3c-1.1 0-2-.9-2-2s.9-2 2-2 2 .9 2 2-.9 2-2 2zM13 16h3.1c.6 2.1 2.8 3.4 4.9 2.8 1.4-.4 2.4-1.4 2.8-2.8H35c.6 0 1-.4 1-1s-.4-1-1-1H23.9c-.6-2.1-2.8-3.4-4.9-2.8-1.4.4-2.4 1.4-2.8 2.8H13c-.6 0-1 .4-1 1s.4 1 1 1zm7-3c1.1 0 2 .9 2 2s-.9 2-2 2-2-.9-2-2 .9-2 2-2z" fill-rule="evenodd" fill="#EA1B0A"/>
</svg>
