<svg width="48" height="48" viewBox="0 0 48 48" xmlns="http://www.w3.org/2000/svg">
    <path d="M33.282 16.272a1.838 1.838 0 0 0-1.51-1.505C29.022 14.26 26.458 14 24 14c-2.46 0-5.023.26-7.767.766-.797.149-1.366.716-1.514 1.5-.959 5.157-.959 10.407 0 15.464a1.837 1.837 0 0 0 1.51 1.503C18.977 33.74 21.54 34 24 34c2.46 0 5.023-.26 7.767-.766.797-.149 1.366-.716 1.515-1.506a41.935 41.935 0 0 0 0-15.456zm1.965-.372a43.934 43.934 0 0 1 0 16.2c-.301 1.6-1.506 2.8-3.113 3.1-2.711.5-5.423.8-8.134.8-2.711 0-5.423-.3-8.134-.8-1.607-.3-2.812-1.5-3.113-3.1-1.004-5.3-1.004-10.8 0-16.2.301-1.6 1.506-2.8 3.113-3.1 2.711-.5 5.423-.8 8.134-.8 2.711 0 5.423.3 8.134.8 1.607.3 2.812 1.5 3.113 3.1zM25 30c0 .5-.5 1-1 1s-1-.5-1-1v-7c0-.5.5-1 1-1s1 .5 1 1v7zm-1-10c-.8 0-1.5-.7-1.5-1.5S23.2 17 24 17s1.5.7 1.5 1.5S24.8 20 24 20z" fill-rule="evenodd" fill="#EA1B0A"/>
</svg>
