<svg width="48" height="48" viewBox="0 0 48 48" xmlns="http://www.w3.org/2000/svg">
    <path d="M29.302 32.463c1.181-1.936 1.941-4.536 2.085-7.463h2.562c-.313 3.147-2.097 5.859-4.647 7.463zM14.051 25h2.563c.143 2.927.905 5.527 2.085 7.464-2.55-1.604-4.334-4.317-4.648-7.464zm4.648-9.464c-1.18 1.936-1.942 4.537-2.085 7.464h-2.563c.314-3.147 2.098-5.861 4.648-7.464zM25 23v-8.815c2.304.833 4.142 4.459 4.389 8.815H25zm0 10.815V25h4.389c-.247 4.357-2.085 7.983-4.389 8.815zM23 25v8.815c-2.303-.832-4.141-4.458-4.388-8.815H23zm0-10.814V23h-4.388c.247-4.356 2.085-7.982 4.388-8.814zM33.949 23h-2.562c-.143-2.927-.904-5.527-2.085-7.463 2.55 1.603 4.334 4.317 4.647 7.463zM24 12c-6.616 0-12 5.383-12 12s5.384 12 12 12c6.617 0 12-5.383 12-12s-5.383-12-12-12z" fill-rule="evenodd" fill="#EA1B0A"/>
</svg>
