<svg width="48" height="48" viewBox="0 0 48 48" xmlns="http://www.w3.org/2000/svg">
    <path d="M26 12c1.654 0 3 1.346 3 3v4a1 1 0 1 1-2 0v-4a1 1 0 0 0-1-1H16a1 1 0 0 0-1 1v18a1 1 0 0 0 1 1h10a1 1 0 0 0 1-1v-4a1 1 0 1 1 2 0v4c0 1.654-1.346 3-3 3H16c-1.654 0-3-1.346-3-3V15c0-1.654 1.346-3 3-3h10zm5.216 7.379a1 1 0 0 1 1.405-.163c1.923 1.523 3.298 2.903 4.203 4.218.234.34.234.792 0 1.133-.905 1.315-2.28 2.695-4.203 4.218a1 1 0 0 1-1.242-1.57A25.11 25.11 0 0 0 33.857 25H24a1 1 0 1 1 0-2h9.857a25.24 25.24 0 0 0-2.478-2.215 1.001 1.001 0 0 1-.163-1.406z" fill-rule="evenodd" fill="#EA1B0A"/>
</svg>
