<svg width="48" height="48" viewBox="0 0 48 48" xmlns="http://www.w3.org/2000/svg">
    <path d="M32.218 26.393a1 1 0 0 1 .63 1.267A9.326 9.326 0 0 1 24 34.014a9.333 9.333 0 0 1-8.834-6.315 1 1 0 1 1 1.892-.647A7.334 7.334 0 0 0 24 32.014a7.325 7.325 0 0 0 6.95-4.99 1.003 1.003 0 0 1 1.268-.63zM18.53 21a1.376 1.376 0 1 1 .001-2.75 1.376 1.376 0 0 1 0 2.75zm10.938 0a1.375 1.375 0 1 1 0-2.75 1.375 1.375 0 0 1 0 2.75zM24 37.57c-7.482 0-13.57-6.088-13.57-13.57 0-7.483 6.088-13.57 13.57-13.57S37.57 16.517 37.57 24c0 7.482-6.088 13.57-13.57 13.57zm0-29.14C15.415 8.43 8.43 15.415 8.43 24c0 8.586 6.985 15.57 15.57 15.57 8.586 0 15.57-6.984 15.57-15.57 0-8.585-6.984-15.57-15.57-15.57z" fill-rule="evenodd" fill="#EA1B0A"/>
</svg>
