<svg width="48" height="48" viewBox="0 0 48 48" xmlns="http://www.w3.org/2000/svg">
    <path d="M24.012 24.916a9.388 9.388 0 0 1 8.414 5.29 1 1 0 0 1-1.803.867 7.376 7.376 0 0 0-6.611-4.157 7.36 7.36 0 0 0-6.666 4.27.999.999 0 1 1-1.816-.836 9.365 9.365 0 0 1 8.482-5.434zM18.532 21a1.376 1.376 0 1 1 0-2.75 1.376 1.376 0 0 1 0 2.75zm10.937 0a1.375 1.375 0 1 1 0-2.75 1.375 1.375 0 0 1 0 2.75zM24 37.57c-7.482 0-13.57-6.088-13.57-13.57 0-7.483 6.088-13.57 13.57-13.57S37.57 16.517 37.57 24c0 7.482-6.088 13.57-13.57 13.57zm0-29.14C15.415 8.43 8.43 15.415 8.43 24c0 8.586 6.985 15.57 15.57 15.57 8.586 0 15.57-6.984 15.57-15.57 0-8.585-6.984-15.57-15.57-15.57z" fill-rule="evenodd" fill="#EA1B0A"/>
</svg>
