<svg width="48" height="48" viewBox="0 0 48 48" xmlns="http://www.w3.org/2000/svg">
    <path d="M35.333 23.159c.251 0 .477.11.63.284 1.585 1.375 3.113 3.63 3.756 5.379a.84.84 0 0 1-1.577.58c-.39-1.06-1.195-2.387-2.118-3.491-.917 5.814-5.95 10.26-12.02 10.26a12.147 12.147 0 0 1-9.188-4.184.84.84 0 0 1 1.268-1.103 10.467 10.467 0 0 0 7.919 3.608c5.327-.001 9.725-3.97 10.4-9.113-1.356.75-2.715 1.84-3.5 2.79a.84.84 0 1 1-1.296-1.068c1.206-1.463 3.452-3.118 5.428-3.875l-.14.055a.836.836 0 0 1 .438-.122zM24 11.829c3.57 0 6.89 1.544 9.187 4.184a.84.84 0 0 1-1.268 1.103A10.463 10.463 0 0 0 24 13.509c-5.326 0-9.726 3.97-10.4 9.113 1.356-.75 2.714-1.839 3.496-2.788a.84.84 0 1 1 1.297 1.068c-1.205 1.462-3.452 3.118-5.428 3.875l.132-.052a.836.836 0 0 1-1.025-.134c-1.596-1.371-3.143-3.648-3.791-5.41a.84.84 0 0 1 1.577-.58c.39 1.06 1.196 2.388 2.12 3.493.916-5.816 5.95-10.265 12.022-10.266z" fill-rule="evenodd" fill="#EA1B0A"/>
</svg>
