<svg width="48" height="48" viewBox="0 0 48 48" xmlns="http://www.w3.org/2000/svg">
    <path d="M35 22h-2.231a8.943 8.943 0 0 0-1.156-2.785l1.579-1.579a.999.999 0 0 0 0-1.414l-1.414-1.414a.999.999 0 0 0-1.414 0l-1.579 1.579A8.943 8.943 0 0 0 26 15.231V13a1 1 0 0 0-1-1h-2a1 1 0 0 0-1 1v2.231a8.943 8.943 0 0 0-2.785 1.156l-1.579-1.579a.999.999 0 0 0-1.414 0l-1.414 1.414a.999.999 0 0 0 0 1.414l1.579 1.579A8.943 8.943 0 0 0 15.231 22H13a1 1 0 0 0-1 1v2a1 1 0 0 0 1 1h2.231a8.943 8.943 0 0 0 1.156 2.785l-1.579 1.579a.999.999 0 0 0 0 1.414l1.414 1.414a.999.999 0 0 0 1.414 0l1.579-1.579c.856.54 1.798.931 2.785 1.156V35a1 1 0 0 0 1 1h2a1 1 0 0 0 1-1v-2.231a8.943 8.943 0 0 0 2.785-1.156l1.579 1.579a.999.999 0 0 0 1.414 0l1.414-1.414a.999.999 0 0 0 0-1.414l-1.579-1.579A8.943 8.943 0 0 0 32.769 26H35a1 1 0 0 0 1-1v-2a1 1 0 0 0-1-1zm-11 6a4 4 0 1 1 0-8 4 4 0 0 1 0 8z" fill-rule="evenodd" fill="#EA1B0A"/>
</svg>
