<svg width="48" height="48" viewBox="0 0 48 48" xmlns="http://www.w3.org/2000/svg">
    <path d="M26.808 18.808c2.1 1.8 5.2 1.7 7.1-.4 1.8-2.1 1.7-5.2-.4-7.1-2.1-1.9-5.2-1.7-7.1.4-1.3 1.5-1.7 3.7-.8 5.5l-5.2 3.1c-2-1.9-5.2-1.7-7.1.4-1.9 2.1-1.7 5.2.4 7.1 1.9 1.7 4.8 1.7 6.7 0l5.2 3.1c-1.2 2.5-.1 5.5 2.4 6.7 2.5 1.2 5.5.1 6.7-2.4 1.2-2.5.1-5.5-2.4-6.7-.7-.3-1.5-.5-2.2-.5-1.2 0-2.4.5-3.3 1.3l-5.2-3.1c.7-1.3.7-2.9 0-4.3l5.2-3.1zm3.3-6.8c1.7 0 3 1.3 3 3s-1.3 3-3 3-3-1.3-3-3 1.3-3 3-3zm-13 15c-1.7 0-3-1.3-3-3s1.3-3 3-3 3 1.3 3 3-1.3 3-3 3zm13 9c-1.7 0-3-1.3-3-3s1.3-3 3-3 3 1.3 3 3-1.3 3-3 3z" fill-rule="evenodd" fill="#EA1B0A"/>
</svg>
