<svg width="48" height="48" viewBox="0 0 48 48" xmlns="http://www.w3.org/2000/svg">
    <path d="M36.8 15.4c-.2-.2-.5-.4-.8-.4H16.8l-.8-3.2c-.1-.5-.5-.8-1-.8h-4c-.6 0-1 .4-1 1s.4 1 1 1h3.2L18 28.2c.1.5.5.8 1 .8h13c.4 0 .8-.3 1-.7l4-12c.1-.3 0-.6-.2-.9zM31.3 27H19.8l-1-4h13.8l-1.3 4zm2-6h-15l-1-4h17.3l-1.3 4zM24 33.5c0 1.4-1.1 2.5-2.5 2.5S19 34.9 19 33.5s1.1-2.5 2.5-2.5 2.5 1.1 2.5 2.5zm9 0c0 1.4-1.1 2.5-2.5 2.5S28 34.9 28 33.5s1.1-2.5 2.5-2.5 2.5 1.1 2.5 2.5z" fill-rule="evenodd" fill="#EA1B0A"/>
</svg>
