<svg width="48" height="48" viewBox="0 0 48 48" xmlns="http://www.w3.org/2000/svg">
    <path d="M24 28a3 3 0 1 1 0 6 3 3 0 0 1 0-6zm0-5c1.9 0 3.6.7 5 2.1.4.4.4 1 0 1.4-.4.4-1 .4-1.4 0-1-1-2.3-1.5-3.6-1.5-1.3 0-2.6.5-3.5 1.5-.2.2-.5.3-.7.3-.3 0-.5-.1-.7-.3-.4-.4-.4-1 0-1.4 1.3-1.3 3.1-2.1 4.9-2.1zm0-5c3.2 0 6.2 1.2 8.5 3.5.4.4.4 1 0 1.4-.2.2-.5.3-.7.3-.3 0-.5-.1-.7-.3C29.2 21 26.7 20 24 20c-2.7 0-5.2 1-7.1 2.9-.4.4-1 .4-1.4 0-.4-.4-.4-1 0-1.4 2.3-2.3 5.3-3.5 8.5-3.5zm0-5c4.4 0 8.6 1.7 11.7 4.8.4.4.4 1 0 1.4-.2.2-.5.3-.7.3-.3 0-.5-.1-.7-.3C31.5 16.5 27.9 15 24 15c-3.9 0-7.5 1.5-10.3 4.2-.4.4-1 .4-1.4 0-.4-.4-.4-1 0-1.4C15.4 14.7 19.6 13 24 13z" fill-rule="evenodd" fill="#EA1B0A"/>
</svg>
