<?xml version="1.0" encoding="UTF-8"?>
<svg width="26px" height="33px" viewBox="0 0 26 33" version="1.1" xmlns="http://www.w3.org/2000/svg" xmlns:xlink="http://www.w3.org/1999/xlink">
    <title>500px</title>
    <g id="Page-1" stroke="none" stroke-width="1" fill="none" fill-rule="evenodd">
        <g id="428-500px" fill="#000000" fill-rule="nonzero">
            <path d="M4.906,21.024 C4.912,21.042 5.082,21.5 5.174,21.73 C5.7,22.974 6.456,24.098 7.418,25.062 C8.38,26.026 9.5,26.78 10.75,27.306 C12.044,27.85 13.412,28.13 14.824,28.13 C16.236,28.13 17.612,27.856 18.898,27.306 C20.148,26.782 21.266,26.024 22.23,25.062 C23.194,24.1 23.948,22.98 24.474,21.73 C25.018,20.436 25.298,19.068 25.298,17.656 C25.298,16.244 25.024,14.868 24.474,13.582 C23.95,12.332 23.192,11.214 22.23,10.25 C21.268,9.286 20.148,8.532 18.898,8.006 C17.604,7.462 16.236,7.18 14.824,7.18 C13.392,7.18 11.962,7.468 10.692,8.006 C9.674,8.438 7.948,9.544 6.942,10.588 L6.936,10.594 L6.936,1.968 L21.418,1.968 C21.942,1.962 21.942,1.224 21.942,0.986 C21.942,0.742 21.942,0.012 21.41,0.004 L5.754,0.004 C5.328,0.004 5.066,0.36 5.066,0.686 L5.066,12.818 C5.066,13.212 5.554,13.494 6.01,13.586 C6.898,13.774 7.098,13.492 7.316,13.192 L7.348,13.154 C7.68,12.66 8.71,11.622 8.724,11.61 C10.336,9.998 12.492,9.11 14.798,9.11 C17.092,9.11 19.242,9.998 20.854,11.61 C22.472,13.228 23.366,15.372 23.366,17.648 C23.366,19.93 22.478,22.08 20.866,23.686 C19.278,25.274 17.054,26.186 14.772,26.186 C13.228,26.186 11.734,25.774 10.454,24.992 L10.46,17.616 C10.46,16.634 10.886,15.56 11.604,14.754 C12.422,13.828 13.548,13.322 14.78,13.322 C15.968,13.322 17.08,13.772 17.912,14.59 C18.73,15.402 19.186,16.49 19.186,17.646 C19.186,20.108 17.248,22.04 14.774,22.04 C14.298,22.04 13.43,21.828 13.392,21.822 C12.892,21.672 12.68,22.366 12.61,22.596 C12.342,23.478 12.748,23.652 12.828,23.678 C13.622,23.928 14.146,23.972 14.834,23.972 C18.328,23.972 21.172,21.128 21.172,17.634 C21.172,14.166 18.328,11.346 14.84,11.346 C13.128,11.346 11.522,12.002 10.314,13.184 C9.164,14.316 8.508,15.822 8.508,17.322 L8.508,17.36 C8.502,17.548 8.502,21.972 8.496,23.422 L8.49,23.416 C7.834,22.69 7.184,21.578 6.752,20.44 C6.584,19.996 6.202,20.072 5.684,20.234 C5.434,20.302 4.746,20.516 4.902,21.022 L4.902,21.022 L4.906,21.024 Z M12.35,19.294 C12.35,19.506 12.544,19.694 12.662,19.8 L12.7,19.838 C12.9,20.032 13.088,20.132 13.262,20.132 C13.406,20.132 13.494,20.064 13.524,20.032 C13.612,19.95 14.598,18.944 14.7,18.85 L15.806,19.95 C15.906,20.062 16.018,20.126 16.15,20.126 C16.326,20.126 16.518,20.02 16.718,19.814 C17.194,19.326 16.956,19.064 16.844,18.938 L15.726,17.82 L16.894,16.644 C17.15,16.37 16.926,16.076 16.7,15.85 C16.376,15.526 16.056,15.438 15.856,15.626 L14.694,16.788 L13.518,15.612 C13.456,15.55 13.374,15.518 13.292,15.518 C13.136,15.518 12.948,15.624 12.742,15.83 C12.38,16.192 12.304,16.442 12.492,16.642 L13.668,17.81 L12.5,18.978 C12.394,19.078 12.344,19.184 12.35,19.29 L12.35,19.294 Z M14.906,3.432 C13.03,3.432 11.03,3.814 9.568,4.444 C9.412,4.506 9.318,4.632 9.3,4.806 C9.282,4.974 9.326,5.194 9.438,5.48 C9.532,5.712 9.77,6.33 10.238,6.148 C11.738,5.572 13.4,5.26 14.906,5.26 C16.618,5.26 18.282,5.598 19.844,6.254 C21.088,6.78 22.256,7.542 23.532,8.642 C23.626,8.724 23.726,8.76 23.826,8.76 C24.076,8.76 24.314,8.516 24.52,8.286 C24.858,7.904 25.094,7.586 24.758,7.268 C23.54,6.118 22.208,5.256 20.558,4.556 C18.77,3.812 16.864,3.43 14.908,3.43 L14.906,3.432 Z M25.012,26.6 L25.012,26.6 C24.786,26.374 24.594,26.244 24.424,26.194 C24.254,26.144 24.1,26.182 23.98,26.3 L23.868,26.412 C22.706,27.574 21.35,28.486 19.844,29.124 C18.282,29.786 16.626,30.118 14.918,30.118 C13.206,30.118 11.55,29.78 9.992,29.124 C8.486,28.486 7.13,27.574 5.966,26.412 C4.754,25.2 3.84,23.844 3.254,22.388 C2.678,20.962 2.492,19.894 2.428,19.544 C2.422,19.512 2.416,19.488 2.416,19.47 C2.334,19.058 1.954,19.026 1.41,19.114 C1.186,19.152 0.492,19.258 0.554,19.752 L0.554,19.764 C0.736,20.92 1.06,22.052 1.516,23.126 C2.248,24.858 3.298,26.414 4.634,27.752 C5.97,29.09 7.528,30.134 9.26,30.87 C11.054,31.626 12.96,32.014 14.922,32.014 C16.884,32.014 18.79,31.626 20.584,30.87 C22.316,30.138 23.872,29.088 25.21,27.752 C25.21,27.752 25.284,27.678 25.328,27.634 C25.466,27.466 25.596,27.184 25.01,26.602 L25.012,26.6 Z" id="Shape"></path>
        </g>
    </g>
</svg>