<?xml version="1.0" encoding="UTF-8"?>
<svg width="32px" height="30px" viewBox="0 0 32 30" version="1.1" xmlns="http://www.w3.org/2000/svg" xmlns:xlink="http://www.w3.org/1999/xlink">
    <title>aid_kit</title>
    <g id="Page-1" stroke="none" stroke-width="1" fill="none" fill-rule="evenodd">
        <g id="153-aid-kit" fill="#000000" fill-rule="nonzero">
            <path d="M28,6 L22,6 L22,2 C22,0.9 21.1,0 20,0 L12,0 C10.9,0 10,0.9 10,2 L10,6 L4,6 C1.8,6 0,7.8 0,10 L0,26 C0,28.2 1.8,30 4,30 L28,30 C30.2,30 32,28.2 32,26 L32,10 C32,7.8 30.2,6 28,6 Z M12,2 L20,2 L20,6 L12,6 L12,2 Z M24,20 L18,20 L18,26 L14,26 L14,20 L8,20 L8,16 L14,16 L14,10 L18,10 L18,16 L24,16 L24,20 Z" id="Shape"></path>
        </g>
    </g>
</svg>