<?xml version="1.0" encoding="UTF-8"?>
<svg width="28px" height="32px" viewBox="0 0 28 32" version="1.1" xmlns="http://www.w3.org/2000/svg" xmlns:xlink="http://www.w3.org/1999/xlink">
    <title>alarm</title>
    <g id="Page-1" stroke="none" stroke-width="1" fill="none" fill-rule="evenodd">
        <g id="081-alarm" fill="#000000" fill-rule="nonzero">
            <path d="M14,4 C6.268,4 0,10.268 0,18 C0,25.732 6.268,32 14,32 C21.732,32 28,25.732 28,18 C28,10.268 21.732,4 14,4 Z M14,29.25 C7.786,29.25 2.75,24.214 2.75,18 C2.75,11.786 7.786,6.75 14,6.75 C20.214,6.75 25.25,11.786 25.25,18 C25.25,24.214 20.214,29.25 14,29.25 Z M27.212,8.974 C27.714,8.098 28,7.082 28,6 C28,2.686 25.314,0 22,0 C20.068,0 18.35,0.914 17.252,2.332 C21.374,3.184 24.914,5.62 27.212,8.976 L27.212,8.976 L27.212,8.974 Z M10.748,2.332 C9.65,0.914 7.932,0 6,0 C2.686,0 0,2.686 0,6 C0,7.082 0.286,8.098 0.788,8.974 C3.084,5.618 6.626,3.182 10.748,2.33 L10.748,2.332 Z" id="Shape"></path>
            <polygon id="Path" points="14 18 14 10 12 10 12 20 20 20 20 18"></polygon>
        </g>
    </g>
</svg>