<?xml version="1.0" encoding="UTF-8"?>
<svg width="32px" height="30px" viewBox="0 0 32 30" version="1.1" xmlns="http://www.w3.org/2000/svg" xmlns:xlink="http://www.w3.org/1999/xlink">
    <title>amazon</title>
    <g id="Page-1" stroke="none" stroke-width="1" fill="none" fill-rule="evenodd">
        <g id="392-amazon" fill="#000000" fill-rule="nonzero">
            <path d="M28.926,25.662 C25.42,28.25 20.344,29.624 15.97,29.624 C9.838,29.624 4.32,27.362 0.146,23.586 C-0.18,23.292 0.108,22.886 0.502,23.118 C5.008,25.744 10.584,27.318 16.34,27.318 C20.222,27.318 24.49,26.512 28.422,24.842 C29.01,24.592 29.51,25.236 28.928,25.66 L28.926,25.662 Z" id="Path"></path>
            <path d="M30.382,24 C29.932,23.426 27.42,23.726 26.288,23.862 C25.944,23.9 25.894,23.606 26.2,23.386 C28.206,21.98 31.494,22.386 31.876,22.854 C32.264,23.33 31.776,26.622 29.894,28.198 C29.606,28.442 29.332,28.31 29.456,27.992 C29.888,26.936 30.832,24.574 30.382,23.998 L30.382,24 Z" id="Path"></path>
            <path d="M22.106,21.676 L22.112,21.682 C22.886,21 24.28,19.782 25.068,19.126 C25.38,18.876 25.324,18.458 25.08,18.108 C24.374,17.132 23.624,16.34 23.624,14.54 L23.624,8.54 C23.624,5.996 23.8,3.664 21.93,1.914 C20.454,0.502 18.004,0.002 16.13,0.002 C12.468,0.002 8.38,1.37 7.524,5.896 C7.43,6.378 7.786,6.634 8.098,6.702 L11.83,7.108 C12.18,7.09 12.43,6.746 12.498,6.396 C12.816,4.84 14.124,4.084 15.592,4.084 C16.386,4.084 17.286,4.372 17.754,5.084 C18.292,5.878 18.222,6.96 18.222,7.878 L18.222,8.378 C15.99,8.628 13.072,8.79 10.984,9.71 C8.572,10.754 6.878,12.878 6.878,16.004 C6.878,20.004 9.396,22.004 12.64,22.004 C15.378,22.004 16.872,21.36 18.984,19.198 C19.684,20.21 19.91,20.704 21.19,21.766 C21.484,21.922 21.846,21.91 22.102,21.678 L22.106,21.676 Z M18.226,12.288 C18.226,13.788 18.264,15.038 17.508,16.37 C16.896,17.458 15.926,18.12 14.846,18.12 C13.372,18.12 12.508,16.994 12.508,15.332 C12.508,12.05 15.452,11.456 18.234,11.456 L18.234,12.288 L18.226,12.288 Z" id="Shape"></path>
        </g>
    </g>
</svg>