<?xml version="1.0" encoding="UTF-8"?>
<svg width="28px" height="32px" viewBox="0 0 28 32" version="1.1" xmlns="http://www.w3.org/2000/svg" xmlns:xlink="http://www.w3.org/1999/xlink">
    <title>android</title>
    <g id="Page-1" stroke="none" stroke-width="1" fill="none" fill-rule="evenodd">
        <g id="449-android" fill="#000000" fill-rule="nonzero">
            <path d="M26,12 C24.9,12 24,12.9 24,14 L24,22 C24,23.1 24.9,24 26,24 C27.1,24 28,23.1 28,22 L28,14 C28,12.9 27.1,12 26,12 Z M2,12 C0.9,12 0,12.9 0,14 L0,22 C0,23.1 0.9,24 2,24 C3.1,24 4,23.1 4,22 L4,14 C4,12.9 3.1,12 2,12 Z M5,23 C5,24.656 6.344,26 8,26 L8,26 L8,30 C8,31.1 8.9,32 10,32 C11.1,32 12,31.1 12,30 L12,26 L16,26 L16,30 C16,31.1 16.9,32 18,32 C19.1,32 20,31.1 20,30 L20,26 C21.656,26 23,24.656 23,23 L23,12 L5,12 L5,23 Z" id="Shape"></path>
            <path d="M22.944,10 C22.64,7.254 21.1,4.882 18.894,3.448 L19.894,1.446 C20.14,0.952 19.94,0.352 19.446,0.104 C18.952,-0.144 18.352,0.058 18.104,0.552 L17.1,2.56 L16.84,2.456 C15.948,2.16 14.992,1.998 14,1.998 C13.008,1.998 12.052,2.16 11.16,2.456 L10.9,2.56 L9.896,0.552 C9.65,0.058 9.048,-0.142 8.554,0.104 C8.06,0.35 7.86,0.952 8.106,1.446 L9.106,3.448 C6.9,4.88 5.36,7.254 5.056,10 L5.056,11 L23,11 L23,10 L22.944,10 L22.944,10 Z M11,8 C10.448,8 10,7.552 10,7 C10,6.448 10.446,6.002 10.998,6 C10.998,6 11,6 11,6 C11,6 11.002,6 11.002,6 C11.554,6.002 12,6.448 12,7 C12,7.552 11.552,8 11,8 Z M17,8 C16.448,8 16,7.552 16,7 C16,6.448 16.446,6.002 16.998,6 C16.998,6 17,6 17,6 C17,6 17.002,6 17.004,6 C17.556,6.002 18.002,6.448 18.002,7 C18.002,7.552 17.554,8 17.002,8 L17,8 Z" id="Shape"></path>
        </g>
    </g>
</svg>