<?xml version="1.0" encoding="UTF-8"?>
<svg width="32px" height="32px" viewBox="0 0 32 32" version="1.1" xmlns="http://www.w3.org/2000/svg" xmlns:xlink="http://www.w3.org/1999/xlink">
    <title>angry</title>
    <g id="Page-1" stroke="none" stroke-width="1" fill="none" fill-rule="evenodd">
        <g id="238-angry" fill="#000000" fill-rule="nonzero">
            <path d="M16,32 C24.836,32 32,24.836 32,16 C32,7.164 24.836,0 16,0 C7.164,0 0,7.164 0,16 C0,24.836 7.164,32 16,32 Z M16,3 C23.18,3 29,8.82 29,16 C29,23.18 23.18,29 16,29 C8.82,29 3,23.18 3,16 C3,8.82 8.82,3 16,3 Z M22.004,24.398 C20.78,22.362 18.55,21 16,21 C13.45,21 11.222,22.362 9.996,24.398 L7.424,22.854 C9.172,19.946 12.358,18 16,18 C19.642,18 22.828,19.946 24.576,22.854 L22.004,24.398 Z M23.97,8.758 C24.104,9.294 23.778,9.836 23.242,9.97 C22.692,10.11 22.038,10.348 21.462,10.638 C21.794,10.996 21.998,11.474 21.998,12 C21.998,13.104 21.102,14 19.998,14 C18.894,14 17.998,13.104 17.998,12 C17.998,11.964 18,11.928 18.002,11.892 C18.066,10.41 19.414,9.424 20.552,8.856 C21.638,8.314 22.712,8.042 22.756,8.03 C23.292,7.896 23.834,8.222 23.968,8.758 L23.97,8.758 Z M8.03,8.758 C8.164,8.222 8.706,7.896 9.242,8.03 C9.288,8.042 10.36,8.312 11.446,8.856 C12.582,9.424 13.932,10.408 13.996,11.892 C13.998,11.928 14,11.964 14,12 C14,13.104 13.104,14 12,14 C10.896,14 10,13.104 10,12 C10,11.474 10.204,10.994 10.536,10.638 C9.96,10.35 9.308,10.11 8.756,9.97 C8.22,9.836 7.894,9.294 8.028,8.758 L8.03,8.758 Z" id="Shape"></path>
        </g>
    </g>
</svg>