<?xml version="1.0" encoding="UTF-8"?>
<svg width="28px" height="32px" viewBox="0 0 28 32" version="1.1" xmlns="http://www.w3.org/2000/svg" xmlns:xlink="http://www.w3.org/1999/xlink">
    <title>appleinc</title>
    <g id="Page-1" stroke="none" stroke-width="1" fill="none" fill-rule="evenodd">
        <g id="447-appleinc" fill="#000000" fill-rule="nonzero">
            <path d="M22.734,17.002 C22.694,12.95 26.038,11.006 26.188,10.91 C24.308,8.16 21.38,7.782 20.336,7.74 C17.844,7.488 15.474,9.208 14.208,9.208 C12.946,9.208 10.994,7.778 8.928,7.816 C6.212,7.856 3.708,9.396 2.308,11.828 C-0.514,16.724 1.586,23.98 4.336,27.95 C5.68,29.894 7.282,32.078 9.386,32 C11.412,31.92 12.178,30.688 14.628,30.688 C17.078,30.688 17.766,32 19.91,31.958 C22.09,31.918 23.472,29.976 24.806,28.026 C26.35,25.77 26.984,23.588 27.022,23.476 C26.974,23.454 22.77,21.844 22.728,17.004 L22.734,17.002 Z M18.706,5.11 C19.822,3.756 20.576,1.876 20.37,0 C18.762,0.066 16.812,1.072 15.658,2.424 C14.622,3.624 13.716,5.538 13.958,7.376 C15.754,7.516 17.588,6.464 18.704,5.112 L18.706,5.11 Z" id="Shape"></path>
        </g>
    </g>
</svg>