<?xml version="1.0" encoding="UTF-8"?>
<svg width="24px" height="28px" viewBox="0 0 24 28" version="1.1" xmlns="http://www.w3.org/2000/svg" xmlns:xlink="http://www.w3.org/1999/xlink">
    <title>arrow_down2</title>
    <g id="Page-1" stroke="none" stroke-width="1" fill="none" fill-rule="evenodd">
        <g id="319-arrow-down2" fill="#000000" fill-rule="nonzero">
            <path d="M23.414,17.414 L13.414,27.414 C12.634,28.196 11.366,28.196 10.586,27.414 L0.586,17.414 C-0.196,16.632 -0.196,15.366 0.586,14.586 C1.368,13.806 2.634,13.804 3.414,14.586 L10,21.172 L10,2 C10,0.896 10.896,3.55271368e-15 12,3.55271368e-15 C13.104,3.55271368e-15 14,0.896 14,2 L14,21.172 L20.586,14.586 C20.976,14.196 21.488,14 22,14 C22.512,14 23.024,14.196 23.414,14.586 C24.196,15.368 24.196,16.634 23.414,17.414 Z" id="Path"></path>
        </g>
    </g>
</svg>