<?xml version="1.0" encoding="UTF-8"?>
<svg width="24px" height="24px" viewBox="0 0 24 24" version="1.1" xmlns="http://www.w3.org/2000/svg" xmlns:xlink="http://www.w3.org/1999/xlink">
    <title>arrow_down_right2</title>
    <g id="Page-1" stroke="none" stroke-width="1" fill="none" fill-rule="evenodd">
        <g id="318-arrow-down-right2" fill="#000000" fill-rule="nonzero">
            <path d="M0.586,3.414 L17.172,20 L10,20 C8.896,20 8,20.896 8,22 C8,23.104 8.896,24 10,24 L22,24 C22.808,24 23.538,23.512 23.848,22.766 C23.95,22.518 24,22.258 24,22 L24.002,22 L24.002,10 C24.002,8.896 23.106,8 22.002,8 C20.898,8 20.002,8.896 20.002,10 L20.002,17.172 L3.416,0.586 C3.026,0.196 2.514,1.77635684e-15 2.002,1.77635684e-15 C1.49,1.77635684e-15 0.978,0.196 0.588,0.586 C-0.194,1.366 -0.194,2.634 0.588,3.414 L0.586,3.414 Z" id="Path"></path>
        </g>
    </g>
</svg>