<?xml version="1.0" encoding="UTF-8"?>
<svg width="28px" height="24px" viewBox="0 0 28 24" version="1.1" xmlns="http://www.w3.org/2000/svg" xmlns:xlink="http://www.w3.org/1999/xlink">
    <title>arrow_left2</title>
    <g id="Page-1" stroke="none" stroke-width="1" fill="none" fill-rule="evenodd">
        <g id="321-arrow-left2" fill="#000000" fill-rule="nonzero">
            <path d="M10.586,23.414 L0.586,13.414 C-0.196,12.634 -0.196,11.366 0.586,10.586 L10.586,0.586 C11.368,-0.196 12.634,-0.196 13.414,0.586 C14.194,1.368 14.196,2.634 13.414,3.414 L6.828,10 L26,10 C27.104,10 28,10.896 28,12 C28,13.104 27.104,14 26,14 L6.828,14 L13.414,20.586 C13.804,20.976 14,21.488 14,22 C14,22.512 13.804,23.024 13.414,23.414 C12.632,24.196 11.366,24.196 10.586,23.414 Z" id="Path"></path>
        </g>
    </g>
</svg>