<?xml version="1.0" encoding="UTF-8"?>
<svg width="28px" height="32px" viewBox="0 0 28 32" version="1.1" xmlns="http://www.w3.org/2000/svg" xmlns:xlink="http://www.w3.org/1999/xlink">
    <title>attachment</title>
    <g id="Page-1" stroke="none" stroke-width="1" fill="none" fill-rule="evenodd">
        <g id="206-attachment" fill="#000000" fill-rule="nonzero">
            <path d="M19.808,10.22 L17.778,8.192 L7.628,18.34 C5.946,20.022 5.946,22.748 7.628,24.428 C9.31,26.108 12.036,26.11 13.718,24.428 L25.898,12.25 C28.702,9.448 28.702,4.904 25.898,2.102 C23.094,-0.7 18.55,-0.702 15.748,2.102 L2.96,14.888 C2.95,14.898 2.94,14.906 2.932,14.914 C-0.978,18.824 -0.978,25.16 2.932,29.068 C6.842,32.976 13.178,32.976 17.088,29.068 C17.096,29.06 17.104,29.05 17.114,29.04 L17.116,29.042 L25.846,20.314 L23.816,18.286 L15.086,27.012 C15.076,27.02 15.068,27.03 15.06,27.038 C12.276,29.822 7.748,29.822 4.964,27.038 C2.18,24.254 2.18,19.728 4.964,16.944 C4.974,16.934 4.982,16.926 4.992,16.918 L4.99,16.916 L17.78,4.13 C19.458,2.45 22.19,2.45 23.87,4.13 C25.55,5.81 25.548,8.54 23.87,10.218 L11.69,22.396 C11.13,22.956 10.22,22.956 9.66,22.396 C9.1,21.836 9.1,20.926 9.66,20.368 L19.81,10.218 L19.808,10.22 Z" id="Path"></path>
        </g>
    </g>
</svg>