<?xml version="1.0" encoding="UTF-8"?>
<svg width="32px" height="32px" viewBox="0 0 32 32" version="1.1" xmlns="http://www.w3.org/2000/svg" xmlns:xlink="http://www.w3.org/1999/xlink">
    <title>baffled</title>
    <g id="Page-1" stroke="none" stroke-width="1" fill="none" fill-rule="evenodd">
        <g id="244-baffled" fill="#000000" fill-rule="nonzero">
            <path d="M16,32 C24.836,32 32,24.836 32,16 C32,7.164 24.836,0 16,0 C7.164,0 0,7.164 0,16 C0,24.836 7.164,32 16,32 Z M16,3 C23.18,3 29,8.82 29,16 C29,23.18 23.18,29 16,29 C8.82,29 3,23.18 3,16 C3,8.82 8.82,3 16,3 Z" id="Shape"></path>
            <path d="M12,13 C12,13.552 11.552,14 11,14 C10.448,14 10,13.552 10,13 C10,12.448 10.448,12 11,12 C11.552,12 12,12.448 12,13 Z" id="Path"></path>
            <path d="M11,10 C12.656,10 14,11.344 14,13 C14,14.656 12.656,16 11,16 C9.344,16 8,14.656 8,13 C8,11.344 9.344,10 11,10 Z M11,8 C8.244,8 6,10.244 6,13 C6,15.756 8.244,18 11,18 C13.756,18 16,15.756 16,13 C16,10.244 13.756,8 11,8 L11,8 Z" id="Shape"></path>
            <path d="M22,13 C22,13.552 21.552,14 21,14 C20.448,14 20,13.552 20,13 C20,12.448 20.448,12 21,12 C21.552,12 22,12.448 22,13 Z" id="Path"></path>
            <path d="M21,10 C22.656,10 24,11.344 24,13 C24,14.656 22.656,16 21,16 C19.344,16 18,14.656 18,13 C18,11.344 19.344,10 21,10 Z M21,8 C18.242,8 16,10.244 16,13 C16,15.756 18.242,18 21,18 C23.758,18 26,15.756 26,13 C26,10.244 23.758,8 21,8 L21,8 Z" id="Shape"></path>
            <polygon id="Path" points="12 22 20 22 20 24 12 24"></polygon>
        </g>
    </g>
</svg>