<?xml version="1.0" encoding="UTF-8"?>
<svg width="32px" height="24px" viewBox="0 0 32 24" version="1.1" xmlns="http://www.w3.org/2000/svg" xmlns:xlink="http://www.w3.org/1999/xlink">
    <title>barcode</title>
    <g id="Page-1" stroke="none" stroke-width="1" fill="none" fill-rule="evenodd">
        <g id="056-barcode" fill="#000000" fill-rule="nonzero">
            <path d="M0,0 L4,0 L4,20 L0,20 L0,0 Z M6,0 L8,0 L8,20 L6,20 L6,0 Z M10,0 L12,0 L12,20 L10,20 L10,0 Z M16,0 L18,0 L18,20 L16,20 L16,0 Z M24,0 L26,0 L26,20 L24,20 L24,0 Z M30,0 L32,0 L32,20 L30,20 L30,0 Z M20,0 L21,0 L21,20 L20,20 L20,0 Z M14,0 L15,0 L15,20 L14,20 L14,0 Z M27,0 L28,0 L28,20 L27,20 L27,0 Z M0,22 L2,22 L2,24 L0,24 L0,22 Z M6,22 L8,22 L8,24 L6,24 L6,22 Z M10,22 L12,22 L12,24 L10,24 L10,22 Z M20,22 L22,22 L22,24 L20,24 L20,22 Z M30,22 L32,22 L32,24 L30,24 L30,22 Z M24,22 L28,22 L28,24 L24,24 L24,22 Z M14,22 L18,22 L18,24 L14,24 L14,22 Z" id="Shape"></path>
        </g>
    </g>
</svg>