<?xml version="1.0" encoding="UTF-8"?>
<svg width="32px" height="27px" viewBox="0 0 32 27" version="1.1" xmlns="http://www.w3.org/2000/svg" xmlns:xlink="http://www.w3.org/1999/xlink">
    <title>basecamp</title>
    <g id="Page-1" stroke="none" stroke-width="1" fill="none" fill-rule="evenodd">
        <g id="435-basecamp" fill="#000000" fill-rule="nonzero">
            <path d="M16,0.332 C10.162,0.332 5.662,5.22 3.112,10.008 C1.674,12.702 0.668,15.652 0.206,18.67 C0.156,19.014 0.106,19.358 0.068,19.708 C0.05,19.896 0.03,20.084 0.018,20.27 C-2.16859516e-13,20.508 0.012,20.582 0.136,20.782 C0.51,21.388 0.954,21.95 1.454,22.458 C2.478,23.508 3.722,24.314 5.042,24.94 C8.048,26.358 11.442,26.872 14.742,26.984 C18.148,27.096 21.648,26.816 24.904,25.752 C27.686,24.846 30.366,23.264 31.91,20.708 C32.078,20.434 31.96,20.026 31.928,19.708 C31.89,19.326 31.84,18.952 31.778,18.576 C31.666,17.838 31.516,17.114 31.334,16.388 C30.972,14.912 30.478,13.462 29.878,12.07 C27.702,7.02 23.678,1.632 17.952,0.52 C17.308,0.394 16.652,0.332 15.996,0.332 L16,0.332 Z M16.2,24.818 C12.632,24.818 8.744,24.5 5.532,22.78 C4.282,22.112 3.008,21.142 2.406,19.812 C2.232,19.424 2.294,19.274 2.374,18.818 C2.43,18.524 2.456,18.236 2.586,17.962 C2.768,17.58 2.954,17.206 3.148,16.83 C3.804,15.562 4.51,14.306 5.33,13.124 C5.736,12.542 6.168,11.968 6.668,11.468 C7.018,11.118 7.444,10.744 7.936,10.624 C9.448,10.262 10.604,12.012 11.524,12.892 C11.968,13.318 12.562,13.798 13.224,13.716 C13.68,13.66 14.086,13.304 14.412,13.01 C15.518,12.016 16.406,10.786 17.324,9.628 C17.78,9.06 18.23,8.484 18.724,7.94 C19.056,7.572 19.418,7.152 19.862,6.914 C20.656,6.482 21.668,7.37 22.218,7.826 C23.156,8.608 23.986,9.52 24.78,10.444 C25.536,11.326 26.268,12.22 26.912,13.188 C27.906,14.688 28.768,16.288 29.556,17.906 C29.724,18.256 29.782,18.494 29.844,18.882 C29.882,19.094 29.962,19.338 29.932,19.558 C29.888,19.864 29.676,20.196 29.52,20.446 C29.144,21.04 28.638,21.552 28.082,21.984 C25.75,23.79 22.594,24.39 19.726,24.66 C18.55,24.772 17.376,24.816 16.202,24.816 L16.2,24.818 Z" id="Shape"></path>
        </g>
    </g>
</svg>