<?xml version="1.0" encoding="UTF-8"?>
<svg width="33px" height="21px" viewBox="0 0 33 21" version="1.1" xmlns="http://www.w3.org/2000/svg" xmlns:xlink="http://www.w3.org/1999/xlink">
    <title>behance</title>
    <g id="Page-1" stroke="none" stroke-width="1" fill="none" fill-rule="evenodd">
        <g id="425-behance" fill="#000000" fill-rule="nonzero">
            <path d="M9.282,0.412 C10.226,0.412 11.076,0.494 11.85,0.662 C12.626,0.824 13.282,1.1 13.838,1.474 C14.388,1.85 14.812,2.35 15.126,2.974 C15.426,3.592 15.576,4.368 15.576,5.286 C15.576,6.28 15.352,7.104 14.9,7.768 C14.444,8.43 13.782,8.968 12.894,9.394 C14.106,9.744 15,10.356 15.6,11.226 C16.2,12.102 16.488,13.152 16.488,14.388 C16.488,15.388 16.294,16.244 15.914,16.97 C15.526,17.702 15.002,18.294 14.358,18.752 C13.708,19.214 12.958,19.552 12.12,19.77 C11.288,19.988 10.432,20.102 9.546,20.102 L0.002,20.102 L0.002,0.414 L9.284,0.414 L9.282,0.412 Z M8.718,8.362 C9.486,8.362 10.124,8.18 10.624,7.812 C11.124,7.45 11.362,6.85 11.362,6.024 C11.362,5.568 11.28,5.186 11.118,4.892 C10.95,4.598 10.73,4.366 10.45,4.204 C10.174,4.036 9.862,3.922 9.494,3.86 C9.138,3.792 8.762,3.76 8.382,3.76 L4.332,3.76 L4.332,8.36 L8.72,8.36 L8.718,8.362 Z M8.956,16.744 C9.382,16.744 9.788,16.706 10.168,16.618 C10.556,16.53 10.9,16.4 11.186,16.2 C11.474,16.006 11.718,15.75 11.892,15.412 C12.068,15.08 12.148,14.656 12.148,14.138 C12.148,13.126 11.86,12.4 11.292,11.962 C10.724,11.53 9.968,11.318 9.03,11.318 L4.33,11.318 L4.33,16.736 L8.956,16.736 L8.956,16.744 Z" id="Shape"></path>
            <path d="M22.662,16.676 C23.25,17.25 24.094,17.538 25.194,17.538 C25.982,17.538 26.67,17.338 27.238,16.938 C27.806,16.538 28.15,16.114 28.282,15.676 L31.732,15.676 C31.176,17.394 30.338,18.614 29.188,19.352 C28.056,20.09 26.67,20.464 25.062,20.464 C23.936,20.464 22.93,20.282 22.024,19.926 C21.118,19.564 20.362,19.058 19.724,18.394 C19.106,17.732 18.618,16.944 18.274,16.018 C17.936,15.1 17.762,14.08 17.762,12.98 C17.762,11.912 17.938,10.918 18.286,9.998 C18.642,9.072 19.13,8.28 19.78,7.61 C20.43,6.94 21.192,6.41 22.092,6.022 C22.986,5.634 23.974,5.44 25.068,5.44 C26.274,5.44 27.33,5.672 28.236,6.146 C29.136,6.614 29.88,7.246 30.462,8.034 C31.044,8.822 31.456,9.728 31.712,10.74 C31.968,11.752 32.056,12.808 31.986,13.916 L21.692,13.916 C21.692,15.034 22.068,16.104 22.66,16.672 L22.662,16.676 Z M27.156,9.188 C26.694,8.676 25.9,8.394 24.944,8.394 C24.318,8.394 23.8,8.5 23.388,8.712 C22.982,8.924 22.65,9.186 22.394,9.5 C22.144,9.812 21.968,10.15 21.87,10.506 C21.77,10.85 21.708,11.168 21.688,11.444 L28.064,11.444 C27.97,10.444 27.626,9.706 27.158,9.188 L27.156,9.188 Z" id="Shape"></path>
            <polygon id="Path" points="20.888 2 28.87 2 28.87 3.944 20.888 3.944 20.888 2"></polygon>
        </g>
    </g>
</svg>