<?xml version="1.0" encoding="UTF-8"?>
<svg width="32px" height="32px" viewBox="0 0 32 32" version="1.1" xmlns="http://www.w3.org/2000/svg" xmlns:xlink="http://www.w3.org/1999/xlink">
    <title>behance2</title>
    <g id="Page-1" stroke="none" stroke-width="1" fill="none" fill-rule="evenodd">
        <g id="426-behance2" fill="#000000" fill-rule="nonzero">
            <path d="M12.632,14.018 C13.038,13.724 13.232,13.236 13.232,12.562 C13.232,12.186 13.17,11.88 13.038,11.644 C12.9,11.406 12.726,11.218 12.494,11.088 C12.27,10.95 12.012,10.856 11.718,10.806 C11.43,10.75 11.124,10.724 10.812,10.724 L7.518,10.724 L7.518,14.462 L11.08,14.462 C11.706,14.468 12.224,14.318 12.63,14.018 L12.632,14.018 Z" id="Path"></path>
            <path d="M13.188,17.394 C12.726,17.044 12.114,16.87 11.35,16.87 L7.518,16.87 L7.518,21.276 L11.274,21.276 C11.624,21.276 11.95,21.244 12.262,21.176 C12.574,21.108 12.856,21 13.094,20.838 C13.332,20.682 13.526,20.47 13.668,20.2 C13.81,19.93 13.88,19.582 13.88,19.162 C13.88,18.338 13.648,17.75 13.186,17.394 L13.188,17.394 Z" id="Path"></path>
            <path d="M29,0 L3,0 C1.35,0 0,1.35 0,3 L0,29 C0,30.65 1.35,32 3,32 L29,32 C30.65,32 32,30.65 32,29 L32,3 C32,1.35 30.65,0 29,0 Z M20.976,8.418 L27.458,8.418 L27.458,10 L20.976,10 L20.976,8.418 Z M16.926,21.45 C16.614,22.044 16.188,22.524 15.664,22.9 C15.132,23.276 14.526,23.55 13.846,23.732 C13.17,23.914 12.47,24 11.758,24 L4.002,24 L4.002,8.006 L11.54,8.006 C12.302,8.006 12.996,8.074 13.628,8.206 C14.254,8.338 14.79,8.562 15.24,8.868 C15.684,9.174 16.034,9.58 16.284,10.086 C16.528,10.586 16.652,11.218 16.652,11.962 C16.652,12.768 16.47,13.436 16.102,13.974 C15.734,14.512 15.196,14.948 14.47,15.292 C15.458,15.574 16.182,16.074 16.664,16.78 C17.152,17.492 17.39,18.348 17.39,19.348 C17.396,20.166 17.24,20.866 16.928,21.448 L16.926,21.45 Z M29.982,18.976 L21.626,18.976 C21.626,19.888 21.938,20.758 22.414,21.226 C22.89,21.688 23.576,21.926 24.47,21.926 C25.114,21.926 25.664,21.764 26.132,21.438 C26.594,21.114 26.876,20.77 26.982,20.414 L29.782,20.414 C29.332,21.808 28.65,22.802 27.72,23.402 C26.802,24.002 25.676,24.302 24.37,24.302 C23.458,24.302 22.638,24.152 21.902,23.864 C21.164,23.57 20.552,23.158 20.034,22.62 C19.528,22.082 19.14,21.438 18.858,20.688 C18.584,19.944 18.44,19.114 18.44,18.22 C18.44,17.352 18.584,16.544 18.866,15.794 C19.154,15.044 19.554,14.394 20.078,13.856 C20.602,13.312 21.228,12.882 21.954,12.562 C22.68,12.25 23.478,12.094 24.366,12.094 C25.348,12.094 26.204,12.282 26.94,12.668 C27.672,13.05 28.272,13.562 28.746,14.206 C29.22,14.85 29.552,15.582 29.764,16.406 C29.97,17.218 30.038,18.074 29.982,18.974 L29.982,18.976 Z" id="Shape"></path>
            <path d="M24.268,14.494 C23.762,14.494 23.336,14.582 23.006,14.756 C22.676,14.93 22.406,15.144 22.2,15.394 C21.994,15.65 21.856,15.92 21.774,16.212 C21.692,16.494 21.642,16.75 21.63,16.974 L26.806,16.974 C26.732,16.162 26.45,15.562 26.074,15.142 C25.686,14.716 25.05,14.492 24.268,14.492 L24.268,14.494 Z" id="Path"></path>
        </g>
    </g>
</svg>