<?xml version="1.0" encoding="UTF-8"?>
<svg width="33px" height="32px" viewBox="0 0 33 32" version="1.1" xmlns="http://www.w3.org/2000/svg" xmlns:xlink="http://www.w3.org/1999/xlink">
    <title>bell</title>
    <g id="Page-1" stroke="none" stroke-width="1" fill="none" fill-rule="evenodd">
        <g id="082-bell" fill="#000000" fill-rule="nonzero">
            <path d="M32.046,25 C32.046,16 24.046,18 24.046,11 C24.046,10.42 23.99,9.924 23.888,9.502 C23.362,5.97 21.008,3.136 17.958,2.272 C17.986,2.148 18,2.022 18,1.89 C18,0.85 17.1,2.22044605e-16 16,2.22044605e-16 C14.9,2.22044605e-16 14,0.85 14,1.89 C14,2.02 14.014,2.148 14.042,2.272 C10.622,3.24 8.076,6.688 8.002,10.818 C8,10.878 8,10.938 8,11 C8,18 -8.8817842e-16,16 -8.8817842e-16,25 C-8.8817842e-16,27.382 5.33,29.374 12.468,29.878 C13.14,31.14 14.47,32 16,32 C17.53,32 18.86,31.14 19.532,29.878 C26.668,29.376 32,27.382 32,25 C32,24.992 32,24.986 32,24.978 L32.048,25 L32.046,25 Z M25.82,26.69 C24.126,27.142 22.128,27.468 19.984,27.648 C19.806,25.604 18.09,24 16,24 C13.91,24 12.194,25.604 12.016,27.648 C9.872,27.468 7.874,27.142 6.18,26.69 C3.848,26.068 2.732,25.372 2.324,25 C2.732,24.628 3.848,23.932 6.18,23.31 C8.892,22.586 12.38,22.188 16,22.188 C19.62,22.188 23.108,22.586 25.82,23.31 C28.152,23.932 29.268,24.628 29.676,25 C29.268,25.372 28.152,26.068 25.82,26.69 Z" id="Shape"></path>
        </g>
    </g>
</svg>