<?xml version="1.0" encoding="UTF-8"?>
<svg width="32px" height="32px" viewBox="0 0 32 32" version="1.1" xmlns="http://www.w3.org/2000/svg" xmlns:xlink="http://www.w3.org/1999/xlink">
    <title>binoculars</title>
    <g id="Page-1" stroke="none" stroke-width="1" fill="none" fill-rule="evenodd">
        <g id="134-binoculars" fill="#000000" fill-rule="nonzero">
            <path d="M2,0 L14,0 L14,2 L2,2 L2,0 Z M18,0 L30,0 L30,2 L18,2 L18,0 Z M29.75,10 L28,10 L28,2 L20,2 L20,10 L12,10 L12,2 L4,2 L4,10 L2.25,10 C1.012,10 0,11.012 0,12.25 L0,29.75 C0,30.988 1.012,32 2.25,32 L11.75,32 C12.988,32 14,30.988 14,29.75 L14,18 L18,18 L18,29.75 C18,30.988 19.012,32 20.25,32 L29.75,32 C30.988,32 32,30.988 32,29.75 L32,12.25 C32,11.012 30.988,10 29.75,10 Z M10.876,30 L3.126,30 C2.508,30 2,29.55 2,29 C2,28.45 2.506,28 3.126,28 L10.876,28 C11.494,28 12.002,28.45 12.002,29 C12.002,29.55 11.496,30 10.876,30 Z M17,16 L15,16 C14.45,16 14,15.55 14,15 C14,14.45 14.45,14 15,14 L17,14 C17.55,14 18,14.45 18,15 C18,15.55 17.55,16 17,16 Z M28.876,30 L21.126,30 C20.508,30 20,29.55 20,29 C20,28.45 20.506,28 21.126,28 L28.876,28 C29.494,28 30.002,28.45 30.002,29 C30.002,29.55 29.496,30 28.876,30 Z" id="Shape"></path>
        </g>
    </g>
</svg>