<?xml version="1.0" encoding="UTF-8"?>
<svg width="32px" height="32px" viewBox="0 0 32 32" version="1.1" xmlns="http://www.w3.org/2000/svg" xmlns:xlink="http://www.w3.org/1999/xlink">
    <title>blocked</title>
    <g id="Page-1" stroke="none" stroke-width="1" fill="none" fill-rule="evenodd">
        <g id="271-blocked" fill="#000000" fill-rule="nonzero">
            <path d="M27.314,4.686 C24.292,1.664 20.274,0 16,0 C11.726,0 7.708,1.664 4.686,4.686 C1.664,7.708 0,11.726 0,16 C0,20.274 1.664,24.292 4.686,27.314 C7.708,30.336 11.726,32 16,32 C20.274,32 24.292,30.336 27.314,27.314 C30.336,24.292 32,20.274 32,16 C32,11.726 30.336,7.708 27.314,4.686 Z M28,16 C28,18.588 27.176,20.988 25.778,22.95 L9.05,6.222 C11.012,4.824 13.412,4 16,4 C22.616,4 28,9.384 28,16 L28,16 Z M4,16 C4,13.412 4.824,11.012 6.222,9.05 L22.95,25.778 C20.988,27.176 18.588,28 16,28 C9.384,28 4,22.616 4,16 L4,16 Z" id="Shape"></path>
        </g>
    </g>
</svg>