<?xml version="1.0" encoding="UTF-8"?>
<svg width="32px" height="32px" viewBox="0 0 32 32" version="1.1" xmlns="http://www.w3.org/2000/svg" xmlns:xlink="http://www.w3.org/1999/xlink">
    <title>blog</title>
    <g id="Page-1" stroke="none" stroke-width="1" fill="none" fill-rule="evenodd">
        <g id="010-blog" fill="#000000" fill-rule="nonzero">
            <path d="M12,0 L12,3 C14.296,3 16.522,3.45 18.616,4.334 C20.64,5.19 22.458,6.416 24.02,7.978 C25.582,9.54 26.808,11.358 27.664,13.382 C28.55,15.476 28.998,17.702 28.998,19.998 L31.998,19.998 C31.998,8.952 23.044,-0.002 11.998,-0.002 L12,0 Z" id="Path"></path>
            <path d="M12,6 L12,9 C14.938,9 17.7,10.144 19.778,12.222 C21.856,14.3 23,17.062 23,20 L26,20 C26,12.268 19.732,6 12,6 Z" id="Path"></path>
            <path d="M15,12 L13,14 L6,16 L0,29 L0.792,29.792 L8.068,22.516 C8.024,22.35 8,22.178 8,21.998 C8,20.894 8.896,19.998 10,19.998 C11.104,19.998 12,20.894 12,21.998 C12,23.102 11.104,23.998 10,23.998 C9.82,23.998 9.648,23.974 9.482,23.93 L2.206,31.206 L2.998,31.998 L15.998,25.998 L17.998,18.998 L19.998,16.998 L14.998,11.998 L15,12 Z" id="Path"></path>
        </g>
    </g>
</svg>