<?xml version="1.0" encoding="UTF-8"?>
<svg width="32px" height="32px" viewBox="0 0 32 32" version="1.1" xmlns="http://www.w3.org/2000/svg" xmlns:xlink="http://www.w3.org/1999/xlink">
    <title>blogger2</title>
    <g id="Page-1" stroke="none" stroke-width="1" fill="none" fill-rule="evenodd">
        <g id="441-blogger2" fill="#000000" fill-rule="nonzero">
            <path d="M29,0 L3,0 C1.35,0 0,1.35 0,3 L0,29 C0,30.65 1.35,32 3,32 L29,32 C30.65,32 32,30.65 32,29 L32,3 C32,1.35 30.65,0 29,0 Z M28,20.25 C28,24.532 24.518,28 20.206,28 L11.806,28 C7.494,28 4,24.532 4,20.25 L4,11.75 C4,7.468 7.494,4 11.806,4 L15.738,4 C20.05,4 23.5,7.218 23.5,11.5 C23.556,12.3 24.282,13 25.1,13 L26.444,13 C27.306,13 27.994,13.906 27.994,14.762 L27.994,20.25 L28,20.25 Z" id="Shape"></path>
            <path d="M22,20 C22,21.1 21.1,22 20,22 L12,22 C10.9,22 10,21.1 10,20 L10,20 C10,18.9 10.9,18 12,18 L20,18 C21.1,18 22,18.9 22,20 L22,20 Z" id="Path"></path>
            <path d="M18,12 C18,13.1 17.1,14 16,14 L12,14 C10.9,14 10,13.1 10,12 L10,12 C10,10.9 10.9,10 12,10 L16,10 C17.1,10 18,10.9 18,12 L18,12 Z" id="Path"></path>
        </g>
    </g>
</svg>