<?xml version="1.0" encoding="UTF-8"?>
<svg width="35px" height="24px" viewBox="0 0 35 24" version="1.1" xmlns="http://www.w3.org/2000/svg" xmlns:xlink="http://www.w3.org/1999/xlink">
    <title>books</title>
    <g id="Page-1" stroke="none" stroke-width="1" fill="none" fill-rule="evenodd">
        <g id="033-books" fill="#000000" fill-rule="nonzero">
            <path d="M7,0 L1,0 C0.45,0 0,0.45 0,1 L0,23 C0,23.55 0.45,24 1,24 L7,24 C7.55,24 8,23.55 8,23 L8,1 C8,0.45 7.55,0 7,0 Z M6,6 L2,6 L2,4 L6,4 L6,6 Z" id="Shape"></path>
            <path d="M17,0 L11,0 C10.45,0 10,0.45 10,1 L10,23 C10,23.55 10.45,24 11,24 L17,24 C17.55,24 18,23.55 18,23 L18,1 C18,0.45 17.55,0 17,0 Z M16,6 L12,6 L12,4 L16,4 L16,6 Z" id="Shape"></path>
            <path d="M23.908,1.546 L18.55,4.246 C18.058,4.494 17.86,5.098 18.106,5.588 L27.106,23.448 C27.354,23.94 27.958,24.138 28.448,23.892 L33.806,21.192 C34.298,20.944 34.496,20.34 34.25,19.85 L25.25,1.99 C25.002,1.498 24.398,1.3 23.908,1.546 Z" id="Path"></path>
            <path d="M29,23 C29,23.552 28.552,24 28,24 C27.448,24 27,23.552 27,23 C27,22.448 27.448,22 28,22 C28.552,22 29,22.448 29,23 Z" id="Path"></path>
        </g>
    </g>
</svg>