<?xml version="1.0" encoding="UTF-8"?>
<svg width="28px" height="32px" viewBox="0 0 28 32" version="1.1" xmlns="http://www.w3.org/2000/svg" xmlns:xlink="http://www.w3.org/1999/xlink">
    <title>book</title>
    <g id="Page-1" stroke="none" stroke-width="1" fill="none" fill-rule="evenodd">
        <g id="032-book" fill="#000000" fill-rule="nonzero">
            <path d="M26,4 L26,30 L5,30 C3.342,30 2,28.656 2,27 C2,25.344 3.342,24 5,24 L24,24 L24,0 L4,0 C1.8,0 0,1.8 0,4 L0,28 C0,30.2 1.8,32 4,32 L28,32 L28,4 L26,4 Z" id="Path"></path>
            <path d="M5.002,26 L5.002,26 C5.002,26 5,26 5,26 C4.448,26 4,26.448 4,27 C4,27.552 4.448,28 5,28 C5,28 5.002,28 5.002,28 L5.002,28 L23.998,28 L23.998,26 L5.002,26 Z" id="Path"></path>
        </g>
    </g>
</svg>