<?xml version="1.0" encoding="UTF-8"?>
<svg width="32px" height="30px" viewBox="0 0 32 30" version="1.1" xmlns="http://www.w3.org/2000/svg" xmlns:xlink="http://www.w3.org/1999/xlink">
    <title>bubble2</title>
    <g id="Page-1" stroke="none" stroke-width="1" fill="none" fill-rule="evenodd">
        <g id="111-bubble2" fill="#000000" fill-rule="nonzero">
            <path d="M16,4 C14.284,4 12.626,4.27 11.072,4.804 C9.612,5.306 8.312,6.014 7.208,6.912 C5.138,8.594 4,10.756 4,13 C4,14.26 4.35,15.48 5.04,16.63 C5.752,17.814 6.82,18.898 8.134,19.762 C9.082,20.386 9.72,21.386 9.89,22.508 C9.946,22.882 9.982,23.26 9.996,23.636 C10.23,23.442 10.456,23.234 10.68,23.012 C11.434,22.258 12.454,21.84 13.508,21.84 C13.676,21.84 13.844,21.85 14.012,21.872 C14.668,21.956 15.336,21.998 16.002,21.998 C17.718,21.998 19.376,21.728 20.93,21.194 C22.39,20.692 23.69,19.984 24.794,19.086 C26.864,17.404 28.002,15.242 28.002,12.998 C28.002,10.754 26.862,8.592 24.794,6.91 C23.69,6.014 22.39,5.304 20.93,4.802 C19.376,4.268 17.718,3.998 16.002,3.998 L16,4 Z M16,0 L16,0 C24.836,0 32,5.82 32,13 C32,20.18 24.836,26 16,26 C15.152,26 14.318,25.946 13.506,25.842 C10.07,29.278 5.966,29.896 2,29.986 L2,29.144 C4.142,28.094 6,26.184 6,24 C6,23.696 5.976,23.396 5.932,23.104 C2.314,20.72 0,17.08 0,13 C0,5.82 7.164,0 16,0 Z" id="Shape"></path>
        </g>
    </g>
</svg>