<?xml version="1.0" encoding="UTF-8"?>
<svg width="36px" height="32px" viewBox="0 0 36 32" version="1.1" xmlns="http://www.w3.org/2000/svg" xmlns:xlink="http://www.w3.org/1999/xlink">
    <title>bubbles2</title>
    <g id="Page-1" stroke="none" stroke-width="1" fill="none" fill-rule="evenodd">
        <g id="110-bubbles2" fill="#000000" fill-rule="nonzero">
            <path d="M15,0 L15,0 C23.284,0 30,5.434 30,12.138 C30,18.842 23.284,24.276 15,24.276 C14.204,24.276 13.424,24.226 12.662,24.128 C9.44,27.338 5.72,27.912 2,27.998 L2,27.212 C4.008,26.232 5.626,24.448 5.626,22.408 C5.626,22.124 5.604,21.844 5.562,21.57 C2.17,19.344 -2.66453526e-15,15.946 -2.66453526e-15,12.136 C-2.66453526e-15,5.432 6.716,-0.002 15,-0.002 L15,0 Z M31.126,27.208 C31.126,28.956 32.26,30.486 34.002,31.326 L34.002,32 C30.78,31.928 27.822,31.434 25.028,28.684 C24.368,28.766 23.69,28.81 23.002,28.81 C20.018,28.81 17.27,28.006 15.076,26.652 C19.598,26.636 23.866,25.188 27.102,22.568 C28.734,21.248 30.02,19.698 30.928,17.964 C31.89,16.124 32.376,14.164 32.376,12.138 C32.376,11.812 32.362,11.486 32.336,11.164 C34.604,13.036 36,15.59 36,18.404 C36,21.67 34.12,24.582 31.18,26.49 C31.144,26.724 31.126,26.964 31.126,27.208 L31.126,27.208 Z" id="Shape"></path>
        </g>
    </g>
</svg>