<?xml version="1.0" encoding="UTF-8"?>
<svg width="36px" height="32px" viewBox="0 0 36 32" version="1.1" xmlns="http://www.w3.org/2000/svg" xmlns:xlink="http://www.w3.org/1999/xlink">
    <title>bubbles3</title>
    <g id="Page-1" stroke="none" stroke-width="1" fill="none" fill-rule="evenodd">
        <g id="112-bubbles3" fill="#000000" fill-rule="nonzero">
            <path d="M34,28.162 C34,29.584 34.814,30.816 36,31.418 L36,31.916 C35.668,31.962 35.33,31.986 34.984,31.986 C32.858,31.986 30.942,31.094 29.586,29.666 C28.766,29.884 27.898,30.002 27,30.002 C22.03,30.002 18,26.42 18,22.002 C18,17.584 22.03,14.002 27,14.002 C31.97,14.002 36,17.584 36,22.002 C36,23.732 35.382,25.332 34.332,26.642 C34.118,27.106 34,27.62 34,28.164 L34,28.162 Z M7.208,6.912 C5.138,8.594 4,10.756 4,13 C4,14.26 4.35,15.48 5.04,16.63 C5.752,17.814 6.82,18.898 8.134,19.762 C9.082,20.386 9.72,21.386 9.89,22.508 C9.946,22.882 9.982,23.26 9.996,23.636 C10.23,23.442 10.456,23.234 10.68,23.012 C11.434,22.258 12.454,21.84 13.508,21.84 C13.676,21.84 13.844,21.85 14.012,21.872 C14.666,21.956 15.336,21.998 16,21.998 L16,25.998 C15.152,25.998 14.32,25.944 13.508,25.84 C10.072,29.276 5.968,29.894 2.002,29.984 L2.002,29.142 C4.144,28.092 6.002,26.182 6.002,23.998 C6.002,23.694 5.978,23.394 5.934,23.102 C2.316,20.718 0.002,17.078 0.002,12.998 C0.002,5.818 7.166,-0.002 16.002,-0.002 C24.704,-0.002 31.782,5.642 31.996,12.67 C30.712,12.098 29.314,11.75 27.862,11.652 C27.502,9.9 26.444,8.252 24.792,6.91 C23.688,6.014 22.388,5.304 20.928,4.802 C19.374,4.268 17.716,3.998 16,3.998 C14.284,3.998 12.626,4.268 11.072,4.802 C9.612,5.304 8.312,6.012 7.208,6.91 L7.208,6.912 Z" id="Shape"></path>
        </g>
    </g>
</svg>