<?xml version="1.0" encoding="UTF-8"?>
<svg width="36px" height="32px" viewBox="0 0 36 32" version="1.1" xmlns="http://www.w3.org/2000/svg" xmlns:xlink="http://www.w3.org/1999/xlink">
    <title>bubbles</title>
    <g id="Page-1" stroke="none" stroke-width="1" fill="none" fill-rule="evenodd">
        <g id="109-bubbles" fill="#000000" fill-rule="nonzero">
            <path d="M34,28.162 C34,29.584 34.814,30.816 36,31.418 L36,31.916 C35.668,31.962 35.33,31.986 34.984,31.986 C32.858,31.986 30.942,31.094 29.586,29.666 C28.766,29.884 27.898,30.002 27,30.002 C22.03,30.002 18,26.42 18,22.002 C18,17.584 22.03,14.002 27,14.002 C31.97,14.002 36,17.584 36,22.002 C36,23.732 35.382,25.332 34.332,26.642 C34.118,27.106 34,27.62 34,28.164 L34,28.162 Z M16,0 C24.702,0 31.78,5.644 31.994,12.672 C30.458,11.986 28.756,11.624 27,11.624 C24.014,11.624 21.194,12.67 19.058,14.568 C16.844,16.536 15.624,19.176 15.624,22 C15.624,23.396 15.922,24.746 16.49,25.994 C16.326,25.998 16.162,26 15.998,26 C15.15,26 14.316,25.946 13.504,25.842 C10.068,29.278 5.964,29.896 1.998,29.986 L1.998,29.144 C4.14,28.094 5.998,26.184 5.998,24 C5.998,23.696 5.974,23.396 5.93,23.104 C2.312,20.72 -0.002,17.08 -0.002,13 C-0.002,5.82 7.162,0 15.998,0 L16,0 Z" id="Shape"></path>
        </g>
    </g>
</svg>