<?xml version="1.0" encoding="UTF-8"?>
<svg width="32px" height="32px" viewBox="0 0 32 32" version="1.1" xmlns="http://www.w3.org/2000/svg" xmlns:xlink="http://www.w3.org/1999/xlink">
    <title>bug</title>
    <g id="Page-1" stroke="none" stroke-width="1" fill="none" fill-rule="evenodd">
        <g id="154-bug" fill="#000000" fill-rule="nonzero">
            <path d="M32,18 L32,16 L25.96,16 C25.776,13.728 24.966,11.656 23.72,9.992 L28.78,9.992 L30.97,1.234 L29.03,0.748 L27.22,7.99 L21.762,7.99 C21.734,7.968 21.706,7.948 21.678,7.926 C21.888,7.316 22.002,6.662 22.002,5.982 C22.002,2.676 19.316,-0.002 16.002,-0.002 C12.688,-0.002 10.002,2.678 10.002,5.982 C10.002,6.662 10.116,7.316 10.326,7.926 C10.298,7.948 10.27,7.968 10.242,7.99 L4.784,7.99 L2.974,0.748 L1.034,1.234 L3.224,9.992 L8.284,9.992 C7.038,11.656 6.228,13.728 6.044,16 L0.004,16 L0.004,18 L6.046,18 C6.164,19.426 6.53,20.776 7.098,21.992 L3.224,21.992 L1.034,30.75 L2.974,31.236 L4.784,23.994 L8.296,23.994 C10.13,26.432 12.902,27.986 16.004,27.986 C19.106,27.986 21.878,26.432 23.712,23.994 L27.224,23.994 L29.034,31.236 L30.974,30.75 L28.784,21.992 L24.91,21.992 C25.476,20.776 25.842,19.426 25.962,18 L32.004,18 L32,18 Z" id="Path"></path>
        </g>
    </g>
</svg>