<?xml version="1.0" encoding="UTF-8"?>
<svg width="32px" height="28px" viewBox="0 0 32 28" version="1.1" xmlns="http://www.w3.org/2000/svg" xmlns:xlink="http://www.w3.org/1999/xlink">
    <title>bullhorn</title>
    <g id="Page-1" stroke="none" stroke-width="1" fill="none" fill-rule="evenodd">
        <g id="027-bullhorn" fill="#000000" fill-rule="nonzero">
            <path d="M32,11.414 C32,5.136 30.162,0.04 27.892,0 C27.902,0 27.91,0 27.92,0 L25.328,0 C25.328,0 19.24,4.574 10.478,6.368 C10.21,7.784 10.04,9.47 10.04,11.414 C10.04,13.358 10.21,15.046 10.478,16.46 C19.242,18.254 25.328,22.828 25.328,22.828 L27.92,22.828 C27.91,22.828 27.902,22.828 27.892,22.826 C30.164,22.786 32,17.692 32,11.412 L32,11.414 Z M27.026,21.102 C26.732,21.102 26.416,20.798 26.252,20.616 C25.858,20.176 25.478,19.492 25.152,18.638 C24.426,16.724 24.024,14.16 24.024,11.416 C24.024,8.672 24.424,6.106 25.152,4.194 C25.476,3.338 25.858,2.654 26.252,2.214 C26.414,2.032 26.732,1.728 27.026,1.728 C27.32,1.728 27.636,2.032 27.8,2.214 C28.194,2.654 28.574,3.338 28.9,4.194 C29.626,6.108 30.028,8.672 30.028,11.416 C30.028,14.16 29.628,16.726 28.9,18.638 C28.576,19.494 28.194,20.178 27.8,20.616 C27.638,20.798 27.32,21.102 27.026,21.102 Z M7.87,11.414 C7.87,9.79 7.99,8.214 8.216,6.754 C6.736,6.958 5.436,7.076 3.83,7.076 C1.734,7.076 1.734,7.076 1.734,7.076 L-8.8817842e-16,10.034 L-8.8817842e-16,12.79 L1.734,15.748 C1.734,15.748 1.734,15.748 3.83,15.748 C5.436,15.748 6.736,15.866 8.216,16.07 C7.99,14.612 7.87,13.034 7.87,11.41 L7.87,11.414 Z M11.504,18.068 L7.504,17.302 L10.062,27.35 C10.194,27.87 10.71,28.132 11.208,27.932 L14.912,26.45 C15.41,26.25 15.61,25.702 15.356,25.228 L11.504,18.066 L11.504,18.068 Z M27.026,15.148 C26.912,15.148 26.79,15.03 26.728,14.96 C26.576,14.79 26.43,14.526 26.304,14.198 C26.024,13.46 25.87,12.472 25.87,11.414 C25.87,10.356 26.024,9.368 26.304,8.63 C26.43,8.3 26.576,8.036 26.728,7.868 C26.79,7.798 26.912,7.68 27.026,7.68 C27.14,7.68 27.262,7.798 27.324,7.868 C27.476,8.038 27.622,8.302 27.748,8.63 C28.028,9.368 28.182,10.356 28.182,11.414 C28.182,12.472 28.028,13.46 27.748,14.198 C27.622,14.528 27.476,14.792 27.324,14.96 C27.262,15.03 27.14,15.148 27.026,15.148 Z" id="Shape"></path>
        </g>
    </g>
</svg>