<?xml version="1.0" encoding="UTF-8"?>
<svg width="32px" height="30px" viewBox="0 0 32 30" version="1.1" xmlns="http://www.w3.org/2000/svg" xmlns:xlink="http://www.w3.org/1999/xlink">
    <title>cart</title>
    <g id="Page-1" stroke="none" stroke-width="1" fill="none" fill-rule="evenodd">
        <g id="059-cart" fill="#000000" fill-rule="nonzero">
            <path d="M12,27 C12,28.656 10.656,30 9,30 C7.344,30 6,28.656 6,27 C6,25.344 7.344,24 9,24 C10.656,24 12,25.344 12,27 Z" id="Path"></path>
            <path d="M32,27 C32,28.656 30.656,30 29,30 C27.344,30 26,28.656 26,27 C26,25.344 27.344,24 29,24 C30.656,24 32,25.344 32,27 Z" id="Path"></path>
            <path d="M32,14 L32,2 L8,2 C8,0.896 7.104,0 6,0 L0,0 L0,2 L4,2 L5.502,14.876 C4.586,15.61 4,16.736 4,18 C4,20.21 5.79,22 8,22 L32,22 L32,20 L8,20 C6.896,20 6,19.104 6,18 C6,17.994 6,17.986 6,17.98 L32,14 Z" id="Path"></path>
        </g>
    </g>
</svg>