<?xml version="1.0" encoding="UTF-8"?>
<svg width="32px" height="32px" viewBox="0 0 32 32" version="1.1" xmlns="http://www.w3.org/2000/svg" xmlns:xlink="http://www.w3.org/1999/xlink">
    <title>chrome</title>
    <g id="Page-1" stroke="none" stroke-width="1" fill="none" fill-rule="evenodd">
        <g id="474-chrome" fill="#000000" fill-rule="nonzero">
            <path d="M8.072,13.954 L3.492,6.022 C6.424,2.352 10.936,-0.002 16,-0.002 C21.858,-0.002 26.978,3.146 29.766,7.842 L16.71,7.842 C16.476,7.822 16.238,7.81 15.998,7.81 C12.19,7.81 8.98,10.424 8.07,13.952 L8.072,13.954 Z M21.728,10.156 L30.898,10.156 C31.608,11.966 32,13.938 32,16 C32,24.776 24.934,31.9 16.182,31.998 L22.726,20.664 C23.648,19.34 24.188,17.732 24.188,16 C24.188,13.714 23.246,11.644 21.728,10.156 Z M10.188,16 C10.188,12.794 12.796,10.188 16,10.188 C19.204,10.188 21.812,12.796 21.812,16 C21.812,19.204 19.204,21.812 16,21.812 C12.796,21.812 10.188,19.204 10.188,16 Z M18.194,23.888 L13.614,31.822 C5.91,30.67 0.002,24.024 0.002,16 C0.002,13.15 0.748,10.474 2.054,8.156 L8.586,19.47 C9.894,22.254 12.726,24.188 16,24.188 C16.76,24.188 17.494,24.084 18.194,23.89 L18.194,23.888 Z" id="Shape"></path>
        </g>
    </g>
</svg>