<?xml version="1.0" encoding="UTF-8"?>
<svg width="28px" height="32px" viewBox="0 0 28 32" version="1.1" xmlns="http://www.w3.org/2000/svg" xmlns:xlink="http://www.w3.org/1999/xlink">
    <title>clipboard</title>
    <g id="Page-1" stroke="none" stroke-width="1" fill="none" fill-rule="evenodd">
        <g id="185-clipboard" fill="#000000" fill-rule="nonzero">
            <path d="M27,4 L18,4 C18,1.79 16.21,0 14,0 C11.79,0 10,1.79 10,4 L1,4 C0.448,4 0,4.448 0,5 L0,31 C0,31.552 0.448,32 1,32 L27,32 C27.552,32 28,31.552 28,31 L28,5 C28,4.448 27.552,4 27,4 Z M14,2 C15.104,2 16,2.896 16,4 C16,5.104 15.104,6 14,6 C12.896,6 12,5.104 12,4 C12,2.896 12.896,2 14,2 Z M26,30 L2,30 L2,6 L6,6 L6,9 C6,9.552 6.448,10 7,10 L21,10 C21.552,10 22,9.552 22,9 L22,6 L26,6 L26,30 Z" id="Shape"></path>
            <polygon id="Path" points="12 26.828 5.586 19.414 7.414 17.586 12 21.172 20.586 13.586 22.414 15.414"></polygon>
        </g>
    </g>
</svg>