<?xml version="1.0" encoding="UTF-8"?>
<svg width="32px" height="26px" viewBox="0 0 32 26" version="1.1" xmlns="http://www.w3.org/2000/svg" xmlns:xlink="http://www.w3.org/1999/xlink">
    <title>cloud_upload</title>
    <g id="Page-1" stroke="none" stroke-width="1" fill="none" fill-rule="evenodd">
        <g id="196-cloud-upload" fill="#000000" fill-rule="nonzero">
            <path d="M27.884,10.078 C27.96,9.73 28,9.37 28,9 C28,6.238 25.762,4 23,4 C22.556,4 22.124,4.058 21.714,4.168 C20.94,1.75 18.674,0 16,0 C13.27,0 10.968,1.822 10.24,4.318 C9.53,4.112 8.778,4 8,4 C3.582,4 -1.77635684e-15,7.582 -1.77635684e-15,12 C-1.77635684e-15,16.418 3.582,20 8,20 L12,20 L12,26 L20,26 L20,20 L27,20 C29.762,20 32,17.762 32,15 C32,12.54 30.224,10.494 27.884,10.078 Z M18,18 L18,24 L14,24 L14,18 L9,18 L16,11 L23,18 L18,18 Z" id="Shape"></path>
        </g>
    </g>
</svg>