<?xml version="1.0" encoding="UTF-8"?>
<svg width="32px" height="18px" viewBox="0 0 32 18" version="1.1" xmlns="http://www.w3.org/2000/svg" xmlns:xlink="http://www.w3.org/1999/xlink">
    <title>cloud</title>
    <g id="Page-1" stroke="none" stroke-width="1" fill="none" fill-rule="evenodd">
        <g id="194-cloud" fill="#000000" fill-rule="nonzero">
            <path d="M32,12.548 C32,9.982 30.228,7.832 27.844,7.252 C27.742,3.23 24.454,-8.8817842e-16 20.41,-8.8817842e-16 C18.042,-8.8817842e-16 15.932,1.11 14.57,2.836 C13.806,1.848 12.61,1.212 11.266,1.212 C8.96,1.212 7.09,3.084 7.09,5.39 C7.09,5.592 7.104,5.788 7.132,5.982 C6.782,5.918 6.42,5.884 6.052,5.884 C2.708,5.884 -0.002,8.596 -0.002,11.942 C-0.002,15.288 2.708,18 6.052,18 L26.56,18 C29.564,17.994 31.998,15.556 31.998,12.548 L32,12.548 Z" id="Path"></path>
        </g>
    </g>
</svg>