<?xml version="1.0" encoding="UTF-8"?>
<svg width="32px" height="32px" viewBox="0 0 32 32" version="1.1" xmlns="http://www.w3.org/2000/svg" xmlns:xlink="http://www.w3.org/1999/xlink">
    <title>clubs</title>
    <g id="Page-1" stroke="none" stroke-width="1" fill="none" fill-rule="evenodd">
        <g id="025-clubs" fill="#000000" fill-rule="nonzero">
            <path d="M24.588,12.274 C22.744,12.274 21.086,13.042 19.906,14.296 C19.406,14.826 18.538,15.456 17.6,16.008 C18.04,14.324 19.434,12.204 20.4,11.274 C21.638,10.082 22.4,8.404 22.4,6.54 C22.4,2.95 19.542,0.036 16,-0.002 C12.458,0.036 9.6,2.948 9.6,6.54 C9.6,8.404 10.36,10.082 11.6,11.274 C12.568,12.204 13.96,14.324 14.4,16.008 C13.462,15.454 12.594,14.826 12.094,14.296 C10.914,13.042 9.256,12.274 7.412,12.274 C3.838,12.274 0.94,15.2 0.94,18.816 C0.94,22.432 3.836,25.358 7.412,25.358 C9.258,25.358 10.914,24.566 12.094,23.312 C12.62,22.754 13.546,22.058 14.54,21.48 C14.446,26.096 12.242,29.486 9.998,30.82 L9.998,32 L21.998,32 L21.998,30.82 C19.754,29.484 17.55,26.094 17.456,21.48 C18.452,22.058 19.378,22.754 19.902,23.312 C21.082,24.564 22.74,25.358 24.584,25.358 C28.158,25.358 31.056,22.43 31.056,18.816 C31.056,15.202 28.16,12.274 24.584,12.274 L24.588,12.274 Z" id="Path"></path>
        </g>
    </g>
</svg>