<?xml version="1.0" encoding="UTF-8"?>
<svg width="30px" height="30px" viewBox="0 0 30 30" version="1.1" xmlns="http://www.w3.org/2000/svg" xmlns:xlink="http://www.w3.org/1999/xlink">
    <title>codepen</title>
    <g id="Page-1" stroke="none" stroke-width="1" fill="none" fill-rule="evenodd">
        <g id="489-codepen" fill="#000000" fill-rule="nonzero">
            <path d="M29.554,9.502 L15.554,0.168 C15.218,-0.056 14.78,-0.056 14.444,0.168 L0.444,9.502 C0.166,9.688 -0.002,10 -0.002,10.334 L-0.002,19.668 C-0.002,20.002 0.166,20.314 0.444,20.5 L14.444,29.834 C14.612,29.946 14.806,30.002 14.998,30.002 C15.19,30.002 15.384,29.946 15.552,29.834 L29.552,20.5 C29.83,20.314 29.998,20.002 29.998,19.668 L29.998,10.334 C29.998,10 29.83,9.688 29.552,9.502 L29.554,9.502 Z M15,18.464 L9.802,15 L15,11.536 L20.198,15 L15,18.464 Z M16,9.798 L16,2.868 L27.198,10.332 L22,13.796 L16,9.796 L16,9.798 Z M14,9.798 L8,13.798 L2.802,10.334 L14,2.87 L14,9.8 L14,9.798 Z M6.198,15 L2,17.798 L2,12.202 L6.198,15 Z M8,16.202 L14,20.202 L14,27.132 L2.802,19.668 L8,16.204 L8,16.202 Z M16,20.202 L22,16.202 L27.198,19.666 L16,27.13 L16,20.2 L16,20.202 Z M23.802,15 L28,12.202 L28,17.798 L23.802,15 Z" id="Shape"></path>
        </g>
    </g>
</svg>