<?xml version="1.0" encoding="UTF-8"?>
<svg width="32px" height="32px" viewBox="0 0 32 32" version="1.1" xmlns="http://www.w3.org/2000/svg" xmlns:xlink="http://www.w3.org/1999/xlink">
    <title>cog</title>
    <g id="Page-1" stroke="none" stroke-width="1" fill="none" fill-rule="evenodd">
        <g id="149-cog" fill="#000000" fill-rule="nonzero">
            <path d="M29.18,19.07 C27.502,16.162 28.51,12.436 31.434,10.742 L28.29,5.296 C27.392,5.822 26.346,6.124 25.232,6.124 C21.872,6.124 19.148,3.382 19.148,1.77635684e-15 L12.858,1.77635684e-15 C12.866,1.044 12.606,2.102 12.046,3.07 C10.368,5.978 6.634,6.966 3.706,5.282 L0.562,10.728 C1.468,11.242 2.252,11.996 2.808,12.962 C4.484,15.866 3.48,19.584 0.568,21.282 L3.712,26.728 C4.608,26.206 5.646,25.908 6.756,25.908 C10.106,25.908 12.822,28.632 12.84,32 L19.13,32 C19.128,30.966 19.388,29.92 19.942,28.962 C21.618,26.058 25.342,25.068 28.268,26.742 L31.412,21.296 C30.512,20.782 29.734,20.03 29.18,19.07 Z M16,22.48 C12.422,22.48 9.52,19.58 9.52,16 C9.52,12.42 12.42,9.52 16,9.52 C19.578,9.52 22.48,12.42 22.48,16 C22.48,19.58 19.58,22.48 16,22.48 Z" id="Shape"></path>
        </g>
    </g>
</svg>