<?xml version="1.0" encoding="UTF-8"?>
<svg width="32px" height="32px" viewBox="0 0 32 32" version="1.1" xmlns="http://www.w3.org/2000/svg" xmlns:xlink="http://www.w3.org/1999/xlink">
    <title>cogs</title>
    <g id="Page-1" stroke="none" stroke-width="1" fill="none" fill-rule="evenodd">
        <g id="150-cogs" fill="#000000" fill-rule="nonzero">
            <path d="M11.366,22.564 L12.656,20.758 L11.242,19.344 L9.436,20.634 C9.1,20.446 8.742,20.298 8.366,20.19 L8,18 L6,18 L5.634,20.19 C5.258,20.296 4.898,20.446 4.564,20.634 L2.758,19.344 L1.344,20.758 L2.634,22.564 C2.446,22.9 2.298,23.258 2.19,23.634 L0,24 L0,26 L2.19,26.366 C2.296,26.742 2.446,27.102 2.634,27.436 L1.344,29.242 L2.758,30.656 L4.564,29.366 C4.9,29.554 5.258,29.702 5.634,29.81 L6,32 L8,32 L8.366,29.81 C8.742,29.704 9.102,29.554 9.436,29.366 L11.242,30.656 L12.656,29.242 L11.366,27.436 C11.554,27.1 11.702,26.742 11.81,26.366 L14,26.002 L14,24.002 L11.81,23.636 C11.704,23.26 11.554,22.9 11.366,22.566 L11.366,22.564 Z M7,27 C5.896,27 5,26.104 5,25 C5,23.896 5.896,23 7,23 C8.104,23 9,23.896 9,25 C9,26.104 8.104,27 7,27 Z M32,12 L32,10 L29.894,9.618 C29.856,9.366 29.806,9.118 29.746,8.874 L31.544,7.714 L30.778,5.866 L28.686,6.318 C28.554,6.102 28.414,5.892 28.264,5.688 L29.482,3.928 L28.068,2.514 L26.308,3.732 C26.104,3.584 25.894,3.442 25.678,3.31 L26.13,1.218 L24.282,0.452 L23.122,2.25 C22.878,2.19 22.63,2.142 22.378,2.102 L21.996,-0.004 L19.996,-0.004 L19.614,2.102 C19.362,2.14 19.114,2.19 18.87,2.25 L17.71,0.452 L15.862,1.218 L16.314,3.31 C16.098,3.442 15.888,3.582 15.684,3.732 L13.924,2.514 L12.51,3.928 L13.728,5.688 C13.58,5.892 13.438,6.102 13.306,6.318 L11.214,5.866 L10.448,7.714 L12.246,8.874 C12.186,9.118 12.138,9.366 12.098,9.618 L9.992,10 L9.992,12 L12.098,12.382 C12.136,12.634 12.186,12.882 12.246,13.126 L10.448,14.286 L11.214,16.134 L13.306,15.682 C13.438,15.898 13.578,16.108 13.728,16.312 L12.51,18.072 L13.924,19.486 L15.684,18.268 C15.888,18.416 16.098,18.558 16.314,18.69 L15.862,20.782 L17.71,21.548 L18.87,19.75 C19.114,19.81 19.362,19.858 19.614,19.898 L19.996,22.004 L21.996,22.004 L22.378,19.898 C22.63,19.86 22.878,19.81 23.122,19.75 L24.282,21.548 L26.13,20.782 L25.678,18.69 C25.894,18.558 26.104,18.418 26.308,18.268 L28.068,19.486 L29.482,18.072 L28.264,16.312 C28.412,16.108 28.554,15.898 28.686,15.682 L30.778,16.134 L31.544,14.286 L29.746,13.126 C29.806,12.882 29.854,12.634 29.894,12.382 L32,12 L32,12 Z M21,15.35 C18.598,15.35 16.65,13.402 16.65,11 C16.65,8.598 18.598,6.65 21,6.65 C23.402,6.65 25.35,8.598 25.35,11 C25.35,13.402 23.402,15.35 21,15.35 Z" id="Shape"></path>
        </g>
    </g>
</svg>