<?xml version="1.0" encoding="UTF-8"?>
<svg width="30px" height="30px" viewBox="0 0 30 30" version="1.1" xmlns="http://www.w3.org/2000/svg" xmlns:xlink="http://www.w3.org/1999/xlink">
    <title>coin_pound</title>
    <g id="Page-1" stroke="none" stroke-width="1" fill="none" fill-rule="evenodd">
        <g id="062-coin-pound" fill="#000000" fill-rule="nonzero">
            <path d="M15,0 C6.716,0 0,6.716 0,15 C0,23.284 6.716,30 15,30 C23.284,30 30,23.284 30,15 C30,6.716 23.284,0 15,0 Z M15,27 C8.372,27 3,21.628 3,15 C3,8.372 8.372,3 15,3 C21.628,3 27,8.372 27,15 C27,21.628 21.628,27 15,27 Z" id="Shape"></path>
            <path d="M19,20 L12,20 L12,16 L15,16 C15.552,16 16,15.552 16,15 C16,14.448 15.552,14 15,14 L12,14 L12,13 C12,11.346 13.346,10 15,10 C16.068,10 17.064,10.576 17.6,11.5 C17.876,11.978 18.488,12.142 18.966,11.864 C19.444,11.586 19.608,10.976 19.33,10.498 C18.438,8.956 16.778,7.998 15,7.998 C12.244,7.998 10,10.242 10,12.998 L10,13.998 L9,13.998 C8.448,13.998 8,14.446 8,14.998 C8,15.55 8.448,15.998 9,15.998 L10,15.998 L10,21.998 L19,21.998 C19.552,21.998 20,21.55 20,20.998 C20,20.446 19.552,19.998 19,19.998 L19,20 Z" id="Path"></path>
        </g>
    </g>
</svg>