<?xml version="1.0" encoding="UTF-8"?>
<svg width="30px" height="30px" viewBox="0 0 30 30" version="1.1" xmlns="http://www.w3.org/2000/svg" xmlns:xlink="http://www.w3.org/1999/xlink">
    <title>coin_euro</title>
    <g id="Page-1" stroke="none" stroke-width="1" fill="none" fill-rule="evenodd">
        <g id="061-coin-euro" fill="#000000" fill-rule="nonzero">
            <path d="M15,0 C6.716,0 0,6.716 0,15 C0,23.284 6.716,30 15,30 C23.284,30 30,23.284 30,15 C30,6.716 23.284,0 15,0 Z M15,27 C8.372,27 3,21.628 3,15 C3,8.372 8.372,3 15,3 C21.628,3 27,8.372 27,15 C27,21.628 21.628,27 15,27 Z" id="Shape"></path>
            <path d="M20.964,18.136 C20.486,17.858 19.874,18.02 19.596,18.498 C19.056,19.424 18.062,20 17,20 L13,20 C11.696,20 10.584,19.164 10.172,18 L15,18 C15.552,18 16,17.552 16,17 C16,16.448 15.552,16 15,16 L10,16 L10,14 L15,14 C15.552,14 16,13.552 16,13 C16,12.448 15.552,12 15,12 L10.172,12 C10.584,10.836 11.696,10 13,10 L17,10 C18.062,10 19.056,10.576 19.596,11.502 C19.874,11.98 20.486,12.142 20.964,11.864 C21.442,11.586 21.604,10.974 21.326,10.496 C20.43,8.956 18.772,7.998 17.002,7.998 L13.002,7.998 C10.588,7.998 8.568,9.718 8.102,11.998 L7.002,11.998 C6.45,11.998 6.002,12.446 6.002,12.998 C6.002,13.55 6.45,13.998 7.002,13.998 L8.002,13.998 L8.002,15.998 L7.002,15.998 C6.45,15.998 6.002,16.446 6.002,16.998 C6.002,17.55 6.45,17.998 7.002,17.998 L8.102,17.998 C8.566,20.278 10.586,21.998 13.002,21.998 L17.002,21.998 C18.774,21.998 20.43,21.042 21.326,19.5 C21.604,19.022 21.442,18.41 20.964,18.132 L20.964,18.136 Z" id="Path"></path>
        </g>
    </g>
</svg>