<?xml version="1.0" encoding="UTF-8"?>
<svg width="30px" height="30px" viewBox="0 0 30 30" version="1.1" xmlns="http://www.w3.org/2000/svg" xmlns:xlink="http://www.w3.org/1999/xlink">
    <title>coin_dollar</title>
    <g id="Page-1" stroke="none" stroke-width="1" fill="none" fill-rule="evenodd">
        <g id="060-coin-dollar" fill="#000000" fill-rule="nonzero">
            <path d="M15,0 C6.716,0 0,6.716 0,15 C0,23.284 6.716,30 15,30 C23.284,30 30,23.284 30,15 C30,6.716 23.284,0 15,0 Z M15,27 C8.372,27 3,21.628 3,15 C3,8.372 8.372,3 15,3 C21.628,3 27,8.372 27,15 C27,21.628 21.628,27 15,27 Z M16,14 L16,10 L20,10 L20,8 L16,8 L16,6 L14,6 L14,8 L10,8 L10,16 L14,16 L14,20 L10,20 L10,22 L14,22 L14,24 L16,24 L16,22 L20,22 L20,14 L16,14 Z M14,14 L12,14 L12,10 L14,10 L14,14 Z M18,20 L16,20 L16,16 L18,16 L18,20 Z" id="Shape"></path>
        </g>
    </g>
</svg>