<?xml version="1.0" encoding="UTF-8"?>
<svg width="24px" height="24px" viewBox="0 0 24 24" version="1.1" xmlns="http://www.w3.org/2000/svg" xmlns:xlink="http://www.w3.org/1999/xlink">
    <title>command</title>
    <g id="Page-1" stroke="none" stroke-width="1" fill="none" fill-rule="evenodd">
        <g id="335-command" fill="#000000" fill-rule="nonzero">
            <path d="M19,24 C16.242,24 14,21.758 14,19 L14,16 L10,16 L10,19 C10,21.758 7.756,24 5,24 C2.244,24 0,21.758 0,19 C0,16.242 2.244,14 5,14 L8,14 L8,10 L5,10 C2.244,10 0,7.756 0,5 C0,2.244 2.244,0 5,0 C7.756,0 10,2.244 10,5 L10,8 L14,8 L14,5 C14,2.244 16.242,0 19,0 C21.758,0 24,2.244 24,5 C24,7.756 21.758,10 19,10 L16,10 L16,14 L19,14 C21.758,14 24,16.242 24,19 C24,21.758 21.758,24 19,24 Z M16,16 L16,19 C16,20.654 17.346,22 19,22 C20.654,22 22,20.654 22,19 C22,17.346 20.654,16 19,16 L16,16 Z M5,16 C3.346,16 2,17.346 2,19 C2,20.654 3.346,22 5,22 C6.654,22 8,20.654 8,19 L8,16 L5,16 Z M10,14 L14,14 L14,10 L10,10 L10,14 Z M16,8 L19,8 C20.654,8 22,6.654 22,5 C22,3.346 20.654,2 19,2 C17.346,2 16,3.346 16,5 L16,8 Z M5,2 C3.346,2 2,3.346 2,5 C2,6.654 3.346,8 5,8 L8,8 L8,5 C8,3.346 6.654,2 5,2 Z" id="Shape"></path>
        </g>
    </g>
</svg>