<?xml version="1.0" encoding="UTF-8"?>
<svg width="32px" height="32px" viewBox="0 0 32 32" version="1.1" xmlns="http://www.w3.org/2000/svg" xmlns:xlink="http://www.w3.org/1999/xlink">
    <title>confused</title>
    <g id="Page-1" stroke="none" stroke-width="1" fill="none" fill-rule="evenodd">
        <g id="246-confused" fill="#000000" fill-rule="nonzero">
            <path d="M16,32 C24.836,32 32,24.836 32,16 C32,7.164 24.836,0 16,0 C7.164,0 0,7.164 0,16 C0,24.836 7.164,32 16,32 Z M16,3 C23.18,3 29,8.82 29,16 C29,23.18 23.18,29 16,29 C8.82,29 3,23.18 3,16 C3,8.82 8.82,3 16,3 Z M8,10 C8,8.896 8.896,8 10,8 C11.104,8 12,8.896 12,10 C12,11.104 11.104,12 10,12 C8.896,12 8,11.104 8,10 Z M20,10 C20,8.896 20.896,8 22,8 C23.104,8 24,8.896 24,10 C24,11.104 23.104,12 22,12 C20.896,12 20,11.104 20,10 Z M22.69,20 L24.718,20 C25.006,22.266 23.704,24.516 21.47,25.33 C18.88,26.274 16.004,24.932 15.062,22.342 C14.496,20.788 12.772,19.984 11.216,20.55 C9.792,21.068 8.998,22.56 9.31,24 L7.284,24 C6.996,21.734 8.298,19.484 10.532,18.67 C13.122,17.726 15.998,19.068 16.94,21.658 C17.506,23.212 19.23,24.016 20.786,23.45 C22.21,22.932 23.004,21.44 22.692,20 L22.69,20 Z" id="Shape"></path>
        </g>
    </g>
</svg>