<?xml version="1.0" encoding="UTF-8"?>
<svg width="40px" height="28px" viewBox="0 0 40 28" version="1.1" xmlns="http://www.w3.org/2000/svg" xmlns:xlink="http://www.w3.org/1999/xlink">
    <title>connection</title>
    <g id="Page-1" stroke="none" stroke-width="1" fill="none" fill-rule="evenodd">
        <g id="028-connection" fill="#000000" fill-rule="nonzero">
            <path d="M20,16 C23.308,16 26.308,17.346 28.482,19.518 L25.654,22.346 C24.206,20.898 22.206,20 20,20 C17.794,20 15.794,20.898 14.346,22.346 L11.518,19.518 C13.69,17.346 16.69,16 20,16 Z M5.858,13.858 C9.636,10.08 14.658,8 20,8 C25.342,8 30.364,10.08 34.142,13.858 L31.314,16.686 C28.292,13.664 24.274,12 20,12 C15.726,12 11.708,13.664 8.686,16.686 L5.858,13.858 Z M30.9,2.202 C34.234,3.612 37.228,5.632 39.8,8.202 L39.8,8.202 L36.972,11.03 C32.438,6.498 26.412,4 20.002,4 C13.592,4 7.564,6.496 3.032,11.03 L0.204,8.202 C2.774,5.632 5.77,3.612 9.104,2.202 C12.558,0.742 16.224,0 20.004,0 C23.784,0 27.45,0.74 30.904,2.202 L30.9,2.202 Z M18,26 C18,24.896 18.896,24 20,24 C21.104,24 22,24.896 22,26 C22,27.104 21.104,28 20,28 C18.896,28 18,27.104 18,26 Z" id="Shape"></path>
        </g>
    </g>
</svg>