<?xml version="1.0" encoding="UTF-8"?>
<svg width="32px" height="32px" viewBox="0 0 32 32" version="1.1" xmlns="http://www.w3.org/2000/svg" xmlns:xlink="http://www.w3.org/1999/xlink">
    <title>cool</title>
    <g id="Page-1" stroke="none" stroke-width="1" fill="none" fill-rule="evenodd">
        <g id="236-cool" fill="#000000" fill-rule="nonzero">
            <path d="M16,32 C24.836,32 32,24.836 32,16 C32,7.164 24.836,0 16,0 C7.164,0 0,7.164 0,16 C0,24.836 7.164,32 16,32 Z M16,3 C23.18,3 29,8.82 29,16 C29,23.18 23.18,29 16,29 C8.82,29 3,23.18 3,16 C3,8.82 8.82,3 16,3 Z M25,8 C25.55,8 26,8.45 26,9 L26,12 C26,13.1 25.1,14 24,14 L20,14 C18.9,14 18,13.1 18,12 L14,12 C14,13.1 13.1,14 12,14 L8,14 C6.9,14 6,13.1 6,12 L6,9 C6,8.45 6.45,8 7,8 L13,8 C13.55,8 14,8.45 14,9 L14,10 L18,10 L18,9 C18,8.45 18.45,8 19,8 L25,8 Z M16,24 C18.912,24 21.462,22.444 22.86,20.116 L24.574,21.146 C22.826,24.054 19.64,26 15.998,26 C14.484,26 13.048,25.662 11.762,25.06 L12.798,23.332 C13.778,23.76 14.86,24 15.998,24 L16,24 Z" id="Shape"></path>
        </g>
    </g>
</svg>