<?xml version="1.0" encoding="UTF-8"?>
<svg width="32px" height="32px" viewBox="0 0 32 32" version="1.1" xmlns="http://www.w3.org/2000/svg" xmlns:xlink="http://www.w3.org/1999/xlink">
    <title>copy</title>
    <g id="Page-1" stroke="none" stroke-width="1" fill="none" fill-rule="evenodd">
        <g id="045-copy" fill="#000000" fill-rule="nonzero">
            <path d="M20,8 L20,0 L6,0 L0,6 L0,24 L12,24 L12,32 L32,32 L32,8 L20,8 Z M6,2.828 L6,6 L2.828,6 L6,2.828 Z M2,22 L2,8 L8,8 L8,2 L18,2 L18,8 L12,14 L12,22 L2,22 Z M18,10.828 L18,14 L14.828,14 L18,10.828 Z M30,30 L14,30 L14,16 L20,16 L20,10 L30,10 L30,30 Z" id="Shape"></path>
        </g>
    </g>
</svg>