<?xml version="1.0" encoding="UTF-8"?>
<svg width="32px" height="24px" viewBox="0 0 32 24" version="1.1" xmlns="http://www.w3.org/2000/svg" xmlns:xlink="http://www.w3.org/1999/xlink">
    <title>credit_card</title>
    <g id="Page-1" stroke="none" stroke-width="1" fill="none" fill-rule="evenodd">
        <g id="064-credit-card" fill="#000000" fill-rule="nonzero">
            <path d="M29,0 L3,0 C1.35,0 0,1.35 0,3 L0,21 C0,22.65 1.35,24 3,24 L29,24 C30.65,24 32,22.65 32,21 L32,3 C32,1.35 30.65,0 29,0 Z M3,2 L29,2 C29.542,2 30,2.458 30,3 L30,6 L2,6 L2,3 C2,2.458 2.458,2 3,2 Z M29,22 L3,22 C2.458,22 2,21.542 2,21 L2,12 L30,12 L30,21 C30,21.542 29.542,22 29,22 Z M4,16 L6,16 L6,20 L4,20 L4,16 Z M8,16 L10,16 L10,20 L8,20 L8,16 Z M12,16 L14,16 L14,20 L12,20 L12,16 Z" id="Shape"></path>
        </g>
    </g>
</svg>