<?xml version="1.0" encoding="UTF-8"?>
<svg width="32px" height="32px" viewBox="0 0 32 32" version="1.1" xmlns="http://www.w3.org/2000/svg" xmlns:xlink="http://www.w3.org/1999/xlink">
    <title>cross</title>
    <g id="Page-1" stroke="none" stroke-width="1" fill="none" fill-rule="evenodd">
        <g id="272-cross" fill="#000000" fill-rule="nonzero">
            <path d="M31.708,25.708 C31.708,25.708 31.708,25.708 31.708,25.708 L22,16 L31.708,6.292 C31.708,6.292 31.708,6.292 31.708,6.292 C31.812,6.188 31.888,6.066 31.936,5.936 C32.068,5.58 31.992,5.164 31.708,4.878 L27.122,0.292 C26.836,0.006 26.42,-0.07 26.064,0.064 C25.934,0.112 25.812,0.188 25.708,0.292 C25.708,0.292 25.708,0.292 25.708,0.292 L16,10 L6.292,0.292 C6.292,0.292 6.292,0.292 6.292,0.292 C6.188,0.188 6.066,0.112 5.936,0.064 C5.58,-0.068 5.164,0.006 4.878,0.292 L0.292,4.878 C0.006,5.164 -0.07,5.58 0.064,5.936 C0.112,6.066 0.188,6.188 0.292,6.292 C0.292,6.292 0.292,6.292 0.292,6.292 L10,16 L0.292,25.708 C0.292,25.708 0.292,25.708 0.292,25.708 C0.188,25.812 0.112,25.934 0.064,26.064 C-0.068,26.42 0.006,26.836 0.292,27.122 L4.878,31.708 C5.164,31.994 5.58,32.07 5.936,31.936 C6.066,31.888 6.188,31.812 6.292,31.708 C6.292,31.708 6.292,31.708 6.292,31.708 L16,22 L25.708,31.708 C25.708,31.708 25.708,31.708 25.708,31.708 C25.812,31.812 25.934,31.888 26.064,31.936 C26.42,32.068 26.836,31.994 27.122,31.708 L31.708,27.122 C31.994,26.836 32.07,26.42 31.936,26.064 C31.888,25.934 31.812,25.812 31.708,25.708 Z" id="Path"></path>
        </g>
    </g>
</svg>