<?xml version="1.0" encoding="UTF-8"?>
<svg width="32px" height="32px" viewBox="0 0 32 32" version="1.1" xmlns="http://www.w3.org/2000/svg" xmlns:xlink="http://www.w3.org/1999/xlink">
    <title>crying</title>
    <g id="Page-1" stroke="none" stroke-width="1" fill="none" fill-rule="evenodd">
        <g id="258-crying" fill="#000000" fill-rule="nonzero">
            <path d="M16,32 C24.836,32 32,24.836 32,16 C32,7.164 24.836,0 16,0 C7.164,0 0,7.164 0,16 C0,24.836 7.164,32 16,32 Z M16,3 C23.18,3 29,8.82 29,16 C29,23.18 23.18,29 16,29 C8.82,29 3,23.18 3,16 C3,8.82 8.82,3 16,3 Z" id="Shape"></path>
            <path d="M25,12 L21,12 C20.448,12 20,11.552 20,11 C20,10.448 20.448,10 21,10 L25,10 C25.552,10 26,10.448 26,11 C26,11.552 25.552,12 25,12 Z" id="Path"></path>
            <path d="M11,12 L7,12 C6.448,12 6,11.552 6,11 C6,10.448 6.448,10 7,10 L11,10 C11.552,10 12,10.448 12,11 C12,11.552 11.552,12 11,12 Z" id="Path"></path>
            <path d="M19,26.75 C18.744,26.75 18.488,26.652 18.292,26.458 C18.148,26.314 17.372,26 16,26 C14.628,26 13.85,26.314 13.708,26.458 C13.318,26.848 12.684,26.848 12.294,26.458 C11.904,26.068 11.904,25.434 12.294,25.044 C13.236,24.102 15.2,24.002 16.002,24.002 C16.804,24.002 18.768,24.104 19.71,25.044 C20.1,25.434 20.1,26.068 19.71,26.458 C19.514,26.654 19.258,26.75 19.002,26.75 L19,26.75 Z" id="Path"></path>
            <path d="M23,18 C22.448,18 22,17.552 22,17 L22,15 C22,14.448 22.448,14 23,14 C23.552,14 24,14.448 24,15 L24,17 C24,17.552 23.552,18 23,18 Z" id="Path"></path>
            <path d="M23,24 C22.448,24 22,23.552 22,23 L22,21 C22,20.448 22.448,20 23,20 C23.552,20 24,20.448 24,21 L24,23 C24,23.552 23.552,24 23,24 Z" id="Path"></path>
            <path d="M9,18 C8.448,18 8,17.552 8,17 L8,15 C8,14.448 8.448,14 9,14 C9.552,14 10,14.448 10,15 L10,17 C10,17.552 9.552,18 9,18 Z" id="Path"></path>
            <path d="M9,24 C8.448,24 8,23.552 8,23 L8,21 C8,20.448 8.448,20 9,20 C9.552,20 10,20.448 10,21 L10,23 C10,23.552 9.552,24 9,24 Z" id="Path"></path>
        </g>
    </g>
</svg>