<?xml version="1.0" encoding="UTF-8"?>
<svg width="32px" height="32px" viewBox="0 0 32 32" version="1.1" xmlns="http://www.w3.org/2000/svg" xmlns:xlink="http://www.w3.org/1999/xlink">
    <title>database</title>
    <g id="Page-1" stroke="none" stroke-width="1" fill="none" fill-rule="evenodd">
        <g id="101-database" fill="#000000" fill-rule="nonzero">
            <path d="M16,0 C7.164,0 0,2.238 0,5 L0,9 C0,11.762 7.164,14 16,14 C24.836,14 32,11.762 32,9 L32,5 C32,2.238 24.836,0 16,0 Z" id="Path"></path>
            <path d="M16,17 C7.164,17 0,14.762 0,12 L0,18 C0,20.762 7.164,23 16,23 C24.836,23 32,20.762 32,18 L32,12 C32,14.762 24.836,17 16,17 Z" id="Path"></path>
            <path d="M16,26 C7.164,26 0,23.762 0,21 L0,27 C0,29.762 7.164,32 16,32 C24.836,32 32,29.762 32,27 L32,21 C32,23.762 24.836,26 16,26 Z" id="Path"></path>
        </g>
    </g>
</svg>