<?xml version="1.0" encoding="UTF-8"?>
<svg width="32px" height="32px" viewBox="0 0 32 32" version="1.1" xmlns="http://www.w3.org/2000/svg" xmlns:xlink="http://www.w3.org/1999/xlink">
    <title>dice</title>
    <g id="Page-1" stroke="none" stroke-width="1" fill="none" fill-rule="evenodd">
        <g id="022-dice" fill="#000000" fill-rule="nonzero">
            <path d="M27,6 L11,6 C8.25,6 6,8.25 6,11 L6,27 C6,29.75 8.25,32 11,32 L27,32 C29.75,32 32,29.75 32,27 L32,11 C32,8.25 29.75,6 27,6 Z M13,28 C11.344,28 10,26.656 10,25 C10,23.344 11.344,22 13,22 C14.656,22 16,23.344 16,25 C16,26.656 14.656,28 13,28 Z M13,16 C11.344,16 10,14.656 10,13 C10,11.344 11.344,10 13,10 C14.656,10 16,11.344 16,13 C16,14.656 14.656,16 13,16 Z M19,22 C17.344,22 16,20.656 16,19 C16,17.344 17.344,16 19,16 C20.656,16 22,17.344 22,19 C22,20.656 20.656,22 19,22 Z M25,28 C23.344,28 22,26.656 22,25 C22,23.344 23.344,22 25,22 C26.656,22 28,23.344 28,25 C28,26.656 26.656,28 25,28 Z M25,16 C23.344,16 22,14.656 22,13 C22,11.344 23.344,10 25,10 C26.656,10 28,11.344 28,13 C28,14.656 26.656,16 25,16 Z M25.898,4 C25.432,1.724 23.408,0 21,0 L5,0 C2.25,0 0,2.25 0,5 L0,21 C0,23.408 1.724,25.432 4,25.898 L4,6 C4,4.9 4.9,4 6,4 L25.898,4 Z" id="Shape"></path>
        </g>
    </g>
</svg>