<?xml version="1.0" encoding="UTF-8"?>
<svg width="32px" height="22px" viewBox="0 0 32 22" version="1.1" xmlns="http://www.w3.org/2000/svg" xmlns:xlink="http://www.w3.org/1999/xlink">
    <title>drawer</title>
    <g id="Page-1" stroke="none" stroke-width="1" fill="none" fill-rule="evenodd">
        <g id="093-drawer" fill="#000000" fill-rule="nonzero">
            <path d="M31.78,10.376 L23.78,0.376 C23.59,0.138 23.302,1.77635684e-15 23,1.77635684e-15 L9,1.77635684e-15 C8.696,1.77635684e-15 8.408,0.138 8.22,0.376 L0.22,10.376 C0.078,10.554 0,10.774 0,11 L0,20 C0,21.104 0.896,22 2,22 L30,22 C31.104,22 32,21.104 32,20 L32,11 C32,10.772 31.922,10.552 31.78,10.376 Z M30,12 L23,12 L19,16 L13,16 L9,12 L2,12 L2,11.35 L9.48,2 L22.518,2 L29.998,11.35 L29.998,12 L30,12 Z" id="Shape"></path>
            <path d="M23,6 L9,6 C8.448,6 8,5.552 8,5 C8,4.448 8.448,4 9,4 L23,4 C23.552,4 24,4.448 24,5 C24,5.552 23.552,6 23,6 Z" id="Path"></path>
            <path d="M25,10 L7,10 C6.448,10 6,9.552 6,9 C6,8.448 6.448,8 7,8 L25,8 C25.552,8 26,8.448 26,9 C26,9.552 25.552,10 25,10 Z" id="Path"></path>
        </g>
    </g>
</svg>