<?xml version="1.0" encoding="UTF-8"?>
<svg width="32px" height="32px" viewBox="0 0 32 32" version="1.1" xmlns="http://www.w3.org/2000/svg" xmlns:xlink="http://www.w3.org/1999/xlink">
    <title>dribbble</title>
    <g id="Page-1" stroke="none" stroke-width="1" fill="none" fill-rule="evenodd">
        <g id="424-dribbble" fill="#000000" fill-rule="nonzero">
            <path d="M16,32 C7.176,32 0,24.824 0,16 C0,7.176 7.174,0 16,0 C24.824,0 32,7.174 32,16 C32,24.826 24.824,32 16,32 L16,32 Z M29.494,18.188 C29.026,18.038 25.262,16.92 20.982,17.606 C22.77,22.518 23.494,26.518 23.638,27.35 C26.7,25.276 28.888,21.994 29.494,18.188 L29.494,18.188 L29.494,18.188 Z M21.338,28.6 C21.132,27.4 20.344,23.224 18.426,18.238 C18.394,18.25 18.364,18.256 18.338,18.27 C10.626,20.958 7.856,26.302 7.614,26.802 C9.932,28.608 12.846,29.69 16.002,29.69 C17.896,29.69 19.702,29.302 21.34,28.602 L21.34,28.602 L21.338,28.6 Z M5.844,25.156 C6.156,24.624 9.906,18.418 16.95,16.138 C17.126,16.082 17.306,16.026 17.488,15.976 C17.144,15.2 16.77,14.42 16.382,13.658 C9.564,15.702 2.938,15.614 2.338,15.608 C2.332,15.746 2.332,15.884 2.332,16.026 C2.332,19.532 3.664,22.738 5.844,25.158 L5.844,25.158 L5.844,25.156 Z M2.626,13.218 C3.238,13.224 8.87,13.25 15.264,11.556 C13.002,7.53 10.558,4.144 10.196,3.65 C6.37,5.456 3.508,8.982 2.628,13.218 L2.628,13.218 L2.626,13.218 Z M12.8,2.732 C13.176,3.238 15.662,6.62 17.9,10.732 C22.762,8.914 24.818,6.144 25.062,5.794 C22.65,3.65 19.474,2.35 16,2.35 C14.9,2.356 13.824,2.488 12.8,2.732 L12.8,2.732 L12.8,2.732 Z M26.582,7.382 C26.294,7.77 24,10.708 18.95,12.77 C19.268,13.42 19.576,14.082 19.856,14.752 C19.956,14.99 20.056,15.22 20.15,15.458 C24.7,14.89 29.218,15.802 29.668,15.896 C29.636,12.672 28.48,9.708 26.58,7.384 L26.58,7.384 L26.582,7.382 Z" id="Shape"></path>
        </g>
    </g>
</svg>