<?xml version="1.0" encoding="UTF-8"?>
<svg width="24px" height="32px" viewBox="0 0 24 32" version="1.1" xmlns="http://www.w3.org/2000/svg" xmlns:xlink="http://www.w3.org/1999/xlink">
    <title>droplet</title>
    <g id="Page-1" stroke="none" stroke-width="1" fill="none" fill-rule="evenodd">
        <g id="012-droplet" fill="#000000" fill-rule="nonzero">
            <path d="M23.02,14.786 C20.966,9.054 16.61,3.906 12,0 C7.39,3.906 3.036,9.054 0.98,14.786 C-0.29,18.33 -0.416,22.178 1.374,25.58 C3.432,29.49 7.582,32 12,32 C16.418,32 20.568,29.49 22.626,25.58 C24.416,22.178 24.29,18.332 23.02,14.786 L23.02,14.786 Z M19.086,23.718 C17.718,26.32 14.936,28 12,28 C10.278,28 8.608,27.42 7.246,26.418 C7.66,26.472 8.078,26.5 8.5,26.5 C12.17,26.5 15.646,24.4 17.356,21.148 C18.758,18.482 18.636,15.716 18.102,13.512 C18.556,14.392 18.942,15.268 19.254,16.134 C19.96,18.104 20.504,21.02 19.086,23.716 L19.086,23.718 Z" id="Shape"></path>
        </g>
    </g>
</svg>