<?xml version="1.0" encoding="UTF-8"?>
<svg width="32px" height="32px" viewBox="0 0 32 32" version="1.1" xmlns="http://www.w3.org/2000/svg" xmlns:xlink="http://www.w3.org/1999/xlink">
    <title>earth</title>
    <g id="Page-1" stroke="none" stroke-width="1" fill="none" fill-rule="evenodd">
        <g id="203-earth" fill="#000000" fill-rule="nonzero">
            <path d="M16,0 C7.164,0 0,7.164 0,16 C0,24.836 7.164,32 16,32 C24.836,32 32,24.836 32,16 C32,7.164 24.836,0 16,0 Z M16,30 C14.032,30 12.16,29.594 10.462,28.86 L17.748,20.664 C17.91,20.48 18,20.244 18,20 L18,17 C18,16.448 17.552,16 17,16 C13.47,16 9.744,12.33 9.708,12.292 C9.52,12.104 9.266,12 9,12 L5,12 C4.448,12 4,12.448 4,13 L4,19 C4,19.378 4.214,19.726 4.552,19.894 L8,21.618 L8,27.49 C4.374,24.96 2,20.758 2,16 C2,13.852 2.484,11.818 3.348,10 L7,10 C7.266,10 7.52,9.894 7.708,9.708 L11.708,5.708 C11.896,5.52 12,5.266 12,5 L12,2.58 C13.268,2.202 14.61,2 16,2 C18.2,2 20.282,2.508 22.134,3.412 C22.004,3.522 21.878,3.636 21.758,3.756 C20.624,4.89 20,6.396 20,7.998 C20,9.6 20.624,11.108 21.758,12.24 C22.896,13.378 24.422,13.998 25.996,13.998 C26.094,13.998 26.194,13.996 26.294,13.99 C26.726,15.608 27.504,19.824 26.032,25.626 C26.018,25.68 26.01,25.736 26.006,25.79 C23.464,28.386 19.922,29.998 16.002,29.998 L16,30 Z" id="Shape"></path>
        </g>
    </g>
</svg>