<?xml version="1.0" encoding="UTF-8"?>
<svg width="30px" height="33px" viewBox="0 0 30 33" version="1.1" xmlns="http://www.w3.org/2000/svg" xmlns:xlink="http://www.w3.org/1999/xlink">
    <title>edge</title>
    <g id="Page-1" stroke="none" stroke-width="1" fill="none" fill-rule="evenodd">
        <g id="477-edge" fill="#000000" fill-rule="nonzero">
            <path d="M0.482,14.206 C1.42,6.806 6.47,0.094 15.52,0 C20.982,0.106 25.476,2.582 28.152,7.3 C29.496,9.762 29.914,12.35 30.002,15.206 L30.002,18.562 L9.92,18.562 C10.014,26.844 22.108,26.562 27.314,22.912 L27.314,29.656 C24.264,31.488 17.346,33.124 11.99,31.018 C7.428,29.306 4.178,24.53 4.196,19.936 C4.046,13.98 7.158,10.036 11.99,7.792 C10.964,9.06 10.184,10.46 9.778,12.886 L21.116,12.886 C21.116,12.886 21.778,6.11 14.698,6.11 C8.022,6.342 3.21,10.222 0.486,14.204 L0.486,14.204 L0.482,14.206 Z" id="Path"></path>
        </g>
    </g>
</svg>