<?xml version="1.0" encoding="UTF-8"?>
<svg width="32px" height="32px" viewBox="0 0 32 32" version="1.1" xmlns="http://www.w3.org/2000/svg" xmlns:xlink="http://www.w3.org/1999/xlink">
    <title>ello</title>
    <g id="Page-1" stroke="none" stroke-width="1" fill="none" fill-rule="evenodd">
        <g id="439-ello" fill="#000000" fill-rule="nonzero">
            <path d="M16,0 C7.164,0 0,7.164 0,16 C0,24.836 7.164,32 16,32 C24.836,32 32,24.836 32,16 C32,7.164 24.836,0 16,0 Z M25.77,18.424 C24.62,22.884 20.602,26 16,26 C11.398,26 7.38,22.884 6.23,18.424 C6.036,17.67 6.492,16.896 7.246,16.702 C7.362,16.672 7.482,16.656 7.6,16.656 C8.244,16.656 8.808,17.092 8.968,17.718 C9.796,20.928 12.688,23.172 16,23.172 C19.312,23.172 22.204,20.93 23.032,17.718 C23.194,17.092 23.756,16.656 24.4,16.656 C24.52,16.656 24.64,16.672 24.756,16.702 C25.122,16.796 25.428,17.028 25.62,17.354 C25.812,17.68 25.866,18.06 25.77,18.426 L25.77,18.424 Z" id="Shape"></path>
        </g>
    </g>
</svg>