<?xml version="1.0" encoding="UTF-8"?>
<svg width="28px" height="32px" viewBox="0 0 28 32" version="1.1" xmlns="http://www.w3.org/2000/svg" xmlns:xlink="http://www.w3.org/1999/xlink">
    <title>equalizer2</title>
    <g id="Page-1" stroke="none" stroke-width="1" fill="none" fill-rule="evenodd">
        <g id="148-equalizer2" fill="#000000" fill-rule="nonzero">
            <path d="M26,14 L26.5,14 C27.324,14 28,13.324 28,12.5 L28,7.5 C28,6.674 27.324,6 26.5,6 L26,6 L26,0 L22,0 L22,6 L21.5,6 C20.676,6 20,6.674 20,7.5 L20,12.5 C20,13.324 20.676,14 21.5,14 L22,14 L22,32 L26,32 L26,14 Z M22,8 L26,8 L26,12 L22,12 L22,8 Z M16.5,26 C17.324,26 18,25.324 18,24.5 L18,19.5 C18,18.676 17.324,18 16.5,18 L16,18 L16,0 L12,0 L12,18 L11.5,18 C10.676,18 10,18.676 10,19.5 L10,24.5 C10,25.324 10.676,26 11.5,26 L12,26 L12,32 L16,32 L16,26 L16.5,26 Z M12,20 L16,20 L16,24 L12,24 L12,20 Z M6.5,14 C7.324,14 8,13.324 8,12.5 L8,7.5 C8,6.674 7.324,6 6.5,6 L6,6 L6,0 L2,0 L2,6 L1.5,6 C0.674,6 0,6.674 0,7.5 L0,12.5 C0,13.324 0.674,14 1.5,14 L2,14 L2,32 L6,32 L6,14 L6.5,14 Z M2,8 L6,8 L6,12 L2,12 L2,8 Z" id="Shape"></path>
        </g>
    </g>
</svg>