<?xml version="1.0" encoding="UTF-8"?>
<svg width="32px" height="28px" viewBox="0 0 32 28" version="1.1" xmlns="http://www.w3.org/2000/svg" xmlns:xlink="http://www.w3.org/1999/xlink">
    <title>equalizer</title>
    <g id="Page-1" stroke="none" stroke-width="1" fill="none" fill-rule="evenodd">
        <g id="147-equalizer" fill="#000000" fill-rule="nonzero">
            <path d="M14,2 L14,1.5 C14,0.674 13.324,0 12.5,0 L7.5,0 C6.674,0 6,0.674 6,1.5 L6,2 L0,2 L0,6 L6,6 L6,6.5 C6,7.324 6.674,8 7.5,8 L12.5,8 C13.324,8 14,7.324 14,6.5 L14,6 L32,6 L32,2 L14,2 Z M8,6 L8,2 L12,2 L12,6 L8,6 Z M26,11.5 C26,10.676 25.324,10 24.5,10 L19.5,10 C18.676,10 18,10.676 18,11.5 L18,12 L0,12 L0,16 L18,16 L18,16.5 C18,17.324 18.676,18 19.5,18 L24.5,18 C25.324,18 26,17.324 26,16.5 L26,16 L32,16 L32,12 L26,12 L26,11.5 Z M20,16 L20,12 L24,12 L24,16 L20,16 Z M14,21.5 C14,20.676 13.324,20 12.5,20 L7.5,20 C6.674,20 6,20.676 6,21.5 L6,22 L0,22 L0,26 L6,26 L6,26.5 C6,27.324 6.674,28 7.5,28 L12.5,28 C13.324,28 14,27.324 14,26.5 L14,26 L32,26 L32,22 L14,22 L14,21.5 Z M8,26 L8,22 L12,22 L12,26 L8,26 Z" id="Shape"></path>
        </g>
    </g>
</svg>