<?xml version="1.0" encoding="UTF-8"?>
<svg width="32px" height="34px" viewBox="0 0 32 34" version="1.1" xmlns="http://www.w3.org/2000/svg" xmlns:xlink="http://www.w3.org/1999/xlink">
    <title>evil</title>
    <g id="Page-1" stroke="none" stroke-width="1" fill="none" fill-rule="evenodd">
        <g id="240-evil" fill="#000000" fill-rule="nonzero">
            <path d="M20,16 C18.896,16 18,15.104 18,14 C18,13.964 18.002,13.928 18.004,13.892 C18.068,12.41 19.416,11.424 20.554,10.856 C21.64,10.314 22.714,10.042 22.758,10.03 C23.294,9.896 23.836,10.222 23.97,10.758 C24.104,11.294 23.778,11.836 23.242,11.97 C22.692,12.11 22.038,12.348 21.462,12.638 C21.794,12.996 21.998,13.474 21.998,14 C21.998,15.104 21.102,16 19.998,16 L20,16 Z M8.758,11.97 C8.222,11.836 7.896,11.294 8.03,10.758 C8.164,10.222 8.706,9.896 9.242,10.03 C9.288,10.042 10.36,10.312 11.446,10.856 C12.582,11.424 13.932,12.408 13.996,13.892 C13.998,13.928 14,13.964 14,14 C14,15.104 13.104,16 12,16 C10.896,16 10,15.104 10,14 C10,13.474 10.204,12.994 10.536,12.638 C9.96,12.35 9.308,12.11 8.756,11.97 L8.758,11.97 Z M16,25 C18.548,25 20.778,23.638 22.004,21.602 L24.576,23.146 C22.828,26.054 19.642,28 16,28 C12.358,28 9.174,26.054 7.424,23.146 L9.996,21.602 C11.22,23.638 13.45,25 16,25 L16,25 Z M32,4 C32,2.578 31.702,1.226 31.168,0 C30.118,2.402 28.154,4.31 25.716,5.286 C23.022,3.224 19.656,2 16.002,2 C12.348,2 8.982,3.226 6.288,5.286 C3.848,4.31 1.884,2.4 0.836,0 C0.3,1.226 0.004,2.578 0.004,4 C0.004,6.3 0.78,8.416 2.084,10.106 C0.76,12.436 0.004,15.13 0.004,18 C0.004,26.836 7.168,34 16.004,34 C24.84,34 32.004,26.836 32.004,18 C32.004,15.128 31.248,12.434 29.924,10.106 C31.228,8.416 32.004,6.3 32.004,4 L32,4 Z M16,31 C8.82,31 3,25.18 3,18 C3,10.82 8.82,5 16,5 C23.18,5 29,10.82 29,18 C29,25.18 23.18,31 16,31 Z" id="Shape"></path>
        </g>
    </g>
</svg>