<?xml version="1.0" encoding="UTF-8"?>
<svg width="32px" height="20px" viewBox="0 0 32 20" version="1.1" xmlns="http://www.w3.org/2000/svg" xmlns:xlink="http://www.w3.org/1999/xlink">
    <title>eye</title>
    <g id="Page-1" stroke="none" stroke-width="1" fill="none" fill-rule="evenodd">
        <g id="207-eye" fill="#000000" fill-rule="nonzero">
            <path d="M16,0 C9.022,0 2.972,4.064 0,10 C2.972,15.936 9.022,20 16,20 C22.978,20 29.028,15.936 32,10 C29.028,4.064 22.978,0 16,0 Z M23.89,5.304 C25.77,6.504 27.364,8.11 28.56,10 C27.364,11.892 25.77,13.498 23.89,14.696 C21.528,16.202 18.8,17 16.002,17 C13.204,17 10.476,16.204 8.112,14.696 C6.232,13.496 4.638,11.89 3.442,10 C4.638,8.108 6.232,6.502 8.112,5.304 C8.234,5.226 8.358,5.15 8.482,5.076 C8.17,5.93 8,6.852 8,7.814 C8,12.232 11.582,15.814 16,15.814 C20.418,15.814 24,12.232 24,7.814 C24,6.852 23.83,5.93 23.518,5.076 C23.642,5.15 23.766,5.226 23.888,5.304 L23.888,5.304 L23.89,5.304 Z M16,7 C16,8.656 14.656,10 13,10 C11.344,10 10,8.656 10,7 C10,5.344 11.344,4 13,4 C14.656,4 16,5.344 16,7 Z" id="Shape"></path>
        </g>
    </g>
</svg>