<?xml version="1.0" encoding="UTF-8"?>
<svg width="32px" height="26px" viewBox="0 0 32 26" version="1.1" xmlns="http://www.w3.org/2000/svg" xmlns:xlink="http://www.w3.org/1999/xlink">
    <title>eye_plus</title>
    <g id="Page-1" stroke="none" stroke-width="1" fill="none" fill-rule="evenodd">
        <g id="208-eye-plus" fill="#000000" fill-rule="nonzero">
            <polygon id="Path" points="32 4 28 4 28 0 24 0 24 4 20 4 20 8 24 8 24 12 28 12 28 8 32 8"></polygon>
            <path d="M26.996,13.938 C27.572,14.578 28.096,15.268 28.56,16 C27.364,17.892 25.77,19.498 23.89,20.696 C21.528,22.202 18.8,23 16.002,23 C13.204,23 10.476,22.204 8.112,20.696 C6.232,19.496 4.64,17.89 3.442,16 C4.638,14.108 6.232,12.502 8.112,11.304 C8.234,11.226 8.358,11.15 8.482,11.076 C8.17,11.93 8,12.852 8,13.814 C8,18.232 11.582,21.814 16,21.814 C20.418,21.814 24,18.232 24,13.814 C24,13.792 24,13.77 24,13.75 C20.584,12.87 18.054,9.792 18.002,6.116 C17.344,6.042 16.678,6.002 16,6.002 C9.022,6.002 2.972,10.066 0,16.002 C2.972,21.938 9.022,26.002 16,26.002 C22.978,26.002 29.028,21.938 32,16.002 C31.448,14.902 30.792,13.864 30.042,12.906 C29.128,13.442 28.096,13.804 26.996,13.94 L26.996,13.938 Z M13,10 C14.656,10 16,11.344 16,13 C16,14.656 14.656,16 13,16 C11.344,16 10,14.656 10,13 C10,11.344 11.344,10 13,10 Z" id="Shape"></path>
        </g>
    </g>
</svg>