<?xml version="1.0" encoding="UTF-8"?>
<svg width="32px" height="30px" viewBox="0 0 32 30" version="1.1" xmlns="http://www.w3.org/2000/svg" xmlns:xlink="http://www.w3.org/1999/xlink">
    <title>eye_blocked</title>
    <g id="Page-1" stroke="none" stroke-width="1" fill="none" fill-rule="evenodd">
        <g id="210-eye-blocked" fill="#000000" fill-rule="nonzero">
            <path d="M29.56,0.44 C28.974,-0.146 28.024,-0.146 27.438,0.44 L21.12,6.758 C19.496,6.266 17.778,6.002 15.998,6.002 C9.02,6.002 2.97,10.066 -0.002,16.002 C1.284,18.568 3.144,20.784 5.404,22.474 L0.436,27.442 C-0.15,28.028 -0.15,28.978 0.436,29.564 C0.728,29.856 1.112,30.004 1.496,30.004 C1.88,30.004 2.264,29.858 2.556,29.564 L29.556,2.564 C30.142,1.978 30.142,1.028 29.556,0.442 L29.56,0.44 Z M13,10 C14.32,10 15.44,10.852 15.842,12.038 L12.038,15.842 C10.854,15.44 10,14.32 10,13 C10,11.344 11.344,10 13,10 Z M3.442,16 C4.638,14.108 6.232,12.502 8.112,11.304 C8.234,11.226 8.358,11.15 8.482,11.076 C8.17,11.93 8,12.852 8,13.814 C8,15.53 8.54,17.118 9.46,18.42 L7.556,20.324 C5.918,19.172 4.518,17.702 3.442,16 Z" id="Shape"></path>
            <path d="M24,13.812 C24,12.964 23.868,12.146 23.622,11.378 L13.566,21.434 C14.334,21.68 15.152,21.812 16,21.812 C20.418,21.812 24,18.23 24,13.812 Z" id="Path"></path>
            <path d="M25.938,9.062 L23.77,11.23 C23.81,11.254 23.85,11.278 23.888,11.304 C25.768,12.504 27.362,14.11 28.558,16 C27.362,17.892 25.768,19.498 23.888,20.696 C21.526,22.202 18.798,23 16,23 C14.792,23 13.596,22.852 12.438,22.562 L10.036,24.964 C11.902,25.634 13.91,26 16,26 C22.978,26 29.028,21.936 32,16 C30.594,13.19 28.496,10.8 25.938,9.062 Z" id="Path"></path>
        </g>
    </g>
</svg>