<?xml version="1.0" encoding="UTF-8"?>
<svg width="32px" height="22px" viewBox="0 0 32 22" version="1.1" xmlns="http://www.w3.org/2000/svg" xmlns:xlink="http://www.w3.org/1999/xlink">
    <title>eye_minus</title>
    <g id="Page-1" stroke="none" stroke-width="1" fill="none" fill-rule="evenodd">
        <g id="209-eye-minus" fill="#000000" fill-rule="nonzero">
            <polygon id="Path" points="20 0 32 0 32 4 20 4"></polygon>
            <path d="M27.198,6 L18,6 L18,2.112 C17.344,2.038 16.676,2 16,2 C9.022,2 2.972,6.064 0,12 C2.972,17.936 9.022,22 16,22 C22.978,22 29.028,17.936 32,12 C30.832,9.666 29.186,7.622 27.198,6 Z M13,6 C14.656,6 16,7.344 16,9 C16,10.656 14.656,12 13,12 C11.344,12 10,10.656 10,9 C10,7.344 11.344,6 13,6 Z M23.888,16.696 C21.526,18.202 18.798,19 16,19 C13.202,19 10.474,18.204 8.11,16.696 C6.23,15.496 4.638,13.89 3.44,12 C4.636,10.108 6.23,8.502 8.11,7.304 C8.232,7.226 8.356,7.15 8.48,7.076 C8.168,7.93 7.998,8.852 7.998,9.814 C7.998,14.232 11.58,17.814 15.998,17.814 C20.416,17.814 23.998,14.232 23.998,9.814 C23.998,8.852 23.828,7.93 23.516,7.076 C23.64,7.15 23.764,7.226 23.886,7.304 C25.766,8.504 27.36,10.11 28.556,12 C27.36,13.892 25.766,15.498 23.886,16.696 L23.888,16.696 Z" id="Shape"></path>
        </g>
    </g>
</svg>