<?xml version="1.0" encoding="UTF-8"?>
<svg width="32px" height="32px" viewBox="0 0 32 32" version="1.1" xmlns="http://www.w3.org/2000/svg" xmlns:xlink="http://www.w3.org/1999/xlink">
    <title>eyedropper</title>
    <g id="Page-1" stroke="none" stroke-width="1" fill="none" fill-rule="evenodd">
        <g id="011-eyedropper" fill="#000000" fill-rule="nonzero">
            <path d="M30.828,1.172 C29.266,-0.39 26.734,-0.39 25.172,1.172 L19.794,6.55 L16.002,2.758 L11.76,7 L15.086,10.326 L0.332,25.08 C0.08,25.332 -0.026,25.672 0.01,26 L0.002,26 L0.002,31 C0.002,31.552 0.45,32 1.002,32 L6.002,32 C6.002,32 6.086,32 6.128,32 C6.416,32 6.704,31.89 6.924,31.67 L21.678,16.916 L25.004,20.242 L29.246,16 L25.454,12.208 L30.832,6.83 C32.394,5.268 32.394,2.736 30.832,1.174 L30.828,1.172 Z M5.41,30 L2,30 L2,26.59 L16.674,11.916 L20.082,15.324 L5.408,29.998 L5.41,30 Z" id="Shape"></path>
        </g>
    </g>
</svg>