<?xml version="1.0" encoding="UTF-8"?>
<svg width="32px" height="28px" viewBox="0 0 32 28" version="1.1" xmlns="http://www.w3.org/2000/svg" xmlns:xlink="http://www.w3.org/1999/xlink">
    <title>feed</title>
    <g id="Page-1" stroke="none" stroke-width="1" fill="none" fill-rule="evenodd">
        <g id="030-feed" fill="#000000" fill-rule="nonzero">
            <path d="M12,14 C12,11.79 13.79,10 16,10 C18.21,10 20,11.79 20,14 C20,16.21 18.21,18 16,18 C13.79,18 12,16.21 12,14 Z M20.76,5.204 C23.88,6.896 26,10.2 26,14 C26,17.8 23.882,21.104 20.76,22.796 C22.138,20.604 23,17.476 23,14 C23,10.524 22.138,7.396 20.76,5.204 L20.76,5.204 Z M9,14 C9,17.476 9.862,20.604 11.24,22.796 C8.12,21.104 6,17.8 6,14 C6,10.2 8.118,6.896 11.24,5.204 C9.862,7.396 9,10.524 9,14 Z M3,14 C3,19.372 4.7,24.194 7.396,27.492 C2.95,24.65 0,19.67 0,14 C0,8.33 2.948,3.35 7.396,0.508 C4.7,3.806 3,8.628 3,14 Z M24.604,0.508 C29.05,3.35 32,8.33 32,14 C32,19.67 29.052,24.65 24.604,27.492 C27.3,24.194 29,19.372 29,14 C29,8.628 27.3,3.806 24.604,0.508 Z" id="Shape"></path>
        </g>
    </g>
</svg>