<?xml version="1.0" encoding="UTF-8"?>
<svg width="30px" height="32px" viewBox="0 0 30 32" version="1.1" xmlns="http://www.w3.org/2000/svg" xmlns:xlink="http://www.w3.org/1999/xlink">
    <title>file_text</title>
    <g id="Page-1" stroke="none" stroke-width="1" fill="none" fill-rule="evenodd">
        <g id="035-file-text" fill="#000000" fill-rule="nonzero">
            <path d="M27,0 L3,0 C1.35,0 0,1.35 0,3 L0,29 C0,30.65 1.35,32 3,32 L27,32 C28.65,32 30,30.65 30,29 L30,3 C30,1.35 28.65,0 27,0 Z M26,28 L4,28 L4,4 L26,4 L26,28 Z M8,14 L22,14 L22,16 L8,16 L8,14 Z M8,18 L22,18 L22,20 L8,20 L8,18 Z M8,22 L22,22 L22,24 L8,24 L8,22 Z M8,10 L22,10 L22,12 L8,12 L8,10 Z" id="Shape"></path>
        </g>
    </g>
</svg>