<?xml version="1.0" encoding="UTF-8"?>
<svg width="28px" height="32px" viewBox="0 0 28 32" version="1.1" xmlns="http://www.w3.org/2000/svg" xmlns:xlink="http://www.w3.org/1999/xlink">
    <title>file_pdf</title>
    <g id="Page-1" stroke="none" stroke-width="1" fill="none" fill-rule="evenodd">
        <g id="480-file-pdf" fill="#000000" fill-rule="nonzero">
            <path d="M24.312,18.422 C23.886,18.002 22.94,17.78 21.5,17.76 C20.526,17.75 19.354,17.836 18.12,18.008 C17.568,17.69 16.998,17.342 16.552,16.924 C15.35,15.802 14.346,14.244 13.722,12.53 C13.762,12.37 13.798,12.23 13.83,12.086 C13.83,12.086 14.508,8.24 14.328,6.94 C14.304,6.762 14.288,6.71 14.24,6.572 L14.182,6.42 C13.998,5.996 13.636,5.546 13.07,5.57 L12.728,5.56 C12.096,5.56 11.582,5.882 11.448,6.366 C11.038,7.88 11.462,10.144 12.228,13.076 L12.032,13.554 C11.482,14.894 10.794,16.244 10.186,17.434 L10.106,17.588 C9.466,18.84 8.886,19.902 8.36,20.802 L7.818,21.09 C7.778,21.11 6.848,21.604 6.63,21.736 C4.778,22.842 3.552,24.096 3.348,25.092 C3.284,25.41 3.332,25.816 3.66,26.004 L4.186,26.268 C4.414,26.382 4.654,26.44 4.9,26.44 C6.218,26.44 7.75,24.798 9.86,21.116 C12.296,20.324 15.068,19.664 17.498,19.3 C19.35,20.342 21.628,21.066 23.064,21.066 C23.32,21.066 23.54,21.042 23.718,20.994 C23.994,20.92 24.226,20.764 24.368,20.55 C24.646,20.13 24.704,19.552 24.628,18.96 C24.606,18.784 24.466,18.568 24.314,18.418 L24.312,18.422 Z M4.614,25.44 C4.854,24.782 5.806,23.482 7.214,22.328 C7.302,22.256 7.52,22.052 7.72,21.862 C6.248,24.21 5.262,25.146 4.614,25.438 L4.614,25.44 Z M12.952,6.24 C13.376,6.24 13.618,7.308 13.638,8.31 C13.658,9.312 13.424,10.016 13.134,10.536 C12.894,9.766 12.776,8.552 12.776,7.758 C12.776,7.758 12.758,6.24 12.952,6.24 L12.952,6.24 Z M10.464,19.922 C10.76,19.394 11.066,18.836 11.38,18.244 C12.146,16.796 12.628,15.664 12.988,14.734 C13.704,16.036 14.596,17.144 15.644,18.032 C15.774,18.142 15.914,18.254 16.058,18.364 C13.926,18.786 12.084,19.298 10.462,19.922 L10.462,19.922 L10.464,19.922 Z M23.904,19.802 C23.774,19.884 23.402,19.93 23.164,19.93 C22.392,19.93 21.436,19.578 20.098,19.002 C20.612,18.964 21.084,18.944 21.508,18.944 C22.282,18.944 22.512,18.94 23.268,19.134 C24.024,19.328 24.034,19.72 23.904,19.8 L23.904,19.8 L23.904,19.802 Z" id="Shape"></path>
            <path d="M26.682,7.158 C25.988,6.212 25.02,5.104 23.958,4.042 C22.896,2.98 21.788,2.012 20.842,1.318 C19.23,0.136 18.448,0 18,0 L2.5,0 C1.122,0 0,1.122 0,2.5 L0,29.5 C0,30.878 1.122,32 2.5,32 L25.5,32 C26.878,32 28,30.878 28,29.5 L28,10 C28,9.552 27.864,8.77 26.682,7.158 L26.682,7.158 Z M22.542,5.458 C23.502,6.418 24.254,7.282 24.81,8 L19.998,8 L19.998,3.19 C20.716,3.746 21.582,4.498 22.54,5.458 L22.54,5.458 L22.542,5.458 Z M26,29.5 C26,29.772 25.772,30 25.5,30 L2.5,30 C2.23,30 2,29.772 2,29.5 L2,2.5 C2,2.23 2.23,2 2.5,2 C2.5,2 17.998,2 18,2 L18,9 C18,9.552 18.448,10 19,10 L26,10 L26,29.5 Z" id="Shape"></path>
        </g>
    </g>
</svg>