<?xml version="1.0" encoding="UTF-8"?>
<svg width="28px" height="32px" viewBox="0 0 28 32" version="1.1" xmlns="http://www.w3.org/2000/svg" xmlns:xlink="http://www.w3.org/1999/xlink">
    <title>file_text2</title>
    <g id="Page-1" stroke="none" stroke-width="1" fill="none" fill-rule="evenodd">
        <g id="039-file-text2" fill="#000000" fill-rule="nonzero">
            <path d="M26.682,7.158 C25.988,6.212 25.02,5.104 23.958,4.042 C22.896,2.98 21.788,2.012 20.842,1.318 C19.23,0.136 18.448,0 18,0 L2.5,0 C1.122,0 0,1.122 0,2.5 L0,29.5 C0,30.878 1.122,32 2.5,32 L25.5,32 C26.878,32 28,30.878 28,29.5 L28,10 C28,9.552 27.864,8.77 26.682,7.158 Z M22.542,5.458 C23.502,6.418 24.254,7.282 24.81,8 L19.998,8 L19.998,3.19 C20.716,3.746 21.582,4.498 22.54,5.458 L22.542,5.458 Z M26,29.5 C26,29.772 25.772,30 25.5,30 L2.5,30 C2.23,30 2,29.772 2,29.5 L2,2.5 C2,2.23 2.23,2 2.5,2 C2.5,2 17.998,2 18,2 L18,9 C18,9.552 18.448,10 19,10 L26,10 L26,29.5 Z" id="Shape"></path>
            <path d="M21,26 L7,26 C6.448,26 6,25.552 6,25 C6,24.448 6.448,24 7,24 L21,24 C21.552,24 22,24.448 22,25 C22,25.552 21.552,26 21,26 Z" id="Path"></path>
            <path d="M21,22 L7,22 C6.448,22 6,21.552 6,21 C6,20.448 6.448,20 7,20 L21,20 C21.552,20 22,20.448 22,21 C22,21.552 21.552,22 21,22 Z" id="Path"></path>
            <path d="M21,18 L7,18 C6.448,18 6,17.552 6,17 C6,16.448 6.448,16 7,16 L21,16 C21.552,16 22,16.448 22,17 C22,17.552 21.552,18 21,18 Z" id="Path"></path>
        </g>
    </g>
</svg>