<?xml version="1.0" encoding="UTF-8"?>
<svg width="28px" height="32px" viewBox="0 0 28 32" version="1.1" xmlns="http://www.w3.org/2000/svg" xmlns:xlink="http://www.w3.org/1999/xlink">
    <title>file_music</title>
    <g id="Page-1" stroke="none" stroke-width="1" fill="none" fill-rule="evenodd">
        <g id="041-file-music" fill="#000000" fill-rule="nonzero">
            <path d="M26.682,7.158 C25.988,6.212 25.02,5.104 23.958,4.042 C22.896,2.98 21.788,2.012 20.842,1.318 C19.23,0.136 18.448,0 18,0 L2.5,0 C1.122,0 0,1.122 0,2.5 L0,29.5 C0,30.878 1.122,32 2.5,32 L25.5,32 C26.878,32 28,30.878 28,29.5 L28,10 C28,9.552 27.864,8.77 26.682,7.158 L26.682,7.158 Z M22.542,5.458 C23.502,6.418 24.254,7.282 24.81,8 L19.998,8 L19.998,3.19 C20.716,3.746 21.582,4.498 22.54,5.458 L22.54,5.458 L22.542,5.458 Z M26,29.5 C26,29.772 25.772,30 25.5,30 L2.5,30 C2.23,30 2,29.772 2,29.5 L2,2.5 C2,2.23 2.23,2 2.5,2 C2.5,2 17.998,2 18,2 L18,9 C18,9.552 18.448,10 19,10 L26,10 L26,29.5 Z" id="Shape"></path>
            <path d="M21.634,12.226 C21.402,12.036 21.098,11.96 20.804,12.018 L10.804,14.018 C10.336,14.112 10,14.522 10,14.998 L10,22.4 C9.412,22.144 8.728,21.998 8,21.998 C5.79,21.998 4,23.342 4,24.998 C4,26.654 5.79,27.998 8,27.998 C10.21,27.998 12,26.654 12,24.998 L12,17.818 L20,16.218 L20,20.4 C19.412,20.144 18.728,19.998 18,19.998 C15.79,19.998 14,21.342 14,22.998 C14,24.654 15.79,25.998 18,25.998 C20.21,25.998 22,24.654 22,22.998 L22,12.998 C22,12.698 21.866,12.414 21.634,12.224 L21.634,12.226 Z" id="Path"></path>
        </g>
    </g>
</svg>