<?xml version="1.0" encoding="UTF-8"?>
<svg width="28px" height="32px" viewBox="0 0 28 32" version="1.1" xmlns="http://www.w3.org/2000/svg" xmlns:xlink="http://www.w3.org/1999/xlink">
    <title>files_empty</title>
    <g id="Page-1" stroke="none" stroke-width="1" fill="none" fill-rule="evenodd">
        <g id="038-files-empty" fill="#000000" fill-rule="nonzero">
            <path d="M26.682,11.158 C25.988,10.212 25.02,9.104 23.958,8.042 C22.896,6.98 21.788,6.012 20.842,5.318 C19.23,4.136 18.448,4 18,4 L6.5,4 C5.122,4 4,5.122 4,6.5 L4,29.5 C4,30.878 5.122,32 6.5,32 L25.5,32 C26.878,32 28,30.878 28,29.5 L28,14 C28,13.552 27.864,12.77 26.682,11.158 Z M22.542,9.458 C23.502,10.418 24.254,11.282 24.81,12 L19.998,12 L19.998,7.19 C20.716,7.746 21.582,8.498 22.54,9.458 L22.54,9.458 L22.542,9.458 Z M26,29.5 C26,29.772 25.772,30 25.5,30 L6.5,30 C6.228,30 6,29.772 6,29.5 L6,6.5 C6,6.23 6.228,6 6.5,6 C6.5,6 17.998,6 18,6 L18,13 C18,13.552 18.448,14 19,14 L26,14 L26,29.5 Z" id="Shape"></path>
            <path d="M16.842,1.318 C15.23,0.136 14.448,0 14,0 L2.5,0 C1.122,0 -1.77635684e-15,1.122 -1.77635684e-15,2.5 L-1.77635684e-15,25.5 C-1.77635684e-15,26.708 0.86,27.718 2,27.95 L2,2.5 C2,2.23 2.23,2 2.5,2 L17.714,2 C17.412,1.752 17.12,1.524 16.84,1.318 L16.842,1.318 Z" id="Path"></path>
        </g>
    </g>
</svg>