<?xml version="1.0" encoding="UTF-8"?>
<svg width="28px" height="32px" viewBox="0 0 28 32" version="1.1" xmlns="http://www.w3.org/2000/svg" xmlns:xlink="http://www.w3.org/1999/xlink">
    <title>file_openoffice</title>
    <g id="Page-1" stroke="none" stroke-width="1" fill="none" fill-rule="evenodd">
        <g id="481-file-openoffice" fill="#000000" fill-rule="nonzero">
            <path d="M19.57,14.74 C17.674,13.844 15.258,13.664 13.482,14.93 C15.642,14.724 18.012,15.082 19.58,16.716 C21.08,14.994 23.458,14.672 25.61,14.85 C23.814,13.658 21.446,13.818 19.572,14.742 L19.572,14.742 L19.57,14.74 Z M18.802,18.93 C16.666,18.88 14.6,19.654 12.83,20.808 C9.48,19.384 5.244,19.648 2.392,22.026 C3.214,21.996 4.018,21.794 4.832,21.688 C7.806,21.392 10.976,22.13 13.224,24.182 C14.154,22.822 15.462,21.736 16.964,21.06 C18.936,20.106 21.156,20.008 23.302,19.982 C22,19.086 20.346,18.92 18.804,18.93 L18.802,18.93 Z" id="Shape"></path>
            <path d="M26.682,7.158 C25.988,6.212 25.02,5.104 23.958,4.042 C22.896,2.98 21.788,2.012 20.842,1.318 C19.23,0.136 18.448,0 18,0 L2.5,0 C1.122,0 0,1.122 0,2.5 L0,29.5 C0,30.878 1.122,32 2.5,32 L25.5,32 C26.878,32 28,30.878 28,29.5 L28,10 C28,9.552 27.864,8.77 26.682,7.158 L26.682,7.158 Z M22.542,5.458 C23.502,6.418 24.254,7.282 24.81,8 L19.998,8 L19.998,3.19 C20.716,3.746 21.582,4.498 22.54,5.458 L22.54,5.458 L22.542,5.458 Z M26,29.5 C26,29.772 25.772,30 25.5,30 L2.5,30 C2.23,30 2,29.772 2,29.5 L2,2.5 C2,2.23 2.23,2 2.5,2 C2.5,2 17.998,2 18,2 L18,9 C18,9.552 18.448,10 19,10 L26,10 L26,29.5 Z" id="Shape"></path>
        </g>
    </g>
</svg>