<?xml version="1.0" encoding="UTF-8"?>
<svg width="32px" height="24px" viewBox="0 0 32 24" version="1.1" xmlns="http://www.w3.org/2000/svg" xmlns:xlink="http://www.w3.org/1999/xlink">
    <title>film</title>
    <g id="Page-1" stroke="none" stroke-width="1" fill="none" fill-rule="evenodd">
        <g id="020-film" fill="#000000" fill-rule="nonzero">
            <path d="M0,0 L0,24 L32,24 L32,0 L0,0 Z M6,22 L2,22 L2,18 L6,18 L6,22 Z M6,14 L2,14 L2,10 L6,10 L6,14 Z M6,6 L2,6 L2,2 L6,2 L6,6 Z M24,22 L8,22 L8,2 L24,2 L24,22 Z M30,22 L26,22 L26,18 L30,18 L30,22 Z M30,14 L26,14 L26,10 L30,10 L30,14 Z M30,6 L26,6 L26,2 L30,2 L30,6 Z M12,6 L12,18 L20,12 L12,6 Z" id="Shape"></path>
        </g>
    </g>
</svg>