<?xml version="1.0" encoding="UTF-8"?>
<svg width="32px" height="32px" viewBox="0 0 32 32" version="1.1" xmlns="http://www.w3.org/2000/svg" xmlns:xlink="http://www.w3.org/1999/xlink">
    <title>filter</title>
    <g id="Page-1" stroke="none" stroke-width="1" fill="none" fill-rule="evenodd">
        <g id="348-filter" fill="#000000" fill-rule="nonzero">
            <path d="M16,0 C7.164,0 0,2.238 0,5 L0,8 L12,20 L12,30 C12,31.104 13.79,32 16,32 C18.21,32 20,31.104 20,30 L20,20 L32,8 L32,5 C32,2.238 24.836,0 16,0 Z M2.95,4.338 C3.698,3.912 4.75,3.506 5.99,3.166 C8.738,2.414 12.294,2 16,2 C19.706,2 23.262,2.414 26.01,3.166 C27.25,3.506 28.302,3.91 29.05,4.338 C29.544,4.62 29.81,4.858 29.934,5 C29.81,5.142 29.544,5.38 29.05,5.662 C28.302,6.088 27.25,6.494 26.01,6.834 C23.262,7.586 19.706,8 16,8 C12.294,8 8.738,7.586 5.99,6.834 C4.75,6.494 3.698,6.09 2.95,5.662 C2.456,5.38 2.19,5.142 2.066,5 C2.19,4.858 2.456,4.62 2.95,4.338 Z" id="Shape"></path>
        </g>
    </g>
</svg>