<?xml version="1.0" encoding="UTF-8"?>
<svg width="32px" height="32px" viewBox="0 0 32 32" version="1.1" xmlns="http://www.w3.org/2000/svg" xmlns:xlink="http://www.w3.org/1999/xlink">
    <title>finder</title>
    <g id="Page-1" stroke="none" stroke-width="1" fill="none" fill-rule="evenodd">
        <g id="448-finder" fill="#000000" fill-rule="nonzero">
            <path d="M17.788,24.32 C17.788,24.318 17.788,24.318 17.788,24.316 C17.788,24.318 17.788,24.318 17.788,24.32 Z" id="Path"></path>
            <path d="M17.832,25.454 C17.832,25.446 17.832,25.44 17.83,25.432 C17.83,25.44 17.83,25.446 17.832,25.454 Z" id="Path"></path>
            <path d="M17.806,24.884 C17.806,24.878 17.806,24.872 17.806,24.868 C17.806,24.874 17.806,24.88 17.806,24.884 Z" id="Path"></path>
            <path d="M30,0 L2,0 C0.9,0 0,0.9 0,2 L0,30 C0,31.1 0.9,32 2,32 L17.432,32 C17.434,32 17.434,32 17.436,32 C17.438,32 17.438,32 17.44,32 L30,32 C31.1,32 32,31.1 32,30 L32,2 C32,0.9 31.1,0 30,0 L30,0 Z M6,7 C6,6.448 6.448,6 7,6 C7.552,6 8,6.448 8,7 L8,9 C8,9.552 7.552,10 7,10 C6.448,10 6,9.552 6,9 L6,7 Z M30,30 L18.28,30 C18.07,28.684 17.94,27.328 17.862,26.012 C17.862,26.016 17.862,26.02 17.862,26.022 C17.246,26.09 16.626,26.124 16,26.124 C11.824,26.124 7.8,24.604 4.672,21.842 C4.206,21.43 4.162,20.72 4.572,20.254 C4.982,19.788 5.694,19.744 6.16,20.154 C8.876,22.552 12.37,23.872 15.998,23.872 C16.594,23.872 17.188,23.836 17.774,23.766 C17.706,20.072 17.988,17.144 17.994,17.098 C18.022,16.816 17.93,16.538 17.74,16.328 C17.55,16.118 17.282,16 16.998,16 L14.024,16 C14.068,14.918 14.182,13.068 14.492,10.994 C15.082,7.032 16.116,3.938 17.496,2 L29.998,2 L29.998,30 L30,30 Z" id="Shape"></path>
            <path d="M25,10 C24.448,10 24,9.552 24,9 L24,7 C24,6.448 24.448,6 25,6 C25.552,6 26,6.448 26,7 L26,9 C26,9.552 25.552,10 25,10 Z" id="Path"></path>
            <path d="M16.89,26.1 C16.776,26.106 16.662,26.11 16.548,26.114 C16.662,26.11 16.776,26.106 16.89,26.1 Z" id="Path"></path>
            <path d="M16,26.126 C16.146,26.126 16.292,26.124 16.44,26.12 C16.294,26.124 16.148,26.126 16,26.126 Z" id="Path"></path>
            <path d="M16.846,23.85 C16.87,23.848 16.894,23.848 16.92,23.846 C16.896,23.848 16.872,23.848 16.846,23.85 Z" id="Path"></path>
            <path d="M16.408,23.868 C16.442,23.868 16.476,23.866 16.508,23.864 C16.474,23.866 16.44,23.866 16.408,23.868 Z" id="Path"></path>
            <path d="M27.426,20.256 C27.014,19.79 26.304,19.746 25.838,20.156 C23.568,22.16 20.754,23.41 17.774,23.768 C17.788,24.496 17.814,25.252 17.86,26.022 C21.358,25.64 24.666,24.19 27.326,21.842 C27.792,21.43 27.836,20.72 27.426,20.254 L27.426,20.256 Z" id="Path"></path>
            <path d="M17.86,26.024 C17.716,26.04 17.572,26.054 17.428,26.066 C17.572,26.054 17.716,26.04 17.86,26.024 Z" id="Path"></path>
            <path d="M17.36,26.07 C17.238,26.08 17.116,26.088 16.994,26.096 C17.116,26.088 17.238,26.08 17.36,26.07 Z" id="Path"></path>
        </g>
    </g>
</svg>