<?xml version="1.0" encoding="UTF-8"?>
<svg width="32px" height="30px" viewBox="0 0 32 30" version="1.1" xmlns="http://www.w3.org/2000/svg" xmlns:xlink="http://www.w3.org/1999/xlink">
    <title>firefox</title>
    <g id="Page-1" stroke="none" stroke-width="1" fill="none" fill-rule="evenodd">
        <g id="475-firefox" fill="#000000" fill-rule="nonzero">
            <path d="M31.954,9.442 L31.584,11.82 C31.584,11.82 31.054,7.418 30.404,5.772 C29.408,3.25 28.966,3.27 28.964,3.274 C29.63,4.968 29.51,5.878 29.51,5.878 C29.51,5.878 28.328,2.66 25.206,1.636 C21.748,0.502 19.876,0.812 19.66,0.87 C19.628,0.87 19.596,0.87 19.566,0.87 C19.592,0.872 19.616,0.874 19.642,0.876 C19.64,0.876 19.64,0.878 19.64,0.878 C19.654,0.896 23.462,1.544 24.138,2.472 C24.138,2.472 22.52,2.472 20.91,2.936 C20.838,2.956 26.832,3.684 28.058,9.676 C28.058,9.676 27.4,8.304 26.588,8.072 C27.122,9.698 26.986,12.784 26.476,14.318 C26.41,14.516 26.344,13.466 25.34,13.014 C25.662,15.316 25.32,18.966 23.724,19.972 C23.6,20.05 24.724,16.368 23.95,17.792 C19.49,24.63 14.218,20.948 11.848,19.326 C13.062,19.59 15.368,19.284 16.39,18.526 C16.392,18.526 16.392,18.524 16.394,18.524 C17.502,17.766 18.158,17.212 18.748,17.344 C19.338,17.476 19.73,16.884 19.272,16.358 C18.814,15.832 17.7,15.108 16.194,15.502 C15.132,15.78 13.814,16.956 11.806,15.766 C10.264,14.852 10.118,14.092 10.104,13.566 C10.142,13.38 10.19,13.206 10.248,13.046 C10.426,12.55 10.964,12.4 11.264,12.282 C11.772,12.37 12.21,12.528 12.67,12.764 C12.676,12.612 12.678,12.408 12.67,12.178 C12.714,12.09 12.686,11.826 12.616,11.504 C12.576,11.182 12.51,10.848 12.404,10.544 C12.404,10.544 12.404,10.544 12.404,10.544 C12.404,10.544 12.408,10.542 12.408,10.542 C12.41,10.54 12.412,10.538 12.414,10.536 C12.416,10.534 12.414,10.534 12.416,10.534 C12.418,10.53 12.42,10.526 12.422,10.52 C12.454,10.376 12.798,10.098 13.226,9.798 C13.61,9.53 14.06,9.244 14.416,9.024 C14.73,8.828 14.97,8.684 15.02,8.646 C15.04,8.632 15.062,8.614 15.088,8.594 C15.092,8.59 15.098,8.586 15.102,8.582 C15.106,8.578 15.108,8.578 15.11,8.574 C15.28,8.44 15.532,8.186 15.584,7.65 C15.584,7.648 15.584,7.648 15.584,7.646 C15.586,7.63 15.586,7.614 15.588,7.598 C15.588,7.586 15.59,7.576 15.59,7.564 C15.59,7.556 15.59,7.546 15.592,7.538 C15.592,7.516 15.594,7.496 15.594,7.474 C15.594,7.472 15.594,7.472 15.594,7.47 C15.594,7.418 15.594,7.364 15.59,7.308 C15.588,7.276 15.586,7.248 15.58,7.222 C15.58,7.22 15.58,7.22 15.58,7.218 C15.58,7.216 15.578,7.212 15.578,7.21 C15.578,7.208 15.576,7.2 15.574,7.196 C15.574,7.196 15.574,7.196 15.574,7.194 C15.572,7.188 15.57,7.184 15.568,7.18 C15.568,7.18 15.568,7.18 15.568,7.18 C15.514,7.052 15.308,7.004 14.46,6.988 C14.46,6.988 14.458,6.988 14.458,6.988 L14.458,6.988 C14.112,6.982 13.66,6.982 13.068,6.984 C12.028,6.988 11.454,5.968 11.272,5.574 C11.524,4.184 12.25,3.194 13.442,2.524 C13.464,2.512 13.46,2.5 13.434,2.494 C13.668,2.352 10.614,2.49 9.21,4.276 C7.964,3.966 6.878,3.988 5.94,4.206 C5.76,4.2 5.536,4.178 5.27,4.124 C4.648,3.56 3.756,2.518 3.708,1.274 C3.708,1.274 3.706,1.276 3.7,1.28 C3.7,1.268 3.698,1.256 3.698,1.244 C3.698,1.244 1.8,2.702 2.084,6.678 C2.084,6.742 2.082,6.802 2.08,6.862 C1.566,7.558 1.312,8.144 1.292,8.274 C0.836,9.2 0.376,10.594 0,12.71 C0,12.71 0.262,11.876 0.79,10.932 C0.402,12.12 0.098,13.968 0.276,16.74 C0.276,16.74 0.324,16.126 0.49,15.24 C0.62,16.96 1.194,19.082 2.642,21.578 C5.422,26.37 9.694,28.788 14.416,29.16 C15.254,29.23 16.106,29.23 16.96,29.166 C17.038,29.16 17.118,29.154 17.196,29.148 C18.164,29.08 19.138,28.934 20.11,28.7 C33.396,25.488 31.952,9.444 31.952,9.444 L31.954,9.442 Z" id="Path"></path>
        </g>
    </g>
</svg>