<?xml version="1.0" encoding="UTF-8"?>
<svg width="28px" height="32px" viewBox="0 0 28 32" version="1.1" xmlns="http://www.w3.org/2000/svg" xmlns:xlink="http://www.w3.org/1999/xlink">
    <title>fire</title>
    <g id="Page-1" stroke="none" stroke-width="1" fill="none" fill-rule="evenodd">
        <g id="170-fire" fill="#000000" fill-rule="nonzero">
            <path d="M8.032,32 C5.9,27.562 7.036,25.02 8.674,22.624 C10.468,20 10.932,17.404 10.932,17.404 C10.932,17.404 12.344,19.238 11.778,22.108 C14.27,19.334 14.742,14.912 14.364,13.218 C19.998,17.156 22.406,25.682 19.162,32.002 C36.424,22.236 23.456,7.622 21.198,5.976 C21.95,7.622 22.094,10.408 20.572,11.762 C17.998,2.004 11.636,0.004 11.636,0.004 C12.388,5.036 8.908,10.54 5.552,14.652 C5.434,12.646 5.308,11.26 4.254,9.34 C4.018,12.986 1.232,15.958 0.476,19.61 C-0.546,24.556 1.242,28.178 8.03,32.004 L8.032,32 Z" id="Path"></path>
        </g>
    </g>
</svg>