<?xml version="1.0" encoding="UTF-8"?>
<svg width="32px" height="32px" viewBox="0 0 32 32" version="1.1" xmlns="http://www.w3.org/2000/svg" xmlns:xlink="http://www.w3.org/1999/xlink">
    <title>flag</title>
    <g id="Page-1" stroke="none" stroke-width="1" fill="none" fill-rule="evenodd">
        <g id="205-flag" fill="#000000" fill-rule="nonzero">
            <polygon id="Path" points="0 0 4 0 4 32 0 32"></polygon>
            <path d="M26,20.094 C28.582,20.094 30.83,19.47 32,18.548 L32,2.548 C30.83,3.47 28.582,4.094 26,4.094 C23.418,4.094 21.17,3.47 20,2.548 L20,18.548 C21.17,19.47 23.418,20.094 26,20.094 Z" id="Path"></path>
            <path d="M19,1.016 C17.534,0.392 15.39,0 13,0 C9.988,0 7.364,0.624 6,1.546 L6,17.546 C7.364,16.624 9.988,16 13,16 C15.39,16 17.534,16.394 19,17.016 L19,1.016 Z" id="Path"></path>
        </g>
    </g>
</svg>