<?xml version="1.0" encoding="UTF-8"?>
<svg width="32px" height="32px" viewBox="0 0 32 32" version="1.1" xmlns="http://www.w3.org/2000/svg" xmlns:xlink="http://www.w3.org/1999/xlink">
    <title>flattr</title>
    <g id="Page-1" stroke="none" stroke-width="1" fill="none" fill-rule="evenodd">
        <g id="470-flattr" fill="#000000" fill-rule="nonzero">
            <path d="M11.486,0 C3.882,0 0,4.38 0,12.558 L0,12.558 L0,29.716 L7.45,22.258 L7.45,13.542 C7.45,10.154 8.348,7.998 11.36,7.514 L11.36,7.514 C12.412,7.308 14.602,7.38 15.994,7.38 L15.994,7.38 L15.994,12.554 C15.994,12.602 16,12.686 16.012,12.728 L16.012,12.728 C16.07,12.938 16.26,13.09 16.484,13.092 L16.484,13.092 C16.61,13.092 16.73,13.026 16.852,12.906 L16.852,12.906 L29.762,3.55271368e-15 L11.484,-0.002 L11.486,0 Z M24.55,9.742 L24.55,18.458 C24.55,21.846 23.652,24.002 20.64,24.486 L20.64,24.486 C19.588,24.692 17.398,24.62 16.006,24.62 L16.006,24.62 L16.006,19.446 C16.006,19.4 16,19.314 15.988,19.272 L15.988,19.272 C15.93,19.062 15.74,18.908 15.516,18.908 L15.516,18.908 C15.388,18.908 15.27,18.974 15.148,19.094 L15.148,19.094 L2.238,32 L20.516,32.002 C28.12,32.002 32.002,27.622 32.002,19.444 L32.002,19.444 L32.002,2.286 L24.552,9.744 L24.55,9.742 Z" id="Shape"></path>
        </g>
    </g>
</svg>