<?xml version="1.0" encoding="UTF-8"?>
<svg width="32px" height="32px" viewBox="0 0 32 32" version="1.1" xmlns="http://www.w3.org/2000/svg" xmlns:xlink="http://www.w3.org/1999/xlink">
    <title>flickr3</title>
    <g id="Page-1" stroke="none" stroke-width="1" fill="none" fill-rule="evenodd">
        <g id="422-flickr3" fill="#000000" fill-rule="nonzero">
            <path d="M29,0 L3,0 C1.35,0 0,1.35 0,3 L0,29 C0,30.65 1.35,32 3,32 L29,32 C30.65,32 32,30.65 32,29 L32,3 C32,1.35 30.65,0 29,0 Z M9,21 C6.238,21 4,18.762 4,16 C4,13.238 6.238,11 9,11 C11.762,11 14,13.238 14,16 C14,18.762 11.762,21 9,21 Z M23,21 C20.238,21 18,18.762 18,16 C18,13.238 20.238,11 23,11 C25.762,11 28,13.238 28,16 C28,18.762 25.762,21 23,21 Z" id="Shape"></path>
        </g>
    </g>
</svg>