<?xml version="1.0" encoding="UTF-8"?>
<svg width="26px" height="32px" viewBox="0 0 26 32" version="1.1" xmlns="http://www.w3.org/2000/svg" xmlns:xlink="http://www.w3.org/1999/xlink">
    <title>font</title>
    <g id="Page-1" stroke="none" stroke-width="1" fill="none" fill-rule="evenodd">
        <g id="349-font" fill="#000000" fill-rule="nonzero">
            <path d="M21.988,0.506 C19.16,0.506 17.344,9.59232693e-14 14.43,9.59232693e-14 C5.014,9.59232693e-14 0.624,5.362 0.624,10.808 C0.624,14.016 2.144,15.072 5.142,15.072 C4.93,14.608 4.55,14.1 4.55,11.82 C4.55,5.444 6.956,3.586 10.038,3.46 C10.038,3.46 7.51,28.252 0.17,31.226 L0.17,31.996 L10.064,31.996 L13.44,15.996 L19.622,15.996 L21,11.996 L14.284,11.996 L15.908,4.302 C17.766,4.682 19.582,5.062 21.144,5.062 C23.086,5.062 24.86,4.47 25.83,-0.004 C24.648,0.376 23.382,0.502 21.988,0.502 L21.988,0.506 Z" id="Path"></path>
        </g>
    </g>
</svg>