<?xml version="1.0" encoding="UTF-8"?>
<svg width="32px" height="32px" viewBox="0 0 32 32" version="1.1" xmlns="http://www.w3.org/2000/svg" xmlns:xlink="http://www.w3.org/1999/xlink">
    <title>forward2</title>
    <g id="Page-1" stroke="none" stroke-width="1" fill="none" fill-rule="evenodd">
        <g id="284-forward2" fill="#000000" fill-rule="nonzero">
            <path d="M16,0 C7.164,0 0,7.164 0,16 C0,24.836 7.164,32 16,32 C24.836,32 32,24.836 32,16 C32,7.164 24.836,0 16,0 Z M16,29 C8.82,29 3,23.18 3,16 C3,8.82 8.82,3 16,3 C23.18,3 29,8.82 29,16 C29,23.18 23.18,29 16,29 Z M10,11 L17,16 L10,21 L10,11 Z M18,11 L25,16 L18,21 L18,11 Z" id="Shape"></path>
        </g>
    </g>
</svg>