<?xml version="1.0" encoding="UTF-8"?>
<svg width="32px" height="32px" viewBox="0 0 32 32" version="1.1" xmlns="http://www.w3.org/2000/svg" xmlns:xlink="http://www.w3.org/1999/xlink">
    <title>frustrated2</title>
    <g id="Page-1" stroke="none" stroke-width="1" fill="none" fill-rule="evenodd">
        <g id="257-frustrated2" fill="#000000" fill-rule="nonzero">
            <path d="M8,20.5 L8,23.5 C8,23.772 8.228,24 8.5,24 L12,24 L12,20 L8.5,20 C8.228,20 8,20.228 8,20.5 Z" id="Path"></path>
            <polygon id="Path" points="14 20 18 20 18 24 14 24"></polygon>
            <path d="M23.5,20 L20,20 L20,24 L23.5,24 C23.772,24 24,23.772 24,23.5 L24,20.5 C24,20.228 23.772,20 23.5,20 Z" id="Path"></path>
            <path d="M16,0 C7.164,0 0,7.164 0,16 C0,24.836 7.164,32 16,32 C24.836,32 32,24.836 32,16 C32,7.164 24.836,0 16,0 Z M18.004,11.892 C18.068,10.41 19.416,9.424 20.554,8.856 C21.64,8.314 22.714,8.042 22.758,8.03 C23.294,7.896 23.836,8.222 23.97,8.758 C24.104,9.294 23.778,9.836 23.242,9.97 C22.692,10.11 22.038,10.348 21.462,10.638 C21.794,10.996 21.998,11.474 21.998,12 C21.998,13.104 21.102,14 19.998,14 C18.894,14 17.998,13.104 17.998,12 C17.998,11.964 18,11.928 18.002,11.892 L18.004,11.892 Z M8.03,8.758 C8.164,8.222 8.706,7.896 9.242,8.03 C9.288,8.042 10.36,8.312 11.446,8.856 C12.582,9.424 13.932,10.408 13.996,11.892 C13.998,11.928 14,11.964 14,12 C14,13.104 13.104,14 12,14 C10.896,14 10,13.104 10,12 C10,11.474 10.204,10.994 10.536,10.638 C9.96,10.35 9.308,10.11 8.756,9.97 C8.22,9.836 7.894,9.294 8.028,8.758 L8.03,8.758 Z M26,23.5 C26,24.878 24.878,26 23.5,26 L8.5,26 C7.122,26 6,24.878 6,23.5 L6,20.5 C6,19.122 7.122,18 8.5,18 L23.5,18 C24.878,18 26,19.122 26,20.5 L26,23.5 Z" id="Shape"></path>
        </g>
    </g>
</svg>