<?xml version="1.0" encoding="UTF-8"?>
<svg width="32px" height="32px" viewBox="0 0 32 32" version="1.1" xmlns="http://www.w3.org/2000/svg" xmlns:xlink="http://www.w3.org/1999/xlink">
    <title>frustrated</title>
    <g id="Page-1" stroke="none" stroke-width="1" fill="none" fill-rule="evenodd">
        <g id="256-frustrated" fill="#000000" fill-rule="nonzero">
            <path d="M11.448,8.856 C10.362,8.314 9.288,8.042 9.244,8.03 C8.708,7.896 8.166,8.222 8.032,8.758 C7.898,9.294 8.224,9.836 8.76,9.97 C9.31,10.11 9.964,10.348 10.54,10.638 C10.208,10.996 10.004,11.474 10.004,12 C10.004,13.104 10.9,14 12.004,14 C13.108,14 14.004,13.104 14.004,12 C14.004,11.964 14.002,11.928 14,11.892 C13.936,10.41 12.588,9.424 11.45,8.856 L11.448,8.856 Z" id="Path"></path>
            <path d="M16,0 C7.164,0 0,7.164 0,16 C0,24.836 7.164,32 16,32 C24.836,32 32,24.836 32,16 C32,7.164 24.836,0 16,0 Z M7.39,25.74 C7.724,25.906 8.102,26 8.5,26 L23.5,26 C23.898,26 24.274,25.906 24.61,25.74 C22.316,27.768 19.302,29 16,29 C12.698,29 9.684,27.768 7.39,25.74 L7.39,25.74 Z M8,23.5 L8,20.5 C8,20.228 8.228,20 8.5,20 L12,20 L12,24 L8.5,24 C8.228,24 8,23.772 8,23.5 Z M14,24 L14,20 L18,20 L18,24 L14,24 Z M20,24 L20,20 L23.5,20 C23.772,20 24,20.228 24,20.5 L24,23.5 C24,23.772 23.772,24 23.5,24 L20,24 Z M25.74,24.61 C25.906,24.276 26,23.898 26,23.5 L26,20.5 C26,19.122 24.878,18 23.5,18 L8.5,18 C7.122,18 6,19.122 6,20.5 L6,23.5 C6,23.898 6.094,24.274 6.26,24.61 C4.232,22.316 3,19.302 3,16 C3,8.82 8.82,3 16,3 C23.18,3 29,8.82 29,16 C29,19.302 27.768,22.316 25.74,24.61 Z" id="Shape"></path>
            <path d="M22.758,8.03 C22.712,8.042 21.64,8.312 20.554,8.856 C19.418,9.424 18.068,10.408 18.004,11.892 C18.002,11.928 18,11.964 18,12 C18,13.104 18.896,14 20,14 C21.104,14 22,13.104 22,12 C22,11.474 21.796,10.994 21.464,10.638 C22.04,10.35 22.692,10.11 23.244,9.97 C23.78,9.836 24.106,9.294 23.972,8.758 C23.838,8.222 23.296,7.896 22.76,8.03 L22.758,8.03 Z" id="Path"></path>
        </g>
    </g>
</svg>