<?xml version="1.0" encoding="UTF-8"?>
<svg width="28px" height="32px" viewBox="0 0 28 32" version="1.1" xmlns="http://www.w3.org/2000/svg" xmlns:xlink="http://www.w3.org/1999/xlink">
    <title>gift</title>
    <g id="Page-1" stroke="none" stroke-width="1" fill="none" fill-rule="evenodd">
        <g id="160-gift" fill="#000000" fill-rule="nonzero">
            <path d="M22.11,10 C22.676,9.598 23.22,9.15 23.718,8.652 C24.762,7.608 25.46,6.324 25.684,5.036 C25.93,3.624 25.57,2.312 24.696,1.44 C24,0.744 23.056,0.374 21.966,0.374 C20.416,0.374 18.78,1.118 17.482,2.416 C15.404,4.494 14.194,7.36 13.542,9.408 C13.06,7.352 12.098,4.576 10.228,2.706 C9.226,1.704 7.944,1.188 6.732,1.188 C5.742,1.188 4.802,1.532 4.098,2.234 C2.536,3.796 2.748,6.54 4.57,8.362 C5.22,9.012 5.98,9.552 6.78,10 L-0.002,10 L-0.002,18 L1.998,18 L1.998,32 L25.998,32 L25.998,18 L27.998,18 L27.998,10 L22.108,10 L22.11,10 Z M19.072,4.006 C19.938,3.14 21.02,2.622 21.964,2.622 C22.298,2.622 22.768,2.692 23.104,3.028 C23.918,3.842 23.46,5.726 22.126,7.06 C20.752,8.434 18.906,9.378 17.3,10 L15.716,10 C16.296,8.202 17.342,5.736 19.072,4.006 L19.072,4.006 Z M5.31,5.028 C5.288,4.742 5.308,4.208 5.692,3.826 C6.012,3.506 6.436,3.438 6.734,3.438 L6.734,3.438 C7.398,3.438 8.092,3.752 8.638,4.296 C9.696,5.354 10.568,7.038 11.158,9.168 C11.174,9.226 11.19,9.282 11.204,9.34 C11.148,9.324 11.09,9.31 11.032,9.294 C8.904,8.704 7.22,7.832 6.16,6.774 C5.666,6.28 5.354,5.644 5.308,5.03 L5.31,5.028 Z M12,30 L4,30 L4,17 L12,17 L12,30 Z M12,16 L2,16 L2,12 L12,12 L12,16 Z M24,30 L16,30 L16,17 L24,17 L24,30 Z M26,16 L16,16 L16,12 L26,12 L26,16 Z" id="Shape"></path>
        </g>
    </g>
</svg>