<?xml version="1.0" encoding="UTF-8"?>
<svg width="32px" height="32px" viewBox="0 0 32 32" version="1.1" xmlns="http://www.w3.org/2000/svg" xmlns:xlink="http://www.w3.org/1999/xlink">
    <title>git</title>
    <g id="Page-1" stroke="none" stroke-width="1" fill="none" fill-rule="evenodd">
        <g id="488-git" fill="#000000" fill-rule="nonzero">
            <path d="M31.396,14.574 L17.424,0.602 C16.62,-0.202 15.314,-0.202 14.51,0.602 L11.264,3.848 L13.706,6.29 C14.098,6.102 14.536,5.998 15,5.998 C16.656,5.998 18,7.342 18,8.998 C18,9.462 17.894,9.9 17.708,10.292 L21.708,14.292 C22.1,14.104 22.538,14 23.002,14 C24.658,14 26.002,15.344 26.002,17 C26.002,18.656 24.658,20 23.002,20 C21.346,20 20.002,18.656 20.002,17 C20.002,16.536 20.108,16.098 20.294,15.706 L16.294,11.706 C16.198,11.752 16.1,11.792 16,11.828 L16,20.17 C17.166,20.582 18,21.692 18,22.998 C18,24.654 16.656,25.998 15,25.998 C13.344,25.998 12,24.654 12,22.998 C12,21.692 12.834,20.582 14,20.17 L14,11.828 C12.834,11.416 12,10.306 12,9 C12,8.536 12.106,8.098 12.292,7.706 L9.85,5.264 L0.604,14.51 C-0.2,15.316 -0.2,16.62 0.604,17.426 L14.576,31.398 C15.38,32.202 16.684,32.202 17.49,31.398 L31.396,17.492 C32.2,16.686 32.2,15.382 31.396,14.576 L31.396,14.574 Z" id="Path"></path>
        </g>
    </g>
</svg>