<?xml version="1.0" encoding="UTF-8"?>
<svg width="32px" height="32px" viewBox="0 0 32 32" version="1.1" xmlns="http://www.w3.org/2000/svg" xmlns:xlink="http://www.w3.org/1999/xlink">
    <title>github</title>
    <g id="Page-1" stroke="none" stroke-width="1" fill="none" fill-rule="evenodd">
        <g id="433-github" fill="#000000" fill-rule="nonzero">
            <path d="M16,0.396 C7.164,0.396 0,7.56 0,16.396 C0,23.466 4.584,29.462 10.942,31.578 C11.742,31.726 12.036,31.23 12.036,30.808 C12.036,30.426 12.02,29.166 12.014,27.83 C7.562,28.798 6.624,25.942 6.624,25.942 C5.896,24.092 4.848,23.6 4.848,23.6 C3.396,22.606 4.958,22.628 4.958,22.628 C6.564,22.74 7.41,24.276 7.41,24.276 C8.838,26.722 11.154,26.014 12.066,25.606 C12.21,24.572 12.624,23.866 13.082,23.466 C9.528,23.062 5.792,21.69 5.792,15.558 C5.792,13.812 6.418,12.384 7.44,11.264 C7.274,10.86 6.726,9.234 7.594,7.03 C7.594,7.03 8.938,6.6 11.996,8.67 C13.272,8.316 14.64,8.138 16,8.132 C17.36,8.138 18.73,8.316 20.008,8.67 C23.062,6.6 24.404,7.03 24.404,7.03 C25.274,9.234 24.728,10.862 24.562,11.264 C25.588,12.384 26.208,13.812 26.208,15.558 C26.208,21.704 22.464,23.056 18.902,23.452 C19.476,23.948 19.988,24.922 19.988,26.414 C19.988,28.554 19.97,30.278 19.97,30.804 C19.97,31.23 20.258,31.728 21.07,31.572 C27.424,29.454 32.002,23.458 32.002,16.392 C32.002,7.556 24.838,0.392 16.002,0.392 L16,0.396 Z" id="Path"></path>
        </g>
    </g>
</svg>