<?xml version="1.0" encoding="UTF-8"?>
<svg width="20px" height="32px" viewBox="0 0 20 32" version="1.1" xmlns="http://www.w3.org/2000/svg" xmlns:xlink="http://www.w3.org/1999/xlink">
    <title>glass</title>
    <g id="Page-1" stroke="none" stroke-width="1" fill="none" fill-rule="evenodd">
        <g id="161-glass" fill="#000000" fill-rule="nonzero">
            <path d="M18.306,0.526 C18.132,0.202 17.794,0 17.426,0 L2.576,0 C2.208,0 1.87,0.202 1.696,0.526 C0.588,2.59 0.002,5 0.002,7.5 C0.002,10.794 1.014,13.9 2.85,16.248 C4.27,18.062 6.052,19.264 8.002,19.754 L8.002,30 L5.002,30 C4.45,30 4.002,30.448 4.002,31 C4.002,31.552 4.45,32 5.002,32 L15.002,32 C15.554,32 16.002,31.552 16.002,31 C16.002,30.448 15.554,30 15.002,30 L12.002,30 L12.002,19.754 C13.952,19.266 15.734,18.062 17.154,16.248 C18.99,13.9 20.002,10.794 20.002,7.5 C20.002,5.002 19.416,2.59 18.308,0.526 L18.306,0.526 Z M3.19,2 L16.808,2 C17.588,3.654 17.998,5.542 17.998,7.5 C17.998,7.668 17.994,7.834 17.988,8 L2.006,8 C2,7.834 1.996,7.668 1.996,7.5 C1.996,5.542 2.406,3.654 3.186,2 L3.19,2 Z" id="Shape"></path>
        </g>
    </g>
</svg>