<?xml version="1.0" encoding="UTF-8"?>
<svg width="32px" height="32px" viewBox="0 0 32 32" version="1.1" xmlns="http://www.w3.org/2000/svg" xmlns:xlink="http://www.w3.org/1999/xlink">
    <title>google2</title>
    <g id="Page-1" stroke="none" stroke-width="1" fill="none" fill-rule="evenodd">
        <g id="394-google2" fill="#000000" fill-rule="nonzero">
            <path d="M29,0 L3,0 C1.35,0 0,1.35 0,3 L0,29 C0,30.65 1.35,32 3,32 L29,32 C30.65,32 32,30.65 32,29 L32,3 C32,1.35 30.65,0 29,0 Z M16.238,28 C9.606,28 4.238,22.632 4.238,16 C4.238,9.368 9.606,4 16.238,4 C19.476,4 22.188,5.182 24.276,7.138 L21.02,10.276 C20.126,9.42 18.57,8.426 16.238,8.426 C12.138,8.426 8.8,11.82 8.8,16 C8.8,20.18 12.144,23.574 16.238,23.574 C20.988,23.574 22.77,20.162 23.044,18.398 L16.238,18.398 L16.238,14.286 L27.57,14.286 C27.67,14.886 27.7580059,15.486 27.7580059,16.274 C27.764,23.13 23.17,28 16.24,28 L16.238,28 Z" id="Shape"></path>
        </g>
    </g>
</svg>