<?xml version="1.0" encoding="UTF-8"?>
<svg width="32px" height="21px" viewBox="0 0 32 21" version="1.1" xmlns="http://www.w3.org/2000/svg" xmlns:xlink="http://www.w3.org/1999/xlink">
    <title>google_plus</title>
    <g id="Page-1" stroke="none" stroke-width="1" fill="none" fill-rule="evenodd">
        <g id="396-google-plus" fill="#000000" fill-rule="nonzero">
            <path d="M10.182,9.294 L10.182,12.788 L15.958,12.788 C15.726,14.288 14.214,17.182 10.182,17.182 C6.708,17.182 3.87,14.3 3.87,10.75 C3.87,7.2 6.708,4.318 10.182,4.318 C12.164,4.318 13.482,5.162 14.238,5.886 L17,3.224 C15.224,1.568 12.926,0.562 10.182,0.562 C4.55,0.568 0,5.118 0,10.75 C0,16.382 4.55,20.932 10.182,20.932 C16.056,20.932 19.958,16.8 19.958,10.982 C19.958,10.314 19.884,9.8 19.796,9.294 L10.184,9.294 L10.182,9.294 Z" id="Path"></path>
            <polygon id="Path" points="32 9 29 9 29 6 26 6 26 9 23 9 23 12 26 12 26 15 29 15 29 12 32 12"></polygon>
        </g>
    </g>
</svg>