<?xml version="1.0" encoding="UTF-8"?>
<svg width="32px" height="32px" viewBox="0 0 32 32" version="1.1" xmlns="http://www.w3.org/2000/svg" xmlns:xlink="http://www.w3.org/1999/xlink">
    <title>google</title>
    <g id="Page-1" stroke="none" stroke-width="1" fill="none" fill-rule="evenodd">
        <g id="393-google" fill="#000000" fill-rule="nonzero">
            <path d="M16.318,13.712 L16.318,19.2 L25.392,19.2 C25.024,21.556 22.648,26.1 16.318,26.1 C10.856,26.1 6.4,21.576 6.4,16 C6.4,10.424 10.856,5.9 16.318,5.9 C19.424,5.9 21.506,7.226 22.694,8.368 L27.038,4.186 C24.25,1.574 20.638,-0.002 16.32,-0.002 C7.476,-0.002 0.32,7.154 0.32,15.998 C0.32,24.842 7.476,31.998 16.32,31.998 C25.552,31.998 31.682,25.504 31.682,16.366 C31.682,15.316 31.57,14.516 31.432,13.716 L16.32,13.71 L16.318,13.712 Z" id="Path"></path>
        </g>
    </g>
</svg>