<?xml version="1.0" encoding="UTF-8"?>
<svg width="32px" height="32px" viewBox="0 0 32 32" version="1.1" xmlns="http://www.w3.org/2000/svg" xmlns:xlink="http://www.w3.org/1999/xlink">
    <title>google_plus3</title>
    <g id="Page-1" stroke="none" stroke-width="1" fill="none" fill-rule="evenodd">
        <g id="398-google-plus3" fill="#000000" fill-rule="nonzero">
            <path d="M16,0 C7.162,0 0,7.162 0,16 C0,24.838 7.162,32 16,32 C24.838,32 32,24.838 32,16 C32,7.162 24.838,0 16,0 Z M12,24 C7.576,24 4,20.426 4,16 C4,11.574 7.576,8 12,8 C14.162,8 15.968,8.788 17.362,10.094 L15.186,12.182 C14.592,11.614 13.554,10.95 11.998,10.95 C9.266,10.95 7.036,13.212 7.036,16 C7.036,18.788 9.268,21.05 11.998,21.05 C15.166,21.05 16.354,18.776 16.536,17.6 L11.998,17.6 L11.998,14.856 L19.554,14.856 C19.622,15.256 19.68,15.656 19.68,16.182 C19.68,20.756 16.618,24 11.998,24 L12,24 Z M26,16 L26,18 L24,18 L24,16 L22,16 L22,14 L24,14 L24,12 L26,12 L26,14 L28,14 L28,16 L26,16 Z" id="Shape"></path>
        </g>
    </g>
</svg>