<?xml version="1.0" encoding="UTF-8"?>
<svg width="32px" height="32px" viewBox="0 0 32 32" version="1.1" xmlns="http://www.w3.org/2000/svg" xmlns:xlink="http://www.w3.org/1999/xlink">
    <title>grin2</title>
    <g id="Page-1" stroke="none" stroke-width="1" fill="none" fill-rule="evenodd">
        <g id="235-grin2" fill="#000000" fill-rule="nonzero">
            <path d="M16,0 C7.164,0 0,7.164 0,16 C0,24.836 7.164,32 16,32 C24.836,32 32,24.836 32,16 C32,7.164 24.836,0 16,0 Z M22,7.376 C23.998,7.376 25.626,9.002 25.626,11.002 C25.626,11.202 25.608,11.404 25.576,11.606 C25.526,11.908 25.264,12.128 24.96,12.128 C24.656,12.128 24.394,11.908 24.344,11.606 C24.152,10.46 23.166,9.94 22.002,9.94 C20.838,9.94 19.854,10.46 19.66,11.606 C19.61,11.908 19.348,12.128 19.044,12.128 C19.044,12.128 19.044,12.128 19.044,12.128 C18.738,12.128 18.478,11.908 18.428,11.606 C18.394,11.404 18.378,11.202 18.378,11.002 C18.378,9.004 20.004,7.376 22.004,7.376 L22,7.376 Z M10,7.376 C11.998,7.376 13.626,9.002 13.626,11.002 C13.626,11.202 13.608,11.404 13.576,11.606 C13.526,11.908 13.264,12.128 12.96,12.128 C12.656,12.128 12.394,11.908 12.344,11.606 C12.152,10.46 11.166,9.94 10.002,9.94 C8.838,9.94 7.854,10.46 7.66,11.606 C7.61,11.908 7.348,12.128 7.044,12.128 C7.044,12.128 7.044,12.128 7.044,12.128 C6.738,12.128 6.478,11.908 6.428,11.606 C6.394,11.404 6.378,11.202 6.378,11.002 C6.378,9.004 8.004,7.376 10.004,7.376 L10,7.376 Z M6,18 L12,18 L12,25.746 C8.56,24.852 6,21.71 6,18 Z M14,26 L14,18 L18,18 L18,26 L14,26 Z M20,25.746 L20,18 L26,18 C26,21.71 23.44,24.852 20,25.746 L20,25.746 Z" id="Shape"></path>
        </g>
    </g>
</svg>