<?xml version="1.0" encoding="UTF-8"?>
<svg width="32px" height="32px" viewBox="0 0 32 32" version="1.1" xmlns="http://www.w3.org/2000/svg" xmlns:xlink="http://www.w3.org/1999/xlink">
    <title>grin</title>
    <g id="Page-1" stroke="none" stroke-width="1" fill="none" fill-rule="evenodd">
        <g id="234-grin" fill="#000000" fill-rule="nonzero">
            <path d="M16,32 C24.836,32 32,24.836 32,16 C32,7.164 24.836,0 16,0 C7.164,0 0,7.164 0,16 C0,24.836 7.164,32 16,32 Z M16,3 C23.18,3 29,8.82 29,16 C29,23.18 23.18,29 16,29 C8.82,29 3,23.18 3,16 C3,8.82 8.82,3 16,3 Z M6,16 L6,18 C6,22.4 9.6,26 14,26 L18,26 C22.4,26 26,22.4 26,18 L26,16 L6,16 Z M12,23.656 C11.17,23.36 10.408,22.88 9.764,22.236 C8.626,21.098 8,19.594 8,18 L12,18 L12,23.656 L12,23.656 Z M18,24 L14,24 L14,18 L18,18 L18,24 Z M22.236,22.236 C21.592,22.88 20.83,23.36 20,23.656 L20,18 L24,18 C24,19.594 23.374,21.098 22.236,22.236 Z M7.042,12 C7.042,12 7.042,12 7.042,12 C7.348,12 7.608,11.78 7.658,11.478 C7.85,10.332 8.836,9.5 10,9.5 C11.164,9.5 12.148,10.332 12.342,11.478 C12.392,11.78 12.654,12 12.958,12 C13.262,12 13.524,11.78 13.574,11.478 C13.608,11.276 13.624,11.074 13.624,10.874 C13.624,8.876 11.998,7.248 9.998,7.248 C7.998,7.248 6.372,8.874 6.372,10.874 C6.372,11.074 6.39,11.276 6.422,11.478 C6.472,11.78 6.734,12 7.038,12 L7.042,12 Z M19.042,12 C19.042,12 19.042,12 19.042,12 C19.348,12 19.608,11.78 19.658,11.478 C19.85,10.332 20.836,9.5 22,9.5 C23.164,9.5 24.148,10.332 24.342,11.478 C24.392,11.78 24.654,12 24.958,12 C25.262,12 25.524,11.78 25.574,11.478 C25.608,11.276 25.624,11.074 25.624,10.874 C25.624,8.876 23.998,7.248 21.998,7.248 C19.998,7.248 18.372,8.874 18.372,10.874 C18.372,11.074 18.388,11.276 18.422,11.478 C18.472,11.78 18.734,12 19.038,12 L19.042,12 Z" id="Shape"></path>
        </g>
    </g>
</svg>