<?xml version="1.0" encoding="UTF-8"?>
<svg width="32px" height="30px" viewBox="0 0 32 30" version="1.1" xmlns="http://www.w3.org/2000/svg" xmlns:xlink="http://www.w3.org/1999/xlink">
    <title>hammer</title>
    <g id="Page-1" stroke="none" stroke-width="1" fill="none" fill-rule="evenodd">
        <g id="151-hammer" fill="#000000" fill-rule="nonzero">
            <path d="M31.562,23.906 L22.138,14.482 C21.554,13.898 20.6,13.898 20.016,14.482 L19.308,15.19 L13.558,9.44 L22.998,-1.77635684e-15 L12.998,-1.77635684e-15 L8.558,4.44 L8.118,4 L5.996,4 L5.996,6.122 L6.436,6.562 L-0.004,13.002 L4.996,18.002 L11.436,11.562 L17.186,17.312 L16.478,18.02 C15.894,18.604 15.894,19.558 16.478,20.142 L25.902,29.566 C26.486,30.15 27.44,30.15 28.024,29.566 L31.56,26.03 C32.144,25.446 32.144,24.492 31.56,23.908 L31.562,23.906 Z" id="Path"></path>
        </g>
    </g>
</svg>