<?xml version="1.0" encoding="UTF-8"?>
<svg width="32px" height="32px" viewBox="0 0 32 32" version="1.1" xmlns="http://www.w3.org/2000/svg" xmlns:xlink="http://www.w3.org/1999/xlink">
    <title>hammer2</title>
    <g id="Page-1" stroke="none" stroke-width="1" fill="none" fill-rule="evenodd">
        <g id="169-hammer2" fill="#000000" fill-rule="nonzero">
            <path d="M31.568,28.618 L14.424,13.01 L15.222,12.21 C15.874,11.556 16.228,10.71 16.282,9.848 C16.314,9.834 16.344,9.82 16.374,9.802 L19.592,7.79 C20.028,7.278 19.996,6.47 19.52,5.994 L13.922,0.382 C13.448,-0.094 12.64,-0.126 12.13,0.31 L10.122,3.538 C10.106,3.568 10.092,3.6 10.078,3.63 C9.218,3.684 8.374,4.038 7.722,4.692 L4.678,7.746 C4.024,8.4 3.672,9.246 3.618,10.108 C3.586,10.122 3.556,10.136 3.526,10.154 L0.308,12.166 C-0.128,12.678 -0.096,13.486 0.38,13.962 L5.978,19.574 C6.452,20.05 7.26,20.082 7.77,19.646 L9.778,16.418 C9.794,16.388 9.808,16.356 9.824,16.326 C10.684,16.272 11.528,15.918 12.18,15.264 L13.064,14.378 L28.63,31.57 C29.082,32.068 29.776,32.148 30.176,31.748 L31.75,30.17 C32.148,29.77 32.068,29.072 31.572,28.62 L31.568,28.618 Z" id="Path"></path>
        </g>
    </g>
</svg>