<?xml version="1.0" encoding="UTF-8"?>
<svg width="32px" height="32px" viewBox="0 0 32 32" version="1.1" xmlns="http://www.w3.org/2000/svg" xmlns:xlink="http://www.w3.org/1999/xlink">
    <title>happy2</title>
    <g id="Page-1" stroke="none" stroke-width="1" fill="none" fill-rule="evenodd">
        <g id="225-happy2" fill="#000000" fill-rule="nonzero">
            <path d="M16,0 C7.164,0 0,7.164 0,16 C0,24.836 7.164,32 16,32 C24.836,32 32,24.836 32,16 C32,7.164 24.836,0 16,0 Z M22,8 C23.104,8 24,9.344 24,11 C24,12.656 23.104,14 22,14 C20.896,14 20,12.656 20,11 C20,9.344 20.896,8 22,8 Z M10,8 C11.104,8 12,9.344 12,11 C12,12.656 11.104,14 10,14 C8.896,14 8,12.656 8,11 C8,9.344 8.896,8 10,8 Z M16,28 C10.786,28 6.456,23.628 6,18.054 C8.93,19.746 12.376,20.712 16,20.712 C19.624,20.712 23.07,19.75 26,18.058 C25.544,23.634 21.214,28 16,28 L16,28 Z" id="Shape"></path>
        </g>
    </g>
</svg>