<?xml version="1.0" encoding="UTF-8"?>
<svg width="32px" height="32px" viewBox="0 0 32 32" version="1.1" xmlns="http://www.w3.org/2000/svg" xmlns:xlink="http://www.w3.org/1999/xlink">
    <title>happy</title>
    <g id="Page-1" stroke="none" stroke-width="1" fill="none" fill-rule="evenodd">
        <g id="224-happy" fill="#000000" fill-rule="nonzero">
            <path d="M16,32 C24.836,32 32,24.836 32,16 C32,7.164 24.836,0 16,0 C7.164,0 0,7.164 0,16 C0,24.836 7.164,32 16,32 Z M16,3 C23.18,3 29,8.82 29,16 C29,23.18 23.18,29 16,29 C8.82,29 3,23.18 3,16 C3,8.82 8.82,3 16,3 Z M16,18.712 C19.624,18.712 23.07,17.75 26,16.058 C25.544,21.634 21.214,26 16,26 C10.786,26 6.456,21.628 6,16.054 C8.93,17.744 12.376,18.712 16,18.712 L16,18.712 Z M8,11 C8,9.344 8.896,8 10,8 C11.104,8 12,9.344 12,11 C12,12.656 11.104,14 10,14 C8.896,14 8,12.656 8,11 Z M20,11 C20,9.344 20.896,8 22,8 C23.104,8 24,9.344 24,11 C24,12.656 23.104,14 22,14 C20.896,14 20,12.656 20,11 Z" id="Shape"></path>
        </g>
    </g>
</svg>