<?xml version="1.0" encoding="UTF-8"?>
<svg width="32px" height="32px" viewBox="0 0 32 32" version="1.1" xmlns="http://www.w3.org/2000/svg" xmlns:xlink="http://www.w3.org/1999/xlink">
    <title>headphones</title>
    <g id="Page-1" stroke="none" stroke-width="1" fill="none" fill-rule="evenodd">
        <g id="017-headphones" fill="#000000" fill-rule="nonzero">
            <path d="M9,18 L7,18 L7,32 L9,32 C9.55,32 10,31.55 10,31 L10,19 C10,18.45 9.55,18 9,18 Z" id="Path"></path>
            <path d="M23,18 C22.45,18 22,18.45 22,19 L22,31 C22,31.55 22.45,32 23,32 L25,32 L25,18 L23,18 Z" id="Path"></path>
            <path d="M32,16 C32,7.164 24.836,0 16,0 C7.164,0 0,7.164 0,16 C0,17.92 0.338,19.76 0.958,21.464 C0.35,22.502 0,23.71 0,25 C0,28.526 2.608,31.444 6,31.928 L6,18.072 C5.002,18.214 4.074,18.568 3.258,19.084 C3.09,18.25 3,17.386 3,16.5 C3,9.32 8.82,3.5 16,3.5 C23.18,3.5 29,9.32 29,16.5 C29,17.384 28.912,18.248 28.744,19.084 C27.928,18.566 26.998,18.214 26,18.07 L26,31.928 C29.392,31.442 32,28.526 32,25 C32,23.71 31.65,22.502 31.042,21.464 C31.662,19.758 32,17.918 32,16 Z" id="Path"></path>
        </g>
    </g>
</svg>