<?xml version="1.0" encoding="UTF-8"?>
<svg width="32px" height="32px" viewBox="0 0 32 32" version="1.1" xmlns="http://www.w3.org/2000/svg" xmlns:xlink="http://www.w3.org/1999/xlink">
    <title>hipster</title>
    <g id="Page-1" stroke="none" stroke-width="1" fill="none" fill-rule="evenodd">
        <g id="250-hipster" fill="#000000" fill-rule="nonzero">
            <path d="M16,32 C24.836,32 32,24.836 32,16 C32,7.164 24.836,0 16,0 C7.164,0 0,7.164 0,16 C0,24.836 7.164,32 16,32 Z M16,3 C23.18,3 29,8.82 29,16 C29,23.18 23.18,29 16,29 C8.82,29 3,23.18 3,16 C3,8.82 8.82,3 16,3 Z M8,10 C8,8.896 8.896,8 10,8 C11.104,8 12,8.896 12,10 C12,11.104 11.104,12 10,12 C8.896,12 8,11.104 8,10 Z M20,10 C20,8.896 20.896,8 22,8 C23.104,8 24,8.896 24,10 C24,11.104 23.104,12 22,12 C20.896,12 20,11.104 20,10 Z" id="Shape"></path>
            <path d="M21.122,16.878 C19.95,15.706 18.05,15.706 16.88,16.878 C15.71,18.05 15.708,19.95 16.88,21.12 C16.918,21.158 16.956,21.194 16.996,21.23 C19.7,23.684 26.002,21.172 26.002,18 C24.064,19.25 22.55,18.306 21.124,16.878 L21.122,16.878 Z" id="Path"></path>
            <path d="M10.878,16.878 C12.05,15.706 13.95,15.706 15.12,16.878 C16.29,18.05 16.292,19.95 15.12,21.12 C15.082,21.158 15.044,21.194 15.004,21.23 C12.3,23.684 5.998,21.172 5.998,18 C7.936,19.25 9.45,18.306 10.876,16.878 L10.878,16.878 Z" id="Path"></path>
        </g>
    </g>
</svg>