<?xml version="1.0" encoding="UTF-8"?>
<svg width="32px" height="32px" viewBox="0 0 32 32" version="1.1" xmlns="http://www.w3.org/2000/svg" xmlns:xlink="http://www.w3.org/1999/xlink">
    <title>hipster2</title>
    <g id="Page-1" stroke="none" stroke-width="1" fill="none" fill-rule="evenodd">
        <g id="251-hipster2" fill="#000000" fill-rule="nonzero">
            <path d="M16,0 C7.164,0 0,7.164 0,16 C0,24.836 7.164,32 16,32 C24.836,32 32,24.836 32,16 C32,7.164 24.836,0 16,0 Z M22,8 C23.104,8 24,8.896 24,10 C24,11.104 23.104,12 22,12 C20.896,12 20,11.104 20,10 C20,8.896 20.896,8 22,8 Z M10,8 C11.104,8 12,8.896 12,10 C12,11.104 11.104,12 10,12 C8.896,12 8,11.104 8,10 C8,8.896 8.896,8 10,8 Z M16.994,21.23 C16.954,21.194 16.916,21.158 16.878,21.12 C16.292,20.534 16,19.766 16,19 C16,19.768 15.708,20.536 15.122,21.12 C15.084,21.158 15.046,21.194 15.006,21.23 C12.302,23.684 6,21.172 6,18 C7.938,19.25 9.452,18.306 10.878,16.878 C12.05,15.706 13.95,15.706 15.12,16.878 C15.706,17.464 15.998,18.232 15.998,18.998 C15.998,18.23 16.29,17.462 16.876,16.878 C18.048,15.706 19.948,15.706 21.118,16.878 C22.544,18.306 24.06,19.25 25.996,18 C25.996,21.172 19.694,23.684 16.99,21.23 L16.994,21.23 Z" id="Shape"></path>
        </g>
    </g>
</svg>