<?xml version="1.0" encoding="UTF-8"?>
<svg width="28px" height="32px" viewBox="0 0 28 32" version="1.1" xmlns="http://www.w3.org/2000/svg" xmlns:xlink="http://www.w3.org/1999/xlink">
    <title>hour_glass</title>
    <g id="Page-1" stroke="none" stroke-width="1" fill="none" fill-rule="evenodd">
        <g id="122-hour-glass" fill="#000000" fill-rule="nonzero">
            <path d="M20.78,16 C25.084,13.27 28,8.024 28,2 C28,1.322 27.962,0.656 27.892,0 L0.11,0 C0.038,0.656 0.002,1.322 0.002,2 C0.002,8.024 2.916,13.27 7.22,16 C2.916,18.73 0.002,23.976 0.002,30 C0.002,30.678 0.04,31.344 0.11,32 L27.892,32 C27.964,31.344 28,30.678 28,30 C28,23.976 25.086,18.73 20.782,16 L20.78,16 Z M3,30 C3,24.158 5.506,19.206 10,17.572 L10,14.428 C5.506,12.794 3,7.84 3,2 L3,2 L25,2 C25,7.842 22.494,12.794 18,14.428 L18,17.572 C22.494,19.206 25,24.16 25,30 L3,30 Z M17.364,20.924 C15.124,19.654 15.002,18.006 15,17.006 L15,14.998 C15,13.998 15.118,12.344 17.368,11.072 C18.572,10.374 19.612,9.312 20.4,7.998 L7.6,7.998 C8.39,9.312 9.432,10.374 10.636,11.074 C12.876,12.344 12.998,13.992 13,14.992 L13,17 C13,18 12.882,19.654 10.632,20.926 C8.362,22.244 6.672,24.854 6.16,28 L21.838,28 C21.326,24.852 19.634,22.242 17.362,20.924 L17.364,20.924 Z" id="Shape"></path>
        </g>
    </g>
</svg>