<?xml version="1.0" encoding="UTF-8"?>
<svg width="30px" height="32px" viewBox="0 0 30 32" version="1.1" xmlns="http://www.w3.org/2000/svg" xmlns:xlink="http://www.w3.org/1999/xlink">
    <title>html_five2</title>
    <g id="Page-1" stroke="none" stroke-width="1" fill="none" fill-rule="evenodd">
        <g id="486-html-five2" fill="#000000" fill-rule="nonzero">
            <path d="M0.892,0 L3.46,28.8 L14.984,32 L26.538,28.796 L29.11,0 L0.894,0 L0.892,0 Z M24.336,26.964 L15.048,29.538 L15.048,29.552 L15.024,29.544 L15,29.552 L15,29.538 L5.712,26.964 L3.516,2.356 L26.532,2.356 L24.336,26.964 Z M19.336,16.568 L18.928,21.148 L14.984,22.212 L11.05,21.152 L10.798,18.332 L7.252,18.332 L7.746,23.88 L14.998,25.886 L22.228,23.88 L23.198,13.036 L10.324,13.036 L10.002,9.418 L23.518,9.418 L23.834,5.886 L6.14,5.886 L7.094,16.568 L19.336,16.568 Z" id="Shape"></path>
        </g>
    </g>
</svg>