<?xml version="1.0" encoding="UTF-8"?>
<svg width="32px" height="32px" viewBox="0 0 32 32" version="1.1" xmlns="http://www.w3.org/2000/svg" xmlns:xlink="http://www.w3.org/1999/xlink">
    <title>icomoon</title>
    <g id="Page-1" stroke="none" stroke-width="1" fill="none" fill-rule="evenodd">
        <g id="491-IcoMoon" fill="#000000" fill-rule="nonzero">
            <path d="M8.11,16 C8.11,13.956 9.768,12.298 11.812,12.298 C13.856,12.298 15.514,13.956 15.514,16 C15.514,18.044 13.856,19.702 11.812,19.702 C9.768,19.702 8.11,18.044 8.11,16 L8.11,16 Z M16,0 C7.164,0 0,7.164 0,16 C0,24.836 7.164,32 16,32 C24.836,32 32,24.836 32,16 C32,7.164 24.836,0 16,0 Z M11.856,29.978 C7.044,27.178 3.81,21.968 3.81,16 C3.81,10.032 7.044,4.822 11.856,2.022 C16.668,4.82 19.906,10.032 19.906,16 C19.906,21.968 16.67,27.178 11.856,29.978 Z" id="Shape"></path>
        </g>
    </g>
</svg>