<?xml version="1.0" encoding="UTF-8"?>
<svg width="36px" height="32px" viewBox="0 0 36 32" version="1.1" xmlns="http://www.w3.org/2000/svg" xmlns:xlink="http://www.w3.org/1999/xlink">
    <title>images</title>
    <g id="Page-1" stroke="none" stroke-width="1" fill="none" fill-rule="evenodd">
        <g id="015-images" fill="#000000" fill-rule="nonzero">
            <path d="M34,4 L32,4 L32,2 C32,0.9 31.1,0 30,0 L2,0 C0.9,0 0,0.9 0,2 L0,26 C0,27.1 0.9,28 2,28 L4,28 L4,30 C4,31.1 4.9,32 6,32 L34,32 C35.1,32 36,31.1 36,30 L36,6 C36,4.9 35.1,4 34,4 Z M4,6 L4,26 L2.004,26 C2.002,25.998 2.002,25.998 2,25.996 L2,2.004 C2.002,2.002 2.002,2.002 2.004,2 L29.996,2 C29.998,2.002 29.998,2.002 30,2.004 L30,4 L6,4 C4.9,4 4,4.9 4,6 L4,6 Z M34,29.996 C33.998,29.998 33.998,29.998 33.996,30 L6.004,30 C6.002,29.998 6.002,29.998 6,29.996 L6,6.004 C6.002,6.002 6.002,6.002 6.004,6 L33.996,6 C33.998,6.002 33.998,6.002 34,6.004 L34,29.996 Z" id="Shape"></path>
            <path d="M30,11 C30,12.656 28.656,14 27,14 C25.344,14 24,12.656 24,11 C24,9.344 25.344,8 27,8 C28.656,8 30,9.344 30,11 Z" id="Path"></path>
            <polygon id="Path" points="32 28 8 28 8 24 15 12 23 22 25 22 32 16"></polygon>
        </g>
    </g>
</svg>