<?xml version="1.0" encoding="UTF-8"?>
<svg width="32px" height="28px" viewBox="0 0 32 28" version="1.1" xmlns="http://www.w3.org/2000/svg" xmlns:xlink="http://www.w3.org/1999/xlink">
    <title>image</title>
    <g id="Page-1" stroke="none" stroke-width="1" fill="none" fill-rule="evenodd">
        <g id="014-image" fill="#000000" fill-rule="nonzero">
            <path d="M29.996,2 C29.998,2.002 29.998,2.002 30,2.004 L30,25.996 C29.998,25.998 29.998,25.998 29.996,26 L2.004,26 C2.002,25.998 2.002,25.998 2,25.996 L2,2.004 C2.002,2.002 2.002,2.002 2.004,2 L29.996,2 Z M30,0 L2,0 C0.9,0 0,0.9 0,2 L0,26 C0,27.1 0.9,28 2,28 L30,28 C31.1,28 32,27.1 32,26 L32,2 C32,0.9 31.1,0 30,0 L30,0 Z" id="Shape"></path>
            <path d="M26,7 C26,8.656 24.656,10 23,10 C21.344,10 20,8.656 20,7 C20,5.344 21.344,4 23,4 C24.656,4 26,5.344 26,7 Z" id="Path"></path>
            <polygon id="Path" points="28 24 4 24 4 20 11 8 19 18 21 18 28 12"></polygon>
        </g>
    </g>
</svg>