<?xml version="1.0" encoding="UTF-8"?>
<svg width="32px" height="28px" viewBox="0 0 32 28" version="1.1" xmlns="http://www.w3.org/2000/svg" xmlns:xlink="http://www.w3.org/1999/xlink">
    <title>indent_decrease</title>
    <g id="Page-1" stroke="none" stroke-width="1" fill="none" fill-rule="evenodd">
        <g id="381-indent-decrease" fill="#000000" fill-rule="nonzero">
            <path d="M0,0 L32,0 L32,4 L0,4 L0,0 Z M12,6 L32,6 L32,10 L12,10 L12,6 Z M12,12 L32,12 L32,16 L12,16 L12,12 Z M12,18 L32,18 L32,22 L12,22 L12,18 Z M0,24 L32,24 L32,28 L0,28 L0,24 Z M8,8 L8,20 L0,14 L8,8 Z" id="Shape"></path>
        </g>
    </g>
</svg>