<?xml version="1.0" encoding="UTF-8"?>
<svg width="32px" height="16px" viewBox="0 0 32 16" version="1.1" xmlns="http://www.w3.org/2000/svg" xmlns:xlink="http://www.w3.org/1999/xlink">
    <title>infinite</title>
    <g id="Page-1" stroke="none" stroke-width="1" fill="none" fill-rule="evenodd">
        <g id="304-infinite" fill="#000000" fill-rule="nonzero">
            <path d="M24.5,15.5 C22.496,15.5 20.614,14.72 19.196,13.304 L16,10.108 L12.804,13.304 C11.388,14.72 9.504,15.5 7.5,15.5 C5.496,15.5 3.612,14.72 2.196,13.304 C0.78,11.888 -1.77635684e-15,10.004 -1.77635684e-15,8 C-1.77635684e-15,5.996 0.78,4.114 2.196,2.696 C3.612,1.28 5.496,0.5 7.5,0.5 C9.504,0.5 11.386,1.28 12.804,2.696 L16,5.892 L19.196,2.696 C20.612,1.28 22.496,0.5 24.5,0.5 C26.504,0.5 28.388,1.28 29.804,2.696 C31.22,4.112 32,5.996 32,8 C32,10.004 31.22,11.886 29.804,13.304 C28.388,14.72 26.504,15.5 24.5,15.5 Z M21.304,11.196 C22.158,12.05 23.292,12.52 24.5,12.52 C25.708,12.52 26.842,12.05 27.696,11.196 C28.55,10.342 29.02,9.208 29.02,8 C29.02,6.792 28.55,5.658 27.696,4.804 C26.842,3.95 25.708,3.48 24.5,3.48 C23.292,3.48 22.158,3.95 21.304,4.804 L18.108,8 L21.304,11.196 Z M7.5,3.48 C6.292,3.48 5.158,3.95 4.304,4.804 C3.45,5.658 2.98,6.792 2.98,8 C2.98,9.208 3.45,10.342 4.304,11.196 C5.158,12.05 6.292,12.52 7.5,12.52 C8.708,12.52 9.842,12.05 10.696,11.196 L13.892,8 L10.696,4.804 C9.842,3.95 8.708,3.48 7.5,3.48 L7.5,3.48 Z" id="Shape"></path>
        </g>
    </g>
</svg>