<?xml version="1.0" encoding="UTF-8"?>
<svg width="32px" height="32px" viewBox="0 0 32 32" version="1.1" xmlns="http://www.w3.org/2000/svg" xmlns:xlink="http://www.w3.org/1999/xlink">
    <title>info</title>
    <g id="Page-1" stroke="none" stroke-width="1" fill="none" fill-rule="evenodd">
        <g id="269-info" fill="#000000" fill-rule="nonzero">
            <path d="M14,9.5 C14,8.676 14.676,8 15.5,8 L16.5,8 C17.324,8 18,8.676 18,9.5 L18,10.5 C18,11.324 17.324,12 16.5,12 L15.5,12 C14.676,12 14,11.324 14,10.5 L14,9.5 Z" id="Path"></path>
            <polygon id="Path" points="20 24 12 24 12 22 14 22 14 16 12 16 12 14 18 14 18 22 20 22"></polygon>
            <path d="M16,0 C7.164,0 0,7.164 0,16 C0,24.836 7.164,32 16,32 C24.836,32 32,24.836 32,16 C32,7.164 24.836,0 16,0 Z M16,29 C8.82,29 3,23.18 3,16 C3,8.82 8.82,3 16,3 C23.18,3 29,8.82 29,16 C29,23.18 23.18,29 16,29 Z" id="Shape"></path>
        </g>
    </g>
</svg>