<?xml version="1.0" encoding="UTF-8"?>
<svg width="32px" height="32px" viewBox="0 0 32 32" version="1.1" xmlns="http://www.w3.org/2000/svg" xmlns:xlink="http://www.w3.org/1999/xlink">
    <title>insert_template</title>
    <g id="Page-1" stroke="none" stroke-width="1" fill="none" fill-rule="evenodd">
        <g id="371-insert-template" fill="#000000" fill-rule="nonzero">
            <path d="M12,6 L16,6 L16,8 L12,8 L12,6 Z M18,6 L22,6 L22,8 L18,8 L18,6 Z M28,6 L28,14 L22,14 L22,12 L26,12 L26,8 L24,8 L24,6 L28,6 Z M10,12 L14,12 L14,14 L10,14 L10,12 Z M16,12 L20,12 L20,14 L16,14 L16,12 Z M6,8 L6,12 L8,12 L8,14 L4,14 L4,6 L10,6 L10,8 L6,8 Z M12,18 L16,18 L16,20 L12,20 L12,18 Z M18,18 L22,18 L22,20 L18,20 L18,18 Z M28,18 L28,26 L22,26 L22,24 L26,24 L26,20 L24,20 L24,18 L28,18 Z M10,24 L14,24 L14,26 L10,26 L10,24 Z M16,24 L20,24 L20,26 L16,26 L16,24 Z M6,20 L6,24 L8,24 L8,26 L4,26 L4,18 L10,18 L10,20 L6,20 Z M30,2 L2,2 L2,30 L30,30 L30,2 Z M32,0 L32,0 L32,32 L0,32 L0,0 L32,0 Z" id="Shape"></path>
        </g>
    </g>
</svg>