<?xml version="1.0" encoding="UTF-8"?>
<svg width="32px" height="32px" viewBox="0 0 32 32" version="1.1" xmlns="http://www.w3.org/2000/svg" xmlns:xlink="http://www.w3.org/1999/xlink">
    <title>instagram</title>
    <g id="Page-1" stroke="none" stroke-width="1" fill="none" fill-rule="evenodd">
        <g id="403-instagram" fill="#000000" fill-rule="nonzero">
            <path d="M29,0 L3,0 C1.35,0 0,1.35 0,3 L0,29 C0,30.65 1.35,32 3,32 L29,32 C30.65,32 32,30.65 32,29 L32,3 C32,1.35 30.65,0 29,0 Z M22,5 C22,4.45 22.45,4 23,4 L27,4 C27.55,4 28,4.45 28,5 L28,9 C28,9.55 27.55,10 27,10 L23,10 C22.45,10 22,9.55 22,9 L22,5 Z M16,10 C19.312,10 22,12.688 22,16 C22,19.312 19.312,22 16,22 C12.688,22 10,19.312 10,16 C10,12.688 12.688,10 16,10 Z M28,27 L28,27 C28,27.55 27.55,28 27,28 L5,28 C4.45,28 4,27.55 4,27 L4,27 L4,14 L6.2,14 C6.068,14.644 6,15.312 6,16 C6,21.524 10.474,26 16,26 C21.526,26 26,21.524 26,16 C26,15.312 25.932,14.644 25.8,14 L28,14 L28,27 Z" id="Shape"></path>
        </g>
    </g>
</svg>