<?xml version="1.0" encoding="UTF-8"?>
<svg width="32px" height="32px" viewBox="0 0 32 32" version="1.1" xmlns="http://www.w3.org/2000/svg" xmlns:xlink="http://www.w3.org/1999/xlink">
    <title>joomla</title>
    <g id="Page-1" stroke="none" stroke-width="1" fill="none" fill-rule="evenodd">
        <g id="438-joomla" fill="#000000" fill-rule="nonzero">
            <path d="M8.312,8.646 C9.338,7.62 11,7.62 12.024,8.646 L12.268,8.892 L15.428,5.73 L15.182,5.484 C13.382,3.68 10.854,3.05 8.544,3.592 C8.212,1.556 6.448,1.77635684e-15 4.32,1.77635684e-15 C1.956,1.77635684e-15 0.04,1.92 0.04,4.286 C0.04,6.328 1.464,8.036 3.374,8.468 C2.65,10.888 3.242,13.62 5.15,15.53 L12.27,22.652 L15.426,19.49 L8.306,12.368 C7.284,11.346 7.282,9.676 8.312,8.646 Z M31.96,4.286 C31.96,1.918 30.044,0 27.68,0 C25.516,0 23.728,1.608 23.44,3.694 C21.032,2.986 18.322,3.584 16.42,5.488 L9.3,12.61 L12.46,15.772 L19.578,8.652 C20.608,7.622 22.266,7.624 23.286,8.646 C24.31,9.672 24.31,11.338 23.284,12.364 L23.04,12.608 L26.196,15.772 L26.442,15.524 C28.332,13.632 28.932,10.938 28.242,8.536 C30.34,8.26 31.958,6.462 31.958,4.286 L31.96,4.286 Z M28.32,23.47 C28.886,21.144 28.258,18.584 26.442,16.766 L19.332,9.642 L16.172,12.802 L23.282,19.928 C24.312,20.96 24.31,22.618 23.288,23.642 C22.262,24.668 20.6,24.668 19.574,23.642 L19.332,23.398 L16.176,26.562 L16.418,26.804 C18.34,28.728 21.094,29.318 23.524,28.57 C23.918,30.528 25.646,32.002 27.72,32.002 C30.082,32.002 32,30.084 32,27.716 C32,25.554 30.4,23.764 28.32,23.472 L28.32,23.47 Z M19.136,16.522 L12.026,23.646 C11.004,24.67 9.338,24.672 8.308,23.642 C7.282,22.614 7.282,20.952 8.306,19.924 L8.55,19.682 L5.392,16.522 L5.15,16.762 C3.314,18.6 2.694,21.194 3.292,23.542 C1.404,23.988 0,25.686 0,27.714 C0,30.082 1.916,32 4.28,32 C6.314,31.998 8.018,30.58 8.454,28.676 C10.788,29.256 13.36,28.636 15.184,26.808 L22.294,19.684 L19.138,16.52 L19.136,16.522 Z" id="Shape"></path>
        </g>
    </g>
</svg>