<?xml version="1.0" encoding="UTF-8"?>
<svg width="32px" height="32px" viewBox="0 0 32 32" version="1.1" xmlns="http://www.w3.org/2000/svg" xmlns:xlink="http://www.w3.org/1999/xlink">
    <title>key2</title>
    <g id="Page-1" stroke="none" stroke-width="1" fill="none" fill-rule="evenodd">
        <g id="143-key2" fill="#000000" fill-rule="nonzero">
            <path d="M31.316,9.82 L28.156,6.66 C27.382,5.886 26.114,4.618 25.338,3.842 L22.178,0.682 C21.404,-0.092 20.024,-0.23 19.112,0.378 L10.474,6.138 C9.562,6.746 9.218,8.046 9.708,9.026 L11.91,13.432 C11.978,13.566 12.056,13.71 12.14,13.858 L0.998,25 L-0.002,32 L5.998,32 L5.998,30 L9.998,30 L9.998,26 L13.998,26 L13.998,22 L17.998,22 L17.998,19.776 C18.198,19.896 18.39,20.002 18.566,20.09 L22.972,22.292 C23.952,22.782 25.252,22.436 25.86,21.526 L31.62,12.888 C32.228,11.976 32.092,10.596 31.316,9.822 L31.316,9.82 Z M4.708,26.708 L3.294,25.294 L13.03,15.558 L14.444,16.972 L4.708,26.708 Z M28.656,13.242 L27.242,14.656 C26.854,15.044 26.216,15.044 25.828,14.656 L17.342,6.17 C16.954,5.782 16.954,5.144 17.342,4.756 L18.756,3.342 C19.144,2.954 19.782,2.954 20.17,3.342 L28.656,11.828 C29.044,12.216 29.044,12.854 28.656,13.242 Z" id="Shape"></path>
        </g>
    </g>
</svg>