<?xml version="1.0" encoding="UTF-8"?>
<svg width="36px" height="24px" viewBox="0 0 36 24" version="1.1" xmlns="http://www.w3.org/2000/svg" xmlns:xlink="http://www.w3.org/1999/xlink">
    <title>keyboard</title>
    <g id="Page-1" stroke="none" stroke-width="1" fill="none" fill-rule="evenodd">
        <g id="086-keyboard" fill="#000000" fill-rule="nonzero">
            <path d="M34,0 L2,0 C0.9,0 0,0.9 0,2 L0,22 C0,23.1 0.9,24 2,24 L34,24 C35.1,24 36,23.1 36,22 L36,2 C36,0.9 35.1,0 34,0 Z M20,4 L24,4 L24,8 L20,8 L20,4 Z M26,10 L26,14 L22,14 L22,10 L26,10 Z M14,4 L18,4 L18,8 L14,8 L14,4 Z M20,10 L20,14 L16,14 L16,10 L20,10 Z M8,4 L12,4 L12,8 L8,8 L8,4 Z M14,10 L14,14 L10,14 L10,10 L14,10 Z M4,4 L6,4 L6,8 L4,8 L4,4 Z M4,10 L8,10 L8,14 L4,14 L4,10 Z M6,20 L4,20 L4,16 L6,16 L6,20 Z M24,20 L8,20 L8,16 L24,16 L24,20 Z M32,20 L26,20 L26,16 L32,16 L32,20 Z M32,14 L28,14 L28,10 L32,10 L32,14 Z M32,8 L26,8 L26,4 L32,4 L32,8 Z" id="Shape"></path>
        </g>
    </g>
</svg>