<?xml version="1.0" encoding="UTF-8"?>
<svg width="30px" height="32px" viewBox="0 0 30 32" version="1.1" xmlns="http://www.w3.org/2000/svg" xmlns:xlink="http://www.w3.org/1999/xlink">
    <title>lab</title>
    <g id="Page-1" stroke="none" stroke-width="1" fill="none" fill-rule="evenodd">
        <g id="171-lab" fill="#000000" fill-rule="nonzero">
            <path d="M28.884,25.14 L19,8.67 L19,2 L20,2 C20.55,2 21,1.55 21,1 C21,0.45 20.55,0 20,0 L10,0 C9.45,0 9,0.45 9,1 C9,1.55 9.45,2 10,2 L11,2 L11,8.67 L1.116,25.14 C-1.148,28.912 0.6,32 5,32 L25,32 C29.4,32 31.148,28.914 28.884,25.14 Z M6.532,20 L13,9.22 L13,2 L17,2 L17,9.22 L23.468,20 L6.532,20 Z" id="Shape"></path>
        </g>
    </g>
</svg>