<?xml version="1.0" encoding="UTF-8"?>
<svg width="32px" height="32px" viewBox="0 0 32 32" version="1.1" xmlns="http://www.w3.org/2000/svg" xmlns:xlink="http://www.w3.org/1999/xlink">
    <title>lanyrd</title>
    <g id="Page-1" stroke="none" stroke-width="1" fill="none" fill-rule="evenodd">
        <g id="419-lanyrd" fill="#000000" fill-rule="nonzero">
            <path d="M29,0 L3,0 C1.35,0 0,1.35 0,3 L0,29 C0,30.65 1.35,32 3,32 L29,32 C30.65,32 32,30.65 32,29 L32,3 C32,1.35 30.65,0 29,0 Z M25.7,24.024 L14.812,27.586 C12.324,28.398 12.074,28.268 10.95,24.786 L8.2,16.268 C7.544,14.25 5.544,8.812 5.206,7.768 C4.58,5.83 4.58,5.724 8.238,4.536 C11.1,3.598 11.22,3.63 12.256,6.862 C13.094,9.462 13.632,11.562 14.494,14.218 L16.838,21.468 L24.326,19.018 C25.802,18.53 26.294,18.556 26.714,20.374 L27.014,21.75 C27.364,23.344 26.558,23.75 25.702,24.024 L25.7,24.024 Z" id="Shape"></path>
        </g>
    </g>
</svg>