<?xml version="1.0" encoding="UTF-8"?>
<svg width="32px" height="24px" viewBox="0 0 32 24" version="1.1" xmlns="http://www.w3.org/2000/svg" xmlns:xlink="http://www.w3.org/1999/xlink">
    <title>laptop</title>
    <g id="Page-1" stroke="none" stroke-width="1" fill="none" fill-rule="evenodd">
        <g id="088-laptop" fill="#000000" fill-rule="nonzero">
            <path d="M28,18 L28,2 C28,0.9 27.1,0 26,0 L6,0 C4.9,0 4,0.9 4,2 L4,18 L0,18 L0,24 L32,24 L32,18 L28,18 Z M20,22 L12,22 L12,20 L20,20 L20,22 Z M26,18 L6,18 L6,2.004 C6.002,2.002 6.002,2.002 6.004,2 L25.996,2 C25.998,2.002 25.998,2.002 26,2.004 L26,18 L26,18 Z" id="Shape"></path>
        </g>
    </g>
</svg>