<?xml version="1.0" encoding="UTF-8"?>
<svg width="32px" height="18px" viewBox="0 0 32 18" version="1.1" xmlns="http://www.w3.org/2000/svg" xmlns:xlink="http://www.w3.org/1999/xlink">
    <title>lastfm</title>
    <g id="Page-1" stroke="none" stroke-width="1" fill="none" fill-rule="evenodd">
        <g id="460-lastfm" fill="#000000" fill-rule="nonzero">
            <path d="M14.112,15.944 L12.936,12.756 C12.936,12.756 11.03,14.882 8.174,14.882 C5.642,14.882 3.848,12.682 3.848,9.164 C3.848,4.658 6.122,3.046 8.354,3.046 C11.578,3.046 12.604,5.134 13.486,7.808 L14.662,11.47 C15.838,15.026 18.038,17.882 24.374,17.882 C28.918,17.882 32,16.488 32,12.826 C32,9.858 30.312,8.32 27.162,7.582 L24.818,7.07 C23.206,6.702 22.73,6.044 22.73,4.944 C22.73,3.7 23.718,2.962 25.33,2.962 C27.092,2.962 28.042,3.624 28.186,5.2 L31.848,4.762 C31.554,1.462 29.28,0.106 25.542,0.106 C22.242,0.106 19.018,1.35 19.018,5.35 C19.018,7.844 20.23,9.418 23.268,10.15 L25.762,10.738 C27.63,11.176 28.256,11.95 28.256,13.012 C28.256,14.368 26.938,14.918 24.444,14.918 C20.744,14.918 19.2,12.974 18.326,10.3 L17.114,6.638 C15.582,1.87 13.126,0.112 8.252,0.112 C2.864,0.112 0.002,3.518 0.002,9.312 C0.002,14.88 2.858,17.886 7.996,17.886 C12.134,17.886 14.114,15.942 14.114,15.942 L14.114,15.942 L14.112,15.944 Z" id="Path"></path>
        </g>
    </g>
</svg>