<?xml version="1.0" encoding="UTF-8"?>
<svg width="32px" height="32px" viewBox="0 0 32 32" version="1.1" xmlns="http://www.w3.org/2000/svg" xmlns:xlink="http://www.w3.org/1999/xlink">
    <title>lastfm2</title>
    <g id="Page-1" stroke="none" stroke-width="1" fill="none" fill-rule="evenodd">
        <g id="461-lastfm2" fill="#000000" fill-rule="nonzero">
            <path d="M29,0 L3,0 C1.35,0 0,1.35 0,3 L0,29 C0,30.65 1.35,32 3,32 L29,32 C30.65,32 32,30.65 32,29 L32,3 C32,1.35 30.65,0 29,0 Z M23.332,23.774 C17.782,23.774 15.858,21.274 14.832,18.162 L13.806,14.956 C13.038,12.612 12.138,10.788 9.318,10.788 C7.362,10.788 5.374,12.2 5.374,16.144 C5.374,19.226 6.942,21.15 9.162,21.15 C11.662,21.15 13.33,19.288 13.33,19.288 L14.356,22.076 C14.356,22.076 12.624,23.776 9,23.776 C4.5,23.776 2,21.15 2,16.276 C2,11.208 4.5,8.226 9.218,8.226 C13.486,8.226 15.63,9.764 16.98,13.932 L18.036,17.138 C18.804,19.482 20.154,21.182 23.392,21.182 C25.574,21.182 26.73,20.7 26.73,19.514 C26.73,18.582 26.186,17.908 24.548,17.526 L22.366,17.014 C19.704,16.37 18.648,14.996 18.648,12.814 C18.648,9.32 21.472,8.226 24.354,8.226 C27.622,8.226 29.616,9.414 29.872,12.302 L26.666,12.69 C26.534,11.308 25.704,10.734 24.166,10.734 C22.754,10.734 21.892,11.378 21.892,12.466 C21.892,13.428 22.31,14.004 23.716,14.328 L25.766,14.778 C28.522,15.422 29.998,16.766 29.998,19.366 C29.998,22.56 27.304,23.778 23.33,23.778 L23.332,23.774 Z" id="Shape"></path>
        </g>
    </g>
</svg>