<?xml version="1.0" encoding="UTF-8"?>
<svg width="32px" height="33px" viewBox="0 0 32 33" version="1.1" xmlns="http://www.w3.org/2000/svg" xmlns:xlink="http://www.w3.org/1999/xlink">
    <title>leaf</title>
    <g id="Page-1" stroke="none" stroke-width="1" fill="none" fill-rule="evenodd">
        <g id="165-leaf" fill="#000000" fill-rule="nonzero">
            <path d="M31.604,4.204 C28.144,1.582 22.818,0.016 17.356,0.016 C10.602,0.016 5.098,2.374 2.258,6.486 C0.924,8.416 0.186,10.704 0.064,13.282 C-0.044,15.578 0.342,18.118 1.21,20.85 C4.174,11.962 12.454,5.004 22,5.004 C22,5.004 13.068,7.354 7.452,14.636 C7.448,14.64 7.374,14.732 7.246,14.908 C6.118,16.416 5.136,18.132 4.4,20.074 C3.154,23.038 2,27.104 2,32.004 L6,32.004 C6,32.004 5.392,28.184 6.448,23.792 C8.194,24.028 9.756,24.146 11.162,24.146 C14.84,24.146 17.454,23.35 19.392,21.642 C21.128,20.112 22.086,18.054 23.1,15.878 C24.648,12.552 26.402,8.784 31.496,5.874 C31.788,5.708 31.976,5.406 31.998,5.07 C32.02,4.734 31.872,4.412 31.604,4.208 L31.604,4.204 Z" id="Path"></path>
        </g>
    </g>
</svg>