<?xml version="1.0" encoding="UTF-8"?>
<svg width="34px" height="32px" viewBox="0 0 34 32" version="1.1" xmlns="http://www.w3.org/2000/svg" xmlns:xlink="http://www.w3.org/1999/xlink">
    <title>library</title>
    <g id="Page-1" stroke="none" stroke-width="1" fill="none" fill-rule="evenodd">
        <g id="034-library" fill="#000000" fill-rule="nonzero">
            <polygon id="Path" points="32 30 32 28 30 28 30 16 32 16 32 14 26 14 26 16 28 16 28 28 22 28 22 16 24 16 24 14 18 14 18 16 20 16 20 28 14 28 14 16 16 16 16 14 10 14 10 16 12 16 12 28 6 28 6 16 8 16 8 14 2 14 2 16 4 16 4 28 2 28 2 30 0 30 0 32 34 32 34 30"></polygon>
            <polygon id="Path" points="16 0 18 0 34 10 34 12 0 12 0 10"></polygon>
        </g>
    </g>
</svg>