<?xml version="1.0" encoding="UTF-8"?>
<svg width="26px" height="32px" viewBox="0 0 26 32" version="1.1" xmlns="http://www.w3.org/2000/svg" xmlns:xlink="http://www.w3.org/1999/xlink">
    <title>libreoffice</title>
    <g id="Page-1" stroke="none" stroke-width="1" fill="none" fill-rule="evenodd">
        <g id="484-libreoffice" fill="#000000" fill-rule="nonzero">
            <path d="M14.708,0.708 C14.32,0.32 13.55,0 13,0 L1,0 C0.45,0 -1.77635684e-15,0.45 -1.77635684e-15,1 L-1.77635684e-15,31 C-1.77635684e-15,31.55 0.45,32 1,32 L25,32 C25.55,32 26,31.55 26,31 L26,13 C26,12.45 25.682,11.682 25.292,11.292 L14.706,0.706 L14.708,0.708 Z M24,30 L2,30 L2,2 L12.974,2 C13.066,2.016 13.236,2.086 13.312,2.14 L23.86,12.688 C23.914,12.764 23.984,12.934 24,13.026 L24,30 Z M25,0 L19,0 C18.45,0 18.318,0.318 18.708,0.708 L25.294,7.294 C25.682,7.682 26.002,7.552 26.002,7.002 L26.002,1.002 C26.002,0.452 25.552,0.002 25.002,0.002 L25,0 Z" id="Shape"></path>
        </g>
    </g>
</svg>