<?xml version="1.0" encoding="UTF-8"?>
<svg width="32px" height="32px" viewBox="0 0 32 32" version="1.1" xmlns="http://www.w3.org/2000/svg" xmlns:xlink="http://www.w3.org/1999/xlink">
    <title>lifebuoy</title>
    <g id="Page-1" stroke="none" stroke-width="1" fill="none" fill-rule="evenodd">
        <g id="066-lifebuoy" fill="#000000" fill-rule="nonzero">
            <path d="M16,0 C7.164,0 0,7.164 0,16 C0,24.836 7.164,32 16,32 C24.836,32 32,24.836 32,16 C32,7.164 24.836,0 16,0 Z M10,16 C10,12.686 12.686,10 16,10 C19.314,10 22,12.686 22,16 C22,19.314 19.314,22 16,22 C12.686,22 10,19.314 10,16 Z M28.936,21.358 L28.936,21.358 L23.392,19.062 C23.784,18.118 24,17.084 24,16 C24,14.916 23.784,13.882 23.392,12.938 L28.936,10.642 C29.62,12.292 30,14.102 30,16 C30,17.898 29.622,19.708 28.936,21.358 L28.936,21.358 Z M21.358,3.064 L21.358,3.064 L21.358,3.064 L19.062,8.608 C18.118,8.216 17.084,8 16,8 C14.916,8 13.882,8.216 12.938,8.608 L10.642,3.064 C12.292,2.38 14.102,2 16,2 C17.898,2 19.708,2.378 21.358,3.064 Z M3.064,10.642 L8.608,12.938 C8.216,13.882 8,14.916 8,16 C8,17.084 8.216,18.118 8.608,19.062 L3.064,21.358 C2.38,19.708 2,17.898 2,16 C2,14.102 2.378,12.292 3.064,10.642 L3.064,10.642 Z M10.642,28.936 L12.938,23.392 C13.882,23.784 14.916,24 16,24 C17.084,24 18.118,23.784 19.062,23.392 L21.358,28.936 C19.708,29.62 17.898,30 16,30 C14.102,30 12.292,29.622 10.642,28.936 L10.642,28.936 Z" id="Shape"></path>
        </g>
    </g>
</svg>