<?xml version="1.0" encoding="UTF-8"?>
<svg width="25px" height="30px" viewBox="0 0 25 30" version="1.1" xmlns="http://www.w3.org/2000/svg" xmlns:xlink="http://www.w3.org/1999/xlink">
    <title>ligature</title>
    <g id="Page-1" stroke="none" stroke-width="1" fill="none" fill-rule="evenodd">
        <g id="350-ligature" fill="#000000" fill-rule="nonzero">
            <path d="M21,25.244 C21,25.242 21,25.242 21,25.24 L20.99,11.598 L17.006,11.792 L9.134,11.792 L9.134,11.12 C9.134,8.572 9.316,6.028 9.672,5.036 C9.918,4.35 10.378,3.732 11.038,3.198 C11.682,2.676 12.324,2.412 12.948,2.412 C13.472,2.412 13.908,2.502 14.242,2.68 C14.712,2.948 15.17,3.398 15.606,4.018 C16.76,5.658 17.23,6.094 17.484,6.28 C17.916,6.596 18.438,6.756 19.036,6.756 C19.62,6.756 20.128,6.538 20.55,6.108 C20.968,5.682 21.18,5.15 21.18,4.524 C21.18,3.854 20.902,3.142 20.352,2.41 C19.816,1.694 18.986,1.106 17.888,0.66 C16.816,0.224 15.608,0.002 14.302,0.002 C12.404,0.002 10.676,0.458 9.166,1.358 C7.652,2.26 6.492,3.512 5.716,5.084 C4.998,6.54 5.05,9.294 5.006,11.794 L1.076,11.794 L1.076,14.026 L5,14.026 L5,24.172 C5,26.412 4.316,27.016 4.056,27.338 C3.698,27.782 3.038,28.248 2.168,28.248 L0.96,28.248 L0.96,30.004 L13.002,30.004 L13.002,28.248 L12.792,28.248 C9.944,28.248 9.136,27.94 9.136,24.472 C9.136,24.472 9.136,24.47 9.136,24.47 L9.134,14.026 L13.516,14.026 C15.842,14.026 16.376,14.134 16.498,14.18 C16.646,14.236 16.836,14.33 16.906,14.466 C16.934,14.518 17.068,15.248 17.068,17.058 L17.068,24.892 C17.068,26.718 16.846,27.326 16.71,27.53 C16.42,27.974 16.072,28.22 15.002,28.246 L15.002,30.004 L24.178,30.004 L24.178,28.258 C21.316,28.258 21.002,27.952 21.002,25.248 L21,25.244 Z" id="Path"></path>
        </g>
    </g>
</svg>