<?xml version="1.0" encoding="UTF-8"?>
<svg width="22px" height="28px" viewBox="0 0 22 28" version="1.1" xmlns="http://www.w3.org/2000/svg" xmlns:xlink="http://www.w3.org/1999/xlink">
    <title>ligature2</title>
    <g id="Page-1" stroke="none" stroke-width="1" fill="none" fill-rule="evenodd">
        <g id="351-ligature2" fill="#000000" fill-rule="nonzero">
            <path d="M21.728,26.67 C21.362,26.67 19.114,26.258 18.978,25.754 C18.656,24.516 18.612,23.186 18.612,21.674 L18.612,4.768 C18.612,2.246 19.116,0.78 19.116,0.78 C19.07,0.55 18.84,0.046 18.566,0.046 L18.428,0.046 C18.29,0.046 16.686,1.054 15.218,1.054 C14.026,1.054 13.284,0 11.908,0 C6.124,0 3.41,4.698 3.41,11.344 L3.41,11.69 C3.41,11.828 3.318,11.966 3.18,11.966 L1.3,11.966 C1.07,11.966 0.612,13.25 0.612,13.846 C0.612,14.03 0.658,14.12 0.75,14.12 L3.18,14.12 C3.318,14.12 3.41,14.304 3.41,14.44 C3.41,18.52 3.364,22.544 3.364,22.544 C3.364,23.186 3.318,24.606 3.044,25.754 C2.906,26.258 0.798,26.67 0.248,26.67 C0.018,26.67 0.018,27.77 0.248,28 C2.128,27.908 3.366,27.77 5.246,27.77 C6.988,27.77 8.318,27.908 10.152,28 C10.244,27.724 10.244,26.67 10.014,26.67 C9.648,26.67 7.4,26.258 7.264,25.754 C6.944,24.516 6.944,23.186 6.898,21.674 L6.898,14.396 C6.898,14.258 7.036,14.12 7.174,14.12 L11.896,14.12 C12.216,13.478 12.446,12.698 12.446,12.286 C12.446,12.01 12.446,11.966 12.216,11.966 L7.128,11.966 C7.036,11.966 6.898,11.828 6.898,11.736 L6.898,10.086 C6.898,6.006 8.57,2.412 11.366,2.412 C13.346,2.412 15.074,3.696 15.074,8.598 C15.074,8.598 15.074,8.598 15.074,8.598 C15.08,8.724 15.084,8.826 15.084,8.894 L15.084,22.544 C15.084,23.186 15.038,24.606 14.764,25.754 C14.626,26.258 12.518,26.67 11.968,26.67 C11.738,26.67 11.738,27.77 11.968,28 C13.848,27.908 15.086,27.77 16.966,27.77 C18.708,27.77 20.038,27.908 21.872,28 C21.964,27.726 21.964,26.67 21.734,26.67 L21.728,26.67 Z" id="Path"></path>
        </g>
    </g>
</svg>