<?xml version="1.0" encoding="UTF-8"?>
<svg width="28px" height="26px" viewBox="0 0 28 26" version="1.1" xmlns="http://www.w3.org/2000/svg" xmlns:xlink="http://www.w3.org/1999/xlink">
    <title>linkedin2</title>
    <g id="Page-1" stroke="none" stroke-width="1" fill="none" fill-rule="evenodd">
        <g id="459-linkedin2" fill="#000000" fill-rule="nonzero">
            <path d="M10,8 L15.534,8 L15.534,10.836 L15.614,10.836 C16.384,9.454 18.268,8 21.078,8 C26.92,8 28,11.636 28,16.366 L28,26 L22.23,26 L22.23,17.46 C22.23,15.424 22.188,12.802 19.23,12.802 C16.226,12.802 15.766,15.02 15.766,17.312 L15.766,26 L10,26 L10,8 Z" id="Path"></path>
            <polygon id="Path" points="0 8 6 8 6 26 0 26"></polygon>
            <path d="M6,3 C6,4.656 4.656,6 3,6 C1.344,6 0,4.656 0,3 C0,1.344 1.344,0 3,0 C4.656,0 6,1.344 6,3 Z" id="Path"></path>
        </g>
    </g>
</svg>