<?xml version="1.0" encoding="UTF-8"?>
<svg width="32px" height="32px" viewBox="0 0 32 32" version="1.1" xmlns="http://www.w3.org/2000/svg" xmlns:xlink="http://www.w3.org/1999/xlink">
    <title>link</title>
    <g id="Page-1" stroke="none" stroke-width="1" fill="none" fill-rule="evenodd">
        <g id="204-link" fill="#000000" fill-rule="nonzero">
            <path d="M13.758,19.868 C13.342,19.868 12.926,19.71 12.608,19.392 C9.636,16.42 9.636,11.582 12.608,8.608 L18.608,2.608 C20.048,1.168 21.964,0.374 24,0.374 C26.036,0.374 27.952,1.168 29.392,2.608 C32.364,5.582 32.364,10.418 29.392,13.392 L26.65,16.134 C26.016,16.768 24.986,16.768 24.352,16.134 C23.718,15.5 23.718,14.47 24.352,13.836 L27.094,11.094 C28.8,9.388 28.8,6.612 27.094,4.906 C26.268,4.08 25.168,3.624 24,3.624 C22.832,3.624 21.732,4.08 20.906,4.906 L14.906,10.906 C13.2,12.612 13.2,15.388 14.906,17.094 C15.54,17.728 15.54,18.758 14.906,19.392 C14.588,19.71 14.172,19.868 13.756,19.868 L13.758,19.868 Z" id="Path"></path>
            <path d="M8,31.626 C5.964,31.626 4.048,30.832 2.608,29.392 C-0.364,26.42 -0.364,21.582 2.608,18.608 L5.35,15.866 C5.984,15.232 7.014,15.232 7.648,15.866 C8.282,16.5 8.282,17.53 7.648,18.164 L4.906,20.906 C3.2,22.612 3.2,25.388 4.906,27.094 C5.732,27.92 6.83,28.376 8,28.376 C9.17,28.376 10.268,27.92 11.094,27.094 L17.094,21.094 C18.8,19.388 18.8,16.612 17.094,14.906 C16.46,14.272 16.46,13.242 17.094,12.608 C17.728,11.974 18.758,11.974 19.392,12.608 C22.364,15.58 22.364,20.418 19.392,23.392 L13.392,29.392 C11.952,30.832 10.036,31.626 8,31.626 L8,31.626 Z" id="Path"></path>
        </g>
    </g>
</svg>