<?xml version="1.0" encoding="UTF-8"?>
<svg width="32px" height="32px" viewBox="0 0 32 32" version="1.1" xmlns="http://www.w3.org/2000/svg" xmlns:xlink="http://www.w3.org/1999/xlink">
    <title>linkedin</title>
    <g id="Page-1" stroke="none" stroke-width="1" fill="none" fill-rule="evenodd">
        <g id="458-linkedin" fill="#000000" fill-rule="nonzero">
            <path d="M29,0 L3,0 C1.35,0 0,1.35 0,3 L0,29 C0,30.65 1.35,32 3,32 L29,32 C30.65,32 32,30.65 32,29 L32,3 C32,1.35 30.65,0 29,0 Z M12,26 L8,26 L8,12 L12,12 L12,26 Z M10,10 C8.894,10 8,9.106 8,8 C8,6.894 8.894,6 10,6 C11.106,6 12,6.894 12,8 C12,9.106 11.106,10 10,10 Z M26,26 L22,26 L22,18 C22,16.894 21.106,16 20,16 C18.894,16 18,16.894 18,18 L18,26 L14,26 L14,12 L18,12 L18,14.482 C18.824,13.35 20.088,12 21.5,12 C23.988,12 26,14.238 26,17 L26,26 Z" id="Shape"></path>
        </g>
    </g>
</svg>