<?xml version="1.0" encoding="UTF-8"?>
<svg width="30px" height="32px" viewBox="0 0 30 32" version="1.1" xmlns="http://www.w3.org/2000/svg" xmlns:xlink="http://www.w3.org/1999/xlink">
    <title>list_numbered</title>
    <g id="Page-1" stroke="none" stroke-width="1" fill="none" fill-rule="evenodd">
        <g id="186-list-numbered" fill="#000000" fill-rule="nonzero">
            <path d="M10,26 L30,26 L30,30 L10,30 L10,26 Z M10,14 L30,14 L30,18 L10,18 L10,14 Z M10,2 L30,2 L30,6 L10,6 L10,2 Z M4,0 L4,8 L2,8 L2,2 L0,2 L0,0 L4,0 Z M2,16.438 L2,18 L6,18 L6,20 L0,20 L0,15.438 L4,13.562 L4,12 L0,12 L0,10 L6,10 L6,14.562 L2,16.438 Z M6,22 L6,32 L0,32 L0,30 L4,30 L4,28 L0,28 L0,26 L4,26 L4,24 L0,24 L0,22 L6,22 Z" id="Shape"></path>
        </g>
    </g>
</svg>