<?xml version="1.0" encoding="UTF-8"?>
<svg width="32px" height="32px" viewBox="0 0 32 32" version="1.1" xmlns="http://www.w3.org/2000/svg" xmlns:xlink="http://www.w3.org/1999/xlink">
    <title>list</title>
    <g id="Page-1" stroke="none" stroke-width="1" fill="none" fill-rule="evenodd">
        <g id="187-list" fill="#000000" fill-rule="nonzero">
            <path d="M0,0 L8,0 L8,8 L0,8 L0,0 Z M12,2 L32,2 L32,6 L12,6 L12,2 Z M0,12 L8,12 L8,20 L0,20 L0,12 Z M12,14 L32,14 L32,18 L12,18 L12,14 Z M0,24 L8,24 L8,32 L0,32 L0,24 Z M12,26 L32,26 L32,30 L12,30 L12,26 Z" id="Shape"></path>
        </g>
    </g>
</svg>