<?xml version="1.0" encoding="UTF-8"?>
<svg width="20px" height="32px" viewBox="0 0 20 32" version="1.1" xmlns="http://www.w3.org/2000/svg" xmlns:xlink="http://www.w3.org/1999/xlink">
    <title>location2</title>
    <g id="Page-1" stroke="none" stroke-width="1" fill="none" fill-rule="evenodd">
        <g id="073-location2" fill="#000000" fill-rule="nonzero">
            <path d="M10,0 C4.478,0 0,4.478 0,10 C0,20 10,32 10,32 C10,32 20,20 20,10 C20,4.478 15.522,0 10,0 Z M10,16.126 C6.618,16.126 3.874,13.384 3.874,10 C3.874,6.616 6.616,3.874 10,3.874 C13.384,3.874 16.126,6.616 16.126,10 C16.126,13.384 13.384,16.126 10,16.126 Z M6.126,10 C6.126,7.86 7.86,6.124 10.002,6.124 C12.144,6.124 13.878,7.858 13.878,10 C13.878,12.14 12.144,13.876 10.002,13.876 C7.86,13.876 6.126,12.142 6.126,10 Z" id="Shape"></path>
        </g>
    </g>
</svg>