<?xml version="1.0" encoding="UTF-8"?>
<svg width="20px" height="30px" viewBox="0 0 20 30" version="1.1" xmlns="http://www.w3.org/2000/svg" xmlns:xlink="http://www.w3.org/1999/xlink">
    <title>lock</title>
    <g id="Page-1" stroke="none" stroke-width="1" fill="none" fill-rule="evenodd">
        <g id="144-lock" fill="#000000" fill-rule="nonzero">
            <path d="M18.5,12 L18,12 L18,6 C18,2.692 15.308,0 12,0 L8,0 C4.692,0 2,2.692 2,6 L2,12 L1.5,12 C0.676,12 0,12.676 0,13.5 L0,28.5 C0,29.324 0.676,30 1.5,30 L18.5,30 C19.324,30 20,29.324 20,28.5 L20,13.5 C20,12.676 19.324,12 18.5,12 Z M6,6 C6,4.898 6.898,4 8,4 L12,4 C13.102,4 14,4.898 14,6 L14,12 L6,12 L6,6 Z" id="Shape"></path>
        </g>
    </g>
</svg>