<?xml version="1.0" encoding="UTF-8"?>
<svg width="32px" height="32px" viewBox="0 0 32 32" version="1.1" xmlns="http://www.w3.org/2000/svg" xmlns:xlink="http://www.w3.org/1999/xlink">
    <title>loop2</title>
    <g id="Page-1" stroke="none" stroke-width="1" fill="none" fill-rule="evenodd">
        <g id="303-loop2" fill="#000000" fill-rule="nonzero">
            <path d="M27.802,5.198 C24.876,2.004 20.672,0 16,0 C7.164,0 0,7.164 0,16 L3,16 C3,8.82 8.82,3 16,3 C19.844,3 23.298,4.67 25.678,7.322 L21,12 L32,12 L32,1 L27.802,5.198 Z" id="Path"></path>
            <path d="M29,16 C29,23.18 23.18,29 16,29 C12.156,29 8.702,27.33 6.322,24.678 L11,20 L0,20 L0,31 L4.198,26.802 C7.124,29.996 11.328,32 16,32 C24.836,32 32,24.836 32,16 L29,16 Z" id="Path"></path>
        </g>
    </g>
</svg>