<?xml version="1.0" encoding="UTF-8"?>
<svg width="28px" height="32px" viewBox="0 0 28 32" version="1.1" xmlns="http://www.w3.org/2000/svg" xmlns:xlink="http://www.w3.org/1999/xlink">
    <title>magnet</title>
    <g id="Page-1" stroke="none" stroke-width="1" fill="none" fill-rule="evenodd">
        <g id="172-magnet" fill="#000000" fill-rule="nonzero">
            <path d="M26,0 L18,0 L20,18 C20,21.314 17.314,24 14,24 C10.686,24 8,21.314 8,18 L10,0 L2,0 L0,18 C0,25.732 6.268,32 14,32 C21.732,32 28,25.732 28,18 L26,0 Z M22.308,26.308 C20.088,28.528 17.138,29.75 14,29.75 C10.862,29.75 7.91,28.528 5.692,26.308 C3.5,24.116 2.282,21.212 2.252,18.118 L3.38,7.968 L6.852,7.968 L5.752,17.874 L5.752,17.998 C5.752,20.202 6.61,22.274 8.168,23.832 C9.726,25.39 11.798,26.248 14.002,26.248 C16.206,26.248 18.278,25.39 19.836,23.832 C21.394,22.274 22.252,20.202 22.252,17.998 L22.252,17.874 L22.238,17.75 L21.152,7.968 L24.624,7.968 L25.752,18.118 C25.722,21.212 24.502,24.116 22.312,26.308 L22.308,26.308 Z" id="Shape"></path>
        </g>
    </g>
</svg>