<?xml version="1.0" encoding="UTF-8"?>
<svg width="32px" height="32px" viewBox="0 0 32 32" version="1.1" xmlns="http://www.w3.org/2000/svg" xmlns:xlink="http://www.w3.org/1999/xlink">
    <title>mail</title>
    <g id="Page-1" stroke="none" stroke-width="1" fill="none" fill-rule="evenodd">
        <g id="388-mail" fill="#000000" fill-rule="nonzero">
            <path d="M26.666,0 L5.334,0 C2.4,0 0,2.4 0,5.334 L0,26.666 C0,29.6 2.4,32 5.334,32 L26.666,32 C29.602,32 32,29.6 32,26.666 L32,5.334 C32,2.4 29.602,0 26.666,0 Z M8,8 L24,8 C24.286,8 24.562,8.062 24.818,8.176 L16,18.462 L7.182,8.176 C7.436,8.06 7.714,8 8,8 Z M6,22 L6,10 C6,9.958 6.002,9.916 6.004,9.874 L11.868,16.716 L6.068,22.516 C6.022,22.35 6,22.176 6,22 Z M24,24 L8,24 C7.824,24 7.65,23.976 7.484,23.932 L13.176,18.24 L16.002,21.536 L18.828,18.24 L24.52,23.932 C24.354,23.978 24.18,24 24.004,24 L24,24 Z M26,22 C26,22.176 25.976,22.35 25.932,22.516 L20.132,16.716 L25.996,9.874 C25.998,9.916 26,9.958 26,10 L26,22 Z" id="Shape"></path>
        </g>
    </g>
</svg>