<?xml version="1.0" encoding="UTF-8"?>
<svg width="32px" height="32px" viewBox="0 0 32 32" version="1.1" xmlns="http://www.w3.org/2000/svg" xmlns:xlink="http://www.w3.org/1999/xlink">
    <title>mail2</title>
    <g id="Page-1" stroke="none" stroke-width="1" fill="none" fill-rule="evenodd">
        <g id="389-mail2" fill="#000000" fill-rule="nonzero">
            <path d="M26.666,0 L5.334,0 C2.4,0 0,2.4 0,5.334 L0,26.666 C0,29.602 2.4,32 5.334,32 L26.666,32 C29.6,32 32,29.602 32,26.666 L32,5.334 C32,2.4 29.6,0 26.666,0 Z M26.666,4 C26.916,4 27.152,4.072 27.354,4.198 L15.998,13.586 L4.644,4.198 C4.846,4.072 5.082,4 5.332,4 L26.664,4 L26.666,4 Z M5.334,28 C5.274,28 5.214,27.996 5.156,27.988 L12.206,18.208 L11.292,17.294 L4,24.586 L4,5.488 L16,20 L28,5.488 L28,24.586 L20.708,17.294 L19.794,18.208 L26.844,27.988 C26.786,27.996 26.726,28 26.668,28 L5.336,28 L5.334,28 Z" id="Shape"></path>
        </g>
    </g>
</svg>