<?xml version="1.0" encoding="UTF-8"?>
<svg width="32px" height="32px" viewBox="0 0 32 32" version="1.1" xmlns="http://www.w3.org/2000/svg" xmlns:xlink="http://www.w3.org/1999/xlink">
    <title>make_group</title>
    <g id="Page-1" stroke="none" stroke-width="1" fill="none" fill-rule="evenodd">
        <g id="345-make-group" fill="#000000" fill-rule="nonzero">
            <path d="M10,4 L6,4 C4.9,4 4,4.9 4,6 L4,10 C4,11.1 4.9,12 6,12 L10,12 C11.1,12 12,11.1 12,10 L12,6 C12,4.9 11.1,4 10,4 Z" id="Path"></path>
            <path d="M22,12 L26,12 C27.1,12 28,11.1 28,10 L28,6 C28,4.9 27.1,4 26,4 L22,4 C20.9,4 20,4.9 20,6 L20,10 C20,11.1 20.9,12 22,12 Z M22,6 L26,6 L26,10 L22,10 L22,6 Z" id="Shape"></path>
            <path d="M10,20 L6,20 C4.9,20 4,20.9 4,22 L4,26 C4,27.1 4.9,28 6,28 L10,28 C11.1,28 12,27.1 12,26 L12,22 C12,20.9 11.1,20 10,20 Z M10,26 L6,26 L6,22 L10,22 L10,26 Z" id="Shape"></path>
            <path d="M26,20 L22,20 C20.9,20 20,20.9 20,22 L20,26 C20,27.1 20.9,28 22,28 L26,28 C27.1,28 28,27.1 28,26 L28,22 C28,20.9 27.1,20 26,20 Z" id="Path"></path>
            <path d="M28,16 L26,16 C23.328,16 20.818,14.96 18.928,13.072 C17.038,11.184 16,8.672 16,6 L16,4 C16,1.8 14.2,0 12,0 L4,0 C1.8,0 0,1.8 0,4 L0,12 C0,14.2 1.8,16 4,16 L6,16 C8.672,16 11.182,17.04 13.072,18.928 C14.962,20.816 16,23.328 16,26 L16,28 C16,30.2 17.8,32 20,32 L28,32 C30.2,32 32,30.2 32,28 L32,20 C32,17.8 30.2,16 28,16 Z M30,28 C30,28.53 29.79,29.03 29.41,29.41 C29.03,29.79 28.53,30 28,30 L20,30 C19.47,30 18.97,29.79 18.59,29.41 C18.21,29.03 18,28.53 18,28 L18,26 C18,19.372 12.628,14 6,14 L4,14 C3.47,14 2.97,13.79 2.59,13.41 C2.21,13.03 2,12.528 2,12 L2,4 C2,3.47 2.21,2.97 2.59,2.59 C2.97,2.21 3.47,2 4,2 L12,2 C12.53,2 13.03,2.21 13.41,2.59 C13.79,2.97 14,3.47 14,4 L14,6 C14,12.628 19.372,18 26,18 L28,18 C28.53,18 29.03,18.21 29.41,18.59 C29.79,18.97 30,19.47 30,20 L30,28 Z" id="Shape"></path>
        </g>
    </g>
</svg>