<?xml version="1.0" encoding="UTF-8"?>
<svg width="10px" height="32px" viewBox="0 0 10 32" version="1.1" xmlns="http://www.w3.org/2000/svg" xmlns:xlink="http://www.w3.org/1999/xlink">
    <title>man</title>
    <g id="Page-1" stroke="none" stroke-width="1" fill="none" fill-rule="evenodd">
        <g id="221-man" fill="#000000" fill-rule="nonzero">
            <path d="M8,3 C8,4.656 6.656,6 5,6 C3.344,6 2,4.656 2,3 C2,1.344 3.344,0 5,0 C6.656,0 8,1.344 8,3 Z" id="Path"></path>
            <path d="M8,8 L2,8 C0.896,8 0,8.896 0,10 L0,20 L2,20 L2,32 L4.5,32 L4.5,20 L5.5,20 L5.5,32 L8,32 L8,20 L10,20 L10,10 C10,8.896 9.104,8 8,8 Z" id="Path"></path>
        </g>
    </g>
</svg>