<?xml version="1.0" encoding="UTF-8"?>
<svg width="32px" height="32px" viewBox="0 0 32 32" version="1.1" xmlns="http://www.w3.org/2000/svg" xmlns:xlink="http://www.w3.org/1999/xlink">
    <title>man_woman</title>
    <g id="Page-1" stroke="none" stroke-width="1" fill="none" fill-rule="evenodd">
        <g id="223-man-woman" fill="#000000" fill-rule="nonzero">
            <path d="M8,3 C8,4.656 6.656,6 5,6 C3.344,6 2,4.656 2,3 C2,1.344 3.344,0 5,0 C6.656,0 8,1.344 8,3 Z" id="Path"></path>
            <path d="M26,3 C26,4.656 24.656,6 23,6 C21.344,6 20,4.656 20,3 C20,1.344 21.344,0 23,0 C24.656,0 26,1.344 26,3 Z" id="Path"></path>
            <path d="M8,8 L2,8 C0.896,8 0,8.896 0,10 L0,20 L2,20 L2,32 L4.5,32 L4.5,20 L5.5,20 L5.5,32 L8,32 L8,20 L10,20 L10,10 C10,8.896 9.104,8 8,8 Z" id="Path"></path>
            <path d="M30.468,16 L32,14.89 L27.834,8.448 C27.65,8.168 27.336,7.998 27,7.998 L19,7.998 C18.664,7.998 18.35,8.166 18.166,8.448 L14,14.89 L15.532,16 L18.99,11.512 L20.192,14.316 L16.002,21.998 L19.836,21.998 L20.502,31.998 L22.502,31.998 L22.502,21.998 L23.502,21.998 L23.502,31.998 L25.502,31.998 L26.168,21.998 L30.002,21.998 L25.812,14.314 L27.014,11.51 L30.472,15.998 L30.468,16 Z" id="Path"></path>
        </g>
    </g>
</svg>