<?xml version="1.0" encoding="UTF-8"?>
<svg width="32px" height="32px" viewBox="0 0 32 32" version="1.1" xmlns="http://www.w3.org/2000/svg" xmlns:xlink="http://www.w3.org/1999/xlink">
    <title>meter2</title>
    <g id="Page-1" stroke="none" stroke-width="1" fill="none" fill-rule="evenodd">
        <g id="168-meter2" fill="#000000" fill-rule="nonzero">
            <path d="M16,0 C7.164,0 0,7.164 0,16 C0,24.836 7.164,32 16,32 C24.836,32 32,24.836 32,16 C32,7.164 24.836,0 16,0 Z M9.464,26.068 C9.812,25.11 10,24.078 10,23 C10,19.114 7.538,15.804 4.088,14.544 C4.408,11.89 5.596,9.434 7.516,7.516 C9.782,5.25 12.796,4.002 16.002,4.002 C19.208,4.002 22.22,5.25 24.488,7.516 C26.408,9.436 27.596,11.892 27.916,14.544 C24.466,15.804 22.004,19.114 22.004,23 C22.004,24.078 22.194,25.11 22.54,26.068 C20.612,27.326 18.36,28 16.004,28 C13.648,28 11.396,27.324 9.468,26.068 L9.464,26.068 Z M17.242,20.032 C17.676,20.142 18,20.534 18,21 L18,23 C18,23.55 17.55,24 17,24 L15,24 C14.45,24 14,23.55 14,23 L14,21 C14,20.534 14.324,20.14 14.758,20.032 L15.5,6 L16.5,6 L17.242,20.032 Z" id="Shape"></path>
        </g>
    </g>
</svg>