<?xml version="1.0" encoding="UTF-8"?>
<svg width="32px" height="30px" viewBox="0 0 32 30" version="1.1" xmlns="http://www.w3.org/2000/svg" xmlns:xlink="http://www.w3.org/1999/xlink">
    <title>meter</title>
    <g id="Page-1" stroke="none" stroke-width="1" fill="none" fill-rule="evenodd">
        <g id="167-meter" fill="#000000" fill-rule="nonzero">
            <path d="M16,0 C24.836,0 32,7.164 32,16 C32,22.024 28.67,27.27 23.75,30 L8.25,30 C3.33,27.27 0,22.024 0,16 C0,7.164 7.164,0 16,0 Z M25.06,25.06 C27.48,22.64 28.812,19.422 28.812,16 L26,16 L26,14 L28.658,14 C28.438,12.594 27.99,11.246 27.328,10 L24,10 L24,8 L26.008,8 C25.714,7.632 25.396,7.278 25.058,6.94 C23.614,5.496 21.884,4.438 19.998,3.822 L19.998,6 L17.998,6 L17.998,3.342 C17.342,3.24 16.674,3.186 15.998,3.186 C15.322,3.186 14.654,3.238 13.998,3.342 L13.998,6 L11.998,6 L11.998,3.822 C10.112,4.44 8.382,5.496 6.938,6.94 C6.6,7.278 6.284,7.632 5.988,8 L7.996,8 L7.996,10 L4.668,10 C4.006,11.246 3.558,12.594 3.338,14 L5.996,14 L5.996,16 L3.184,16 C3.184,19.422 4.516,22.64 6.936,25.06 C7.27,25.394 7.622,25.708 7.984,26 L13.996,26 L15.138,10 L16.852,10 L17.994,26 L24.006,26 C24.37,25.708 24.72,25.394 25.054,25.06 L25.06,25.06 Z" id="Shape"></path>
        </g>
    </g>
</svg>