<?xml version="1.0" encoding="UTF-8"?>
<svg width="22px" height="32px" viewBox="0 0 22 32" version="1.1" xmlns="http://www.w3.org/2000/svg" xmlns:xlink="http://www.w3.org/1999/xlink">
    <title>mobile2</title>
    <g id="Page-1" stroke="none" stroke-width="1" fill="none" fill-rule="evenodd">
        <g id="090-mobile2" fill="#000000" fill-rule="nonzero">
            <path d="M20,0 L2,0 C0.9,0 0,0.9 0,2 L0,30 C0,31.1 0.9,32 2,32 L20,32 C21.1,32 22,31.1 22,30 L22,2 C22,0.9 21.1,0 20,0 Z M11,30.556 C10.14,30.556 9.444,29.86 9.444,29 C9.444,28.14 10.14,27.444 11,27.444 C11.86,27.444 12.556,28.14 12.556,29 C12.556,29.86 11.86,30.556 11,30.556 Z M20,26 L2,26 L2,4 L20,4 L20,26 Z" id="Shape"></path>
        </g>
    </g>
</svg>