<?xml version="1.0" encoding="UTF-8"?>
<svg width="27px" height="24px" viewBox="0 0 27 24" version="1.1" xmlns="http://www.w3.org/2000/svg" xmlns:xlink="http://www.w3.org/1999/xlink">
    <title>move_down</title>
    <g id="Page-1" stroke="none" stroke-width="1" fill="none" fill-rule="evenodd">
        <g id="328-move-down" fill="#000000" fill-rule="nonzero">
            <polygon id="Path" points="22 16 22 4 20 4 20 16 15 16 21 22 27 16"></polygon>
            <path d="M8,2 L8,8 L2,8 L2,2 L8,2 Z M10,0 L0,0 L0,10 L10,10 L10,0 Z" id="Shape"></path>
            <polygon id="Path" points="0 14 3 14 3 16 0 16"></polygon>
            <polygon id="Path" points="4 14 7 14 7 16 4 16"></polygon>
            <polygon id="Path" points="8 14 10 14 10 17 8 17"></polygon>
            <polygon id="Path" points="0 21 2 21 2 24 0 24"></polygon>
            <polygon id="Path" points="3 22 6 22 6 24 3 24"></polygon>
            <polygon id="Path" points="7 22 10 22 10 24 7 24"></polygon>
            <polygon id="Path" points="0 17 2 17 2 20 0 20"></polygon>
            <polygon id="Path" points="8 18 10 18 10 21 8 21"></polygon>
        </g>
    </g>
</svg>