<?xml version="1.0" encoding="UTF-8"?>
<svg width="27px" height="24px" viewBox="0 0 27 24" version="1.1" xmlns="http://www.w3.org/2000/svg" xmlns:xlink="http://www.w3.org/1999/xlink">
    <title>move_up</title>
    <g id="Page-1" stroke="none" stroke-width="1" fill="none" fill-rule="evenodd">
        <g id="327-move-up" fill="#000000" fill-rule="nonzero">
            <polygon id="Path" points="20 10 20 22 22 22 22 10 27 10 21 4 15 10"></polygon>
            <polygon id="Path" points="0 0 3 0 3 2 0 2"></polygon>
            <polygon id="Path" points="4 0 7 0 7 2 4 2"></polygon>
            <polygon id="Path" points="8 0 10 0 10 3 8 3"></polygon>
            <polygon id="Path" points="0 7 2 7 2 10 0 10"></polygon>
            <polygon id="Path" points="3 8 6 8 6 10 3 10"></polygon>
            <polygon id="Path" points="7 8 10 8 10 10 7 10"></polygon>
            <polygon id="Path" points="0 3 2 3 2 6 0 6"></polygon>
            <polygon id="Path" points="8 4 10 4 10 7 8 7"></polygon>
            <path d="M8,16 L8,22 L2,22 L2,16 L8,16 Z M10,14 L0,14 L0,24 L10,24 L10,14 Z" id="Shape"></path>
        </g>
    </g>
</svg>