<?xml version="1.0" encoding="UTF-8"?>
<svg width="32px" height="30px" viewBox="0 0 32 30" version="1.1" xmlns="http://www.w3.org/2000/svg" xmlns:xlink="http://www.w3.org/1999/xlink">
    <title>mug</title>
    <g id="Page-1" stroke="none" stroke-width="1" fill="none" fill-rule="evenodd">
        <g id="163-mug" fill="#000000" fill-rule="nonzero">
            <path d="M30,8 L24,8 L24,5 C24,2.238 18.628,0 12,0 C5.372,0 0,2.238 0,5 L0,25 C0,27.762 5.372,30 12,30 C18.628,30 24,27.762 24,25 L24,22 L30,22 C31.104,22 32,21.104 32,20 L32,10 C32,8.896 31.104,8 30,8 Z M5.502,6.074 C4.346,5.694 3.646,5.286 3.27,5 C3.646,4.714 4.346,4.306 5.502,3.926 C7.312,3.33 9.62,3 12,3 C14.38,3 16.688,3.328 18.498,3.926 C19.654,4.306 20.354,4.714 20.73,5 C20.354,5.286 19.654,5.694 18.498,6.074 C16.688,6.67 14.38,7 12,7 C9.62,7 7.312,6.672 5.502,6.074 Z M28,18 L24,18 L24,12 L28,12 L28,18 Z" id="Shape"></path>
        </g>
    </g>
</svg>