<?xml version="1.0" encoding="UTF-8"?>
<svg width="32px" height="24px" viewBox="0 0 32 24" version="1.1" xmlns="http://www.w3.org/2000/svg" xmlns:xlink="http://www.w3.org/1999/xlink">
    <title>newspaper</title>
    <g id="Page-1" stroke="none" stroke-width="1" fill="none" fill-rule="evenodd">
        <g id="005-newspaper" fill="#000000" fill-rule="nonzero">
            <path d="M28,4 L28,0 L0,0 L0,22 C0,23.104 0.896,24 2,24 L29,24 C30.656,24 32,22.656 32,21 L32,4 L28,4 Z M26,22 L2,22 L2,2 L26,2 L26,22 Z M4,6 L24,6 L24,8 L4,8 L4,6 Z M16,10 L24,10 L24,12 L16,12 L16,10 Z M16,14 L24,14 L24,16 L16,16 L16,14 Z M16,18 L22,18 L22,20 L16,20 L16,18 Z M4,10 L14,10 L14,20 L4,20 L4,10 Z" id="Shape"></path>
        </g>
    </g>
</svg>