<?xml version="1.0" encoding="UTF-8"?>
<svg width="32px" height="32px" viewBox="0 0 32 32" version="1.1" xmlns="http://www.w3.org/2000/svg" xmlns:xlink="http://www.w3.org/1999/xlink">
    <title>notification</title>
    <g id="Page-1" stroke="none" stroke-width="1" fill="none" fill-rule="evenodd">
        <g id="265-notification" fill="#000000" fill-rule="nonzero">
            <path d="M16,3 C12.528,3 9.262,4.352 6.808,6.808 C4.354,9.264 3,12.528 3,16 C3,19.472 4.352,22.738 6.808,25.192 C9.264,27.646 12.528,29 16,29 C19.472,29 22.738,27.648 25.192,25.192 C27.646,22.736 29,19.472 29,16 C29,12.528 27.648,9.262 25.192,6.808 C22.736,4.354 19.472,3 16,3 Z M16,0 L16,0 C24.836,0 32,7.164 32,16 C32,24.836 24.836,32 16,32 C7.164,32 0,24.836 0,16 C0,7.164 7.164,0 16,0 Z M14,22 L18,22 L18,26 L14,26 L14,22 Z M14,6 L18,6 L18,18 L14,18 L14,6 Z" id="Shape"></path>
        </g>
    </g>
</svg>