<?xml version="1.0" encoding="UTF-8"?>
<svg width="32px" height="32px" viewBox="0 0 32 32" version="1.1" xmlns="http://www.w3.org/2000/svg" xmlns:xlink="http://www.w3.org/1999/xlink">
    <title>office</title>
    <g id="Page-1" stroke="none" stroke-width="1" fill="none" fill-rule="evenodd">
        <g id="004-office" fill="#000000" fill-rule="nonzero">
            <path d="M0,32 L16,32 L16,0 L0,0 L0,32 Z M10,4 L14,4 L14,8 L10,8 L10,4 Z M10,12 L14,12 L14,16 L10,16 L10,12 Z M10,20 L14,20 L14,24 L10,24 L10,20 Z M2,4 L6,4 L6,8 L2,8 L2,4 Z M2,12 L6,12 L6,16 L2,16 L2,12 Z M2,20 L6,20 L6,24 L2,24 L2,20 Z M18,10 L32,10 L32,12 L18,12 L18,10 Z M18,32 L22,32 L22,24 L28,24 L28,32 L32,32 L32,14 L18,14 L18,32 Z" id="Shape"></path>
        </g>
    </g>
</svg>