<?xml version="1.0" encoding="UTF-8"?>
<svg width="32px" height="32px" viewBox="0 0 32 32" version="1.1" xmlns="http://www.w3.org/2000/svg" xmlns:xlink="http://www.w3.org/1999/xlink">
    <title>omega</title>
    <g id="Page-1" stroke="none" stroke-width="1" fill="none" fill-rule="evenodd">
        <g id="359-omega" fill="#000000" fill-rule="nonzero">
            <path d="M22,28 L30,28 L32,24 L32,32 L20,32 L20,25.306 C24.098,23.54 27,19.144 27,14 C27,7.3 22.076,2.054 16,2.054 C9.924,2.054 5,7.298 5,14 C5,19.144 7.902,23.54 12,25.306 L12,32 L0,32 L0,24 L2,28 L10,28 L10,26.982 C4.136,24.906 0,19.876 0,14 C0,6.268 7.164,0 16,0 C24.836,0 32,6.268 32,14 C32,19.876 27.864,24.904 22,26.982 L22,28 Z" id="Path"></path>
        </g>
    </g>
</svg>