<?xml version="1.0" encoding="UTF-8"?>
<svg width="32px" height="20px" viewBox="0 0 32 20" version="1.1" xmlns="http://www.w3.org/2000/svg" xmlns:xlink="http://www.w3.org/1999/xlink">
    <title>onedrive</title>
    <g id="Page-1" stroke="none" stroke-width="1" fill="none" fill-rule="evenodd">
        <g id="432-onedrive" fill="#000000" fill-rule="nonzero">
            <path d="M10.964,19.888 C9.08,19.418 8.032,17.92 8.028,15.698 C8.028,14.988 8.078,14.648 8.256,14.19 C8.69,13.07 9.842,12.226 11.356,11.914 C12.11,11.76 12.342,11.594 12.342,11.208 C12.342,11.088 12.432,10.728 12.542,10.41 C13.04,8.962 13.962,7.756 14.946,7.264 C15.976,6.748 16.498,6.632 17.744,6.638 C19.516,6.648 20.398,7.032 21.634,8.33 L22.314,9.044 L22.922,8.834 C25.868,7.814 28.806,9.55 29.044,12.452 L29.108,13.246 L29.688,13.454 C31.346,14.048 32.124,15.294 31.984,17.128 C31.892,18.326 31.332,19.284 30.444,19.758 L30.026,19.982 L20.75,20 C13.622,20.014 11.356,19.988 10.964,19.89 L10.964,19.89 L10.964,19.888 Z M3.226,18.562 C2.096,18.278 0.898,17.222 0.336,16.016 C0.018,15.332 0,15.23 0,14.02 C0,12.868 0.028,12.684 0.28,12.112 C0.814,10.906 1.84,10.036 3.124,9.692 C3.396,9.62 3.65,9.504 3.69,9.436 C3.73,9.368 3.776,8.994 3.79,8.606 C3.88,6.194 5.378,4.068 7.468,3.386 C8.598,3.018 10.08,2.982 11.308,3.502 C11.698,3.666 11.654,3.702 12.478,2.56 C12.966,1.884 13.888,1.17 14.694,0.742 C15.564,0.28 16.468,0.068 17.55,0.069985985 C20.574,0.078 23.18,2.076 24.144,5.128 C24.452,6.102 24.436,6.376 24.074,6.384 C23.916,6.388 23.462,6.48 23.064,6.588 L22.342,6.786 L21.684,6.09 C19.828,4.13 16.802,3.706 14.228,5.046 C13.2,5.582 12.374,6.35 11.75,7.352 C11.306,8.066 10.738,9.4 10.738,9.73 C10.738,9.964 10.558,10.082 9.79,10.348 C7.412,11.172 6.024,13.076 6.026,15.512 C6.026,16.398 6.242,17.484 6.542,18.104 C6.656,18.338 6.718,18.56 6.682,18.598 C6.59,18.696 3.632,18.662 3.222,18.56 L3.222,18.56 L3.226,18.562 Z" id="Shape"></path>
        </g>
    </g>
</svg>