<?xml version="1.0" encoding="UTF-8"?>
<svg width="32px" height="32px" viewBox="0 0 32 32" version="1.1" xmlns="http://www.w3.org/2000/svg" xmlns:xlink="http://www.w3.org/1999/xlink">
    <title>opera</title>
    <g id="Page-1" stroke="none" stroke-width="1" fill="none" fill-rule="evenodd">
        <g id="479-opera" fill="#000000" fill-rule="nonzero">
            <path d="M32,16 L32,16 L32,16 C32,20.738 29.938,25 26.662,27.926 C22.556,29.926 18.73,28.526 17.468,27.652 C21.5,26.77 24.542,21.896 24.542,16.002 C24.542,10.108 21.498,5.234 17.468,4.346 C18.736,3.47 22.562,2.072 26.662,4.07 C29.936,7.002 32,11.264 32,16.002 L32,16.002 L32,16.002 L32,16 Z" id="Path"></path>
            <path d="M10.732,6.982 C8.964,9.07 7.82,12.156 7.744,15.626 C7.744,15.632 7.744,16.37 7.744,16.382 C7.82,19.844 8.97,22.932 10.738,25.02 C13.032,28.002 16.444,29.888 20.256,29.888 C22.6,29.888 24.794,29.176 26.668,27.932 C23.83,30.464 20.094,32 16,32 C15.744,32 15.488,31.994 15.238,31.982 C6.756,31.582 0,24.582 0,16 C0,7.162 7.162,7.10542736e-15 16,7.10542736e-15 C16.018,7.10542736e-15 16.038,7.10542736e-15 16.062,7.10542736e-15 C20.136,0.012 23.85,1.55 26.668,4.076 C24.792,2.832 22.6,2.114 20.256,2.114 C16.444,2.114 13.032,4.002 10.73,6.982 L10.732,6.982 Z" id="Path"></path>
        </g>
    </g>
</svg>