<?xml version="1.0" encoding="UTF-8"?>
<svg width="32px" height="32px" viewBox="0 0 32 32" version="1.1" xmlns="http://www.w3.org/2000/svg" xmlns:xlink="http://www.w3.org/1999/xlink">
    <title>pagebreak</title>
    <g id="Page-1" stroke="none" stroke-width="1" fill="none" fill-rule="evenodd">
        <g id="367-pagebreak" fill="#000000" fill-rule="nonzero">
            <path d="M8,12 L8,0 L32,0 L32,12 L30,12 L30,2 L10,2 L10,12 L8,12 Z M32,18 L32,32 L8,32 L8,18 L10,18 L10,30 L30,30 L30,18 L32,18 Z M16,14 L20,14 L20,16 L16,16 L16,14 Z M10,14 L14,14 L14,16 L10,16 L10,14 Z M22,14 L26,14 L26,16 L22,16 L22,14 Z M28,14 L32,14 L32,16 L28,16 L28,14 Z M0,9 L6,15 L0,21 L0,9 Z" id="Shape"></path>
        </g>
    </g>
</svg>