<?xml version="1.0" encoding="UTF-8"?>
<svg width="30px" height="32px" viewBox="0 0 30 32" version="1.1" xmlns="http://www.w3.org/2000/svg" xmlns:xlink="http://www.w3.org/1999/xlink">
    <title>paste</title>
    <g id="Page-1" stroke="none" stroke-width="1" fill="none" fill-rule="evenodd">
        <g id="046-paste" fill="#000000" fill-rule="nonzero">
            <path d="M20,4 L16,4 L16,2 C16,0.9 15.1,0 14,0 L10,0 C8.9,0 8,0.9 8,2 L8,4 L4,4 L4,8 L20,8 L20,4 Z M14,4 L10,4 L10,2.004 C10.002,2.002 10.002,2.002 10.004,2 L13.996,2 C13.998,2.002 13.998,2.002 14,2.004 L14,4 L14,4 Z M24,10 L24,5 C24,4.45 23.55,4 23,4 L21,4 L21,6 L22,6 L22,10 L16,10 L10,16 L10,24 L2,24 L2,6 L3,6 L3,4 L1,4 C0.45,4 0,4.45 0,5 L0,25 C0,25.55 0.45,26 1,26 L10,26 L10,32 L30,32 L30,10 L24,10 Z M16,12.828 L16,16 L12.828,16 L16,12.828 Z M28,30 L12,30 L12,18 L18,18 L18,12 L28,12 L28,30 Z" id="Shape"></path>
        </g>
    </g>
</svg>