<?xml version="1.0" encoding="UTF-8"?>
<svg width="29px" height="32px" viewBox="0 0 29 32" version="1.1" xmlns="http://www.w3.org/2000/svg" xmlns:xlink="http://www.w3.org/1999/xlink">
    <title>paypal</title>
    <g id="Page-1" stroke="none" stroke-width="1" fill="none" fill-rule="evenodd">
        <g id="473-paypal" fill="#000000" fill-rule="nonzero">
            <path d="M27.062,9.644 C25.568,16.276 20.956,19.776 13.686,19.776 L11.268,19.776 L9.586,30.452 L7.56,30.452 L7.454,31.14 C7.386,31.596 7.736,32.002 8.192,32.002 L13.368,32.002 C13.98,32.002 14.5,31.558 14.6,30.952 L14.65,30.69 L15.626,24.508 L15.688,24.17 C15.782,23.564 16.306,23.12 16.92,23.12 L17.688,23.12 C22.7,23.12 26.626,21.082 27.776,15.194 C28.208,12.956 28.044,11.056 27.064,9.644 L27.062,9.644 Z" id="Path"></path>
            <path d="M23.968,2.412 C22.486,0.724 19.806,0 16.38,0 L6.436,0 C5.736,0 5.136,0.506 5.03,1.2 L0.886,27.462 C0.804,27.98 1.204,28.45 1.73,28.45 L7.874,28.45 L9.418,18.668 L9.368,18.974 C9.474,18.28 10.068,17.774 10.768,17.774 L13.686,17.774 C19.418,17.774 23.904,15.45 25.218,8.712 C25.256,8.512 25.292,8.318 25.318,8.13 C25.706,5.642 25.318,3.942 23.968,2.412 Z" id="Path"></path>
        </g>
    </g>
</svg>