<?xml version="1.0" encoding="UTF-8"?>
<svg width="32px" height="32px" viewBox="0 0 32 32" version="1.1" xmlns="http://www.w3.org/2000/svg" xmlns:xlink="http://www.w3.org/1999/xlink">
    <title>pen</title>
    <g id="Page-1" stroke="none" stroke-width="1" fill="none" fill-rule="evenodd">
        <g id="009-pen" fill="#000000" fill-rule="nonzero">
            <path d="M31.818,9.122 L22.878,0.182 C22.586,-0.11 22.202,-0.044 22.024,0.328 L20.826,2.824 L29.176,11.174 L31.672,9.976 C32.044,9.798 32.11,9.412 31.818,9.122 Z" id="Path"></path>
            <path d="M19.23,4.23 L11,4.916 C10.454,4.984 9.998,5.1 9.84,5.814 C9.84,5.814 9.84,5.816 9.84,5.816 C7.608,16.536 0,26.998 0,26.998 L1.792,28.79 L10.292,20.29 C10.104,19.898 10,19.46 10,18.996 C10,17.34 11.344,15.996 13,15.996 C14.656,15.996 16,17.34 16,18.996 C16,20.652 14.656,21.996 13,21.996 C12.536,21.996 12.098,21.89 11.706,21.704 L3.206,30.204 L4.998,31.996 C4.998,31.996 15.46,24.388 26.18,22.156 C26.18,22.156 26.182,22.156 26.182,22.156 C26.896,22 27.012,21.544 27.08,20.996 L27.766,12.766 L19.228,4.228 L19.23,4.23 Z" id="Path"></path>
        </g>
    </g>
</svg>