<?xml version="1.0" encoding="UTF-8"?>
<svg width="32px" height="14px" viewBox="0 0 32 14" version="1.1" xmlns="http://www.w3.org/2000/svg" xmlns:xlink="http://www.w3.org/1999/xlink">
    <title>phone_hang_up</title>
    <g id="Page-1" stroke="none" stroke-width="1" fill="none" fill-rule="evenodd">
        <g id="068-phone-hang-up" fill="#000000" fill-rule="nonzero">
            <path d="M31.794,8 C32.044,9.734 32.208,12.106 31.43,13.014 C30.144,14.516 22.002,14.516 22.002,11.512 C22.002,10 23.342,9.008 22.056,7.506 C20.792,6.03 18.524,6.006 16.002,6.004 C13.48,6.002 11.214,6.028 9.948,7.506 C8.662,9.008 10.002,10 10.002,11.512 C10.002,14.514 1.86,14.514 0.574,13.014 C-0.204,12.106 -0.04,9.734 0.21,8 C0.402,6.842 0.888,5.594 2.446,4 C2.446,4 2.446,4 2.446,4 C4.782,1.82 8.316,0.04 15.878,0 L15.878,0 C15.92,0 15.962,0 16.004,0 C16.046,0 16.086,0 16.13,0 L16.13,0 C23.692,0.038 27.226,1.82 29.562,4 C29.562,4 29.562,4 29.562,4 C31.118,5.594 31.606,6.842 31.798,8 L31.794,8 Z" id="Path"></path>
        </g>
    </g>
</svg>