<?xml version="1.0" encoding="UTF-8"?>
<svg width="28px" height="28px" viewBox="0 0 28 28" version="1.1" xmlns="http://www.w3.org/2000/svg" xmlns:xlink="http://www.w3.org/1999/xlink">
    <title>pinterest</title>
    <g id="Page-1" stroke="none" stroke-width="1" fill="none" fill-rule="evenodd">
        <g id="466-pinterest" fill="#000000" fill-rule="nonzero">
            <path d="M14,0.138 C6.344,0.138 0.138,6.344 0.138,14 C0.138,19.876 3.794,24.888 8.95,26.906 C8.832,25.812 8.718,24.124 9,22.93 C9.25,21.848 10.626,16.042 10.626,16.042 C10.626,16.042 10.214,15.21 10.214,13.986 C10.214,12.06 11.332,10.618 12.72,10.618 C13.902,10.618 14.476,11.506 14.476,12.568 C14.476,13.756 13.72,15.536 13.326,17.18 C12.994,18.562 14.014,19.686 15.376,19.686 C17.838,19.686 19.732,17.086 19.732,13.336 C19.732,10.018 17.344,7.698 13.944,7.698 C10,7.698 7.688,10.654 7.688,13.716 C7.688,14.91 8.144,16.184 8.72,16.878 C8.832,17.016 8.852,17.134 8.814,17.278 C8.708,17.716 8.476,18.66 8.426,18.852 C8.364,19.108 8.226,19.158 7.964,19.04 C6.232,18.234 5.152,15.702 5.152,13.672 C5.152,9.296 8.326,5.284 14.308,5.284 C19.114,5.284 22.852,8.708 22.852,13.29 C22.852,18.066 19.84,21.916 15.658,21.916 C14.252,21.916 12.934,21.184 12.482,20.322 C12.482,20.322 11.788,22.966 11.62,23.616 C11.308,24.822 10.464,26.328 9.896,27.248 C11.196,27.648 12.57,27.866 14.002,27.866 C21.658,27.866 27.864,21.66 27.864,14.004 C27.864,6.342 21.658,0.136 14.002,0.136 L14,0.138 Z" id="Path"></path>
        </g>
    </g>
</svg>