<?xml version="1.0" encoding="UTF-8"?>
<svg width="32px" height="32px" viewBox="0 0 32 32" version="1.1" xmlns="http://www.w3.org/2000/svg" xmlns:xlink="http://www.w3.org/1999/xlink">
    <title>pinterest2</title>
    <g id="Page-1" stroke="none" stroke-width="1" fill="none" fill-rule="evenodd">
        <g id="467-pinterest2" fill="#000000" fill-rule="nonzero">
            <path d="M16,0 C7.176,0 0,7.174 0,16 C0,24.826 7.174,32 16,32 C24.826,32 32,24.824 32,16 C32,7.176 24.824,0 16,0 Z M16,29.862 C14.568,29.862 13.194,29.644 11.894,29.244 C12.456,28.326 13.306,26.812 13.618,25.612 C13.786,24.962 14.48,22.318 14.48,22.318 C14.93,23.18 16.256,23.912 17.654,23.912 C21.836,23.912 24.848,20.068 24.848,15.286 C24.848,10.704 21.11,7.28 16.304,7.28 C10.322,7.28 7.148,11.298 7.148,15.668 C7.148,17.7 8.23,20.23 9.96,21.036 C10.222,21.162 10.36,21.104 10.422,20.848 C10.466,20.654 10.704,19.716 10.81,19.274 C10.842,19.136 10.828,19.012 10.716,18.874 C10.142,18.18 9.684,16.898 9.684,15.712 C9.684,12.656 11.996,9.694 15.94,9.694 C19.346,9.694 21.728,12.012 21.728,15.332 C21.728,19.082 19.834,21.682 17.372,21.682 C16.01,21.682 14.99,20.556 15.322,19.176 C15.716,17.526 16.472,15.75 16.472,14.564 C16.472,13.502 15.904,12.614 14.716,12.614 C13.322,12.614 12.21,14.052 12.21,15.982 C12.21,17.206 12.622,18.038 12.622,18.038 C12.622,18.038 11.246,23.844 10.996,24.926 C10.714,26.126 10.828,27.808 10.946,28.902 C5.79,26.89 2.134,21.878 2.134,16.002 C2.134,8.346 8.34,2.14 15.996,2.14 C23.652,2.14 29.858,8.346 29.858,16.002 C29.858,23.658 23.652,29.864 15.996,29.864 L16,29.862 Z" id="Shape"></path>
        </g>
    </g>
</svg>