<?xml version="1.0" encoding="UTF-8"?>
<svg width="32px" height="32px" viewBox="0 0 32 32" version="1.1" xmlns="http://www.w3.org/2000/svg" xmlns:xlink="http://www.w3.org/1999/xlink">
    <title>podcast</title>
    <g id="Page-1" stroke="none" stroke-width="1" fill="none" fill-rule="evenodd">
        <g id="029-podcast" fill="#000000" fill-rule="nonzero">
            <path d="M32,16 C32,7.164 24.836,0 16,0 C7.164,0 0,7.164 0,16 C0,22.876 4.338,28.74 10.428,31.002 L10,32 L22,32 L21.572,31.002 C27.662,28.74 32,22.876 32,16 Z M15.212,19.838 C14.5,19.532 14,18.824 14,18 C14,16.896 14.896,16 16,16 C17.104,16 18,16.896 18,18 C18,18.824 17.5,19.532 16.788,19.838 L16,18 L15.212,19.838 Z M16.82,19.916 C18.636,19.538 20,17.928 20,16 C20,13.79 18.21,12 16,12 C13.79,12 12,13.79 12,16 C12,17.928 13.364,19.536 15.18,19.914 L12.848,25.356 C9.998,24.132 8,21.3 8,18.002 C8,13.584 11.582,9.626 16,9.626 C20.418,9.626 24,13.582 24,18.002 C24,21.3 22.002,24.134 19.152,25.356 L16.82,19.916 Z M21.514,30.866 L19.204,25.476 C23.156,24.14 26,20.402 26,16 C26,10.478 21.522,6 16,6 C10.478,6 6,10.478 6,16 C6,20.402 8.844,24.14 12.796,25.476 L10.486,30.866 C5.498,28.726 2.006,23.772 2.006,18 C2.006,10.27 8.272,3.63 16,3.63 C23.728,3.63 29.994,10.27 29.994,18 C29.994,23.772 26.5,28.726 21.514,30.866 Z" id="Shape"></path>
        </g>
    </g>
</svg>