<?xml version="1.0" encoding="UTF-8"?>
<svg width="32px" height="28px" viewBox="0 0 32 28" version="1.1" xmlns="http://www.w3.org/2000/svg" xmlns:xlink="http://www.w3.org/1999/xlink">
    <title>point_left</title>
    <g id="Page-1" stroke="none" stroke-width="1" fill="none" fill-rule="evenodd">
        <g id="263-point-left" fill="#000000" fill-rule="nonzero">
            <path d="M19,28 L14,28 C12.346,28 11,26.654 11,25 C11,24.466 11.14,23.964 11.386,23.528 C10.552,22.994 10,22.06 10,21 C10,20.232 10.29,19.532 10.766,19 C10.29,18.468 10,17.768 10,17 C10,16.65 10.06,16.312 10.172,16 L3,16 C1.346,16 8.8817842e-16,14.654 8.8817842e-16,13 C8.8817842e-16,11.346 1.346,10 3,10 L15.334,10 L12.402,4.5 C12.14,4.046 12,3.528 12,3 C12,1.346 13.346,0 15,0 C15.824,0 16.592,0.328 17.164,0.922 C17.172,0.93 17.178,0.938 17.186,0.946 L24,8.42 L24,7 C24,6.448 24.448,6 25,6 L31,6 C31.552,6 32,6.448 32,7 L32,27 C32,27.552 31.552,28 31,28 L25,28 C24.448,28 24,27.552 24,27 L24,25.618 L19.448,27.894 C19.31,27.964 19.156,28 19,28 Z M27,26 C27.552,26 28,25.552 28,25 C28,24.448 27.552,24 27,24 C26.448,24 26,24.448 26,25 C26,25.552 26.448,26 27,26 Z M18.764,26 L24,23.382 L24,11.388 L15.714,2.3 C15.524,2.106 15.272,2 15,2 C14.448,2 14,2.448 14,3 C14,3.17 14.04,3.332 14.122,3.478 C14.132,3.494 14.142,3.512 14.15,3.528 L17.882,10.528 C18.048,10.838 18.038,11.212 17.858,11.512 C17.678,11.812 17.352,11.998 17,11.998 L3,11.998 C2.448,11.998 2,12.446 2,12.998 C2,13.55 2.448,13.998 3,13.998 L13,13.998 C13.552,13.998 14,14.446 14,14.998 C14,15.55 13.552,15.998 13,15.998 C12.448,15.998 12,16.446 12,16.998 C12,17.55 12.448,17.998 13,17.998 C13.552,17.998 14,18.446 14,18.998 C14,19.55 13.552,19.998 13,19.998 C12.448,19.998 12,20.446 12,20.998 C12,21.55 12.448,21.998 13,21.998 L14,21.998 C14.552,21.998 15,22.446 15,22.998 C15,23.55 14.552,23.998 14,23.998 C13.448,23.998 13,24.446 13,24.998 C13,25.55 13.448,25.998 14,25.998 L18.764,25.998 L18.764,26 Z" id="Shape"></path>
        </g>
    </g>
</svg>