<?xml version="1.0" encoding="UTF-8"?>
<svg width="28px" height="32px" viewBox="0 0 28 32" version="1.1" xmlns="http://www.w3.org/2000/svg" xmlns:xlink="http://www.w3.org/1999/xlink">
    <title>point_down</title>
    <g id="Page-1" stroke="none" stroke-width="1" fill="none" fill-rule="evenodd">
        <g id="262-point-down" fill="#000000" fill-rule="nonzero">
            <path d="M28,13 L28,18 C28,19.654 26.654,21 25,21 C24.466,21 23.964,20.86 23.528,20.614 C22.994,21.448 22.06,22 21,22 C20.232,22 19.532,21.71 19,21.234 C18.468,21.71 17.768,22 17,22 C16.65,22 16.312,21.94 16,21.828 L16,29 C16,30.654 14.654,32 13,32 C11.346,32 10,30.654 10,29 L10,16.666 L4.5,19.598 C4.046,19.86 3.528,20 3,20 C1.346,20 0,18.654 0,17 C0,16.176 0.328,15.408 0.922,14.836 C0.93,14.828 0.938,14.822 0.946,14.814 L8.42,8 L7,8 C6.448,8 6,7.552 6,7 L6,1 C6,0.448 6.448,0 7,0 L27,0 C27.552,0 28,0.448 28,1 L28,7 C28,7.552 27.552,8 27,8 L25.618,8 L27.894,12.552 C27.964,12.69 28,12.844 28,13 Z M26,5 C26,4.448 25.552,4 25,4 C24.448,4 24,4.448 24,5 C24,5.552 24.448,6 25,6 C25.552,6 26,5.552 26,5 Z M26,13.236 L23.382,8 L11.388,8 L2.3,16.286 C2.106,16.476 2,16.728 2,17 C2,17.552 2.448,18 3,18 C3.17,18 3.332,17.96 3.478,17.878 C3.494,17.868 3.512,17.858 3.528,17.85 L10.528,14.118 C10.838,13.952 11.212,13.962 11.512,14.144 C11.812,14.326 11.998,14.65 11.998,15.002 L11.998,29.002 C11.998,29.554 12.446,30.002 12.998,30.002 C13.55,30.002 13.998,29.554 13.998,29.002 L13.998,19.002 C13.998,18.45 14.446,18.002 14.998,18.002 C15.55,18.002 15.998,18.45 15.998,19.002 C15.998,19.554 16.446,20.002 16.998,20.002 C17.55,20.002 17.998,19.554 17.998,19.002 C17.998,18.45 18.446,18.002 18.998,18.002 C19.55,18.002 19.998,18.45 19.998,19.002 C19.998,19.554 20.446,20.002 20.998,20.002 C21.55,20.002 21.998,19.554 21.998,19.002 L21.998,18.002 C21.998,17.45 22.446,17.002 22.998,17.002 C23.55,17.002 23.998,17.45 23.998,18.002 C23.998,18.554 24.446,19.002 24.998,19.002 C25.55,19.002 25.998,18.554 25.998,18.002 L25.998,13.238 L26,13.236 Z" id="Shape"></path>
        </g>
    </g>
</svg>