<?xml version="1.0" encoding="UTF-8"?>
<svg width="28px" height="32px" viewBox="0 0 28 32" version="1.1" xmlns="http://www.w3.org/2000/svg" xmlns:xlink="http://www.w3.org/1999/xlink">
    <title>point_up</title>
    <g id="Page-1" stroke="none" stroke-width="1" fill="none" fill-rule="evenodd">
        <g id="260-point-up" fill="#000000" fill-rule="nonzero">
            <path d="M28,19 L28,14 C28,12.346 26.654,11 25,11 C24.466,11 23.964,11.14 23.528,11.386 C22.994,10.552 22.06,10 21,10 C20.232,10 19.532,10.29 19,10.766 C18.468,10.29 17.768,10 17,10 C16.65,10 16.312,10.06 16,10.172 L16,3 C16,1.346 14.654,8.8817842e-16 13,8.8817842e-16 C11.346,8.8817842e-16 10,1.346 10,3 L10,15.334 L4.5,12.402 C4.046,12.14 3.528,12 3,12 C1.346,12 0,13.346 0,15 C0,15.824 0.328,16.592 0.922,17.164 C0.93,17.172 0.938,17.178 0.946,17.186 L8.42,24 L7,24 C6.448,24 6,24.448 6,25 L6,31 C6,31.552 6.448,32 7,32 L27,32 C27.552,32 28,31.552 28,31 L28,25 C28,24.448 27.552,24 27,24 L25.618,24 L27.894,19.448 C27.964,19.31 28,19.156 28,19 Z M26,27 C26,27.552 25.552,28 25,28 C24.448,28 24,27.552 24,27 C24,26.448 24.448,26 25,26 C25.552,26 26,26.448 26,27 Z M26,18.764 L23.382,24 L11.388,24 L2.3,15.714 C2.106,15.524 2,15.272 2,15 C2,14.448 2.448,14 3,14 C3.17,14 3.332,14.04 3.478,14.122 C3.494,14.132 3.512,14.142 3.528,14.15 L10.528,17.882 C10.838,18.048 11.212,18.038 11.512,17.858 C11.812,17.678 11.998,17.352 11.998,17 L11.998,3 C11.998,2.448 12.446,2 12.998,2 C13.55,2 13.998,2.448 13.998,3 L13.998,13 C13.998,13.552 14.446,14 14.998,14 C15.55,14 15.998,13.552 15.998,13 C15.998,12.448 16.446,12 16.998,12 C17.55,12 17.998,12.448 17.998,13 C17.998,13.552 18.446,14 18.998,14 C19.55,14 19.998,13.552 19.998,13 C19.998,12.448 20.446,12 20.998,12 C21.55,12 21.998,12.448 21.998,13 L21.998,14 C21.998,14.552 22.446,15 22.998,15 C23.55,15 23.998,14.552 23.998,14 C23.998,13.448 24.446,13 24.998,13 C25.55,13 25.998,13.448 25.998,14 L25.998,18.764 L26,18.764 Z" id="Shape"></path>
        </g>
    </g>
</svg>