<?xml version="1.0" encoding="UTF-8"?>
<svg width="32px" height="28px" viewBox="0 0 32 28" version="1.1" xmlns="http://www.w3.org/2000/svg" xmlns:xlink="http://www.w3.org/1999/xlink">
    <title>point_right</title>
    <g id="Page-1" stroke="none" stroke-width="1" fill="none" fill-rule="evenodd">
        <g id="261-point-right" fill="#000000" fill-rule="nonzero">
            <path d="M13,28 L18,28 C19.654,28 21,26.654 21,25 C21,24.466 20.86,23.964 20.614,23.528 C21.448,22.994 22,22.06 22,21 C22,20.232 21.71,19.532 21.234,19 C21.71,18.468 22,17.768 22,17 C22,16.65 21.94,16.312 21.828,16 L29,16 C30.654,16 32,14.654 32,13 C32,11.346 30.654,10 29,10 L16.666,10 L19.598,4.5 C19.86,4.046 20,3.528 20,3 C20,1.346 18.654,0 17,0 C16.176,0 15.408,0.328 14.836,0.922 C14.828,0.93 14.822,0.938 14.814,0.946 L8,8.42 L8,7 C8,6.448 7.552,6 7,6 L1,6 C0.448,6 0,6.448 0,7 L0,27 C0,27.552 0.448,28 1,28 L7,28 C7.552,28 8,27.552 8,27 L8,25.618 L12.552,27.894 C12.69,27.964 12.844,28 13,28 Z M5,26 C4.448,26 4,25.552 4,25 C4,24.448 4.448,24 5,24 C5.552,24 6,24.448 6,25 C6,25.552 5.552,26 5,26 Z M13.236,26 L8,23.382 L8,11.388 L16.286,2.3 C16.476,2.106 16.728,2 17,2 C17.552,2 18,2.448 18,3 C18,3.17 17.96,3.332 17.878,3.478 C17.868,3.494 17.858,3.512 17.85,3.528 L14.118,10.528 C13.952,10.838 13.962,11.212 14.144,11.512 C14.326,11.812 14.65,11.998 15.002,11.998 L29.002,11.998 C29.554,11.998 30.002,12.446 30.002,12.998 C30.002,13.55 29.554,13.998 29.002,13.998 L19.002,13.998 C18.45,13.998 18.002,14.446 18.002,14.998 C18.002,15.55 18.45,15.998 19.002,15.998 C19.554,15.998 20.002,16.446 20.002,16.998 C20.002,17.55 19.554,17.998 19.002,17.998 C18.45,17.998 18.002,18.446 18.002,18.998 C18.002,19.55 18.45,19.998 19.002,19.998 C19.554,19.998 20.002,20.446 20.002,20.998 C20.002,21.55 19.554,21.998 19.002,21.998 L18.002,21.998 C17.45,21.998 17.002,22.446 17.002,22.998 C17.002,23.55 17.45,23.998 18.002,23.998 C18.554,23.998 19.002,24.446 19.002,24.998 C19.002,25.55 18.554,25.998 18.002,25.998 L13.238,25.998 L13.236,26 Z" id="Shape"></path>
        </g>
    </g>
</svg>