<?xml version="1.0" encoding="UTF-8"?>
<svg width="40px" height="32px" viewBox="0 0 40 32" version="1.1" xmlns="http://www.w3.org/2000/svg" xmlns:xlink="http://www.w3.org/1999/xlink">
    <title>price_tags</title>
    <g id="Page-1" stroke="none" stroke-width="1" fill="none" fill-rule="evenodd">
        <g id="055-price-tags" fill="#000000" fill-rule="nonzero">
            <path d="M38.5,0 L26.5,0 C25.676,0 24.522,0.478 23.94,1.06 L9.062,15.938 C8.478,16.522 8.478,17.476 9.062,18.06 L21.94,30.938 C22.524,31.522 23.478,31.522 24.062,30.938 L38.94,16.06 C39.524,15.476 40,14.324 40,13.5 L40,1.5 C40,0.676 39.326,0 38.5,0 Z M31,12 C29.344,12 28,10.656 28,9 C28,7.344 29.344,6 31,6 C32.656,6 34,7.344 34,9 C34,10.656 32.656,12 31,12 Z" id="Shape"></path>
            <path d="M4,17 L21,0 L18.5,0 C17.676,0 16.522,0.478 15.94,1.06 L1.062,15.938 C0.478,16.522 0.478,17.476 1.062,18.06 L13.94,30.938 C14.524,31.522 15.478,31.522 16.062,30.938 L17.002,29.998 L4.002,16.998 L4,17 Z" id="Path"></path>
        </g>
    </g>
</svg>