<?xml version="1.0" encoding="UTF-8"?>
<svg width="32px" height="32px" viewBox="0 0 32 32" version="1.1" xmlns="http://www.w3.org/2000/svg" xmlns:xlink="http://www.w3.org/1999/xlink">
    <title>price_tag</title>
    <g id="Page-1" stroke="none" stroke-width="1" fill="none" fill-rule="evenodd">
        <g id="054-price-tag" fill="#000000" fill-rule="nonzero">
            <path d="M30.5,0 L18.5,0 C17.676,0 16.522,0.478 15.94,1.06 L1.062,15.938 C0.478,16.522 0.478,17.476 1.062,18.06 L13.94,30.938 C14.524,31.522 15.478,31.522 16.062,30.938 L30.94,16.06 C31.524,15.476 32,14.324 32,13.5 L32,1.5 C32,0.676 31.324,0 30.5,0 Z M23,12 C21.344,12 20,10.656 20,9 C20,7.344 21.344,6 23,6 C24.656,6 26,7.344 26,9 C26,10.656 24.656,12 23,12 Z" id="Shape"></path>
        </g>
    </g>
</svg>