<?xml version="1.0" encoding="UTF-8"?>
<svg width="30px" height="32px" viewBox="0 0 30 32" version="1.1" xmlns="http://www.w3.org/2000/svg" xmlns:xlink="http://www.w3.org/1999/xlink">
    <title>profile</title>
    <g id="Page-1" stroke="none" stroke-width="1" fill="none" fill-rule="evenodd">
        <g id="036-profile" fill="#000000" fill-rule="nonzero">
            <path d="M27,0 L3,0 C1.35,0 0,1.35 0,3 L0,29 C0,30.65 1.35,32 3,32 L27,32 C28.65,32 30,30.65 30,29 L30,3 C30,1.35 28.65,0 27,0 Z M26,28 L4,28 L4,4 L26,4 L26,28 Z M8,18 L22,18 L22,20 L8,20 L8,18 Z M8,22 L22,22 L22,24 L8,24 L8,22 Z M10,9 C10,7.344 11.344,6 13,6 C14.656,6 16,7.344 16,9 C16,10.656 14.656,12 13,12 C11.344,12 10,10.656 10,9 Z M15,12 L11,12 C9.35,12 8,12.9 8,14 L8,16 L18,16 L18,14 C18,12.9 16.65,12 15,12 Z" id="Shape"></path>
        </g>
    </g>
</svg>