<?xml version="1.0" encoding="UTF-8"?>
<svg width="32px" height="32px" viewBox="0 0 32 32" version="1.1" xmlns="http://www.w3.org/2000/svg" xmlns:xlink="http://www.w3.org/1999/xlink">
    <title>qrcode</title>
    <g id="Page-1" stroke="none" stroke-width="1" fill="none" fill-rule="evenodd">
        <g id="057-qrcode" fill="#000000" fill-rule="nonzero">
            <path d="M10,2 L2,2 L2,10 L10,10 L10,2 Z M12,0 L12,0 L12,12 L0,12 L0,0 L12,0 Z M4,4 L8,4 L8,8 L4,8 L4,4 Z M30,2 L22,2 L22,10 L30,10 L30,2 Z M32,0 L32,0 L32,12 L20,12 L20,0 L32,0 Z M24,4 L28,4 L28,8 L24,8 L24,4 Z M10,22 L2,22 L2,30 L10,30 L10,22 Z M12,20 L12,20 L12,32 L0,32 L0,20 L12,20 Z M4,24 L8,24 L8,28 L4,28 L4,24 Z M14,0 L16,0 L16,2 L14,2 L14,0 Z M16,2 L18,2 L18,4 L16,4 L16,2 Z M14,4 L16,4 L16,6 L14,6 L14,4 Z M16,6 L18,6 L18,8 L16,8 L16,6 Z M14,8 L16,8 L16,10 L14,10 L14,8 Z M16,10 L18,10 L18,12 L16,12 L16,10 Z M14,12 L16,12 L16,14 L14,14 L14,12 Z M14,16 L16,16 L16,18 L14,18 L14,16 Z M16,18 L18,18 L18,20 L16,20 L16,18 Z M14,20 L16,20 L16,22 L14,22 L14,20 Z M16,22 L18,22 L18,24 L16,24 L16,22 Z M14,24 L16,24 L16,26 L14,26 L14,24 Z M16,26 L18,26 L18,28 L16,28 L16,26 Z M14,28 L16,28 L16,30 L14,30 L14,28 Z M16,30 L18,30 L18,32 L16,32 L16,30 Z M30,16 L32,16 L32,18 L30,18 L30,16 Z M2,16 L4,16 L4,18 L2,18 L2,16 Z M4,14 L6,14 L6,16 L4,16 L4,14 Z M0,14 L2,14 L2,16 L0,16 L0,14 Z M8,14 L10,14 L10,16 L8,16 L8,14 Z M10,16 L12,16 L12,18 L10,18 L10,16 Z M12,14 L14,14 L14,16 L12,16 L12,14 Z M18,16 L20,16 L20,18 L18,18 L18,16 Z M20,14 L22,14 L22,16 L20,16 L20,14 Z M22,16 L24,16 L24,18 L22,18 L22,16 Z M24,14 L26,14 L26,16 L24,16 L24,14 Z M26,16 L28,16 L28,18 L26,18 L26,16 Z M28,14 L30,14 L30,16 L28,16 L28,14 Z M30,20 L32,20 L32,22 L30,22 L30,20 Z M18,20 L20,20 L20,22 L18,22 L18,20 Z M20,18 L22,18 L22,20 L20,20 L20,18 Z M22,20 L24,20 L24,22 L22,22 L22,20 Z M26,20 L28,20 L28,22 L26,22 L26,20 Z M28,18 L30,18 L30,20 L28,20 L28,18 Z M30,24 L32,24 L32,26 L30,26 L30,24 Z M18,24 L20,24 L20,26 L18,26 L18,24 Z M20,22 L22,22 L22,24 L20,24 L20,22 Z M24,22 L26,22 L26,24 L24,24 L24,22 Z M26,24 L28,24 L28,26 L26,26 L26,24 Z M28,22 L30,22 L30,24 L28,24 L28,22 Z M30,28 L32,28 L32,30 L30,30 L30,28 Z M20,26 L22,26 L22,28 L20,28 L20,26 Z M22,28 L24,28 L24,30 L22,30 L22,28 Z M24,26 L26,26 L26,28 L24,28 L24,26 Z M26,28 L28,28 L28,30 L26,30 L26,28 Z M20,30 L22,30 L22,32 L20,32 L20,30 Z M24,30 L26,30 L26,32 L24,32 L24,30 Z M28,30 L30,30 L30,32 L28,32 L28,30 Z" id="Shape"></path>
        </g>
    </g>
</svg>