<?xml version="1.0" encoding="UTF-8"?>
<svg width="33px" height="22px" viewBox="0 0 33 22" version="1.1" xmlns="http://www.w3.org/2000/svg" xmlns:xlink="http://www.w3.org/1999/xlink">
    <title>quotes_right</title>
    <g id="Page-1" stroke="none" stroke-width="1" fill="none" fill-rule="evenodd">
        <g id="121-quotes-right" fill="#000000" fill-rule="nonzero">
            <path d="M25,14 C21.134,14 18,10.866 18,7 C18,3.134 21.134,0 25,0 C28.866,0 32,3.134 32,7 L32.032,8 C32.032,15.732 25.764,22 18.032,22 L18.032,18 C20.704,18 23.214,16.96 25.104,15.072 C25.468,14.708 25.8,14.322 26.098,13.916 C25.74,13.972 25.374,14.002 25,14.002 L25,14 Z M7,14 C3.134,14 0,10.866 0,7 C0,3.134 3.134,0 7,0 C10.866,0 14,3.134 14,7 L14.032,8 C14.032,15.732 7.764,22 0.032,22 L0.032,18 C2.704,18 5.214,16.96 7.104,15.072 C7.468,14.708 7.8,14.322 8.098,13.916 C7.74,13.972 7.374,14.002 7,14.002 L7,14 Z" id="Shape"></path>
        </g>
    </g>
</svg>