<?xml version="1.0" encoding="UTF-8"?>
<svg width="33px" height="22px" viewBox="0 0 33 22" version="1.1" xmlns="http://www.w3.org/2000/svg" xmlns:xlink="http://www.w3.org/1999/xlink">
    <title>quotes_left</title>
    <g id="Page-1" stroke="none" stroke-width="1" fill="none" fill-rule="evenodd">
        <g id="120-quotes-left" fill="#000000" fill-rule="nonzero">
            <path d="M7.032,8 C10.898,8 14.032,11.134 14.032,15 C14.032,18.866 10.898,22 7.032,22 C3.166,22 0.032,18.866 0.032,15 L2.77555756e-17,14 C2.77555756e-17,6.268 6.268,0 14,0 L14,4 C11.328,4 8.818,5.04 6.928,6.928 C6.564,7.292 6.232,7.678 5.934,8.084 C6.292,8.028 6.658,7.998 7.03,7.998 L7.032,8 Z M25.032,8 C28.898,8 32.032,11.134 32.032,15 C32.032,18.866 28.898,22 25.032,22 C21.166,22 18.032,18.866 18.032,15 L18,14 C18,6.268 24.268,0 32,0 L32,4 C29.328,4 26.818,5.04 24.928,6.928 C24.564,7.292 24.232,7.678 23.934,8.084 C24.292,8.028 24.658,7.998 25.032,7.998 L25.032,8 Z" id="Shape"></path>
        </g>
    </g>
</svg>