<?xml version="1.0" encoding="UTF-8"?>
<svg width="32px" height="32px" viewBox="0 0 32 32" version="1.1" xmlns="http://www.w3.org/2000/svg" xmlns:xlink="http://www.w3.org/1999/xlink">
    <title>radio_checked</title>
    <g id="Page-1" stroke="none" stroke-width="1" fill="none" fill-rule="evenodd">
        <g id="341-radio-checked" fill="#000000" fill-rule="nonzero">
            <path d="M16,0 C7.164,0 0,7.164 0,16 C0,24.836 7.164,32 16,32 C24.836,32 32,24.836 32,16 C32,7.164 24.836,0 16,0 Z M16,28 C9.372,28 4,22.628 4,16 C4,9.372 9.372,4 16,4 C22.628,4 28,9.372 28,16 C28,22.628 22.628,28 16,28 Z M10,16 C10,12.686 12.686,10 16,10 C19.314,10 22,12.686 22,16 C22,19.314 19.314,22 16,22 C12.686,22 10,19.314 10,16 Z" id="Shape"></path>
        </g>
    </g>
</svg>