<?xml version="1.0" encoding="UTF-8"?>
<svg width="32px" height="28px" viewBox="0 0 32 28" version="1.1" xmlns="http://www.w3.org/2000/svg" xmlns:xlink="http://www.w3.org/1999/xlink">
    <title>reddit</title>
    <g id="Page-1" stroke="none" stroke-width="1" fill="none" fill-rule="evenodd">
        <g id="455-reddit" fill="#000000" fill-rule="nonzero">
            <path d="M8,16 C8,14.896 8.896,14 10,14 C11.104,14 12,14.896 12,16 C12,17.104 11.104,18 10,18 C8.896,18 8,17.104 8,16 Z M20,16 C20,14.896 20.896,14 22,14 C23.104,14 24,14.896 24,16 C24,17.104 23.104,18 22,18 C20.896,18 20,17.104 20,16 Z M20.098,20.274 C20.614,19.868 21.36,19.956 21.766,20.472 C22.172,20.988 22.084,21.734 21.568,22.14 C20.134,23.27 17.948,24 16.002,24 C14.056,24 11.87,23.27 10.434,22.14 C9.918,21.734 9.83,20.988 10.236,20.472 C10.642,19.956 11.388,19.868 11.904,20.274 C12.73,20.924 14.364,21.624 16.002,21.624 C17.64,21.624 19.274,20.924 20.1,20.274 L20.098,20.274 Z M32,12 C32,9.79 30.21,8 28,8 C26.496,8 25.188,8.83 24.504,10.056 C22.448,8.932 19.944,8.204 17.214,8.036 L19.6,2.676 L24.168,3.994 C24.58,5.16 25.69,5.998 26.998,5.998 C28.654,5.998 29.998,4.654 29.998,2.998 C29.998,1.342 28.654,-0.002 26.998,-0.002 C25.856,-0.002 24.862,0.636 24.356,1.576 L19.266,0.106 C18.696,-0.058 18.092,0.222 17.852,0.764 L14.61,8.046 C11.95,8.234 9.508,8.952 7.496,10.054 C6.812,8.828 5.504,7.998 4,7.998 C1.79,7.998 -3.55271368e-15,9.788 -3.55271368e-15,11.998 C-3.55271368e-15,13.632 0.982,15.038 2.386,15.658 C2.134,16.408 2,17.192 2,17.998 C2,23.52 8.268,27.998 16,27.998 C23.732,27.998 30,23.52 30,17.998 C30,17.192 29.866,16.408 29.614,15.658 C31.02,15.038 32,13.632 32,11.998 L32,12 Z M27,1.876 C27.622,1.876 28.126,2.38 28.126,3.002 C28.126,3.624 27.622,4.128 27,4.128 C26.378,4.128 25.874,3.624 25.874,3.002 C25.874,2.38 26.378,1.876 27,1.876 L27,1.876 Z M2,12 C2,10.898 2.898,10 4,10 C4.798,10 5.486,10.468 5.808,11.146 C4.762,11.938 3.896,12.854 3.256,13.856 C2.52,13.56 2,12.84 2,12 Z M16,25.626 C9.58,25.626 4.374,22.212 4.374,18 C4.374,13.788 9.578,10.374 16,10.374 C22.42,10.374 27.626,13.788 27.626,18 C27.626,22.212 22.422,25.626 16,25.626 Z M28.744,13.856 C28.104,12.852 27.238,11.938 26.192,11.146 C26.514,10.47 27.202,10 28,10 C29.102,10 30,10.898 30,12 C30,12.84 29.48,13.56 28.744,13.856 Z" id="Shape"></path>
        </g>
    </g>
</svg>