<?xml version="1.0" encoding="UTF-8"?>
<svg width="32px" height="32px" viewBox="0 0 32 32" version="1.1" xmlns="http://www.w3.org/2000/svg" xmlns:xlink="http://www.w3.org/1999/xlink">
    <title>rss</title>
    <g id="Page-1" stroke="none" stroke-width="1" fill="none" fill-rule="evenodd">
        <g id="412-rss" fill="#000000" fill-rule="nonzero">
            <path d="M4.26,23.466 C1.91,23.466 0,25.382 0,27.718 C0,30.066 1.91,31.962 4.26,31.962 C6.618,31.962 8.526,30.066 8.526,27.718 C8.526,25.382 6.618,23.466 4.26,23.466 Z M0.004,10.872 L0.004,17.006 C3.998,17.006 7.752,18.568 10.58,21.398 C13.404,24.22 14.964,27.992 14.964,32.002 L21.124,32.002 C21.124,20.352 11.646,10.874 0.004,10.874 L0.004,10.872 Z M0.012,0 L0.012,6.136 C14.256,6.136 25.848,17.74 25.848,32 L32,32 C32,14.36 17.648,0 0.012,0 Z" id="Shape"></path>
        </g>
    </g>
</svg>