<?xml version="1.0" encoding="UTF-8"?>
<svg width="32px" height="32px" viewBox="0 0 32 32" version="1.1" xmlns="http://www.w3.org/2000/svg" xmlns:xlink="http://www.w3.org/1999/xlink">
    <title>rss2</title>
    <g id="Page-1" stroke="none" stroke-width="1" fill="none" fill-rule="evenodd">
        <g id="413-rss2" fill="#000000" fill-rule="nonzero">
            <path d="M29,0 L3,0 C1.35,0 0,1.35 0,3 L0,29 C0,30.65 1.35,32 3,32 L29,32 C30.65,32 32,30.65 32,29 L32,3 C32,1.35 30.65,0 29,0 Z M8.718,25.976 C7.218,25.976 6,24.77 6,23.27 C6,21.782 7.218,20.558 8.718,20.558 C10.224,20.558 11.436,21.784 11.436,23.27 C11.436,24.77 10.218,25.976 8.718,25.976 Z M15.544,26 C15.544,23.444 14.55,21.038 12.75,19.238 C10.944,17.432 8.55,16.438 6,16.438 L6,12.526 C13.426,12.526 19.476,18.57 19.476,26 L15.544,26 Z M22.488,26 C22.488,16.906 15.094,9.5 6.006,9.5 L6.006,5.588 C17.256,5.588 26.412,14.75 26.412,26 L22.486,26 L22.488,26 Z" id="Shape"></path>
        </g>
    </g>
</svg>