<?xml version="1.0" encoding="UTF-8"?>
<svg width="32px" height="32px" viewBox="0 0 32 32" version="1.1" xmlns="http://www.w3.org/2000/svg" xmlns:xlink="http://www.w3.org/1999/xlink">
    <title>safari</title>
    <g id="Page-1" stroke="none" stroke-width="1" fill="none" fill-rule="evenodd">
        <g id="478-safari" fill="#000000" fill-rule="nonzero">
            <path d="M16,0 C7.162,0 0,7.162 0,16 C0,24.838 7.162,32 16,32 C24.838,32 32,24.838 32,16 C32,7.162 24.838,0 16,0 Z M29.95,14.776 L29.918,14.444 C29.924,14.556 29.936,14.662 29.95,14.776 Z M27.762,8.4 L27.536,8.062 C27.61,8.174 27.686,8.286 27.762,8.4 Z M23.938,4.462 L23.6,4.238 C23.712,4.314 23.826,4.388 23.938,4.462 Z M17.556,2.088 L17.218,2.056 C17.33,2.062 17.444,2.074 17.556,2.088 Z M14.776,2.05 L14.438,2.082 C14.55,2.076 14.662,2.064 14.776,2.05 Z M8.4,4.238 L8.062,4.462 C8.174,4.386 8.286,4.312 8.4,4.238 Z M4.462,8.062 L4.238,8.4 C4.314,8.288 4.388,8.176 4.462,8.062 Z M2.088,14.444 L2.056,14.782 C2.062,14.67 2.074,14.558 2.088,14.444 Z M2.05,17.226 L2.082,17.564 C2.076,17.452 2.064,17.338 2.05,17.226 Z M4.238,23.594 L4.462,23.932 C4.386,23.826 4.312,23.714 4.238,23.594 Z M4.5,23.988 L6.994,22.32 L6.718,21.902 L4.224,23.57 C3.092,21.814 2.348,19.796 2.098,17.62 L3.592,17.47 L3.542,16.97 L2.048,17.12 C2.024,16.832 2.01,16.538 2.004,16.244 L5.004,16.244 L5.004,15.744 L2.004,15.744 C2.01,15.45 2.022,15.162 2.048,14.868 L3.542,15.012 L3.592,14.512 L2.098,14.368 C2.348,12.192 3.098,10.174 4.23,8.418 L6.724,10.086 L7,9.668 L4.5,8.012 C4.668,7.774 4.838,7.538 5.018,7.312 L6.174,8.262 L6.492,7.874 L5.336,6.924 C5.524,6.7 5.724,6.486 5.924,6.274 L8.042,8.392 L8.398,8.036 L6.28,5.918 C6.492,5.718 6.704,5.518 6.924,5.33 L7.874,6.492 L8.262,6.174 L7.312,5.018 C7.544,4.836 7.774,4.662 8.012,4.492 L9.68,6.986 L10.098,6.71 L8.43,4.216 C10.186,3.084 12.206,2.34 14.38,2.09 L14.53,3.584 L15.03,3.534 L14.88,2.04 C15.168,2.016 15.462,2.002 15.756,1.996 L15.756,4.996 L16.256,4.996 L16.256,1.996 C16.55,2.002 16.838,2.014 17.132,2.04 L16.988,3.534 L17.488,3.584 L17.632,2.09 C19.808,2.34 21.826,3.09 23.582,4.222 L21.914,6.716 L22.332,6.992 L24,4.498 C24.238,4.666 24.476,4.836 24.7,5.016 L23.75,6.172 L24.138,6.49 L25.088,5.334 C25.314,5.522 25.526,5.722 25.738,5.922 L24.938,6.704 L14,13.998 L6.706,24.936 L5.924,25.718 C5.724,25.506 5.524,25.292 5.336,25.074 L6.492,24.124 L6.174,23.736 L5.018,24.686 C4.836,24.46 4.668,24.224 4.5,23.986 L4.5,23.988 Z M8.062,27.532 L8.4,27.758 C8.288,27.69 8.176,27.614 8.062,27.532 Z M14.444,29.912 L14.782,29.944 C14.67,29.938 14.558,29.926 14.444,29.912 Z M17.226,29.95 L17.558,29.918 C17.446,29.924 17.34,29.936 17.226,29.95 Z M23.6,27.762 L23.938,27.536 C23.826,27.61 23.712,27.686 23.6,27.762 Z M26.982,24.688 L25.826,23.738 L25.508,24.126 L26.664,25.076 C26.476,25.302 26.276,25.514 26.076,25.726 L23.958,23.608 L23.602,23.964 L25.72,26.082 C25.508,26.282 25.294,26.482 25.076,26.67 L24.126,25.508 L23.738,25.826 L24.688,26.982 C24.456,27.164 24.226,27.338 23.988,27.506 L22.32,25.012 L21.902,25.286 L23.57,27.78 C21.814,28.912 19.796,29.656 17.62,29.906 L17.47,28.412 L16.97,28.462 L17.12,29.956 C16.832,29.98 16.538,29.994 16.244,30 L16.244,27 L15.744,27 L15.744,30 C15.45,29.994 15.162,29.982 14.868,29.956 L15.012,28.462 L14.512,28.412 L14.368,29.906 C12.192,29.656 10.174,28.906 8.418,27.774 L10.086,25.28 L9.668,25.006 L8.012,27.5 C7.774,27.332 7.538,27.162 7.312,26.982 L8.262,25.826 L7.874,25.508 L6.924,26.664 C6.7,26.476 6.486,26.276 6.274,26.076 L7.062,25.294 L18,18 L25.294,7.062 L26.076,6.28 C26.276,6.492 26.476,6.704 26.664,6.924 L25.508,7.874 L25.826,8.262 L26.982,7.312 C27.164,7.544 27.338,7.774 27.506,8.012 L25.012,9.68 L25.286,10.098 L27.78,8.43 C28.912,10.186 29.656,12.206 29.906,14.38 L28.412,14.53 L28.462,15.03 L29.956,14.88 C29.98,15.168 29.994,15.462 30,15.756 L27,15.756 L27,16.256 L30,16.256 C29.994,16.55 29.982,16.838 29.956,17.132 L28.462,16.988 L28.412,17.488 L29.906,17.632 C29.656,19.808 28.906,21.826 27.774,23.582 L25.28,21.914 L25.006,22.332 L27.5,24 C27.338,24.226 27.162,24.456 26.982,24.688 Z M29.95,17.218 C29.938,17.33 29.932,17.444 29.918,17.556 L29.95,17.218 Z M27.762,23.6 C27.688,23.712 27.612,23.826 27.536,23.938 L27.762,23.6 Z" id="Shape"></path>
            <polygon id="Path" points="13.516 2.222 14.102 5.164 13.612 5.262 13.026 2.32"></polygon>
            <polygon id="Path" points="18.49 29.78 17.904 26.838 18.394 26.74 18.98 29.682"></polygon>
            <polygon id="Path" points="12.176 2.528 12.612 3.964 12.134 4.11 11.698 2.674 12.176 2.528"></polygon>
            <polygon id="Path" points="19.826 29.466 19.39 28.03 19.868 27.884 20.304 29.32"></polygon>
            <polygon id="Path" points="10.876 2.972 12.024 5.744 11.562 5.936 10.414 3.164"></polygon>
            <polygon id="Path" points="21.128 29.03 19.98 26.258 20.442 26.066 21.59 28.838"></polygon>
            <polygon id="Path" points="9.176 3.77 9.616 3.534 10.324 4.856 9.884 5.092 9.176 3.77"></polygon>
            <polygon id="Path" points="22.816 28.228 22.376 28.464 21.668 27.142 22.108 26.906"></polygon>
            <polygon id="Path" points="3.768 9.182 5.092 9.888 4.856 10.33 3.534 9.624 3.77 9.182"></polygon>
            <polygon id="Path" points="28.226 22.818 26.902 22.112 27.138 21.672 28.462 22.378"></polygon>
            <polygon id="Path" points="5.744 12.02 2.972 10.872 3.164 10.41 5.936 11.558"></polygon>
            <polygon id="Path" points="26.26 19.978 29.032 21.126 28.84 21.588 26.068 20.44"></polygon>
            <polygon id="Path" points="2.674 11.7 4.11 12.136 3.964 12.614 2.528 12.178 2.674 11.7"></polygon>
            <polygon id="Path" points="29.322 20.302 27.886 19.866 28.032 19.388 29.468 19.824"></polygon>
            <polygon id="Path" points="2.314 13.024 5.256 13.61 5.158 14.1 2.216 13.514"></polygon>
            <polygon id="Path" points="29.68 18.976 26.738 18.39 26.836 17.9 29.778 18.486"></polygon>
            <polygon id="Path" points="2.218 18.486 5.16 17.9 5.258 18.39 2.316 18.976"></polygon>
            <polygon id="Path" points="29.776 13.514 26.834 14.1 26.736 13.61 29.678 13.024"></polygon>
            <polygon id="Path" points="2.53 19.828 3.966 19.392 4.112 19.87 2.676 20.306 2.53 19.828"></polygon>
            <polygon id="Path" points="29.468 12.178 28.032 12.614 27.886 12.136 29.322 11.7"></polygon>
            <polygon id="Path" points="3.16 21.592 2.968 21.13 5.74 19.982 5.932 20.444"></polygon>
            <polygon id="Path" points="28.838 10.414 29.03 10.876 26.258 12.024 26.066 11.562"></polygon>
            <polygon id="Path" points="3.776 22.82 3.54 22.38 4.862 21.672 5.098 22.112"></polygon>
            <polygon id="Path" points="28.232 9.18 28.468 9.62 27.146 10.328 26.91 9.888"></polygon>
            <polygon id="Path" points="9.622 28.464 9.182 28.228 9.89 26.906 10.33 27.142"></polygon>
            <polygon id="Path" points="22.378 3.534 22.818 3.77 22.112 5.092 21.672 4.856"></polygon>
            <polygon id="Path" points="10.414 28.838 11.562 26.066 12.024 26.258 10.876 29.03"></polygon>
            <polygon id="Path" points="21.59 3.16 20.442 5.932 19.98 5.74 21.128 2.968"></polygon>
            <polygon id="Path" points="12.176 29.47 11.698 29.324 12.134 27.888 12.612 28.034"></polygon>
            <polygon id="Path" points="19.824 2.528 20.302 2.674 19.866 4.11 19.388 3.964 19.824 2.528"></polygon>
            <polygon id="Path" points="13.514 29.776 13.024 29.678 13.61 26.736 14.1 26.834"></polygon>
            <polygon id="Path" points="18.486 2.218 18.976 2.316 18.39 5.258 17.9 5.16"></polygon>
        </g>
    </g>
</svg>