<?xml version="1.0" encoding="UTF-8"?>
<svg width="30px" height="31px" viewBox="0 0 30 31" version="1.1" xmlns="http://www.w3.org/2000/svg" xmlns:xlink="http://www.w3.org/1999/xlink">
    <title>scissors</title>
    <g id="Page-1" stroke="none" stroke-width="1" fill="none" fill-rule="evenodd">
        <g id="347-scissors" fill="#000000" fill-rule="nonzero">
            <path d="M28.558,21.24 C26.474,17.984 22.9,16.55 20.574,18.038 C20.374,18.166 20.188,18.314 20.02,18.474 L17.538,14.59 L23.272,5.59 C23.742,4.724 23.914,3.692 23.686,2.654 C23.468,1.662 22.92,0.828 22.182,0.24 L21.798,-0.004 L15.002,10.624 L8.206,-0.004 L7.822,0.24 C7.084,0.828 6.536,1.662 6.318,2.654 C6.09,3.692 6.264,4.724 6.732,5.59 L12.466,14.59 L9.984,18.474 C9.814,18.312 9.63,18.166 9.43,18.038 C7.104,16.55 3.53,17.982 1.446,21.24 C-0.638,24.498 -0.442,28.342 1.884,29.832 C4.21,31.32 7.784,29.888 9.868,26.63 L15.002,18.572 L20.136,26.63 C22.22,29.886 25.794,31.32 28.12,29.832 C30.446,28.344 30.642,24.498 28.558,21.24 Z M7.34,25.014 C6.402,26.48 5.198,27.192 4.384,27.372 C4.384,27.372 4.384,27.372 4.384,27.372 C4.118,27.43 3.75,27.466 3.498,27.306 C3.22,27.128 3.036,26.658 3.004,26.048 C2.954,25.06 3.306,23.896 3.97,22.86 C4.908,21.394 6.112,20.682 6.926,20.502 C7.192,20.444 7.56,20.408 7.812,20.568 C8.09,20.746 8.274,21.216 8.306,21.826 C8.356,22.816 8.004,23.978 7.34,25.014 L7.34,25.014 Z M15,16 C14.448,16 14,15.552 14,15 C14,14.448 14.448,14 15,14 C15.552,14 16,14.448 16,15 C16,15.552 15.552,16 15,16 Z M26.996,26.046 C26.964,26.656 26.78,27.126 26.502,27.304 C26.252,27.464 25.882,27.428 25.616,27.37 C25.616,27.37 25.616,27.37 25.616,27.37 C24.802,27.192 23.598,26.478 22.66,25.012 C21.996,23.974 21.644,22.812 21.694,21.824 C21.726,21.214 21.91,20.744 22.188,20.566 C22.438,20.406 22.808,20.442 23.074,20.5 C23.888,20.678 25.092,21.392 26.03,22.858 C26.694,23.896 27.046,25.058 26.996,26.046 Z" id="Shape"></path>
        </g>
    </g>
</svg>