<?xml version="1.0" encoding="UTF-8"?>
<svg width="16px" height="32px" viewBox="0 0 16 32" version="1.1" xmlns="http://www.w3.org/2000/svg" xmlns:xlink="http://www.w3.org/1999/xlink">
    <title>section</title>
    <g id="Page-1" stroke="none" stroke-width="1" fill="none" fill-rule="evenodd">
        <g id="375-section" fill="#000000" fill-rule="nonzero">
            <path d="M7.498,32 C5.956,32 4.65,31.55 3.62,30.662 C2.582,29.768 2.056,28.724 2.056,27.558 C2.056,26.992 2.262,26.504 2.67,26.106 C3.084,25.702 3.6,25.488 4.166,25.488 C4.728,25.488 5.234,25.688 5.63,26.068 C6.02,26.442 6.218,26.938 6.218,27.54 C6.218,27.894 6.16,28.284 6.046,28.7 C5.934,29.112 5.91,29.324 5.91,29.428 C5.91,29.544 5.938,29.68 6.152,29.826 C6.55,30.102 7.03,30.234 7.616,30.234 C8.322,30.234 8.95,29.988 9.54,29.484 C10.12,28.986 10.402,28.474 10.402,27.92 C10.402,27.304 10.238,26.77 9.898,26.288 C9.324,25.484 8.246,24.54 6.692,23.486 C4.196,21.816 2.534,20.368 1.612,19.064 C0.896,18.042 0.534,16.942 0.534,15.792 C0.534,14.634 0.914,13.482 1.662,12.366 C2.302,11.412 3.25,10.55 4.482,9.8 C3.822,9.09 3.328,8.422 3.01,7.81 C2.608,7.036 2.404,6.236 2.404,5.432 C2.404,3.938 2.994,2.646 4.16,1.592 C5.326,0.538 6.78,0.002 8.482,0.002 C10.048,0.002 11.364,0.442 12.394,1.31 C13.436,2.188 13.964,3.214 13.964,4.358 C13.964,4.942 13.746,5.464 13.316,5.91 L13.308,5.918 C13.058,6.166 12.602,6.46 11.838,6.46 C11.24,6.46 10.716,6.264 10.322,5.894 C9.93,5.526 9.73,5.084 9.73,4.582 C9.73,4.366 9.784,4.038 9.898,3.552 C9.954,3.322 9.982,3.11 9.982,2.92 C9.982,2.596 9.866,2.35 9.616,2.14 C9.358,1.924 8.988,1.818 8.486,1.818 C7.708,1.818 7.07,2.054 6.536,2.54 C6.002,3.026 5.738,3.606 5.738,4.306 C5.738,4.936 5.88,5.454 6.162,5.848 C6.696,6.596 7.624,7.404 8.918,8.25 C11.548,9.956 13.384,11.522 14.372,12.9 C15.102,13.936 15.47,15.036 15.47,16.174 C15.47,17.318 15.098,18.47 14.366,19.602 C13.734,20.576 12.78,21.454 11.526,22.218 C12.22,22.952 12.708,23.594 13.012,24.172 C13.39,24.89 13.58,25.674 13.58,26.502 C13.58,28.054 12.988,29.372 11.822,30.422 C10.656,31.472 9.202,32.002 7.5,32.002 L7.498,32 Z M5.95,11.136 C4.444,12.04 3.71,13.08 3.71,14.302 C3.71,15.014 3.914,15.65 4.33,16.248 C4.952,17.12 6.182,18.188 7.98,19.414 C8.742,19.932 9.428,20.436 10.03,20.916 C11.564,19.994 12.31,18.968 12.31,17.786 C12.31,17.142 12.056,16.45 11.554,15.726 C11.028,14.97 9.902,13.982 8.206,12.792 C7.32,12.18 6.564,11.626 5.95,11.138 L5.95,11.136 Z" id="Shape"></path>
        </g>
    </g>
</svg>