<?xml version="1.0" encoding="UTF-8"?>
<svg width="32px" height="32px" viewBox="0 0 32 32" version="1.1" xmlns="http://www.w3.org/2000/svg" xmlns:xlink="http://www.w3.org/1999/xlink">
    <title>share2</title>
    <g id="Page-1" stroke="none" stroke-width="1" fill="none" fill-rule="evenodd">
        <g id="387-share2" fill="#000000" fill-rule="nonzero">
            <path d="M27,22 C25.588,22 24.316,22.586 23.406,23.526 L9.938,16.792 C9.98,16.534 10.002,16.27 10.002,16 C10.002,15.73 9.98,15.466 9.938,15.208 L23.406,8.474 C24.316,9.414 25.588,10 27,10 C29.762,10 32,7.762 32,5 C32,2.238 29.762,0 27,0 C24.238,0 22,2.238 22,5 C22,5.27 22.022,5.534 22.062,5.792 L8.594,12.526 C7.684,11.586 6.412,11 5,11 C2.238,11 1.77635684e-15,13.238 1.77635684e-15,16 C1.77635684e-15,18.762 2.238,21 5,21 C6.412,21 7.686,20.414 8.594,19.474 L22.062,26.208 C22.02,26.466 22,26.73 22,27 C22,29.762 24.238,32 27,32 C29.762,32 32,29.762 32,27 C32,24.238 29.762,22 27,22 Z" id="Path"></path>
        </g>
    </g>
</svg>