<?xml version="1.0" encoding="UTF-8"?>
<svg width="22px" height="24px" viewBox="0 0 22 24" version="1.1" xmlns="http://www.w3.org/2000/svg" xmlns:xlink="http://www.w3.org/1999/xlink">
    <title>shift</title>
    <g id="Page-1" stroke="none" stroke-width="1" fill="none" fill-rule="evenodd">
        <g id="336-shift" fill="#000000" fill-rule="nonzero">
            <path d="M15.9999985,24 L5.99999853,24 C5.448,24 4.99999853,23.552 4.99999853,23 L4.99999853,12 L0.999998525,12 C0.596,12 0.23,11.756 0.076,11.382 C-0.078,11.008 0.006,10.578 0.292,10.292 L10.292,0.292 C10.682,-0.098 11.316,-0.098 11.706,0.292 L21.706,10.292 C21.992,10.578 22.078,11.008 21.922,11.382 C21.766,11.756 21.402,12 20.998,12 L16.998,12 L16.998,23 C16.998,23.552 16.55,24 15.998,24 L15.9999985,24 Z M7,22 L15,22 L15,11 C15,10.448 15.448,10 16,10 L18.586,10 L11,2.414 L3.414,10 L6,10 C6.552,10 7,10.448 7,11 L7,22 Z" id="Shape"></path>
        </g>
    </g>
</svg>