<?xml version="1.0" encoding="UTF-8"?>
<svg width="32px" height="26px" viewBox="0 0 32 26" version="1.1" xmlns="http://www.w3.org/2000/svg" xmlns:xlink="http://www.w3.org/1999/xlink">
    <title>sina_weibo</title>
    <g id="Page-1" stroke="none" stroke-width="1" fill="none" fill-rule="evenodd">
        <g id="411-sina-weibo" fill="#000000" fill-rule="nonzero">
            <path d="M13.444,24.062 C8.144,24.586 3.568,22.186 3.226,18.712 C2.882,15.23 6.9,11.994 12.194,11.468 C17.494,10.942 22.07,13.344 22.406,16.818 C22.756,20.3 18.738,23.542 13.444,24.062 L13.444,24.062 Z M24.038,12.518 C23.588,12.38 23.276,12.292 23.514,11.7 C24.026,10.412 24.076,9.306 23.52,8.512 C22.482,7.03 19.638,7.106 16.382,8.474 C16.382,8.474 15.356,8.918 15.62,8.112 C16.12,6.5 16.046,5.156 15.264,4.374 C13.496,2.606 8.796,4.442 4.764,8.474 C1.752,11.48 0.002,14.686 0.002,17.456 C0.002,22.744 6.79,25.962 13.428,25.962 C22.128,25.962 27.922,20.906 27.922,16.894 C27.922,14.462 25.878,13.088 24.04,12.518 L24.038,12.518 Z" id="Shape"></path>
            <path d="M29.818,2.832 C27.718,0.5 24.618,-0.386 21.756,0.22 L21.756,0.22 C21.094,0.364 20.674,1.014 20.818,1.67 C20.962,2.332 21.606,2.752 22.268,2.608 C24.306,2.176 26.506,2.808 28,4.464 C29.494,6.12 29.9,8.376 29.256,10.352 L29.256,10.352 C29.05,10.996 29.4,11.684 30.044,11.896 C30.688,12.102 31.376,11.752 31.588,11.108 L31.588,11.102 C32.488,8.34 31.92,5.164 29.82,2.834 L29.818,2.832 Z" id="Path"></path>
            <path d="M26.588,5.75 C25.564,4.612 24.05,4.182 22.662,4.482 C22.094,4.6 21.73,5.17 21.85,5.738 C21.976,6.306 22.538,6.67 23.1,6.544 L23.1,6.544 C23.782,6.4 24.518,6.612 25.018,7.162 C25.518,7.718 25.656,8.474 25.436,9.136 L25.436,9.136 C25.26,9.686 25.562,10.286 26.118,10.468 C26.674,10.644 27.268,10.342 27.45,9.786 C27.888,8.43 27.612,6.88 26.588,5.748 L26.588,5.75 Z" id="Path"></path>
            <path d="M13.738,17.768 C13.55,18.086 13.144,18.236 12.826,18.106 C12.508,17.98 12.414,17.618 12.594,17.312 C12.782,17.006 13.176,16.856 13.488,16.974 C13.8,17.086 13.914,17.442 13.738,17.768 Z M12.044,19.932 C11.532,20.75 10.432,21.108 9.606,20.732 C8.794,20.364 8.55,19.414 9.062,18.614 C9.568,17.82 10.63,17.464 11.45,17.808 C12.282,18.164 12.55,19.108 12.044,19.934 L12.044,19.932 Z M13.968,14.144 C11.45,13.488 8.6,14.744 7.506,16.962 C6.388,19.224 7.468,21.744 10.012,22.568 C12.65,23.418 15.762,22.112 16.844,19.674 C17.912,17.28 16.582,14.824 13.968,14.142 L13.968,14.144 Z" id="Shape"></path>
        </g>
    </g>
</svg>