<?xml version="1.0" encoding="UTF-8"?>
<svg width="32px" height="32px" viewBox="0 0 32 32" version="1.1" xmlns="http://www.w3.org/2000/svg" xmlns:xlink="http://www.w3.org/1999/xlink">
    <title>skype</title>
    <g id="Page-1" stroke="none" stroke-width="1" fill="none" fill-rule="evenodd">
        <g id="454-skype" fill="#000000" fill-rule="nonzero">
            <path d="M13.3,1.168 C13.25,1.136 13.194,1.112 13.144,1.086 C13.088,1.098 13.038,1.104 12.982,1.118 L13.3,1.168 L13.3,1.168 Z" id="Path"></path>
            <path d="M1.15,13.156 C1.138,13.212 1.132,13.268 1.126,13.318 C1.158,13.368 1.176,13.418 1.208,13.468 L1.152,13.156 L1.15,13.156 Z" id="Path"></path>
            <path d="M30.838,18.832 C30.85,18.776 30.856,18.72 30.87,18.664 C30.838,18.614 30.82,18.564 30.788,18.514 L30.838,18.832 L30.838,18.832 Z" id="Path"></path>
            <path d="M18.5,30.718 C18.55,30.75 18.606,30.774 18.656,30.8 C18.712,30.788 18.768,30.782 18.824,30.776 L18.5,30.72 L18.5,30.718 Z" id="Path"></path>
            <path d="M30.868,18.662 C30.856,18.718 30.85,18.774 30.836,18.83 L30.78,18.506 C30.812,18.562 30.836,18.612 30.868,18.662 C31.03,17.762 31.118,16.844 31.118,15.924 C31.118,13.886 30.718,11.906 29.93,10.042 C29.168,8.242 28.08,6.624 26.692,5.236 C25.304,3.848 23.686,2.76 21.892,1.998 C20.03,1.21 18.048,0.81 16.01,0.81 C15.048,0.81 14.084,0.898 13.148,1.078 C13.148,1.078 13.142,1.078 13.142,1.078 C13.192,1.102 13.248,1.128 13.298,1.16 L12.98,1.11 C13.036,1.098 13.086,1.092 13.142,1.078 C11.854,0.396 10.41,0.028 8.948,0.028 C6.56,0.028 4.31,0.96 2.622,2.646 C0.934,4.332 0.004,6.584 0.004,8.972 C0.004,10.49 0.398,11.99 1.13,13.31 C1.142,13.254 1.148,13.198 1.154,13.148 L1.21,13.466 C1.178,13.416 1.154,13.366 1.128,13.316 C0.978,14.172 0.904,15.048 0.904,15.922 C0.904,17.96 1.304,19.94 2.092,21.804 C2.854,23.604 3.942,25.216 5.33,26.604 C6.718,27.992 8.336,29.08 10.136,29.842 C11.998,30.63 13.98,31.03 16.018,31.03 C16.906,31.03 17.792,30.948 18.662,30.792 C18.612,30.76 18.562,30.736 18.506,30.71 L18.83,30.766 C18.774,30.778 18.718,30.784 18.662,30.79 C20,31.546 21.518,31.952 23.062,31.952 C25.45,31.952 27.7,31.02 29.386,29.334 C31.072,27.648 32.004,25.396 32.004,23.01 C31.998,21.492 31.604,19.992 30.866,18.66 L30.868,18.662 Z M16.068,25.182 C10.7,25.182 8.3,22.544 8.3,20.564 C8.3,19.552 9.05,18.838 10.082,18.838 C12.382,18.838 11.782,22.138 16.07,22.138 C18.264,22.138 19.476,20.944 19.476,19.726 C19.476,18.994 19.114,18.182 17.67,17.826 L12.894,16.632 C9.05,15.67 8.35,13.588 8.35,11.632 C8.35,7.576 12.168,6.05 15.756,6.05 C19.062,6.05 22.956,7.876 22.956,10.312 C22.956,11.356 22.05,11.962 21.018,11.962 C19.056,11.962 19.418,9.25 15.468,9.25 C13.506,9.25 12.424,10.138 12.424,11.406 C12.424,12.674 13.974,13.082 15.318,13.388 L18.856,14.176 C22.724,15.038 23.706,17.302 23.706,19.426 C23.706,22.72 21.174,25.182 16.068,25.182 L16.068,25.182 Z" id="Shape"></path>
        </g>
    </g>
</svg>