<?xml version="1.0" encoding="UTF-8"?>
<svg width="32px" height="32px" viewBox="0 0 32 32" version="1.1" xmlns="http://www.w3.org/2000/svg" xmlns:xlink="http://www.w3.org/1999/xlink">
    <title>sleepy</title>
    <g id="Page-1" stroke="none" stroke-width="1" fill="none" fill-rule="evenodd">
        <g id="254-sleepy" fill="#000000" fill-rule="nonzero">
            <path d="M16,32 C24.836,32 32,24.836 32,16 C32,7.164 24.836,0 16,0 C7.164,0 0,7.164 0,16 C0,24.836 7.164,32 16,32 Z M16,3 C23.18,3 29,8.82 29,16 C29,23.18 23.18,29 16,29 C8.82,29 3,23.18 3,16 C3,8.82 8.82,3 16,3 Z" id="Shape"></path>
            <path d="M20,21 C20,23.762 18.21,26 16,26 C13.79,26 12,23.762 12,21 C12,18.238 13.79,16 16,16 C18.21,16 20,18.238 20,21 Z" id="Path"></path>
            <path d="M13,10.626 C12.744,10.626 12.488,10.528 12.292,10.334 C11.688,9.73 10.31,9.73 9.706,10.334 C9.316,10.724 8.682,10.724 8.292,10.334 C7.902,9.944 7.902,9.31 8.292,8.92 C9.684,7.528 12.314,7.528 13.706,8.92 C14.096,9.31 14.096,9.944 13.706,10.334 C13.51,10.53 13.254,10.626 12.998,10.626 L13,10.626 Z" id="Path"></path>
            <path d="M23,10.626 C22.744,10.626 22.488,10.528 22.292,10.334 C21.688,9.73 20.31,9.73 19.706,10.334 C19.316,10.724 18.682,10.724 18.292,10.334 C17.902,9.944 17.902,9.31 18.292,8.92 C19.684,7.528 22.314,7.528 23.706,8.92 C24.096,9.31 24.096,9.944 23.706,10.334 C23.51,10.53 23.254,10.626 22.998,10.626 L23,10.626 Z" id="Path"></path>
        </g>
    </g>
</svg>