<?xml version="1.0" encoding="UTF-8"?>
<svg width="32px" height="32px" viewBox="0 0 32 32" version="1.1" xmlns="http://www.w3.org/2000/svg" xmlns:xlink="http://www.w3.org/1999/xlink">
    <title>sleepy2</title>
    <g id="Page-1" stroke="none" stroke-width="1" fill="none" fill-rule="evenodd">
        <g id="255-sleepy2" fill="#000000" fill-rule="nonzero">
            <path d="M16,0 C7.164,0 0,7.164 0,16 C0,24.836 7.164,32 16,32 C24.836,32 32,24.836 32,16 C32,7.164 24.836,0 16,0 Z M9.708,10.332 C9.318,10.722 8.684,10.722 8.294,10.332 C7.904,9.942 7.904,9.308 8.294,8.918 C9.686,7.526 12.316,7.526 13.708,8.918 C14.098,9.308 14.098,9.942 13.708,10.332 C13.512,10.528 13.256,10.624 13,10.624 C12.744,10.624 12.488,10.526 12.292,10.332 C11.688,9.728 10.31,9.728 9.706,10.332 L9.708,10.332 Z M16,26 C13.79,26 12,23.762 12,21 C12,18.238 13.79,16 16,16 C18.21,16 20,18.238 20,21 C20,23.762 18.21,26 16,26 Z M23.708,10.332 C23.512,10.528 23.256,10.624 23,10.624 C22.744,10.624 22.488,10.526 22.292,10.332 C21.688,9.728 20.31,9.728 19.706,10.332 C19.316,10.722 18.682,10.722 18.292,10.332 C17.902,9.942 17.902,9.308 18.292,8.918 C19.684,7.526 22.314,7.526 23.706,8.918 C24.096,9.308 24.096,9.942 23.706,10.332 L23.708,10.332 Z" id="Shape"></path>
        </g>
    </g>
</svg>