<?xml version="1.0" encoding="UTF-8"?>
<svg width="31px" height="32px" viewBox="0 0 31 32" version="1.1" xmlns="http://www.w3.org/2000/svg" xmlns:xlink="http://www.w3.org/1999/xlink">
    <title>sort_alpha_desc</title>
    <g id="Page-1" stroke="none" stroke-width="1" fill="none" fill-rule="evenodd">
        <g id="330-sort-alpha-desc" fill="#000000" fill-rule="nonzero">
            <polygon id="Path" points="9 24 9 0 5 0 5 24 0 24 7 31 14 24"></polygon>
            <path d="M28,14 L20,14 C19.632,14 19.292,13.798 19.118,13.472 C18.944,13.146 18.964,12.752 19.168,12.446 L26.132,2 L20,2 C19.448,2 19,1.552 19,1 C19,0.448 19.448,0 20,0 L28,0 C28.368,0 28.708,0.204 28.882,0.528 C29.056,0.852 29.036,1.248 28.832,1.554 L21.868,12 L28,12 C28.552,12 29,12.448 29,13 C29,13.552 28.552,14 28,14 Z" id="Path"></path>
            <path d="M30.894,30.552 L24.894,18.552 C24.724,18.214 24.378,18 24,18 C23.622,18 23.274,18.214 23.106,18.552 L17.106,30.552 C16.86,31.046 17.06,31.646 17.554,31.894 C17.698,31.966 17.85,32 18,32 C18.366,32 18.72,31.798 18.896,31.446 L20.62,27.998 L27.384,27.998 L29.108,31.446 C29.354,31.94 29.956,32.14 30.45,31.894 C30.944,31.648 31.144,31.046 30.898,30.552 L30.894,30.552 Z M21.618,26 L24,21.236 L26.382,26 L21.618,26 L21.618,26 Z" id="Shape"></path>
        </g>
    </g>
</svg>