<?xml version="1.0" encoding="UTF-8"?>
<svg width="29px" height="32px" viewBox="0 0 29 32" version="1.1" xmlns="http://www.w3.org/2000/svg" xmlns:xlink="http://www.w3.org/1999/xlink">
    <title>sort_numeric_asc</title>
    <g id="Page-1" stroke="none" stroke-width="1" fill="none" fill-rule="evenodd">
        <g id="331-sort-numeric-asc" fill="#000000" fill-rule="nonzero">
            <polygon id="Path" points="9 24 9 0 5 0 5 24 0 24 7 31 14 24"></polygon>
            <path d="M26,14 C25.448,14 25,13.552 25,13 L25,2 L24,2 C23.448,2 23,1.552 23,1 C23,0.448 23.448,0 24,0 L26,0 C26.552,0 27,0.448 27,1 L27,13 C27,13.552 26.552,14 26,14 Z" id="Path"></path>
            <path d="M28,18 L22,18 C21.448,18 21,18.448 21,19 L21,25 C21,25.552 21.448,26 22,26 L27,26 L27,30 L22,30 C21.448,30 21,30.448 21,31 C21,31.552 21.448,32 22,32 L28,32 C28.552,32 29,31.552 29,31 L29,19 C29,18.448 28.552,18 28,18 Z M23,20 L27,20 L27,24 L23,24 L23,20 Z" id="Shape"></path>
        </g>
    </g>
</svg>