<?xml version="1.0" encoding="UTF-8"?>
<svg width="29px" height="32px" viewBox="0 0 29 32" version="1.1" xmlns="http://www.w3.org/2000/svg" xmlns:xlink="http://www.w3.org/1999/xlink">
    <title>sort_numberic_desc</title>
    <g id="Page-1" stroke="none" stroke-width="1" fill="none" fill-rule="evenodd">
        <g id="332-sort-numberic-desc" fill="#000000" fill-rule="nonzero">
            <polygon id="Path" points="9 24 9 0 5 0 5 24 0 24 7 31 14 24"></polygon>
            <path d="M26,32 C25.448,32 25,31.552 25,31 L25,20 L24,20 C23.448,20 23,19.552 23,19 C23,18.448 23.448,18 24,18 L26,18 C26.552,18 27,18.448 27,19 L27,31 C27,31.552 26.552,32 26,32 Z" id="Path"></path>
            <path d="M28,0 L22,0 C21.448,0 21,0.448 21,1 L21,7 C21,7.552 21.448,8 22,8 L27,8 L27,12 L22,12 C21.448,12 21,12.448 21,13 C21,13.552 21.448,14 22,14 L28,14 C28.552,14 29,13.552 29,13 L29,1 C29,0.448 28.552,0 28,0 Z M23,2 L27,2 L27,6 L23,6 L23,2 Z" id="Shape"></path>
        </g>
    </g>
</svg>