<?xml version="1.0" encoding="UTF-8"?>
<svg width="31px" height="32px" viewBox="0 0 31 32" version="1.1" xmlns="http://www.w3.org/2000/svg" xmlns:xlink="http://www.w3.org/1999/xlink">
    <title>sort_alpha_asc</title>
    <g id="Page-1" stroke="none" stroke-width="1" fill="none" fill-rule="evenodd">
        <g id="329-sort-alpha-asc" fill="#000000" fill-rule="nonzero">
            <polygon id="Path" points="9 24 9 0 5 0 5 24 0 24 7 31 14 24"></polygon>
            <path d="M28,32 L20,32 C19.632,32 19.292,31.798 19.118,31.472 C18.944,31.146 18.964,30.752 19.168,30.446 L26.132,20 L20,20 C19.448,20 19,19.552 19,19 C19,18.448 19.448,18 20,18 L28,18 C28.368,18 28.708,18.202 28.882,18.528 C29.056,18.854 29.036,19.248 28.832,19.554 L21.868,30 L28,30 C28.552,30 29,30.448 29,31 C29,31.552 28.552,32 28,32 Z" id="Path"></path>
            <path d="M30.894,12.552 L24.894,0.552 C24.724,0.214 24.378,0 24,0 C23.622,0 23.274,0.214 23.106,0.552 L17.106,12.552 C16.86,13.046 17.06,13.646 17.554,13.894 C17.698,13.966 17.85,14 18,14 C18.366,14 18.72,13.798 18.896,13.446 L20.62,9.998 L27.384,9.998 L29.108,13.446 C29.354,13.94 29.956,14.14 30.45,13.894 C30.944,13.648 31.144,13.046 30.898,12.552 L30.894,12.552 Z M21.618,8 L24,3.236 L26.382,8 L21.618,8 L21.618,8 Z" id="Shape"></path>
        </g>
    </g>
</svg>