<?xml version="1.0" encoding="UTF-8"?>
<svg width="32px" height="14px" viewBox="0 0 32 14" version="1.1" xmlns="http://www.w3.org/2000/svg" xmlns:xlink="http://www.w3.org/1999/xlink">
    <title>soundcloud</title>
    <g id="Page-1" stroke="none" stroke-width="1" fill="none" fill-rule="evenodd">
        <g id="452-soundcloud" fill="#000000" fill-rule="nonzero">
            <path d="M27.874,6.068 C27.308,6.068 26.77,6.178 26.278,6.376 C25.95,2.802 22.832,0 19.028,0 C18.098,0 17.194,0.176 16.394,0.474 C16.082,0.59 16,0.708 16,0.94 L16,13.524 C16,13.766 16.196,13.968 16.442,13.992 C16.452,13.994 27.802,13.998 27.876,13.998 C30.154,13.998 32,12.222 32,10.032 C32,7.842 30.152,6.066 27.874,6.066 L27.874,6.068 Z M12.5,14 L13.5,14 L14,6.994 L13.5,0 L12.5,0 L12,6.994 L12.5,14 Z M9.5,14 L8.5,14 L8,8.914 L8.5,4 L9.5,4 L10,9 L9.5,14 Z M4.5,14 L5.5,14 L6,10 L5.5,6 L4.5,6 L4,10 L4.5,14 Z M0.5,12 L1.5,12 L2,10 L1.5,8 L0.5,8 L0,10 L0.5,12 Z" id="Shape"></path>
        </g>
    </g>
</svg>