<?xml version="1.0" encoding="UTF-8"?>
<svg width="32px" height="32px" viewBox="0 0 32 32" version="1.1" xmlns="http://www.w3.org/2000/svg" xmlns:xlink="http://www.w3.org/1999/xlink">
    <title>soundcloud2</title>
    <g id="Page-1" stroke="none" stroke-width="1" fill="none" fill-rule="evenodd">
        <g id="453-soundcloud2" fill="#000000" fill-rule="nonzero">
            <path d="M29,0 L3,0 C1.35,0 0,1.35 0,3 L0,29 C0,30.65 1.35,32 3,32 L29,32 C30.65,32 32,30.65 32,29 L32,3 C32,1.35 30.65,0 29,0 Z M5.5,22 L4.5,22 L4,19 L4.5,16 L5.5,16 L6,19 L5.5,22 Z M9.5,22 L8.5,22 L8,18 L8.5,14 L9.5,14 L10,18 L9.5,22 Z M13.5,22 L12.5,22 L12,16 L12.5,10 L13.5,10 L14,16 L13.5,22 Z M25.788,22 C25.726,22 16.376,21.994 16.37,21.994 C16.17,21.976 16.008,21.8 16.002,21.594 L16.002,10.806 C16.002,10.606 16.07,10.506 16.326,10.406 C16.988,10.15 17.732,10 18.502,10 C21.634,10 24.202,12.4 24.476,15.468 C24.882,15.3 25.326,15.206 25.788,15.206 C27.664,15.206 29.188,16.73 29.188,18.606 C29.188,20.482 27.664,22 25.788,22 L25.788,22 Z" id="Shape"></path>
        </g>
    </g>
</svg>