<?xml version="1.0" encoding="UTF-8"?>
<svg width="30px" height="30px" viewBox="0 0 30 30" version="1.1" xmlns="http://www.w3.org/2000/svg" xmlns:xlink="http://www.w3.org/1999/xlink">
    <title>sphere</title>
    <g id="Page-1" stroke="none" stroke-width="1" fill="none" fill-rule="evenodd">
        <g id="202-sphere" fill="#000000" fill-rule="nonzero">
            <path d="M15,0 C6.716,0 0,6.716 0,15 C0,23.284 6.716,30 15,30 C23.284,30 30,23.284 30,15 C30,6.716 23.284,0 15,0 Z M23.488,20 C23.756,18.736 23.926,17.394 23.98,16 L27.962,16 C27.858,17.382 27.536,18.722 27.004,20 L23.488,20 Z M6.512,10 C6.244,11.264 6.074,12.606 6.02,14 L2.038,14 C2.142,12.618 2.464,11.278 2.996,10 L6.512,10 Z M21.438,10 C21.738,11.28 21.92,12.62 21.978,14 L16,14 L16,10 L21.438,10 Z M16,8 L16,2.146 C16.456,2.278 16.908,2.502 17.35,2.814 C18.18,3.4 18.976,4.302 19.648,5.422 C20.114,6.198 20.516,7.06 20.85,8 L15.998,8 L16,8 Z M10.352,5.422 C11.024,4.3 11.82,3.398 12.65,2.814 C13.094,2.502 13.544,2.278 14,2.146 L14,8 L9.148,8 C9.484,7.06 9.886,6.198 10.35,5.422 L10.352,5.422 Z M14,10 L14,14 L8.022,14 C8.08,12.62 8.262,11.28 8.562,10 L14,10 Z M2.996,20 C2.464,18.722 2.142,17.382 2.038,16 L6.02,16 C6.076,17.394 6.244,18.736 6.512,20 L2.996,20 Z M8.022,16 L14,16 L14,20 L8.562,20 C8.262,18.72 8.08,17.38 8.022,16 L8.022,16 Z M14,22 L14,27.854 C13.544,27.722 13.092,27.498 12.65,27.186 C11.82,26.6 11.024,25.698 10.352,24.578 C9.886,23.802 9.484,22.94 9.148,22 L14,22 Z M19.65,24.578 C18.978,25.7 18.182,26.602 17.352,27.186 C16.908,27.498 16.458,27.722 16.002,27.854 L16.002,22 L20.854,22 C20.518,22.94 20.116,23.802 19.65,24.578 L19.65,24.578 Z M16,20 L16,16 L21.978,16 C21.92,17.38 21.738,18.72 21.438,20 L16,20 L16,20 Z M23.98,14 C23.924,12.606 23.756,11.264 23.488,10 L27.004,10 C27.538,11.278 27.858,12.618 27.962,14 L23.98,14 L23.98,14 Z M25.958,8 L22.962,8 C22.38,6.164 21.576,4.554 20.608,3.268 C21.938,3.904 23.142,4.756 24.192,5.808 C24.864,6.48 25.454,7.212 25.958,8 Z M5.808,5.808 C6.86,4.756 8.064,3.904 9.392,3.268 C8.426,4.554 7.62,6.164 7.038,8 L4.042,8 C4.546,7.212 5.136,6.478 5.808,5.808 Z M4.042,22 L7.038,22 C7.62,23.836 8.424,25.446 9.392,26.732 C8.062,26.096 6.858,25.244 5.808,24.192 C5.136,23.52 4.546,22.788 4.042,22 Z M24.192,24.192 C23.14,25.244 21.936,26.096 20.608,26.732 C21.574,25.446 22.38,23.836 22.962,22 L25.958,22 C25.454,22.788 24.864,23.522 24.192,24.192 Z" id="Shape"></path>
        </g>
    </g>
</svg>