<?xml version="1.0" encoding="UTF-8"?>
<svg width="31px" height="32px" viewBox="0 0 31 32" version="1.1" xmlns="http://www.w3.org/2000/svg" xmlns:xlink="http://www.w3.org/1999/xlink">
    <title>spinner3</title>
    <g id="Page-1" stroke="none" stroke-width="1" fill="none" fill-rule="evenodd">
        <g id="125-spinner3" fill="#000000" fill-rule="nonzero">
            <path d="M16,9.472 C14.97,9.472 14.134,8.636 14.134,7.606 L14.134,2.01 C14.134,0.98 14.97,0.144 16,0.144 C17.03,0.144 17.866,0.98 17.866,2.01 L17.866,7.606 C17.866,8.636 17.03,9.472 16,9.472 Z" id="Path"></path>
            <path d="M16,31.154 C15.356,31.154 14.834,30.632 14.834,29.988 L14.834,24.392 C14.834,23.748 15.356,23.226 16,23.226 C16.644,23.226 17.166,23.748 17.166,24.392 L17.166,29.988 C17.166,30.632 16.644,31.154 16,31.154 Z" id="Path"></path>
            <path d="M11.804,10.48 C11.2,10.48 10.612,10.166 10.288,9.606 L7.49,4.76 C7.008,3.924 7.294,2.854 8.13,2.372 C8.966,1.89 10.036,2.176 10.518,3.012 L13.316,7.858 C13.798,8.694 13.512,9.764 12.676,10.246 C12.4,10.404 12.1,10.48 11.804,10.48 Z" id="Path"></path>
            <path d="M22.996,29.164 C22.634,29.164 22.28,28.976 22.086,28.64 L19.288,23.794 C18.998,23.292 19.17,22.65 19.672,22.36 C20.174,22.07 20.816,22.242 21.106,22.744 L23.904,27.59 C24.194,28.092 24.022,28.734 23.52,29.024 C23.354,29.12 23.174,29.164 22.996,29.164 L22.996,29.164 Z" id="Path"></path>
            <path d="M8.73,13.436 C8.454,13.436 8.172,13.366 7.916,13.218 L3.07,10.42 C2.29,9.97 2.022,8.972 2.472,8.19 C2.922,7.408 3.92,7.142 4.702,7.592 L9.548,10.39 C10.328,10.84 10.596,11.838 10.146,12.62 C9.844,13.144 9.296,13.436 8.732,13.436 L8.73,13.436 Z" id="Path"></path>
            <path d="M28.114,23.928 C27.956,23.928 27.796,23.888 27.648,23.802 L22.802,21.004 C22.356,20.746 22.204,20.176 22.46,19.73 C22.716,19.284 23.288,19.132 23.734,19.388 L28.58,22.186 C29.026,22.444 29.178,23.014 28.922,23.46 C28.75,23.76 28.436,23.926 28.114,23.926 L28.114,23.928 Z" id="Path"></path>
            <path d="M7.606,17.516 L2.01,17.516 C1.174,17.516 0.494,16.838 0.494,16 C0.494,15.162 1.172,14.484 2.01,14.484 L7.606,14.484 C8.444,14.484 9.122,15.162 9.122,16 C9.122,16.838 8.444,17.516 7.606,17.516 Z" id="Path"></path>
            <path d="M29.99,16.932 C29.99,16.932 29.99,16.932 29.99,16.932 L24.394,16.932 C23.878,16.932 23.462,16.514 23.462,16 C23.462,15.486 23.88,15.068 24.394,15.068 C24.394,15.068 24.394,15.068 24.394,15.068 L29.99,15.068 C30.506,15.068 30.922,15.486 30.922,16 C30.922,16.514 30.504,16.932 29.99,16.932 Z" id="Path"></path>
            <path d="M3.886,24.394 C3.402,24.394 2.932,24.144 2.674,23.694 C2.288,23.024 2.516,22.17 3.186,21.784 L8.032,18.986 C8.702,18.6 9.556,18.828 9.942,19.498 C10.328,20.168 10.1,21.022 9.43,21.408 L4.584,24.206 C4.364,24.334 4.124,24.394 3.886,24.394 L3.886,24.394 Z" id="Path"></path>
            <path d="M23.27,12.736 C22.948,12.736 22.634,12.568 22.462,12.27 C22.204,11.824 22.358,11.254 22.804,10.996 L27.65,8.198 C28.096,7.94 28.666,8.094 28.924,8.54 C29.182,8.986 29.028,9.556 28.582,9.814 L23.736,12.612 C23.59,12.696 23.428,12.738 23.27,12.738 L23.27,12.736 Z" id="Path"></path>
            <path d="M9.004,29.398 C8.786,29.398 8.566,29.342 8.364,29.226 C7.75,28.872 7.54,28.088 7.894,27.474 L10.692,22.628 C11.046,22.014 11.83,21.804 12.444,22.158 C13.058,22.512 13.268,23.296 12.914,23.91 L10.116,28.756 C9.878,29.168 9.448,29.398 9.004,29.398 L9.004,29.398 Z" id="Path"></path>
            <path d="M20.196,9.664 C20.038,9.664 19.878,9.624 19.73,9.538 C19.284,9.28 19.132,8.71 19.388,8.264 L22.186,3.418 C22.444,2.972 23.014,2.82 23.46,3.076 C23.906,3.332 24.058,3.904 23.802,4.35 L21.004,9.196 C20.832,9.496 20.518,9.662 20.196,9.662 L20.196,9.664 Z" id="Path"></path>
        </g>
    </g>
</svg>