<?xml version="1.0" encoding="UTF-8"?>
<svg width="33px" height="33px" viewBox="0 0 33 33" version="1.1" xmlns="http://www.w3.org/2000/svg" xmlns:xlink="http://www.w3.org/1999/xlink">
    <title>spinner10</title>
    <g id="Page-1" stroke="none" stroke-width="1" fill="none" fill-rule="evenodd">
        <g id="132-spinner10" fill="#000000" fill-rule="nonzero">
            <path d="M0.002,16.05 L0.002,16.05 C0.002,16.05 0.002,16.052 0.002,16.056 C0.006,16.178 0.02,16.296 0.044,16.41 C0.05,16.464 0.058,16.524 0.066,16.59 C0.072,16.648 0.08,16.712 0.088,16.78 C0.1,16.86 0.112,16.946 0.126,17.036 C0.152,17.216 0.182,17.414 0.216,17.628 C0.258,17.83 0.304,18.048 0.352,18.28 C0.374,18.396 0.408,18.514 0.44,18.636 C0.472,18.758 0.504,18.882 0.538,19.012 C0.556,19.076 0.57,19.142 0.592,19.206 C0.614,19.27 0.634,19.336 0.654,19.402 C0.674,19.468 0.74,19.67 0.784,19.808 C0.796,19.842 0.806,19.878 0.818,19.912 C0.83,19.946 0.844,19.98 0.856,20.016 C0.868,20.052 0.908,20.156 0.934,20.226 C0.988,20.366 1.04,20.51 1.096,20.656 C1.158,20.798 1.22,20.944 1.284,21.092 C1.316,21.166 1.348,21.24 1.38,21.314 C1.412,21.388 1.45,21.46 1.486,21.536 C1.522,21.612 1.632,21.832 1.706,21.984 C1.784,22.134 1.868,22.282 1.952,22.432 C1.994,22.506 2.036,22.582 2.078,22.658 C2.12,22.734 2.168,22.806 2.214,22.882 C2.26,22.958 2.4,23.18 2.494,23.33 C2.89,23.92 3.328,24.504 3.814,25.058 C4.304,25.608 4.836,26.128 5.398,26.608 C5.966,27.08 6.562,27.512 7.17,27.892 C7.782,28.268 8.408,28.59 9.026,28.866 C9.182,28.93 9.338,28.992 9.49,29.056 C9.566,29.086 9.642,29.12 9.72,29.148 C9.798,29.176 9.874,29.202 9.95,29.23 C10.026,29.258 10.252,29.338 10.402,29.386 C10.552,29.43 10.702,29.474 10.85,29.518 C10.924,29.54 10.996,29.562 11.068,29.58 C11.14,29.598 11.214,29.616 11.286,29.634 C11.358,29.652 11.572,29.704 11.712,29.738 C11.852,29.766 11.99,29.792 12.126,29.818 C12.194,29.83 12.26,29.844 12.328,29.856 C12.362,29.862 12.394,29.868 12.426,29.874 C12.458,29.88 12.492,29.884 12.524,29.888 C12.656,29.906 12.784,29.924 12.908,29.942 C12.97,29.95 13.032,29.96 13.094,29.968 C13.156,29.976 13.216,29.98 13.276,29.986 C13.336,29.992 13.512,30.006 13.624,30.016 C13.736,30.026 13.846,30.038 13.952,30.04 C13.96,30.04 13.966,30.04 13.974,30.04 C13.994,31.128 14.88,32.004 15.974,32.004 C15.99,32.004 16.008,32.004 16.024,32.002 L16.024,32.002 C16.024,32.002 16.026,32.002 16.032,32.002 C16.154,31.998 16.272,31.984 16.386,31.96 C16.44,31.954 16.5,31.946 16.566,31.938 C16.624,31.932 16.688,31.924 16.756,31.916 C16.836,31.904 16.922,31.892 17.012,31.878 C17.192,31.852 17.39,31.822 17.604,31.788 C17.806,31.746 18.024,31.7 18.256,31.652 C18.372,31.63 18.49,31.596 18.612,31.564 C18.734,31.532 18.858,31.498 18.988,31.466 C19.052,31.448 19.118,31.434 19.182,31.412 C19.246,31.39 19.312,31.37 19.378,31.35 C19.444,31.33 19.646,31.264 19.784,31.22 C19.818,31.208 19.854,31.198 19.888,31.186 C19.922,31.174 19.956,31.16 19.992,31.148 C20.028,31.136 20.132,31.096 20.202,31.07 C20.342,31.016 20.486,30.964 20.632,30.908 C20.774,30.846 20.92,30.784 21.068,30.72 C21.142,30.688 21.216,30.656 21.29,30.624 C21.364,30.592 21.436,30.554 21.512,30.518 C21.588,30.482 21.808,30.372 21.96,30.298 C22.11,30.22 22.258,30.136 22.408,30.052 C22.482,30.01 22.558,29.968 22.634,29.926 C22.71,29.884 22.782,29.836 22.858,29.79 C22.934,29.744 23.156,29.604 23.306,29.51 C23.896,29.116 24.48,28.676 25.034,28.19 C25.584,27.7 26.104,27.168 26.584,26.606 C27.056,26.038 27.488,25.442 27.868,24.834 C28.244,24.222 28.566,23.596 28.842,22.978 C28.906,22.822 28.968,22.666 29.032,22.514 C29.062,22.438 29.096,22.362 29.124,22.284 C29.152,22.206 29.178,22.13 29.204,22.054 C29.23,21.978 29.312,21.752 29.36,21.602 C29.404,21.452 29.448,21.302 29.492,21.154 C29.514,21.08 29.536,21.008 29.554,20.936 C29.572,20.864 29.59,20.79 29.608,20.718 C29.626,20.646 29.678,20.432 29.712,20.292 C29.74,20.152 29.766,20.014 29.792,19.878 C29.804,19.81 29.818,19.744 29.83,19.676 C29.836,19.642 29.842,19.61 29.848,19.578 C29.854,19.546 29.858,19.512 29.862,19.478 C29.88,19.348 29.898,19.218 29.916,19.094 C29.924,19.032 29.934,18.97 29.942,18.908 C29.95,18.846 29.954,18.786 29.96,18.726 C29.966,18.666 29.98,18.49 29.99,18.378 C30,18.266 30.012,18.156 30.014,18.048 C30.014,18.032 30.016,18.016 30.016,17.998 C31.116,17.994 32.008,17.1 32.008,15.998 C32.008,15.982 32.008,15.964 32.006,15.948 L32.006,15.948 C32.006,15.948 32.006,15.946 32.006,15.942 C32.002,15.82 31.988,15.702 31.964,15.588 C31.958,15.534 31.95,15.474 31.942,15.408 C31.936,15.35 31.928,15.286 31.92,15.218 C31.908,15.138 31.896,15.052 31.882,14.962 C31.856,14.782 31.826,14.584 31.792,14.37 C31.75,14.168 31.704,13.95 31.656,13.718 C31.634,13.602 31.6,13.484 31.568,13.362 C31.536,13.24 31.504,13.116 31.47,12.986 C31.452,12.922 31.438,12.856 31.416,12.792 C31.394,12.728 31.374,12.662 31.354,12.596 C31.334,12.53 31.268,12.328 31.224,12.19 C31.214,12.156 31.202,12.12 31.19,12.086 C31.178,12.052 31.164,12.018 31.152,11.982 C31.14,11.946 31.1,11.842 31.074,11.772 C31.02,11.632 30.968,11.488 30.912,11.342 C30.85,11.2 30.788,11.054 30.724,10.906 C30.692,10.832 30.66,10.758 30.628,10.684 C30.596,10.61 30.558,10.538 30.522,10.462 C30.486,10.386 30.376,10.166 30.302,10.014 C30.224,9.864 30.14,9.716 30.056,9.566 C30.014,9.492 29.972,9.416 29.93,9.34 C29.888,9.264 29.84,9.192 29.794,9.116 C29.748,9.04 29.608,8.818 29.514,8.668 C29.12,8.078 28.68,7.494 28.194,6.94 C27.704,6.39 27.172,5.87 26.61,5.39 C26.042,4.918 25.446,4.486 24.838,4.106 C24.226,3.73 23.6,3.408 22.982,3.132 C22.826,3.068 22.67,3.006 22.518,2.942 C22.442,2.912 22.366,2.878 22.288,2.85 C22.21,2.822 22.134,2.796 22.058,2.77 C21.982,2.744 21.756,2.662 21.606,2.614 C21.456,2.57 21.306,2.526 21.158,2.482 C21.084,2.462 21.012,2.438 20.94,2.42 C20.868,2.402 20.794,2.384 20.722,2.366 C20.65,2.348 20.436,2.296 20.296,2.262 C20.156,2.234 20.018,2.208 19.882,2.182 C19.814,2.17 19.748,2.156 19.68,2.144 C19.646,2.138 19.614,2.132 19.582,2.126 C19.55,2.12 19.516,2.116 19.484,2.112 C19.352,2.094 19.224,2.076 19.1,2.058 C19.038,2.05 18.976,2.04 18.914,2.032 C18.852,2.024 18.792,2.02 18.732,2.014 C18.672,2.008 18.496,1.994 18.384,1.984 C18.272,1.974 18.162,1.962 18.056,1.96 C18.03,1.96 18.004,1.958 17.978,1.958 C17.958,0.872 17.07,-0.004 15.98,-0.004 C15.964,-0.004 15.946,-0.004 15.93,-0.002 L15.93,-0.002 C15.93,-0.002 15.928,-0.002 15.924,-0.002 C15.802,0.002 15.684,0.016 15.57,0.04 C15.516,0.046 15.456,0.054 15.39,0.062 C15.332,0.068 15.268,0.076 15.2,0.084 C15.12,0.096 15.034,0.108 14.944,0.122 C14.764,0.148 14.566,0.178 14.352,0.212 C14.15,0.254 13.932,0.3 13.7,0.348 C13.584,0.37 13.466,0.404 13.344,0.436 C13.222,0.468 13.098,0.502 12.968,0.534 C12.904,0.552 12.838,0.566 12.774,0.588 C12.71,0.61 12.644,0.63 12.578,0.65 C12.512,0.67 12.31,0.736 12.172,0.78 C12.138,0.792 12.102,0.802 12.068,0.814 C12.034,0.826 12,0.84 11.964,0.852 C11.928,0.864 11.824,0.904 11.754,0.93 C11.614,0.984 11.47,1.036 11.324,1.092 C11.182,1.154 11.036,1.216 10.888,1.28 C10.814,1.312 10.74,1.344 10.666,1.376 C10.592,1.408 10.52,1.446 10.444,1.482 C10.368,1.518 10.148,1.628 9.996,1.702 C9.846,1.78 9.698,1.864 9.548,1.948 C9.474,1.99 9.398,2.032 9.322,2.074 C9.246,2.116 9.174,2.164 9.098,2.21 C9.022,2.256 8.8,2.396 8.65,2.49 C8.06,2.886 7.476,3.324 6.922,3.81 C6.372,4.3 5.852,4.832 5.372,5.394 C4.9,5.962 4.468,6.558 4.088,7.166 C3.712,7.778 3.39,8.404 3.114,9.022 C3.05,9.178 2.988,9.334 2.924,9.486 C2.894,9.562 2.86,9.638 2.832,9.716 C2.804,9.794 2.778,9.87 2.752,9.946 C2.726,10.022 2.644,10.248 2.596,10.398 C2.552,10.548 2.508,10.698 2.464,10.846 C2.442,10.92 2.42,10.992 2.4,11.064 C2.38,11.136 2.364,11.21 2.346,11.282 C2.328,11.354 2.276,11.568 2.242,11.708 C2.214,11.848 2.188,11.986 2.162,12.122 C2.15,12.19 2.136,12.256 2.124,12.324 C2.118,12.358 2.112,12.39 2.106,12.422 C2.1,12.454 2.096,12.488 2.092,12.522 C2.074,12.652 2.056,12.782 2.038,12.906 C2.03,12.968 2.02,13.03 2.012,13.092 C2.004,13.154 2,13.214 1.994,13.274 C1.988,13.334 1.974,13.51 1.964,13.622 C1.954,13.734 1.942,13.844 1.94,13.952 C1.94,13.97 1.938,13.986 1.938,14.002 C0.864,14.036 0.004,14.918 0.004,16 C0.004,16.016 0.004,16.034 0.006,16.05 L0.002,16.05 Z M2.298,14.022 C2.3,14.016 2.3,14.01 2.302,14.004 C2.322,13.902 2.354,13.8 2.382,13.694 C2.41,13.588 2.442,13.48 2.472,13.368 C2.488,13.312 2.502,13.256 2.52,13.2 C2.538,13.144 2.558,13.086 2.576,13.028 C2.594,12.97 2.652,12.796 2.692,12.676 C2.702,12.646 2.712,12.616 2.722,12.586 C2.732,12.556 2.746,12.526 2.756,12.496 C2.766,12.466 2.802,12.376 2.826,12.314 C2.85,12.252 2.922,12.068 2.972,11.942 C3.028,11.818 3.084,11.692 3.14,11.564 C3.168,11.5 3.196,11.436 3.226,11.372 C3.256,11.308 3.29,11.244 3.322,11.18 C3.354,11.116 3.452,10.924 3.518,10.792 C3.586,10.662 3.664,10.536 3.736,10.404 C3.772,10.34 3.81,10.274 3.848,10.208 C3.886,10.142 3.928,10.08 3.97,10.016 C4.052,9.888 4.134,9.758 4.218,9.628 C4.57,9.118 4.956,8.616 5.384,8.14 C5.818,7.668 6.286,7.222 6.778,6.81 C7.278,6.406 7.8,6.04 8.33,5.716 C8.866,5.398 9.412,5.128 9.946,4.896 C10.082,4.842 10.216,4.79 10.35,4.738 C10.416,4.712 10.482,4.684 10.548,4.662 C10.614,4.64 10.682,4.618 10.748,4.596 C10.814,4.574 11.01,4.506 11.14,4.466 C11.27,4.43 11.4,4.394 11.528,4.358 C11.592,4.34 11.654,4.32 11.718,4.306 C11.782,4.292 11.844,4.278 11.906,4.264 C11.968,4.25 12.152,4.208 12.274,4.18 C12.396,4.158 12.514,4.138 12.632,4.116 C12.69,4.106 12.748,4.096 12.806,4.086 C12.834,4.08 12.864,4.076 12.892,4.07 C12.92,4.064 12.95,4.064 12.978,4.06 C13.09,4.046 13.202,4.032 13.31,4.02 C13.364,4.014 13.416,4.006 13.47,4 C13.524,3.994 13.576,3.992 13.626,3.988 C13.676,3.984 13.83,3.974 13.926,3.966 C14.024,3.96 14.116,3.95 14.21,3.95 C14.392,3.946 14.564,3.942 14.722,3.938 C14.868,3.944 15.002,3.948 15.122,3.952 C15.182,3.954 15.238,3.956 15.292,3.956 C15.358,3.96 15.42,3.964 15.478,3.968 C15.544,3.972 15.604,3.976 15.66,3.98 C15.762,3.996 15.866,4.004 15.972,4.004 C15.986,4.004 16.002,4.004 16.016,4.002 C16.02,4.002 16.024,4.002 16.024,4.002 L16.024,4.002 C16.998,3.978 17.798,3.258 17.948,2.322 C17.964,2.326 17.982,2.33 17.998,2.334 C18.1,2.354 18.202,2.386 18.308,2.414 C18.414,2.442 18.522,2.474 18.634,2.504 C18.69,2.52 18.746,2.534 18.802,2.552 C18.858,2.57 18.916,2.59 18.974,2.608 C19.032,2.626 19.206,2.684 19.326,2.724 C19.356,2.734 19.386,2.744 19.416,2.754 C19.446,2.764 19.476,2.778 19.506,2.788 C19.536,2.798 19.626,2.834 19.688,2.858 C19.75,2.882 19.934,2.954 20.06,3.004 C20.184,3.06 20.31,3.116 20.438,3.172 C20.502,3.2 20.566,3.228 20.63,3.258 C20.694,3.288 20.758,3.322 20.822,3.354 C20.886,3.386 21.078,3.484 21.21,3.55 C21.34,3.618 21.468,3.696 21.598,3.768 C21.662,3.804 21.728,3.842 21.794,3.88 C21.86,3.918 21.922,3.96 21.986,4.002 C22.05,4.044 22.244,4.166 22.374,4.25 C22.884,4.602 23.386,4.988 23.862,5.416 C24.334,5.85 24.78,6.318 25.192,6.81 C25.596,7.31 25.962,7.832 26.286,8.362 C26.604,8.898 26.874,9.444 27.106,9.978 C27.16,10.114 27.212,10.248 27.264,10.382 C27.29,10.448 27.318,10.514 27.34,10.58 C27.362,10.646 27.384,10.714 27.406,10.78 C27.428,10.846 27.496,11.042 27.536,11.172 C27.572,11.302 27.608,11.432 27.644,11.56 C27.662,11.624 27.682,11.686 27.696,11.75 C27.71,11.814 27.724,11.876 27.738,11.938 C27.752,12 27.794,12.184 27.822,12.306 C27.844,12.428 27.864,12.546 27.886,12.664 C27.896,12.722 27.906,12.78 27.916,12.838 C27.922,12.866 27.926,12.896 27.932,12.924 C27.938,12.952 27.938,12.982 27.942,13.01 C27.956,13.122 27.97,13.234 27.982,13.342 C27.988,13.396 27.996,13.448 28.002,13.502 C28.008,13.556 28.01,13.608 28.014,13.658 C28.018,13.708 28.028,13.862 28.036,13.958 C28.042,14.056 28.052,14.148 28.052,14.242 C28.056,14.424 28.06,14.596 28.064,14.754 C28.058,14.9 28.054,15.034 28.05,15.154 C28.048,15.214 28.046,15.27 28.046,15.324 C28.042,15.39 28.038,15.452 28.034,15.51 C28.03,15.576 28.026,15.636 28.022,15.692 C28.006,15.794 27.998,15.898 27.998,16.004 C27.998,16.018 27.998,16.034 28,16.048 C28,16.052 28,16.056 28,16.056 L28,16.056 C28.024,17.018 28.726,17.81 29.646,17.974 C29.644,17.984 29.642,17.992 29.64,18.002 C29.62,18.104 29.59,18.206 29.56,18.312 C29.53,18.418 29.5,18.526 29.47,18.638 C29.454,18.694 29.44,18.75 29.422,18.806 C29.404,18.862 29.384,18.92 29.366,18.978 C29.348,19.036 29.288,19.21 29.25,19.33 C29.24,19.36 29.23,19.39 29.22,19.42 C29.21,19.45 29.196,19.48 29.186,19.51 C29.176,19.54 29.14,19.63 29.116,19.692 C29.092,19.754 29.02,19.938 28.97,20.064 C28.914,20.188 28.858,20.314 28.802,20.442 C28.774,20.506 28.746,20.57 28.716,20.634 C28.686,20.698 28.652,20.762 28.62,20.826 C28.588,20.89 28.49,21.082 28.424,21.214 C28.356,21.344 28.278,21.472 28.206,21.602 C28.17,21.666 28.132,21.732 28.094,21.798 C28.056,21.864 28.014,21.926 27.972,21.99 C27.93,22.054 27.808,22.248 27.724,22.378 C27.372,22.888 26.986,23.39 26.558,23.866 C26.124,24.338 25.656,24.784 25.164,25.196 C24.664,25.6 24.142,25.966 23.612,26.29 C23.076,26.608 22.53,26.878 21.996,27.11 C21.86,27.164 21.726,27.216 21.592,27.268 C21.526,27.294 21.46,27.322 21.394,27.344 C21.328,27.366 21.26,27.388 21.194,27.41 C21.128,27.432 20.932,27.5 20.802,27.54 C20.672,27.576 20.542,27.612 20.414,27.648 C20.35,27.666 20.288,27.686 20.224,27.7 C20.16,27.714 20.098,27.728 20.036,27.742 C19.974,27.756 19.79,27.798 19.668,27.826 C19.546,27.848 19.428,27.868 19.31,27.89 C19.252,27.9 19.194,27.91 19.136,27.92 C19.108,27.926 19.08,27.93 19.05,27.936 C19.02,27.942 18.992,27.942 18.964,27.946 C18.852,27.96 18.74,27.974 18.632,27.986 C18.578,27.992 18.526,28 18.472,28.006 C18.418,28.012 18.366,28.014 18.316,28.018 C18.266,28.022 18.112,28.032 18.016,28.04 C17.918,28.046 17.826,28.056 17.732,28.056 C17.55,28.06 17.378,28.064 17.22,28.068 C17.074,28.062 16.94,28.058 16.82,28.054 C16.76,28.052 16.704,28.05 16.65,28.05 C16.584,28.046 16.522,28.042 16.464,28.038 C16.398,28.034 16.338,28.03 16.282,28.026 C16.18,28.01 16.076,28.002 15.97,28.002 C15.956,28.002 15.94,28.002 15.926,28.004 C15.922,28.004 15.92,28.004 15.92,28.004 L15.92,28.004 C14.952,28.028 14.154,28.742 13.998,29.672 C13.898,29.652 13.796,29.622 13.692,29.594 C13.588,29.566 13.478,29.534 13.366,29.504 C13.31,29.488 13.254,29.474 13.198,29.456 C13.142,29.438 13.084,29.418 13.026,29.4 C12.968,29.382 12.794,29.322 12.674,29.284 C12.644,29.274 12.614,29.264 12.584,29.254 C12.554,29.244 12.524,29.23 12.494,29.22 C12.464,29.21 12.374,29.174 12.312,29.15 C12.25,29.126 12.066,29.054 11.94,29.004 C11.816,28.948 11.69,28.892 11.562,28.836 C11.498,28.808 11.434,28.78 11.37,28.75 C11.306,28.72 11.242,28.686 11.178,28.654 C11.114,28.622 10.922,28.524 10.79,28.458 C10.66,28.39 10.532,28.312 10.402,28.24 C10.338,28.204 10.272,28.166 10.206,28.128 C10.14,28.09 10.078,28.048 10.014,28.006 C9.886,27.924 9.756,27.842 9.626,27.758 C9.116,27.408 8.614,27.02 8.138,26.592 C7.666,26.158 7.22,25.69 6.808,25.198 C6.404,24.698 6.038,24.176 5.714,23.646 C5.396,23.11 5.126,22.564 4.894,22.03 C4.84,21.894 4.788,21.76 4.736,21.626 C4.71,21.56 4.682,21.494 4.66,21.428 C4.638,21.362 4.616,21.294 4.594,21.228 C4.572,21.162 4.504,20.966 4.464,20.836 C4.428,20.706 4.392,20.576 4.356,20.448 C4.338,20.384 4.318,20.322 4.304,20.258 C4.29,20.194 4.276,20.132 4.262,20.07 C4.248,20.008 4.206,19.824 4.178,19.702 C4.156,19.58 4.136,19.462 4.114,19.344 C4.104,19.286 4.094,19.228 4.084,19.17 C4.078,19.142 4.074,19.114 4.068,19.084 C4.062,19.054 4.062,19.026 4.058,18.998 C4.044,18.886 4.03,18.774 4.018,18.666 C4.012,18.612 4.004,18.56 3.998,18.506 C3.992,18.452 3.99,18.4 3.986,18.35 C3.982,18.3 3.972,18.148 3.964,18.05 C3.958,17.952 3.948,17.86 3.948,17.766 C3.944,17.584 3.94,17.412 3.936,17.254 C3.942,17.108 3.946,16.974 3.95,16.854 C3.952,16.794 3.954,16.738 3.954,16.684 C3.958,16.618 3.962,16.556 3.966,16.498 C3.97,16.432 3.974,16.372 3.978,16.316 C3.994,16.214 4.002,16.11 4.002,16.004 C4.002,15.99 4.002,15.974 4,15.96 C4,15.956 4,15.954 4,15.954 L4,15.954 C3.976,14.974 3.246,14.168 2.298,14.026 L2.298,14.022 Z" id="Shape"></path>
        </g>
    </g>
</svg>