<?xml version="1.0" encoding="UTF-8"?>
<svg width="32px" height="32px" viewBox="0 0 32 32" version="1.1" xmlns="http://www.w3.org/2000/svg" xmlns:xlink="http://www.w3.org/1999/xlink">
    <title>spinner5</title>
    <g id="Page-1" stroke="none" stroke-width="1" fill="none" fill-rule="evenodd">
        <g id="127-spinner5" fill="#000000" fill-rule="nonzero">
            <path d="M16,0 C7.164,0 0,7.164 0,16 C0,24.836 7.164,32 16,32 C24.836,32 32,24.836 32,16 C32,7.164 24.836,0 16,0 Z M16,8 C20.418,8 24,11.582 24,16 C24,20.418 20.418,24 16,24 C11.582,24 8,20.418 8,16 C8,11.582 11.582,8 16,8 Z M25.546,25.546 C22.996,28.096 19.606,29.5 16,29.5 C12.394,29.5 9.004,28.096 6.454,25.546 C3.904,22.996 2.5,19.606 2.5,16 C2.5,12.394 3.904,9.004 6.454,6.454 L8.576,8.576 C8.576,8.576 8.576,8.576 8.576,8.576 C4.482,12.67 4.482,19.332 8.576,23.426 C10.56,25.41 13.196,26.502 16,26.502 C18.804,26.502 21.442,25.41 23.424,23.426 C27.518,19.332 27.518,12.67 23.424,8.576 L25.546,6.454 C28.096,9.004 29.5,12.394 29.5,16 C29.5,19.606 28.096,22.996 25.546,25.546 Z" id="Shape"></path>
        </g>
    </g>
</svg>