<?xml version="1.0" encoding="UTF-8"?>
<svg width="31px" height="31px" viewBox="0 0 31 31" version="1.1" xmlns="http://www.w3.org/2000/svg" xmlns:xlink="http://www.w3.org/1999/xlink">
    <title>spinner6</title>
    <g id="Page-1" stroke="none" stroke-width="1" fill="none" fill-rule="evenodd">
        <g id="128-spinner6" fill="#000000" fill-rule="nonzero">
            <path d="M11,4 C11,1.79 12.79,0 15,0 C17.21,0 19,1.79 19,4 C19,6.21 17.21,8 15,8 C12.79,8 11,6.21 11,4 Z M23.718,16 C23.718,16 23.718,16 23.718,16 C23.718,14.188 25.188,12.718 27,12.718 C28.812,12.718 30.282,14.188 30.282,16 C30.282,16 30.282,16 30.282,16 C30.282,17.812 28.812,19.282 27,19.282 C25.188,19.282 23.718,17.812 23.718,16 Z M20.514,24.486 C20.514,22.844 21.844,21.514 23.486,21.514 C25.128,21.514 26.458,22.844 26.458,24.486 C26.458,26.128 25.128,27.458 23.486,27.458 C21.844,27.458 20.514,26.128 20.514,24.486 Z M12.308,28 C12.308,26.514 13.514,25.308 15,25.308 C16.486,25.308 17.692,26.514 17.692,28 C17.692,29.486 16.486,30.692 15,30.692 C13.514,30.692 12.308,29.486 12.308,28 Z M4.076,24.486 C4.076,23.14 5.168,22.048 6.514,22.048 C7.86,22.048 8.952,23.14 8.952,24.486 C8.952,25.832 7.86,26.924 6.514,26.924 C5.168,26.924 4.076,25.832 4.076,24.486 Z M0.792,16 C0.792,14.78 1.78,13.792 3,13.792 C4.22,13.792 5.208,14.78 5.208,16 C5.208,17.22 4.22,18.208 3,18.208 C1.78,18.208 0.792,17.22 0.792,16 L0.792,16 Z M4.514,7.514 C4.514,7.514 4.514,7.514 4.514,7.514 C4.514,6.41 5.41,5.514 6.514,5.514 C7.618,5.514 8.514,6.41 8.514,7.514 C8.514,7.514 8.514,7.514 8.514,7.514 C8.514,8.618 7.618,9.514 6.514,9.514 C5.41,9.514 4.514,8.618 4.514,7.514 L4.514,7.514 Z M27.108,7.514 C27.108,9.514 25.486,11.136 23.484,11.136 C21.482,11.136 19.86,9.514 19.86,7.514 C19.86,5.512 21.482,3.892 23.484,3.892 C25.486,3.892 27.108,5.514 27.108,7.514 Z" id="Shape"></path>
        </g>
    </g>
</svg>