<?xml version="1.0" encoding="UTF-8"?>
<svg width="32px" height="31px" viewBox="0 0 32 31" version="1.1" xmlns="http://www.w3.org/2000/svg" xmlns:xlink="http://www.w3.org/1999/xlink">
    <title>spinner2</title>
    <g id="Page-1" stroke="none" stroke-width="1" fill="none" fill-rule="evenodd">
        <g id="124-spinner2" fill="#000000" fill-rule="nonzero">
            <path d="M32,16 C31.96,13.91 31.506,11.828 30.67,9.924 C29.836,8.018 28.624,6.29 27.138,4.864 C25.652,3.438 23.89,2.308 21.982,1.562 C20.076,0.814 18.026,0.458 16,0.5 C13.974,0.54 11.958,0.98 10.114,1.792 C8.268,2.602 6.598,3.776 5.216,5.216 C3.834,6.656 2.742,8.364 2.022,10.21 C1.3,12.056 0.956,14.038 0.998,16 C1.038,17.962 1.466,19.91 2.252,21.694 C3.036,23.478 4.174,25.094 5.568,26.43 C6.962,27.766 8.614,28.82 10.4,29.516 C12.184,30.212 14.102,30.544 15.998,30.502 C17.896,30.462 19.778,30.048 21.5,29.286 C23.224,28.528 24.784,27.428 26.074,26.078 C27.364,24.728 28.382,23.134 29.05,21.408 C29.458,20.362 29.734,19.27 29.88,18.164 C29.918,18.166 29.958,18.168 29.998,18.168 C31.102,18.168 31.998,17.272 31.998,16.168 C31.998,16.112 31.996,16.056 31.99,16.002 L31.998,16.002 L32,16 Z M28.822,21.31 C28.088,22.972 27.026,24.478 25.722,25.722 C24.418,26.966 22.878,27.946 21.214,28.59 C19.55,29.236 17.768,29.542 15.998,29.498 C14.23,29.458 12.48,29.068 10.878,28.358 C9.276,27.65 7.826,26.624 6.628,25.368 C5.43,24.112 4.486,22.626 3.868,21.022 C3.248,19.42 2.954,17.702 2.998,15.998 C3.042,14.294 3.414,12.61 4.1,11.07 C4.784,9.53 5.772,8.134 6.982,6.982 C8.192,5.83 9.624,4.924 11.166,4.33 C12.708,3.734 14.358,3.454 15.998,3.498 C17.638,3.542 19.256,3.902 20.734,4.562 C22.214,5.22 23.554,6.172 24.66,7.336 C25.766,8.5 26.636,9.876 27.204,11.358 C27.774,12.838 28.04,14.422 27.998,15.998 L28.006,15.998 C28.002,16.052 27.998,16.108 27.998,16.164 C27.998,17.196 28.778,18.044 29.782,18.152 C29.588,19.24 29.266,20.302 28.82,21.308 L28.822,21.31 Z" id="Shape"></path>
        </g>
    </g>
</svg>