<?xml version="1.0" encoding="UTF-8"?>
<svg width="32px" height="32px" viewBox="0 0 32 32" version="1.1" xmlns="http://www.w3.org/2000/svg" xmlns:xlink="http://www.w3.org/1999/xlink">
    <title>spinner4</title>
    <g id="Page-1" stroke="none" stroke-width="1" fill="none" fill-rule="evenodd">
        <g id="126-spinner4" fill="#000000" fill-rule="nonzero">
            <path d="M6,16 C6,15.62 6.022,15.244 6.064,14.874 L0.284,12.996 C0.1,13.97 0.002,14.974 0.002,16 C0.002,20.6 1.944,24.748 5.054,27.666 L8.626,22.75 C6.998,20.972 6.002,18.602 6.002,16 L6,16 Z M26,16 C26,18.602 25.006,20.972 23.376,22.75 L26.948,27.666 C30.058,24.748 32,20.6 32,16 C32,14.974 31.902,13.97 31.718,12.996 L25.938,14.874 C25.98,15.244 26.002,15.62 26.002,16 L26,16 Z M18,6.2 C20.872,6.784 23.298,8.598 24.702,11.07 L30.482,9.192 C28.194,4.336 23.536,0.816 18,0.124 L18,6.2 Z M7.298,11.07 C8.702,8.598 11.126,6.784 14,6.2 L14,0.124 C8.462,0.814 3.806,4.334 1.518,9.192 L7.298,11.07 Z M20.142,25.104 C18.88,25.68 17.478,26 16,26 C14.522,26 13.12,25.68 11.858,25.104 L8.286,30.02 C10.574,31.282 13.202,32 16,32 C18.798,32 21.426,31.282 23.714,30.02 L20.142,25.104 Z" id="Shape"></path>
        </g>
    </g>
</svg>