<?xml version="1.0" encoding="UTF-8"?>
<svg width="32px" height="29px" viewBox="0 0 32 29" version="1.1" xmlns="http://www.w3.org/2000/svg" xmlns:xlink="http://www.w3.org/1999/xlink">
    <title>spinner7</title>
    <g id="Page-1" stroke="none" stroke-width="1" fill="none" fill-rule="evenodd">
        <g id="129-spinner7" fill="#000000" fill-rule="nonzero">
            <path d="M13,26 C13,24.344 14.344,23 16,23 C17.656,23 19,24.344 19,26 C19,27.656 17.656,29 16,29 C14.344,29 13,27.656 13,26 Z M0,13 C0,11.344 1.344,10 3,10 C4.656,10 6,11.344 6,13 C6,14.656 4.656,16 3,16 C1.344,16 0,14.656 0,13 Z M26,13 C26,11.344 27.344,10 29,10 C30.656,10 32,11.344 32,13 C32,14.656 30.656,16 29,16 C27.344,16 26,14.656 26,13 Z M3.808,3.808 C3.808,2.152 5.152,0.808 6.808,0.808 C8.464,0.808 9.808,2.152 9.808,3.808 C9.808,5.464 8.464,6.808 6.808,6.808 C5.152,6.808 3.808,5.464 3.808,3.808 Z M22.192,22.192 C22.192,20.536 23.536,19.192 25.192,19.192 C26.848,19.192 28.192,20.536 28.192,22.192 C28.192,23.848 26.848,25.192 25.192,25.192 C23.536,25.192 22.192,23.848 22.192,22.192 Z M3.808,22.192 C3.808,20.536 5.152,19.192 6.808,19.192 C8.464,19.192 9.808,20.536 9.808,22.192 C9.808,23.848 8.464,25.192 6.808,25.192 C5.152,25.192 3.808,23.848 3.808,22.192 Z M22.192,3.808 C22.192,2.152 23.536,0.808 25.192,0.808 C26.848,0.808 28.192,2.152 28.192,3.808 C28.192,5.464 26.848,6.808 25.192,6.808 C23.536,6.808 22.192,5.464 22.192,3.808 Z" id="Shape"></path>
        </g>
    </g>
</svg>