<?xml version="1.0" encoding="UTF-8"?>
<svg width="29px" height="30px" viewBox="0 0 29 30" version="1.1" xmlns="http://www.w3.org/2000/svg" xmlns:xlink="http://www.w3.org/1999/xlink">
    <title>spinner</title>
    <g id="Page-1" stroke="none" stroke-width="1" fill="none" fill-rule="evenodd">
        <g id="123-spinner" fill="#000000" fill-rule="nonzero">
            <path d="M11,4 C11,1.79 12.79,0 15,0 C17.21,0 19,1.79 19,4 C19,6.21 17.21,8 15,8 C12.79,8 11,6.21 11,4 Z M19.486,7.514 C19.486,5.304 21.276,3.514 23.486,3.514 C25.696,3.514 27.486,5.304 27.486,7.514 C27.486,9.724 25.696,11.514 23.486,11.514 C21.276,11.514 19.486,9.724 19.486,7.514 Z M25,16 C25,14.896 25.896,14 27,14 C28.104,14 29,14.896 29,16 C29,17.104 28.104,18 27,18 C25.896,18 25,17.104 25,16 Z M21.486,24.486 C21.486,23.382 22.382,22.486 23.486,22.486 C24.59,22.486 25.486,23.382 25.486,24.486 C25.486,25.59 24.59,26.486 23.486,26.486 C22.382,26.486 21.486,25.59 21.486,24.486 Z M13,28 C13,28 13,28 13,28 C13,26.896 13.896,26 15,26 C16.104,26 17,26.896 17,28 C17,28 17,28 17,28 C17,29.104 16.104,30 15,30 C13.896,30 13,29.104 13,28 Z M4.514,24.486 C4.514,24.486 4.514,24.486 4.514,24.486 C4.514,23.382 5.41,22.486 6.514,22.486 C7.618,22.486 8.514,23.382 8.514,24.486 C8.514,24.486 8.514,24.486 8.514,24.486 C8.514,25.59 7.618,26.486 6.514,26.486 C5.41,26.486 4.514,25.59 4.514,24.486 L4.514,24.486 Z M3.514,7.514 C3.514,7.514 3.514,7.514 3.514,7.514 C3.514,5.858 4.858,4.514 6.514,4.514 C8.17,4.514 9.514,5.858 9.514,7.514 C9.514,7.514 9.514,7.514 9.514,7.514 C9.514,9.17 8.17,10.514 6.514,10.514 C4.858,10.514 3.514,9.17 3.514,7.514 L3.514,7.514 Z M0.75,16 C0.75,14.758 1.758,13.75 3,13.75 C4.242,13.75 5.25,14.758 5.25,16 C5.25,17.242 4.242,18.25 3,18.25 C1.758,18.25 0.75,17.242 0.75,16 Z" id="Shape"></path>
        </g>
    </g>
</svg>