<?xml version="1.0" encoding="UTF-8"?>
<svg width="32px" height="31px" viewBox="0 0 32 31" version="1.1" xmlns="http://www.w3.org/2000/svg" xmlns:xlink="http://www.w3.org/1999/xlink">
    <title>spinner8</title>
    <g id="Page-1" stroke="none" stroke-width="1" fill="none" fill-rule="evenodd">
        <g id="130-spinner8" fill="#000000" fill-rule="nonzero">
            <path d="M16,31 C11.726,31 7.708,29.336 4.686,26.314 C1.664,23.292 0,19.274 0,15 C0,11.974 0.85,9.028 2.456,6.478 C4.018,4 6.226,1.998 8.842,0.688 L10.186,3.37 C8.06,4.436 6.264,6.064 4.994,8.078 C3.69,10.146 3,12.54 3,15 C3,22.168 8.832,28 16,28 C23.168,28 29,22.168 29,15 C29,12.54 28.31,10.148 27.006,8.078 C25.736,6.062 23.94,4.434 21.814,3.37 L23.158,0.688 C25.774,1.998 27.982,4 29.544,6.478 C31.15,9.026 32,11.974 32,15 C32,19.274 30.336,23.292 27.314,26.314 C24.292,29.336 20.274,31 16,31 Z" id="Path"></path>
        </g>
    </g>
</svg>