<?xml version="1.0" encoding="UTF-8"?>
<svg width="27px" height="32px" viewBox="0 0 27 32" version="1.1" xmlns="http://www.w3.org/2000/svg" xmlns:xlink="http://www.w3.org/1999/xlink">
    <title>spoon_knife</title>
    <g id="Page-1" stroke="none" stroke-width="1" fill="none" fill-rule="evenodd">
        <g id="164-spoon-knife" fill="#000000" fill-rule="nonzero">
            <path d="M6,0 C2.686,0 0,3.134 0,7 C0,10.31 1.97,13.084 4.616,13.812 L3.622,30.004 C3.554,31.102 4.4,32 5.5,32 L6.5,32 C7.6,32 8.444,31.102 8.378,30.004 L7.384,13.812 C10.03,13.082 12,10.31 12,7 C12,3.134 9.314,0 6,0 Z M26.166,0 L24.5,10 L23.25,10 L22.416,0 L21.582,0 L20.748,10 L19.498,10 L17.832,0 L16.998,0 L16.998,13 C16.998,13.552 17.446,14 17.998,14 L20.602,14 L19.62,30.004 C19.552,31.102 20.398,32 21.498,32 L22.498,32 C23.598,32 24.442,31.102 24.376,30.004 L23.394,14 L25.998,14 C26.55,14 26.998,13.552 26.998,13 L26.998,0 L26.164,0 L26.166,0 Z" id="Shape"></path>
        </g>
    </g>
</svg>