<?xml version="1.0" encoding="UTF-8"?>
<svg width="32px" height="32px" viewBox="0 0 32 32" version="1.1" xmlns="http://www.w3.org/2000/svg" xmlns:xlink="http://www.w3.org/1999/xlink">
    <title>spotify</title>
    <g id="Page-1" stroke="none" stroke-width="1" fill="none" fill-rule="evenodd">
        <g id="405-spotify" fill="#000000" fill-rule="nonzero">
            <path d="M16,0 C7.2,0 0,7.2 0,16 C0,24.8 7.2,32 16,32 C24.8,32 32,24.8 32,16 C32,7.2 24.882,0 16,0 Z M23.362,23.118 C23.044,23.6 22.48,23.756 22,23.436 C18.238,21.118 13.518,20.636 7.918,21.918 C7.356,22.08 6.88,21.68 6.718,21.2 C6.556,20.638 6.956,20.162 7.436,20 C13.518,18.638 18.798,19.2 22.954,21.762 C23.516,22 23.598,22.638 23.36,23.118 L23.362,23.118 Z M25.282,18.718 C24.882,19.28 24.164,19.518 23.6,19.118 C19.282,16.48 12.718,15.68 7.682,17.28 C7.044,17.442 6.32,17.118 6.164,16.48 C6.002,15.842 6.326,15.118 6.964,14.962 C12.802,13.2 20.002,14.08 24.964,17.124 C25.44,17.362 25.682,18.162 25.282,18.718 L25.282,18.718 Z M25.438,14.238 C20.32,11.2 11.756,10.876 6.876,12.4 C6.076,12.638 5.276,12.162 5.038,11.438 C4.8,10.638 5.276,9.838 6,9.6 C11.682,7.918 21.038,8.238 26.962,11.762 C27.68,12.162 27.924,13.124 27.524,13.844 C27.118,14.4 26.162,14.638 25.436,14.238 L25.438,14.238 Z" id="Shape"></path>
        </g>
    </g>
</svg>