<?xml version="1.0" encoding="UTF-8"?>
<svg width="32px" height="32px" viewBox="0 0 32 32" version="1.1" xmlns="http://www.w3.org/2000/svg" xmlns:xlink="http://www.w3.org/1999/xlink">
    <title>stackoverflow</title>
    <g id="Page-1" stroke="none" stroke-width="1" fill="none" fill-rule="evenodd">
        <g id="465-stackoverflow" fill="#000000" fill-rule="nonzero">
            <path d="M32,20 L32,32 L0,32 L0,20 L4,20 L4,28 L28,28 L28,20 L32,20 Z M6,22 L26,22 L26,26 L6,26 L6,22 Z M6.474,17.67 L7.34,13.764 L26.866,18.092 L26,21.998 L6.474,17.67 Z M8.74,9.642 L10.43,6.016 L28.556,14.468 L26.866,18.094 L8.74,9.642 Z M30.992,11.296 L28.556,14.47 L12.688,2.294 L14.448,-1.33226763e-15 L16.268,-1.33226763e-15 L30.992,11.296 Z" id="Shape"></path>
        </g>
    </g>
</svg>