<?xml version="1.0" encoding="UTF-8"?>
<svg width="32px" height="32px" viewBox="0 0 32 32" version="1.1" xmlns="http://www.w3.org/2000/svg" xmlns:xlink="http://www.w3.org/1999/xlink">
    <title>stats_dots</title>
    <g id="Page-1" stroke="none" stroke-width="1" fill="none" fill-rule="evenodd">
        <g id="156-stats-dots" fill="#000000" fill-rule="nonzero">
            <path d="M4,28 L32,28 L32,32 L0,32 L0,0 L4,0 L4,28 Z M9,26 C7.344,26 6,24.656 6,23 C6,21.344 7.344,20 9,20 C9.088,20 9.176,20.004 9.262,20.012 L12.486,14.638 C12.178,14.168 12,13.604 12,13 C12,11.344 13.344,10 15,10 C16.656,10 18,11.344 18,13 C18,13.604 17.82,14.166 17.514,14.638 L20.738,20.012 C20.824,20.004 20.912,20 21,20 C21.066,20 21.132,20.002 21.198,20.008 L26.522,10.692 C26.192,10.21 26,9.628 26,9.002 C26,7.346 27.344,6.002 29,6.002 C30.656,6.002 32,7.346 32,9.002 C32,10.658 30.656,12.002 29,12.002 C28.934,12.002 28.868,12 28.802,11.994 L23.478,21.31 C23.808,21.792 24,22.374 24,23 C24,24.656 22.656,26 21,26 C19.344,26 18,24.656 18,23 C18,22.396 18.18,21.834 18.486,21.362 L15.262,15.988 C15.176,15.996 15.088,16 15,16 C14.912,16 14.824,15.996 14.738,15.988 L11.514,21.362 C11.822,21.832 12,22.396 12,23 C12,24.656 10.656,26 9,26 Z" id="Shape"></path>
        </g>
    </g>
</svg>