<?xml version="1.0" encoding="UTF-8"?>
<svg width="32px" height="32px" viewBox="0 0 32 32" version="1.1" xmlns="http://www.w3.org/2000/svg" xmlns:xlink="http://www.w3.org/1999/xlink">
    <title>steam2</title>
    <g id="Page-1" stroke="none" stroke-width="1" fill="none" fill-rule="evenodd">
        <g id="430-steam2" fill="#000000" fill-rule="nonzero">
            <path d="M9.498,26.126 C10.346,26.126 11.178,25.716 11.684,24.956 C12.488,23.75 12.162,22.12 10.956,21.316 L8.892,19.94 C9.246,19.844 9.616,19.792 10,19.792 C12.324,19.792 14.21,21.676 14.21,24.002 C14.21,26.328 12.326,28.212 10,28.212 C7.738,28.212 5.892,26.426 5.796,24.188 L8.044,25.686 C8.492,25.984 8.998,26.128 9.498,26.128 L9.498,26.126 Z M26.666,0 C29.6,0 32,2.4 32,5.334 L32,26.666 C32,29.602 29.6,32 26.666,32 L5.334,32 C2.4,32 0,29.602 0,26.666 L0,20.322 L3.792,22.85 C3.428,24.824 4.008,26.938 5.536,28.466 C8.002,30.932 12,30.932 14.466,28.466 C15.98,26.952 16.564,24.858 16.218,22.898 L24.002,15.93 C25.448,15.722 26.84,15.064 27.952,13.952 C30.686,11.218 30.686,6.786 27.952,4.052 C25.218,1.318 20.786,1.318 18.052,4.052 C16.94,5.164 16.28,6.556 16.074,8.002 L16.074,8.002 L9.678,17.696 C8.682,17.746 7.698,18.032 6.812,18.552 L0.004,14.014 L0.004,5.336 C0.004,2.402 2.404,0.002 5.338,0.002 L26.67,0.002 L26.666,0 Z M28,9 C28,6.238 25.762,4 23,4 C20.238,4 18,6.238 18,9 C18,11.762 20.238,14 23,14 C25.762,14 28,11.762 28,9 Z M20,9 C20,7.344 21.344,6 23,6 C24.656,6 26,7.344 26,9 C26,10.656 24.656,12 23,12 C21.344,12 20,10.656 20,9 Z" id="Shape"></path>
        </g>
    </g>
</svg>