<?xml version="1.0" encoding="UTF-8"?>
<svg width="32px" height="29px" viewBox="0 0 32 29" version="1.1" xmlns="http://www.w3.org/2000/svg" xmlns:xlink="http://www.w3.org/1999/xlink">
    <title>steam</title>
    <g id="Page-1" stroke="none" stroke-width="1" fill="none" fill-rule="evenodd">
        <g id="429-steam" fill="#000000" fill-rule="nonzero">
            <path d="M22,7 C22,5.344 23.344,4 25,4 C26.656,4 28,5.344 28,7 C28,8.656 26.656,10 25,10 C23.344,10 22,8.656 22,7 Z M29.95,2.05 C27.216,-0.684 22.784,-0.684 20.05,2.05 C18.938,3.162 18.278,4.554 18.072,6 L18.072,6 L11.676,15.694 C10.816,15.738 9.964,15.958 9.178,16.35 L4.244,12.494 C3.102,11.602 1.452,11.804 0.56,12.946 C-0.332,14.088 -0.13,15.738 1.012,16.63 L5.884,20.44 C5.354,22.526 5.904,24.832 7.538,26.464 C10.004,28.93 14.002,28.93 16.468,26.464 C17.982,24.95 18.566,22.856 18.22,20.896 L26.002,13.928 C27.448,13.72 28.84,13.06 29.952,11.95 C32.686,9.216 32.686,4.784 29.952,2.05 L29.95,2.05 Z M12,26.21 C9.676,26.21 7.79,24.326 7.79,22 C7.79,21.978 7.792,21.956 7.792,21.934 L9.884,23.568 C10.364,23.944 10.934,24.124 11.498,24.124 C12.278,24.124 13.05,23.778 13.568,23.116 C14.46,21.974 14.258,20.324 13.116,19.432 L11.132,17.88 C11.412,17.822 11.702,17.79 12,17.79 C14.324,17.79 16.21,19.674 16.21,22 C16.21,24.326 14.326,26.21 12,26.21 L12,26.21 Z M25,12 C22.238,12 20,9.762 20,7 C20,4.238 22.238,2 25,2 C27.762,2 30,4.238 30,7 C30,9.762 27.762,12 25,12 Z" id="Shape"></path>
        </g>
    </g>
</svg>