<?xml version="1.0" encoding="UTF-8"?>
<svg width="26px" height="32px" viewBox="0 0 26 32" version="1.1" xmlns="http://www.w3.org/2000/svg" xmlns:xlink="http://www.w3.org/1999/xlink">
    <title>stopwatch</title>
    <g id="Page-1" stroke="none" stroke-width="1" fill="none" fill-rule="evenodd">
        <g id="083-stopwatch" fill="#000000" fill-rule="nonzero">
            <path d="M14,6.038 L14,4 L18,4 L18,2 C18,0.896 17.104,0 16,0 L10,0 C8.896,0 8,0.896 8,2 L8,4 L12,4 L12,6.038 C5.288,6.548 0,12.156 0,19 C0,26.18 5.82,32 13,32 C20.18,32 26,26.18 26,19 C26,12.156 20.712,6.548 14,6.038 Z M20.072,26.072 C18.184,27.96 15.672,29 13,29 C10.328,29 7.818,27.96 5.928,26.072 C4.04,24.184 3,21.672 3,19 C3,16.328 4.04,13.818 5.928,11.928 C7.742,10.114 10.13,9.084 12.682,9.004 L12.004,18.818 C11.946,19.64 12.394,20 12.998,20 C13.602,20 14.052,19.64 13.992,18.818 L13.314,9.004 C15.866,9.084 18.254,10.114 20.068,11.928 C21.956,13.816 22.996,16.328 22.996,19 C22.996,21.672 21.956,24.182 20.068,26.072 L20.072,26.072 Z" id="Shape"></path>
        </g>
    </g>
</svg>