<?xml version="1.0" encoding="UTF-8"?>
<svg width="32px" height="28px" viewBox="0 0 32 28" version="1.1" xmlns="http://www.w3.org/2000/svg" xmlns:xlink="http://www.w3.org/1999/xlink">
    <title>strikethrough</title>
    <g id="Page-1" stroke="none" stroke-width="1" fill="none" fill-rule="evenodd">
        <g id="358-strikethrough" fill="#000000" fill-rule="nonzero">
            <path d="M32,14 L32,16 L24.672,16 C25.532,17.204 26,18.584 26,20 C26,22.214 24.854,24.344 22.856,25.842 C21.002,27.234 18.566,28 16,28 C13.434,28 10.998,27.234 9.144,25.842 C7.146,24.344 6,22.214 6,20 L10,20 C10,22.168 12.748,24 16,24 C19.252,24 22,22.168 22,20 C22,17.832 19.252,16 16,16 L0,16 L0,14 L9.36,14 C9.286,13.948 9.214,13.896 9.144,13.842 C7.146,12.344 6,10.214 6,8 C6,5.786 7.146,3.656 9.144,2.158 C10.998,0.766 13.434,4.4408921e-16 16,4.4408921e-16 C18.566,4.4408921e-16 21.002,0.766 22.856,2.158 C24.854,3.656 26,5.786 26,8 L22,8 C22,5.832 19.252,4 16,4 C12.748,4 10,5.832 10,8 C10,10.168 12.748,12 16,12 C18.468,12 20.814,12.708 22.64,14 L32,14 Z" id="Path"></path>
        </g>
    </g>
</svg>