<?xml version="1.0" encoding="UTF-8"?>
<svg width="28px" height="20px" viewBox="0 0 28 20" version="1.1" xmlns="http://www.w3.org/2000/svg" xmlns:xlink="http://www.w3.org/1999/xlink">
    <title>stumbleupon</title>
    <g id="Page-1" stroke="none" stroke-width="1" fill="none" fill-rule="evenodd">
        <g id="463-stumbleupon" fill="#000000" fill-rule="nonzero">
            <path d="M14,4 C12.9,4 12,4.9 12,6 L12,14 C12,17.306 9.306,20 6,20 C2.694,20 0,17.306 0,14 L0,10 L4,10 L4,14 C4,15.1 4.9,16 6,16 C7.1,16 8,15.1 8,14 L8,6 C8,2.694 10.694,0 14,0 C17.306,0 20,2.694 20,5.562 L20,7.5 L17.438,8.25 L16,7.5 L16,5.562 C16,4.9 15.1,4 14,4 Z" id="Path"></path>
            <path d="M28,14 C28,17.306 25.306,20 22,20 C18.694,20 16,17.306 16,13.562 L16,9.686 L17.438,10.436 L20,9.686 L20,13.562 C20,15.1 20.9,16 22,16 C23.1,16 24,15.1 24,14 L24,10 L28,10 L28,14 Z" id="Path"></path>
        </g>
    </g>
</svg>