<?xml version="1.0" encoding="UTF-8"?>
<svg width="32px" height="32px" viewBox="0 0 32 32" version="1.1" xmlns="http://www.w3.org/2000/svg" xmlns:xlink="http://www.w3.org/1999/xlink">
    <title>stumbleupon2</title>
    <g id="Page-1" stroke="none" stroke-width="1" fill="none" fill-rule="evenodd">
        <g id="464-stumbleupon2" fill="#000000" fill-rule="nonzero">
            <path d="M26.626,0 L5.376,0 C2.42,0 8.8817842e-16,2.418 8.8817842e-16,5.376 L8.8817842e-16,26.626 C8.8817842e-16,29.582 2.418,32.002 5.376,32.002 L26.626,32.002 C29.582,32.002 32.002,29.584 32.002,26.626 L32.002,5.376 C32.002,2.42 29.584,0 26.626,0 Z M16,10 C14.898,10 14,10.898 14,12 L14,20 C14,23.308 11.308,26 8,26 C4.692,26 2,23.308 2,20 L2,16 L6,16 L6,20 C6,21.102 6.898,22 8,22 C9.102,22 10,21.102 10,20 L10,12 C10,8.692 12.692,6 16,6 C19.308,6 22,8.692 22,11.562 L22,13.5 L19.438,14.25 L18,13.5 L18,11.562 C18,10.896 17.102,10 16,10 Z M30,20 C30,23.308 27.308,26 24,26 C20.692,26 18,23.308 18,19.562 L18,15.686 L19.438,16.436 L22,15.686 L22,19.562 C22,21.102 22.898,22 24,22 C25.102,22 26,21.102 26,20 L26,16 L30,16 L30,20 Z" id="Shape"></path>
        </g>
    </g>
</svg>