<?xml version="1.0" encoding="UTF-8"?>
<svg width="31px" height="26px" viewBox="0 0 31 26" version="1.1" xmlns="http://www.w3.org/2000/svg" xmlns:xlink="http://www.w3.org/1999/xlink">
    <title>subscript2</title>
    <g id="Page-1" stroke="none" stroke-width="1" fill="none" fill-rule="evenodd">
        <g id="365-subscript2" fill="#000000" fill-rule="nonzero">
            <path d="M4.064,20 L5.864,14 L14.138,14 L15.938,20 L19.488,20 L13.488,0 L6.512,0 L0.512,20 L4.064,20 Z M8.864,4 L11.138,4 L12.938,10 L7.064,10 L8.864,4 L8.864,4 Z M30,0 L25,8 L20,0 L30,0 Z" id="Shape"></path>
            <path d="M25,20 L23,20 C22.448,20 22,19.552 22,19 C22,18.448 22.448,18 23,18 L27,18 C27.552,18 28,17.552 28,17 C28,16.448 27.552,16 27,16 L23,16 C21.346,16 20,17.346 20,19 C20,19.768 20.29,20.468 20.766,21 C21.316,21.614 22.114,22 23,22 L25,22 C25.552,22 26,22.448 26,23 C26,23.552 25.552,24 25,24 L21,24 C20.448,24 20,24.448 20,25 C20,25.552 20.448,26 21,26 L25,26 C26.654,26 28,24.654 28,23 C28,22.232 27.71,21.532 27.234,21 C26.684,20.386 25.886,20 25,20 Z" id="Path"></path>
        </g>
    </g>
</svg>