<?xml version="1.0" encoding="UTF-8"?>
<svg width="32px" height="32px" viewBox="0 0 32 32" version="1.1" xmlns="http://www.w3.org/2000/svg" xmlns:xlink="http://www.w3.org/1999/xlink">
    <title>sun</title>
    <g id="Page-1" stroke="none" stroke-width="1" fill="none" fill-rule="evenodd">
        <g id="213-sun" fill="#000000" fill-rule="nonzero">
            <path d="M16,26 C17.104,26 18,26.896 18,28 L18,30 C18,31.104 17.104,32 16,32 C14.896,32 14,31.104 14,30 L14,28 C14,26.896 14.896,26 16,26 Z M16,6 C14.896,6 14,5.104 14,4 L14,2 C14,0.896 14.896,0 16,0 C17.104,0 18,0.896 18,2 L18,4 C18,5.104 17.104,6 16,6 Z M30,14 C31.104,14 32,14.896 32,16 C32,17.104 31.104,18 30,18 L28,18 C26.896,18 26,17.104 26,16 C26,14.896 26.896,14 28,14 L30,14 Z M6,16 C6,17.104 5.104,18 4,18 L2,18 C0.896,18 0,17.104 0,16 C0,14.896 0.896,14 2,14 L4,14 C5.104,14 6,14.896 6,16 Z M25.9,23.072 L27.314,24.486 C28.094,25.266 28.094,26.534 27.314,27.314 C26.534,28.094 25.266,28.094 24.486,27.314 L23.072,25.9 C22.292,25.12 22.292,23.852 23.072,23.072 C23.852,22.292 25.12,22.292 25.9,23.072 Z M6.1,8.928 L4.686,7.514 C3.904,6.732 3.904,5.466 4.686,4.686 C5.468,3.906 6.734,3.904 7.514,4.686 L8.928,6.1 C9.71,6.882 9.71,8.148 8.928,8.928 C8.146,9.708 6.88,9.71 6.1,8.928 Z M25.9,8.928 C25.12,9.71 23.852,9.71 23.072,8.928 C22.292,8.146 22.292,6.88 23.072,6.1 L24.486,4.686 C25.266,3.904 26.534,3.904 27.314,4.686 C28.094,5.468 28.094,6.734 27.314,7.514 L25.9,8.928 Z M6.1,23.072 C6.88,22.292 8.148,22.292 8.928,23.072 C9.708,23.852 9.71,25.12 8.928,25.9 L7.514,27.314 C6.732,28.094 5.466,28.094 4.686,27.314 C3.906,26.534 3.904,25.266 4.686,24.486 L6.1,23.072 Z" id="Shape"></path>
            <path d="M16,8 C11.582,8 8,11.582 8,16 C8,20.418 11.582,24 16,24 C20.418,24 24,20.418 24,16 C24,11.582 20.418,8 16,8 Z M16,21 C13.238,21 11,18.762 11,16 C11,13.238 13.238,11 16,11 C18.762,11 21,13.238 21,16 C21,18.762 18.762,21 16,21 Z" id="Shape"></path>
        </g>
    </g>
</svg>