<?xml version="1.0" encoding="UTF-8"?>
<svg width="32px" height="32px" viewBox="0 0 32 32" version="1.1" xmlns="http://www.w3.org/2000/svg" xmlns:xlink="http://www.w3.org/1999/xlink">
    <title>svg</title>
    <g id="Page-1" stroke="none" stroke-width="1" fill="none" fill-rule="evenodd">
        <g id="490-svg" fill="#000000" fill-rule="nonzero">
            <path d="M29,13 C28.112,13 27.314,13.386 26.764,14 L20.828,14 L25.026,9.802 C25.848,9.848 26.686,9.556 27.314,8.928 C28.486,7.756 28.486,5.856 27.314,4.686 C26.142,3.516 24.242,3.514 23.072,4.686 C22.444,5.314 22.152,6.152 22.198,6.974 L18,11.172 L18,5.236 C18.614,4.686 19,3.888 19,3 C19,1.344 17.656,-1.33226763e-15 16,-1.33226763e-15 C14.344,-1.33226763e-15 13,1.344 13,3 C13,3.888 13.386,4.686 14,5.236 L14,11.172 L9.802,6.974 C9.848,6.152 9.556,5.314 8.928,4.686 C7.756,3.514 5.856,3.514 4.686,4.686 C3.516,5.858 3.514,7.758 4.686,8.928 C5.314,9.556 6.152,9.848 6.974,9.802 L11.172,14 L5.236,14 C4.686,13.386 3.888,13 3,13 C1.344,13 -1.33226763e-15,14.344 -1.33226763e-15,16 C-1.33226763e-15,17.656 1.344,19 3,19 C3.888,19 4.686,18.614 5.236,18 L11.172,18 L6.974,22.198 C6.152,22.152 5.314,22.444 4.686,23.072 C3.514,24.244 3.514,26.144 4.686,27.314 C5.858,28.484 7.758,28.486 8.928,27.314 C9.556,26.686 9.848,25.848 9.802,25.026 L14,20.828 L14,26.764 C13.386,27.314 13,28.112 13,29 C13,30.656 14.344,32 16,32 C17.656,32 19,30.656 19,29 C19,28.112 18.614,27.314 18,26.764 L18,20.828 L22.198,25.026 C22.152,25.848 22.444,26.686 23.072,27.314 C24.244,28.486 26.144,28.486 27.314,27.314 C28.484,26.142 28.486,24.242 27.314,23.072 C26.686,22.444 25.848,22.152 25.026,22.198 L20.828,18 L26.764,18 C27.314,18.614 28.112,19 29,19 C30.656,19 32,17.656 32,16 C32,14.344 30.656,13 29,13 Z" id="Path"></path>
        </g>
    </g>
</svg>