<?xml version="1.0" encoding="UTF-8"?>
<svg width="32px" height="22px" viewBox="0 0 32 22" version="1.1" xmlns="http://www.w3.org/2000/svg" xmlns:xlink="http://www.w3.org/1999/xlink">
    <title>table</title>
    <g id="Page-1" stroke="none" stroke-width="1" fill="none" fill-rule="evenodd">
        <g id="369-table" fill="#000000" fill-rule="nonzero">
            <path d="M0,0 L0,22 L32,22 L32,0 L0,0 Z M12,14 L12,10 L20,10 L20,14 L12,14 Z M20,16 L20,20 L12,20 L12,16 L20,16 Z M20,4 L20,8 L12,8 L12,4 L20,4 Z M10,4 L10,8 L2,8 L2,4 L10,4 Z M2,10 L10,10 L10,14 L2,14 L2,10 Z M22,10 L30,10 L30,14 L22,14 L22,10 Z M22,8 L22,4 L30,4 L30,8 L22,8 Z M2,16 L10,16 L10,20 L2,20 L2,16 Z M22,20 L22,16 L30,16 L30,20 L22,20 Z" id="Shape"></path>
        </g>
    </g>
</svg>