<?xml version="1.0" encoding="UTF-8"?>
<svg width="32px" height="28px" viewBox="0 0 32 28" version="1.1" xmlns="http://www.w3.org/2000/svg" xmlns:xlink="http://www.w3.org/1999/xlink">
    <title>table2</title>
    <g id="Page-1" stroke="none" stroke-width="1" fill="none" fill-rule="evenodd">
        <g id="370-table2" fill="#000000" fill-rule="nonzero">
            <path d="M0,0 L0,28 L32,28 L32,0 L0,0 Z M12,18 L12,12 L20,12 L20,18 L12,18 Z M20,20 L20,26 L12,26 L12,20 L20,20 Z M20,4 L20,10 L12,10 L12,4 L20,4 Z M10,4 L10,10 L2,10 L2,4 L10,4 Z M2,12 L10,12 L10,18 L2,18 L2,12 Z M22,12 L30,12 L30,18 L22,18 L22,12 Z M22,10 L22,4 L30,4 L30,10 L22,10 Z M2,20 L10,20 L10,26 L2,26 L2,20 Z M22,26 L22,20 L30,20 L30,26 L22,26 Z" id="Shape"></path>
        </g>
    </g>
</svg>