<?xml version="1.0" encoding="UTF-8"?>
<svg width="32px" height="32px" viewBox="0 0 32 32" version="1.1" xmlns="http://www.w3.org/2000/svg" xmlns:xlink="http://www.w3.org/1999/xlink">
    <title>target</title>
    <g id="Page-1" stroke="none" stroke-width="1" fill="none" fill-rule="evenodd">
        <g id="180-target" fill="#000000" fill-rule="nonzero">
            <path d="M32,14 L28.846,14 C27.982,8.43 23.57,4.018 18,3.154 L18,0 L14,0 L14,3.154 C8.43,4.018 4.018,8.43 3.154,14 L0,14 L0,18 L3.154,18 C4.018,23.57 8.43,27.982 14,28.846 L14,32 L18,32 L18,28.846 C23.57,27.982 27.982,23.57 28.846,18 L32,18 L32,14 Z M24.776,14 L21.658,14 C21.056,12.296 19.704,10.944 18,10.342 L18,7.224 C21.36,7.99 24.01,10.64 24.776,14 Z M16,18 C14.896,18 14,17.104 14,16 C14,14.896 14.896,14 16,14 C17.104,14 18,14.896 18,16 C18,17.104 17.104,18 16,18 Z M14,7.224 L14,10.342 C12.296,10.944 10.944,12.296 10.342,14 L7.224,14 C7.99,10.64 10.64,7.99 14,7.224 Z M7.224,18 L10.342,18 C10.944,19.704 12.296,21.056 14,21.658 L14,24.776 C10.64,24.01 7.99,21.36 7.224,18 Z M18,24.776 L18,21.658 C19.704,21.056 21.056,19.704 21.658,18 L24.776,18 C24.01,21.36 21.36,24.01 18,24.776 Z" id="Shape"></path>
        </g>
    </g>
</svg>