<?xml version="1.0" encoding="UTF-8"?>
<svg width="32px" height="32px" viewBox="0 0 32 32" version="1.1" xmlns="http://www.w3.org/2000/svg" xmlns:xlink="http://www.w3.org/1999/xlink">
    <title>ticket</title>
    <g id="Page-1" stroke="none" stroke-width="1" fill="none" fill-rule="evenodd">
        <g id="058-ticket" fill="#000000" fill-rule="nonzero">
            <path d="M18,10 L22,14 L14,22 L10,18 L18,10 Z M31.298,9.298 L29,7 L28,8 C27.488,8.512 26.78,8.828 26,8.828 C24.438,8.828 23.172,7.562 23.172,6 C23.172,5.218 23.488,4.512 24.002,4 L25.002,3 L22.704,0.702 C21.768,-0.234 20.234,-0.234 19.298,0.702 L0.704,19.296 C-0.232,20.232 -0.232,21.766 0.704,22.702 L3.002,25 L4,24.002 C4.512,23.49 5.22,23.172 6.002,23.172 C7.564,23.172 8.83,24.438 8.83,26 C8.83,26.782 8.514,27.488 8,28 L7,29 L9.298,31.298 C10.234,32.234 11.766,32.234 12.704,31.298 L31.298,12.704 C32.234,11.768 32.234,10.234 31.298,9.298 Z M14,26 L6,18 L18,6 L26,14 L14,26 Z" id="Shape"></path>
        </g>
    </g>
</svg>