<?xml version="1.0" encoding="UTF-8"?>
<svg width="32px" height="30px" viewBox="0 0 32 30" version="1.1" xmlns="http://www.w3.org/2000/svg" xmlns:xlink="http://www.w3.org/1999/xlink">
    <title>tree</title>
    <g id="Page-1" stroke="none" stroke-width="1" fill="none" fill-rule="evenodd">
        <g id="189-tree" fill="#000000" fill-rule="nonzero">
            <path d="M30.5,22 L30,22 L30,15.5 C30,13.57 28.43,12 26.5,12 L18,12 L18,8 L18.5,8 C19.324,8 20,7.324 20,6.5 L20,1.5 C20,0.674 19.324,0 18.5,0 L13.5,0 C12.676,0 12,0.674 12,1.5 L12,6.5 C12,7.324 12.676,8 13.5,8 L14,8 L14,12 L5.5,12 C3.57,12 2,13.57 2,15.5 L2,22 L1.5,22 C0.676,22 0,22.676 0,23.5 L0,28.5 C0,29.324 0.676,30 1.5,30 L6.5,30 C7.326,30 8,29.324 8,28.5 L8,23.5 C8,22.676 7.326,22 6.5,22 L6,22 L6,16 L14,16 L14,22 L13.5,22 C12.676,22 12,22.676 12,23.5 L12,28.5 C12,29.324 12.676,30 13.5,30 L18.5,30 C19.324,30 20,29.324 20,28.5 L20,23.5 C20,22.676 19.324,22 18.5,22 L18,22 L18,16 L26,16 L26,22 L25.5,22 C24.676,22 24,22.676 24,23.5 L24,28.5 C24,29.324 24.676,30 25.5,30 L30.5,30 C31.324,30 32,29.324 32,28.5 L32,23.5 C32,22.676 31.324,22 30.5,22 Z M6,28 L2,28 L2,24 L6,24 L6,28 Z M18,28 L14,28 L14,24 L18,24 L18,28 Z M14,6 L14,2 L18,2 L18,6 L14,6 Z M30,28 L26,28 L26,24 L30,24 L30,28 Z" id="Shape"></path>
        </g>
    </g>
</svg>