<?xml version="1.0" encoding="UTF-8"?>
<svg width="32px" height="32px" viewBox="0 0 32 32" version="1.1" xmlns="http://www.w3.org/2000/svg" xmlns:xlink="http://www.w3.org/1999/xlink">
    <title>trello</title>
    <g id="Page-1" stroke="none" stroke-width="1" fill="none" fill-rule="evenodd">
        <g id="436-trello" fill="#000000" fill-rule="nonzero">
            <path d="M29,0 L3,0 C1.35,0 0,1.35 0,3 L0,29 C0,30.65 1.35,32 3,32 L29,32 C30.65,32 32,30.65 32,29 L32,3 C32,1.35 30.65,0 29,0 Z M14,24 C14,25.1 13.1,26 12,26 L8,26 C6.9,26 6,25.1 6,24 L6,8 C6,6.9 6.9,6 8,6 L12,6 C13.1,6 14,6.9 14,8 L14,24 Z M26,18 C26,19.1 25.1,20 24,20 L20,20 C18.9,20 18,19.1 18,18 L18,8 C18,6.9 18.9,6 20,6 L24,6 C25.1,6 26,6.9 26,8 L26,18 Z" id="Shape"></path>
        </g>
    </g>
</svg>