<?xml version="1.0" encoding="UTF-8"?>
<svg width="21px" height="32px" viewBox="0 0 21 32" version="1.1" xmlns="http://www.w3.org/2000/svg" xmlns:xlink="http://www.w3.org/1999/xlink">
    <title>tumblr</title>
    <g id="Page-1" stroke="none" stroke-width="1" fill="none" fill-rule="evenodd">
        <g id="442-tumblr" fill="#000000" fill-rule="nonzero">
            <path d="M12.002,14 L12.002,21.318 C12.002,23.174 11.978,24.244 12.174,24.772 C12.37,25.296 12.858,25.84 13.392,26.154 C14.1,26.578 14.908,26.79 15.82,26.79 C17.44,26.79 18.398,26.576 20,25.524 L20,30.334 C18.634,30.976 17.442,31.352 16.334,31.612 C15.224,31.87 14.026,32 12.738,32 C11.274,32 10.412,31.816 9.288,31.448 C8.164,31.078 7.204,30.548 6.412,29.868 C5.616,29.182 5.068,28.456 4.76,27.686 C4.452,26.916 4.3,25.798 4.3,24.334 L4.3,13.112 L0.006,13.112 L0.006,8.58 C1.262,8.172 2.668,7.586 3.562,6.826 C4.46,6.062 5.18,5.148 5.722,4.078 C6.266,3.01 6.64,1.65 6.844,3.55271368e-15 L12.002,3.55271368e-15 L12.002,8 L20,8 L20,14 L12.002,14 Z" id="Path"></path>
        </g>
    </g>
</svg>