<?xml version="1.0" encoding="UTF-8"?>
<svg width="32px" height="32px" viewBox="0 0 32 32" version="1.1" xmlns="http://www.w3.org/2000/svg" xmlns:xlink="http://www.w3.org/1999/xlink">
    <title>tumblr2</title>
    <g id="Page-1" stroke="none" stroke-width="1" fill="none" fill-rule="evenodd">
        <g id="443-tumblr2" fill="#000000" fill-rule="nonzero">
            <path d="M29,0 L3,0 C1.35,0 0,1.35 0,3 L0,29 C0,30.65 1.35,32 3,32 L29,32 C30.65,32 32,30.65 32,29 L32,3 C32,1.35 30.65,0 29,0 Z M22.868,25.768 C21.924,26.212 21.068,26.524 20.306,26.706 C19.544,26.882 18.712,26.974 17.824,26.974 C16.812,26.974 16.218,26.848 15.442,26.592 C14.666,26.336 14.004,25.974 13.454,25.504 C12.904,25.028 12.528,24.528 12.316,23.998 C12.104,23.468 11.998,22.698 11.998,21.686 L11.998,13.942 L8.998,13.942 L8.998,10.816 C9.866,10.534 10.874,10.128 11.486,9.604 C12.104,9.078 12.604,8.448 12.974,7.71 C13.35,6.972 13.606,6.036 13.75,4.898 L16.888,4.898 L16.888,9.998 L22,9.998 L22,13.942 L16.894,13.942 L16.894,19.604 C16.894,20.886 16.876,21.622 17.012,21.986 C17.148,22.35 17.488,22.724 17.856,22.936 C18.344,23.23 18.906,23.374 19.532,23.374 C20.65,23.374 21.764,23.012 22.87,22.286 L22.87,25.768 L22.868,25.768 Z" id="Shape"></path>
        </g>
    </g>
</svg>