<?xml version="1.0" encoding="UTF-8"?>
<svg width="32px" height="32px" viewBox="0 0 32 32" version="1.1" xmlns="http://www.w3.org/2000/svg" xmlns:xlink="http://www.w3.org/1999/xlink">
    <title>tux</title>
    <g id="Page-1" stroke="none" stroke-width="1" fill="none" fill-rule="evenodd">
        <g id="446-tux" fill="#000000" fill-rule="nonzero">
            <path d="M17.74,23.028 C15.18,24.22 12.798,24.206 11.198,24.092 C9.29,23.954 7.756,23.432 7.082,22.976 C6.666,22.694 6.102,22.804 5.82,23.22 C5.538,23.636 5.648,24.2 6.064,24.482 C7.148,25.216 9.066,25.762 11.07,25.906 C11.41,25.93 11.782,25.946 12.184,25.946 C13.928,25.946 16.142,25.78 18.51,24.678 C18.966,24.466 19.162,23.926 18.95,23.47 C18.738,23.014 18.198,22.818 17.742,23.03 L17.74,23.028 Z M27.842,21.682 C27.93,13.786 28.74,-1.136 13.624,0.07 C-1.302,1.272 2.656,17.038 2.434,22.318 C2.236,25.112 1.31,28.526 -8.8817842e-16,32 L4.034,32 C4.448,30.528 4.754,29.072 4.884,27.682 C5.128,27.852 5.388,28.016 5.666,28.172 C6.118,28.438 6.506,28.792 6.918,29.166 C7.878,30.042 8.968,31.034 11.096,31.158 C11.238,31.166 11.382,31.17 11.524,31.17 C13.678,31.17 15.15,30.228 16.332,29.47 C16.898,29.108 17.388,28.794 17.85,28.644 C19.16,28.234 20.304,27.572 21.16,26.73 C21.294,26.598 21.418,26.464 21.534,26.326 C22.01,28.072 22.662,30.038 23.386,31.998 L32,31.998 C29.932,28.804 27.798,25.674 27.842,21.68 L27.842,21.682 Z M3.878,17.386 C3.878,17.386 3.878,17.386 3.878,17.384 C3.73,14.808 4.962,12.64 6.632,12.542 C8.302,12.444 9.774,14.456 9.922,17.032 C9.922,17.032 9.922,17.032 9.922,17.034 C9.93,17.172 9.934,17.31 9.934,17.446 C9.406,17.578 8.928,17.772 8.5,17.996 C8.498,17.976 8.498,17.958 8.496,17.938 C8.496,17.938 8.496,17.938 8.496,17.938 C8.354,16.476 7.572,15.37 6.75,15.47 C5.928,15.57 5.378,16.838 5.522,18.3 C5.522,18.3 5.522,18.3 5.522,18.3 C5.584,18.938 5.768,19.508 6.024,19.938 C5.96,19.988 5.78,20.12 5.574,20.27 C5.418,20.384 5.23,20.522 5.002,20.69 C4.38,19.874 3.954,18.704 3.878,17.38 L3.878,17.386 Z M20.79,23.756 C20.73,25.118 18.95,26.4 17.304,26.914 L17.294,26.918 C16.61,27.14 16,27.53 15.354,27.944 C14.268,28.638 13.146,29.356 11.526,29.356 C11.42,29.356 11.31,29.352 11.204,29.346 C9.72,29.26 9.024,28.626 8.146,27.824 C7.682,27.402 7.202,26.964 6.584,26.602 L6.57,26.594 C5.236,25.84 4.408,24.904 4.354,24.088 C4.328,23.682 4.508,23.332 4.89,23.044 C5.722,22.42 6.28,22.012 6.648,21.742 C7.058,21.442 7.182,21.352 7.274,21.264 C7.34,21.202 7.41,21.134 7.486,21.058 C8.25,20.316 9.528,19.072 11.49,19.072 C12.69,19.072 14.018,19.534 15.432,20.444 C16.098,20.878 16.678,21.078 17.412,21.332 C17.916,21.506 18.49,21.704 19.256,22.032 L19.268,22.038 C19.982,22.332 20.828,22.868 20.788,23.754 L20.79,23.756 Z M20.396,20.556 C20.258,20.486 20.116,20.42 19.966,20.36 C19.276,20.064 18.722,19.864 18.262,19.704 C18.516,19.208 18.674,18.588 18.688,17.916 C18.688,17.916 18.688,17.916 18.688,17.916 C18.724,16.28 17.898,14.95 16.844,14.948 C15.79,14.946 14.908,16.27 14.872,17.906 C14.872,17.906 14.872,17.906 14.872,17.906 C14.87,17.96 14.87,18.012 14.872,18.066 C14.224,17.768 13.586,17.55 12.96,17.418 C12.958,17.356 12.954,17.296 12.952,17.234 C12.952,17.234 12.952,17.232 12.952,17.232 C12.892,14.25 14.72,11.782 17.038,11.72 C19.356,11.658 21.282,14.024 21.344,17.004 C21.344,17.004 21.344,17.006 21.344,17.006 C21.372,18.354 21.01,19.596 20.394,20.558 L20.396,20.556 Z" id="Shape"></path>
        </g>
    </g>
</svg>