<?xml version="1.0" encoding="UTF-8"?>
<svg width="32px" height="32px" viewBox="0 0 32 32" version="1.1" xmlns="http://www.w3.org/2000/svg" xmlns:xlink="http://www.w3.org/1999/xlink">
    <title>tv</title>
    <g id="Page-1" stroke="none" stroke-width="1" fill="none" fill-rule="evenodd">
        <g id="092-tv" fill="#000000" fill-rule="nonzero">
            <path d="M30.662,9.004 C27.886,8.606 24.932,8.316 21.848,8.154 L27,3.002 L25,1.002 L17.982,8.02 C17.326,8.008 16.664,8.002 16,8.002 L16,8.002 L8,0.002 L6,2.002 L12.068,8.07 C8.29,8.202 4.682,8.524 1.338,9.004 C0.478,12.37 -8.8817842e-16,16.09 -8.8817842e-16,20 C-8.8817842e-16,23.91 0.478,27.63 1.338,30.996 C5.826,31.642 10.786,32 16,32 C21.214,32 26.174,31.642 30.662,30.996 C31.522,27.63 32,23.91 32,20 C32,16.09 31.522,12.37 30.662,9.004 Z M26.996,27.332 C23.63,27.762 19.91,28 16,28 C12.09,28 8.37,27.762 5.004,27.332 C4.358,25.088 4,22.608 4,20 C4,17.392 4.358,14.914 5.004,12.668 C8.37,12.238 12.09,12 16,12 C19.91,12 23.63,12.238 26.996,12.668 C27.642,14.912 28,17.392 28,20 C28,22.608 27.642,25.086 26.996,27.332 Z" id="Shape"></path>
        </g>
    </g>
</svg>