<?xml version="1.0" encoding="UTF-8"?>
<svg width="33px" height="26px" viewBox="0 0 33 26" version="1.1" xmlns="http://www.w3.org/2000/svg" xmlns:xlink="http://www.w3.org/1999/xlink">
    <title>twitter</title>
    <g id="Page-1" stroke="none" stroke-width="1" fill="none" fill-rule="evenodd">
        <g id="407-twitter" fill="#000000" fill-rule="nonzero">
            <path d="M33,3.076 C31.824,3.602 30.556,3.952 29.232,4.108 C30.588,3.296 31.626,2.008 32.12,0.476 C30.852,1.226 29.444,1.776 27.952,2.07 C26.752,0.794 25.046,0.002 23.158,0.002 C19.532,0.002 16.596,2.94 16.596,6.564 C16.596,7.076 16.652,7.576 16.764,8.058 C11.308,7.782 6.47,5.17 3.232,1.196 C2.67,2.164 2.344,3.296 2.344,4.496 C2.344,6.772 3.5,8.784 5.262,9.958 C4.186,9.926 3.174,9.626 2.286,9.14 C2.286,9.166 2.286,9.196 2.286,9.222 C2.286,12.404 4.548,15.06 7.554,15.66 C7.004,15.81 6.422,15.892 5.822,15.892 C5.398,15.892 4.99,15.848 4.584,15.774 C5.422,18.38 7.846,20.28 10.716,20.336 C8.466,22.098 5.64,23.148 2.56,23.148 C2.028,23.148 1.51,23.116 0.992,23.054 C3.904,24.922 7.354,26.004 11.06,26.004 C23.134,26.004 29.742,15.998 29.742,7.322 C29.742,7.034 29.736,6.754 29.724,6.472 C31.006,5.554 32.118,4.396 32.998,3.078 L33,3.076 Z" id="Path"></path>
        </g>
    </g>
</svg>