<?xml version="1.0" encoding="UTF-8"?>
<svg width="20px" height="28px" viewBox="0 0 20 28" version="1.1" xmlns="http://www.w3.org/2000/svg" xmlns:xlink="http://www.w3.org/1999/xlink">
    <title>underline</title>
    <g id="Page-1" stroke="none" stroke-width="1" fill="none" fill-rule="evenodd">
        <g id="356-underline" fill="#000000" fill-rule="nonzero">
            <path d="M16,0 L20,0 L20,13 C20,17.97 15.522,22 10,22 C4.478,22 0,17.97 0,13 L0,0 L4,0 L4,13 C4,14.256 4.57,15.46 5.604,16.39 C6.758,17.428 8.318,18 10,18 C11.682,18 13.242,17.428 14.396,16.39 C15.43,15.458 16,14.254 16,13 L16,0 Z M0,24 L20,24 L20,28 L0,28 L0,24 Z" id="Shape"></path>
        </g>
    </g>
</svg>