<?xml version="1.0" encoding="UTF-8"?>
<svg width="32px" height="32px" viewBox="0 0 32 32" version="1.1" xmlns="http://www.w3.org/2000/svg" xmlns:xlink="http://www.w3.org/1999/xlink">
    <title>ungroup</title>
    <g id="Page-1" stroke="none" stroke-width="1" fill="none" fill-rule="evenodd">
        <g id="346-ungroup" fill="#000000" fill-rule="nonzero">
            <path d="M12,14.5 C12,15.324 11.324,16 10.5,16 L7.5,16 C6.674,16 6,15.324 6,14.5 L6,11.5 C6,10.676 6.674,10 7.5,10 L10.5,10 C11.324,10 12,10.676 12,11.5 L12,14.5 Z" id="Path"></path>
            <path d="M22,14.5 C22,15.324 21.324,16 20.5,16 L17.5,16 C16.676,16 16,15.324 16,14.5 L16,11.5 C16,10.676 16.676,10 17.5,10 L20.5,10 C21.324,10 22,10.676 22,11.5 L22,14.5 Z" id="Path"></path>
            <path d="M12,24.5 C12,25.324 11.324,26 10.5,26 L7.5,26 C6.674,26 6,25.324 6,24.5 L6,21.5 C6,20.676 6.674,20 7.5,20 L10.5,20 C11.324,20 12,20.676 12,21.5 L12,24.5 Z" id="Path"></path>
            <path d="M22,24.5 C22,25.324 21.324,26 20.5,26 L17.5,26 C16.676,26 16,25.324 16,24.5 L16,21.5 C16,20.676 16.676,20 17.5,20 L20.5,20 C21.324,20 22,20.676 22,21.5 L22,24.5 Z" id="Path"></path>
            <polygon id="Path" points="28.502 5 32 1.502 32 0 30.498 0 27 3.498 23.502 2.22044605e-16 22 2.22044605e-16 22 1.502 25.498 5 22 8.498 22 10 23.502 10 27 6.502 30.498 10 32 10 32 8.498"></polygon>
            <polygon id="Path" points="0 24 2 24 2 28 0 28"></polygon>
            <polygon id="Path" points="0 18 2 18 2 22 0 22"></polygon>
            <polygon id="Path" points="26 14 28 14 28 18 26 18"></polygon>
            <polygon id="Path" points="26 26 28 26 28 30 26 30"></polygon>
            <polygon id="Path" points="26 20 28 20 28 24 26 24"></polygon>
            <polygon id="Path" points="0 12 2 12 2 16 0 16"></polygon>
            <polygon id="Path" points="0 6 2 6 2 10 0 10"></polygon>
            <polygon id="Path" points="16 4 20 4 20 6 16 6"></polygon>
            <polygon id="Path" points="10 4 14 4 14 6 10 6"></polygon>
            <polygon id="Path" points="4 4 8 4 8 6 4 6"></polygon>
            <polygon id="Path" points="14 30 18 30 18 32 14 32"></polygon>
            <polygon id="Path" points="20 30 24 30 24 32 20 32"></polygon>
            <polygon id="Path" points="8 30 12 30 12 32 8 32"></polygon>
            <polygon id="Path" points="2 30 6 30 6 32 2 32"></polygon>
        </g>
    </g>
</svg>