<?xml version="1.0" encoding="UTF-8"?>
<svg width="32px" height="32px" viewBox="0 0 32 32" version="1.1" xmlns="http://www.w3.org/2000/svg" xmlns:xlink="http://www.w3.org/1999/xlink">
    <title>user_plus</title>
    <g id="Page-1" stroke="none" stroke-width="1" fill="none" fill-rule="evenodd">
        <g id="116-user-plus" fill="#000000" fill-rule="nonzero">
            <path d="M12,23 C12,18.274 14.996,14.234 19.188,12.682 C19.696,11.54 20,10.27 20,9 C20,4.03 20,0 14,0 C8,0 8,4.03 8,9 C8,12.096 9.796,15.19 12,16.432 L12,18.082 C5.216,18.636 0,21.97 0,26 L12.416,26 C12.146,25.046 12,24.04 12,23 Z" id="Path"></path>
            <path d="M23,14 C18.03,14 14,18.03 14,23 C14,27.97 18.03,32 23,32 C27.97,32 32,27.97 32,23 C32,18.03 27.97,14 23,14 Z M28,24 L24,24 L24,28 L22,28 L22,24 L18,24 L18,22 L22,22 L22,18 L24,18 L24,22 L28,22 L28,24 Z" id="Shape"></path>
        </g>
    </g>
</svg>