<?xml version="1.0" encoding="UTF-8"?>
<svg width="36px" height="32px" viewBox="0 0 36 32" version="1.1" xmlns="http://www.w3.org/2000/svg" xmlns:xlink="http://www.w3.org/1999/xlink">
    <title>users</title>
    <g id="Page-1" stroke="none" stroke-width="1" fill="none" fill-rule="evenodd">
        <g id="115-users" fill="#000000" fill-rule="nonzero">
            <path d="M24,24.082 L24,22.432 C26.204,21.19 28,18.096 28,15 C28,10.03 28,6 22,6 C16,6 16,10.03 16,15 C16,18.096 17.796,21.19 20,22.432 L20,24.082 C13.216,24.636 8,27.97 8,32 L36,32 C36,27.97 30.784,24.636 24,24.082 Z" id="Path"></path>
            <path d="M10.224,24.854 C11.952,23.724 14.102,22.866 16.468,22.342 C15.998,21.786 15.57,21.166 15.202,20.498 C14.252,18.772 13.75,16.872 13.75,15.002 C13.75,12.314 13.75,9.774 14.706,7.696 C15.634,5.68 17.304,4.43 19.682,3.962 C19.154,1.572 17.746,0.002 14,0.002 C8,0.002 8,4.032 8,9.002 C8,12.098 9.796,15.192 12,16.434 L12,18.084 C5.216,18.638 -1.77635684e-15,21.972 -1.77635684e-15,26.002 L8.718,26.002 C9.172,25.598 9.674,25.216 10.224,24.856 L10.224,24.854 Z" id="Path"></path>
        </g>
    </g>
</svg>