<?xml version="1.0" encoding="UTF-8"?>
<svg width="32px" height="32px" viewBox="0 0 32 32" version="1.1" xmlns="http://www.w3.org/2000/svg" xmlns:xlink="http://www.w3.org/1999/xlink">
    <title>user_check</title>
    <g id="Page-1" stroke="none" stroke-width="1" fill="none" fill-rule="evenodd">
        <g id="118-user-check" fill="#000000" fill-rule="nonzero">
            <polygon id="Path" points="30 19 21 28 18 25 16 27 21 32 32 21"></polygon>
            <path d="M14,24 L24,24 L24,20.402 C21.9,19.176 19.116,18.336 16,18.082 L16,16.432 C18.204,15.19 20,12.096 20,9 C20,4.03 20,1.77635684e-15 14,1.77635684e-15 C8,1.77635684e-15 8,4.03 8,9 C8,12.096 9.796,15.19 12,16.432 L12,18.082 C5.216,18.636 0,21.97 0,26 L14,26 L14,24 Z" id="Path"></path>
        </g>
    </g>
</svg>