<?xml version="1.0" encoding="UTF-8"?>
<svg width="32px" height="24px" viewBox="0 0 32 24" version="1.1" xmlns="http://www.w3.org/2000/svg" xmlns:xlink="http://www.w3.org/1999/xlink">
    <title>video_camera</title>
    <g id="Page-1" stroke="none" stroke-width="1" fill="none" fill-rule="evenodd">
        <g id="021-video-camera" fill="#000000" fill-rule="nonzero">
            <path d="M12,5 C12,2.238 14.238,0 17,0 C19.762,0 22,2.238 22,5 C22,7.762 19.762,10 17,10 C14.238,10 12,7.762 12,5 Z M0,5 C0,2.238 2.238,0 5,0 C7.762,0 10,2.238 10,5 C10,7.762 7.762,10 5,10 C2.238,10 0,7.762 0,5 Z M24,15 L24,12 C24,10.9 23.1,10 22,10 L2,10 C0.9,10 0,10.9 0,12 L0,22 C0,23.1 0.9,24 2,24 L22,24 C23.1,24 24,23.1 24,22 L24,19 L32,24 L32,10 L24,15 Z M20,20 L4,20 L4,14 L20,14 L20,20 Z" id="Shape"></path>
        </g>
    </g>
</svg>