<?xml version="1.0" encoding="UTF-8"?>
<svg width="32px" height="32px" viewBox="0 0 32 32" version="1.1" xmlns="http://www.w3.org/2000/svg" xmlns:xlink="http://www.w3.org/1999/xlink">
    <title>vimeo2</title>
    <g id="Page-1" stroke="none" stroke-width="1" fill="none" fill-rule="evenodd">
        <g id="418-vimeo2" fill="#000000" fill-rule="nonzero">
            <path d="M29,0 L3,0 C1.35,0 0,1.35 0,3 L0,29 C0,30.65 1.35,32 3,32 L29,32 C30.65,32 32,30.65 32,29 L32,3 C32,1.35 30.65,0 29,0 Z M26.926,10.626 C26.826,12.876 25.25,15.958 22.208,19.87 C19.064,23.958 16.402,26.002 14.226,26.002 C12.876,26.002 11.738,24.758 10.808,22.27 C10.182,19.988 9.564,17.708 8.94,15.426 C8.252,12.938 7.508,11.694 6.716,11.694 C6.542,11.694 5.934,12.056 4.904,12.782 L3.816,11.382 C4.96,10.382 6.084,9.376 7.19,8.376 C8.716,7.064 9.852,6.37 10.614,6.3 C12.414,6.126 13.52,7.356 13.938,9.988 C14.388,12.832 14.7,14.594 14.876,15.288 C15.394,17.644 15.964,18.82 16.588,18.82 C17.07,18.82 17.8,18.058 18.77,16.526 C19.74,14.994 20.258,13.832 20.326,13.032 C20.464,11.714 19.944,11.05 18.77,11.05 C18.214,11.05 17.644,11.176 17.058,11.432 C18.196,7.714 20.364,5.9 23.57,6.008 C25.946,6.076 27.064,7.614 26.926,10.626 Z" id="Shape"></path>
        </g>
    </g>
</svg>