<?xml version="1.0" encoding="UTF-8"?>
<svg width="32px" height="28px" viewBox="0 0 32 28" version="1.1" xmlns="http://www.w3.org/2000/svg" xmlns:xlink="http://www.w3.org/1999/xlink">
    <title>vimeo</title>
    <g id="Page-1" stroke="none" stroke-width="1" fill="none" fill-rule="evenodd">
        <g id="417-vimeo" fill="#000000" fill-rule="nonzero">
            <path d="M31.988,6.562 C31.844,9.674 29.67,13.944 25.462,19.356 C21.112,25.006 17.43,27.838 14.418,27.838 C12.556,27.838 10.974,26.12 9.686,22.676 C8.824,19.52 7.968,16.364 7.104,13.208 C6.148,9.764 5.122,8.046 4.022,8.046 C3.784,8.046 2.946,8.552 1.51,9.552 L0.004,7.614 C1.586,6.226 3.142,4.838 4.672,3.452 C6.778,1.634 8.36,0.678 9.416,0.576 C11.904,0.338 13.442,2.038 14.016,5.682 C14.634,9.614 15.066,12.058 15.31,13.014 C16.028,16.276 16.816,17.908 17.678,17.908 C18.346,17.908 19.354,16.852 20.696,14.732 C22.034,12.62 22.752,11.008 22.852,9.9 C23.046,8.076 22.328,7.156 20.696,7.156 C19.928,7.156 19.14,7.332 18.328,7.682 C19.902,2.532 22.902,0.032 27.34,0.176 C30.622,0.264 32.172,2.394 31.984,6.564 L31.988,6.562 Z" id="Path"></path>
        </g>
    </g>
</svg>