<?xml version="1.0" encoding="UTF-8"?>
<svg width="30px" height="32px" viewBox="0 0 30 32" version="1.1" xmlns="http://www.w3.org/2000/svg" xmlns:xlink="http://www.w3.org/1999/xlink">
    <title>vine</title>
    <g id="Page-1" stroke="none" stroke-width="1" fill="none" fill-rule="evenodd">
        <g id="408-vine" fill="#000000" fill-rule="nonzero">
            <path d="M29.024,15.906 C28.2,16.094 27.406,16.18 26.686,16.18 C22.648,16.18 19.542,13.362 19.542,8.456 C19.542,6.05 20.474,4.806 21.786,4.806 C23.036,4.806 23.868,5.924 23.868,8.2 C23.868,9.494 23.524,10.912 23.268,11.75 C23.268,11.75 24.512,13.918 27.912,13.256 C28.638,11.65 29.024,9.574 29.024,7.756 C29.024,2.856 26.524,0 21.942,0 C17.23,0 14.474,3.618 14.474,8.394 C14.474,13.126 16.686,17.182 20.33,19.032 C18.798,22.1 16.848,24.8 14.812,26.838 C11.124,22.376 7.786,16.426 6.418,4.806 L0.974,4.806 C3.492,24.156 10.986,30.318 12.974,31.5 C14.092,32.174 15.062,32.144 16.086,31.562 C17.698,30.65 22.53,25.812 25.212,20.156 C26.338,20.156 27.688,20.024 29.03,19.718 L29.03,15.906 L29.024,15.906 Z" id="Path"></path>
        </g>
    </g>
</svg>