<?xml version="1.0" encoding="UTF-8"?>
<svg width="32px" height="32px" viewBox="0 0 32 32" version="1.1" xmlns="http://www.w3.org/2000/svg" xmlns:xlink="http://www.w3.org/1999/xlink">
    <title>vk</title>
    <g id="Page-1" stroke="none" stroke-width="1" fill="none" fill-rule="evenodd">
        <g id="409-vk" fill="#000000" fill-rule="nonzero">
            <path d="M29,0 L3,0 C1.35,0 0,1.35 0,3 L0,29 C0,30.65 1.35,32 3,32 L29,32 C30.65,32 32,30.65 32,29 L32,3 C32,1.35 30.65,0 29,0 Z M25.918,22.4 L22.992,22.444 C22.992,22.444 22.36,22.57 21.536,22 C20.442,21.25 19.41,19.294 18.604,19.55 C17.792,19.806 17.816,21.562 17.816,21.562 C17.816,21.562 17.822,21.938 17.634,22.136 C17.434,22.354 17.034,22.398 17.034,22.398 L15.728,22.398 C15.728,22.398 12.84,22.574 10.296,19.922 C7.52,17.034 5.072,11.304 5.072,11.304 C5.072,11.304 4.928,10.928 5.084,10.748 C5.258,10.542 5.728,10.53 5.728,10.53 L8.86,10.512 C8.86,10.512 9.154,10.562 9.366,10.718 C9.542,10.844 9.634,11.086 9.634,11.086 C9.634,11.086 10.14,12.368 10.81,13.524 C12.116,15.78 12.728,16.274 13.172,16.036 C13.816,15.686 13.622,12.842 13.622,12.842 C13.622,12.842 13.634,11.81 13.298,11.354 C13.036,10.998 12.542,10.892 12.33,10.866 C12.154,10.84 12.442,10.434 12.818,10.248 C13.38,9.972 14.374,9.954 15.55,9.966 C16.462,9.972 16.732,10.034 17.088,10.116 C18.17,10.378 17.8,11.384 17.8,13.798 C17.8,14.574 17.662,15.66 18.218,16.016 C18.456,16.172 19.042,16.04 20.512,13.548 C21.206,12.366 21.73,10.98 21.73,10.98 C21.73,10.98 21.842,10.73 22.018,10.624 C22.2,10.518 22.444,10.55 22.444,10.55 L25.738,10.532 C25.738,10.532 26.726,10.414 26.888,10.864 C27.056,11.332 26.52,12.426 25.176,14.22 C22.97,17.164 22.72,16.888 24.558,18.588 C26.308,20.214 26.67,21.006 26.734,21.106 C27.446,22.306 25.922,22.4 25.922,22.4 L25.918,22.4 Z" id="Shape"></path>
        </g>
    </g>
</svg>