<?xml version="1.0" encoding="UTF-8"?>
<svg width="28px" height="28px" viewBox="0 0 28 28" version="1.1" xmlns="http://www.w3.org/2000/svg" xmlns:xlink="http://www.w3.org/1999/xlink">
    <title>volume_medium</title>
    <g id="Page-1" stroke="none" stroke-width="1" fill="none" fill-rule="evenodd">
        <g id="296-volume-medium" fill="#000000" fill-rule="nonzero">
            <path d="M22.486,23.986 C22.102,23.986 21.718,23.84 21.426,23.546 C20.84,22.96 20.84,22.01 21.426,21.424 C25.52,17.33 25.52,10.668 21.426,6.574 C20.84,5.988 20.84,5.038 21.426,4.452 C22.012,3.866 22.962,3.866 23.548,4.452 C26.098,7.002 27.502,10.392 27.502,13.998 C27.502,17.604 26.098,20.994 23.548,23.544 C23.256,23.836 22.872,23.984 22.488,23.984 L22.488,23.984 L22.486,23.986 Z M17.156,21.156 C16.772,21.156 16.388,21.01 16.096,20.716 C15.51,20.13 15.51,19.18 16.096,18.594 C18.63,16.06 18.63,11.936 16.096,9.402 C15.51,8.816 15.51,7.866 16.096,7.28 C16.682,6.694 17.632,6.694 18.218,7.28 C21.922,10.984 21.922,17.01 18.218,20.716 C17.926,21.008 17.542,21.156 17.158,21.156 L17.156,21.156 Z" id="Shape"></path>
            <path d="M13,28 C12.74,28 12.484,27.898 12.292,27.708 L4.584,20 L0.998,20 C0.446,20 -0.002,19.552 -0.002,19 L-0.002,9 C-0.002,8.448 0.446,8 0.998,8 L4.584,8 L12.292,0.292 C12.578,0.006 13.008,-0.08 13.382,0.076 C13.756,0.232 14,0.596 14,1 L14,27 C14,27.404 13.756,27.77 13.382,27.924 C13.258,27.976 13.128,28 13,28 Z" id="Path"></path>
        </g>
    </g>
</svg>