<?xml version="1.0" encoding="UTF-8"?>
<svg width="32px" height="32px" viewBox="0 0 32 32" version="1.1" xmlns="http://www.w3.org/2000/svg" xmlns:xlink="http://www.w3.org/1999/xlink">
    <title>warning</title>
    <g id="Page-1" stroke="none" stroke-width="1" fill="none" fill-rule="evenodd">
        <g id="264-warning" fill="#000000" fill-rule="nonzero">
            <path d="M16,2.9 L29.41,29.626 L2.592,29.626 L16.002,2.9 L16,2.9 Z M16,-3.55271368e-15 C15.31,-3.55271368e-15 14.62,0.466 14.098,1.396 L0.44,28.618 C-0.606,30.478 0.284,32 2.418,32 L29.584,32 C31.718,32 32.608,30.478 31.562,28.618 L31.562,28.618 L17.904,1.396 C17.38,0.466 16.692,-3.55271368e-15 16.002,-3.55271368e-15 L16.002,-3.55271368e-15 L16,-3.55271368e-15 Z" id="Shape"></path>
            <path d="M18,26 C18,27.104 17.104,28 16,28 C14.896,28 14,27.104 14,26 C14,24.896 14.896,24 16,24 C17.104,24 18,24.896 18,26 Z" id="Path"></path>
            <path d="M16,22 C14.896,22 14,21.104 14,20 L14,14 C14,12.896 14.896,12 16,12 C17.104,12 18,12.896 18,14 L18,20 C18,21.104 17.104,22 16,22 Z" id="Path"></path>
        </g>
    </g>
</svg>