<?xml version="1.0" encoding="UTF-8"?>
<svg width="32px" height="32px" viewBox="0 0 32 32" version="1.1" xmlns="http://www.w3.org/2000/svg" xmlns:xlink="http://www.w3.org/1999/xlink">
    <title>whatsapp</title>
    <g id="Page-1" stroke="none" stroke-width="1" fill="none" fill-rule="evenodd">
        <g id="404-whatsapp" fill="#000000" fill-rule="nonzero">
            <path d="M27.282,4.65 C24.288,1.65 20.306,0 16.064,0 C7.326,0 0.214,7.112 0.214,15.856 C0.214,18.65 0.946,21.382 2.332,23.782 L0.082,32 L8.488,29.794 C10.806,31.056 13.414,31.726 16.062,31.726 L16.068,31.726 C16.068,31.726 16.068,31.726 16.068,31.726 C24.806,31.726 31.924,24.614 31.924,15.87 C31.924,11.632 30.274,7.652 27.28,4.652 L27.282,4.65 Z M16.068,29.05 L16.068,29.05 C13.7,29.05 11.38,28.412 9.356,27.212 L8.874,26.924 L3.886,28.23 L5.218,23.368 L4.906,22.868 C3.58,20.774 2.888,18.35 2.888,15.856 C2.888,8.588 8.8,2.674 16.076,2.674 C19.594,2.674 22.908,4.05 25.394,6.536 C27.882,9.03 29.25,12.336 29.25,15.86 C29.244,23.134 23.332,29.048 16.068,29.048 L16.068,29.05 Z M23.294,19.176 C22.9,18.976 20.95,18.02 20.588,17.888 C20.226,17.756 19.962,17.688 19.694,18.088 C19.432,18.482 18.67,19.376 18.438,19.644 C18.206,19.906 17.976,19.944 17.582,19.744 C17.188,19.544 15.906,19.126 14.394,17.776 C13.218,16.726 12.42,15.426 12.188,15.032 C11.956,14.638 12.162,14.42 12.364,14.226 C12.546,14.05 12.758,13.764 12.958,13.532 C13.158,13.3 13.22,13.138 13.352,12.87 C13.484,12.608 13.42,12.376 13.32,12.176 C13.22,11.976 12.426,10.026 12.102,9.232 C11.784,8.456 11.452,8.564 11.208,8.55 C10.976,8.538 10.714,8.538 10.452,8.538 C10.19,8.538 9.758,8.638 9.396,9.032 C9.034,9.426 8.008,10.388 8.008,12.338 C8.008,14.288 9.426,16.17 9.626,16.438 C9.826,16.7 12.42,20.706 16.394,22.42 C17.338,22.826 18.076,23.07 18.65,23.258 C19.6,23.558 20.462,23.514 21.144,23.414 C21.906,23.302 23.488,22.458 23.82,21.532 C24.152,20.606 24.152,19.814 24.052,19.65 C23.958,19.474 23.696,19.376 23.296,19.174 L23.294,19.176 Z" id="Shape"></path>
        </g>
    </g>
</svg>