<?xml version="1.0" encoding="UTF-8"?>
<svg width="30px" height="18px" viewBox="0 0 30 18" version="1.1" xmlns="http://www.w3.org/2000/svg" xmlns:xlink="http://www.w3.org/1999/xlink">
    <title>wikipedia</title>
    <g id="Page-1" stroke="none" stroke-width="1" fill="none" fill-rule="evenodd">
        <g id="457-wikipedia" fill="#000000" fill-rule="nonzero">
            <path d="M29.212,0.3 C29.212,0.4 29.18,0.494 29.118,0.582 C29.056,0.664 28.986,0.708 28.906,0.708 C28.28,0.77 27.768,0.97 27.374,1.308 C26.974,1.646 26.568,2.302 26.148,3.258 L19.698,17.802 C19.654,17.94 19.536,18.002 19.342,18.002 C19.192,18.002 19.074,17.934 18.986,17.802 L15.368,10.24 L11.206,17.802 C11.118,17.94 11.006,18.002 10.85,18.002 C10.662,18.002 10.544,17.934 10.482,17.802 L4.15,3.264 C3.756,2.364 3.338,1.732 2.9,1.376 C2.462,1.02 1.85,0.794 1.068,0.714 C1,0.714 0.936,0.676 0.88,0.608 C0.818,0.54 0.792,0.458 0.792,0.364 C0.792,0.126 0.86,0.008 0.992,0.008 C1.554,0.008 2.148,0.034 2.768,0.084 C3.344,0.134 3.88,0.16 4.386,0.16 C4.898,0.16 5.512,0.134 6.212,0.084 C6.944,0.034 7.594,0.008 8.162,0.008 C8.3,0.008 8.362,0.126 8.362,0.364 C8.362,0.602 8.318,0.714 8.236,0.714 C7.674,0.758 7.224,0.902 6.898,1.146 C6.572,1.39 6.41,1.708 6.41,2.108 C6.41,2.308 6.478,2.564 6.61,2.864 L11.842,14.688 L14.816,9.076 L12.048,3.27 C11.548,2.232 11.142,1.564 10.824,1.264 C10.506,0.964 10.018,0.782 9.368,0.714 C9.306,0.714 9.256,0.676 9.2,0.608 C9.144,0.54 9.118,0.458 9.118,0.364 C9.118,0.126 9.174,0.008 9.294,0.008 C9.856,0.008 10.376,0.034 10.85,0.084 C11.306,0.134 11.788,0.16 12.306,0.16 C12.812,0.16 13.344,0.134 13.912,0.084 C14.494,0.034 15.068,0.008 15.63,0.008 C15.768,0.008 15.83,0.126 15.83,0.364 C15.83,0.602 15.792,0.714 15.704,0.714 C14.572,0.79 14.01,1.114 14.01,1.676 C14.01,1.926 14.142,2.32 14.404,2.852 L16.236,6.57 L18.06,3.17 C18.31,2.688 18.442,2.282 18.442,1.958 C18.442,1.182 17.88,0.77 16.748,0.72 C16.648,0.72 16.598,0.602 16.598,0.37 C16.598,0.282 16.622,0.208 16.672,0.132 C16.722,0.056 16.772,0.02 16.822,0.02 C17.228,0.02 17.722,0.046 18.316,0.096 C18.878,0.146 19.348,0.172 19.71,0.172 C19.972,0.172 20.354,0.146 20.86,0.11 C21.498,0.054 22.036,0.022 22.466,0.022 C22.566,0.022 22.616,0.122 22.616,0.322 C22.616,0.59 22.522,0.728 22.342,0.728 C21.686,0.796 21.154,0.978 20.754,1.272 C20.354,1.566 19.854,2.234 19.254,3.284 L16.81,7.758 L20.098,14.458 L24.954,3.164 C25.122,2.752 25.204,2.37 25.204,2.026 C25.204,1.202 24.642,0.764 23.51,0.708 C23.41,0.708 23.36,0.59 23.36,0.358 C23.36,0.12 23.434,0.002 23.586,0.002 C23.998,0.002 24.486,0.028 25.054,0.078 C25.578,0.128 26.016,0.154 26.366,0.154 C26.742,0.154 27.166,0.128 27.654,0.078 C28.16,0.028 28.616,0.002 29.022,0.002 C29.148,0.002 29.21,0.102 29.21,0.302 L29.212,0.3 Z" id="Path"></path>
        </g>
    </g>
</svg>