<?xml version="1.0" encoding="UTF-8"?>
<svg width="32px" height="30px" viewBox="0 0 32 30" version="1.1" xmlns="http://www.w3.org/2000/svg" xmlns:xlink="http://www.w3.org/1999/xlink">
    <title>windows</title>
    <g id="Page-1" stroke="none" stroke-width="1" fill="none" fill-rule="evenodd">
        <g id="450-windows" fill="#000000" fill-rule="nonzero">
            <path d="M12.882,14.998 C11.392,14.232 9.942,13.844 8.574,13.844 C8.388,13.844 8.2,13.85 8.014,13.866 C6.268,14.01 4.672,14.472 3.646,14.83 C3.374,14.93 3.094,15.036 2.808,15.152 L0.002,24.884 C1.93,24.17 3.636,23.824 5.198,23.824 C7.724,23.824 9.558,24.768 11.072,25.74 C11.79,23.306 13.51,17.424 14.024,15.668 C13.65,15.44 13.272,15.212 12.882,15.002 L12.882,14.998 Z M16.51,17.47 L13.684,27.288 C14.522,27.768 17.344,29.29 19.504,29.29 C21.248,29.29 23.2,28.844 25.468,27.922 L28.166,18.486 C26.334,19.078 24.576,19.378 22.932,19.378 C19.934,19.378 17.834,18.406 16.51,17.474 L16.51,17.47 Z M9.15,10.524 C11.56,10.548 13.342,11.468 14.82,12.414 L17.718,2.498 C17.108,2.148 15.506,1.276 14.348,0.98 C13.586,0.802 12.784,0.71 11.936,0.71 C10.318,0.74 8.548,1.146 6.534,1.954 L3.77,11.66 C5.796,10.896 7.54,10.524 9.148,10.524 C9.15,10.524 9.152,10.524 9.152,10.524 L9.15,10.524 Z M32,5.192 C30.162,5.906 28.368,6.27 26.656,6.27 C23.79,6.27 21.678,5.276 20.31,4.322 L17.436,14.266 C19.366,15.506 21.446,16.138 23.628,16.138 C25.408,16.138 27.252,15.71 29.112,14.866 L29.106,14.796 L29.222,14.768 L32.002,5.192 L32,5.192 Z" id="Shape"></path>
        </g>
    </g>
</svg>