<?xml version="1.0" encoding="UTF-8"?>
<svg width="32px" height="32px" viewBox="0 0 32 32" version="1.1" xmlns="http://www.w3.org/2000/svg" xmlns:xlink="http://www.w3.org/1999/xlink">
    <title>wink</title>
    <g id="Page-1" stroke="none" stroke-width="1" fill="none" fill-rule="evenodd">
        <g id="232-wink" fill="#000000" fill-rule="nonzero">
            <path d="M16,32 C24.836,32 32,24.836 32,16 C32,7.164 24.836,0 16,0 C7.164,0 0,7.164 0,16 C0,24.836 7.164,32 16,32 Z M16,3 C23.18,3 29,8.82 29,16 C29,23.18 23.18,29 16,29 C8.82,29 3,23.18 3,16 C3,8.82 8.82,3 16,3 Z M16.96,22.22 C21.342,21.354 24.744,19.36 25.974,16.702 C25.298,21.95 20.926,26 15.634,26 C11.908,26 8.638,23.992 6.794,20.97 C8.994,22.69 12.874,23.026 16.96,22.22 Z M20,11 C20,9.344 20.896,8 22,8 C23.104,8 24,9.344 24,11 C24,12.656 23.104,14 22,14 C20.896,14 20,12.656 20,11 Z M11,11.61 C9.694,11.61 8.584,12.1 8.172,12.782 C8.062,12.598 8,11.776 8,11.572 C8,10.602 9.344,9.814 11,9.814 C12.656,9.814 14,10.602 14,11.572 C14,11.778 13.94,12.6 13.828,12.782 C13.416,12.1 12.306,11.61 11,11.61 Z" id="Shape"></path>
        </g>
    </g>
</svg>