<?xml version="1.0" encoding="UTF-8"?>
<svg width="32px" height="32px" viewBox="0 0 32 32" version="1.1" xmlns="http://www.w3.org/2000/svg" xmlns:xlink="http://www.w3.org/1999/xlink">
    <title>wink2</title>
    <g id="Page-1" stroke="none" stroke-width="1" fill="none" fill-rule="evenodd">
        <g id="233-wink2" fill="#000000" fill-rule="nonzero">
            <path d="M16,0 C7.164,0 0,7.164 0,16 C0,24.836 7.164,32 16,32 C24.836,32 32,24.836 32,16 C32,7.164 24.836,0 16,0 Z M22,8 C23.104,8 24,9.344 24,11 C24,12.656 23.104,14 22,14 C20.896,14 20,12.656 20,11 C20,9.344 20.896,8 22,8 Z M11,9.752 C12.864,9.752 14.188,10.45 14.188,11.542 C14.188,11.774 14.308,12.886 14.182,13.092 C13.718,12.324 12.47,11.774 11,11.774 C9.53,11.774 8.282,12.324 7.818,13.092 C7.694,12.886 7.812,11.774 7.812,11.542 C7.812,10.45 9.136,9.752 11,9.752 L11,9.752 Z M15.636,26 C11.91,26 8.64,23.992 6.796,20.97 C8.996,22.69 12.876,23.026 16.962,22.22 C21.344,21.354 24.746,19.36 25.976,16.702 C25.3,21.95 20.928,26 15.636,26 Z" id="Shape"></path>
        </g>
    </g>
</svg>