<?xml version="1.0" encoding="UTF-8"?>
<svg width="18px" height="32px" viewBox="0 0 18 32" version="1.1" xmlns="http://www.w3.org/2000/svg" xmlns:xlink="http://www.w3.org/1999/xlink">
    <title>woman</title>
    <g id="Page-1" stroke="none" stroke-width="1" fill="none" fill-rule="evenodd">
        <g id="222-woman" fill="#000000" fill-rule="nonzero">
            <path d="M12,3 C12,4.656 10.656,6 9,6 C7.344,6 6,4.656 6,3 C6,1.344 7.344,0 9,0 C10.656,0 12,1.344 12,3 Z" id="Path"></path>
            <path d="M16.468,16 L18,14.89 L13.834,8.448 C13.65,8.168 13.336,7.998 13,7.998 L5,7.998 C4.664,7.998 4.35,8.166 4.166,8.448 L0,14.89 L1.532,16 L4.99,11.512 L6.192,14.316 L2.002,21.998 L5.836,21.998 L6.502,31.998 L8.502,31.998 L8.502,21.998 L9.502,21.998 L9.502,31.998 L11.502,31.998 L12.168,21.998 L16.002,21.998 L11.812,14.314 L13.014,11.51 L16.472,15.998 L16.468,16 Z" id="Path"></path>
        </g>
    </g>
</svg>