<?xml version="1.0" encoding="UTF-8"?>
<svg width="32px" height="32px" viewBox="0 0 32 32" version="1.1" xmlns="http://www.w3.org/2000/svg" xmlns:xlink="http://www.w3.org/1999/xlink">
    <title>wordpress</title>
    <g id="Page-1" stroke="none" stroke-width="1" fill="none" fill-rule="evenodd">
        <g id="437-wordpress" fill="#000000" fill-rule="nonzero">
            <path d="M4,16 C4,20.626 6.76,24.624 10.764,26.518 L5.04,11.244 C4.374,12.698 4,14.306 4,16 Z M24.1,15.41 C24.1,13.966 23.568,12.966 23.11,12.186 C22.502,11.222 21.932,10.408 21.932,9.444 C21.932,8.37 22.768,7.37 23.948,7.37 C24.002,7.37 24.052,7.376 24.104,7.38 C21.97,5.474 19.124,4.312 16,4.312 C11.808,4.312 8.12,6.408 5.974,9.58 C6.256,9.588 6.522,9.594 6.746,9.594 C8,9.594 9.944,9.446 9.944,9.446 C10.59,9.41 10.666,10.334 10.02,10.41 C10.02,10.41 9.37,10.484 8.646,10.52 L13.016,23.18 L15.642,15.51 L13.772,10.52 C13.126,10.482 12.514,10.41 12.514,10.41 C11.868,10.372 11.944,9.41 12.59,9.446 C12.59,9.446 14.572,9.594 15.75,9.594 C17.004,9.594 18.948,9.446 18.948,9.446 C19.594,9.41 19.672,10.334 19.024,10.41 C19.024,10.41 18.372,10.484 17.65,10.52 L21.986,23.084 L23.184,19.19 C23.702,17.572 24.098,16.412 24.098,15.412 L24.1,15.41 Z M16.21,17.022 L12.61,27.212 C13.686,27.52 14.822,27.688 16,27.688 C17.398,27.688 18.738,27.454 19.984,27.026 C19.952,26.976 19.922,26.922 19.898,26.864 L16.21,17.022 L16.21,17.022 Z M26.53,10.392 C26.582,10.764 26.61,11.164 26.61,11.594 C26.61,12.78 26.382,14.112 25.698,15.78 L22.032,26.1 C25.6,24.074 27.998,20.31 27.998,15.998 C27.998,13.966 27.464,12.056 26.528,10.392 L26.53,10.392 Z M16,0 C7.164,0 0,7.164 0,16 C0,24.836 7.164,32 16,32 C24.836,32 32,24.836 32,16 C32,7.164 24.836,0 16,0 Z M16,30 C8.268,30 2,23.732 2,16 C2,8.268 8.268,2 16,2 C23.732,2 30,8.268 30,16 C30,23.732 23.732,30 16,30 Z" id="Shape"></path>
        </g>
    </g>
</svg>