<?xml version="1.0" encoding="UTF-8"?>
<svg width="32px" height="32px" viewBox="0 0 32 32" version="1.1" xmlns="http://www.w3.org/2000/svg" xmlns:xlink="http://www.w3.org/1999/xlink">
    <title>wrench</title>
    <g id="Page-1" stroke="none" stroke-width="1" fill="none" fill-rule="evenodd">
        <g id="146-wrench" fill="#000000" fill-rule="nonzero">
            <path d="M31.342,25.558 L16.95,13.222 C17.62,11.962 18,10.526 18,9 C18,4.03 13.97,0 9,0 C8.09,0 7.214,0.136 6.386,0.386 L11.586,5.586 C12.364,6.364 12.364,7.636 11.586,8.414 L8.414,11.586 C7.636,12.364 6.364,12.364 5.586,11.586 L0.386,6.386 C0.136,7.214 1.11022302e-16,8.09 1.11022302e-16,9 C1.11022302e-16,13.97 4.03,18 9,18 C10.526,18 11.964,17.62 13.222,16.95 L25.558,31.342 C26.274,32.178 27.496,32.224 28.274,31.446 L31.446,28.274 C32.224,27.496 32.176,26.274 31.342,25.558 Z" id="Path"></path>
        </g>
    </g>
</svg>