<?xml version="1.0" encoding="UTF-8"?>
<svg width="28px" height="33px" viewBox="0 0 28 33" version="1.1" xmlns="http://www.w3.org/2000/svg" xmlns:xlink="http://www.w3.org/1999/xlink">
    <title>xing2</title>
    <g id="Page-1" stroke="none" stroke-width="1" fill="none" fill-rule="evenodd">
        <g id="469-xing2" fill="#000000" fill-rule="nonzero">
            <path d="M2.862,6.318 C2.586,6.318 2.35,6.418 2.23,6.606 C2.112,6.806 2.13,7.056 2.256,7.312 L5.374,12.712 C5.38,12.724 5.38,12.73 5.374,12.738 L0.474,21.4 C0.348,21.656 0.356,21.912 0.474,22.106 C0.592,22.294 0.8,22.418 1.074,22.418 L5.686,22.418 C6.374,22.418 6.712,21.95 6.942,21.524 C6.942,21.524 11.736,13.042 11.924,12.712 C11.906,12.68 8.748,7.18 8.748,7.18 C8.516,6.774 8.174,6.318 7.46,6.318 L2.86,6.318 L2.862,6.318 Z" id="Path"></path>
            <path d="M22.25,0 C21.562,0 21.262,0.432 21.012,0.882 C21.012,0.882 11.068,18.514 10.744,19.094 C10.762,19.126 17.3,31.126 17.3,31.126 C17.532,31.532 17.882,32.008 18.588,32.008 L23.2,32.008 C23.474,32.008 23.694,31.902 23.812,31.714 C23.938,31.514 23.93,31.258 23.8,31.002 L17.3,19.108 C17.294,19.096 17.294,19.09 17.3,19.076 L27.518,1.008 C27.644,0.752 27.65,0.496 27.53,0.296 C27.412,0.108 27.192,0.002 26.918,0.002 L22.25,0.002 L22.25,0 Z" id="Path"></path>
        </g>
    </g>
</svg>