<?xml version="1.0" encoding="UTF-8"?>
<svg width="32px" height="32px" viewBox="0 0 32 32" version="1.1" xmlns="http://www.w3.org/2000/svg" xmlns:xlink="http://www.w3.org/1999/xlink">
    <title>xing</title>
    <g id="Page-1" stroke="none" stroke-width="1" fill="none" fill-rule="evenodd">
        <g id="468-xing" fill="#000000" fill-rule="nonzero">
            <path d="M29,0 L3,0 C1.35,0 0,1.35 0,3 L0,29 C0,30.65 1.35,32 3,32 L29,32 C30.65,32 32,30.65 32,29 L32,3 C32,1.35 30.65,0 29,0 Z M9.768,20.812 L6.312,20.812 C6.106,20.812 5.95,20.718 5.862,20.574 C5.768,20.424 5.768,20.236 5.862,20.042 L9.538,13.554 C9.544,13.548 9.544,13.542 9.538,13.536 L7.2,9.486 C7.106,9.292 7.088,9.104 7.182,8.954 C7.27,8.81 7.444,8.736 7.656,8.736 L11.118,8.736 C11.65,8.736 11.912,9.08 12.08,9.386 C12.08,9.386 14.442,13.512 14.462,13.536 C14.324,13.786 10.724,20.142 10.724,20.142 C10.536,20.466 10.286,20.81 9.768,20.81 L9.768,20.812 Z M26.138,4.756 L18.476,18.306 C18.47,18.312 18.47,18.324 18.476,18.33 L23.358,27.242 C23.452,27.436 23.458,27.63 23.364,27.78 C23.276,27.924 23.114,27.998 22.902,27.998 L19.446,27.998 C18.914,27.998 18.652,27.648 18.478,27.342 C18.478,27.342 13.572,18.342 13.56,18.318 C13.804,17.886 21.26,4.662 21.26,4.662 C21.448,4.33 21.672,4.006 22.186,4.006 L25.692,4.006 C25.898,4.006 26.068,4.088 26.154,4.224 C26.242,4.368 26.242,4.562 26.142,4.756 L26.138,4.756 Z" id="Shape"></path>
        </g>
    </g>
</svg>