<?xml version="1.0" encoding="UTF-8"?>
<svg width="26px" height="32px" viewBox="0 0 26 32" version="1.1" xmlns="http://www.w3.org/2000/svg" xmlns:xlink="http://www.w3.org/1999/xlink">
    <title>yahoo</title>
    <g id="Page-1" stroke="none" stroke-width="1" fill="none" fill-rule="evenodd">
        <g id="444-yahoo" fill="#000000" fill-rule="nonzero">
            <path d="M14.756,18.406 L14.756,18.406 C18.274,12.23 24.088,2.156 25.682,0 C24.982,0.468 23.908,0.706 22.92,0.932 L21.426,0 C20.226,2.238 15.8,9.468 12.982,14.1 C10.126,9.368 6.744,3.906 4.538,0 C2.788,0.376 2.064,0.394 0.32,0 L0.32,0 L0.32,0 C0.32,0 0.32,0 0.32,0 L0.32,0 C3.782,5.212 9.326,15.144 11.214,18.406 L11.214,18.406 L10.958,32 L12.984,31.068 L12.984,31.044 L15.008,32 L14.758,18.406 L14.756,18.406 Z" id="Path"></path>
        </g>
    </g>
</svg>