<?xml version="1.0" encoding="UTF-8"?>
<svg width="32px" height="32px" viewBox="0 0 32 32" version="1.1" xmlns="http://www.w3.org/2000/svg" xmlns:xlink="http://www.w3.org/1999/xlink">
    <title>yahoo2</title>
    <g id="Page-1" stroke="none" stroke-width="1" fill="none" fill-rule="evenodd">
        <g id="445-yahoo2" fill="#000000" fill-rule="nonzero">
            <path d="M16.038,2.174 C10.382,2.174 5.038,1.43 0,0 C0,11.306 0,29.162 0,32 C5.044,30.568 10.388,29.824 16.038,29.824 C21.626,29.824 26.956,30.55 32,32 C32,21.112 32,11.694 32,0 C26.956,1.45 21.632,2.174 16.038,2.174 Z M24.9,4.906 L24.706,5.212 C24.524,5.5 24.362,5.744 24.138,6.088 C23.838,6.538 23.276,7.432 22.6,8.582 C22.412,8.9 22.182,9.282 21.944,9.694 C21.488,10.462 20.976,11.332 20.568,12.018 C20.4,12.312 20.23,12.612 20.056,12.912 C19.606,13.694 19.144,14.5 18.7,15.274 C18.244,16.08 17.794,16.874 17.344,17.662 L17.344,18.456 C17.344,19.556 17.368,20.756 17.406,21.824 C17.424,22.312 17.444,23.18 17.468,24.098 C17.492,25.192 17.518,26.324 17.55,26.898 L17.556,27.074 L17.556,27.092 L17.368,27.042 C17.294,27.024 17.224,27.004 17.15,26.986 C16.924,26.936 16.682,26.898 16.444,26.874 C16.3,26.862 16.15,26.856 16,26.856 C16,26.856 16,26.856 16,26.856 C16,26.856 16,26.856 16,26.856 C15.85,26.856 15.7,26.862 15.556,26.874 C15.318,26.898 15.074,26.936 14.85,26.986 C14.776,27.004 14.7,27.024 14.632,27.042 L14.444,27.092 L14.444,27.074 L14.45,26.898 C14.476,26.33 14.506,25.192 14.532,24.098 C14.55,23.18 14.576,22.31 14.594,21.824 C14.638,20.75 14.656,19.556 14.656,18.456 L14.656,17.662 C14.206,16.868 13.756,16.08 13.3,15.274 C12.856,14.492 12.394,13.692 11.95,12.912 C11.774,12.612 11.606,12.312 11.438,12.018 C11.038,11.324 10.52,10.456 10.062,9.694 C9.818,9.288 9.588,8.9 9.406,8.582 C8.73,7.432 8.168,6.544 7.868,6.088 C7.644,5.744 7.48,5.5 7.3,5.212 L7.106,4.906 L7.456,5.006 C7.9,5.132 8.356,5.194 8.844,5.194 C9.332,5.194 9.8,5.132 10.238,5.006 L10.344,4.974 L10.4,5.068 C11.262,6.624 13.582,10.436 14.968,12.718 C15.442,13.506 15.824,14.124 16.012,14.442 C16.012,14.442 16.012,14.442 16.012,14.436 C16.012,14.436 16.012,14.436 16.012,14.442 C16.2,14.13 16.58,13.504 17.056,12.718 C18.444,10.442 20.762,6.63 21.624,5.068 L21.68,4.974 L21.786,5.006 C22.224,5.132 22.692,5.194 23.18,5.194 C23.668,5.194 24.124,5.132 24.568,5.006 L24.9,4.906 Z" id="Shape"></path>
        </g>
    </g>
</svg>