<?xml version="1.0" encoding="UTF-8"?>
<svg width="26px" height="32px" viewBox="0 0 26 32" version="1.1" xmlns="http://www.w3.org/2000/svg" xmlns:xlink="http://www.w3.org/1999/xlink">
    <title>yelp</title>
    <g id="Page-1" stroke="none" stroke-width="1" fill="none" fill-rule="evenodd">
        <g id="472-yelp" fill="#000000" fill-rule="nonzero">
            <path d="M16.028,20.42 C15.488,20.964 15.944,21.956 15.944,21.956 L20.01,28.744 C20.01,28.744 20.678,29.638 21.256,29.638 C21.836,29.638 22.41,29.16 22.41,29.16 L25.624,24.566 C25.624,24.566 25.948,23.986 25.9560985,23.478 C25.968,22.756 24.88,22.558 24.88,22.558 L17.27,20.114 C17.27,20.114 16.524,19.916 16.028,20.418 L16.028,20.42 Z M15.642,17 C16.032,17.66 17.106,17.468 17.106,17.468 L24.698,15.25 C24.698,15.25 25.732,14.83 25.88,14.268 C26.024,13.706 25.71,13.03 25.71,13.03 L22.082,8.756 C22.082,8.756 21.768,8.216 21.116,8.162 C20.396,8.1 19.954,8.972 19.954,8.972 L15.664,15.722 C15.664,15.722 15.284,16.394 15.644,17.002 L15.642,17 Z M12.054,14.368 C12.948,14.148 13.09,12.85 13.09,12.85 L13.03,2.042 C13.03,2.042 12.896,0.708 12.296,0.348 C11.356,-0.222 11.078,0.076 10.808,0.116 L4.506,2.458 C4.506,2.458 3.888,2.662 3.568,3.178 C3.108,3.908 4.034,4.976 4.034,4.976 L10.586,13.906 C10.586,13.906 11.232,14.574 12.056,14.372 L12.054,14.368 Z M10.498,18.742 C10.52,17.908 9.498,17.408 9.498,17.408 L2.724,13.986 C2.724,13.986 1.72,13.572 1.232,13.86 C0.858,14.08 0.528,14.48 0.496,14.832 L0.054,20.264 C0.054,20.264 -0.012,21.206 0.232,21.634 C0.578,22.242 1.714,21.818 1.714,21.818 L9.624,20.07 C9.932,19.864 10.47,19.844 10.5,18.742 L10.498,18.742 Z M12.464,21.674 C11.786,21.326 10.972,22.048 10.972,22.048 L5.676,27.878 C5.676,27.878 5.016,28.77 5.184,29.318 C5.342,29.832 5.604,30.086 5.976,30.266 L11.294,31.944 C11.294,31.944 11.938,32.078 12.428,31.936 C13.122,31.736 12.994,30.65 12.994,30.65 L13.114,22.756 C13.114,22.756 13.086,21.996 12.466,21.674 L12.464,21.674 Z" id="Shape"></path>
        </g>
    </g>
</svg>