<?xml version="1.0" encoding="UTF-8"?>
<svg width="33px" height="24px" viewBox="0 0 33 24" version="1.1" xmlns="http://www.w3.org/2000/svg" xmlns:xlink="http://www.w3.org/1999/xlink">
    <title>youtube</title>
    <g id="Page-1" stroke="none" stroke-width="1" fill="none" fill-rule="evenodd">
        <g id="414-youtube" fill="#000000" fill-rule="nonzero">
            <path d="M31.682,5.6 C31.682,5.6 31.37,3.394 30.408,2.426 C29.19,1.152 27.826,1.144 27.202,1.07 C22.728,0.744 16.008,0.744 16.008,0.744 L15.996,0.744 C15.996,0.744 9.278,0.744 4.802,1.07 C4.176,1.146 2.814,1.152 1.596,2.426 C0.634,3.394 0.328,5.6 0.328,5.6 C0.328,5.6 0.01,8.188 0.01,10.782 L0.01,13.208 C0.01,15.796 0.328,18.39 0.328,18.39 C0.328,18.39 0.64,20.596 1.596,21.566 C2.814,22.84 4.414,22.798 5.128,22.934 C7.69,23.178 16.01,23.252 16.01,23.252 C16.01,23.252 22.736,23.24 27.21,22.92 C27.836,22.846 29.198,22.838 30.416,21.564 C31.378,20.596 31.69,18.388 31.69,18.388 C31.69,18.388 32.008,15.8 32.008,13.206 L32.008,10.78 C32.002,8.192 31.684,5.598 31.684,5.598 L31.682,5.6 Z M12.694,16.15 L12.694,7.156 L21.338,11.668 L12.694,16.15 Z" id="Shape"></path>
        </g>
    </g>
</svg>