<?xml version="1.0" encoding="UTF-8"?>
<svg width="32px" height="32px" viewBox="0 0 32 32" version="1.1" xmlns="http://www.w3.org/2000/svg" xmlns:xlink="http://www.w3.org/1999/xlink">
    <title>zoom_out</title>
    <g id="Page-1" stroke="none" stroke-width="1" fill="none" fill-rule="evenodd">
        <g id="137-zoom-out" fill="#000000" fill-rule="nonzero">
            <path d="M31.008,27.232 L23.428,20.786 C22.644,20.08 21.806,19.758 21.13,19.788 C22.92,17.692 24,14.974 24,12.002 C24,5.374 18.628,0.002 12,0.002 C5.372,0.002 -3.55271368e-15,5.374 -3.55271368e-15,12.002 C-3.55271368e-15,18.63 5.372,24.002 12,24.002 C14.972,24.002 17.69,22.922 19.786,21.132 C19.754,21.808 20.078,22.646 20.784,23.43 L27.23,31.01 C28.334,32.236 30.136,32.34 31.236,31.24 C32.336,30.14 32.232,28.336 31.006,27.234 L31.008,27.232 Z M12,20 C7.582,20 4,16.418 4,12 C4,7.582 7.582,4 12,4 C16.418,4 20,7.582 20,12 C20,16.418 16.418,20 12,20 Z M6,10 L18,10 L18,14 L6,14 L6,10 Z" id="Shape"></path>
        </g>
    </g>
</svg>