<svg width="4800" height="1200" viewBox="0 0 4800 1200" xmlns="http://www.w3.org/2000/svg"><path d="M3000 400V0a100 100 0 00-100-100h-50v-200a50 50 0 00-50-50h-100a50 50 0 00-50 50v200h-150v-400a50 50 0 00-50-50h-100a50 50 0 00-50 50v400h-150v-200a50 50 0 00-50-50h-100a50 50 0 00-50 50v200h-50A100 100 0 001800 0v400a400 400 0 00400 400h150v308a192 192 0 00193 192h157a100 100 0 01100 100v350a50 50 0 00100 0v-350a200 200 0 00-200-200h-157a92 92 0 01-93-92V800h150a400 400 0 00400-400zm-800 300a300 300 0 01-300-300V0h1000v400a300 300 0 01-300 300h-400z" fill-rule="evenodd"/></svg>