<svg width="4800" height="1200" viewBox="0 0 4800 1200" xmlns="http://www.w3.org/2000/svg"><path d="M3400 1200h-250V600h100a100 100 0 00100-100V350a100 100 0 00-100-100h-105a250 250 0 00-445-100 250 250 0 00-400 0 250 250 0 00-400 0 250 250 0 00-450 150v1050a250 250 0 00200 245v105h-50a50 50 0 000 100h200a50 50 0 100-100h-50v-105a250 250 0 00150-95 250 250 0 00400 0 250 250 0 00400 0 250 250 0 00150 96.5V1700h-50a50 50 0 000 100h200a50 50 0 100-100h-50v-105a250 250 0 00200-245v-50h250a50 50 0 100-100zm-150-850v150h-100V350h100zM1700 1500a150 150 0 01-150-150V300a150 150 0 01300 0v1050a150 150 0 01-150 150zm400 0a150 150 0 01-150-150V300a150 150 0 01300 0v1050a150 150 0 01-150 150zm400 0a150 150 0 01-150-150V300a150 150 0 01300 0v1050a150 150 0 01-150 150zm550-150a150 150 0 01-300 0V300a150 150 0 01300 0v1050z" fill-rule="evenodd"/></svg>