<svg width="4800" height="1200" viewBox="0 0 4800 1200" xmlns="http://www.w3.org/2000/svg"><path d="M3982-173a397 397 0 01-162 104 343 343 0 00137-281c4-200-158.5-350-158.5-350 45 229-113 423-123 322a141 141 0 00-75.5-122c22.5 102.5-84 200-84 300a165.5 165.5 0 0094.5 140A394 394 0 013419-172a435 435 0 01-118-300 254.5 254.5 0 0153.5-147.5c50-74 135.5-150 209.5-250a634.5 634.5 0 00128.5-286.5 1319.5 1319.5 0 01273 300A729.55 729.55 0 014100-473.5a435 435 0 01-118 300v.5zm68-739.5a1433.5 1433.5 0 00-370-378.5 50 50 0 00-80 41 477 477 0 01-56.5 228.5 1384 1384 0 01-204 258.5 744.5 744.5 0 00-96 130 326.55 326.55 0 00-43.5 159.5A535.5 535.5 0 003345.5-104a484.5 484.5 0 00709 0A535 535 0 004200-473.5 826.05 826.05 0 004050-912v-.5zM3400 1200h-250V600h100a100 100 0 00100-100V350a100 100 0 00-100-100h-105a250 250 0 00-445-100 250 250 0 00-400 0 250 250 0 00-400 0 250 250 0 00-450 150v1050a250 250 0 00200 245v105h-50a50 50 0 000 100h200a50 50 0 100-100h-50v-105a250 250 0 00150-95 250 250 0 00400 0 250 250 0 00400 0 250 250 0 00150 96.5V1700h-50a50 50 0 000 100h200a50 50 0 100-100h-50v-105a250 250 0 00200-245v-50h250a50 50 0 100-100zm-150-850v150h-100V350h100zM1700 1500a150 150 0 01-150-150V300a150 150 0 01300 0v1050a150 150 0 01-150 150zm400 0a150 150 0 01-150-150V300a150 150 0 01300 0v1050a150 150 0 01-150 150zm400 0a150 150 0 01-150-150V300a150 150 0 01300 0v1050a150 150 0 01-150 150zm550-150a150 150 0 01-300 0V300a150 150 0 01300 0v1050z" fill-rule="evenodd"/></svg>