<svg width="4800" height="1200" viewBox="0 0 4800 1200" xmlns="http://www.w3.org/2000/svg"><path d="M3400 1200h-250V600h100a100 100 0 00100-100V350a100 100 0 00-100-100h-105a250 250 0 00-445-100 250 250 0 00-400 0 250 250 0 00-400 0 250 250 0 00-450 150v1050a250 250 0 00200 245v105h-50a50 50 0 000 100h200a50 50 0 100-100h-50v-105a250 250 0 00150-95 250 250 0 00400 0 250 250 0 00400 0 250 250 0 00150 96.5V1700h-50a50 50 0 000 100h200a50 50 0 100-100h-50v-105a250 250 0 00200-245v-50h250a50 50 0 100-100zm-150-850v150h-100V350h100zM1700 1500a150 150 0 01-150-150V300a150 150 0 01300 0v1050a150 150 0 01-150 150zm400 0a150 150 0 01-150-150V300a150 150 0 01300 0v1050a150 150 0 01-150 150zm400 0a150 150 0 01-150-150V300a150 150 0 01300 0v1050a150 150 0 01-150 150zm550-150a150 150 0 01-300 0V300a150 150 0 01300 0v1050zm700-1700a350 350 0 00350-350v-250a100 100 0 00-100-100h-50v-150a50 50 0 00-100 0v150h-150v-250a50 50 0 00-100 0v250h-150v-150a50 50 0 00-100 0v150h-50a100 100 0 00-100 100v250a350 350 0 00350 350h50v150a150 150 0 00145.5 150H3850a50 50 0 0150 50v200a50 50 0 00100 0V0a150 150 0 00-150-150h-100a54.5 54.5 0 01-50-50v-150h50zm-377-173a250 250 0 01-73-177v-250h700v250a250 250 0 01-250 250h-200a250 250 0 01-177-73z" fill-rule="evenodd"/></svg>