<svg width="4800" height="1200" viewBox="0 0 4800 1200" xmlns="http://www.w3.org/2000/svg"><path d="M1700-37v137h-100v-450h100v183.5L1850-350h117l-150 185.5L1967 100h-117L1750-91l-50 54zm700-313l79.5 336 70.5-336h100l-108 450h-120.5l-79-311-79 311h-122L2033-350h100l72 336 81-336h114zm600 0h100v450h-100V-89.5h-166V100h-100v-450h100v177h166v-177zm750-350H1050a300 300 0 00-300 300v1850a300 300 0 00300 300h2700a300 300 0 00300-300V-400a300 300 0 00-300-300zM1500 1300a250 250 0 110-500 250 250 0 010 500zm600 150a250 250 0 110-500 250 250 0 010 500zm600 0a250 250 0 110-500 250 250 0 010 500zm600-150a250 250 0 110-500 250 250 0 010 500zm-903.5-990.5c-665 0-1242.5 300-1546.5 800V-400a200 200 0 01200-200h2700a200 200 0 01200 200v1511.5c-305.5-500.5-887.5-802-1553.5-802zM1625 891l35.5 35.5L1519 1068l-35.5-35.5L1625 891zm450 509h50v-200h-50v200zm467-76l35.5 35.5L2719 1218l-35.5-35.5L2542 1324zm758-300v50h192.5v-50H3300z" fill-rule="evenodd"/></svg>