<svg width="4800" height="1200" viewBox="0 0 4800 1200" xmlns="http://www.w3.org/2000/svg"><path d="M2276.5-930.05c34-.95 57 25.05 57 67.55L2333 20c3 145-78 243-198 255.5l.5 1650.5c0 76-14.5 143-83.5 183-70.5 40.5-139 18-184-36-34-41-40.5-92-40.5-144l-.45-336.75L1827 274c-81.5-8-145-42.5-178.5-120.5-13.5-32.5-22.5-70-23-105.5-1.5-303 0-606.5 0-909.5 0-41.5 20.5-67.5 52.5-68.55 34-.95 57 25.05 57 67.55l.5 675.5h89.5c-.5-222.5 0-452 0-674.5 0-41.5 20.5-67.5 52.5-68.55 34-.95 57 25.05 57 67.55l.5 675.5h89.5c-.5-222.5 0-452 0-674.5 0-41.5 20.5-67.5 52.5-68.55 34-.95 57 25.05 57 67.55l.5 676h89.5c-.5-223 0-452.5 0-675 0-41.5 20.5-67.5 52.5-68.55zm659.5.55c92.5-3.5 188 66.5 226 158.5 18.5 74 11.5 2631.5 9.5 2721.5 3.5 110-54 145.5-98.5 163-66.5 26.5-150-3.5-180.5-73-15.5-35-23-76.5-23-115l-1.15-328.95-.35-680.05h-162.5v-1555c0-43 5.5-87.5 17.5-127.5 29.5-98 114-160 213-163.5z" fill-rule="evenodd"/></svg>