<svg width="4800" height="1200" viewBox="0 0 4800 1200" xmlns="http://www.w3.org/2000/svg"><path d="M4033-581.5v-155c0-57-46-103.5-102.5-103.5h-3540C334-840 288-793.5 288-736.5v2376c0 57 46 103.5 102.5 103.5H544v206.5c0 57 46 103.5 102.5 103.5S749 2006.5 749 1949.5V1743h2815v206.5c0 57 46 103.5 102.5 103.5s102.5-46.5 102.5-103.5V1743h161.5c56.5 0 102.5-46 102.5-103.5V-375h205v-206.5h-205zm-102.5 2221h-3540v-2376h3540v2376zM1856.5-426C1375.5-426 984-34.5 984 446.5s391.5 872.5 872.5 872.5S2729 927.5 2729 446.5 2337.5-426 1856.5-426zm707 565.5c-4-.5-8.5-.5-12.5-.5-59.5.5-153.5 61.5-200.5 115.5l-1.5 2c-43.5 50-97.5 112.5-178.5 149.5-40 18.5-69.5 29-93.5 34.5-.5-11.5-1.5-22.5-3.5-33 34.5-37 122-146.5 134.5-319.5 9-127-1-257.5-25-340.5 169.5 80 305.5 220 380.5 392zM1677-298c9-5 16.5-8.5 39.5-13.5 10-2 19.5-4 29.5-5.5 36-5 73-8 110.5-8 36.5 0 72.5 2.5 107.5 7.5 52.5 9.5 96 28 113.5 71.5 22 54 39 183.5 29 326.5a435 435 0 01-80.5 224c-2-2-4-4-6.5-6-18-20-39.5-36.5-63.5-49-3.5-47-18-95-48.5-160-46.5-100.5-121-165-175-212.5l-2-1.5c-44-38-79.5-105.5-80.5-125 .5-23.5 16-42.5 27-48.5zm295 744.5c0 63.5-52 115.5-115.5 115.5S1741 510 1741 446.5 1793 331 1856.5 331 1972 383 1972 446.5zm-422.5-707c-.5 4-.5 8.5-.5 13 .5 59.5 61.5 153.5 115.5 200.5l2 1.5C1716.5-2 1779 52 1816 133c18.5 40 29 69.5 34.5 93.5-11.5.5-22.5 1.5-33 3.5-37-35-146.5-122-319.5-134.5-126.5-9-257 1-340 25 79.5-170 219.5-306 391.5-381zm-437.5 887c-4.5-8.5-8-15.5-12.5-36.5-9-46.5-13.5-94.5-13.5-143.5 0-38.5 3-76 8.5-112.5 9.5-50 28.5-91 70.5-108 54-22 183.5-39 326.5-29a435 435 0 01224 80.5c-2 2-3.5 4-5.5 6-20 18-36.5 39.5-49 63.5-48 3-95.5 18-161 48-100.5 46.5-165 121-212.5 175l-1.5 2c-38 44-105.5 79.5-125 80.5-24 .5-43.5-15-49-26zm37.5 127.5c4 .5 8 .5 12.5.5 59.5-.5 153.5-61.5 200.5-115.5l1.5-2c43.5-50 97.5-112.5 178.5-149.5 40-18.5 69.5-29 93.5-34.5.5 11.5 1.5 22.5 3.5 33-35 37-122 146.5-134.5 319.5-9 126.5 1 256.5 25 339.5a781 781 0 01-380.5-391zm886.5 437.5c-7.5 4-14 7.5-30 11a777.3 777.3 0 01-271 5c-46.5-10-83.5-29-100-68.5-22-54-39-183.5-29-326.5a435 435 0 0180.5-224c2 2 4 3.5 6 5.5 18 20 39.5 36.5 63.5 49 3.5 47 18 95 48.5 160 46.5 100.5 121 165 175 212.5l2 1.5c44 38 79.5 105.5 80.5 125 .5 24-15 43.5-26 49.5zm127.5-38c.5-4 .5-8 .5-12-.5-59.5-61.5-153.5-115.5-200.5l-2-1.5C1996.5 896 1934 842 1897 761c-18.5-40-29-69.5-34.5-93.5 11.5-.5 22.5-1.5 33-3.5 37 34.5 146.5 122 319.5 134.5 126.5 9 257-1 339.5-25-79.5 169-219 305-391 380zM2549 668c-54 22-183.5 39-326.5 29a435 435 0 01-224-80.5c2-2 4-4 6-6.5 20-18 36.5-39.5 48.5-63.5 47-3.5 95-18 160-48.5 100.5-46.5 165-121 212.5-175l1.5-2c38-44 105.5-79.5 125-80.5 24 0 43.5 15.5 49.5 26.5 5 9.5 8.5 17 13.5 41.5 8 45 12.5 91 12.5 138 0 39-3 77-8.5 114.5-10 49.5-28.5 90-70 107z" fill-rule="evenodd"/></svg>