<svg width="4800" height="1200" viewBox="0 0 4800 1200" xmlns="http://www.w3.org/2000/svg"><path d="M2250 1050h-500v500h500v-500zm-100 400h-300v-300h300v300zm1546-680L3346-430a100 100 0 00-96-70H1550a100 100 0 00-96 72L1104 772a100 100 0 0096 128h200v750a150 150 0 00150 150h1700a150 150 0 00150-150V900h200a100 100 0 0080-42 100 100 0 0016-88zm-696 930h-300v-550h300v550zm300-50a50 50 0 01-50 50h-150v-650h-500v650H1550a50 50 0 01-50-50V900h1800v750zM1200 800l350-1200h1700l350 1200H1200z" fill-rule="evenodd"/></svg>