<svg width="4800" height="1200" viewBox="0 0 4800 1200" xmlns="http://www.w3.org/2000/svg"><path d="M3200 150h-450v-350h350l100 350zM1467 600h583V250h-481.5L1467 600zm133-450h450v-350h-350l-100 350zm1150 100v350h583l-100-350h-483zm-600 350h500V250h-500v350zm0-450h500v-350h-500v350zm50 1400h-500v-500h500v500zm-100-400h-300v300h300v-300zm1580-292a100 100 0 01-80 42h-200v750a150 150 0 01-150 150H1550a150 150 0 01-150-150V900h-200a100 100 0 01-80-42 100 100 0 01-16-88l350-1200a100 100 0 0196-70h1700a100 100 0 0196 72l350 1200a100 100 0 01-16 86zm-680 292h-300v550h300v-550zm300-250H1500v750a50 50 0 0050 50h1050v-650h500v650h150a50 50 0 0050-50V900zm300-100L3250-400H1550L1200 800h2400z" fill-rule="evenodd"/></svg>