<svg width="4800" height="1200" viewBox="0 0 4800 1200" xmlns="http://www.w3.org/2000/svg"><path d="M3335.5-605.5L2100-1075v-275c0-27.5-15-50-42.5-50a50 50 0 00-50 50v237l-157.5-57.5V-1650a50 50 0 00-50-50 45 45 0 00-43.5 50v441l-221-84.5A100 100 0 001400-1200v3700a250 250 0 00250 250h1500a250 250 0 00250-250V-512.5a100 100 0 00-64.5-93zM2125 2650v-450h550v450h-550zm1175-150a150 150 0 01-150 150h-375v-550h-750v550h-375a150 150 0 01-150-150v-3700l1800 687.5V2500zM1650-350V50h400v-400h-400zm300 300h-200v-200h200v200zm250-300V50h400v-400h-400zm300 300h-200v-200h200v200zm250-300V50h400v-400h-400zm300 300h-200v-200h200v200zM1650 250v400h400V250h-400zm300 300h-200V350h200v200zm250-300v400h400V250h-400zm300 300h-200V350h200v200zm250-300v400h400V250h-400zm300 300h-200V350h200v200zM1650 850v400h400V850h-400zm300 300h-200V950h200v200zm250-300v400h400V850h-400zm300 300h-200V950h200v200zm250-300v400h400V850h-400zm300 300h-200V950h200v200zm-1400 300v400h400v-400h-400zm300 300h-200v-200h200v200zm250-300v400h400v-400h-400zm300 300h-200v-200h200v200zm250-300v400h400v-400h-400zm300 300h-200v-200h200v200z" fill-rule="evenodd"/></svg>