<svg width="4800" height="1200" viewBox="0 0 4800 1200" xmlns="http://www.w3.org/2000/svg"><path d="M3450-750H1300a50 50 0 00-50 50V50a50 50 0 0050 50h100v2150a250 250 0 00250 250h1450a250 250 0 00250-250V100h100a50 50 0 0050-50v-750a50 50 0 00-50-50zm-700 3150v-450h250v450h-250zm500-150a150 150 0 01-150 150v-550h-450v550H1650a150 150 0 01-150-150V100h1750v2150zM2000 250h-350v500h350V250zm-100 400h-150V350h150v300zm650-400h-350v500h350V250zm-100 400h-150V350h150v300zm650-400h-350v500h350V250zm-100 400h-150V350h150v300zM2000 950h-350v500h350V950zm-100 400h-150v-300h150v300zm650-400h-350v500h350V950zm-100 400h-150v-300h150v300zm650-400h-350v500h350V950zm-100 400h-150v-300h150v300z" fill-rule="evenodd"/></svg>