<svg width="4800" height="1200" viewBox="0 0 4800 1200" xmlns="http://www.w3.org/2000/svg"><path d="M2400 1600h-700v500h700v-500zm-600 100h200v300h-200v-300zm500 300h-200v-300h200v300zm1358-731.5l-558-395V500h-250v196l-392-278a100 100 0 00-115.5 0l-1200 850a100 100 0 0057.5 182h200v850a150 150 0 00150 150h1700a150 150 0 00150-150v-850h200a100 100 0 0058-181.5zM3000 2350h-300v-650h300v650zm300-50a50 50 0 01-50 50h-150v-750h-500v750H1550a50 50 0 01-50-50v-850h1800v850zm50-950H1200l1200-850 1200 850h-250z" fill-rule="evenodd"/></svg>