<svg width="4800" height="1200" viewBox="0 0 4800 1200" xmlns="http://www.w3.org/2000/svg"><path d="M1700 500h-126.5a50 50 0 000 100H1700a50 50 0 000-100zm400 850a200 200 0 00200 200h200a200 200 0 00200-200v-50h-600v50zm300-1500a50 50 0 0050-50v-126.5a50 50 0 00-100 0V-200a50 50 0 0050 50zM1935.5 85.5a50 50 0 000-70.5L1846-75a50 50 0 10-70.5 70.5L1865 85a50 50 0 0070.5.5zM2400-50c-303.75 0-550 246.25-550 550a512.5 512.5 0 0068 265.5c66 117 182 284.5 182 384.5v50h600v-50c0-100 116-267 182-384a513 513 0 0068-266c0-303.75-246.25-550-550-550zm50 818.5V1000h-100V768.5l-185-183 70.5-71 164.5 163 165-163 70.5 71-185.5 183zM3226.5 500H3100a50 50 0 000 100h126.5a50 50 0 000-100zM2954-75l-89.5 89.5A50 50 0 002935 85l89.5-89.5A50 50 0 102954-75z" fill-rule="evenodd"/></svg>