<svg width="4800" height="1200" viewBox="0 0 4800 1200" xmlns="http://www.w3.org/2000/svg"><path d="M3243.5 1550a70 70 0 01-28.5-6.5 68.5 68.5 0 01-38-80.5l183-663h-391a67.5 67.5 0 01-60-32.5 64 64 0 010-66.5l623.5-1024a67.5 67.5 0 0116.5-15.5 69 69 0 0131-11.5h9a68.5 68.5 0 0167 69v18l-123.5 663h400a67 67 0 0160.5 34c10.85 21.15 9.15 46.5-4.5 66L3300 1520a69 69 0 01-56.5 30zm-1920-804.5c-32 0-50-15-50-40H1208c0 54.5 35.5 95 115.5 95 71.5 0 119-39 119-96.5a82 82 0 00-63.5-82 76.5 76.5 0 0058.5-76c0-55.5-43.5-95.5-114-95.5s-111 42-111 94h64.5c0-23 16-39 46-39a42 42 0 0147 43.5c0 31.5-21.5 47-58 47h-32.5v54h32.5c41.5 0 63.5 20 63.5 50s-21 45.5-52 45.5zm1809 504.5H1050a100 100 0 01-100-100V250a100 100 0 01100-100h2079l-305 503a161.5 161.5 0 00145 247h259.5l-96 350zM1500 300h-350v650h350V300zm500 0h-350v650h350V300zm350 408.5L2264.5 847h85.5V708.5zM2500 300h-84a85 85 0 0118.5 53.5c0 57-47 96.5-119 96.5-80 0-115.5-40-115.5-95h64.5c0 25 18.5 40 50 40s52.5-17 52.5-45a50 50 0 00-50-50h-167v650h200v-50h-150v-50l146.5-229.5h65.5v227h38V900h-38.5v50h88.5V300zm-676.5 205.5a43.5 43.5 0 0144.5 50 130.5 130.5 0 01-46 87l-105 112V800h221v-53.5h-133.5l61-65A193.5 193.5 0 001935 555a103 103 0 00-111.5-105A100 100 0 001712 561.5h65.5c0-34 14.5-56 46-56z" fill-rule="evenodd"/></svg>