<svg width="4800" height="1200" viewBox="0 0 4800 1200" xmlns="http://www.w3.org/2000/svg"><path d="M3550 150H1050a100 100 0 00-100 100v900a100 100 0 00100 100h2500a100 100 0 00100-100V250a100 100 0 00-100-100zM1500 950h-350V300h350v650zm500 0h-350V300h350v650zm350-103h-85.5l85.5-138.5V847zm150 103h-88.5v-50h38.5v-53h-38.5V620.5h-65L2200 850v50h150v50h-200V300h169a50 50 0 0150 50c0 28-21.5 45-52.5 45s-50-15-50-40H2200c0 54.5 35.5 95 115.5 95 71.5 0 119-39 119-96.5A85 85 0 002416 300h84v650zM1376 700c0-32-22-50-63.5-50H1280v-54.5h32.5c36.5 0 58-15.5 58-47a42 42 0 00-47-43.5c-30 0-46 16-46 39h-65c0-50 33.5-93.5 111-93.5s114 39.5 114 95.5a76.5 76.5 0 01-58.5 76 82 82 0 0163.5 82c0 57-47 96.5-119 96.5-79.5 0-115.5-40-115.5-95h64.5c0 25 18.5 40 50 40s53.5-17 53.5-45.5zm400-138.5h-64A100 100 0 011823.5 450 103 103 0 011935 555a193.5 193.5 0 01-69.5 126.5l-61 65H1938V800h-221v-46l105-112a130.5 130.5 0 0046-87 43.5 43.5 0 00-44.5-50c-31.5.5-46 22.5-46 56.5h-1.5z" fill-rule="evenodd"/></svg>