<svg width="4800" height="1200" viewBox="0 0 4800 1200" xmlns="http://www.w3.org/2000/svg"><path d="M3513.5 1500a50 50 0 01-27.5-91.5 631.5 631.5 0 00100-83.5 642.5 642.5 0 00-100-83 50 50 0 0155-83.5 750 750 0 01142.5 123 65 65 0 010 87 746 746 0 01-142 123.5 50 50 0 01-28 8zm-277.5 3a50 50 0 01-27.5-8.5 750 750 0 01-142.5-123 65 65 0 010-87 746 746 0 01142-123.5 50 50 0 0155 83.5 631.5 631.5 0 00-100 83.5 642.5 642.5 0 00100 83 50 50 0 01-26.5 89l-.5 3zm514-2103a200 200 0 01200 200v1850a200 200 0 01-200 200H1050a200 200 0 01-200-200V-400a200 200 0 01200-200h2700zm0-100H1050a300 300 0 00-300 300v1850a300 300 0 00300 300h2700a300 300 0 00300-300V-400a300 300 0 00-300-300zM2250 57v455a450 450 0 01139.5 57.5L2711 250a900 900 0 00-461-193zM3467 0v-135L3382 0h85zm-936.5 710.5a450 450 0 0158 139.5h455A900 900 0 002850 389l-319.5 321.5zM1050-400v1400h2700V-400H1050zm703.5 1300h-550a944.5 944.5 0 01242-584.5L1835 705a400 400 0 00-81.5 195zM2100 553.5a400 400 0 00-195 81L1515.5 245A944.5 944.5 0 012100 2.5v551zm100 0V3.5a944.5 944.5 0 01584.5 242l-389.5 389a400 400 0 00-195-81zM2546.5 900a400 400 0 00-81-195L2855 315.5A944.5 944.5 0 013097.5 900h-551zm539-750c-93 0-135.5-50-135.5-114h87.5c0 27 19 41 50 41 36.5 0 50-23 50-60a50 50 0 00-50-55.5 74.5 74.5 0 00-50 17.5L2969-33l24.5-217H3210v71h-146l-8.5 79a122.5 122.5 0 0150-10.5 117 117 0 01124 129 129 129 0 01-144 131.5zM3595 70h-41v73.5h-87V70h-175.5V8l170-258h92.5V0h41v70z" fill-rule="evenodd"/></svg>