<svg width="4800" height="1200" viewBox="0 0 4800 1200" xmlns="http://www.w3.org/2000/svg"><path d="M2275.7 1805a260.5 260.5 0 01-80-180 247 247 0 0170-185 50 50 0 00-30-90c-50 0-100 110-105 125a367.5 367.5 0 0075 405 280.5 280.5 0 0190 210 246.5 246.5 0 01-90 175 50 50 0 0065 75 389 389 0 00125-245v-20a439.5 439.5 0 00-108.55-257.55L2275.7 1805zm255-455a50 50 0 0130 90 262.5 262.5 0 00-70 190 284.5 284.5 0 0080 175 439.5 439.5 0 01117.2 247.5l1.8 17.5v20a389 389 0 01-125 245 50 50 0 01-65-75 246.5 246.5 0 0090-175 280.5 280.5 0 00-90-210 358 358 0 01-79.65-392.1l5.65-12.9c5-10 55-120 105-120zM3400 150a150 150 0 01149.75 141.2l.25 8.8v200a150 150 0 01-141.2 149.75l-8.8.25h-162.5l-72 253a135 135 0 01-119.65 96.65l-8.85.35H1763a135 135 0 01-125.05-88.15L1635 903l-72-253h-163a150 150 0 01-149.75-141.2l-.25-8.8V300a150 150 0 01141.2-149.75l8.8-.25h2000zM1956.5 650h-290l64 225.5a34 34 0 0027.55 24.1l4.95.4h229.5l-36-250zm301 0h-200l36 250H2350V741a150 150 0 01-88.9-82l-3.6-9zm483.5 0h-200a150 150 0 01-82 87.5l-9 3.5v159h256.5l34.5-250zm392.5 0h-290l-36 250H3037a34 34 0 0030.75-19.85l1.75-4.65 64-225.5zM3400 250H1400a50 50 0 00-49.65 44.15L1350 300v200a50 50 0 0044.15 49.65l5.85.35h859a150 150 0 01278.5-8.75l3.5 8.75h859a50 50 0 0049.65-44.15l.35-5.85V300a50 50 0 00-44.15-49.65L3400 250zm0-350a400 400 0 01400 400 50 50 0 01-100 0A300 300 0 003400 0a50 50 0 010-100zm0-550c524.65 0 950 425.35 950 950a50 50 0 01-100 0c0-469.45-380.55-850-850-850a50 50 0 010-100zm0 262c379.9.55 687.9 308.1 689 688h1.5a50 50 0 01-100 0c-.85-325.4-265.1-588.55-590.5-588a50 50 0 010-100z" fill-rule="evenodd"/></svg>