<svg width="4800" height="1200" viewBox="0 0 4800 1200" xmlns="http://www.w3.org/2000/svg"><path d="M3500-100h200V0h-200v200h-100V0h-200v-100h200v-200h100v200zm200 1250v-100h-500v100h500zm350-1550v1850a300 300 0 01-300 300H1050a300 300 0 01-300-300V-400a300 300 0 01300-300h2700a300 300 0 01300 300zM1800 911.5h-330L1607 766c100-104 189-212.5 189-340 0-168.5-123.5-289.5-310-289.5-212.5 0-311 126-311 311h205.5c0-85 31.5-138.5 105.5-138.5 66 0 97.5 50 97.5 116.5 0 75.5-44 142.5-114 216.5L1194 937v141h606V911.5zM2350 150h-177l-305.5 128 50 159 225.5-87v729h207V150zm450-175a175 175 0 10-350 0 175 175 0 00350 0zm1150 596h-950v1079h750a200 200 0 00200-200V571zm0-971a200 200 0 00-200-200h-750V471h950v-871zM2625-100a75 75 0 100 150 75 75 0 000-150z" fill-rule="evenodd"/></svg>