<svg xmlns="http://www.w3.org/2000/svg" width="96" height="96" viewBox="0 0 96 96">
  <path fill="#EA1B0A" fill-rule="evenodd" d="M63,27 L63,69 L33,69 L33,27 L63,27 L63,27 Z M63,25 L33,25 C31.8954305,25 31,25.8954305 31,27 L31,69 C31,70.1045695 31.8954305,71 33,71 L63,71 C64.1045695,71 65,70.1045695 65,69 L65,27 C65,25.8954305 64.1045695,25 63,25 Z M51,32 L37,32 L37,34 L51,34 L51,32 Z M51,38 L37,38 L37,40 L51,40 L51,38 Z M51,44 L37,44 L37,46 L51,46 L51,44 Z M51,50 L37,50 L37,52 L51,52 L51,50 Z M59,56 L37,56 L37,58 L59,58 L59,56 Z M59,32 L54,32 L54,34 L59,34 L59,32 Z M59,38 L54,38 L54,40 L59,40 L59,38 Z M59,44 L54,44 L54,46 L59,46 L59,44 Z M59,50 L54,50 L54,52 L59,52 L59,50 Z M59,62 L52,62 L52,64 L59,64 L59,62 Z"/>
</svg>
