<svg xmlns="http://www.w3.org/2000/svg" width="96" height="96" viewBox="0 0 96 96">
  <path fill="#EA1B0A" fill-rule="evenodd" d="M83.74,13.16 C83.3432397,12.8202232 82.7518058,12.8430677 82.3824368,13.2124368 C82.0130677,13.5818058 81.9902232,14.1732397 82.33,14.57 L84.33,16.57 L84.33,19 C84.3316616,19.4018897 84.5737563,19.7637369 84.9446054,19.918621 C85.3154545,20.073505 85.7429942,19.9913286 86.03,19.71 L86.03,30.35 C86.03,31.0514016 85.4614016,31.62 84.76,31.62 C84.0585984,31.62 83.49,31.0514016 83.49,30.35 L83.49,21.25 C83.4847216,20.3809909 83.1337483,19.5498248 82.514582,18.9400399 C81.8954157,18.3302549 81.0589884,17.9920113 80.19,18 L80.19,15.24 C80.19,13.8592881 79.0707119,12.74 77.69,12.74 L67.94,12.74 C66.5592881,12.74 65.44,13.8592881 65.44,15.24 L65.44,32.93 C65.4306354,33.0531556 65.4306354,33.1768444 65.44,33.3 L64.84,33.3 C64.2877153,33.3 63.84,33.7477153 63.84,34.3 L63.84,36 C63.84,36.5522847 64.2877153,37 64.84,37 L80.76,37 C81.3122847,37 81.76,36.5522847 81.76,36 L81.76,34.3 C81.76,33.7477153 81.3122847,33.3 80.76,33.3 L80.16,33.3 C80.1689595,33.1768294 80.1689595,33.0531706 80.16,32.93 L80.16,20 L80.16,20 C80.8614016,20 81.43,20.5685984 81.43,21.27 L81.43,30.37 C81.43,32.1759711 82.8940289,33.64 84.7,33.64 L84.7,33.64 C85.5759221,33.6480529 86.418454,33.3043394 87.0387898,32.6858834 C87.6591256,32.0674274 88.0053946,31.2259425 88.0000621,30.35 L88.0000621,17.43 L83.74,13.16 Z M77.93,22.38 L67.71,22.38 L67.71,15.57 L77.92,15.57 L77.93,22.38 Z M61.88,60 C65.1937085,60 67.88,62.6862915 67.88,66 C67.88,69.3137085 65.1937085,72 61.88,72 C58.5662915,72 55.88,69.3137085 55.88,66 C55.88,62.6862915 58.5662915,60 61.88,60 L61.88,60 Z M32.76,60 C36.0737085,60 38.76,62.6862915 38.76,66 C38.76,69.3137085 36.0737085,72 32.76,72 C29.4462915,72 26.76,69.3137085 26.76,66 C26.76,62.6862915 29.4462915,60 32.76,60 L32.76,60 Z M72.64,56.62 C72.01,55.35 69.64,53.4 67.77,51.68 C65.9,49.96 56.77,40.97 54.34,38.68 C51.91,36.39 31.82,37.18 29.44,37.18 C27.06,37.18 29.61,38.9 28.89,40.12 C28.17,41.34 24.45,48.78 23.45,50.83 C22.45,52.88 22.51,54.55 22.51,56.83 C22.51,59.11 22.29,64.16 23.9,66.04 C24.26,66.47 24.57,66.8 24.9,67.04 C24.431044,63.7926043 25.9925122,60.5880936 28.8389992,58.9562203 C31.6854861,57.324347 35.2398181,57.5960011 37.8052469,59.6415019 C40.3706756,61.6870027 41.4270169,65.0915901 40.47,68.23 L54.3,68.32 C53.2705918,65.0245844 54.4713687,61.4405471 57.2783104,59.4304418 C60.0852522,57.4203365 63.865052,57.4376864 66.6534224,59.4734751 C69.4417929,61.5092638 70.6096171,65.1041733 69.55,68.3900993 L69.76,68.3900993 C71.65,68.3900993 73.55,68.45 73.55,65.62 C73.55,62.79 73.28,57.9 72.65,56.62 L72.64,56.62 Z M59.22,49.62 L59.22,49.62 C54.42,48.92 43.85,47.53 40.22,47.39 L34.34,47.17 L38.4,38.73 C44.57,38.73 51.35,39.08 52.7,40.37 C54.05,41.66 57.53,45.1 60.64,48.19 C61.21,48.68 60.88,49.81 59.22,49.58 L59.22,49.62 Z"/>
</svg>
