<svg xmlns="http://www.w3.org/2000/svg" width="96" height="96" viewBox="0 0 96 96">
  <path fill="#EA1B0A" fill-rule="evenodd" d="M91,82 L88,82 L88,46.72 C88,43.72 85.64,42.18 81,42.02 L81,21.56 C81,16.28 77.55,13 72,13 L51.44,13 C50,13 49,14.27 49,16 C49,17.73 50,19 51.45,19 L55,19 L55,21.5 C55,23.9852814 57.0147186,26 59.5,26 C61.9852814,26 64,23.9852814 64,21.5 L64,19 L67.63,19 C68.3900584,19.0139082 69.103917,18.6362053 69.52,18 C69.858946,17.4368173 70.0257939,16.7868058 70,16.13 C70.0074573,15.7485845 69.9603131,15.3680634 69.86,15 L72,15 C76.45,15 79,17.39 79,21.56 L79,42 C74.36,42.13 72,43.71 72,46.71 L72,82 L69,82 C68.4477153,82 68,82.4477153 68,83 C68,83.5522847 68.4477153,84 69,84 L91,84 C91.5522847,84 92,83.5522847 92,83 C92,82.4477153 91.5522847,82 91,82 Z M62,21.5 C62,22.8807119 60.8807119,24 59.5,24 C58.1192881,24 57,22.8807119 57,21.5 L57,19 L62,19 L62,21.5 Z M67.85,16.87 C67.8119291,16.9558469 67.7235632,17.0080631 67.63,17 L51.46,17 C51.15,17 51.01,16.41 51.01,16 C51.01,15.59 51.22,15 51.45,15 L67.52,15 C67.78,15 68.03,15.55 68.03,16.13 C68.0384996,16.388455 67.976261,16.6443246 67.85,16.87 L67.85,16.87 Z M86,82 L74,82 L74,46.72 C74,45.55 74.59,44 79.66,44 L80.19,44 C85.4,44 86,45.55 86,46.72 L86,82 Z M83.84,54.69 C83.9300956,54.8373169 83.9300956,55.0226831 83.84,55.17 L78.94,62.45 C78.8468079,62.5838815 78.6931019,62.662609 78.53,62.66 C78.4607579,62.6745678 78.3892421,62.6745678 78.32,62.66 C78.1849852,62.6221075 78.0726753,62.5281841 78.0114961,62.4020019 C77.9503168,62.2758197 77.9461317,62.1294722 78,62 L79.3,57.3 L76.55,57.3 C76.3754968,57.3072737 76.2108145,57.2191878 76.12,57.07 C76.0339237,56.9251564 76.0339237,56.7448436 76.12,56.6 L80.56,49.28 C80.5940967,49.2373725 80.634574,49.2002683 80.68,49.17 C80.7454124,49.1252052 80.8210931,49.0976849 80.9,49.09 L81,49.09 C81.2667064,49.0954441 81.4800556,49.3132381 81.48,49.58 L81.48,49.71 L80.61,54.41 L83.45,54.41 C83.6206915,54.4269447 83.769368,54.5336868 83.84,54.69 Z M69.93,58 L65,58 C64.7570431,58.0064857 64.5281743,58.1154708 64.37,58.3 C64.1734845,58.48663 64.0435232,58.7325026 64,59 L64,77 C64.0423899,77.8227782 63.7291477,78.6240956 63.14,79.2 C62.5299917,79.754875 61.7235019,80.042907 60.9,80 L57.08,80 L57.08,78 L61,78 C61.2751,78.0250332 61.5496496,77.9465904 61.77,77.78 C61.9368581,77.5752674 62.0159463,77.3128381 61.99,77.05 L61.99,59 C62.0293727,58.1859013 62.3887966,57.4203284 62.99,56.87 C63.5180169,56.3247803 64.2411014,56.0118034 65,56 L69.9,56 L69.93,58 Z M20.26,78 C20.26,81.3137085 17.5737085,84 14.26,84 C10.9462915,84 8.26,81.3137085 8.26,78 C8.26,74.6862915 10.9462915,72 14.26,72 C17.5737085,72 20.26,74.6862915 20.26,78 Z M49.26,63.69 C47.37,61.97 38.26,52.98 35.83,50.69 C33.4,48.4 13.31,49.19 10.93,49.19 C8.55,49.19 11.1,50.91 10.38,52.13 C9.66,53.35 6,60.74 5,62.8 C4,64.86 4,66.51 4,68.85 C4,71.19 3.78,76.18 5.39,78.06 C5.75,78.49 6.06,78.82 6.39,79.06 C5.92104404,75.8126043 7.48251225,72.6080936 10.3289992,70.9762203 C13.1754861,69.344347 16.7298181,69.6160011 19.2952469,71.6615019 C21.8606756,73.7070027 22.9170169,77.1115901 21.96,80.25 L35.78,80.34 C34.7333873,77.0374255 35.9314713,73.4364667 38.7480531,71.4192252 C41.5646349,69.4019837 45.3595905,69.4269177 48.1494225,71.480995 C50.9392545,73.5350724 52.0899183,77.1514632 51,80.4400993 L51.21,80.4400993 C53.1,80.4400993 55,80.5 55,77.67 C55,74.84 54.78,69.9 54.15,68.67 C53.52,67.44 51.17,65.4 49.28,63.69 L49.26,63.69 Z M40.71,61.59 L40.71,61.59 C35.91,60.89 25.34,59.5 21.71,59.36 L15.83,59.14 L19.89,50.7 C26.06,50.7 32.84,51.05 34.19,52.34 C35.54,53.63 39.02,57.07 42.14,60.16 C42.71,60.68 42.38,61.81 40.72,61.58 L40.71,61.59 Z M49.38,78 C49.38,81.3137085 46.6937085,84 43.38,84 C40.0662915,84 37.38,81.3137085 37.38,78 C37.38,74.6862915 40.0662915,72 43.38,72 C46.6937085,72 49.38,74.6862915 49.38,78 Z"/>
</svg>
