<svg xmlns="http://www.w3.org/2000/svg" width="96" height="96" viewBox="0 0 96 96">
  <path fill="#EA1B0A" fill-rule="evenodd" d="M32.93,43 L33.0000001,43 C35.7478934,42.967605 37.967605,40.7478934 38.0000001,38 C38.0000001,35.2385763 35.7614237,33 33.0000001,33 L33.0000001,33 C30.2385763,33 28.0000001,35.2385763 28.0000001,38 C28.0000001,40.7614237 30.2385763,43 33.0000001,43 L32.93,43 Z M32.93,34.9999473 L32.93,34.9999473 C33.747076,34.9951617 34.5307748,35.3238096 35.1,35.91 C35.6722129,36.4549556 35.9972707,37.2098122 36,38 C35.9732363,39.6456409 34.6456409,40.9732363 33,41 C32.2121745,40.9861097 31.4614411,40.6628274 30.91,40.1 C30.3238096,39.5307748 29.9951617,38.747076 29.9999473,37.93 C30.0380309,36.3005456 31.3701019,34.9995562 33,34.9999473 L32.93,34.9999473 Z M48,24 C48,20.28 48,17 48,13.27 C47.9828491,12.6575966 48.220681,12.065552 48.6567197,11.6352006 C49.0927585,11.2048493 49.6878745,10.9748106 50.3,11 L69.82,11 C70.4098662,10.9445648 70.993953,11.1535091 71.4148154,11.5705104 C71.8356778,11.9875117 72.0499964,12.5696479 72,13.16 C72,14.73 72,14.42 72,15.99 L72,17.99 L71.51,17.99 C69.91,17.99 68.32,17.99 66.72,17.99 C64.54,17.99 63.9,19.58 63.98,21.29 C64.05,22.77 63.98,24.07 63.98,25.56 L63.98,26 L62.91,26 C61.68,26 60.45,26 59.23,26 C59.01,26 58.75,26.3 58.6,26.45 C57.23,27.8 55.87,29.16 54.51,30.53 C54.2022262,30.9147962 53.6849409,31.0631648 53.22,30.9 C52.7409088,30.7202644 52.4445512,30.2386833 52.5,29.73 C52.5,28.73 52.5,27.73 52.5,26.73 C52.5,26.58 52.5,26.23 52.5,26.02 C51.5,26.02 51.06,26.02 50,26.02 C49.4583489,26.0464912 48.930971,25.8414843 48.5494205,25.4561183 C48.16787,25.0707523 47.9681207,24.5413607 48,24 Z M83,29.14 C83.0339789,29.6270519 82.8531163,30.1045811 82.5050087,30.446919 C82.1569011,30.7892568 81.676416,30.9621138 81.19,30.92 C78.89,30.92 76.58,30.92 74.27,30.92 C73.9874222,30.9126868 73.7149493,31.0253089 73.52,31.23 C72.68,32.08 71.83,32.91 70.98,33.75 C70.6954962,34.1636066 70.1652964,34.3294124 69.6958381,34.1515873 C69.2263799,33.9737622 68.9390849,33.4982993 69,33 C69,32.34 69,31.69 69,31 L67.9,31 C67.3747817,31.0752458 66.8448845,30.8979583 66.4706931,30.5217975 C66.0965017,30.1456366 65.9219982,29.6148161 66,29.09 L66,21.82 C65.9525898,21.322489 66.1304859,20.829894 66.4848399,20.4774764 C66.8391939,20.1250587 67.3327562,19.9498645 67.83,20 L81.13,20 C81.6309981,19.9411584 82.1319209,20.110552 82.4943825,20.4613838 C82.8568441,20.8122157 83.0424778,21.30735 83,21.81 C83,24.35 83,26.62 83,29.16 L83,29.14 Z M61,33 L61,33 C58.2385763,33 56,35.2385763 56,38 C56.032395,40.7478934 58.2521066,42.967605 61,43 L61.06,43 C63.8214237,43 66.06,40.7614237 66.06,38 C66.06,35.2385763 63.8214237,33 61.06,33 L61,33 Z M63.11,40.1 C62.553663,40.6676712 61.7947873,40.9913622 61,40.9999999 C59.3431458,40.9999999 58,39.6568542 58,37.9999999 C57.9923026,37.2206125 58.2986612,36.4709352 58.85,35.92 C59.4127138,35.3351299 60.1883908,35.0032123 61,34.9999999 L61,34.9999999 C62.6298981,34.9995562 63.9619691,36.3005456 64,37.93 C64.018027,38.7397701 63.7078518,39.5224215 63.14,40.1 L63.11,40.1 Z M39,67.91 L39,81 C39,82.6568542 37.6568542,84 36,84 L30,84 C28.3431458,84 27,82.6568542 27,81 L27,67.8 C27.0447026,67.1571762 26.980465,66.5114197 26.81,65.89 C26.0444784,65.9107281 25.3052154,65.6101456 24.7713642,65.0610958 C24.2375129,64.5120459 23.9577959,63.7646383 24,63 L24,49 C24,46.790861 25.790861,45 28,45 L37.18,45 C36.7263142,45.592505 36.4026114,46.2739847 36.23,47 L28,47 C26.8954305,47 26,47.8954305 26,49 L26,63 C26,63.55 26.17,63.89 27,63.89 C29,63.89 29,66.63 29,67.79 L29,81 C29,81.5522847 29.4477153,82 30,82 L36,82 C36.5522847,82 37,81.5522847 37,81 L37,65.94 C37.4898296,66.5843463 38.1325331,67.0964469 38.87,67.43 C38.8948825,67.5944349 38.9384995,67.7554825 39,67.91 Z M70,49 L70,63 C70.042384,63.7664252 69.7613355,64.5154852 69.2252572,65.0648704 C68.689179,65.6142555 67.9472339,65.9135826 67.18,65.89 C67.0127094,66.5119587 66.9518506,67.1577381 67,67.8 L67,81 C67,82.6568542 65.6568542,84 64,84 L58,84 C56.3431458,84 55,82.6568542 55,81 L55,67.38 C55.7847114,67.0137743 56.4704529,66.4651811 57,65.78 L57,81 C57,81.5522847 57.4477153,82 58,82 L64,82 C64.5522847,82 65,81.5522847 65,81 L65,67.8 C65,66.63 65,63.9 67,63.9 C67.83,63.9 68,63.56 68,63.01 L68,49 C68,47.8954305 67.1045695,47 66,47 L57.77,47 C57.5821174,46.2700182 57.2412559,45.5882952 56.77,45 L66,45 C68.209139,45 70,46.790861 70,49 Z M53,66 C52.9436149,66.4281516 52.9436149,66.8618484 53,67.29 C53,67.5 53,67.69 53,67.85 L53,80.85 C53,82.61 51.7,83.85 49.69,83.97 C49.38,83.97 48.12,83.97 46.85,83.97 C45.58,83.97 44.32,84 44,84 C43.183116,84.0006538 42.4012894,83.6681643 41.8350998,83.0793271 C41.2689102,82.4904899 40.9673244,81.6962305 41,80.88 L41,67.88 C41,67.71 41,67.52 41,67.32 C41.0583352,66.8819335 41.0583352,66.4380665 41,66 C39.3814253,66.0008994 38.0539522,64.7176755 38,63.1 L38,48.82 C38,46.34 39.38,45 41.87,45 L51.87,45 C54.44,45 56,46.41 56,48.82 L56,63.06 C55.967326,64.6933761 54.6337028,66.0003268 53,66 L53,66 Z M42,38 C42.0002697,35.2477481 44.2247699,33.0132074 46.9769926,33.0004889 C49.7292154,32.9878786 51.9741855,35.201853 51.9997837,37.9539858 C52.025382,40.7061187 49.8219822,42.9614685 47.07,43.0000108 C44.2948091,43.0056796 42.0329017,40.7750017 42,38 L42,38 Z"/>
</svg>
