<svg xmlns="http://www.w3.org/2000/svg" width="96" height="96" viewBox="0 0 96 96">
  <path fill="#EA1B0A" fill-rule="evenodd" d="M40,42 C47.7319865,42 54,48.2680135 54,56 C54,63.7319865 47.7319865,70 40,70 C32.2680135,70 26,63.7319865 26,56 C26,48.2680135 32.2680135,42 40,42 L40,42 Z M40,40 C31.163444,40 24,47.163444 24,56 C24,64.836556 31.163444,72 40,72 C48.836556,72 56,64.836556 56,56 C56,51.7565362 54.3142906,47.6868736 51.3137085,44.6862915 C48.3131264,41.6857094 44.2434638,40 40,40 L40,40 Z M70,40 L69,40 L69,37 C70.1045695,37 71,36.1045695 71,35 L71,32 C71,30.8954305 70.1045695,30 69,30 L43,30 C41.8954305,30 41,30.8954305 41,32 L41,35 C39.8954305,35 39,35.8954305 39,37 L39,38.05 C39.33,38.05 39.66,38 40,38 C40.34,38 40.67,38 41,38.05 L41,37 L67,37 L67,40 L48.21,40 C49.3021667,40.5599184 50.3342032,41.230072 51.29,42 L70,42 L70,45 L54.22,45 C54.7142287,45.6357199 55.1652418,46.3038875 55.57,47 L67,47 L67,50 L56.95,50 C57.1855801,50.6545646 57.3825847,51.3223768 57.54,52 L69,52 L69,55 L57.95,55 C57.95,55.33 58,55.66 58,56 C58,56.34 58,56.67 57.95,57 L67,57 L67,60 L57.54,60 C57.3825847,60.6776232 57.1855801,61.3454354 56.95,62 L66,62 L66,65 L55.56,65 C55.1551148,65.6960328 54.7041073,66.3641921 54.21,67 L67,67 L67,70 L51.29,70 C50.3342032,70.769928 49.3021667,71.4400816 48.21,72 L67,72 C68.1045695,72 69,71.1045695 69,70 L69,67 C69.002848,66.2826305 68.6212684,65.6186819 68,65.26 C68.0056393,65.1734251 68.0056393,65.0865749 68,65 L68,62 C68.0056393,61.9134251 68.0056393,61.8265749 68,61.74 C68.6212684,61.3813181 69.002848,60.7173695 69,60 L69,57 C70.1045695,57 71,56.1045695 71,55 L71,52 C71,50.8954305 70.1045695,50 69,50 L69,47 L70,47 C71.1045695,47 72,46.1045695 72,45 L72,42 C72,40.8954305 71.1045695,40 70,40 Z M43,35 L43,32 L69,32 L69,35 L43,35 Z"/>
</svg>
