<svg xmlns="http://www.w3.org/2000/svg" width="96" height="96" viewBox="0 0 96 96">
  <path fill="#EA1B0A" fill-rule="evenodd" d="M66,30 C66,28.8954305 65.1045695,28 64,28 L32,28 C30.8954305,28 30,28.8954305 30,30 L30,40 C30.0036575,40.3521724 30.1002468,40.6971344 30.28,41 C30.1002468,41.3028656 30.0036575,41.6478276 30,42 L30,52 C30.0036575,52.3521724 30.1002468,52.6971344 30.28,53 C30.1002468,53.3028656 30.0036575,53.6478276 30,54 L30,64 C30,65.1045695 30.8954305,66 32,66 L64,66 C65.1045695,66 66,65.1045695 66,64 L66,54 C65.9963425,53.6478276 65.8997532,53.3028656 65.72,53 C65.8997532,52.6971344 65.9963425,52.3521724 66,52 L66,42 C65.9963425,41.6478276 65.8997532,41.3028656 65.72,41 C65.8997532,40.6971344 65.9963425,40.3521724 66,40 L66,30 Z M32,30 L64,30 L64,40 L32,40 L32,30 Z M64,52 L32,52 L32,42 L64,42 L64,52 Z M64,64 L32,64 L32,54 L64,54 L64,64 Z M58,59 C58,57.8954305 58.8954305,57 60,57 C61.1045695,57 62,57.8954305 62,59 C62,60.1045695 61.1045695,61 60,61 C58.8954305,61 58,60.1045695 58,59 Z M58,47 C58,45.8954305 58.8954305,45 60,45 C61.1045695,45 62,45.8954305 62,47 C62,48.1045695 61.1045695,49 60,49 C58.8954305,49 58,48.1045695 58,47 Z M62,35 C62,36.1045695 61.1045695,37 60,37 C58.8954305,37 58,36.1045695 58,35 C58,33.8954305 58.8954305,33 60,33 C61.1045695,33 62,33.8954305 62,35 Z"/>
</svg>
