<svg xmlns="http://www.w3.org/2000/svg" width="96" height="96" viewBox="0 0 96 96">
  <path fill="#EA1B0A" fill-rule="evenodd" d="M45,35 L45.05,35 C47.8114237,35 50.05,32.7614237 50.05,30 C50.05,27.2385763 47.8114237,25 45.05,25 L45.05,25 C42.2885763,25 40.05,27.2385763 40.05,30 C40.0817186,32.7288056 42.2716509,34.9408585 45,35 Z M42.84,27.91 C43.4068137,27.326316 44.1863906,26.9978832 45,26.9999898 L45,26.9999898 C46.6298981,26.9995562 47.9619691,28.3005456 48,29.93 C48.018027,30.7397701 47.7078518,31.5224215 47.14,32.1 C46.5763541,32.6750344 45.8052086,32.9993479 45,33 C43.3431458,33 42,31.6568542 42,30 C41.9884518,29.2169414 42.2951917,28.4627222 42.85,27.91 L42.84,27.91 Z M25,44 L25.05,44 C27.8114237,44 30.05,41.7614237 30.05,39 C30.05,36.2385763 27.8114237,34 25.05,34 L25.05,34 C22.2885763,34 20.05,36.2385763 20.05,39 C20.0817186,41.7288056 22.2716509,43.9408585 25,44 L25,44 Z M22.84,36.91 C23.4068137,36.326316 24.1863906,35.9978832 25,35.9999898 L25,35.9999898 C26.6298981,35.9995562 27.9619691,37.3005456 28,38.93 C28.018027,39.7397701 27.7078518,40.5224215 27.14,41.1 C26.5763541,41.6750344 25.8052086,41.9993479 25,42 C23.3431458,42 22,40.6568542 22,39 C21.9884518,38.2169414 22.2951917,37.4627222 22.85,36.91 L22.84,36.91 Z M61,30 C61.0002697,27.2477481 63.2247699,25.0132074 65.9769926,25.0004889 C68.7292154,24.9878786 70.9741855,27.201853 70.9997837,29.9539858 C71.025382,32.7061187 68.8219822,34.9614685 66.07,35.0000108 C63.2948091,35.0056796 61.0329017,32.7750017 61,30 Z M70.48,60.87 C71.0111002,60.8892727 71.5371763,60.7612147 72,60.5 L72,72.87 C72,74.6 70.65,75.87 68.63,75.99 C68.32,75.99 67.04,75.99 65.76,75.99 C64.48,75.99 63.21,75.99 62.9,75.99 C62.0872812,76.0047467 61.3066808,75.6729719 60.7532817,75.0775907 C60.1998826,74.4822096 59.9259705,73.6794745 60,72.87 L60,59.87 C60,59.71 60,59.51 60,59.31 C60.0574509,58.875223 60.0574509,58.434777 60,58 C58.3814253,58.0008994 57.0539522,56.7176755 57,55.1 L57,40.86 C57,38.35 58.32,37 60.81,37 L70.71,37 C73.36,37 75,38.49 75,40.86 L75,51.72 C74.6294244,51.6300898 74.2509695,51.5765032 73.87,51.56 L73.63,51.56 C70.2578233,51.5655056 67.5255056,54.2978233 67.52,57.67 L67.52,57.92 C67.5415361,59.5457588 68.8542412,60.8584639 70.48,60.88 L70.48,60.87 Z M77.63,57.74 L77.63,75.07 C77.666983,75.4271315 77.4972984,75.7741367 77.192717,75.964244 C76.8881356,76.1543514 76.5018644,76.1543514 76.197283,75.964244 C75.8927016,75.7741367 75.723017,75.4271315 75.76,75.07 L75.76,57.73 C75.7965289,56.566074 74.9197292,55.5752905 73.76,55.47 L73.66,55.47 C73.1085085,55.4704148 72.579756,55.6898291 72.19,56.08 C71.7631571,56.4983469 71.5248908,57.0723522 71.53,57.67 L71.53,57.93 C71.566983,58.2871315 71.3972984,58.6341367 71.092717,58.824244 C70.7881356,59.0143514 70.4018644,59.0143514 70.097283,58.824244 C69.7927016,58.6341367 69.623017,58.2871315 69.66,57.93 L69.66,57.68 C69.6473793,56.5548016 70.0911285,55.4724866 70.89,54.68 C71.6231296,53.9427604 72.6202887,53.5287774 73.66,53.5299973 L73.82,53.5299973 C76.007043,53.7090005 77.6789624,55.55599 77.64,57.75 L77.63,57.74 Z M50,37 L40,37 C37.790861,37 36,38.790861 36,41 L36,55 C35.957616,55.7664252 36.2386645,56.5154852 36.7747428,57.0648704 C37.310821,57.6142555 38.0527661,57.9135826 38.82,57.89 C38.9871011,58.5119928 39.0479569,59.15774 39,59.8 L39,73 C39,74.6568542 40.3431458,76 42,76 L48,76 C49.6568542,76 51,74.6568542 51,73 L51,59.8 C50.9552974,59.1571762 51.019535,58.5114197 51.19,57.89 C51.9555216,57.9107281 52.6947846,57.6101456 53.2286358,57.0610958 C53.7624871,56.5120459 54.0422041,55.7646383 54,55 L54,41 C54,38.790861 52.209139,37 50,37 Z M52,55 C52,55.55 51.83,55.89 51,55.89 C49,55.89 49,58.63 49,59.79 L49,73 C49,73.5522847 48.5522847,74 48,74 L42,74 C41.4477153,74 41,73.5522847 41,73 L41,59.8 C41,58.63 41,55.9 39,55.9 C38.17,55.9 38,55.56 38,55.01 L38,41 C38,39.8954305 38.8954305,39 40,39 L50,39 C51.1045695,39 52,39.8954305 52,41 L52,55 Z M29,46 L21,46 C18.790861,46 17,47.790861 17,50 L17,59 C16.957616,59.7664252 17.2386645,60.5154852 17.7747428,61.0648704 C18.310821,61.6142555 19.0527661,61.9135826 19.82,61.89 C19.91,62.11 20.01,61.83 20.01,63 L20.01,73 C20.01,74.6568542 21.3531458,76 23.01,76 L27.01,76 C28.6668542,76 30.01,74.6568542 30.01,73 L30.01,63 C30.01,61.83 30.1,62.11 30.2,61.89 C30.963806,61.9078875 31.7003932,61.6060567 32.2320221,61.0573397 C32.7636509,60.5086228 33.0420351,59.7628582 33,59 L33,50 C33,47.790861 31.209139,46 29,46 Z M31,59 C31,59.55 30.83,59.89 30,59.89 C28,59.89 28,61.83 28,63 L28,73 C28,73.5522847 27.5522847,74 27,74 L23,74 C22.4477153,74 22,73.5522847 22,73 L22,63 C22,61.83 22,59.89 20,59.89 C19.17,59.89 19,59.55 19,59 L19,50 C19,48.8954305 19.8954305,48 21,48 L29,48 C30.1045695,48 31,48.8954305 31,50 L31,59 Z"/>
</svg>
