<svg xmlns="http://www.w3.org/2000/svg" width="96" height="96" viewBox="0 0 96 96">
  <path fill="#EA1B0A" fill-rule="evenodd" d="M60.15,32.88 C59.7532397,32.5402232 59.1618058,32.5630677 58.7924368,32.9324368 C58.4230677,33.3018058 58.4002232,33.8932397 58.74,34.29 L61.63,37.18 L61.63,40.75 C61.6316616,41.1518897 61.8737563,41.5137369 62.2446054,41.668621 C62.6154545,41.823505 63.0429942,41.7413286 63.33,41.46 L64.01,40.79 L64.01,57 C64.01,58.1045695 63.1145695,59 62.01,59 C60.9054305,59 60.01,58.1045695 60.01,57 L60.01,44 C60.0436639,42.9291685 59.6330564,41.8920761 58.8754902,41.1345098 C58.1179239,40.3769436 57.0808315,39.9663361 56.01,40 L56.01,34.5 C56.0100053,33.8352225 55.7452409,33.1978176 55.274235,32.7286881 C54.803229,32.2595586 54.1647722,31.9973409 53.5,31.99998 L38.5,31.99998 C37.8369588,31.99998 37.201074,32.2633921 36.732233,32.732233 C36.2633921,33.201074 36,33.8369588 36,34.5 L36,60 L35,60 C34.4477153,60 34,60.4477153 34,61 L34,64 C34,64.5522847 34.4477153,65 35,65 L57,65 C57.5522847,65 58,64.5522847 58,64 L58,61 C58,60.4477153 57.5522847,60 57,60 L56,60 L56,42 C56.5388532,41.9708075 57.0646995,42.1721296 57.446285,42.553715 C57.8278704,42.9353005 58.0291925,43.4611468 58,44 L58,57 C58,59.209139 59.790861,61 62,61 C64.209139,61 66,59.209139 66,57 L66,38.73 L60.15,32.88 Z M39,35 L53,35 L53,45 L39,45 L39,35 Z"/>
</svg>
