<svg xmlns="http://www.w3.org/2000/svg" width="96" height="96" viewBox="0 0 96 96">
  <path fill="#EA1B0A" fill-rule="evenodd" d="M80.66,24.37 L80.66,21.27 C80.66,20.13 79.74,19.2 78.61,19.2 L7.81,19.2 C6.68,19.2 5.76,20.13 5.76,21.27 L5.76,68.79 C5.76,69.93 6.68,70.86 7.81,70.86 L10.88,70.86 L10.88,74.99 C10.88,76.13 11.8,77.06 12.93,77.06 C14.06,77.06 14.98,76.13 14.98,74.99 L14.98,70.86 L71.28,70.86 L71.28,74.99 C71.28,76.13 72.2,77.06 73.33,77.06 C74.46,77.06 75.38,76.13 75.38,74.99 L75.38,70.86 L78.61,70.86 C79.74,70.86 80.66,69.94 80.66,68.79 L80.66,28.5 L84.76,28.5 L84.76,24.37 L80.66,24.37 Z M78.61,68.79 L7.81,68.79 L7.81,21.27 L78.61,21.27 L78.61,68.79 Z M37.13,27.48 C27.51,27.48 19.68,35.31 19.68,44.93 C19.68,54.55 27.51,62.38 37.13,62.38 C46.75,62.38 54.58,54.55 54.58,44.93 C54.58,35.31 46.75,27.48 37.13,27.48 Z M51.27,38.79 C51.19,38.78 51.1,38.78 51.02,38.78 C49.83,38.79 47.95,40.01 47.01,41.09 L46.98,41.13 C46.11,42.13 45.03,43.38 43.41,44.12 C42.61,44.49 42.02,44.7 41.54,44.81 C41.53,44.58 41.51,44.36 41.47,44.15 C42.16,43.41 43.91,41.22 44.16,37.76 C44.34,35.22 44.14,32.61 43.66,30.95 C47.05,32.55 49.77,35.35 51.27,38.79 Z M33.54,30.04 C33.72,29.94 33.87,29.87 34.33,29.77 C34.53,29.73 34.72,29.69 34.92,29.66 C35.64,29.56 36.38,29.5 37.13,29.5 C37.86,29.5 38.58,29.55 39.28,29.65 C40.33,29.84 41.2,30.21 41.55,31.08 C41.99,32.16 42.33,34.75 42.13,37.61 C41.98,39.7 41.15,41.22 40.52,42.09 C40.48,42.05 40.44,42.01 40.39,41.97 C40.03,41.57 39.6,41.24 39.12,40.99 C39.05,40.05 38.76,39.09 38.15,37.79 C37.22,35.78 35.73,34.49 34.65,33.54 L34.61,33.51 C33.73,32.75 33.02,31.4 33,31.01 C33.01,30.54 33.32,30.16 33.54,30.04 Z M39.44,44.93 C39.44,46.2 38.4,47.24 37.13,47.24 C35.86,47.24 34.82,46.2 34.82,44.93 C34.82,43.66 35.86,42.62 37.13,42.62 C38.4,42.62 39.44,43.66 39.44,44.93 Z M30.99,30.79 C30.98,30.87 30.98,30.96 30.98,31.05 C30.99,32.24 32.21,34.12 33.29,35.06 L33.33,35.09 C34.33,35.96 35.58,37.04 36.32,38.66 C36.69,39.46 36.9,40.05 37.01,40.53 C36.78,40.54 36.56,40.56 36.35,40.6 C35.61,39.9 33.42,38.16 29.96,37.91 C27.43,37.73 24.82,37.93 23.16,38.41 C24.75,35.01 27.55,32.29 30.99,30.79 Z M22.24,48.53 C22.15,48.36 22.08,48.22 21.99,47.8 C21.81,46.87 21.72,45.91 21.72,44.93 C21.72,44.16 21.78,43.41 21.89,42.68 C22.08,41.68 22.46,40.86 23.3,40.52 C24.38,40.08 26.97,39.74 29.83,39.94 C31.92,40.09 33.44,40.92 34.31,41.55 C34.27,41.59 34.24,41.63 34.2,41.67 C33.8,42.03 33.47,42.46 33.22,42.94 C32.26,43 31.31,43.3 30,43.9 C27.99,44.83 26.7,46.32 25.75,47.4 L25.72,47.44 C24.96,48.32 23.61,49.03 23.22,49.05 C22.74,49.06 22.35,48.75 22.24,48.53 Z M22.99,51.08 C23.07,51.09 23.15,51.09 23.24,51.09 C24.43,51.08 26.31,49.86 27.25,48.78 L27.28,48.74 C28.15,47.74 29.23,46.49 30.85,45.75 C31.65,45.38 32.24,45.17 32.72,45.06 C32.73,45.29 32.75,45.51 32.79,45.72 C32.09,46.46 30.35,48.65 30.1,52.11 C29.92,54.64 30.12,57.24 30.6,58.9 C27.21,57.3 24.5,54.51 22.99,51.08 Z M40.72,59.83 C40.57,59.91 40.44,59.98 40.12,60.05 C39.15,60.24 38.15,60.34 37.13,60.34 C36.3,60.34 35.49,60.27 34.7,60.15 C33.77,59.95 33.03,59.57 32.7,58.78 C32.26,57.7 31.92,55.11 32.12,52.25 C32.27,50.16 33.1,48.64 33.73,47.77 C33.77,47.81 33.81,47.84 33.85,47.88 C34.21,48.28 34.64,48.61 35.12,48.86 C35.19,49.8 35.48,50.76 36.09,52.06 C37.02,54.07 38.51,55.36 39.59,56.31 L39.63,56.34 C40.51,57.1 41.22,58.45 41.24,58.84 C41.25,59.32 40.94,59.71 40.72,59.83 Z M43.27,59.07 C43.28,58.99 43.28,58.91 43.28,58.83 C43.27,57.64 42.05,55.76 40.97,54.82 L40.93,54.79 C39.93,53.92 38.68,52.84 37.94,51.22 C37.57,50.42 37.36,49.83 37.25,49.35 C37.48,49.34 37.7,49.32 37.91,49.28 C38.65,49.97 40.84,51.72 44.3,51.97 C46.83,52.15 49.44,51.95 51.09,51.47 C49.5,54.85 46.71,57.57 43.27,59.07 Z M50.98,49.36 C49.9,49.8 47.31,50.14 44.45,49.94 C42.36,49.79 40.84,48.96 39.97,48.33 C40.01,48.29 40.05,48.25 40.09,48.2 C40.49,47.84 40.82,47.41 41.06,46.93 C42,46.86 42.96,46.57 44.26,45.96 C46.27,45.03 47.56,43.54 48.51,42.46 L48.54,42.42 C49.3,41.54 50.65,40.83 51.04,40.81 C51.52,40.81 51.91,41.12 52.03,41.34 C52.13,41.53 52.2,41.68 52.3,42.17 C52.46,43.07 52.55,43.99 52.55,44.93 C52.55,45.71 52.49,46.47 52.38,47.22 C52.18,48.21 51.81,49.02 50.98,49.36 Z"/>
</svg>
