<svg xmlns="http://www.w3.org/2000/svg" width="96" height="96" viewBox="0 0 96 96">
  <path fill="#EA1B0A" fill-rule="evenodd" d="M73.92,50.19 L66.92,26.31 C66.655884,25.4848939 65.8646,24.9450074 65,25 L31,25 C30.132642,24.9462673 29.3404229,25.4909179 29.08,26.32 L22.08,50.26 C21.9049713,50.8935077 22.0223479,51.5720911 22.4,52.11 C22.7691272,52.6357804 23.3586102,52.9636804 24,53 L27.83,53 L27.83,67.75 C27.8889624,69.4893485 29.2626608,70.8977144 31,71 L65,71 C66.6677652,70.8617403 67.9223742,69.4209349 67.83,67.75 L67.83,53 L72,53 C72.6454016,52.9523223 73.234123,52.6138075 73.6,52.08 C73.980483,51.5281462 74.0976131,50.8363463 73.92,50.19 L73.92,50.19 Z M71.92,51 L65.83,51 L65.83,67.75 C65.83,68.39 65.42,69 65,69 L31,69 C30.3692136,68.9014714 29.8866541,68.3859164 29.83,67.75 L29.83,51 L24.09,51 L24,50.93 C23.9919184,50.8904082 23.9919184,50.8495918 24,50.81 L31,27 L65,27 L72,50.74 C72,50.74 72,50.87 72,50.87 C71.9657441,50.9183031 71.9254127,50.9619955 71.88,51 L71.92,51 Z M47,37.51 L47,35.51 C47,34.9577153 47.4477153,34.51 48,34.51 L48,34.51 C48.5522847,34.51 49,34.9577153 49,35.51 L49,37.51 C49,38.0622847 48.5522847,38.51 48,38.51 L48,38.51 C47.4477153,38.51 47,38.0622847 47,37.51 Z M60,45.5099999 C60,46.0622847 59.5522847,46.5099999 59,46.5099999 L57,46.5099999 C56.4477153,46.5099999 56,46.0622847 56,45.5099999 C56,44.9577153 56.4477153,44.5099999 57,44.5099999 L59,44.5099999 C59.540778,44.5097566 59.9837767,44.9394653 60,45.48 L60,45.5099999 Z M53.36,40.16 C53.1706873,39.9722334 53.0642017,39.7166375 53.0642017,39.45 C53.0642017,39.1833625 53.1706873,38.9277666 53.36,38.74 L54.78,37.33 C55.1721222,36.9406393 55.8056392,36.9428779 56.195,37.335 C56.5843607,37.7271222 56.5821221,38.3606392 56.19,38.75 L54.77,40.16 C54.3799625,40.5477236 53.7500375,40.5477236 53.36,40.16 L53.36,40.16 Z M40,38.72 C39.7481277,38.4663414 39.6507134,38.097579 39.7444521,37.7526219 C39.8381907,37.4076649 40.1088412,37.1389204 40.4544521,37.0476219 C40.800063,36.9563235 41.1681278,37.0563414 41.42,37.31 L42.83,38.73 C43.2193607,39.1221222 43.2171221,39.7556392 42.825,40.145 C42.4328778,40.5343607 41.7993608,40.5321221 41.41,40.14 L40,38.72 Z M55,51.51 L54,51.51 L54,46.84 C54,43.5262915 51.3137085,40.84 48,40.84 C44.6862915,40.84 42,43.5262915 42,46.84 L42,51.51 L41,51.51 C40.4477153,51.51 40,51.9577153 40,52.51 C40,53.0622847 40.4477153,53.51 41,53.51 L44,53.51 L44,60.51 C44,61.0622847 44.4477153,61.51 45,61.51 C45.5522847,61.51 46,61.0622847 46,60.51 L46,53.51 L50,53.51 L50,58.51 C50,59.0622847 50.4477153,59.51 51,59.51 C51.5522847,59.51 52,59.0622847 52,58.51 L52,53.51 L55,53.51 C55.5522847,53.51 56,53.0622847 56,52.51 C56,51.9577153 55.5522847,51.51 55,51.51 L55,51.51 Z M52,51.51 L44,51.51 L44,46.84 C44,44.630861 45.790861,42.84 48,42.84 C50.209139,42.84 52,44.630861 52,46.84 L52,51.51 Z M40,45.51 C40,46.0622847 39.5522847,46.51 39,46.51 L37,46.51 C36.4477153,46.51 36,46.0622847 36,45.51 C36,44.9577153 36.4477153,44.51 37,44.51 L39,44.51 C39.5522847,44.51 40,44.9577153 40,45.51 Z"/>
</svg>
