<svg xmlns="http://www.w3.org/2000/svg" width="96" height="96" viewBox="0 0 96 96">
  <path fill="#EA1B0A" fill-rule="evenodd" d="M66.65,51.08 C62.75,40.83 56.4,37.43 56.12,37.29 C55.8016411,37.124434 55.4189774,37.1421376 55.1172652,37.3363907 C54.815553,37.5306437 54.6410515,37.8716629 54.66,38.23 L54.66,39.01 L51,39.01 C50.4477153,39.01 50,39.4577153 50,40.01 C50,40.5622847 50.4477153,41.01 51,41.01 L54.84,41.01 L55,44.08 C54.9886853,44.1662974 54.9886853,44.2537026 55,44.34 C55.8253409,46.9302573 56.2864243,49.6227154 56.37,52.34 C56.37,56 51.06,60.65 49.98,60.81 L44.48,60.81 C42.99,58.81 43.84,54.9 44.48,52.95 L45,52.95 C46.1045695,52.95 47,52.0545695 47,50.95 L47,48.92 C47.0035188,47.3382086 45.7782765,46.0254491 44.2,45.92 L32.2,45.11 L32,45.11 C30.3431458,45.11 29,46.4531458 29,48.11 L29,51 C29.0041842,51.1866352 29.0344782,51.3717655 29.09,51.55 C21.93,58.82 23.09,63.39 23.09,63.55 C23.2145106,63.9952375 23.6279962,64.297082 24.09,64.28 L38.83,64.28 L41.68,67.13 C42.2437029,67.6891042 43.0060512,68.0019547 43.8,68.0001179 L55.28,68.0001179 C55.9439371,68.0058845 56.5910687,67.7913463 57.12,67.39 L70.79,56.81 C71.035247,56.6212074 71.1792561,56.3294966 71.18,56.02 C71.18,52.91 68.49,51.5 66.65,51.08 Z M30.9999738,51 L30.9999738,48 C30.9980331,47.7436014 31.1067428,47.4988113 31.2982775,47.3283455 C31.4898121,47.1578796 31.7455607,47.0783018 32,47.11 L32,47.11 L44,47.92 C44.5627658,47.9666167 44.9967468,48.4353161 45,49 L45,51 L30.9999738,51 Z M39,68.32 C37.6227379,70.6154244 35.136868,72.0142013 32.46,72 C29.1748387,72.0491334 26.2030772,70.0573361 25,67 L37.62,67 L39,68.32 Z M72.3400791,64.27 C72.3545515,67.4961113 70.3589581,70.3901719 67.3384086,71.5234356 C64.3178592,72.6566994 60.911105,71.7895166 58.8,69.35 L71,59.92 C71.8788391,61.1998952 72.3463119,62.7174376 72.3400791,64.27 L72.3400791,64.27 Z M75,29 C78.8659932,29 82,25.8659932 82,22 L82,17 C82,15.8954305 81.1045695,15 80,15 L79,15 L79,12 C79,11.4477153 78.5522847,11 78,11 C77.4477153,11 77,11.4477153 77,12 L77,15 L74,15 L74,10 C74,9.44771525 73.5522847,9 73,9 C72.4477153,9 72,9.44771525 72,10 L72,15 L69,15 L69,12 C69,11.4477153 68.5522847,11 68,11 C67.4477153,11 67,11.4477153 67,12 L67,15 L66,15 C64.8954305,15 64,15.8954305 64,17 L64,22 C64,25.8659932 67.1340068,29 71,29 L72,29 L72,32 C71.9992698,33.6223341 73.288396,34.9513301 74.91,35 L77,35 C77.5522847,35 78,35.4477153 78,36 L78,40 C78,40.5522847 78.4477153,41 79,41 C79.5522847,41 80,40.5522847 80,40 L80,36 C80,34.3431458 78.6568542,33 77,33 L75,33 C74.4663158,32.9574855 74.0425145,32.5336842 74,32 L74,29 L75,29 Z M67.46,25.54 C66.5228605,24.6004927 65.99763,23.3269886 65.999992,22 L65.999992,17 L79.999992,17 L79.999992,22 C79.999992,24.7614237 77.7614237,27 74.999992,27 L70.999992,27 C69.6730114,27.00237 68.3995073,26.4771395 67.46,25.54 L67.46,25.54 Z"/>
</svg>
