<svg xmlns="http://www.w3.org/2000/svg" width="96" height="96" viewBox="0 0 96 96">
  <path fill="#EA1B0A" fill-rule="evenodd" d="M78.48,24.42 L76.74,23.42 C76.4438976,22.4368019 75.8584595,21.5656141 75.06,20.92 L75.06,17.81 C75.06,12.47 74,5.07 71.85,5.07 C69.7,5.07 68.64,12.47 68.64,17.81 L68.64,20.93 C67.8448386,21.5702864 67.2596925,22.4340734 66.96,23.41 L65.19,24.41 C60.57,27.08 54.69,31.7 55.76,33.56 C56.1279671,34.0232156 56.7146445,34.2556008 57.3,34.17 C59.86,34.17 64.82,32.04 68.4,29.98 L69.4,29.4 L69.68,29.53 C69.6136204,29.6503707 69.5727701,29.7831341 69.56,29.92 L67.63,56.92 C67.6105529,57.1971218 67.7072604,57.4698443 67.8969458,57.6728077 C68.0866312,57.875771 68.3521975,57.9906815 68.63,57.990003 L75.06,57.990003 C75.3378025,57.9906815 75.6033688,57.875771 75.7930542,57.6728077 C75.9827396,57.4698443 76.0794471,57.1971218 76.06,56.92 L74.14,29.92 C74.1272299,29.7831341 74.0863796,29.6503707 74.02,29.53 L74.28,29.41 L75.28,29.99 C78.85,32.05 83.81,34.18 86.38,34.18 C86.9653555,34.2656008 87.5520329,34.0332156 87.92,33.57 C89,31.72 83.1,27.1 78.48,24.42 Z M67.39,28.26 C64.5816854,29.939774 61.5523843,31.2188122 58.39,32.06 C60.6998343,29.7365734 63.3256699,27.7503644 66.19,26.16 L66.8,25.81 C66.9472837,26.6235147 67.2905101,27.3889097 67.8,28.04 L67.39,28.26 Z M70.63,17.81 C70.5738707,14.5324921 70.9812323,11.2634991 71.84,8.1 C72.6986361,11.263525 73.1059954,14.5324993 73.05,17.81 L73.05,19.93 C72.2540665,19.7165158 71.4159335,19.7165158 70.62,19.93 L70.63,17.81 Z M71.84,28 C70.5673269,27.9917327 69.4255163,27.216063 68.9488974,26.0359784 C68.4722784,24.8558938 68.75513,23.5048239 69.665087,22.6150242 C70.575044,21.7252245 71.93211,21.4727041 73.1012237,21.975634 C74.2703373,22.478564 75.0202391,23.6374609 75,24.91 C74.9726056,26.6324319 73.5626134,28.0111901 71.84,28 Z M76.26,28.21 L75.89,28 C76.3980227,27.3517971 76.7411732,26.5900029 76.89,25.78 L77.48,26.12 C80.340952,27.7109284 82.9634085,29.6971279 85.27,32.02 C82.1061307,31.1926394 79.0734511,29.9270595 76.26,28.26 L76.26,28.21 Z M47.48,34.42 L45.74,33.42 C45.4438976,32.4368019 44.8584595,31.5656141 44.06,30.92 L44.06,27.81 C44.06,22.47 43,15.07 40.85,15.07 C38.7,15.07 37.64,22.47 37.64,27.81 L37.64,30.93 C36.8448386,31.5702864 36.2596925,32.4340734 35.96,33.41 L34.19,34.41 C29.57,37.08 23.69,41.7 24.76,43.56 C25.1279671,44.0232156 25.7146445,44.2556008 26.3,44.17 C28.86,44.17 33.82,42.04 37.4,39.98 L38.4,39.4 L38.67,39.54 C38.6083945,39.6580778 38.5709961,39.7872721 38.56,39.92 L37.84,50 L43.84,50 L43.12,39.93 C43.1090039,39.7972721 43.0716055,39.6680778 43.01,39.55 L43.26,39.42 L44.26,40 C47.83,42.06 52.79,44.19 55.36,44.19 C55.9453555,44.2756008 56.5320329,44.0432156 56.9,43.58 C58,41.72 52.1,37.1 47.48,34.42 Z M36.39,38.26 C33.5816854,39.939774 30.5523843,41.2188122 27.39,42.06 C29.6998343,39.7365734 32.3256699,37.7503644 35.19,36.16 L35.8,35.81 C35.9472837,36.6235147 36.2905101,37.3889097 36.8,38.04 L36.39,38.26 Z M39.63,27.81 C39.5738707,24.5324921 39.9812323,21.2634991 40.84,18.1 C41.6986361,21.263525 42.1059954,24.5324993 42.05,27.81 L42.05,29.93 C41.2540665,29.7165158 40.4159335,29.7165158 39.62,29.93 L39.63,27.81 Z M40.84,38 C39.5673269,37.9917327 38.4255163,37.216063 37.9488974,36.0359784 C37.4722784,34.8558938 37.75513,33.5048239 38.665087,32.6150242 C39.575044,31.7252245 40.93211,31.4727041 42.1012237,31.975634 C43.2703373,32.478564 44.0202391,33.6374609 44,34.91 C43.9726056,36.6324319 42.5626134,38.0111901 40.84,38 L40.84,38 Z M45.26,38.21 L44.89,38 C45.3980227,37.3517971 45.7411732,36.5900029 45.89,35.78 L46.48,36.12 C49.340952,37.7109284 51.9634085,39.6971279 54.27,42.02 C51.1061307,41.1926394 48.0734511,39.9270595 45.26,38.26 L45.26,38.21 Z M55,89 C55,89.5522847 54.5522847,90 54,90 L12,90 C11.4477153,90 11,89.5522847 11,89 C11,88.4477153 11.4477153,88 12,88 L54,88 C54.5522847,88 55,88.4477153 55,89 Z M13,86 L53,86 C54.1045695,86 55,85.1045695 55,84 L55,54 C55,52.8954305 54.1045695,52 53,52 L13,52 C11.8954305,52 11,52.8954305 11,54 L11,84 C11,85.1045695 11.8954305,86 13,86 Z M13,54 L53,54 L53,84 L13,84 L13,54 Z M15,82 L17,82 L17,67.67 L22.33,72.67 L28,70.15 L33.48,73.87 L38.96,65.81 L44.44,72.63 L49,70.77 L49,82 L51,82 L51,56 L15,56 L15,82 Z M45.86,60.87 L48.11,57.42 L48.11,57.42 L48.11,57.42 L48.18,57.42 L48.18,57.42 C48.2628427,57.42 48.33,57.4871573 48.33,57.57 L48.33,57.57 L48,59.9 L49.62,59.9 C49.6768158,59.9 49.7287553,59.9321004 49.7541641,59.982918 C49.7795729,60.0337356 49.7740895,60.0945474 49.74,60.14 L47.19,63.74 C47.1616718,63.7777709 47.1172136,63.8 47.07,63.8 L47,63.8 C46.9321547,63.7683673 46.8980166,63.6915565 46.92,63.62 L47.62,61.11 L46,61.11 C45.9453236,61.1090238 45.895511,61.0783699 45.87,61.03 C45.8360561,60.9830701 45.8321637,60.9207912 45.86,60.87 Z M33,58 L38,58 L38,60 L33,60 L33,58 Z M28,58 L31.36,58 L31.36,60 L28,60 L28,58 Z M17,58 L26.24,58 L26.24,60 L17,60 L17,58 Z M71,60 L73,60 L73,66 C73,68.209139 71.209139,70 69,70 L57,70 L57,68 L69,68 C70.1045695,68 71,67.1045695 71,66 L71,60 Z"/>
</svg>
