<svg xmlns="http://www.w3.org/2000/svg" width="96" height="96" viewBox="0 0 96 96">
  <path fill="#EA1B0A" fill-rule="evenodd" d="M74,69 C74,69.5522847 73.5522847,70 73,70 L23,70 C22.4477153,70 22,69.5522847 22,69 C22,68.4477153 22.4477153,68 23,68 L73,68 C73.5522847,68 74,68.4477153 74,69 Z M74,28 L74,63 C74,64.1045695 73.1045695,65 72,65 L24,65 C22.8954305,65 22,64.1045695 22,63 L22,28 C22,26.8954305 22.8954305,26 24,26 L72,26 C73.1045695,26 74,26.8954305 74,28 Z M72,28 L24,28 L24,63 L72,63 L72,28 Z M33.86,45.38 L33.52,45.38 C33.5203442,45.8709084 33.2240504,46.3133738 32.77,46.5 L32.9,46.82 C33.4813292,46.5777795 33.86,46.0097733 33.86,45.38 L33.86,45.38 Z M70,61 L26,61 L26,30 L70,30 L70,61 Z M38,48 L50,48 L50,42 L38,42 L38,48 Z M30.1,36 C30.1261636,36.0538207 30.1801746,36.0885421 30.24,36.09 L32,36.09 L31.25,38.8 C31.2283423,38.876922 31.2667614,38.958029 31.34,38.99 L31.41,38.99 C31.4621526,38.9892506 31.5106665,38.9631278 31.54,38.92 L34.26,35 C34.299076,34.9512609 34.3062124,34.8842368 34.2782752,34.8283624 C34.2503381,34.772488 34.1924369,34.7379827 34.13,34.74 L32.38,34.74 L32.83,32.19 L32.83,32.19 C32.83,32.1016344 32.7583656,32.03 32.67,32.03 L32.67,32.03 L32.59,32.03 L32.59,32.03 L32.59,32.03 L30.16,35.75 C30.1133599,35.7698407 30.0788788,35.8106068 30.0670504,35.8598921 C30.0552219,35.9091774 30.067445,35.9611525 30.1,36 Z M30.1,45.45 C30.1,46.5821837 31.0178163,47.5 32.15,47.5 C33.2821837,47.5 34.2,46.5821837 34.2,45.45 C34.2,44.54 32.88,42.45 32.36,41.63 C32.3139491,41.5587068 32.2348729,41.5156466 32.15,41.5156466 C32.0651271,41.5156466 31.9860509,41.5587068 31.94,41.63 C31.41,42.42 30.09,44.52 30.09,45.43 L30.1,45.45 Z M34.43,54.17 C34.4019293,53.4515244 34.1656846,52.7566869 33.75,52.17 C33.3070793,51.5051308 32.7441366,50.9286232 32.09,50.47 C32.0475683,50.4574988 32.0024317,50.4574988 31.96,50.47 L31.86,50.47 C31.786657,50.5099372 31.7407243,50.5864916 31.74,50.67 C31.7393891,51.0187238 31.6535662,51.362015 31.49,51.67 C31.2308462,52.0920809 30.9219708,52.4815326 30.57,52.83 C30.4063693,53.007426 30.2622138,53.2018684 30.14,53.41 C30.0171577,53.6265922 29.9517519,53.8710033 29.95,54.12 C29.9454998,54.7362649 30.1782389,55.3306446 30.6,55.78 C31.0125587,56.2188703 31.5876634,56.468444 32.19,56.47 L32.19,56.47 C32.7923366,56.468444 33.3674413,56.2188703 33.78,55.78 C34.1946563,55.3381971 34.4268591,54.7559041 34.43,54.15 L34.43,54.17 Z M59,51 L38,51 L38,57 L59,57 L59,51 Z M66,33 L38,33 L38,39 L66,39 L66,33 Z M32,50.85 C31.9785845,51.1994088 31.8831421,51.5402746 31.72,51.85 C31.5034996,52.2150897 31.2413916,52.5511255 30.94,52.85 L30.76,53.05 C30.6115648,53.2123299 30.4808285,53.3899972 30.37,53.58 C30.2721518,53.750446 30.2204502,53.9434652 30.22,54.14 C30.2138198,54.6742855 30.4144785,55.1902652 30.78,55.58 C30.9798852,55.7932502 31.2262747,55.9575099 31.5,56.06 C31.3468195,55.9298668 31.255973,55.740906 31.25,55.54 C31.25,55.07 31.75,54.61 31.65,54.12 C31.866878,54.2331228 32.0048718,54.4554462 32.01,54.7 C32.01,55.18 32.81,54.26 32.59,53.17 C33.0421549,53.6118179 33.310139,54.2085292 33.34,54.84 C33.3477311,55.2688217 33.1901815,55.6841797 32.9,56 C33.1422407,55.8960222 33.360194,55.7427738 33.54,55.55 C33.9091672,55.1618352 34.1134819,54.6456718 34.11,54.11 C34.0741381,53.4656346 33.8556263,52.8447836 33.48,52.32 C33.073972,51.7492993 32.5734403,51.2521496 32,50.85 L32,50.85 Z"/>
</svg>
