<svg xmlns="http://www.w3.org/2000/svg" width="96" height="96" viewBox="0 0 96 96">
  <path fill="#EA1B0A" fill-rule="evenodd" d="M43,44 L53,44 L53,50 L43,50 L43,44 Z M41,35 L35,35 L32.87,42 L41,42 L41,35 Z M30.4,50 L41,50 L41,44 L32.22,44 L30.4,50 Z M43,35 L43,42 L53,42 L53,35 L43,35 Z M55,42 L63.17,42 L63,41.45 L62.86,41 L62.56,40 L62.26,39 L61,35 L55,35 L55,42 Z M65.6,50 L63.77,44 L55,44 L55,50 L65.6,50 Z M72.6,55.19 C72.2243906,55.6973822 71.6312794,55.9976448 71,56 L56,56 L56,62 L58.06,62 C59.1314324,62 60,62.8685676 60,63.94 L60,64.06 C60,65.1314324 59.1314324,66 58.06,66 L37.94,66 C36.8685676,66 36,65.1314324 36,64.06 L36,63.94 C36,63.42548 36.2043923,62.9320334 36.5682128,62.5682128 C36.9320334,62.2043923 37.42548,62 37.94,62 L40,62 L40,56 L25,56 C24.3675268,55.9987186 23.7729315,55.6983463 23.3966066,55.1900122 C23.0202817,54.681678 22.9065811,54.0252946 23.09,53.42 L24.74,48 L26.26,43 C26.26,43 29.86,30.7 30,30.7 L30.09,30.41 C30.3486959,29.5720904 31.1230645,29.0004361 32,29 L64,29 C64.8796686,29.0017833 65.6548974,29.5781314 65.91,30.42 L67.31,35 L69.14,41 L71.88,50 L72.88,53.42 C73.0738681,54.0195891 72.9738167,54.6754815 72.61,55.19 L72.6,55.19 Z M71,54 L65.22,35 L64,31 L32,31 L25,54 L71,54 Z"/>
</svg>
