<svg xmlns="http://www.w3.org/2000/svg" width="96" height="96" viewBox="0 0 96 96">
  <path fill="#EA1B0A" fill-rule="evenodd" d="M53.42,52.68 L53.42,30.42 C53.42,27.4266167 50.9933833,25 48,25 C45.0066167,25 42.58,27.4266167 42.58,30.42 L42.58,52.68 C38.8531172,55.0836437 37.1544934,59.6547481 38.4073505,63.9088646 C39.6602076,68.1629812 43.565233,71.0837849 48,71.0837849 C52.434767,71.0837849 56.3397924,68.1629812 57.5926495,63.9088646 C58.8455066,59.6547481 57.1468828,55.0836437 53.42,52.68 L53.42,52.68 Z M48,69 C43.581722,69 40,65.418278 40,61 C40.0121346,57.9305144 41.7967803,55.1444409 44.58,53.85 L44.58,30.42 C44.58,28.5311862 46.1111862,27 48,27 C49.8888138,27 51.42,28.5311862 51.42,30.42 L51.42,53.85 C54.2032197,55.1444409 55.9878654,57.9305144 56,61 C56,65.418278 52.418278,69 48,69 Z M52.9999984,61 C52.9999984,63.7614237 50.7614237,66 47.9999984,66 C45.2385763,66 42.9999984,63.7614237 42.9999984,61 C42.9981262,58.6023392 44.6604074,56.5244877 46.9999984,56 L46.9999984,33 L48.9999984,33 L48.9999984,56 C51.3395926,56.5244877 53.0018738,58.6023392 52.9999984,61 Z"/>
</svg>
