<svg xmlns="http://www.w3.org/2000/svg" width="96" height="96" viewBox="0 0 96 96">
  <path fill="#EA1B0A" fill-rule="evenodd" d="M66,33 L56,33 L56,30 C56,28.9 55.1,28 54,28 L42,28 C40.9,28 40,28.9 40,30 L40,33 L30,33 C27.79,33 26,34.79 26,37 L26,61 C26,63.21 27.79,65 30,65 L66,65 C68.21,65 70,63.21 70,61 L70,37 C70,34.8 68.2,33 66,33 Z M42,30 L54,30 L54,33 L42,33 L42,30 Z M57.75,48.76 C55.85,50.66 53.06,51.12 50.72,50.14 C50.62,50.1 50.52,50.04 50.42,50 L40.04,60.37 C39.21,61.2 37.88,61.2 37.05,60.37 C36.22,59.54 36.22,58.21 37.05,57.38 L47.43,47 C47.38,46.9 47.33,46.8 47.28,46.7 C46.3,44.37 46.76,41.57 48.66,39.67 C50.39,37.94 52.86,37.4 55.06,38.06 C55.12,38.08 55.17,38.1 55.23,38.12 L51.46,41.89 L52.44,44.98 L55.52,45.96 L59.29,42.19 C59.31,42.25 59.33,42.3 59.35,42.36 C60.02,44.56 59.48,47.03 57.75,48.76 Z"/>
</svg>
