<svg xmlns="http://www.w3.org/2000/svg" width="96" height="96" viewBox="0 0 96 96">
  <path fill="#EA1B0A" fill-rule="evenodd" d="M73.41,78.59 L62.83,68 L65,68 C67.209139,68 69,66.209139 69,64 L69,23 C69,19.1340068 65.8659932,16 62,16 L59,16 C59,14.3431458 57.6568542,13 56,13 C54.3431458,13 53,14.3431458 53,16 L43,16 C43,14.3431458 41.6568542,13 40,13 C38.3431458,13 37,14.3431458 37,16 L34,16 C30.1340068,16 27,19.1340068 27,23 L27,64 C27,66.209139 28.790861,68 31,68 L33.15,68 L22.57,78.59 C22.0644692,79.0955308 21.8670369,79.832358 22.052074,80.522926 C22.2371111,81.2134939 22.7765061,81.7528889 23.467074,81.937926 C24.157642,82.1229631 24.8944692,81.9255308 25.4,81.42 L38.81,68 L57.17,68 L70.59,81.41 C71.3714829,82.1914828 72.638517,82.1914828 73.4199999,81.4099999 C74.2014828,80.628517 74.2014828,79.3614829 73.42,78.58 L73.41,78.59 Z M62,62 C60.3431458,62 59,60.6568542 59,59 C59,57.3431458 60.3431458,56 62,56 C63.6568542,56 65,57.3431458 65,59 C65,60.6568542 63.6568542,62 62,62 L62,62 Z M30,44 L30,26 L66,26 L66,44 L30,44 Z M31,59 C31,57.3431458 32.3431458,56 34,56 C35.6568542,56 37,57.3431458 37,59 C37,60.6568542 35.6568542,62 34,62 C32.3431458,62 31,60.6568542 31,59 L31,59 Z"/>
</svg>
