<svg xmlns="http://www.w3.org/2000/svg" width="96" height="96" viewBox="0 0 96 96">
  <path fill="#EA1B0A" fill-rule="evenodd" d="M57.79,56.73 C56.23,59.73 52.91,61.66 49,61.94 L49,69 C49,69.5522847 48.5522847,70 48,70 C47.4477153,70 47,69.5522847 47,69 L47,61.94 C43.08,61.65 39.77,59.73 38.21,56.73 C36.43,53.47 36.71,48.97 38.42,44 C40.0359115,39.6158511 41.9814731,35.360353 44.24,31.27 C46,28 47.06,26 48,26 C48.94,26 50,28 51.76,31.27 C54.0217444,35.3601566 55.970645,39.6156462 57.59,44 C59.29,49 59.57,53.47 57.79,56.73 Z"/>
</svg>
