<svg xmlns="http://www.w3.org/2000/svg" width="96" height="96" viewBox="0 0 96 96">
  <path fill="#EA1B0A" fill-rule="evenodd" d="M39.9999997,48 C39.9991307,44.1782778 41.8186899,40.5846802 44.8996038,38.3233684 C47.9805176,36.0620567 51.9543093,35.4034832 55.6,36.55 C55.8395056,36.6233714 56.0030419,36.8445079 56.0030419,37.095 C56.0030419,37.3454921 55.8395056,37.5666286 55.6,37.64 C51.0753468,39.0626014 47.9972995,43.2569755 47.9972995,48 C47.9972995,52.7430245 51.0753468,56.9373986 55.6,58.36 C55.8395056,58.4333714 56.0030419,58.6545079 56.0030419,58.905 C56.0030419,59.1554921 55.8395056,59.3766286 55.6,59.45 C51.9543093,60.5965168 47.9805176,59.9379433 44.8996038,57.6766316 C41.8186899,55.4153198 39.9991307,51.8217222 39.9999997,48 Z"/>
</svg>
