<svg xmlns="http://www.w3.org/2000/svg" width="96" height="96" viewBox="0 0 96 96">
  <path fill="#EA1B0A" fill-rule="evenodd" d="M48,38 C53.5228475,38 58,42.4771525 58,48 C58,53.5228475 53.5228475,58 48,58 C42.4771525,58 38,53.5228475 38,48 C38,42.4771525 42.4771525,38 48,38 L48,38 Z M48,36 C41.372583,36 36,41.372583 36,48 C36,54.627417 41.372583,60 48,60 C54.627417,60 60,54.627417 60,48 C60,41.372583 54.627417,36 48,36 L48,36 Z M49,32 L49,27 C49,26.4477153 48.5522847,26 48,26 C47.4477153,26 47,26.4477153 47,27 L47,32 C47,32.5522847 47.4477153,33 48,33 C48.5522847,33 49,32.5522847 49,32 L49,32 Z M49,69 L49,64 C49,63.4477153 48.5522847,63 48,63 C47.4477153,63 47,63.4477153 47,64 L47,69 C47,69.5522847 47.4477153,70 48,70 C48.5522847,70 49,69.5522847 49,69 Z M33,48 C33,47.4477153 32.5522847,47 32,47 L27,47 C26.4477153,47 26,47.4477153 26,48 C26,48.5522847 26.4477153,49 27,49 L32,49 C32.5522847,49 33,48.5522847 33,48 Z M70,48 C70,47.4477153 69.5522847,47 69,47 L64,47 C63.4477153,47 63,47.4477153 63,48 C63,48.5522847 63.4477153,49 64,49 L69,49 C69.5522847,49 70,48.5522847 70,48 Z M37.4,37.4 C37.7877236,37.0099625 37.7877236,36.3800375 37.4,35.99 L33.86,32.45 C33.4632397,32.1102232 32.8718058,32.1330677 32.5024368,32.5024368 C32.1330677,32.8718058 32.1102232,33.4632397 32.45,33.86 L36,37.4 C36.3900375,37.7877236 37.0199625,37.7877236 37.41,37.4 L37.4,37.4 Z M63.56,63.56 C63.9477236,63.1699625 63.9477236,62.5400375 63.56,62.15 L60,58.6 C59.7652295,58.2869727 59.3694577,58.1396287 58.9871407,58.2229171 C58.6048237,58.3062056 58.3062056,58.6048237 58.2229171,58.9871407 C58.1396287,59.3694577 58.2869727,59.7652295 58.6,60 L62.14,63.54 C62.5300375,63.9277236 63.1599625,63.9277236 63.55,63.54 L63.56,63.56 Z M33.86,63.56 L37.4,60 C37.6985902,59.6018797 37.6589987,59.0447852 37.3071068,58.6928932 C36.9552148,58.3410013 36.3981203,58.3014098 36,58.6 L32.46,62.14 C32.1746238,62.3843899 32.0503181,62.7681184 32.1381899,63.133419 C32.2260617,63.4987195 32.5112805,63.7839383 32.876581,63.8718101 C33.2418816,63.9596819 33.6256101,63.8353762 33.87,63.55 L33.86,63.56 Z M60,37.4 L63.54,33.86 C63.8253762,33.6156101 63.9496819,33.2318816 63.8618101,32.866581 C63.7739383,32.5012805 63.4887195,32.2160617 63.123419,32.1281899 C62.7581184,32.0403181 62.3743899,32.1646238 62.13,32.45 L58.6,36 C58.2869727,36.2347705 58.1396287,36.6305423 58.2229171,37.0128593 C58.3062056,37.3951763 58.6048237,37.6937944 58.9871407,37.7770829 C59.3694577,37.8603713 59.7652295,37.7130273 60,37.4 Z"/>
</svg>
