<svg xmlns="http://www.w3.org/2000/svg" width="96" height="96" viewBox="0 0 96 96">
  <path fill="#EA1B0A" fill-rule="evenodd" d="M86,52.83 C86.0949756,58.8747875 81.293989,63.8633476 75.25,64 L67.34,64 C69.9509334,59.1614662 69.4236899,53.2319448 66,48.93 C64.6067862,47.1756002 62.794466,45.800025 60.73,44.93 C60.3030146,41.7055486 58.8435807,38.705991 56.57,36.38 C56.0801695,35.8832289 55.5555029,35.4220569 55,35 C57.1559401,31.3104426 61.0968284,29.0302757 65.37,29 C72.249629,29.1367551 77.7182739,34.8202076 77.59,41.7 C77.59,41.77 77.59,41.85 77.59,41.92 C82.5859004,43.1636912 86.0689144,47.6820839 86,52.83 L86,52.83 Z M67,57.47 C67.0293147,60.498814 65.8541645,63.4152062 63.7330978,65.5775314 C61.6120312,67.7398566 58.7188167,68.9709663 55.69,69 L26.24,69 C21.0854798,68.9450514 16.9500355,64.7245709 16.999552,59.57 C16.9797174,55.9145601 19.0716807,52.5759892 22.37,51 C22.3969693,46.2368297 26.237065,42.3744855 31,42.32 C32.061877,42.3232053 33.1136122,42.526767 34.1,42.92 C35.9393585,36.9820862 41.8148672,33.2556132 47.9703428,34.1228966 C54.1258184,34.99018 58.7429379,40.1950249 58.87,46.41 C63.724349,47.8977652 67.0286109,52.3928619 67,57.47 L67,57.47 Z M65.0002165,57.47 C65.0297193,53.0448037 61.9969777,49.1864593 57.69,48.17 L56.94,48 L56.94,47 C56.9516501,44.1026293 55.8196958,41.3176624 53.79,39.25 C51.802579,37.1863197 49.065034,36.0141166 46.2,36 C41.1372561,36.0360067 36.7777117,39.5809937 35.71,44.53 L35.42,45.84 L34.27,45.18 C31.658784,43.6824303 28.3642708,44.1477803 26.27,46.31 C24.9943996,47.5904601 24.2756702,49.3225979 24.27,51.13 C24.27,51.28 24.27,51.43 24.27,51.59 L24.27,52.34 L23.58,52.6 C21.2469112,53.5205376 19.5294307,55.547749 19.0047293,58.0003765 C18.4800278,60.453004 19.2177577,63.0054694 20.97,64.8 C22.3462342,66.2314529 24.2544798,67.028064 26.24,67 L55.69,67 C58.1764137,66.9990245 60.5567996,65.9927704 62.29,64.21 C64.0422291,62.4056353 65.0154654,59.9851142 65.0002165,57.47 Z"/>
</svg>
