<svg xmlns="http://www.w3.org/2000/svg" width="96" height="96" viewBox="0 0 96 96">
  <path fill="#EA1B0A" fill-rule="evenodd" d="M55.58,48.14 C55.8653762,48.3843899 55.9896819,48.7681184 55.9018101,49.133419 C55.8139383,49.4987195 55.5287195,49.7839383 55.163419,49.8718101 C54.7981184,49.9596819 54.4143899,49.8353762 54.17,49.55 C50.7625709,46.1514319 45.2474291,46.1514319 41.84,49.55 C41.4432397,49.8897768 40.8518058,49.8669323 40.4824368,49.4975632 C40.1130677,49.1281942 40.0902232,48.5367603 40.43,48.14 C44.6175065,43.965989 51.3924935,43.965989 55.58,48.14 L55.58,48.14 Z M44.46,53.46 C43.0296969,54.8898712 42.6016414,57.0405788 43.3754579,58.9091361 C44.1492744,60.7776935 45.9725514,61.9960677 47.995,61.9960677 C50.0174486,61.9960677 51.8407256,60.7776935 52.6145421,58.9091361 C53.3883586,57.0405788 52.9603031,54.8898712 51.53,53.46 C49.5775007,51.5080903 46.4124993,51.5080903 44.46,53.46 L44.46,53.46 Z M34.69,43.46 C34.3502232,43.8567603 34.3730677,44.4481942 34.7424368,44.8175632 C35.1118058,45.1869323 35.7032397,45.2097768 36.1,44.87 C42.6712391,38.3049488 53.3187609,38.3049488 59.89,44.87 C60.2867603,45.2097768 60.8781942,45.1869323 61.2475632,44.8175632 C61.6169323,44.4481942 61.6397768,43.8567603 61.3,43.46 C53.9348947,36.1333069 42.0275198,36.1556808 34.69,43.51 L34.69,43.46 Z M66.46,38.59 C56.2594324,28.4078471 39.7405676,28.4078471 29.54,38.59 C29.2774098,38.8508039 29.1739036,39.2318868 29.2684713,39.5896986 C29.363039,39.9475103 29.6413134,40.2276907 29.9984713,40.3246986 C30.3556292,40.4217064 30.7374098,40.3208039 31,40.06 C40.4193369,30.6599405 55.6706631,30.6599405 65.09,40.06 C65.3343899,40.3453762 65.7181184,40.4696819 66.083419,40.3818101 C66.4487195,40.2939383 66.7339383,40.0087195 66.8218101,39.643419 C66.9096819,39.2781184 66.7853762,38.8943899 66.5,38.65 L66.46,38.59 Z"/>
</svg>
