<svg xmlns="http://www.w3.org/2000/svg" width="96" height="96" viewBox="0 0 96 96">
  <path fill="#EA1B0A" fill-rule="evenodd" d="M64,90 L60,90 L60,57.94 C60,56.25 58.65,55.34 57.08,55.08 L57.08,27.53 C57,22.27 53.47,19 47.92,19 L27.44,19 C26,19 25,20.27 25,22 C25,23.73 26,25 27.45,25 L31,25 L31,27.5 C31,29.9852814 33.0147186,32 35.5,32 C37.9852814,32 40,29.9852814 40,27.5 L40,25 L43.63,25 C44.3900584,25.0139082 45.103917,24.6362053 45.52,24 C45.858946,23.4368173 46.0257939,22.7868058 46,22.13 C46.0074573,21.7485845 45.9603131,21.3680634 45.86,21 L47.92,21 C52.38,21 54.99,23.4 55.08,27.55 L55.08,55.05 C53.44,55.28 52,56.2 52,57.94 L52,90 L48,90 C47.4477153,90 47,90.4477153 47,91 C47,91.5522847 47.4477153,92 48,92 L64,92 C64.5522847,92 65,91.5522847 65,91 C65,90.4477153 64.5522847,90 64,90 Z M38,27.5 C38,28.8807119 36.8807119,30 35.5,30 C34.1192881,30 33,28.8807119 33,27.5 L33,25 L38,25 L38,27.5 Z M43.85,22.87 C43.8119291,22.9558469 43.7235632,23.0080631 43.63,23 L27.46,23 C27.15,23 27.01,22.41 27.01,22 C27.01,21.59 27.22,21 27.45,21 L43.52,21 C43.78,21 44.03,21.55 44.03,22.13 C44.0384996,22.388455 43.976261,22.6443246 43.85,22.87 Z M58,90 L54,90 L54,58 C54,57 55.82,57 55.9,57 L56.13,57 C56.21,57 58.01,57 58.01,57.94 L58,90 Z M54,16 C53.4477153,16 53,15.5522847 53,15 C53,14.4477153 53.4477153,14 54,14 C58.418278,14 62,17.581722 62,22 C62,22.5522847 61.5522847,23 61,23 C60.4477153,23 60,22.5522847 60,22 C60,18.6862915 57.3137085,16 54,16 Z M72,22 C72,22.5522847 71.5522847,23 71,23 C70.4477153,23 70,22.5522847 70,22 C70,13.163444 62.836556,6 54,6 C53.4477153,6 53,5.55228475 53,5 C53,4.44771525 53.4477153,4 54,4 C63.9411255,4 72,12.0588745 72,22 Z M67,22 C67,22.5522847 66.5522847,23 66,23 C65.4477153,23 65,22.5522847 65,22 C65,15.9248678 60.0751322,11 54,11 C53.4477153,11 53,10.5522847 53,10 C53,9.44771525 53.4477153,9 54,9 C61.1797017,9 67,14.8202983 67,22 L67,22 Z"/>
</svg>
