<svg xmlns="http://www.w3.org/2000/svg" width="96" height="96" viewBox="0 0 96 96">
  <path fill="#EA1B0A" fill-rule="evenodd" d="M55.58,49.53 C55.8653762,49.7743899 55.9896819,50.1581184 55.9018101,50.523419 C55.8139383,50.8887195 55.5287195,51.1739383 55.163419,51.2618101 C54.7981184,51.3496819 54.4143899,51.2253762 54.17,50.94 C50.7625709,47.5414319 45.2474291,47.5414319 41.84,50.94 C41.4432397,51.2797768 40.8518058,51.2569323 40.4824368,50.8875632 C40.1130677,50.5181942 40.0902232,49.9267603 40.43,49.53 C44.6175065,45.355989 51.3924935,45.355989 55.58,49.53 Z M44.58,55.43 C43.1891474,56.8196077 42.7725487,58.9103217 43.5245292,60.7269135 C44.2765098,62.5435053 46.0489175,63.7280772 48.015,63.7280772 C49.9810825,63.7280772 51.7534902,62.5435053 52.5054708,60.7269135 C53.2574513,58.9103217 52.8408526,56.8196077 51.45,55.43 C50.5392251,54.512061 49.3001829,53.9949317 48.0070783,53.9930498 C46.7139737,53.9911781 45.4734356,54.5047086 44.56,55.42 L44.58,55.43 Z M34.69,43.8 C34.3502232,44.1967603 34.3730677,44.7881942 34.7424368,45.1575632 C35.1118058,45.5269323 35.7032397,45.5497768 36.1,45.21 C42.6735182,38.6504572 53.3164818,38.6504572 59.89,45.21 C60.2867603,45.5497768 60.8781942,45.5269323 61.2475632,45.1575632 C61.6169323,44.7881942 61.6397768,44.1967603 61.3,43.8 C53.9464033,36.4650162 42.0435967,36.4650162 34.69,43.8 L34.69,43.8 Z M66.46,38.65 C56.2639962,28.456821 39.7360038,28.456821 29.54,38.65 C29.2881278,38.9108039 29.1945254,39.2861688 29.2944521,39.6346985 C29.3943788,39.9832282 29.6726532,40.2519727 30.0244521,40.3396985 C30.376251,40.4274244 30.7481278,40.3208039 31,40.06 C40.4147751,30.6489178 55.6752249,30.6489178 65.09,40.06 C65.4867603,40.3997768 66.0781942,40.3769323 66.4475632,40.0075632 C66.8169323,39.6381942 66.8397768,39.0467603 66.5,38.65 L66.46,38.65 Z"/>
</svg>
