<svg xmlns="http://www.w3.org/2000/svg" width="96" height="96" viewBox="0 0 96 96">
  <path fill="#EA1B0A" fill-rule="evenodd" d="M56.11,41.39 L54,40.19 C53.634795,38.9681707 52.9057073,37.8867487 51.91,37.09 L51.91,33 C51.91,26.49 50.61,17.46 47.99,17.46 C45.37,17.46 44.1,26.48 44.1,33 L44.1,37.09 C43.1055921,37.8773684 42.3733654,38.9478142 42,40.16 L39.87,41.39 C34.23,44.65 27.06,50.28 28.37,52.56 C28.8168567,53.1283304 29.5356458,53.411258 30.25,53.3 C33.38,53.3 39.43,50.7 43.79,48.18 L45,47.48 L45.49,47.72 C45.4658046,47.7879907 45.4490402,47.8584009 45.44,47.93 L43.09,81.93 C43.0705529,82.2071218 43.1672604,82.4798443 43.3569458,82.6828077 C43.5466312,82.885771 43.8121975,83.0006815 44.09,83.000003 L51.93,83.000003 C52.2078025,83.0006815 52.4733688,82.885771 52.6630542,82.6828077 C52.8527396,82.4798443 52.9494471,82.2071218 52.93,81.93 L50.58,47.93 C50.567727,47.8580194 50.5476071,47.7875995 50.52,47.72 L50.99,47.49 L52.18,48.18 C56.54,50.7 62.59,53.3 65.72,53.3 C66.4343542,53.411258 67.1531433,53.1283304 67.6,52.56 C68.93,50.29 61.76,44.65 56.11,41.39 Z M46.06,36 L46.06,33 C46.06,26.85 47.06,21.76 47.98,20 C48.88,21.81 49.9,26.9 49.9,33 L49.9,36 C49.6871429,35.9242951 49.4701201,35.8608576 49.25,35.81 C48.4152591,35.6397494 47.5547409,35.6397494 46.72,35.81 C46.42,35.91 46.06,36 46.06,36 Z M47.06,37.8 C47.385291,37.7093776 47.7225037,37.6689121 48.06,37.68 C48.3968277,37.6815918 48.7323586,37.7218556 49.06,37.8 C51.1633245,38.3066722 52.5553253,40.3063694 52.3002093,42.4547657 C52.0450933,44.603162 50.2234904,46.2212528 48.06,46.2212528 C45.8965096,46.2212528 44.0749067,44.603162 43.8197907,42.4547657 C43.5646747,40.3063694 44.9566755,38.3066722 47.06,37.8 L47.06,37.8 Z M30.56,51.29 C31.7,49.6 35.56,46.19 40.89,43.12 L41.78,42.61 C41.9139188,43.9219499 42.4600478,45.1577419 43.34,46.14 L42.81,46.45 C38.21,49.1 33.05,51.13 30.56,51.29 Z M53.19,46.45 L52.68,46.16 C53.5635847,45.1790471 54.1132726,43.9431245 54.25,42.63 L55.11,43.13 C60.41,46.19 64.3,49.61 65.44,51.29 C62.95,51.13 57.79,49.1 53.19,46.45 Z"/>
</svg>
