<svg xmlns="http://www.w3.org/2000/svg" width="96" height="96" viewBox="0 0 96 96">
  <path fill="#EA1B0A" fill-rule="evenodd" d="M60.64,51.92 L56.13,49.32 C55.7355889,47.9534684 55.0030123,46.708432 54,45.7 L54,40.5 C54,31.76 52,25 48,25 C44,25 42,31.75 42,40.5 L42,45.7 C40.9969877,46.708432 40.2644111,47.9534684 39.87,49.32 L35.36,51.92 C27.79,56.29 22.93,61.39 24.94,64.87 C25.69,66.16 27.09,66.74 28.94,66.74 C32.1,66.74 36.58,65.06 41.34,62.31 L45.65,59.82 C47.168576,60.2613938 48.781424,60.2613938 50.3,59.82 L54.61,62.31 C59.37,65.06 63.85,66.74 67.01,66.74 C68.88,66.74 70.29,66.16 71.01,64.87 C73.07,61.39 68.22,56.3 60.64,51.92 Z M48,47.63 C50.2367532,47.63 52.05,49.4432468 52.05,51.68 C52.05,53.9167532 50.2367532,55.73 48,55.73 C45.7632468,55.73 43.95,53.9167532 43.95,51.68 C43.95,49.4432468 45.7632468,47.63 48,47.63 Z M48,27 C49.94,27 52,31.73 52,40.5 L52,44.21 C49.5013417,42.8713105 46.4986583,42.8713105 44,44.21 L44,40.5 C44,31.73 46.06,27 48,27 Z M40.36,60.58 C35.78,63.22 31.62,64.74 28.96,64.74 C27.18,64.74 26.8,64.08 26.67,63.87 C26,62.74 27.27,61 28.08,60 C30.4741371,57.4393189 33.2710762,55.2875675 36.36,53.63 L39.54,51.8 C39.5824628,54.6400849 41.0473226,57.2693204 43.44,58.8 L40.36,60.58 Z M69.36,63.87 C69.24,64.09 68.86,64.74 67.07,64.74 C64.4,64.74 60.24,63.22 55.67,60.58 L52.6,58.81 C54.9926774,57.2793204 56.4575372,54.6500849 56.5,51.81 L59.67,53.64 C67.23,58 70.3,62.19 69.33,63.87 L69.36,63.87 Z"/>
</svg>
