<svg width="1600" height="1200" viewBox="0 0 1600 1200" xmlns="http://www.w3.org/2000/svg"><path d="M479.3 150L550 79.3A100 100 0 01620.7 50h358.6a100 100 0 0170.7 29.3l70.7 70.7H1300a150 150 0 01150 150v650a150 150 0 01-150 150H300a150 150 0 01-150-150V300a150 150 0 01150-150h179.3zM300 250a50 50 0 00-50 50v650a50 50 0 0050 50h1000a50 50 0 0050-50V300a50 50 0 00-50-50h-220.7l-100-100H620.7l-100 100H300zm500 650a300 300 0 110-600 300 300 0 010 600zm0-100a200 200 0 100-400 200 200 0 000 400z" fill-rule="evenodd"/></svg>