<svg width="1600" height="1200" viewBox="0 0 1600 1200" xmlns="http://www.w3.org/2000/svg"><path d="M1258.5-50a50 50 0 0141.85 22.5l3.15 5.5L1595 578a50 50 0 01-39.35 71.7l-5.65.3h-200v500a50 50 0 01-44.15 49.65l-5.85.35H300a50 50 0 01-49.65-44.15L250 1150V650H50a50 50 0 01-47.45-66.05L5 578 296.5-22a50 50 0 0138.7-27.6l6.3-.4h917zM1227 50H373L130 550h220v550h900V550h220L1227 50zM825 300a25 25 0 0125 25v56.3c18.4 4.75 35.7 12 51.6 21.4l39.8-39.85a25 25 0 0135.4 0l35.35 35.35a25 25 0 010 35.4l-39.8 39.85c9.4 15.9 16.65 33.25 21.35 51.55h56.3a25 25 0 0125 25v50a25 25 0 01-25 25h-56.3c-4.75 18.4-12 35.7-21.4 51.6l39.85 39.8a25 25 0 010 35.4l-35.35 35.35a25 25 0 01-35.4 0l-39.8-39.85a198.8 198.8 0 01-51.55 21.4L850 825a25 25 0 01-25 25h-50a25 25 0 01-25-25v-56.3a198.8 198.8 0 01-51.55-21.35l-39.85 39.8a25 25 0 01-35.4 0l-35.35-35.35a25 25 0 010-35.4l39.85-39.8a198.8 198.8 0 01-21.4-51.55L550 625a25 25 0 01-25-25v-50a25 25 0 0125-25h56.3c4.7-18.35 12-35.7 21.4-51.6l-39.85-39.8a25 25 0 010-35.4l35.35-35.35a25 25 0 0135.4 0l39.8 39.85a198.8 198.8 0 0151.6-21.4V325a25 25 0 0125-25h50zm-25 175a100 100 0 100 200 100 100 0 000-200z" fill-rule="evenodd"/></svg>