<svg width="1600" height="1200" viewBox="0 0 1600 1200" xmlns="http://www.w3.org/2000/svg"><path d="M1595 578L1303.5-22a50 50 0 00-45-28h-917a50 50 0 00-45 28L5 578a50 50 0 0045 72h200v500a50 50 0 0050 50h1000a50 50 0 0050-50V650h200a50 50 0 0045-72zm-345 72v450H350V550H130L373 50h854l243 500h-220v100zM777.25 302.7a180 180 0 0136.7 201.1c-.7 1.4-1.4 2.8-1.95 4.2l290.45 290.75a59.22 59.22 0 11-83.75 83.75L727.95 591.75l-8.4 4.2a180 180 0 01-242-217.9l.8-2.4.85-2.35L585 478.9l86.55-27.45 27.45-86.3-105.8-105.6 2.4-.85 2.4-.8a179.1 179.1 0 01179.25 44.8z" fill-rule="evenodd"/></svg>