<svg width="1600" height="1200" viewBox="0 0 1600 1200" xmlns="http://www.w3.org/2000/svg"><path d="M1285.35 64.65a49.95 49.95 0 010 70.7l-1000 1000a49.85 49.85 0 01-70.7 0 49.95 49.95 0 010-70.7l203.65-203.6c-137.5-109.15-210-245-217.6-259.75l-.7-1.3s200-400 600-400c86.5 0 163.6 18.7 231.35 48l183.3-183.35a49.95 49.95 0 0170.7 0zM1181.75 339C1327.25 454.5 1400 600 1400 600l-.15.35-1.35 2.55-2.65 5C1365.3 663.9 1166.7 1000 800 1000c-86.4 0-163.5-18.65-231.3-47.95l106.8-106.8a275 275 0 00369.8-369.8zm-213.3 213.35a175.15 175.15 0 01-216.1 216.1zM800 325a275 275 0 00-245.25 399.55l76.85-76.8A175.15 175.15 0 01847.75 431.6l76.8-76.85A273.85 273.85 0 00800.05 325z" fill-rule="evenodd"/></svg>