<svg width="1600" height="1200" viewBox="0 0 1600 1200" xmlns="http://www.w3.org/2000/svg"><path d="M1250-50c110 0 200 90 200 200v550c0 110-90 200-200 200h-150v250a50 50 0 01-80.1 39.95L635 900H350c-110 0-200-90-200-200V150c0-110 90-200 200-200h900zm-175 250H875a25 25 0 00-25 25v200a25 25 0 0025 25h74.95l-90.9 181.9a12.5 12.5 0 0011.2 18.1h67.25a25 25 0 0020-10L1095 456.65a25 25 0 004.95-15L1100 225a25 25 0 00-25-25zm-350 0H525a25 25 0 00-25 25v200a25 25 0 0025 25h74.95l-90.9 181.9a12.5 12.5 0 0011.2 18.1h67.25a25 25 0 0020-10L745 456.65a25 25 0 004.95-15L750 225a25 25 0 00-25-25z" fill-rule="evenodd"/></svg>