<svg width="1600" height="1200" viewBox="0 0 1600 1200" xmlns="http://www.w3.org/2000/svg"><path d="M1250 0c110 0 200 90 200 200v550c0 110-90 200-200 200h-150v250a50 50 0 01-80.1 39.95L635 950H350c-110 0-200-90-200-200V200C150 90 240 0 350 0h900zm0 100H350c-55 0-100 45-100 100v550c0 55 45 100 100 100h300c10 0 20 5 30 10l320 240V900a50 50 0 0150-50h200c55 0 100-45 100-100V200c0-55-45-100-100-100zm-175 150a25 25 0 0125 25l-.05 216.65a25 25 0 01-5 15L957.5 690a25 25 0 01-20 10h-67.25a12.5 12.5 0 01-11.2-18.1l90.9-181.9H875a25 25 0 01-25-25V275a25 25 0 0125-25h200zm-350 0a25 25 0 0125 25l-.05 216.65a25 25 0 01-5 15L607.5 690a25 25 0 01-20 10h-67.25a12.5 12.5 0 01-11.2-18.1l90.9-181.9H525a25 25 0 01-25-25V275a25 25 0 0125-25h200z" fill-rule="evenodd"/></svg>