<svg width="1600" height="1200" viewBox="0 0 1600 1200" xmlns="http://www.w3.org/2000/svg"><path d="M1180.25 970.95V685.9c0-152.55-81.7-223.45-190.45-223.45-88.8 0-128.15 49.5-149.75 83.85h1.5V474h-165.5s2.25 46.5 0 496.95h165.5V693c0-14.3.75-29.4 5-40.1 12.1-29.4 39.35-60.15 85.2-60.15 59.35 0 83.1 45.1 83.1 112.5V970.9h165.4zm-760.5 0h165.4V474h-165.4v496.95zm83.75-736.2c-56.55 0-93.8 37.2-93.8 85.95 0 44.9 32.35 82.05 83.45 85.65l8.85.3c58 0 93.85-38.7 93.85-86-.7-46.25-32.4-82.15-84-85.65l-8.35-.25zm846.5 709A206.3 206.3 0 011143.65 1150h-687.3A206.3 206.3 0 01250 943.75v-687.5A206.3 206.3 0 01456.35 50h687.3A206.3 206.3 0 011350 256.25v687.5z" fill-rule="evenodd"/></svg>