<svg width="1600" height="1200" viewBox="0 0 1600 1200" xmlns="http://www.w3.org/2000/svg"><path d="M800 50c-303.75 0-550 246.25-550 550 0 233.05 145 432 349.5 512.1-4.75-43.5-9.1-110.2 2-157.7L665.95 681l-2.55-5.9a208.75 208.75 0 01-13.85-75.7c0-76.5 44.3-133.6 99.5-133.6 46.95 0 69.55 35.2 69.55 77.45 0 47.15-30 117.75-45.5 183.15-13 54.75 27.45 99.4 81.4 99.4 97.8 0 172.95-103.1 172.95-251.9 0-131.7-94.65-223.75-229.75-223.75-156.5 0-248.35 117.35-248.35 238.65 0 47.3 18.2 98 40.9 125.55a16.5 16.5 0 013.85 15.8l-15.3 62.4c-2.45 10.05-8 12.15-18.4 7.3-68.7-32-111.65-132.4-111.65-213.05 0-173.5 126.05-332.9 363.4-332.9 190.85 0 339.1 136 339.1 317.7 0 189.5-119.5 342.1-285.4 342.1-55.7 0-108.15-28.9-126.1-63.15l-34.2 130.75c-12.5 47.8-46 107.65-68.4 144.15 51.5 16 106.15 24.55 162.85 24.55 303.75 0 550-246.2 550-550 0-303.75-246.25-550-550-550z" fill-rule="evenodd"/></svg>