<svg width="1600" height="1200" viewBox="0 0 1600 1200" xmlns="http://www.w3.org/2000/svg"><path d="M1095.1 236.85c-38.2 0-67.95 29.75-67.95 68 0 38.15 29.75 67.9 67.95 67.9s67.95-29.75 67.95-67.95-29.75-67.95-67.95-67.95zM1048.4 50H555.75A304.5 304.5 0 00250 355.75v488.4a304.5 304.5 0 00305.75 305.75h488.4a304.5 304.5 0 00305.75-305.75v-488.4C1354.15 185.9 1218.25 50 1048.4 50zM1248 848.4c0 110.4-89.2 203.85-203.85 203.85h-488.4c-110.4 0-203.85-89.2-203.85-203.85V355.75c0-110.4 89.2-199.6 203.85-203.85h488.4c110.4 0 203.85 89.2 203.85 203.85V848.4zM802 317.5a284.525 284.525 0 100 569.05 284.525 284.525 0 000-569.05zm0 467.15A181.25 181.25 0 01619.4 602 181.25 181.25 0 01802 419.4 181.25 181.25 0 01984.65 602 181.25 181.25 0 01802 784.65z" fill-rule="evenodd"/></svg>