<svg width="1600" height="1200" viewBox="0 0 1600 1200" xmlns="http://www.w3.org/2000/svg"><path d="M1129.25 248.6l-239.5 423.5a.6.6 0 000 .65l152.5 278.6c3 6 3.1 12.1.25 16.75-2.8 4.5-7.9 6.9-14.35 6.9h-108.1c-16.55 0-24.85-11-30.2-20.6l-153.7-282c7.7-13.5 240.7-426.8 240.7-426.8 5.8-10.45 12.8-20.6 28.95-20.6h109.3c6.5 0 11.6 2.5 14.35 6.9 2.9 4.6 2.8 10.7-.2 16.7M617.9 750.8H509.4a15.5 15.5 0 01-13.75-7.65 17.15 17.15 0 010-16.8l114.6-202.5c.15-.25.15-.5 0-.8L536.9 396.2c-3-6-2.8-11.45 0-16 2.75-4.5 8-6.95 14.5-6.95h107.8c16.6 0 25.2 10.3 30.55 19.9l74.15 129.9L646.95 729.4c-5.5 10-12.85 21.4-29.05 21.4M1300 50H300a50 50 0 00-50 50v1000a50 50 0 0050 50h1000a50 50 0 0050-50V100a50 50 0 00-50-50" fill-rule="evenodd"/></svg>