<svg width="1600" height="1200" viewBox="0 0 1600 1200" xmlns="http://www.w3.org/2000/svg"><path d="M1314.75 323.6v36.15c0 365.75-280 790.25-790.25 790.25-149 0-298.05-45.15-424.5-126.45a557.5 557.5 0 00410.95-112.9c-117.4 0-221.3-81.25-261.95-194.15 40.65 9 85.8 4.5 126.5-4.5a275.35 275.35 0 01-221.05-259.1l-.25-16.4c40.65 22.6 81.25 31.6 126.45 36.15-121.95-81.3-158.05-243.85-85.8-370.3 140 171.6 347.7 280 573.5 289-36.15-149 58.7-298 207.7-334.15 94.85-22.6 198.7 9 266.45 81.25a594.15 594.15 0 00176.1-67.7c-22.55 63.2-63.2 117.4-121.9 153.5 54.15-9 108.35-22.55 158-45.15-32.5 48.8-76 93.9-123.85 132.05l-16.1 12.5z" fill-rule="evenodd"/></svg>