<svg width="1600" height="1200" viewBox="0 0 1600 1200" xmlns="http://www.w3.org/2000/svg"><path d="M800 0c135.5 0 271.15 15 406.7 40 80.3 15 140.5 75 155.65 155a2197.1 2197.1 0 010 810c-15.1 80-75.35 140-155.65 155-135.55 25-271.15 40-406.7 40s-271.1-15-406.7-40c-80.35-15-140.6-75-155.65-155-50.2-265-50.2-540 0-810 15-80 75.3-140 155.65-155 122-22.5 244-36.9 366-39.55l40.7-.5zm23.6 208.7a25 25 0 00-47.2 0L690 455.35l-261.25 5.9a25 25 0 00-14.6 44.9L622 664.5l-75.1 250.25a25.05 25.05 0 0038.2 27.75l200.65-138.9a25 25 0 0128.4 0l200.65 138.9a24.95 24.95 0 0038.15-27.75L977.9 664.5l207.85-158.35a25 25 0 00-14.6-44.9l-261.25-5.9-86.35-246.65z" fill-rule="evenodd"/></svg>