<svg width="1600" height="1200" viewBox="0 0 1600 1200" xmlns="http://www.w3.org/2000/svg"><path d="M1600 505.6c0-129.2-94.4-188.85-183.85-188.85H1118c19.9-59.6 39.75-134.15 44.75-193.75 4.7-94.45-26.45-157.45-55.15-189.05l-4.5-4.75c-44.7-49.7-114.3-74.5-188.8-74.5h-34.8c-37.25 0-70.15 26.15-82.3 62.2l-12.95 47.8c-15.9 56.75-48.75 163.1-93.55 252.7l-21 45.4-10.6 22.35c-36.85 76.2-69.3 131-92.65 131h-59.6v-9.95a39.2 39.2 0 00-39.75-39.75H34.8c-19.9 0-34.8 19.9-34.8 39.75v874.5c0 19.9 14.9 39.8 39.75 39.8h432.3a34 34 0 0034.8-34.8c59.6 34.8 149.05 59.65 268.3 59.65h477c144.1 0 169-89.45 173.95-149.1l-.15-10.55c-.5-16.05-2.85-39.1-14.75-59 54.65-24.85 84.45-64.6 89.4-129.2 0-34.75-4.95-69.55-19.85-94.4 44.7-19.85 79.5-59.6 84.5-139.1 0-44.75-10-79.5-34.8-109.35 44.7-29.8 69.55-84.5 69.55-149.05zm-1346.6 641c-44.7 0-84.5-39.75-84.5-84.5 0-49.7 39.8-84.5 84.5-84.5 44.75 0 84.5 39.8 84.5 84.5 0 44.75-34.8 84.5-84.5 84.5zM1391.3 595h-203.7c-24.85 0-49.7 24.85-49.7 49.65 0 24.85 24.85 49.7 49.7 49.7h203.7c14.9 0 39.75 5 54.65 19.9 14.9 14.9 14.9 34.75 14.9 49.7l-.1 7.7-.4 7.35c-2.75 29.65-19 48.05-112.15 49.45l-145.7.05c-24.85 0-49.7 24.85-49.7 49.7s24.85 49.7 49.7 49.7h129.2c24.8 0 39.75 5 49.65 14.9 14.9 14.9 14.9 39.75 14.9 49.7-4.95 34.8-14.9 39.75-29.8 44.7-19.85 10-54.65 10-99.35 10h-173.95c-24.85 0-49.65 24.8-49.65 49.65s24.8 49.7 49.65 49.7h149.1c68 0 74 24.85 74.5 44.3v11.85l-.35 6.35c-1.9 19.9-12.6 36.85-74.15 36.85h-477c-139.15 0-223.65-44.7-268.35-79.5V515.55h59.6c94.45 0 139.15-89.5 218.65-253.45l10.6-24.2 10.15-24.5c53.25-130.85 88.55-264.35 88.55-264.35h24.85c49.7 0 159 14.95 149.1 164-10 124.2-94.4 303.1-94.4 303.1h447.2c39.75 0 84.45 14.9 84.45 89.45 4.75 57-26.85 86.8-94.85 89.25l-9.5.2z" fill-rule="evenodd"/></svg>