<svg width="1600" height="1200" viewBox="0 0 1600 1200" xmlns="http://www.w3.org/2000/svg"><path d="M800-50c358.4 0 650 291.6 650 650s-291.6 650-650 650-650-291.6-650-650c0-141.25 45.1-276.25 128.3-387.85-54.55 14.65-108 33.9-173.2 59.5a50.041 50.041 0 01-36.6-93.15c99.8-39.15 193.1-73 325-91 25.45-3.05 49 12.6 55.25 37.25C481.6 253.9 485.1 353.1 486.15 460.2a50 50 0 01-49.5 50.5h-.5a50 50 0 01-50-49.5c-.85-80.45-3.5-143.35-13.15-207.9A546.85 546.85 0 00250 600c0 303.25 246.75 550 550 550s550-246.75 550-550S1103.25 50 800 50V-50z" fill-rule="evenodd"/></svg>