<svg width="1600" height="1200" viewBox="0 0 1600 1200" xmlns="http://www.w3.org/2000/svg"><path d="M100.05 504.85l100 36.4V850H444.9l29.85 33.55L700 1137V723.3l100 36.35V1137a100 100 0 01-174.75 66.5L400.05 950h-200a100 100 0 01-100-100V504.85zM1294.4 939.6l96.5 35.1a708.5 708.5 0 01-95.95 120.3 701.7 701.7 0 01-93.5 78.4 49.8 49.8 0 01-69.65-12.3 50 50 0 0112.3-69.6c28.5-19.9 55.5-42.55 80.15-67.25 26.25-26.25 49.5-54.75 70.15-84.65zM991.6 829.35l105.05 38.25c-4.6 5.1-8.9 10.35-13.8 15.25a405 405 0 01-53.5 44.85 50.004 50.004 0 01-57.25-82c6.85-4.8 13-10.9 19.5-16.35zM50 277c5.7 0 11.45.95 17.1 3.05L1567.1 826a50 50 0 11-34.2 93.95L32.9 374A49.95 49.95 0 0150 277zM1131.85 38.9a49.9 49.9 0 0169.6-12.3 705.5 705.5 0 0193.5 78.4A695.5 695.5 0 011500 600c0 31.3-2.8 62.15-6.8 92.7l-96.05-35a596 596 0 00-172.9-481.95 600.1 600.1 0 00-80.1-67.25 50 50 0 01-12.3-69.6zm-172.1 245.8a50 50 0 0169.6-12.4 397.15 397.15 0 01169.95 313.4l-104-37.85A297.45 297.45 0 00972.1 354.3a50 50 0 01-12.35-69.6zM700-37A100 100 0 01800 63v377.35l-100-36.4V63L474.75 316.5l-3.7 4.2L277 250h123.1L625.3-3.35A99.85 99.85 0 01700-37z" fill-rule="evenodd"/></svg>