<svg width="1300" height="1200" viewBox="0 0 1300 1200" xmlns="http://www.w3.org/2000/svg"><path d="M557.4 737.75a50 50 0 0138.05 17.6L900 1114.1V950a50 50 0 0150-50h150a100 100 0 00100-100V300a100 100 0 00-100-100H200a100 100 0 00-100 100v500a100 100 0 00100 100h386.6l-67.25-79.85a50 50 0 0138-82.4zm409.9 559.2a50 50 0 01-55.35-14.55L671.6 1000H200A200 200 0 010 800V300a200 200 0 01200-200h900a200 200 0 01200 200v500a200 200 0 01-200 200h-100v250c0 20.95-13.1 39.7-32.7 46.95zM900 450a75 75 0 11.05 149.95A75 75 0 01900 450zm-250 0a75 75 0 11.05 149.95A75 75 0 01650 450zm-175 75a75 75 0 11-149.95.05A75 75 0 01475 525z" fill-rule="evenodd"/></svg>