<svg width="1300" height="1200" viewBox="0 0 1300 1200" xmlns="http://www.w3.org/2000/svg"><path d="M329.3 150L400 79.3A100 100 0 01470.7 50h358.6A100 100 0 01900 79.3l70.7 70.7H1150a150 150 0 01150 150v650a150 150 0 01-150 150H150A150 150 0 010 950V300a150 150 0 01150-150h179.3zM150 250a50 50 0 00-50 50v650a50 50 0 0050 50h1000a50 50 0 0050-50V300a50 50 0 00-50-50H929.3l-100-100H470.7l-100 100H150zm500 650a300 300 0 110-600 300 300 0 010 600zm0-100a200 200 0 100-400 200 200 0 000 400z" fill-rule="evenodd"/></svg>