<svg width="1400" height="1200" viewBox="0 0 1400 1200" xmlns="http://www.w3.org/2000/svg"><path d="M775 500c125 0 225-100 225-225S900 50 775 50 550 150 550 275s100 225 225 225zm0-350c70 0 125 55 125 125s-55 125-125 125-125-55-125-125 55-125 125-125zM275 500c125 0 225-100 225-225S400 50 275 50 50 150 50 275s100 225 225 225zm0-350c70 0 125 55 125 125s-55 125-125 125-125-55-125-125 55-125 125-125zm1062.2 470.2l-7.2-5.2c-25-20-60-20-95-10l-210 90v-45c0-55-45-100-100-100H125c-55 0-100 45-100 100v400c0 55 45 100 100 100h800c55 0 100-45 100-100v-40l215 85c50 20 110-5 130-55 4-12 4.8-20.8 5-31.5V700c0-32.1-12.6-60-37.8-79.8zM925 1050H125V650h800v400zm350-50l-250-100V800l250-100v300z" fill-rule="evenodd"/></svg>