<svg width="1050" height="1200" viewBox="0 0 1050 1200" xmlns="http://www.w3.org/2000/svg"><path d="M575 212.5a137.5 137.5 0 10-275 0 137.5 137.5 0 00275 0zM328.5 848c33.65-7.7 93.35 24.6 180.55 93.5l12.1 9.65 24.05 19.7a37.512 37.512 0 11-47.95 57.7C452.7 991.5 414.75 963.4 385 944.7l-4.5-2.65a237.65 237.65 0 00428.2 78.2 37.505 37.505 0 0162.15 42 312.7 312.7 0 01-559.4-88c-16.55 28.3-35.25 65.2-55.4 110a37.507 37.507 0 11-68.4-30.8l13-28.25c51.1-109 92.75-169.1 127.9-177.2zm-41-298a37.5 37.5 0 110 75A212.5 212.5 0 0075.25 827.2L75 837.5v300a37.5 37.5 0 01-74.65 5.1l-.35-5.1v-300A287.5 287.5 0 01287.5 550zm325.8 0a312.7 312.7 0 01298.35 219.3c10.3-18.3 21.5-40.25 33.3-65.6l7.15-15.6 13.5-30.65a37.504 37.504 0 0168.9 29.65c-44.35 103.25-81.9 169.15-114.75 195.65a37.25 37.25 0 01-51.8 11.3c-34.9-8.1-85.3-38.05-151.6-88.5l-13.5-10.4-24.4-19.25a37.5 37.5 0 1146.9-58.5c45.25 36.25 83.65 63.65 113.75 81.8l3.75 2.15a237.65 237.65 0 00-426.55-71.6 37.505 37.505 0 01-62.15-42A312.25 312.25 0 01613.3 550zM437.5 0a212.5 212.5 0 110 425 212.5 212.5 0 010-425z" fill-rule="evenodd"/></svg>