<svg width="1200" height="1200" viewBox="0 0 1200 1200" xmlns="http://www.w3.org/2000/svg"><path d="M1150 800.1a50 50 0 0150 50v200c0 110.3-89.7 200-200 200H200c-110.3 0-200-89.7-200-200v-200a50 50 0 01100 0v200c0 55.15 44.85 100 100 100h800c55.15 0 100-44.85 100-100v-200a50 50 0 0150-50zM599.6-100a50 50 0 0149.65 44.15l.35 5.85v756.5c97.7-82.2 201.9-194 310.75-333.9a50 50 0 1178.9 61.4c-136.3 175.15-266.95 309.45-388.3 399.1a85.35 85.35 0 01-102.25 0c-115.5-85.25-239.5-211.05-368.9-374.3l-19.45-24.75-3.9-5.5a50 50 0 0182.8-55.9c102 131 199.85 237.4 292 317.8l18.35 15.75V-50a50 50 0 0150-50z" fill-rule="evenodd"/></svg>