<svg width="1200" height="1200" viewBox="0 0 1200 1200" xmlns="http://www.w3.org/2000/svg"><path d="M133.65 1239.65h932.7V1118.3h-932.7v121.35zM597.25 185.8c224.7 0 414.55 192.05 414.55 419.35v402.8h65.5c52.3 0 98.15 46.4 98.15 99.3l-1.1 154.2c-10.75 54.6-50 88.55-102.5 88.55H122.7c-52.3 0-98.2-46.5-98.2-99.35v-143.4c0-52.9 45.85-99.3 98.2-99.3h60v-402.8c0-227.3 189.8-419.35 414.5-419.35zm0 110.35c-161.9 0-299.2 135.3-305.25 297.9l-.2 11.1v402.8h610.95v-402.8c0-167.5-139.95-309-305.5-309zm0-209.6c-30.1 0-54.5-24.75-54.5-55.2V-101c0-30.5 24.4-55.2 54.5-55.2 30.15 0 54.55 24.75 54.55 55.2V31.4c0 30.5-24.4 55.2-54.5 55.2zM167.2 203.5L85.35 98.65a55.55 55.55 0 019-77.5 54.05 54.05 0 0176.6 9.15l81.8 104.8a55.5 55.5 0 01-9 77.5 54.15 54.15 0 01-76.6-9.1zm817.25 21c-11.8 0-23.75-3.9-33.75-11.9a55.65 55.65 0 01-9-77.5l81.8-104.85a54.25 54.25 0 0176.65-9.1c23.65 18.85 27.65 53.55 9 77.5l-81.8 104.85c-10.75 13.8-26.75 21-42.9 21z" fill-rule="evenodd"/></svg>