<svg width="1200" height="1200" viewBox="0 0 1200 1200" xmlns="http://www.w3.org/2000/svg"><path d="M1035.35 14.65c85.2 85.2 132.05 198.9 128.5 311.9-3 95.15-38.5 186.8-111.55 287l-12.55 16.75c-66.35 86.5-101.2 169.3-103.65 246.3-2.65 85.5 33.55 172.3 99.25 238.05a49.992 49.992 0 11-70.7 70.7c-85.2-85.2-132.05-198.9-128.5-311.9 3-93.15 40.6-189.8 112-287.6l12.2-16.3c68.15-89.35 101.1-167.5 103.5-246.1 2.7-85.5-33.5-172.35-99.2-238.1a49.992 49.992 0 1170.7-70.7zm-400 0c85.2 85.2 132.05 198.9 128.5 311.9-3 95.15-38.5 186.8-111.55 287l-12.55 16.75c-66.35 86.5-101.2 169.3-103.65 246.3-2.7 85.5 33.5 172.3 99.25 238.05a49.992 49.992 0 11-70.7 70.7c-85.2-85.2-132.05-198.9-128.5-311.9 3-93.15 40.65-189.8 112-287.6l12.2-16.3c68.15-89.35 101.1-167.5 103.5-246.1 2.7-85.5-33.45-172.35-99.2-238.1a49.992 49.992 0 1170.7-70.7zm-400 0c85.2 85.2 132.05 198.9 128.5 311.9-3 95.15-38.55 186.8-111.6 287l-12.5 16.75c-66.35 86.5-101.2 169.3-103.65 246.3-2.7 85.5 33.5 172.3 99.25 238.05a49.992 49.992 0 11-70.7 70.7C79.45 1100.15 32.6 986.5 36.15 873.5c3-93.15 40.65-189.8 112-287.6l12.2-16.3c68.15-89.35 101.1-167.5 103.55-246.1 2.7-85.5-33.5-172.35-99.25-238.1a49.992 49.992 0 1170.7-70.7z" fill-rule="evenodd"/></svg>