<svg width="1300" height="1200" viewBox="0 0 1300 1200" xmlns="http://www.w3.org/2000/svg"><path d="M275 175v400a225 225 0 00214.4 224.75l10.6.25h191.65l100 75h-258.3L280 1065a50 50 0 01-80-40V875h-50A150 150 0 010 725V325a150 150 0 01150-150h125zm875-150a150 150 0 01150 150v400a150 150 0 01-150 150h-100v150a50 50 0 01-80 40L716.65 725H500a150 150 0 01-150-150V175A150 150 0 01500 25h650zm0 100H500a50 50 0 00-50 50v400a50 50 0 0050 50h233.35a50 50 0 0130 10L950 775V675a50 50 0 0150-50h150a50 50 0 0050-50V175a50 50 0 00-50-50zM799.15 479.3c9.8 0 18.8 2.2 26.5 6.1 16.6 8.5 27.3 25.05 27.3 45.3a49.1 49.1 0 01-27.35 44.7 58.2 58.2 0 01-26.45 6.1c-31.4 0-53.8-21.75-53.8-50.8 0-29.6 22.4-51.4 53.8-51.4zm3.6-316.2c83.5 0 128.2 48.4 128.2 108.85 0 80.4-80.2 100.8-88.25 156.55l-.65 9.15h-87c0-55.2 34.3-84.65 60.6-111.5 16.25-16.6 29.5-32.25 29.5-52.35 0-18.8-12.7-32.65-36.9-32.65-27.35 0-37.7 14.9-39.15 28.2l-.15 3.25-82.25-9.1.1-2.3c.9-51.1 33.8-98.1 116-98.1z" fill-rule="evenodd"/></svg>