<svg width="1300" height="1200" viewBox="0 0 1300 1200" xmlns="http://www.w3.org/2000/svg"><path d="M968.75 250c7.8 0 15 3.25 21.5 9.75s9.75 13.7 9.75 21.5v687.5c0 7.8-3.25 15-9.75 21.5a29.85 29.85 0 01-21.5 9.75H812.5L709 896.5a29.2 29.2 0 00-21.5-8.8 29.2 29.2 0 00-21.5 8.8L562.5 1000H31.25a29.85 29.85 0 01-21.5-9.75A29.85 29.85 0 010 968.75v-687.5c0-7.8 3.25-15 9.75-21.5a29.85 29.85 0 0121.5-9.75h937.5zm-875 62.5h187.5c9.1 0 16.6 2.95 22.5 8.8 4.65 4.7 7.5 10.4 8.4 17.2l.35 5.25v375c0 7.8-2.95 15-8.8 21.5a28.3 28.3 0 01-17.2 9.35l-5.25.4H93.75a29.85 29.85 0 01-21.5-9.75 31.4 31.4 0 01-9.35-16.9l-.4-4.6v-375c0-9.1 3.25-16.6 9.75-22.5a32.5 32.5 0 0116.9-8.4l4.6-.35zM1100-200a25 25 0 0125 25v150h150a25 25 0 110 50h-150v150a25 25 0 11-50 0V25H925a25 25 0 110-50h150v-150a25 25 0 0125-25zM625 718.75v-375a28.85 28.85 0 00-9.75-22.5 31.45 31.45 0 00-21.5-8.75h-187.5a30.4 30.4 0 00-22.5 8.8 30.4 30.4 0 00-8.75 22.45v375c0 7.8 2.95 15 8.8 21.5 5.85 6.5 13.35 9.75 22.45 9.75h187.5c7.8 0 15-3.25 21.5-9.75a29.85 29.85 0 009.75-21.5zm312.5 0v-375a28.85 28.85 0 00-9.75-22.5 31.45 31.45 0 00-21.5-8.75h-187.5c-7.8 0-15 2.95-21.5 8.8a28.85 28.85 0 00-9.75 22.45V721.7c0 7.8 3.25 15 9.75 21.5s13.7 9.75 21.5 9.75H846.7a44.3 44.3 0 00-19.05-13.7 83.5 83.5 0 00-30.8-4.9c-3 0-6.4.25-10.15.7l-5.95.8c-6.15 1-12.2 1.5-18.05 1.5v-34.2h15.6c21.5 0 38.25-3.75 50.3-11.25a36.2 36.2 0 0018.1-32.7c0-9.15-2.5-16.15-7.35-21-4.9-4.9-12.85-7.35-23.9-7.35-11.1 0-21.65 2-31.75 5.85a149.8 149.8 0 00-33.7 19.55l-12.7-25.4a187 187 0 0141.5-23.45 118.5 118.5 0 0143.5-7.8c18.2 0 33.15 5.2 44.9 15.65 11.7 10.4 17.55 24.05 17.55 41 0 12.35-3.25 23.25-9.75 32.7-6.5 9.5-16.95 17.45-31.25 23.95h-5.85v2.9h8.8c12.35 3.3 21.95 7.5 28.8 12.7a45.4 45.4 0 0115.1 21.5h15.65c7.8 0 15-3.25 21.5-9.75a29.85 29.85 0 009.75-21.5zm-818.35-237.3L209 412.1h25.4v231.5h-34.2V459l2.95-2.95-3-2.95-2.9 5.9-66.4 43.95-11.7-21.5zm355.5 133.8l9.7-2.95 96.7 2.95v31.25h-159.2V625c16.95-12.35 31.25-24.25 43-35.65 11.7-11.4 24.4-25.55 38.1-42.5 11-14.3 19-26.5 23.9-36.6 4.9-10.1 7.35-19.7 7.35-28.8 0-11.05-2.95-19.5-8.8-25.4-5.85-5.85-14.35-8.8-25.4-8.8-11.05 0-21 2.6-29.8 7.85-8.75 5.2-18.7 14-29.75 26.35l-12.7-28.3c13-15.65 25.35-26.4 37.1-32.25 11.7-5.85 25.4-8.8 41-8.8 20.85 0 37.1 5.85 48.85 17.6 11.7 11.7 17.55 28 17.55 48.8 0 20.2-6.5 40.05-19.5 59.6-13 19.5-35.8 43.3-68.35 71.25l-9.8 5.9z" fill-rule="evenodd"/></svg>