<svg width="1200" height="1200" viewBox="0 0 1200 1200" xmlns="http://www.w3.org/2000/svg"><path d="M1085.35 64.65a49.95 49.95 0 010 70.7l-1000 1000a49.85 49.85 0 01-70.7 0 49.95 49.95 0 010-70.7l203.65-203.6C80.8 751.9 8.3 616.05.7 601.3L0 600s200-400 600-400c86.5 0 163.6 18.7 231.35 48l183.3-183.35a49.95 49.95 0 0170.7 0zM981.75 339C1127.25 454.5 1200 600 1200 600l-.15.35-1.35 2.55-2.65 5C1165.3 663.9 966.7 1000 600 1000c-86.4 0-163.5-18.65-231.3-47.95l106.8-106.8a275 275 0 00369.8-369.8zm-213.3 213.35a175.15 175.15 0 01-216.1 216.1zM600 325a275 275 0 00-245.25 399.55l76.85-76.8A175.15 175.15 0 01647.75 431.6l76.8-76.85A273.85 273.85 0 00600.05 325z" fill-rule="evenodd"/></svg>