<svg width="1600" height="1200" viewBox="0 0 1600 1200" xmlns="http://www.w3.org/2000/svg"><path d="M800-200c441.85 0 800 358.15 800 800s-358.15 800-800 800S0 1041.85 0 600s358.15-800 800-800zm0 100c-386.6 0-700 313.4-700 700s313.4 700 700 700 700-313.4 700-700-313.4-700-700-700zm385.9 854.35a50 50 0 0125.3 66 450.1 450.1 0 01-822.4 0 50.003 50.003 0 1191.35-40.7 350.1 350.1 0 00639.7 0 50 50 0 0166-25.3zM525 300a75 75 0 110 150 75 75 0 010-150zm550 0a75 75 0 110 150 75 75 0 010-150z" fill-rule="evenodd"/></svg>