<svg width="1200" height="1200" viewBox="0 0 1200 1200" xmlns="http://www.w3.org/2000/svg"><path d="M1150 500h-111.55a447.15 447.15 0 00-57.8-139.25l78.95-78.95a49.95 49.95 0 000-70.7l-70.7-70.7a49.95 49.95 0 00-70.7 0l-78.95 78.95A447.15 447.15 0 00700 161.55V50a50 50 0 00-50-50H550a50 50 0 00-50 50v111.55a447.15 447.15 0 00-139.25 57.8L281.8 140.4a49.95 49.95 0 00-70.7 0l-70.7 70.7a49.95 49.95 0 000 70.7l78.95 78.95A447.15 447.15 0 00161.55 500H50a50 50 0 00-50 50v100a50 50 0 0050 50h111.55a447.15 447.15 0 0057.8 139.25L140.4 918.2a49.95 49.95 0 000 70.7l70.7 70.7a49.95 49.95 0 0070.7 0l78.95-78.95c42.8 27 89.9 46.55 139.25 57.8V1150a50 50 0 0050 50h100a50 50 0 0050-50v-111.55a447.15 447.15 0 00139.25-57.8l78.95 78.95a49.95 49.95 0 0070.7 0l70.7-70.7a49.95 49.95 0 000-70.7l-78.95-78.95a447.15 447.15 0 0057.8-139.25H1150a50 50 0 0050-50V550a50 50 0 00-50-50zM600 800a200 200 0 110-400 200 200 0 010 400z" fill-rule="evenodd"/></svg>