<svg width="1400" height="1200" viewBox="0 0 1400 1200" xmlns="http://www.w3.org/2000/svg"><path d="M1364 195c-10-10-25-20-40-20H364L324 15c-5-25-25-40-50-40H74C44-25 24-5 24 25s20 50 50 50h160l190 760c5 25 25 40 50 40h650c20 0 40-15 50-35l200-600c5-15 0-30-10-45zm-275 580H514l-50-200h690l-65 200zm100-300H439l-50-200h865l-65 200zm-465 625c0 70-55 125-125 125s-125-55-125-125 55-125 125-125 125 55 125 125zm450 0c0 70-55 125-125 125s-125-55-125-125 55-125 125-125 125 55 125 125z" fill-rule="evenodd"/></svg>