<svg width="1100" height="1200" viewBox="0 0 1100 1200" xmlns="http://www.w3.org/2000/svg"><path d="M845.1 211.85c-38.2 0-67.95 29.75-67.95 68 0 38.15 29.75 67.9 67.95 67.9s67.95-29.75 67.95-67.95-29.75-67.95-67.95-67.95zM798.4 25H305.75A304.5 304.5 0 000 330.75v488.4a304.5 304.5 0 00305.75 305.75h488.4a304.5 304.5 0 00305.75-305.75v-488.4C1104.15 160.9 968.25 25 798.4 25zM998 823.4c0 110.4-89.2 203.85-203.85 203.85h-488.4c-110.4 0-203.85-89.2-203.85-203.85V330.75c0-110.4 89.2-199.6 203.85-203.85h488.4c110.4 0 203.85 89.2 203.85 203.85V823.4zM552 292.5a284.525 284.525 0 100 569.05 284.525 284.525 0 000-569.05zm0 467.15A181.25 181.25 0 01369.5 577a181.25 181.25 0 01182.6-182.6A181.25 181.25 0 01734.75 577 181.25 181.25 0 01552.1 759.65z" fill-rule="evenodd"/></svg>