<svg width="1500" height="1200" viewBox="0 0 1500 1200" xmlns="http://www.w3.org/2000/svg"><path d="M1142.3 1001.95c35 35 35 90 0 130l-185 180c-15 10-30 15-50 15-45 0-85-10-125-25-55-20-110-45-160-70-110-55-215-125-305-210-120-130-215-290-275-460-15-40-20-85-25-125-5-20 5-35 15-50l180-180c35-35 90-35 125 0l125 125c35 35 35 90 0 125l-90 90 5 15c5 20 20 45 35 75 30 65 70 120 120 175 50 40 100 75 155 105l33.6 16.4 76.35 36.1 5.05 2.5 90-90c35-35 90-35 125 0l125 120zm-106.9-425.4a39.75 39.75 0 01-11.8-27.95 198.65 198.65 0 00-58.3-140.15 198.65 198.65 0 00-140.15-58.3 40.5 40.5 0 01-35.85-59.85 39.8 39.8 0 0134.45-20.5 278.15 278.15 0 01196.35 81.65 278.15 278.15 0 0181.55 196.35c.15 16-9.45 30.45-24.2 36.5a39.6 39.6 0 01-43.15-8.9l1.1 1.15zm212.25-2.75l.8.85a39.75 39.75 0 01-39.7-39.75c-1.65-218.2-179-395.6-397.2-397.2a39.8 39.8 0 01-39.75-39.45A39.1 39.1 0 01811 58.8c261.25 2.25 473.5 214.55 475.8 475.85 0 21.65-17.5 39.15-39.15 39.15zm197.2-6.3a39.75 39.75 0 01-39.75-39.75c-2-316.5-259.3-573.8-575.75-575.75a39.8 39.8 0 01-34.6-59.2 39.1 39.1 0 0134-19.75c360.2 2.2 653.1 295.05 655.25 655.25 0 21.7-17.5 39.2-39.15 39.2z" fill-rule="evenodd"/></svg>