<svg width="1300" height="1200" viewBox="0 0 1300 1200" xmlns="http://www.w3.org/2000/svg"><path d="M650-50c103.95 0 203.3 23.85 295.3 70.8a50.05 50.05 0 01-45.5 89.05A544.35 544.35 0 00650 50c-303.25 0-550 246.75-550 550s246.75 550 550 550 550-246.75 550-550c0-80.7-17.05-158.45-50.75-231.1a50.01 50.01 0 0190.75-42.05A645.4 645.4 0 011300 600c0 358.4-291.6 650-650 650S0 958.4 0 600 291.6-50 650-50zm488.6 149.65a50 50 0 0111.75 69.7L677.6 834a49.95 49.95 0 01-69.75 11.75L362.6 671.35a50.001 50.001 0 1157.95-81.5l204.5 145.4L1068.9 111.4a49.95 49.95 0 0169.7-11.75z" fill-rule="evenodd"/></svg>