<?xml version="1.0" encoding="UTF-8"?>
<svg width="96px" height="96px" viewBox="0 0 96 96" version="1.1" xmlns="http://www.w3.org/2000/svg" xmlns:xlink="http://www.w3.org/1999/xlink">
    <title>pictograms/Weather &amp; More/candy</title>
    <g id="Symbols" stroke="none" stroke-width="1" fill="none" fill-rule="evenodd">
        <g id="pictograms/Weather-&amp;-More/candy" fill="#39393A">
            <path d="M75.44,33.44 C73.27,31.27 72.71,29.78 72.21,28.47 C71.82,27.45 71.46,26.49 70.49,25.51 C69.52,24.53 68.55,24.17 67.54,23.79 C66.23,23.29 64.74,22.73 62.57,20.56 C62.18,20.17 61.55,20.17 61.16,20.56 C58.68,23.04 57.98,29.14 58.86,33.01 L58.8,32.95 C57.63,31.78 56.09,31.19 54.56,31.19 C53.03,31.19 51.49,31.78 50.32,32.95 L33.02,50.25 C30.68,52.59 30.68,56.39 33.02,58.74 L33.17,58.89 C29.31,57.95 23.09,58.63 20.58,61.15 C20.19,61.54 20.19,62.17 20.58,62.56 C22.75,64.73 23.31,66.22 23.81,67.53 C24.2,68.55 24.56,69.51 25.53,70.49 C26.5,71.47 27.47,71.83 28.48,72.21 C29.79,72.71 31.28,73.27 33.45,75.44 C33.65,75.64 33.9,75.73 34.16,75.73 C34.42,75.73 34.67,75.63 34.87,75.44 C37.39,72.92 38.07,66.71 37.13,62.85 L37.27,62.99 C38.44,64.16 39.98,64.75 41.51,64.75 C43.04,64.75 44.58,64.16 45.75,62.99 L63.05,45.69 C65.39,43.35 65.39,39.55 63.05,37.2 L63,37.15 C64.06,37.39 65.28,37.52 66.56,37.52 C69.94,37.52 73.65,36.66 75.45,34.85 C75.83,34.46 75.83,33.83 75.44,33.44 Z M34.04,73.25 C31.98,71.4 30.44,70.82 29.18,70.34 C28.26,69.99 27.6,69.74 26.93,69.07 C26.26,68.4 26.01,67.74 25.66,66.82 C25.18,65.56 24.6,64.02 22.75,61.96 C24.8,60.68 28.44,60.28 31.17,60.55 C29.91,60.94 28.48,61.56 27.12,62.53 C26.67,62.85 26.57,63.48 26.89,63.92 C27.09,64.19 27.39,64.34 27.7,64.34 C27.9,64.34 28.1,64.28 28.28,64.15 C30.38,62.65 32.71,62.13 34.04,61.96 C33.87,63.26 33.36,65.59 31.84,67.71 C31.52,68.16 31.62,68.78 32.07,69.1 C32.25,69.23 32.45,69.29 32.65,69.29 C32.96,69.29 33.27,69.18 33.46,68.9 C34.43,67.54 35.05,66.11 35.44,64.85 C35.72,67.59 35.31,71.22 34.04,73.25 Z M44.32,61.57 C43.56,62.33 42.56,62.74 41.49,62.74 C40.42,62.74 39.42,62.32 38.66,61.57 L34.42,57.33 C33.66,56.57 33.25,55.57 33.25,54.5 C33.25,53.43 33.67,52.43 34.42,51.67 L41.53,44.56 L46.21,59.68 L44.32,61.57 Z M61.63,44.27 L55.33,50.57 L50.07,36.03 L51.73,34.37 C52.49,33.61 53.49,33.2 54.56,33.2 C55.63,33.2 56.63,33.62 57.39,34.37 L61.63,38.61 C62.39,39.37 62.8,40.37 62.8,41.44 C62.8,42.51 62.38,43.51 61.63,44.27 Z M64.83,35.45 C66.09,35.06 67.52,34.44 68.88,33.47 C69.33,33.15 69.43,32.52 69.11,32.08 C68.79,31.63 68.16,31.53 67.71,31.85 C65.61,33.35 63.28,33.87 61.95,34.04 C62.12,32.74 62.63,30.41 64.15,28.28 C64.47,27.83 64.37,27.2 63.92,26.88 C63.47,26.56 62.85,26.65 62.52,27.1 C61.55,28.46 60.93,29.89 60.54,31.15 C60.28,28.42 60.68,24.8 61.95,22.76 C64.01,24.61 65.55,25.19 66.81,25.67 C67.73,26.02 68.39,26.27 69.06,26.94 C69.73,27.61 69.98,28.27 70.33,29.19 C70.81,30.45 71.39,31.99 73.24,34.05 C71.21,35.32 67.56,35.72 64.83,35.45 Z" id="â—-Pictogram"></path>
        </g>
    </g>
</svg>