<?xml version="1.0" encoding="UTF-8"?>
<svg width="96px" height="96px" viewBox="0 0 96 96" version="1.1" xmlns="http://www.w3.org/2000/svg" xmlns:xlink="http://www.w3.org/1999/xlink">
    <title>pictograms/Weather &amp; More/house_mid1</title>
    <g id="Symbols" stroke="none" stroke-width="1" fill="none" fill-rule="evenodd">
        <g id="pictograms/Weather-&amp;-More/house_mid1" fill="#39393A">
            <path d="M59.9728,17 L59.9728,23.609 L69.7728,29.268 C70.5568,29.721 70.9388,30.646 70.7048,31.518 C70.4708,32.391 69.6768,33 68.7728,33 L68.7728,33 L66.4998,33 L66.4998,71 C66.4998,72.103 65.6028,73 64.4998,73 L64.4998,73 L32.4998,73 C31.3968,73 30.4998,72.103 30.4998,71 L30.4998,71 L30.4998,33 L27.2278,33 C26.3238,33 25.5298,32.391 25.2958,31.518 C25.0618,30.645 25.4448,29.719 26.2278,29.268 L26.2278,29.268 L47.0118,17.268 C47.6118,16.922 48.3808,16.916 48.9708,17.258 L48.9708,17.258 L54.9728,20.723 L54.9728,17 L59.9728,17 Z M64.4998,33 L32.4998,33 L32.4998,71 L51.9998,71 L51.9998,55 L61.9998,55 L61.9998,71 L64.4998,71 L64.4998,33 Z M59.9998,57 L53.9998,57 L53.9998,71 L59.9998,71 L59.9998,57 Z M49,55 L49,65 L35,65 L35,55 L49,55 Z M47,57 L43,57 L43,63 L47,63 L47,57 Z M41,57 L37,57 L37,63 L41,63 L41,57 Z M49,36 L49,46 L35,46 L35,36 L49,36 Z M61,36 L61,46 L53,46 L53,36 L61,36 Z M47,38 L43,38 L43,44 L47,44 L47,38 Z M41,38 L37,38 L37,44 L41,44 L41,38 Z M59,38 L55,38 L55,44 L59,44 L59,38 Z M47.9998,19.007 L27.2278,31 L68.7728,31 L47.9998,19.007 Z" id="â—-Pictogram"></path>
        </g>
    </g>
</svg>