<?xml version="1.0" encoding="UTF-8"?>
<svg width="96px" height="96px" viewBox="0 0 96 96" version="1.1" xmlns="http://www.w3.org/2000/svg" xmlns:xlink="http://www.w3.org/1999/xlink">
    <title>pictograms/Weather &amp; More/house_detached</title>
    <g id="Symbols" stroke="none" stroke-width="1" fill="none" fill-rule="evenodd">
        <g id="pictograms/Weather-&amp;-More/house_detached" fill="#39393A">
            <path d="M48.0005,18 C48.4065,18 48.8105,18.123 49.1575,18.368 L49.1575,18.368 L57.0005,23.924 L57.0005,20 L62.0005,20 L62.0005,27.466 L73.1575,35.368 C73.8675,35.871 74.1705,36.777 73.9075,37.606 C73.6425,38.437 72.8715,39 72.0005,39 L72.0005,39 L70.0005,39 L70.0005,76 C70.0005,77.654 68.6545,79 67.0005,79 L67.0005,79 L29.0005,79 C27.3465,79 26.0005,77.654 26.0005,76 L26.0005,76 L26.0005,39 L24.0005,39 C23.1295,39 22.3595,38.437 22.0945,37.606 C21.8305,36.777 22.1335,35.871 22.8445,35.368 L22.8445,35.368 L46.8445,18.368 C47.1915,18.123 47.5955,18 48.0005,18 Z M68.0005,39 L28.0005,39 L28.0005,76 C28.0005,76.551 28.4485,77 29.0005,77 L29.0005,77 L52.0005,77 L52.0005,62 L62.0005,62 L62.0005,77 L67.0005,77 C67.5525,77 68.0005,76.551 68.0005,76 L68.0005,76 L68.0005,39 Z M60.0005,64 L54.0005,64 L54.0005,77 L60.0005,77 L60.0005,64 Z M46.001,62 L46.001,72 L32.001,72 L32.001,62 L46.001,62 Z M44.001,64 L40.001,64 L40.001,70 L44.001,70 L44.001,64 Z M38.001,64 L34.001,64 L34.001,70 L38.001,70 L38.001,64 Z M46.001,42 L46.001,52 L32.001,52 L32.001,42 L46.001,42 Z M64.001,42 L64.001,52 L50.001,52 L50.001,42 L64.001,42 Z M44.001,44 L40.001,44 L40.001,50 L44.001,50 L44.001,44 Z M38.001,44 L34.001,44 L34.001,50 L38.001,50 L38.001,44 Z M62.001,44 L58.001,44 L58.001,50 L62.001,50 L62.001,44 Z M56.001,44 L52.001,44 L52.001,50 L56.001,50 L56.001,44 Z" id="â—-Pictogram"></path>
        </g>
    </g>
</svg>