<?xml version="1.0" encoding="UTF-8"?>
<svg width="96px" height="96px" viewBox="0 0 96 96" version="1.1" xmlns="http://www.w3.org/2000/svg" xmlns:xlink="http://www.w3.org/1999/xlink">
    <title>pictograms/Weather &amp; More/teddybear</title>
    <g id="Symbols" stroke="none" stroke-width="1" fill="none" fill-rule="evenodd">
        <g id="pictograms/Weather-&amp;-More/teddybear" fill="#39393A">
            <path d="M68.61,55.74 C68.61,50.79 63.51,46.01 58.74,43.14 C60.6,40.76 61.67,37.81 61.67,34.73 C61.67,32.7 61.19,30.71 60.33,28.89 C61.08,28.25 61.84,27.25 62.13,25.95 C62.36,24.94 62.38,23.39 61.17,21.71 C60.3,20.51 59.02,19.78 57.56,19.66 C56.17,19.55 54.8,20.02 53.89,20.93 C53.56,21.26 53.3,21.65 53.1,22.07 C51.49,21.42 49.76,21.07 47.99,21.07 L47.99,21.07 C47.99,21.07 47.99,21.07 47.99,21.07 C47.99,21.07 47.99,21.07 47.99,21.07 L47.99,21.07 C46.22,21.07 44.49,21.42 42.88,22.07 C42.69,21.65 42.43,21.26 42.1,20.93 C41.19,20.02 39.83,19.55 38.43,19.66 C36.97,19.78 35.69,20.5 34.82,21.71 C33.61,23.39 33.63,24.94 33.86,25.95 C34.16,27.25 34.91,28.25 35.66,28.89 C34.8,30.71 34.32,32.7 34.32,34.73 C34.32,37.81 35.39,40.76 37.25,43.14 C32.48,46.01 27.38,50.79 27.38,55.74 C27.38,58.61 29.7,61.12 32.01,61.81 C32.03,62.38 32.07,62.94 32.13,63.48 C31.98,63.74 31.84,64.01 31.72,64.29 C30.95,66.1 30.86,68.21 31.45,70.25 C32.04,72.29 33.26,74.03 34.88,75.14 C36.05,75.95 37.33,76.36 38.61,76.36 C39.16,76.36 39.71,76.28 40.25,76.13 C41.04,75.9 41.75,75.51 42.38,74.98 C43.37,75.16 44.43,75.26 45.54,75.26 L50.45,75.26 C51.57,75.26 52.62,75.16 53.61,74.98 C54.23,75.5 54.95,75.9 55.74,76.13 C56.28,76.29 56.83,76.36 57.38,76.36 C58.65,76.36 59.94,75.95 61.11,75.14 C62.73,74.03 63.94,72.29 64.54,70.25 C65.13,68.21 65.04,66.09 64.27,64.29 C64.15,64 64.01,63.74 63.86,63.48 C63.92,62.94 63.96,62.38 63.98,61.81 C66.29,61.12 68.61,58.61 68.61,55.74 Z M42.41,71.64 C42.22,72.08 41.97,72.46 41.7,72.81 C41.16,73.49 40.49,73.98 39.7,74.21 C39.69,74.21 39.68,74.21 39.67,74.22 C38.48,74.55 37.19,74.3 36.03,73.5 C34.79,72.65 33.86,71.3 33.39,69.7 C33.18,68.97 33.09,68.22 33.1,67.5 C33.11,66.65 33.26,65.82 33.58,65.08 C33.75,64.68 33.97,64.33 34.22,64 C34.77,63.27 35.47,62.74 36.3,62.5 C36.65,62.4 37.01,62.35 37.37,62.35 C37.43,62.35 37.49,62.36 37.55,62.36 C38.19,62.39 38.84,62.57 39.47,62.91 C39.64,63 39.81,63.1 39.98,63.21 C41.22,64.06 42.15,65.41 42.62,67.01 C43.07,68.62 43,70.26 42.41,71.64 Z M50.45,73.26 L45.54,73.26 C44.96,73.26 44.41,73.23 43.87,73.17 C44.01,72.93 44.13,72.68 44.24,72.42 C45.01,70.61 45.1,68.5 44.51,66.46 C43.92,64.42 42.7,62.68 41.08,61.57 C40.76,61.35 40.43,61.17 40.09,61.01 C41.49,58.05 44.49,55.98 47.98,55.98 C51.47,55.98 54.48,58.04 55.87,61.01 C55.54,61.17 55.21,61.35 54.89,61.57 C53.27,62.68 52.06,64.42 51.46,66.46 C50.87,68.5 50.96,70.62 51.73,72.42 C51.84,72.68 51.97,72.93 52.1,73.17 C51.58,73.23 51.03,73.26 50.45,73.26 Z M62.62,69.7 C62.15,71.3 61.22,72.65 59.98,73.5 C58.82,74.3 57.52,74.55 56.34,74.22 C56.33,74.22 56.32,74.22 56.31,74.21 C55.52,73.98 54.84,73.48 54.31,72.81 C54.03,72.46 53.78,72.08 53.6,71.64 C53.01,70.26 52.94,68.62 53.41,67.02 C53.88,65.42 54.81,64.07 56.05,63.22 C56.21,63.11 56.38,63.01 56.55,62.92 C57.18,62.58 57.83,62.4 58.47,62.37 C58.53,62.37 58.59,62.35 58.65,62.35 C59.01,62.35 59.37,62.4 59.72,62.5 C60.55,62.74 61.25,63.27 61.8,64 C62.04,64.32 62.26,64.67 62.44,65.08 C62.76,65.83 62.91,66.65 62.92,67.5 C62.92,68.23 62.83,68.97 62.62,69.7 Z M59.09,48.3 C58.73,47.88 58.1,47.83 57.68,48.2 C57.26,48.56 57.22,49.19 57.58,49.61 C62,54.73 62,58.32 62,61.2 C62,61.28 61.99,61.34 61.99,61.42 C61.47,61.06 60.89,60.77 60.27,60.59 C59.47,60.36 58.64,60.31 57.82,60.42 C56.16,56.64 52.39,53.98 48,53.98 C43.61,53.98 39.83,56.63 38.18,60.42 C37.36,60.31 36.54,60.36 35.74,60.59 C35.12,60.77 34.55,61.05 34.02,61.42 C34.02,61.35 34.01,61.28 34.01,61.2 C34.01,58.32 34.01,54.73 38.43,49.61 C38.79,49.19 38.74,48.56 38.33,48.2 C37.92,47.84 37.28,47.89 36.92,48.3 C32.99,52.86 32.19,56.36 32.04,59.69 C30.73,59.05 29.4,57.52 29.4,55.74 C29.4,51.76 33.94,47.39 38.63,44.65 C39.08,45.07 39.55,45.48 40.05,45.84 C40.23,45.97 40.43,46.03 40.63,46.03 C40.94,46.03 41.25,45.88 41.44,45.61 C41.76,45.16 41.66,44.54 41.21,44.21 C38.15,42.02 36.33,38.47 36.33,34.72 C36.33,32.73 36.84,30.76 37.8,29.04 C38.07,28.56 37.9,27.95 37.41,27.68 C37.41,27.68 37.4,27.68 37.4,27.68 L37.4,27.68 C36.8,27.36 36.05,26.53 35.81,25.5 C35.61,24.62 35.82,23.73 36.44,22.87 C36.96,22.15 37.72,21.72 38.59,21.65 C39.38,21.59 40.19,21.85 40.68,22.34 C40.85,22.51 40.98,22.72 41.08,22.95 C40.31,23.4 39.57,23.93 38.89,24.54 C38.48,24.91 38.44,25.54 38.81,25.95 C39.01,26.17 39.28,26.28 39.56,26.28 C39.8,26.28 40.04,26.2 40.23,26.03 C42.37,24.12 45.13,23.06 48,23.06 C50.87,23.06 53.63,24.11 55.77,26.03 C55.96,26.2 56.2,26.28 56.44,26.28 C56.71,26.28 56.99,26.17 57.19,25.95 C57.56,25.54 57.52,24.91 57.11,24.54 C56.43,23.93 55.7,23.41 54.92,22.95 C55.02,22.72 55.15,22.51 55.32,22.34 C55.81,21.85 56.61,21.59 57.41,21.65 C58.27,21.72 59.04,22.15 59.56,22.87 C60.18,23.73 60.39,24.61 60.19,25.5 C59.95,26.54 59.2,27.36 58.6,27.68 L58.6,27.68 C58.6,27.68 58.59,27.68 58.59,27.68 C58.11,27.95 57.94,28.56 58.2,29.04 C59.16,30.77 59.67,32.73 59.67,34.72 C59.67,38.47 57.85,42.02 54.79,44.21 C54.34,44.53 54.24,45.16 54.56,45.61 C54.76,45.88 55.06,46.03 55.37,46.03 C55.57,46.03 55.78,45.97 55.95,45.84 C56.46,45.48 56.93,45.07 57.37,44.65 C62.07,47.39 66.6,51.76 66.6,55.74 C66.6,57.52 65.27,59.05 63.96,59.69 C63.82,56.36 63.02,52.86 59.09,48.3 Z M50.1,39.48 C49.53,39.48 49.06,39.04 49.01,38.49 L49.01,37.94 L50.47,35.82 C50.68,35.51 50.7,35.12 50.53,34.79 C50.36,34.46 50.02,34.26 49.64,34.26 L46.37,34.26 C46,34.26 45.66,34.47 45.49,34.79 C45.32,35.12 45.34,35.52 45.55,35.82 L47,37.95 L47,38.38 C47,38.39 47,38.4 47,38.4 C46.99,38.99 46.5,39.48 45.91,39.48 C45.3,39.48 44.81,38.99 44.81,38.38 L42.81,38.38 C42.81,40.09 44.2,41.48 45.91,41.48 C46.72,41.48 47.46,41.16 48.01,40.65 C48.56,41.16 49.29,41.48 50.1,41.48 C51.81,41.48 53.2,40.09 53.2,38.38 L51.2,38.38 C51.2,38.99 50.7,39.48 50.1,39.48 Z M42.32,33.65 C43.11529,33.65 43.76,33.00529 43.76,32.21 C43.76,31.41471 43.11529,30.77 42.32,30.77 C41.52471,30.77 40.88,31.41471 40.88,32.21 C40.88,33.00529 41.52471,33.65 42.32,33.65 Z M53.68,33.65 C54.47529,33.65 55.12,33.00529 55.12,32.21 C55.12,31.41471 54.47529,30.77 53.68,30.77 C52.88471,30.77 52.24,31.41471 52.24,32.21 C52.24,33.00529 52.88471,33.65 53.68,33.65 Z" id="â—-Pictogram"></path>
        </g>
    </g>
</svg>