<?xml version="1.0" encoding="UTF-8"?>
<svg width="96px" height="96px" viewBox="0 0 96 96" version="1.1" xmlns="http://www.w3.org/2000/svg" xmlns:xlink="http://www.w3.org/1999/xlink">
    <title>pictograms/Weather &amp; More/weather_rain</title>
    <g id="Symbols" stroke="none" stroke-width="1" fill="none" fill-rule="evenodd">
        <g id="pictograms/Weather-&amp;-More/weather-rain" fill="#39393A">
            <path d="M31,74.0000033 C30.6773994,74.0008335 30.3742109,73.845986 30.1857655,73.5841461 C29.9973201,73.3223061 29.9467664,72.9856381 30.05,72.68 L31.05,69.68 C31.1625387,69.3405977 31.4475976,69.0870157 31.797798,69.0147758 C32.1479984,68.942536 32.5101363,69.0626133 32.747798,69.3297758 C32.9854597,69.5969383 33.0625387,69.9705977 32.95,70.31 L31.95,73.31 C31.8159022,73.721264 31.4325739,73.9996813 31,74.0000033 Z M34.95,64.32 L35.95,61.32 C36.0625387,60.9805977 35.9854597,60.6069384 35.747798,60.3397759 C35.5101363,60.0726134 35.1479984,59.9525361 34.797798,60.0247759 C34.4475976,60.0970157 34.1625387,60.3505977 34.05,60.69 L33.05,63.69 C32.8760303,64.2146705 33.1603295,64.7810303 33.685,64.955 C34.2096705,65.1289697 34.7760303,64.8446705 34.95,64.32 Z M19.95,73.32 L20.95,70.32 C21.1239697,69.7953295 20.8396705,69.2289697 20.315,69.055 C19.7903295,68.8810303 19.2239697,69.1653295 19.05,69.69 L18.05,72.69 C17.9374613,73.0294023 18.0145403,73.4030617 18.252202,73.6702242 C18.4898637,73.9373867 18.8520016,74.057464 19.202202,73.9852242 C19.5524024,73.9129843 19.8374613,73.6594023 19.95,73.32 Z M22.95,64.32 L23.95,61.32 C24.0625387,60.9805977 23.9854597,60.6069384 23.747798,60.3397759 C23.5101363,60.0726134 23.1479984,59.9525361 22.797798,60.0247759 C22.4475976,60.0970157 22.1625387,60.3505977 22.05,60.69 L21.05,63.69 C20.8760303,64.2146705 21.1603295,64.7810303 21.685,64.955 C22.2096705,65.1289697 22.7760303,64.8446705 22.95,64.32 L22.95,64.32 Z M26.95,68.32 L27.95,65.32 C28.0625387,64.9805977 27.9854597,64.6069383 27.747798,64.3397758 C27.5101363,64.0726133 27.1479984,63.952536 26.797798,64.0247758 C26.4475976,64.0970157 26.1625387,64.3505977 26.05,64.69 L25.05,67.69 C24.9374613,68.0294023 25.0145403,68.4030617 25.252202,68.6702242 C25.4898637,68.9373867 25.8520016,69.057464 26.202202,68.9852242 C26.5524024,68.9129843 26.8374613,68.6594023 26.95,68.32 Z M37.95,73.32 L41.95,61.32 C42.0625387,60.9805977 41.9854597,60.6069384 41.747798,60.3397759 C41.5101363,60.0726134 41.1479984,59.9525361 40.797798,60.0247759 C40.4475976,60.0970157 40.1625387,60.3505977 40.05,60.69 L36.05,72.69 C35.9374613,73.0294023 36.0145403,73.4030617 36.252202,73.6702242 C36.4898637,73.9373867 36.8520016,74.057464 37.202202,73.9852242 C37.5524024,73.9129843 37.8374613,73.6594023 37.95,73.32 Z M43.95,73.32 L44.95,70.32 C45.0625387,69.9805977 44.9854597,69.6069383 44.747798,69.3397758 C44.5101363,69.0726133 44.1479984,68.952536 43.797798,69.0247758 C43.4475976,69.0970157 43.1625387,69.3505977 43.05,69.69 L42.05,72.69 C41.9374613,73.0294023 42.0145403,73.4030617 42.252202,73.6702242 C42.4898637,73.9373867 42.8520016,74.057464 43.202202,73.9852242 C43.5524024,73.9129843 43.8374613,73.6594023 43.95,73.32 Z M54.95,70.32 L55.95,67.32 C56.0625387,66.9805977 55.9854597,66.6069383 55.747798,66.3397758 C55.5101363,66.0726133 55.1479984,65.952536 54.797798,66.0247758 C54.4475976,66.0970157 54.1625387,66.3505977 54.05,66.69 L53.05,69.69 C52.9374613,70.0294023 53.0145403,70.4030617 53.252202,70.6702242 C53.4898637,70.9373867 53.8520016,71.057464 54.202202,70.9852242 C54.5524024,70.9129843 54.8374613,70.6594023 54.95,70.32 Z M49.95,73.32 L53.95,61.32 C54.0625387,60.9805977 53.9854597,60.6069383 53.747798,60.3397758 C53.5101363,60.0726133 53.1479984,59.952536 52.797798,60.0247758 C52.4475976,60.0970156 52.1625386,60.3505977 52.05,60.69 L48.05,72.69 C47.9374613,73.0294023 48.0145403,73.4030617 48.252202,73.6702242 C48.4898637,73.9373867 48.8520016,74.057464 49.202202,73.9852242 C49.5524024,73.9129843 49.8374613,73.6594023 49.95,73.32 L49.95,73.32 Z M74.59,30.92 C74.59,30.85 74.59,30.77 74.59,30.7 C74.7182739,23.8202076 69.249629,18.1367551 62.37,18 C58.0968284,18.0302757 54.1559401,20.3104426 52,24 C52.5695935,24.4237658 53.1076741,24.8883199 53.61,25.39 C55.8871667,27.7134646 57.3472156,30.7142862 57.77,33.94 C59.8346826,34.8096502 61.647089,36.1852907 63.04,37.94 C66.4496623,42.2460825 66.9649448,48.1698647 64.35,53 L72.26,53 C78.3000543,52.8579432 83.0950424,47.870977 83,41.83 C83.0689144,36.6820839 79.5859004,32.1636912 74.59,30.92 Z M64,46.47 C64.0293147,49.498814 62.8541645,52.4152062 60.7330978,54.5775314 C58.6120312,56.7398566 55.7188167,57.9709663 52.69,58 L23.24,58 C18.0854798,57.9450514 13.9500355,53.7245709 13.999552,48.57 C13.9797174,44.9145601 16.0716807,41.5759892 19.37,40 C19.3969693,35.2368297 23.237065,31.3744855 28,31.32 C29.061877,31.3232053 30.1136122,31.526767 31.1,31.92 C32.9040986,25.9336105 38.8053603,22.1582501 44.9966852,23.0295293 C51.1880101,23.9008084 55.8181297,29.158206 55.9,35.41 C60.7424662,36.9085682 64.0326297,41.4010631 64,46.47 Z M62.0002165,46.47 C62.0297193,42.0448037 58.9969777,38.1864593 54.69,37.17 L53.94,37 L53.94,36 C53.9516501,33.1026293 52.8196958,30.3176624 50.79,28.25 C48.802579,26.1863197 46.065034,25.0141166 43.2,25 C38.1372561,25.0360067 33.7777117,28.5809937 32.71,33.53 L32.42,34.84 L31.27,34.18 C28.658784,32.6824303 25.3642708,33.1477803 23.27,35.31 C21.9943996,36.5904601 21.2756702,38.3225979 21.27,40.13 C21.27,40.28 21.27,40.43 21.27,40.59 L21.27,41.34 L20.58,41.6 C18.2469112,42.5205376 16.5294307,44.547749 16.0047293,47.0003765 C15.4800278,49.453004 16.2177577,52.0054694 17.97,53.8 C19.3469266,55.2304411 21.2547123,56.0268602 23.24,56 L52.69,56 C55.1764137,55.9990245 57.5567996,54.9927704 59.29,53.21 C61.0422291,51.4056353 62.0154654,48.9851142 62.0002165,46.47 Z" id="â—-Pictogram"></path>
        </g>
    </g>
</svg>