<svg width="48" height="48" viewBox="0 0 48 48" xmlns="http://www.w3.org/2000/svg">
    <path d="M24 8c3.608 0 7.215.343 10.822 1.03a5.212 5.212 0 0 1 4.149 4.148 57.382 57.382 0 0 1 0 21.644 5.212 5.212 0 0 1-4.15 4.15A57.785 57.785 0 0 1 24.002 40c-3.608 0-7.215-.343-10.822-1.029a5.215 5.215 0 0 1-4.15-4.149 57.408 57.408 0 0 1 0-21.644 5.214 5.214 0 0 1 4.15-4.148A57.786 57.786 0 0 1 24 8zm8.498 8.353a1 1 0 0 0-.913.427l-8.876 12.477-6.535-4.647a1 1 0 1 0-1.16 1.63l7.35 5.227a.998.998 0 0 0 1.395-.235l9.455-13.292a1 1 0 0 0-.716-1.587z" fill-rule="evenodd" fill="#EA1B0A"/>
</svg>
