<svg width="48" height="48" viewBox="0 0 48 48" xmlns="http://www.w3.org/2000/svg">
    <path d="M24.05 8c3.6 0 7.3.3 10.8 1 2.1.4 3.8 2.1 4.2 4.2 1.4 7.1 1.4 14.5 0 21.6-.4 2.1-2.1 3.8-4.2 4.2-7.1 1.4-14.5 1.4-21.6 0-2.1-.4-3.8-2.1-4.2-4.2-1.4-7.1-1.4-14.5 0-21.6.4-2.1 2.1-3.8 4.2-4.2 3.5-.7 7.2-1 10.8-1zm0 2c-3.5 0-7 .3-10.5 1-1.2.3-2.3 1.3-2.5 2.6-1.3 6.9-1.3 14 0 20.9.3 1.2 1.3 2.3 2.6 2.5 6.9 1.3 14 1.3 20.9 0 1.2-.3 2.3-1.3 2.5-2.6 1.3-6.9 1.3-14 0-20.9-.2-1.2-1.2-2.3-2.5-2.5-3.5-.7-7-1-10.5-1zm8.419 5.607a1 1 0 0 1 .716 1.587L23.73 30.486a1 1 0 0 1-1.395.235l-7.35-5.227a1 1 0 1 1 1.16-1.63l6.535 4.647 8.876-12.477a1 1 0 0 1 .913-.427z" fill-rule="evenodd" fill="#EA1B0A"/>
</svg>
