<svg width="48" height="48" viewBox="0 0 48 48" xmlns="http://www.w3.org/2000/svg">
    <path d="M16.188 17.834a1 1 0 0 0-1.103-1.668c-2.726 1.803-5.275 4.02-7.624 6.63a1.853 1.853 0 0 0 .004 2.452 40.127 40.127 0 0 0 7.62 6.586 1 1 0 0 0 1.103-1.668 38.1 38.1 0 0 1-7.137-6.146c2.21-2.437 4.596-4.504 7.137-6.186zm15.26 12.332a1 1 0 1 0 1.104 1.668c2.721-1.8 5.27-4.017 7.623-6.629a1.854 1.854 0 0 0-.003-2.452 40.163 40.163 0 0 0-7.62-6.587 1 1 0 1 0-1.104 1.668 38.139 38.139 0 0 1 7.138 6.147c-2.214 2.44-4.6 4.507-7.138 6.185z" fill-rule="evenodd" fill="#EA1B0A"/>
</svg>
