<svg width="48" height="48" viewBox="0 0 48 48" xmlns="http://www.w3.org/2000/svg">
    <path d="M24 11c2.079 0 4.066.477 5.906 1.416a1.001 1.001 0 0 1-.91 1.781A10.887 10.887 0 0 0 24 13c-6.065 0-11 4.935-11 11s4.935 11 11 11 11-4.935 11-11c0-1.614-.341-3.169-1.015-4.622a1 1 0 0 1 1.815-.841A12.908 12.908 0 0 1 37 24c0 7.168-5.832 13-13 13s-13-5.832-13-13 5.832-13 13-13zm9.772 2.993a1 1 0 0 1 .235 1.394L24.552 28.68a.999.999 0 0 1-1.395.235l-4.905-3.488a1 1 0 1 1 1.159-1.63l4.09 2.908 8.877-12.477a.999.999 0 0 1 1.394-.235z" fill-rule="evenodd" fill="#EA1B0A"/>
</svg>
