<svg width="4800" height="1200" viewBox="0 0 4800 1200" xmlns="http://www.w3.org/2000/svg"><path d="M1500 1900a300 300 0 00300 300h1100a300 300 0 00300-300V300H1500v1600zm100-1500h1500v1500a200 200 0 01-200 200H1800a200 200 0 01-200-200V400zm450 1350h-150V650h150v1100zm750 0h-150V650h150v1100zm-375 0h-150V650h150v1100zM3200 50v50H1500V50a200 200 0 01200-200h400a100 100 0 01100-100h300a100 100 0 01100 100h400a200 200 0 01200 200zm250-50a50 50 0 01-100 0 300 300 0 00-300-300 50 50 0 010-100A400 400 0 013450 0zm500 0a50 50 0 01-100 0c0-441.85-358.15-800-800-800a50 50 0 010-100c497.05 0 900 402.95 900 900zm-250 0a50 50 0 01-100 0c0-303.75-246.25-550-550-550a50 50 0 010-100c359 0 650 291 650 650z" fill-rule="evenodd"/></svg>