<svg width="4800" height="1200" viewBox="0 0 4800 1200" xmlns="http://www.w3.org/2000/svg"><path d="M2050 800h700v300h-700V800zm0 700h700v-300h-700v300zm0-800h700V400h-700v300zm0-400h700V0h-700v300zm900 1161.5a238 238 0 01-238 238.5h-622a238 238 0 01-240-238.5v-1600a62.5 62.5 0 0162.5-61.5H2050v-184.5A115.5 115.5 0 012165.5-500h469a112.5 112.5 0 0184 39.5A126 126 0 012750-378v178h135a62.5 62.5 0 0165 62.5v1599zM2150-200h500v-182a16 16 0 00-15.5-18h-469a15.5 15.5 0 00-15.5 15.5V-200zm700 1661.5V-100h-900v1561.5a138.5 138.5 0 00140 138.5h622a138.5 138.5 0 00138-138.5z" fill-rule="evenodd"/></svg>