<svg width="4800" height="1200" viewBox="0 0 4800 1200" xmlns="http://www.w3.org/2000/svg"><path d="M846.5-200h3.5a253 253 0 00250-250 250 250 0 10-250 250h-3.5zm0-400A150 150 0 01955-554.5c28.65 27.2 44.9 65 45 104.5a152.5 152.5 0 01-150 150 150 150 0 01-104.5-45A150 150 0 01700-453.5 150 150 0 01850-600h-3.5zm300 1626v674a150 150 0 01-150 150H700a150 150 0 01-150-150v-658.5a286 286 0 00-9.5-95.5A137 137 0 01400 800V100a200 200 0 01200-200h459a273.5 273.5 0 00-47.5 100H600a100 100 0 00-100 100v700c0 27.5 8.5 44.5 50 44.5 100 0 100 137 100 195V1700a50 50 0 0050 50h300a50 50 0 0050-50V950a243.5 243.5 0 0093.5 74.5l3 1.5zM1300-450a250 250 0 11250 250 253 253 0 01-250-250zm-50 1400a153 153 0 01-150-145V92.5c0-124 69-192.5 193.5-192.5h500C1922-100 2000-28 2000 92.5V362c-70 137.5-160.5 319-192.5 384.5A675 675 0 001750 1075v54.5c0 189.5 4.5 383.5 93.5 488l6.5 7v69c0 88-65 150-165.5 156h-142c-63.5 0-126.5.5-142.5.5a150 150 0 01-150-156V950zm1413 600a300 300 0 11-600 0 300 300 0 01600 0zm1694.5-469c-31.5-63.5-150-161-243.5-247s-550-535.5-671.5-650-1126-75-1245-75 8.5 86-27.5 147-220 431-270 534-47 186-47 300-11 366.5 69.5 460.5c18 21.5 33.5 38 50 50A400 400 0 112751 1660l691 4.5a400 400 0 11758 7.5h10.5c94.5 0 189.5 3 189.5-138.5s-11-388.5-42.5-452.5zm-671-350c-240-35-768.5-104.5-950-111.5l-294-11 203-422c308.5 0 647.5 17.5 715 82S3602 505 3758 659.5c27.5 24.5 11 81-72 69.5l.5 2zm432.5 819a300 300 0 11-600 0 300 300 0 01600 0z" fill-rule="evenodd"/></svg>