<svg width="4800" height="1200" viewBox="0 0 4800 1200" xmlns="http://www.w3.org/2000/svg"><path d="M1013 2100a300 300 0 11-600 0 300 300 0 01600 0zm1694.5-469c31.5 63.5 42.5 311 42.5 450s-95.5 138.5-189.5 138.5H2550a400 400 0 10-762.5-3.5l-691-4.5a400 400 0 10-779-56.5c-14.5-14-29.5-31-50-50-78-96.5-67.5-346-67.5-462.5s-3-200 47-300S482.5 868 519 807s-91.5-147 27.5-147 1123-41.5 1245 75 577.5 565 672.5 649.5 212 183 243.5 246.5zm-600-423.5C1951.5 1053 1774 877 1710 816.5s-406.5-80.5-715-82l-203 422 294 11c179.5 6.5 708 76.5 950 111.5 83 11.5 99.5-45 73.5-71l-2-.5zM2169 1800a300 300 0 100 600 300 300 0 000-600zm2005-878h-142l43.5-235v-6.5a24.5 24.5 0 00-24-24.5h-1.5a26 26 0 00-17 9.5l-222 366a23 23 0 000 23.5 24 24 0 0021.5 11.5h139l-66 233.5a24.5 24.5 0 0013.5 29 25.5 25.5 0 0010.5 0 24.5 24.5 0 0020.5-10.5l245-364a23 23 0 000-24 24 24 0 00-21-8.5zm426 1428a50 50 0 01-50 50H3450a50 50 0 010-100h150V536c0-156.5 129-236 382.5-236h26.5c259.5 0 391 79.5 391 236v1764h150a50 50 0 0150 50zM4300 536c0-58.5-30-136-290.5-136H3983c-253.5 0-283 77.5-283 136v1764h600V536zm-803 467.5h-247c-38.55 0-75.5 15.5-102.5 43a154.5 154.5 0 00-50 106.5v900a50 50 0 01-11 36.5 55.5 55.5 0 01-36.5 10.5h-195v100h190.5a154 154 0 00109.5-37.5 143.5 143.5 0 0043-110v-900a62 62 0 0120-34.5 46.5 46.5 0 0131.5-15h247l.5-99.5z" fill-rule="evenodd"/></svg>