<svg width="4800" height="1200" viewBox="0 0 4800 1200" xmlns="http://www.w3.org/2000/svg"><path d="M2446.5 1050H2200a145 145 0 00-100 45 154.5 154.5 0 00-50 105v877.5a50 50 0 01-11 36.5 55.5 55.5 0 01-38 11h-151v-25c-3.5-121-125-200-241.5-200H1430a50 50 0 00-50 53v47h-121.5a30 30 0 00-30 30v39.5a30 30 0 0030 30H1379v150h-119.5a30 30 0 00-30 30v38a30 30 0 0030 30h119v50a54.5 54.5 0 0050 54h178c117-1.5 243.5-118 243.5-201.5v-25h145a150 150 0 00109.5-37.5 143.5 143.5 0 0043-110V1200a62 62 0 0120-34.5 46.5 46.5 0 0132.5-15.5h247l-.5-100zm-687 1150a135.5 135.5 0 01-41 112.5 154.5 154.5 0 01-110.5 38h-122.5a6 6 0 01-6-6V2005a6 6 0 016-6h123a166 166 0 01114.5 40.5 130.5 130.5 0 0137 110l-.5 50.5zM3142 984.5a23 23 0 010 24l-245 364a24.5 24.5 0 01-20.5 10.5 25.5 25.5 0 01-10.5 0 24.5 24.5 0 01-16-33l65-235h-137.5a24 24 0 01-21.5-11.5 23 23 0 010-23.5l222-366a26.5 26.5 0 016-5.5 23.5 23.5 0 0111-4h5a24.5 24.5 0 0124 24.5v6.5l-43.5 235h142a24 24 0 0119.5 14zM3500 2350h-150V586c0-150-118-227-350-235V-672c0-264-172.5-428-450-428H1522.5c-72.5 0-122.5 63.5-122.5 150s50 150 122.5 150H1700v125a225 225 0 10450 0v-125h181.5a110.5 110.5 0 0094.5-50 168.5 168.5 0 0024-93.5 200 200 0 00-6.5-56.5H2550c222.5 0 350 119.5 350 328V350c-232 6.5-350 85.5-350 235.5V2350h-150a50 50 0 000 100h1100a50 50 0 000-100zM2050-675a125 125 0 11-250 0v-125h250v125zm292.5-231.5a11 11 0 01-11 6.5H1523c-15.5 0-22.5-29.5-22.5-50s10.5-50 22-50H2326c13 0 25.5 27.5 25.5 56.5a71 71 0 01-9 37zM3250 2350h-600V586c0-58.5 29.5-136 282.5-136h26.5c261 0 291 77.5 291 136v1764z" fill-rule="evenodd"/></svg>