<svg width="4800" height="1200" viewBox="0 0 4800 1200" xmlns="http://www.w3.org/2000/svg"><path d="M1646.5 350h3.5a253 253 0 00250-250 250 250 0 10-250 250h-3.5zm0-400A150 150 0 011755-4.5a145 145 0 0145 104.5 152.5 152.5 0 01-150 150 150 150 0 01-104.5-45A150 150 0 011500 96.5 150 150 0 011650-50h-3.5zM2400-600v-536.5a110.5 110.5 0 01115-113.5h976a100 100 0 01109 108v241.5h-264c-109 0-141 79.5-137 165 3.5 74 0 139 0 213.5v22h-237.5c-11 0-24 15-31.5 22.5a26211 26211 0 00-204.5 204A58 58 0 012661-255a56 56 0 01-36-58.5V-499h-125a95.5 95.5 0 01-100-101zm1750 257a83.5 83.5 0 01-90.5 89h-346a50 50 0 00-37.5 15.5c-42 42.5-84.5 84-127 126a54.5 54.5 0 01-99-37.5v-100h-55a84 84 0 01-95-95.5V-709a83.5 83.5 0 0191.5-91h665a84 84 0 0193.5 90.5V-342v-1zM3050-150a250 250 0 00-250 250 253 253 0 00250 250h3a250 250 0 000-500h-3zm105.5 355a150 150 0 01-105.5 45 150 150 0 01-150-150 145 145 0 0142.5-104A150 150 0 013050-50a150 150 0 01107 255h-1.5zM1950 1595.5V2250a150 150 0 01-150 150h-300a150 150 0 01-150-150v-660a286 286 0 00-9.5-95.5A137 137 0 011200 1350V650a200 200 0 01200-200h459a265.5 265.5 0 00-47.5 100H1400a100 100 0 00-100 100v700c0 27.5 8.5 44.5 50 44.5 100 0 100 137 100 195V2250a50 50 0 0050 50h300a50 50 0 0050-50v-753a243.5 243.5 0 0093.5 74.5c1.25 8.2 3.4 16.25 6.5 24zM3500 650v700a137 137 0 01-141 144.5 285.5 285.5 0 00-9 95.5v660a150 150 0 01-150 150h-300a150 150 0 01-150-150v-681a271.5 271.5 0 00100-80v761a50 50 0 0050 50h300a50 50 0 0050-50v-660c0-58.5 0-195 100-195 41.5 0 50-17 50-44.5V650a100 100 0 00-100-100h-411.5a266 266 0 00-50-100H3300a200 200 0 01200 200zm-850 850a247 247 0 000 64.5v678c0 88-65 150-165.5 156h-142c-63.5 0-126.5 1.5-142.5 1.5a150 150 0 01-150-156v-678a250 250 0 000-66 150 150 0 01-150-145V641c0-124 69-191 193.5-191h500c128.5 0 206.5 70.5 206.5 191v712a150 150 0 01-150 147zM2100 100a250 250 0 11253.5 250A253 253 0 012100 100z" fill-rule="evenodd"/></svg>