<svg width="4800" height="1200" viewBox="0 0 4800 1200" xmlns="http://www.w3.org/2000/svg"><path d="M2250-50h2.5a250 250 0 000-500 250 250 0 00-250 250A253 253 0 002250-50zm-108-354.5a150 150 0 01108-45.5 150 150 0 11-150 150 144.5 144.5 0 0142.5-104.5h-.5zM1250 400h2.5a250 250 0 000-500 250 250 0 00-250 250A253 253 0 001250 400zM1142 45.5A150 150 0 011250 0a150 150 0 11-150 150 144.5 144.5 0 0142.5-104.5h-.5zM3050-300a250 250 0 11253.5 250A253 253 0 013050-300zm474 1543.5a144 144 0 0076-18.5v618.5c0 86.5-67.5 150-168.5 156H3145a143 143 0 01-145-156v-678a250 250 0 000-65.5 150 150 0 01-150-145V243c0-125.5 66-193 190.5-193h495C3668 50 3750 124.5 3750 243v543a293.5 293.5 0 00-56.5-8h-12a306 306 0 00-305.5 305.5v12.5a150 150 0 00148 148v-.5zm357.5-156.5v866.5a47 47 0 11-93.5 0v-867a110 110 0 00-100-113h-5c-27.55 0-54 11-73.5 30.5a110 110 0 00-33 79.5v13a47 47 0 11-93.5 0V1084a208 208 0 0161.5-150 195 195 0 01138.5-57.5h8a208 208 0 01191 211l-.5-.5zM2500 50h-500a200 200 0 00-200 200v700a137 137 0 00141 144.5 286 286 0 019 95.5v660a150 150 0 00150 150h300a150 150 0 00150-150v-660a286 286 0 019.5-95.5A137 137 0 002700 950V250a200 200 0 00-200-200zm100 900c0 27.5-8.5 44.5-50 44.5-100 0-100 137-100 195V1850a50 50 0 01-50 50h-300a50 50 0 01-50-50v-660c0-58.5 0-195-100-195-41.5 0-50-17-50-44.5V250a100 100 0 01100-100h500a100 100 0 01100 100v700zM1450 500h-400a200 200 0 00-200 200v450a137 137 0 00141 144.5c4.5 11 9.5-3 9.5 55.5v500a150 150 0 00150 150h200a150 150 0 00150-150v-500c0-58.5 4.5-44.5 9.5-55.5a137 137 0 00140-144.5V700a200 200 0 00-200-200zm100 650c0 27.5-8.5 44.5-50 44.5-100 0-100 97-100 155.5v500a50 50 0 01-50 50h-200a50 50 0 01-50-50v-500c0-58.5 0-155.5-100-155.5-41.5 0-50-17-50-44.5V700a100 100 0 01100-100h400a100 100 0 01100 100v450z" fill-rule="evenodd"/></svg>