<svg width="4800" height="1200" viewBox="0 0 4800 1200" xmlns="http://www.w3.org/2000/svg"><path d="M3800-250v-240a110 110 0 00-110.5-110H3600v-200a50 50 0 00-50-50h-50a50 50 0 00-50 50v200h-200v-200a50 50 0 00-50-50h-50a50 50 0 00-50 50v200h-90a110 110 0 00-110 110v240a350 350 0 00350 350h50v155.5A144.5 144.5 0 003445.5 400H3550a50 50 0 0150 50v200a50 50 0 00100 0V450a150 150 0 00-150-150h-104.5a45 45 0 01-44.5-44.5V100h50a350 350 0 00349-350zM3250 0a250 250 0 01-250-250v-240c0-5.5 4.5-10 10-10h679.5a10.5 10.5 0 0110.5 10v240A250 250 0 013450 0h-200zM1763 1700a300 300 0 11-600 0 300 300 0 01600 0zm1694.5-469c-31.5-63.5-150-161-243.5-247s-550-535.5-671.5-650-1126-75-1245-75 8.5 86-27.5 147-220 431-270 534-47 186-47 300-11 366.5 69.5 460.5c18 21.5 33.5 38 50 50A400 400 0 111851 1810l691 4.5a400 400 0 11758 7.5h10.5c94.5 0 189.5 3 189.5-138.5s-11-388.5-42.5-452.5zm-671-350c-240-35-768.5-104.5-950-111.5l-294-11 203-422c308.5 0 647.5 17.5 715 82S2702 655 2858 809.5c27.5 24.5 11 81-72 69.5l.5 2zm432.5 819a300 300 0 11-600 0 300 300 0 01600 0z" fill-rule="evenodd"/></svg>