<svg width="4800" height="1200" viewBox="0 0 4800 1200" xmlns="http://www.w3.org/2000/svg"><path d="M1850 100h-400v500h400V100zm-100 400h-200V200h200v300zm650-400h-400v500h400V100zm-100 400h-200V200h200v300zm650-400h-400v500h400V100zm-100 400h-200V200h200v300zm-450 300h-400v500h400V800zm-100 400h-200V900h200v300zm-450-400h-400v500h400V800zm-100 400h-200V900h200v300zm1200-400h-400v500h400V800zm-100 400h-200V900h200v300zm597-2113a23.5 23.5 0 010 24.5l-250 372a25 25 0 01-21 11 26 26 0 01-10.5 0A25 25 0 013152-535l66-240h-143a24.5 24.5 0 01-21.5-12 23 23 0 010-24l226.5-374a25 25 0 0117.5-9.5h2.5a25 25 0 0124.5 25v6.5L3280-923h145a24.5 24.5 0 0122 10zm-197-537c-331.35 0-600 268.65-600 600H1100a50 50 0 00-50 50v700a50 50 0 0050 50h100v2150a250 250 0 00250 250h1500a250 250 0 00250-250V-50h100a50 50 0 0050-50v-159a600 600 0 00-100-1191zm-400 3700h-250v-450h250v450zm250-150a150 150 0 01-150 150v-550h-450v550H1450a150 150 0 01-150-150V-50h1800v2150zm250-2461.5c-16 3.35-32.65 5.85-50 7.5-16.6 2.15-33.3 3.5-50 4a500 500 0 11100-10v-1.5z" fill-rule="evenodd"/></svg>