<svg width="4800" height="1200" viewBox="0 0 4800 1200" xmlns="http://www.w3.org/2000/svg"><path d="M3700 1650a50 50 0 01-50 50H1150a50 50 0 010-100h2500a50 50 0 0150 50zm0-2050v1750a100 100 0 01-100 100H1200a100 100 0 01-100-100V-400a100 100 0 01100-100h2400a100 100 0 01100 100zm-100 0H1200v1750h2400V-400zM1400 1250h-100V-300h2200v1550h-100V550l-300 100-325-400-325 500-350-250-350 150-350-288.5V1250zM3200-31a9 9 0 008 4.5h95.5l-41.5 150a9 9 0 005 10.5h4a9 9 0 007.5-4l150-214.5a9 9 0 00-7.5-14h-94l25-141a9 9 0 00-9-9h-4l-139 208a9 9 0 000 9.5zm-850-69h300v-100h-300v100zm-300 0h200v-100h-200v100zm-650 0h550v-100h-550v100z" fill-rule="evenodd"/></svg>