<svg width="4800" height="1200" viewBox="0 0 4800 1200" xmlns="http://www.w3.org/2000/svg"><path d="M3307-550a50 50 0 010-100 400 400 0 01400 400 50 50 0 01-100 0 300 300 0 00-300-300zm0-600a50 50 0 000 100c441.85 0 800 358.15 800 800a50 50 0 00100 0c0-497.05-402.95-900-900-900zm0 250a50 50 0 000 100c303.75 0 550 246.25 550 550a50 50 0 00100 0c0-359-291-650-650-650zM1890.5-500a62 62 0 013.5-44 1020 1020 0 01138.5-215.5 41 41 0 0162.5 53 900 900 0 00-81 115A1250 1250 0 013623.5 392a50 50 0 01-41 58h-8.5a50 50 0 01-50-42 1147.5 1147.5 0 00-1490.5-900c44.9 22.6 91.5 41.5 139.5 56.5a41 41 0 01-23 77.5 1022 1022 0 01-232.5-106.5 62 62 0 01-27-35.5zm-321 1680a41 41 0 00-32 50 922 922 0 0118 159 1150 1150 0 01182-1734l50-32a50.062 50.062 0 00-56-83l-50 31A1250 1250 0 001470 1444a890.5 890.5 0 01-131.5-16 41.037 41.037 0 00-16 80.5c65.85 13.25 132.85 19.8 200 19.5h58a62 62 0 0058.5-58.5 1020.5 1020.5 0 00-18.5-255 41 41 0 00-51-34.5zM3258 600a868 868 0 01-12 136.5c0 12-3.5 24-6 36V795a865 865 0 01-713.5 662.5l-23.5 3h-8a862 862 0 01-105 7.5 721.5 721.5 0 01-87-6.5h-3l-32-4.5h-8.5a838.5 838.5 0 01-381.5-164.5 853.5 853.5 0 01-331.5-550c0-9.65-1.5-19.5-4.5-29.5v-7a800 800 0 01-10-106v-33c0-35 6-71 11-103v-4.5A829 829 0 011693 99a850 850 0 01567-345.5 905.5 905.5 0 01134-11c43 .3 86 3.8 128.5 10.5 18 0 35.5 5 53 8.5h3.5a839 839 0 01361 176 850 850 0 01304.5 524 40 40 0 010 4.5c7.8 44.25 12.35 89.05 13.5 134zM2231-79a650 650 0 00-117.5 205.5A1584 1584 0 002350 150v-310.5A250 250 0 002231-79zM1865 44.5c49.7 27 102.65 47.7 157.5 61.5A800 800 0 012150-126.5a755 755 0 00-285 171zm-240 514h317.5a1527.5 1527.5 0 0150-365l-23-7.5c-25.5-8.5-50-16-74.5-26s-50-22-74-34.5l-21-12a771 771 0 00-175 445zm368 460l-10-50c-9-43.5-18-88.5-24.5-133s-8.5-92-14-135.5c0-15.65-1.35-31.35-4-47H1625a774.5 774.5 0 00178 450 700 700 0 01190-84.5zm161 321a511.5 511.5 0 01-69-100c-17-32.5-32.5-66-50-100l-16.5-35a634 634 0 00-154.5 62 850 850 0 00290 173zm196-280a1495.5 1495.5 0 00-235.5 24 750 750 0 0067.5 138 392 392 0 00108.5 119.5 200 200 0 0060 29l-.5-310.5zm0-409.5h-317a1413.5 1413.5 0 0050 345.5 1625.5 1625.5 0 01267-26.5V650zm0-410.5a1665.5 1665.5 0 01-265.5-27.5 1400 1400 0 00-50 345.5H2350v-318zm291-367A800 800 0 012768.5 105a667 667 0 00158-61.5 765 765 0 00-285.5-170v-1zM2441 149a1539 1539 0 00235.5-23.5 680.5 680.5 0 00-100-185A293 293 0 002465-150c-7.5-3.5-15.5-6-23.5-8.5L2441 149zm0 408.5h316.5a1410.5 1410.5 0 00-50-345.5 1662 1662 0 01-264.5 27.5l-2 318zm0 409.5h33.5c32.5 0 66 4 100 7.5s68.5 8.5 100 13.5l31 4.5a1406.5 1406.5 0 0050-345h-314L2441 967zm112 327.5a629 629 0 00123.5-212 1595.5 1595.5 0 00-234-24V1370a245 245 0 00111-74.5l-.5-1zm371-129a633.5 633.5 0 00-156-62 794 794 0 01-127.5 231.5 763.5 763.5 0 00284-168.5l-.5-1zM3166.5 650H2850a1523 1523 0 01-50 366l23 7.5c24.5 8 50 16.5 74.5 26.5s50 22.5 73 35l23 11.5a770.5 770.5 0 00173-446.5zm0-92A775 775 0 002990 111.5a731.5 731.5 0 01-193.5 80 1527 1527 0 0153.5 367l316.5-.5zM3774 775a1014 1014 0 00-156-203.5 62 62 0 00-82.5-5 1025 1025 0 00-179 183.5 41.201 41.201 0 1065.5 50 920 920 0 01105-116.5c-34.15 612.15-550.2 1085.35-1163 1066.5a1141.5 1141.5 0 01-569.5-166.5c-17-10.5-27.5-16.5-33.5-20.5a50 50 0 00-68.5 12.5 50 50 0 0013 69.5c10 7 20 14 40.5 26a1245.5 1245.5 0 00615.5 179c661.15 20.05 1219.65-486.55 1264-1146.5A892.5 892.5 0 013703 816a41 41 0 0071-41z" fill-rule="evenodd"/></svg>