<svg width="4800" height="1200" viewBox="0 0 4800 1200" xmlns="http://www.w3.org/2000/svg"><path d="M1713 200h3a253 253 0 00250-250 250 250 0 10-250 250h-3zm0-400a150 150 0 01108.5 45.5 145 145 0 0145 104.5 152.5 152.5 0 01-150 150A150 150 0 011612 55a150 150 0 01103-255h-2zm1400 400h3a250 250 0 000-500 250 250 0 00-250 250 253 253 0 00251.5 250h-4.5zm-108-354.5a150 150 0 01113-45.5 150 150 0 01.5 300 150 150 0 01-150-150 145 145 0 0141-105.5l-4.5 1zM2145.5-50A250 250 0 112400 200a254.5 254.5 0 01-254.5-250zM1950 489.5c0-124 70.5-192.5 200-192.5h500c127 0 200 70 200 192.5V1200c0 9.95-1.2 19.85-3.5 29.5C2563 1117.5 2315 1020 2063 922a688 688 0 00-113-31.5v-401zm-583.5 600l-100 78.5V500a200 200 0 01200-200H1912a264.5 264.5 0 00-50 100h-395.5a100 100 0 00-100 100v589.5zM2888 300h479a200 200 0 01200 200v419.5L3467 977V500a100 100 0 00-100-100h-429a264.5 264.5 0 00-50-100zm1107 779.5a260.5 260.5 0 01-81.5 125.5c-303.5 245-610 486.5-913.5 728.5a523.5 523.5 0 00-43.5 35 356 356 0 01-257 111.5 482.5 482.5 0 01-137-21.5c-250-74-500-130.5-750-200a300 300 0 00-80-12.5 191 191 0 00-136 57.5c-59.5 55.5-124.5 104.5-187 153l-110 89.5a87 87 0 01-122-6.5l-333.5-400a87 87 0 0118.5-121L920 1572l15.5-11.5 64.5-60.5a100 100 0 0120.5-12.5l78-61.5c142.5-110.5 284.5-222.5 426-334a494 494 0 01310-115.5A532 532 0 012028 1015c300 117 601 235.15 903 354.5a162.5 162.5 0 01106 213.5 153 153 0 01-150 103 217 217 0 01-78.5-15.5c-187-70.5-373.5-145-561.5-217.5a107.5 107.5 0 00-38.5-7 100 100 0 00-25.5 3c-10.5 2.5-25 31.5-21 39 11 21.5 28.5 39 50 50 150 62 304.5 120.5 457.5 180.5 38.5 15 77 30.5 116 45a296.5 296.5 0 00100 19 250 250 0 00200-100 250 250 0 002.5-306.5c-21.5-31.5-29-50 10.5-73.5 220-125.5 438-253.5 658-379a185 185 0 0193.5-27 131.5 131.5 0 0179.5 27.5 144.5 144.5 0 0165.5 155.5z" fill-rule="evenodd"/></svg>