<svg width="4800" height="1200" viewBox="0 0 4800 1200" xmlns="http://www.w3.org/2000/svg"><path d="M3285.5-481.5L2057.5-950v-278a50 50 0 00-100 0v239l-150-57.5V-1526a50 50 0 00-100 0v441l-221-84.5a100 100 0 00-136.5 94V2500a250 250 0 00250 250h1500a250 250 0 00250-250V-388a100 100 0 00-64.5-93.5zM3250 2500a150 150 0 01-150 150H1600a150 150 0 01-150-150v-3575.5L3250-388v2888zm-950-1418.5v-100a50 50 0 01100 0v100a50 50 0 01-100 0zm500 350h100a50 50 0 010 100h-100a50 50 0 010-100zM2618 1214a50 50 0 010-71l71-70.5a50.028 50.028 0 0170.5 71l-71 70.5a50 50 0 01-70.5 0zm-671.5-72a50.028 50.028 0 0171-70.5l70.5 71a50.028 50.028 0 11-71 70.5l-70.5-71zm103.5 639.5h-50a50 50 0 000 100h150v350a50 50 0 00100 0v-350h200v250a50 50 0 00100 0v-250h150a50 50 0 000-100h-50V1550a300 300 0 00-600 0v231.5zm100-231.5a200 200 0 11400 0v233.5h-400V1550zm-400-66a50 50 0 0150-50h100a50 50 0 010 100h-100a50 50 0 01-50-52v2z" fill-rule="evenodd"/></svg>