<svg width="4800" height="1200" viewBox="0 0 4800 1200" xmlns="http://www.w3.org/2000/svg"><path d="M3570.5 373.5l-70.5-71V-806a100 100 0 00-100-100h-200a100 100 0 00-100 100v790l-637-517.5a100 100 0 00-163 77.5v239l-386.5-316.5A100 100 0 001750-456v239l-386.5-316.5A100 100 0 001200-456v3106a100 100 0 00100 100h2200a100 100 0 00100-100V444a100 100 0 00-29.5-70.5zM3500 2650H1300V-456L1850-6v-450L2400-6v-450l800 650V-806h200V344l100 100v2206zM2343 1075.5v-100a50 50 0 01100 0v100a50 50 0 01-100 0zm650 400a50 50 0 01-50 50h-100a50 50 0 010-100h100a50 50 0 0151.5 49l-1.5 1zM2661 1208a50 50 0 010-71l71-70.5a50.028 50.028 0 0170.5 71l-71 70.5a50 50 0 01-70.5 0zm-670-72a50.028 50.028 0 1171-70.5l70.5 71a50.028 50.028 0 01-71 70.5l-70.5-71zm753 639.5h-50v-233a300 300 0 10-600 0V1776h-50a50 50 0 000 100h150v350a50 50 0 00100 0v-350h200v250a50 50 0 00100 0v-250h150a50 50 0 000-100v-.5zm-150 0h-400v-233a200 200 0 11400 0v233zm-600-300a50 50 0 01-50 50h-100a50 50 0 010-100h100a50 50 0 0150 50z" fill-rule="evenodd"/></svg>