<svg width="4800" height="1200" viewBox="0 0 4800 1200" xmlns="http://www.w3.org/2000/svg"><path d="M1850 900a71.5 71.5 0 00-68.5-50h-962a71.5 71.5 0 00-69.5 50l-250 758.5a70.5 70.5 0 0010 62.5c13.7 18.6 35.4 29.5 58.5 29.5H700V2250a100 100 0 00100 100h1000a100 100 0 00100-100v-500h128.5a72 72 0 0059.5-28.5 65.5 65.5 0 009-59.5l-247-762zm-250 1350h-150v-300h150v300zm200 0h-100v-400h-350v400H800v-500h1000v500zM611 1650l229-700h920.5l227.5 700H611zM1671.5-400H1800v500a100 100 0 00100 100h1000a100 100 0 00100-100v-500h127a72 72 0 0059.5-28.5 65.5 65.5 0 009-59.5L2950-1250a71.5 71.5 0 00-68.5-50h-962a71.5 71.5 0 00-69.5 50l-250 758.5a70.5 70.5 0 0010 62.5c14.4 19.3 37.5 30.15 61.5 29zM2700 100h-150v-300h150v300zm200 0h-100v-400h-350v400h-550v-500h1000v500zm-960.5-1300H2860l227.5 700H1711l228.5-700zM4297 1662l-247-762a71.5 71.5 0 00-68.5-50h-962a71.5 71.5 0 00-69.5 50l-250 758.5a70.5 70.5 0 0010 62.5c13.7 18.6 35.4 29.5 58.5 29.5H2900V2250a100 100 0 00100 100h1000a100 100 0 00100-100v-500h127a72 72 0 0059.5-28.5 65.5 65.5 0 0010.5-59.5zm-497 588h-150v-300h150v300zm200 0h-100v-400h-350v400h-550v-500h1000v500zm-1188.5-600L3040 950h920.5l227.5 700H2811.5zm-492-1294.5a50 50 0 010 70.5L2000 744.5a50 50 0 01-70.5-70.5L2250 355.5a50 50 0 0169.5 0zm232 0l318 318a50 50 0 11-69.5 71l-318-318a50 50 0 0168-71h1.5zM2675 950h-550a50 50 0 010-100h550a50 50 0 010 100z" fill-rule="evenodd"/></svg>