<svg width="4800" height="1200" viewBox="0 0 4800 1200" xmlns="http://www.w3.org/2000/svg"><path d="M3200 2700h-200V1097c0-84.5-67.5-130-146-143V-423.5c-4-263-180.5-426.5-458-426.5H1372c-72 0-122 63.5-122 150s50 150 122.5 150H1550v125a225 225 0 10450 0v-125h181.5a110.5 110.5 0 0094.5-50 168.5 168.5 0 0024-93.5 200 200 0 00-7-56.5h103c223 0 353.5 120 358 327.5v1007a200 200 0 00-108-34.5h-218l58.5-25a100 100 0 0053-131l-100-230a100 100 0 00-131-53L1925 273.5a100 100 0 00-56.5 119.5l-90 14.5A96.5 96.5 0 001712 453a84.5 84.5 0 000 76.5l59 138.5c9.65 25.5 30.8 45 57 52.5 6.85 1.9 13.9 2.95 21 3a105.5 105.5 0 0059.5-20.5l71-53a100 100 0 00123.5 38.5l89-38.5h458a100 100 0 0162.5 27 167 167 0 0137.5 123v154c-79.5 12.5-150 58-150 143v1603h-200a50 50 0 000 100h800a50 50 0 000-100zM1900-425a125 125 0 11-250 0v-125h250v125zm292.5-231.5a11 11 0 01-11 6.5H1373c-15.5 0-22.5-29.5-22.5-50s10.5-50 22-50H2176c13 0 25.5 27.5 25.5 56.5a71 71 0 01-9 37zM1858.5 616L1811 504.5l100-16 28.5 67-81 60.5zm205.5-20l-100-230 386-163 100 230-386 163zm636 501c0-47 91-47 95-47h11.5c4 0 94 0 94 47v1603H2700V1097z" fill-rule="evenodd"/></svg>