<svg width="4800" height="1200" viewBox="0 0 4800 1200" xmlns="http://www.w3.org/2000/svg"><path d="M3700 1650a50 50 0 01-50 50H1150a50 50 0 010-100h2500a50 50 0 0150 50zm0-2050v1750a100 100 0 01-100 100H1200a100 100 0 01-100-100V-400a100 100 0 01100-100h2400a100 100 0 01100 100zm-100 0H1200v1750h2400V-400zM1693 469h-17c0 24.5-14.8 46.65-37.5 56l6.5 16c29.05-12.1 48-40.5 48-72zm1807 781H1300V-300h2200v1550zM1900 600h600V300h-600v300zM1505 0a8 8 0 007 4.5h88L1562.5 140a8 8 0 004.5 9.5h3.5a8 8 0 006.5-3.5l136-196a8 8 0 00-6.5-13H1619l22.5-127.5a8 8 0 00-8-8h-4L1508-12.5a8 8 0 00-3 12.5zm0 472.5a102.5 102.5 0 00205 0c0-45.5-66-150-92-191a12.5 12.5 0 00-21 0c-26.5 39.5-92.5 144.5-92.5 190l.5 1zm216.5 436a185.5 185.5 0 00-34-100 321.5 321.5 0 00-83-85 11.5 11.5 0 00-6.5 0h-5a11.5 11.5 0 00-6 10c0 17.45-4.3 34.6-12.5 50a309.5 309.5 0 01-46 58 169 169 0 00-21.5 29 73 73 0 00-9.5 35.5 120 120 0 0032.5 83 109.5 109.5 0 0079.5 34.5A109.5 109.5 0 001689 989a120 120 0 0032.5-81.5v1zM2950 750H1900v300h1050V750zm350-900H1900v300h1400v-300zM1600 742.5a123.5 123.5 0 01-14 50 250 250 0 01-39 50l-9 10a155 155 0 00-19.5 26.5 56.5 56.5 0 00-7.5 28 103.5 103.5 0 0028 72c10 10.65 22.3 18.9 36 24a35.5 35.5 0 01-12.5-26c0-23.5 25-46.5 20-71a33.5 33.5 0 0118 29c0 24 40-22 29-76.5A125 125 0 011667 942a83.5 83.5 0 01-22 58 95 95 0 0032-22.5 103.5 103.5 0 0028.5-72A170 170 0 001674 816a307.5 307.5 0 00-74-73.5z" fill-rule="evenodd"/></svg>