<svg width="4800" height="1200" viewBox="0 0 4800 1200" xmlns="http://www.w3.org/2000/svg"><path d="M3924-579l-87-50a255.5 255.5 0 00-84-125v-155.5c0-267-53-637-160.5-637s-160.5 370-160.5 637v156a255.5 255.5 0 00-84 124l-88.5 50C3028.5-446 2734.5-215 2788-122a83 83 0 0077 30.5c128 0 376-106.5 555-209.5l50-29 14 6.5a50 50 0 00-6 19.5l-96.5 1350a50 50 0 0050 53.5H3753a50 50 0 0050-53.5l-96-1350a50 50 0 00-6-19.5l13-6 50 29C3942.5-197.5 4190.5-91 4319-91a83 83 0 0077-30.5C4450-214 4155-445 3924-579zm-554.5 192a1756 1756 0 01-450 190 1743 1743 0 01390-295l30.5-17.5a254.5 254.5 0 0050 111.5l-20.5 11zm162-522.5A1739.5 1739.5 0 013592-1395a1740 1740 0 0160.5 485.5v106a234.5 234.5 0 00-121.5 0l.5-106zM3592-400a157.003 157.003 0 112-314 157.003 157.003 0 01-2 314zm221 10.5l-18.5-10.5a254.5 254.5 0 0050-111l29.5 17a1742 1742 0 01389.5 295A1754.5 1754.5 0 013813-387v-2.5zM2374-79l-87-50a255.5 255.5 0 00-84-125v-155.5c0-267-53-637-160.5-637s-160.5 370-160.5 637v156a255.5 255.5 0 00-84 124l-88.5 50C1478.5 54 1184.5 285 1238 378a83 83 0 0077 30.5c128 0 376-106.5 555-209.5l50-29 13.5 7a50 50 0 00-5.5 19l-36 504h300l-36-503.5a50 50 0 00-5.5-19l12.5-6.5 50 29c178.5 103 426.5 209.5 555 209.5a83 83 0 0077-30.5c55-93-240-324-471-458zm-554.5 192a1756 1756 0 01-450 190 1743 1743 0 01390-295L1790-9.5a254.5 254.5 0 0050 111.5l-20.5 11zm162-522.5A1739.5 1739.5 0 012042-895a1740 1740 0 0160.5 485.5v106a234.5 234.5 0 00-121.5 0l.5-106zM2042 100a157.003 157.003 0 112-314 157.003 157.003 0 01-2 314zm221 10.5l-18.5-10.5a254.5 254.5 0 0050-111L2324 6a1742 1742 0 01389.5 295A1754.5 1754.5 0 012263 113v-2.5zM2750 2650a50 50 0 01-50 50H600a50 50 0 010-100h2100a50 50 0 0150 50zM650 2500h2000a100 100 0 00100-100V900a100 100 0 00-100-100H650a100 100 0 00-100 100v1500a100 100 0 00100 100zm0-1600h2000v1500H650V900zm100 1400h100v-716.5l266.5 250 283.5-126 274 186 274-403 274 341 228-93V2300h100V1000H750v1300zm1543-1056.5l112.5-172.5h3.5a7.5 7.5 0 017.5 7.5L2400 1195h81a7.5 7.5 0 016 12l-127.5 180a7.5 7.5 0 01-6 3h-3.5a7.5 7.5 0 01-4-9l35-125.5h-81a7.5 7.5 0 01-6.5-4 7.5 7.5 0 01-.5-8zM1650 1100h250v100h-250v-100zm-250 0h168v100h-168v-100zm-550 0h462v100H850v-100zm2700 100h100v300a200 200 0 01-200 200h-600v-100h600a100 100 0 00100-100v-300z" fill-rule="evenodd"/></svg>