<svg width="4800" height="1200" viewBox="0 0 4800 1200" xmlns="http://www.w3.org/2000/svg"><path d="M3383.5 1331.5a65.5 65.5 0 010 87 742.5 742.5 0 01-142 123.5 50 50 0 01-55-83.5 629.5 629.5 0 00100-83.5 640 640 0 00-100-83 50.15 50.15 0 1155.5-83.5 750 750 0 01141.5 123zm-405.5-109a50 50 0 00-69.5-14 750 750 0 00-142 123.5 65 65 0 000 87 745.5 745.5 0 00142 123 50 50 0 0055-83.5 643 643 0 01-100-83 635 635 0 01100-83.5 50 50 0 0014.5-69.5zM3166.5-86L3082 50h85l-.5-136zM1950 107v455a450 450 0 01139.5 57.5L2411 300a900 900 0 00-461-193zm338.5 793h455A900 900 0 002550 439l-321.5 321.5a450 450 0 0160 139.5zM750-350h2700v1400H750V-350zm2241.5 470h175v73.5h87.5V120h40.5V50H3254v-250h-92.5l-170 258v62zm-154-53.5c0 36.5-15.5 60-50 60-28.5 0-50-14-50-41H2650c0 64.5 42.5 114.5 135.5 114.5A129 129 0 002928 67.5 117 117 0 002804-62c-17.2 0-34.25 3.5-50 10.5l9-77.5h146v-71h-215.5L2668 16.5l68.5 12a74.5 74.5 0 0150-17.5 50 50 0 0151 55.5zm-282 300l-390 388.5a400 400 0 0181 195h550a944.5 944.5 0 00-241-584.5v1zm-655.5 237a397 397 0 01195 81L2484.5 295A944.5 944.5 0 001900 52.5v551zm-684.5-309L1605 684a397 397 0 01195-80.5v-550a944.5 944.5 0 00-584.5 241zM902.5 950h550a400 400 0 0181-195L1144 365.5A944.5 944.5 0 00902.5 950zM3750-350v1850a300 300 0 01-300 300H750a300 300 0 01-300-300V-350a300 300 0 01300-300h2700a300 300 0 01300 300zm-100 0a200 200 0 00-200-200H750a200 200 0 00-200 200v1850a200 200 0 00200 200h2700a200 200 0 00200-200V-350zm-50-550a50 50 0 000 100 300 300 0 01300 300 50 50 0 00100 0 400 400 0 00-400-400zm0-500a50 50 0 000 100c441.85 0 800 358.15 800 800a50 50 0 00100 0c0-497.05-402.95-900-900-900zm0 250a50 50 0 000 100c303.75 0 550 246.25 550 550a50 50 0 00100 0c0-359-291-650-650-650z" fill-rule="evenodd"/></svg>