<svg width="4800" height="1200" viewBox="0 0 4800 1200" xmlns="http://www.w3.org/2000/svg"><path d="M2779 607a50 50 0 11-70.5 70.5 436.5 436.5 0 00-616.5 0 50 50 0 01-70.5-70.5c209.4-208.7 548.1-208.7 757.5 0zm-556 266a250 250 0 10353.5 353.6A250 250 0 002223 873zm-488.5-500a50 50 0 0070.5 70.5c328.55-328.25 860.95-328.25 1189.5 0A50 50 0 003065 373C2696.75 6.65 2101.4 7.8 1734.5 375.5V373zM3323 129.5c-510-509.1-1336-509.1-1846 0a51.8 51.8 0 1073 73.5c471-470 1233.5-470 1704.5 0a50 50 0 1070.5-70.5l-2-3z" fill-rule="evenodd"/></svg>