<svg width="4800" height="1200" viewBox="0 0 4800 1200" xmlns="http://www.w3.org/2000/svg"><path d="M3150-450v2100H1650V-450h1500zm0-100H1650a100 100 0 00-100 100v2100a100 100 0 00100 100h1500a100 100 0 00100-100V-450a100 100 0 00-100-100zm-600 350h-700v100h700v-100zm0 300h-700v100h700V100zm0 300h-700v100h700V400zm0 300h-700v100h700V700zm400 300H1850v100h1100v-100zm0-1200h-250v100h250v-100zm0 300h-250v100h250V100zm0 300h-250v100h250V400zm0 300h-250v100h250V700zm0 600h-350v100h350v-100z" fill-rule="evenodd"/></svg>