<svg width="4800" height="1200" viewBox="0 0 4800 1200" xmlns="http://www.w3.org/2000/svg"><path d="M2000 300c386.6 0 700 313.4 700 700s-313.4 700-700 700-700-313.4-700-700 313.4-700 700-700zm0-100c-441.85 0-800 358.15-800 800s358.15 800 800 800 800-358.15 800-800a800 800 0 00-800-800zm1500 0h-50V50a100 100 0 00100-100v-150a100 100 0 00-100-100H2150a100 100 0 00-100 100v150a100 100 0 00-100 100v52.5c16.5 0 33-2.5 50-2.5s33.5 0 50 2.5V50h1300v150h-939.5a900 900 0 01154 100H3500v150h-789a900 900 0 0167.5 100H3350v150h-502.5a890 890 0 0129.5 100h573v150h-552.5c0 16.5 2.5 33 2.5 50s0 33.5-2.5 50H3350v150h-473a890 890 0 01-29.5 100H3300v150h-522a902.5 902.5 0 01-67.5 100H3350v150h-785.5a900 900 0 01-154 100H3350a100 100 0 00100-100v-150a100 100 0 00-50-87 100 100 0 000-13v-150a100 100 0 000-13 100 100 0 0050-87v-150a100 100 0 00100-100V800a100 100 0 00-100-100V550h50a100 100 0 00100-100V300a100 100 0 00-100-100zM2150-50v-150h1300v150H2150z" fill-rule="evenodd"/></svg>