<svg width="4850" height="1200" viewBox="0 0 4850 1200" xmlns="http://www.w3.org/2000/svg"><path d="M2800.15-300.1c-461.85 0-700-108.35-700-154.55 0-46.2 238.15-154.55 700-154.55s700 108.35 700 154.5c0 46.25-238.15 154.6-700 154.6zm0 340.9c-461.85 0-700-108.35-700-154.55V-323c146 83.6 429.95 122.9 700 122.9 270 0 553.95-39.3 700-122.9v209.25c0 46.2-238.15 154.5-700 154.5zm0 340.9c-461.85 0-700-108.3-700-154.55V17.85c146 83.65 429.95 122.95 700 122.95 270 0 553.95-39.3 700-123v209.35c0 46.25-238.15 154.5-700 154.5zm35.9 340.4c-68.7-132.75-405.5-197.3-735.9-203.25V358.8c146 83.6 429.95 122.9 700 122.9 270 0 553.95-39.3 700-122.9v209.3c0 45-226.2 148.45-664.1 154zm13.6 340.7V822c254.75-4.5 513.35-43.75 650.5-122.25V909c0 44.5-221.55 146.35-650.5 153.8zm0 340.9v-240.8c254.75-4.5 513.35-43.75 650.5-122.25v209.25c0 44.5-221.55 146.3-650.5 153.8zm0 340.9v-240.8c254.75-4.5 513.35-43.75 650.5-122.3v209.3c0 44.5-221.55 146.35-650.5 153.8zm-800 205.4c-461.85 0-700-108.3-700-154.5v-209.3c146 83.6 429.95 122.9 700 122.9 270.1 0 553.95-39.3 700-122.9v209.3c0 46.2-238.1 154.5-700 154.5zm-700-704.7c146 83.6 429.95 122.9 700 122.9 270.1 0 553.95-39.3 700-122.9v209.25c0 46.25-238.1 154.5-700 154.5-461.85 0-700-108.25-700-154.5V1245.3zm0-341c146 83.7 429.95 123 700 123 270.1 0 553.95-39.3 700-123v209.35c0 46.25-238.1 154.5-700 154.5-461.85 0-700-108.25-700-154.5v-209.3zm700-286.1c461.9 0 700 108.3 700 154.5 0 46.25-238.1 154.6-700 154.6-461.85 0-700-108.35-700-154.55 0-46.25 238.15-154.55 700-154.55zm750.5-1327.4c-385.3 0-800 79.65-800 254.5v973.5c-370.5 6.5-750.5 86.5-750.5 253.95V1795.5c0 174.9 414.7 254.5 800 254.5 346.8 0 716.25-64.7 786.95-205.15 374.6-4.85 763.5-84.65 763.5-254.05V-454.7c0-174.85-414.65-254.5-800-254.5z" fill-rule="evenodd"/></svg>