<svg width="4850" height="1200" viewBox="0 0 4850 1200" xmlns="http://www.w3.org/2000/svg"><path d="M2450 245.5c-461.85 0-700-108.4-700-154.6 0-46.2 238.15-154.5 700-154.5s700 108.3 700 154.5-238.15 154.55-700 154.55m0 340.9c-461.85 0-700-108.35-700-154.5V222.5c146.05 83.6 429.95 122.9 700 122.9s554-39.3 700-122.9v209.25c0 46.2-238.15 154.55-700 154.55m0 341c-461.85 0-700-108.4-700-154.65V563.5c146.05 83.6 429.95 122.9 700 122.9s554-39.3 700-122.9v209.25c0 46.25-238.15 154.6-700 154.6m0 340.85c-461.85 0-700-108.3-700-154.5V904.4c146.05 83.65 429.95 123 700 123s554-39.35 700-123v209.25c0 46.25-238.15 154.55-700 154.55m0 340.9c-461.85 0-700-108.3-700-154.5v-209.3c146.05 83.6 429.95 122.9 700 122.9s554-39.3 700-122.9v209.3c0 46.2-238.15 154.5-700 154.5m0 341c-461.85 0-700-108.35-700-154.6v-209.3c146.05 83.6 429.95 122.9 700 122.9s554-39.3 700-122.9v209.3c0 46.2-238.15 154.5-700 154.5m0-2113.65c-385.3 0-800 79.7-800 254.55v1704.6c0 174.85 414.7 254.5 800 254.5s800-79.65 800-254.5V90.85c0-174.85-414.7-254.5-800-254.5" fill-rule="evenodd"/></svg>