<svg width="4800" height="1200" viewBox="0 0 4800 1200" xmlns="http://www.w3.org/2000/svg"><path d="M3250-150h-225v-100a75 75 0 00-150 0v100h-950v-100a75 75 0 00-150 0v100h-225a100 100 0 00-100 100v1400a100 100 0 00100 100h1700a100 100 0 00100-100V-50a100 100 0 00-100-100zm0 1500H1550V150h1700v1200zM1891 596l-41-137 253.5-109H2250v800h-171.5V519L1891 596zm690.5 18H2400c0-157 87-264 274.5-264C2839 350 2950 450 2950 595.5c0 108.5-80 200-167 289L2660 1008h290v142h-533v-120l243-250c61.5-63 100-120 100-184s-28-100-86-100-92.5 46-92.5 118.5v-.5z" fill-rule="evenodd"/></svg>