<svg width="4800" height="1200" viewBox="0 0 4800 1200" xmlns="http://www.w3.org/2000/svg"><path d="M3680 1384.5L3244.5 950A774.618 774.618 0 002127-123a778.5 778.5 0 00-130 173h-522a50 50 0 00-44.5 27.5l-375 750A50 50 0 001100 900h250v550a50 50 0 0050 50h1200a50 50 0 0050-50v-250h25a769.5 769.5 0 00500-181.5l436.5 436.5a50 50 0 1070.5-70.5h-2zM2575 800v292A674.5 674.5 0 012113.5 50H2525l375 750h-325zm575 100a671.5 671.5 0 01-477.5 200V900H2900a100 100 0 0089.5-144.5l-375-750A100 100 0 002525-50h-329.5A675 675 0 113150 900z" fill-rule="evenodd"/></svg>