<svg width="4800" height="1200" viewBox="0 0 4800 1200" xmlns="http://www.w3.org/2000/svg"><path d="M3592.5 626.5A50 50 0 013550 650h-250v550a50 50 0 01-50 50H2050a50 50 0 01-50-50V650h-250a50 50 0 01-44.5-72.5l375-750A50 50 0 012125-200h1050a50 50 0 0144.5 27.5l375 750a50 50 0 01-2 49zM950 500h525a50 50 0 000-100H950a50 50 0 000 100zm750 350h-375a50 50 0 000 100h375a50 50 0 000-100zm-225 300H725a50 50 0 000 100h750a50 50 0 000-100zm1650 200a125 125 0 100 250 125 125 0 000-250zm-950 0a125 125 0 100 250 125 125 0 000-250z" fill-rule="evenodd"/></svg>