<svg width="4800" height="1200" viewBox="0 0 4800 1200" xmlns="http://www.w3.org/2000/svg"><path d="M1912 696.5L1584 737h-12.5a100 100 0 01-100-88l-66-545L3192-115.5l58 497a645 645 0 01106 43.5L3235-575a200 200 0 00-200-175.5 200 200 0 00-24.5 0l-1588 195a200 200 0 00-172.5 225L1372 662a200 200 0 00223 174l316.5-39c0-20-3-39.5-3-59.5s2.5-27.5 3.5-41zm-545.5-909L1350-343a100 100 0 0187-111.5L3026-650h12.5a100 100 0 01100 88l16 130-1788 219.5zM3050 450c-13 0-25 0-37.5 2.5A550 550 0 002050 982a550 550 0 10941 564.5A550 550 0 103050 450zm-550 1300a450 450 0 01-450-450 444.5 444.5 0 0159.5-221.5A550 550 0 002550 1300h38.5a550 550 0 00300 227.5A450 450 0 012500 1750zm441-778a443.5 443.5 0 01-28 43v3a450 450 0 01-363 182h-12a450 450 0 01-366-206.5 443 443 0 01-25-44.5v-3a454 454 0 01-20-47.5 450 450 0 01773-428 454 454 0 0153.5 85.5l5.5 11.5c3 7 6 14.5 9 22l6.5 17c0 6.5 4.5 13.5 6 20s4 14 5.5 21 3 12 4 18 3 17.5 4 26.5 0 10 0 15v42.5a447 447 0 01-53 222.5z" fill-rule="evenodd"/></svg>