<svg width="4800" height="1200" viewBox="0 0 4800 1200" xmlns="http://www.w3.org/2000/svg"><path d="M2500-500c221 0 393.5 46.5 489 154.5 86.5 100 112 206.5 87 366 0 12-4 24.5-6.5 37.5-84.5 431-374 580-743 580h-189a91 91 0 00-90.5 77l-97 607h-395a55 55 0 01-55-63.5L1767-423a91.5 91.5 0 0191.5-77H2500m743.5 524a400 400 0 00-59.5-54c0 21.5-4.5 43.5-8 66.5 0 13.5-4.5 27-7 41 0 4 0 8-3 12 82 92.5 100 224 67 381.5-73 379-326 509-649.5 509h-50a80 80 0 00-79.5 67.5l-4 21.5-62.5 396-3.5 17a81 81 0 01-79 68h-333.5a50 50 0 01-47.5-56.5l11-71h-102.5l-8.5 55.5a150 150 0 0034 120 150 150 0 00113.5 50H2305a180.5 180.5 0 00179.5-150l3-15.5v-3.5l62.5-393v-5h32c415 0 674.5-204 750-589.5 39-200 8.5-356-90-467.5" fill-rule="evenodd"/></svg>