<svg width="4800" height="1200" viewBox="0 0 4800 1200" xmlns="http://www.w3.org/2000/svg"><path d="M1750 103.5A500 500 0 112650-70a1140.5 1140.5 0 00-255-30 1107 1107 0 00-645 203.5zm1250-24a54.5 54.5 0 00-26 7c-57 31-129.5 70.5-185 100a924 924 0 00-393-86.5c-416.5 0-762 269-832 622.5h-13.5a150 150 0 000 300c7 .5 14 .5 21 0a728.5 728.5 0 00206 350V1650a100 100 0 00100 100h200a100 100 0 00100-100v-65.5A934 934 0 002566 1596v54a100 100 0 00100 100h200a100 100 0 00100-100v-239a757 757 0 00221-290h141a100 100 0 00100-100V721a100 100 0 00-100-100h-128a735.5 735.5 0 00-162.5-257.5 56.5 56.5 0 000-7L3057 140a55 55 0 00-54.5-60l-2.5-.5zm2.5-99.5A155 155 0 013158 150l-16.5 180.5a832.5 832.5 0 01125 191.5h60.5a200 200 0 01200 200v300a200 200 0 01-200 200h-77a866 866 0 01-184 236v192a200 200 0 01-200 200h-200a200 200 0 01-191.5-142 1010 1010 0 01-204-5 200 200 0 01-194 147h-200a200 200 0 01-200-200v-242a834.5 834.5 0 01-181-293.5 250 250 0 01-11.5-485C1594.5 260.5 1965.5 0 2396 0c133.9 0 266.5 26 390.5 76.5l143-76.5a155 155 0 0174-19l-1-1zm-50 650a100 100 0 10-100 100 100 100 0 00101-101l-1 1z" fill-rule="evenodd"/></svg>