<svg width="4800" height="1200" viewBox="0 0 4800 1200" xmlns="http://www.w3.org/2000/svg"><path d="M3100 1300H1700V-400h1400v1700zm0-1800H1700a100 100 0 00-100 100v2000a100 100 0 00100 100h1400a100 100 0 00100-100V-400a100 100 0 00-100-100zm0-100a200 200 0 01200 200v2000a200 200 0 01-200 200H1700a200 200 0 01-200-200V-400a200 200 0 01200-200h1400zm-150 350h-200v100h200v-100zm0 200h-200V50h200V-50zm0 200h-200v100h200V150zm0 200h-200v100h200V350zm-400-600h-700v100h700v-100zm0 200h-700V50h700V-50zm0 200h-700v100h700V150zm0 200h-700v100h700V350zm400 500h-250v100h250V850zm0-250H1850v100h1100V600zm-450 900a100 100 0 10-200 0 100 100 0 00200 0z" fill-rule="evenodd"/></svg>