<?xml version="1.0" encoding="UTF-8"?>
<svg width="96px" height="96px" viewBox="0 0 96 96" version="1.1" xmlns="http://www.w3.org/2000/svg" xmlns:xlink="http://www.w3.org/1999/xlink">
    <title>pictograms/Home &amp; Temperature/3_pin_plug</title>
    <g id="Symbols" stroke="none" stroke-width="1" fill="none" fill-rule="evenodd">
        <g id="pictograms/home&amp;temperature/3-pin-plug" fill="#39393A">
            <path d="M60,44 L60,36 C60,34.8954305 59.1045695,34 58,34 L57,34 L57,30 C57,29.4477153 56.5522847,29 56,29 L54,29 C53.4477153,29 53,29.4477153 53,30 L53,34 L50,34 L50,26 C50,25.4477153 49.5522847,25 49,25 L47,25 C46.4477153,25 46,25.4477153 46,26 L46,34 L43,34 L43,30 C43,29.4477153 42.5522847,29 42,29 L40,29 C39.4477153,29 39,29.4477153 39,30 L39,34 L38,34 C36.8954305,34 36,34.8954305 36,36 L36,44 C36,48.418278 39.581722,52 44,52 L47,52 L47,58.16 C46.9999861,59.181906 47.4073007,60.1616683 48.1317718,60.8823856 C48.8562429,61.603103 49.8381078,62.0053224 50.86,62 L54,62 C55.1045695,62 56,62.8954305 56,64 L56,71 C56,71.5522847 56.4477153,72 57,72 C57.5522847,72 58,71.5522847 58,71 L58,64 C58,61.790861 56.209139,60 54,60 L50.86,60 C50.3685456,60.0053422 49.89538,59.8138466 49.5459753,59.4681989 C49.1965706,59.1225513 48.999971,58.6514834 49,58.16 L49,52 L52,52 C56.418278,52 60,48.418278 60,44 Z M44,50 C40.6862915,50 38,47.3137085 38,44 L38,36 L58,36 L58,44 C58,47.3137085 55.3137085,50 52,50 L44,50 Z" id="â—-Pictogram"></path>
        </g>
    </g>
</svg>