<?xml version="1.0" encoding="UTF-8"?>
<svg width="96px" height="96px" viewBox="0 0 96 96" version="1.1" xmlns="http://www.w3.org/2000/svg" xmlns:xlink="http://www.w3.org/1999/xlink">
    <title>pictograms/Home &amp; Temperature/home1</title>
    <g id="Symbols" stroke="none" stroke-width="1" fill="none" fill-rule="evenodd">
        <g id="pictograms/home&amp;temperature/home1" fill="#39393A">
            <path d="M45,57 L35,57 L35,67 L45,67 L45,57 Z M43,65 L37,65 L37,59 L43,59 L43,65 Z M73.92,51.4 L66.92,27.4 C66.6566397,26.5625112 65.8779054,25.9946842 65,25.999963 L31,25.999963 C30.1111111,25.999963 29.3288889,26.5866667 29.08,27.44 L22.08,51.44 C21.9037359,52.044334 22.0222912,52.6963883 22.4,53.2 C22.7777088,53.7036117 23.3704854,54 24,54 L28,54 L28,69 C28,70.6568542 29.3431458,72 31,72 L65,72 C66.6568542,72 68,70.6568542 68,69 L68,54 L72,54 C72.636637,53.9906447 73.2307794,53.6787199 73.6,53.16 C73.9777088,52.6563883 74.0962641,52.004334 73.92,51.4 L73.92,51.4 Z M60,70 L54,70 L54,59 L60,59 L60,70 Z M66,69 C66,69.5522847 65.5522847,70 65,70 L62,70 L62,57 L52,57 L52,70 L31,70 C30.4477153,70 30,69.5522847 30,69 L30,54 L66,54 L66,69 Z M24,52 L31,28 L65,28 L72,52 L24,52 Z" id="â—-Pictogram"></path>
        </g>
    </g>
</svg>