<?xml version="1.0" encoding="UTF-8"?>
<svg width="96px" height="96px" viewBox="0 0 96 96" version="1.1" xmlns="http://www.w3.org/2000/svg" xmlns:xlink="http://www.w3.org/1999/xlink">
    <title>pictograms/Home &amp; Temperature/house3</title>
    <g id="Symbols" stroke="none" stroke-width="1" fill="none" fill-rule="evenodd">
        <g id="pictograms/home&amp;temperature/house3" fill="#39393A">
            <path d="M48,68 L34,68 L34,78 L48,78 L48,68 Z M36,70 L40,70 L40,76 L36,76 L36,70 Z M46,76 L42,76 L42,70 L46,70 L46,76 Z M73.16,61.37 L62,53.47 L62,46 L57,46 L57,49.92 L49.16,44.36 C48.4678352,43.8703752 47.5421648,43.8703752 46.85,44.36 L22.85,61.36 C22.1329786,61.8604775 21.8242082,62.7687304 22.0876309,63.6025205 C22.3510536,64.4363105 23.1255905,65.0023097 24,65 L28,65 L28,82 C28,83.6568542 29.3431458,85 31,85 L65,85 C66.6568542,85 68,83.6568542 68,82 L68,65 L72,65 C72.8704309,65.0004694 73.6412157,64.4379155 73.9061704,63.60879 C74.1711251,62.7796645 73.8694014,61.8743806 73.16,61.37 Z M60,83 L54,83 L54,70 L60,70 L60,83 Z M66,82 C66,82.5522847 65.5522847,83 65,83 L62,83 L62,68 L52,68 L52,83 L31,83 C30.4477153,83 30,82.5522847 30,82 L30,65 L66,65 L66,82 Z M67,63 L24,63 L48,46 L72,63 L67,63 Z" id="â—-Pictogram"></path>
        </g>
    </g>
</svg>