<?xml version="1.0" encoding="UTF-8"?>
<svg width="96px" height="96px" viewBox="0 0 96 96" version="1.1" xmlns="http://www.w3.org/2000/svg" xmlns:xlink="http://www.w3.org/1999/xlink">
    <title>pictograms/Home &amp; Temperature/house_solar_powered</title>
    <g id="Symbols" stroke="none" stroke-width="1" fill="none" fill-rule="evenodd">
        <g id="pictograms/home&amp;temperature/house-solar-powered" fill="#39393A">
            <path d="M64,39 L55,39 L55,32 L62,32 L64,39 Z M29.34,48 L41,48 L41,41 L31.37,41 L29.34,48 Z M32,39 L41,39 L41,32 L34,32 L32,39 Z M55,41 L55,48 L66.66,48 L64.66,41 L55,41 Z M43,48 L53,48 L53,41 L43,41 L43,48 Z M43,39 L53,39 L53,32 L43,32 L43,39 Z M44,67 L34,67 L34,57 L44,57 L44,67 Z M42,59 L36,59 L36,65 L42,65 L42,59 Z M73.6,53.16 C73.2307794,53.6787199 72.636637,53.9906447 72,54 L68,54 L68,69 C68,70.6568542 66.6568542,72 65,72 L31,72 C29.3431458,72 28,70.6568542 28,69 L28,54 L24,54 C23.363363,53.9906447 22.7692206,53.6787199 22.4,53.16 C22.0222912,52.6563883 21.9037359,52.004334 22.08,51.4 L29.08,27.4 C29.3433603,26.5625112 30.1220946,25.9946842 31,25.999963 L65,25.999963 C65.8888889,25.999963 66.6711111,26.5866667 66.92,27.44 L73.92,51.44 C74.0830523,52.0320562 73.9650721,52.6661995 73.6,53.16 Z M60,59 L54,59 L54,70 L60,70 L60,59 Z M66,54 L30,54 L30,69 C30,69.5522847 30.4477153,70 31,70 L52,70 L52,57 L62,57 L62,70 L65,70 C65.5522847,70 66,69.5522847 66,69 L66,54 Z M72,52 L65,28 L31,28 L24,52 L72,52 Z" id="â—-Pictogram"></path>
        </g>
    </g>
</svg>