<?xml version="1.0" encoding="UTF-8"?>
<svg width="96px" height="96px" viewBox="0 0 96 96" version="1.1" xmlns="http://www.w3.org/2000/svg" xmlns:xlink="http://www.w3.org/1999/xlink">
    <title>pictograms/Home &amp; Temperature/light_bulb</title>
    <g id="Symbols" stroke="none" stroke-width="1" fill="none" fill-rule="evenodd">
        <g id="pictograms/home&amp;temperature/light-bulb" fill="#39393A">
            <path d="M34,46 L31.47,46 C30.9177153,46 30.47,46.4477153 30.47,47 C30.47,47.5522847 30.9177153,48 31.47,48 L34,48 C34.5522847,48 35,47.5522847 35,47 C35,46.4477153 34.5522847,46 34,46 Z M42,63 L42,63 C42,65.209139 43.790861,67 46,67 L50,67 C52.209139,67 54,65.209139 54,63 L54,63 L54,62 L42,62 L42,63 Z M48,33 C48.5522847,33 49,32.5522847 49,32 L49,29.47 C49,28.9177153 48.5522847,28.47 48,28.47 C47.4477153,28.47 47,28.9177153 47,29.47 L47,32 C47,32.5522847 47.4477153,33 48,33 Z M38.71,37.71 C39.0977236,37.3199625 39.0977236,36.6900375 38.71,36.3 L36.92,34.5 C36.6756101,34.2146238 36.2918816,34.0903181 35.926581,34.1781899 C35.5612805,34.2660617 35.2760617,34.5512805 35.1881899,34.916581 C35.1003181,35.2818816 35.2246238,35.6656101 35.51,35.91 L37.3,37.7 C37.6872819,38.0905035 38.3172183,38.0949712 38.71,37.71 Z M48,35 C41.9248678,35 37,39.9248678 37,46 L37,46 C36.9628798,47.8606417 37.4330252,49.6962828 38.36,51.31 C39.68,53.65 42,57 42,59 L42,60 L54,60 L54,59 C54,57 56.32,53.66 57.64,51.32 C58.5682653,49.7031667 59.0384383,47.8639605 59,46 L59,46 C59,39.9248678 54.0751322,35 48,35 Z M49,51.37 L49,56 L47,56 L47,51.37 L43.3,47.71 L44.71,46.29 L48,49.55 L51.3,46.29 L52.71,47.71 L49,51.37 Z M64.53,46 L62,46 C61.4477153,46 61,46.4477153 61,47 C61,47.5522847 61.4477153,48 62,48 L64.53,48 C65.0822847,48 65.53,47.5522847 65.53,47 C65.53,46.4477153 65.0822847,46 64.53,46 Z M59.08,34.5 L57.29,36.29 C56.9502232,36.6867603 56.9730677,37.2781942 57.3424368,37.6475632 C57.7118058,38.0169323 58.3032397,38.0397768 58.7,37.7 L60.49,35.91 C60.7753762,35.6656101 60.8996819,35.2818816 60.8118101,34.916581 C60.7239383,34.5512805 60.4387195,34.2660617 60.073419,34.1781899 C59.7081184,34.0903181 59.3243899,34.2146238 59.08,34.5 Z" id="â—-Pictogram"></path>
        </g>
    </g>
</svg>