<?xml version="1.0" encoding="UTF-8"?>
<svg width="96px" height="96px" viewBox="0 0 96 96" version="1.1" xmlns="http://www.w3.org/2000/svg" xmlns:xlink="http://www.w3.org/1999/xlink">
    <title>pictograms/Home &amp; Temperature/smart_meter</title>
    <g id="Symbols" stroke="none" stroke-width="1" fill="none" fill-rule="evenodd">
        <g id="pictograms/home&amp;temperature/smart-meter" fill="#39393A">
            <path d="M70.27,66 C69.8314435,65.9966147 69.4462695,65.707868 69.3200369,65.2878578 C69.1938043,64.8678475 69.3559742,64.4145986 69.72,64.17 C70.4424572,63.6837721 71.1126895,63.1241281 71.72,62.5 C71.1111517,61.8804926 70.4410581,61.3243149 69.72,60.84 C69.2692197,60.5322404 69.148492,59.9198682 69.448734,59.4640463 C69.7489759,59.0082244 70.3592618,58.8773583 70.82,59.17 C71.8695442,59.8670524 72.8270844,60.6935608 73.67,61.63 C74.115372,62.1245016 74.115372,62.8754984 73.67,63.37 C72.8313957,64.3099179 71.8771379,65.1398534 70.83,65.84 C70.6633428,65.9477142 70.468407,66.0034101 70.27,66 Z M64.72,66.06 C64.5239666,66.0584692 64.3327067,65.9993525 64.17,65.89 C63.1204558,65.1929476 62.1629156,64.3664392 61.32,63.43 C60.874628,62.9354984 60.874628,62.1845016 61.32,61.69 C62.1586043,60.7500821 63.1128621,59.9201466 64.16,59.22 C64.6207382,58.9273583 65.2310241,59.0582244 65.531266,59.5140463 C65.831508,59.9698682 65.7107803,60.5822404 65.26,60.89 C64.5375428,61.3762279 63.8673105,61.9358719 63.26,62.56 C63.8688483,63.1795074 64.5389419,63.7356851 65.26,64.22 C65.5807341,64.473857 65.7145287,64.8974546 65.5978004,65.2894855 C65.4810721,65.6815164 65.1373572,65.9629342 64.73,66 L64.72,66.06 Z M75,24 C77.209139,24 79,25.790861 79,28 L79,65 C79,67.209139 77.209139,69 75,69 L21,69 C18.790861,69 17,67.209139 17,65 L17,28 C17,25.790861 18.790861,24 21,24 L75,24 L75,24 Z M75,22 L21,22 C17.6862915,22 15,24.6862915 15,28 L15,65 C15,68.3137085 17.6862915,71 21,71 L75,71 C78.3137085,71 81,68.3137085 81,65 L81,28 C81,24.6862915 78.3137085,22 75,22 Z M45,37.14 L45,46.24 C45.9880959,46.4635747 46.9313525,46.8523723 47.79,47.39 L54.22,41 C51.5727032,38.8687125 48.3761104,37.5304426 45,37.14 Z M69.34,36 L69.34,33.3 L67.64,36 L69.34,36 Z M50.61,50.21 C51.1511321,51.0679837 51.5433247,52.0112744 51.77,53 L60.87,53 C60.4766622,49.6228481 59.1348836,46.426156 57,43.78 L50.61,50.21 Z M21,28 L21,56 L75,56 L75,28 L21,28 Z M35.07,54 L24.07,54 C24.2915951,49.662823 26.0008595,45.5344551 28.91,42.31 L36.7,50.1 C35.8168441,51.2303543 35.2538584,52.5773752 35.07,54 Z M42,47.07 C40.5783644,47.2509336 39.2314322,47.8104286 38.1,48.69 L30.31,40.9 C33.5330521,37.9872246 37.6615688,36.2743669 42,36.05 L42,47.07 Z M44,47.07 L44,36.07 C48.337177,36.2915951 52.4655449,38.0008595 55.69,40.91 L47.9,48.69 C46.7685678,47.8104286 45.4216356,47.2509336 44,47.07 Z M50.93,54 C50.7490664,52.5783644 50.1895714,51.2314322 49.31,50.1 L57.1,42.31 C60.0127754,45.5330521 61.7256331,49.6615688 61.95,54 L50.93,54 Z M61.71,39 C59.85,39 59,38 59,36.72 L60.75,36.72 C60.75,37.26 61.13,37.54 61.75,37.54 C62.48,37.54 62.75,37.08 62.75,36.34 C62.7814024,36.056304 62.690079,35.7727096 62.4990317,35.5606471 C62.3079844,35.3485847 62.0354235,35.2282673 61.75,35.23 C61.3850443,35.2202144 61.029197,35.3447609 60.75,35.58 L59.38,35.34 L59.87,31 L64.2,31 L64.2,32.42 L61.28,32.42 L61.11,34 C61.4248689,33.8604944 61.7656119,33.7889384 62.11,33.79 C62.7984672,33.7449295 63.4717347,34.0059825 63.9498617,34.5033888 C64.4279886,35.0007951 64.6622369,35.6838511 64.59,36.37 C64.6096123,37.1182022 64.3033424,37.8380458 63.7506577,38.3427544 C63.197973,38.847463 62.4533519,39.0872871 61.71,39 L61.71,39 Z M71.9,37.4 L71.08,37.4 L71.08,38.87 L69.34,38.87 L69.34,37.4 L65.83,37.4 L65.83,36.16 L69.23,31 L71.08,31 L71.08,36 L71.9,36 L71.9,37.4 Z" id="â—-Pictogram"></path>
        </g>
    </g>
</svg>