<svg xmlns="http://www.w3.org/2000/svg" width="32" height="32" viewBox="0 0 32 32">
  <path fill="#39393A" fill-rule="evenodd" d="M17.1803874,7.211 C20.6863874,9.939 23.3723874,12.553 25.1623874,14.978 C25.6133874,15.586 25.6143874,16.408 25.1623874,17.022 C23.3703874,19.448 20.6843874,22.062 17.1793874,24.789 C16.7443874,25.128 16.1163874,25.05 15.7763874,24.614 C15.6343874,24.432 15.5653874,24.216 15.5653874,24.001 C15.5653874,23.703 15.6983874,23.408 15.9513874,23.211 C18.7461009,21.0357246 20.9854368,18.953375 22.6279508,17.00354 L7.49898745,17.0039 C6.94598745,17.0039 6.49898745,16.5569 6.49898745,16.0039 C6.49898745,15.4509 6.94598745,15.0039 7.49898745,15.0039 L22.6342459,15.0038612 C20.9918153,13.0526055 18.7504576,10.9677412 15.9523874,8.789 C15.5153874,8.449 15.4373874,7.821 15.7773874,7.386 C16.1163874,6.95 16.7443874,6.872 17.1803874,7.211 Z"/>
</svg>
