<svg xmlns="http://www.w3.org/2000/svg" width="32" height="32" viewBox="0 0 32 32">
  <path fill="#39393A" fill-rule="evenodd" d="M17.022,6.83711297 C19.448,8.63011297 22.062,11.315113 24.789,14.820113 C25.128,15.256113 25.05,15.884113 24.614,16.223113 C24.432,16.365113 24.216,16.434113 24.001,16.434113 C23.703,16.434113 23.408,16.302113 23.211,16.048113 C21.0357246,13.2533995 18.953375,11.0147896 17.00354,9.37187182 L17.0039,24.501013 C17.0039,25.054013 16.5569,25.501013 16.0039,25.501013 C15.4509,25.501013 15.0039,25.054013 15.0039,24.501013 L15.0038612,9.36563371 C13.0526055,11.0086851 10.9677412,13.2500428 8.789,16.048113 C8.449,16.484113 7.821,16.562113 7.386,16.223113 C6.95,15.884113 6.872,15.256113 7.211,14.820113 C9.939,11.314113 12.553,8.62811297 14.978,6.83811297 C15.586,6.38711297 16.408,6.38511297 17.022,6.83711297 Z"/>
</svg>
