<svg xmlns="http://www.w3.org/2000/svg" width="32" height="32" viewBox="0 0 32 32">
  <path fill="#39393A" fill-rule="evenodd" d="M27.001041,23.0305187 C26.6638017,23.0310937 26.349033,22.8614871 26.164041,22.5795143 C23.499041,18.5225143 20.064041,14.5365143 16.230041,11.0515143 C16.0961074,10.9399555 15.9014905,10.9403767 15.768041,11.0525143 C11.935041,14.5365143 8.50004104,18.5225143 5.83604104,22.5785143 C5.5328367,23.0402243 4.91275109,23.1687186 4.45104104,22.8655143 C3.989331,22.5623099 3.86083672,21.9422243 4.16404104,21.4805143 C6.92004104,17.2855143 10.467041,13.1675143 14.423041,9.57151428 C15.3200086,8.76918768 16.6765644,8.76875717 17.574041,9.57051428 C21.532041,13.1665143 25.080041,17.2845143 27.836041,21.4815143 C28.0377558,21.7886136 28.054815,22.1815972 27.8804709,22.505021 C27.7254985,22.7925089 27.441483,22.9838731 27.1222296,23.0230624 L27.001041,23.0305187 Z"/>
</svg>
