<svg xmlns="http://www.w3.org/2000/svg" width="32" height="32" viewBox="0 0 32 32">
  <path fill="#39393A" fill-rule="evenodd" d="M24.0001276,19.9992112 C24.0006847,20.4387713 23.7141438,20.8271595 23.2939913,20.9563311 C22.8738388,21.0855027 22.4185985,20.9251676 22.1721251,20.5612112 C19.9541251,17.2882112 17.8791251,14.7882112 16.000126,13.1252112 C14.1191251,14.7902112 12.0441251,17.2902112 9.82812509,20.5612112 C9.51829334,21.0185029 8.89641687,21.1380429 8.4391251,20.8282111 C7.98183333,20.5183794 7.86229336,19.8965029 8.17212509,19.4392112 C10.6211251,15.8242112 12.8381251,13.1912112 14.9491251,11.3892112 C15.5541836,10.8691366 16.4485612,10.8695616 17.0531251,11.3902112 C19.1621251,13.1912112 21.3791251,15.8242112 23.8291251,19.4392112 C23.9184917,19.571508 23.974486,19.7228082 23.9931701,19.8802138 L24.0001276,19.9992112 Z"/>
</svg>
