<svg xmlns="http://www.w3.org/2000/svg" width="32" height="32" viewBox="0 0 32 32">
  <path fill="#39393A" fill-rule="evenodd" d="M18.9992112,7.99987235 C19.4387713,7.99931531 19.8271595,8.2858562 19.9563311,8.70600872 C20.0855027,9.12616124 19.9251676,9.5814015 19.5612112,9.82787491 C16.2882112,12.0458749 13.7882112,14.1208749 12.1252112,15.9998724 C13.7902112,17.8808749 16.2902112,19.9558749 19.5612112,22.1718749 C20.0185029,22.4817067 20.1380429,23.1035831 19.8282111,23.5608749 C19.5183794,24.0181667 18.8965029,24.1377066 18.4392112,23.8278749 C14.8242112,21.3788749 12.1912112,19.1618749 10.3892112,17.0508749 C9.86913655,16.4458164 9.86956164,15.5514388 10.3902112,14.9468749 C12.1912112,12.8378749 14.8242112,10.6208749 18.4392112,8.17087491 C18.571508,8.08150833 18.7228082,8.02551399 18.8802138,8.00682987 L18.9992112,7.99987235 Z"/>
</svg>
