<svg xmlns="http://www.w3.org/2000/svg" width="32" height="32" viewBox="0 0 32 32">
  <path fill="#39393A" fill-rule="evenodd" d="M11.9706132,28.0005771 C11.5283869,28.0011365 11.1383038,27.7111669 11.0114003,27.2875398 C10.8844967,26.8639128 11.0509113,26.4072363 11.4206132,26.1645741 C15.4786132,23.4995741 19.4646132,20.0635741 22.9476132,16.2305741 C23.059172,16.0966405 23.0587507,15.9020235 22.9466132,15.7685741 C19.4636132,11.9355741 15.4766132,8.50057411 11.4206132,5.83557411 C11.1219391,5.63943531 10.9505917,5.29885487 10.9711159,4.94212616 C10.9916401,4.58539745 11.2009177,4.26671605 11.5201159,4.10612616 C11.8393141,3.94553626 12.2199391,3.9674353 12.5186132,4.16357411 C16.7146132,6.91957411 20.8316132,10.4665741 24.4276132,14.4225741 C25.2316132,15.3065741 25.2316132,16.6915741 24.4286132,17.5745741 C20.8336132,21.5305741 16.7156132,25.0785741 12.5186132,27.8355741 C12.3887232,27.9219052 12.2407074,27.9759164 12.0868805,27.9939005 L11.9706132,28.0005771 Z"/>
</svg>
