<svg xmlns="http://www.w3.org/2000/svg" width="32" height="32" viewBox="0 0 32 32">
  <path fill="#39393A" fill-rule="evenodd" d="M16,3 C18.079,3 20.066,3.477 21.906,4.416 C22.397,4.667 22.592,5.27 22.341,5.762 C22.09,6.253 21.489,6.449 20.996,6.197 C19.44,5.403 17.76,5 16,5 C9.935,5 5,9.935 5,16 C5,22.065 9.935,27 16,27 C22.065,27 27,22.065 27,16 C27,14.386 26.659,12.831 25.985,11.378 C25.753,10.877 25.971,10.282 26.472,10.05 C26.974,9.818 27.568,10.037 27.8,10.537 C28.596,12.256 29,14.094 29,16 C29,23.168 23.168,29 16,29 C8.832,29 3,23.168 3,16 C3,8.832 8.832,3 16,3 Z M25.7718,5.9931 C26.2218,6.3131 26.3268,6.9371 26.0068,7.3871 L16.5518,20.6801 C16.3568,20.9541 16.0488,21.1001 15.7358,21.1001 C15.5358,21.1001 15.3328,21.0401 15.1568,20.9151 L10.2518,17.4271 C9.8018,17.1071 9.6958,16.4821 10.0168,16.0321 C10.3358,15.5821 10.9608,15.4761 11.4108,15.7971 L15.5018,18.7051 L24.3778,6.2281 C24.6978,5.7781 25.3218,5.6721 25.7718,5.9931 Z"/>
</svg>
