<svg width="1600" height="1200" viewBox="0 0 1600 1200" xmlns="http://www.w3.org/2000/svg"><path d="M1000 1150v100a100 100 0 01-100 100H700a100 100 0 01-100-100v-100h400zM800 150a400 400 0 01400 400c0 210.35-200.2 289.65-200.2 500h-400c0-210.25-199.8-289.75-199.8-500a400 400 0 01400-400zm106.05 273.2L800 529.3 693.9 423.2l-70.7 70.7L750 620.7V800h100V620.7l126.75-126.8-70.7-70.7zM200 500a50 50 0 010 100H100a50 50 0 010-100h100zm1300 0a50 50 0 110 100h-100a50 50 0 110-100h100zM340.4 19.7l70.7 70.7a49.992 49.992 0 11-70.7 70.7l-70.7-70.7a49.992 49.992 0 1170.7-70.7zm989.9 0a49.95 49.95 0 010 70.7l-70.7 70.7a49.992 49.992 0 11-70.7-70.7l70.7-70.7a49.95 49.95 0 0170.7 0zM800-200a50 50 0 0150 50v100a50 50 0 01-100 0v-100a50 50 0 0150-50z" fill-rule="evenodd"/></svg>