<svg width="1600" height="1200" viewBox="0 0 1600 1200" xmlns="http://www.w3.org/2000/svg"><path d="M850 950h150V800H850v150zm0-250h150V550H850v150zM600 950h150V800H600v150zm0-250h150V550H600v150zm500 250h150V800h-150v150zm350-750c0-55-45-100-100-100h-200V0c0-30-20-50-50-50s-50 20-50 50v100H550V0c0-30-20-50-50-50s-50 20-50 50v100H250c-55 0-100 45-100 100v850c0 55 45 100 100 100h1100c55 0 100-45 100-100V200zm-100 850H250V200h1100v850zm-250-350h150V550h-150v150zM500 800H350v150h150V800zm0-250H350v150h150V550zm750-250H350v150h900V300z" fill-rule="evenodd"/></svg>