<svg width="1600" height="1200" viewBox="0 0 1600 1200" xmlns="http://www.w3.org/2000/svg"><path d="M1350 1300H250a50 50 0 100 100h1100a50 50 0 100-100zM943.3 161.6l129.9 75-50 86.55-129.9-75 50-86.5zM648.2 972.7l-129.9-75 325-562.9 129.9 75-325 562.9zM433.25 1195a50 50 0 0048.5.85l208.2-110.7c8.3-4.4 15.15-11 19.85-19.15l475-822.7a50.1 50.1 0 00-18.3-68.3L950 50a49.9 49.9 0 00-68.3 18.3L406.7 891c-4.7 8.1-7 17.4-6.7 26.75l8.25 235.7c.6 15.1 7.85 29 19.65 38l5.35 3.55z" fill-rule="evenodd"/></svg>