<svg width="1600" height="1200" viewBox="0 0 1600 1200" xmlns="http://www.w3.org/2000/svg"><path d="M521 0h372c49.45 0 96.2 46.3 175.85 126.9 11.15 11.3 23.3 21.85 34.85 33.2 11.45 11.45 23.5 23.5 34.9 34.6l31.15 30.6 20.7 20.9c45.45 46.85 71.35 81.4 74.25 116.35l.3 6.7v646.15c0 98.5-78.15 179.25-176.15 184.35l-9.85.25H521c-99.25 0-180.6-77.6-185.75-174.85l-.25-9.75V184.6C335 86.1 413.15 5.35 511.15.25L521 0zm338.6 92.3H521c-48.9 0-89 37.5-92.7 85.1l-.3 7.2v830.8c0 48.5 37.8 88.35 85.75 92l7.25.3h558c48.9 0 89-37.5 92.7-85.1l.3-7.2v-600c0-45.95-46.6-46.15-93-46.15H939.5a46.5 46.5 0 01-46.2-40.8l-.3-5.35-.05-156.6c-.4-32.7-3.5-62.25-27.5-72.25l-5.85-1.95zm-94.5 323.1c11.9 0 24.65 3.8 33.45 11.5 8.8 7.75 12.8 18.5 16 28.85 6.3 20.75 6.4 44.85 2.9 72.15-2.65 20.65-14.1 48.25-20.35 72.1 1.75 3.15 1.05 5.5 2.9 8.65 25.1 43.35 58.25 86.5 94.5 118.25 4.3 3.85 8.65 2.35 13 5.8 16.75-3.25 37.3-11.35 52.35-13 29.4-3.15 53.8-4.45 75.55 1.5 10.9 2.9 22.1 8.8 30.5 17.25 8.45 8.5 13.1 21 13.1 33.2 0 15.3-8 34.75-23.25 43.25-15.3 8.5-31.95 8.65-53.75 8.65-38.1 0-72.8-17.25-106.1-40.4-41 9-80.95 14.75-125 30.3-31.55 11.2-50.6 24.85-78.45 37.5-9 14.9-17 35-26.15 47.6-17.2 23.7-35.1 43.3-53.75 56.25-18.65 13-42.55 19.95-63.95 8.65-10.45-5.5-20.1-14.2-24.7-25.95a44.85 44.85 0 011.5-34.6c9.2-19.55 27.3-32.7 49.35-47.6 20.3-13.7 54.85-25.65 82.85-39l18.25-31.15c15.2-26.05 29.95-52.8 42.8-84.2 14.6-35.8 19.6-66.05 29-99.5-17.85-36.1-35.5-73.5-39.2-103.85-2.35-19.65-1.55-38.3 7.25-54.8 8.85-16.5 29.2-27.4 49.45-27.4zM614 887c-3.2 2-10.2 3.85-13.1 5.8a137.9 137.9 0 00-30.55 26.8l-1.6 2.3.4.4 1.25.8c2.15 1.1 4.65 2.05 16-5.8 7.4-5.15 17.9-19 27.6-30.3zm165.65-229.3c-7.2 21.2-8.65 39.1-17.45 60.55-9.95 24.35-23.5 41.8-34.85 64.9 10.55-4 16.8-9.15 27.6-13 33.65-11.85 64.2-15.9 97.35-24.5a514.4 514.4 0 01-72.65-88zm231 106.7h-5.75c-8.2.2-18.25 1-27.6 1.5 8 1.9 17.1 11.5 24.7 11.5 14.3 0 23.7-1.3 28-2.2l2.6-.7-.1-2.85.25-1.25-1.85-1.5a23.95 23.95 0 00-7.1-3 43.3 43.3 0 00-8.05-1.25l-5.1-.25zM768.4 463.5l-1.9-2.1H760a1.85 1.85 0 00-.7.15l-.5.5-.95 2.35c-1.75 3.3-4.6 13.1-2.9 27.45 1.05 8.85 11.1 24.7 14.5 36l1.5-7.2c3.05-23.85 2.85-42.5 0-51.9a17.35 17.35 0 00-2.55-5.25z" fill-rule="evenodd"/></svg>