<svg width="1600" height="1200" viewBox="0 0 1600 1200" xmlns="http://www.w3.org/2000/svg"><path d="M1350 550h-155c-30-105-140-170-245-140-70 20-120 70-140 140H250c-30 0-50 20-50 50s20 50 50 50h555c30 105 140 170 245 140 70-20 120-70 140-140h160c30 0 50-20 50-50s-20-50-50-50zm-350 150c-55 0-100-45-100-100s45-100 100-100 100 45 100 100-45 100-100 100zm350 300H945c-30-105-140-170-245-140-70 20-120 70-140 140H250c-30 0-50 20-50 50s20 50 50 50h305c30 105 140 170 245 140 70-20 120-70 140-140h410c30 0 50-20 50-50s-20-50-50-50zm-600 150c-55 0-100-45-100-100s45-100 100-100 100 45 100 100-45 100-100 100zM250 200h155c30 105 140 170 245 140 70-20 120-70 140-140h560c30 0 50-20 50-50s-20-50-50-50H795C765-5 655-70 550-40c-70 20-120 70-140 140H250c-30 0-50 20-50 50s20 50 50 50zM600 50c55 0 100 45 100 100s-45 100-100 100-100-45-100-100S545 50 600 50z" fill-rule="evenodd"/></svg>