<svg width="1600" height="1200" viewBox="0 0 1600 1200" xmlns="http://www.w3.org/2000/svg"><path d="M900 0c82.7 0 150 67.3 150 150v200a50 50 0 11-100 0V150a50 50 0 00-50-50H400a50 50 0 00-50 50v900a50 50 0 0050 50h500a50 50 0 0050-50V850a50 50 0 11100 0v200c0 82.7-67.3 150-150 150H400c-82.7 0-150-67.3-150-150V150C250 67.3 317.3 0 400 0h500zm260.8 368.95a50 50 0 0170.25-8.15c96.15 76.15 164.9 145.15 210.15 210.9 11.7 17 11.7 39.6 0 56.65-45.25 65.75-114 134.75-210.15 210.9a50.047 50.047 0 01-62.1-78.5 1302.4 1302.4 0 00110.85-97.5l13.05-13.25H800a50 50 0 01-5.85-99.7l5.85-.3h492.85a1262 1262 0 00-123.9-110.75 50.05 50.05 0 01-8.15-70.3z" fill-rule="evenodd"/></svg>