<svg width="1600" height="1200" viewBox="0 0 1600 1200" xmlns="http://www.w3.org/2000/svg"><path d="M960.5 338c105 90 260 85 355-20 90-105 85-260-20-355s-260-85-355 20c-65 75-85 185-40 275l-260 155c-100-95-260-85-355 20s-85 260 20 355c95 85 240 85 335 0l260 155c-60 125-5 275 120 335s275 5 335-120 5-275-120-335c-35-15-75-25-110-25-60 0-120 25-165 65l-260-155c35-65 35-145 0-215l260-155zm165-340c85 0 150 65 150 150s-65 150-150 150-150-65-150-150 65-150 150-150zm-650 750c-85 0-150-65-150-150s65-150 150-150 150 65 150 150-65 150-150 150zm650 450c-85 0-150-65-150-150s65-150 150-150 150 65 150 150-65 150-150 150z" fill-rule="evenodd"/></svg>