<svg width="1600" height="1200" viewBox="0 0 1600 1200" xmlns="http://www.w3.org/2000/svg"><path d="M1192.9 500l28.5 200h-206.75L1003 500h189.9zm-290 0l11.65 200H685.5l11.65-200H902.9zM597 500l-11.65 200h-206.8l28.55-200H597zm288.35-300L897 400H703l11.65-200h170.7zm-270.8 0L602.9 400H421.4L450 200h164.5zm535.45 0l28.55 200H997.1l-11.65-200H1150zm-150 600H250.55l99.95-700h899l99.95 700H1000zm342.4-757.1A50.05 50.05 0 001292.85 0h-985.7c-24.9 0-46 18.3-49.55 42.9l-114.25 800a50 50 0 0049.5 57.1H600v100h-50a50 50 0 100 100h500a50 50 0 100-100h-50V900h407.15a50 50 0 0049.5-57.1l-114.25-800z" fill-rule="evenodd"/></svg>