<svg width="1600" height="1200" viewBox="0 0 1600 1200" xmlns="http://www.w3.org/2000/svg"><path d="M800 800a150 150 0 110 300 150 150 0 010-300zm0-250c95 0 180 35 250 105 20 20 20 50 0 70s-50 20-70 0c-50-50-115-75-180-75s-130 25-175 75c-10 10-25 15-35 15-15 0-25-5-35-15-20-20-20-50 0-70 65-65 155-105 245-105zm0-250c160 0 310 60 425 175 20 20 20 50 0 70-10 10-25 15-35 15-15 0-25-5-35-15-95-95-220-145-355-145s-260 50-355 145c-20 20-50 20-70 0s-20-50 0-70c115-115 265-175 425-175zm0-250c220 0 430 85 585 240 20 20 20 50 0 70-10 10-25 15-35 15a44.05 44.05 0 01-30.7-11l-4.3-4c-140-135-320-210-515-210s-375 75-515 210c-20 20-50 20-70 0s-20-50 0-70C370 135 580 50 800 50z" fill-rule="evenodd"/></svg>