<?xml version="1.0" encoding="UTF-8"?>
<svg width="32px" height="32px" viewBox="0 0 32 32" version="1.1" xmlns="http://www.w3.org/2000/svg" xmlns:xlink="http://www.w3.org/1999/xlink">
    <title>icon/container/energy_account/chat_settings</title>
    <g id="Icons-variable-width---for-Exporting-only" stroke="none" stroke-width="1" fill="none" fill-rule="evenodd">
        <g id="icon-/-32-/-chat-settings" fill="#39393A">
            <path d="M25,4 C27.2,4 29,5.8 29,8 L29,19 C29,21.2 27.2,23 25,23 L22,23 L22,28 C22,28.379 21.785,28.726 21.446,28.895 C21.107,29.064 20.701,29.026 20.398,28.799 L12.7,23 L7,23 C4.8,23 3,21.2 3,19 L3,8 C3,5.8 4.8,4 7,4 L25,4 Z M25,6 L7,6 C5.9,6 5,6.9 5,8 L5,19 C5,20.1 5.9,21 7,21 L13,21 C13.2,21 13.4,21.1 13.6,21.2 L20,26 L20,22 C20,21.447 20.447,21 21,21 L25,21 C26.1,21 27,20.1 27,19 L27,8 C27,6.9 26.1,6 25,6 Z M16.5,8 C16.7761424,8 17,8.22385763 17,8.5 L17.0010759,9.62728308 C17.3622702,9.72066065 17.708713,9.86413907 18.0301642,10.0534767 L18.828,9.257 C18.9218043,9.1629583 19.0491727,9.11010622 19.182,9.11010622 C19.3148273,9.11010622 19.4421957,9.1629583 19.536,9.257 L20.243,9.964 C20.3370417,10.0578043 20.3898938,10.1851727 20.3898938,10.318 C20.3898938,10.4508273 20.3370417,10.5781957 20.243,10.672 L19.4459353,11.468838 C19.6357391,11.7908672 19.7795081,12.1379967 19.8729758,12.499926 L21,12.5 C21.2761424,12.5 21.5,12.7238576 21.5,13 L21.5,14 C21.5,14.2761424 21.2761424,14.5 21,14.5 L19.8737865,14.5007613 C19.7793145,14.8675098 19.6341343,15.2138936 19.4461664,15.531992 L20.243,16.328 C20.3370417,16.4218043 20.3898938,16.5491727 20.3898938,16.682 C20.3898938,16.8148273 20.3370417,16.9421957 20.243,17.036 L19.536,17.743 C19.4421957,17.8370417 19.3148273,17.8898938 19.182,17.8898938 C19.0491727,17.8898938 18.9218043,17.8370417 18.828,17.743 L18.0309842,16.9467617 C17.7131621,17.1344408 17.3671226,17.2794143 17.0007613,17.3737865 L17,18.5 C17,18.7761424 16.7761424,19 16.5,19 L15.5,19 C15.2238576,19 15,18.7761424 15,18.5 L15.0002435,17.3740452 C14.6335101,17.2796793 14.2871285,17.1346124 13.9690158,16.9467617 L13.172,17.743 C13.0781957,17.8370417 12.9508273,17.8898938 12.818,17.8898938 C12.6851727,17.8898938 12.5578043,17.8370417 12.464,17.743 L11.757,17.036 C11.6629583,16.9421957 11.6101062,16.8148273 11.6101062,16.682 C11.6101062,16.5491727 11.6629583,16.4218043 11.757,16.328 L12.5538336,15.531992 C12.3658657,15.2138936 12.2206855,14.8675098 12.1262135,14.5007613 L11,14.5 C10.7238576,14.5 10.5,14.2761424 10.5,14 L10.5,13 C10.5,12.7238576 10.7238576,12.5 11,12.5 L12.1259548,12.5002435 C12.2204204,12.1331228 12.3656941,11.7863969 12.5538336,11.468008 L11.757,10.672 C11.6629583,10.5781957 11.6101062,10.4508273 11.6101062,10.318 C11.6101062,10.1851727 11.6629583,10.0578043 11.757,9.964 L12.464,9.257 C12.5578043,9.1629583 12.6851727,9.11010622 12.818,9.11010622 C12.9508273,9.11010622 13.0781957,9.1629583 13.172,9.257 L13.9690158,10.0532383 C14.2871285,9.86538763 14.6335101,9.72032071 15.0002435,9.62595483 L15,8.5 C15,8.22385763 15.2238576,8 15.5,8 L16.5,8 Z M16,11.5 C14.8954305,11.5 14,12.3954305 14,13.5 C14,14.6045695 14.8954305,15.5 16,15.5 C17.1045695,15.5 18,14.6045695 18,13.5 C18,12.3954305 17.1045695,11.5 16,11.5 Z" id="â—-icon"></path>
        </g>
    </g>
</svg>