<?xml version="1.0" encoding="UTF-8"?>
<svg width="32px" height="32px" viewBox="0 0 32 32" version="1.1" xmlns="http://www.w3.org/2000/svg" xmlns:xlink="http://www.w3.org/1999/xlink">
    <title>icon/container/energy_account/consumption</title>
    <g id="Icons-variable-width---for-Exporting-only" stroke="none" stroke-width="1" fill="none" fill-rule="evenodd">
        <g id="icon-/-32-/-consumption" fill="#39393A">
            <path d="M16,6 C23.1796172,6 29,11.8200477 29,19 C29,20.5345639 28.7339446,22.033379 28.2197506,23.4468609 C28.030946,23.9658708 27.457149,24.2335551 26.9381391,24.0447506 C26.4191292,23.855946 26.1514449,23.282149 26.3402494,22.7631391 C26.7750083,21.5680187 27,20.3005347 27,19 C27,12.924643 22.0750735,8 16,8 C9.92492648,8 5,12.924643 5,19 C5,20.2990684 5.2254493,21.5665277 5.66075058,22.7631391 C5.84955512,23.282149 5.58187078,23.855946 5.06286087,24.0447506 C4.54385095,24.2335551 3.97005397,23.9658708 3.78124942,23.4468609 C3.26659345,22.0321091 3,20.5333405 3,19 C3,11.8200477 8.82038275,6 16,6 Z M11.4958,11.207 C11.8826333,10.9833333 12.3568556,11.0478819 12.6704447,11.3344039 L12.7518,11.418 L17.8858,17.365 C17.9878,17.482 18.0808,17.611 18.1608,17.751 C18.8508,18.946 18.4418,20.475 17.2458,21.166 C16.0498,21.856 14.5208,21.447 13.8308,20.251 C13.7768,20.1576667 13.7299111,20.0625556 13.6892444,19.965963 L13.6328,19.82 L11.0508,12.4 C10.8958,11.956 11.0728,11.451 11.4958,11.207 Z" id="â—-icon"></path>
        </g>
    </g>
</svg>