<?xml version="1.0" encoding="UTF-8"?>
<svg width="32px" height="32px" viewBox="0 0 32 32" version="1.1" xmlns="http://www.w3.org/2000/svg" xmlns:xlink="http://www.w3.org/1999/xlink">
    <title>icon/container/energy_account/credit_card</title>
    <g id="Icons-variable-width---for-Exporting-only" stroke="none" stroke-width="1" fill="none" fill-rule="evenodd">
        <g id="icon-/-32-/-credit-card" fill="#39393A">
            <path d="M26,6 L26.199372,6.00490369 C28.2448958,6.10574425 29.8907223,7.74954722 29.9947762,9.79423703 L30,10 L30,22 C30,24.1391515 28.3130799,25.8908944 26.199372,25.9950963 L26,26 L6,26 C3.86084848,26 2.1091056,24.3130799 2.00490369,22.199372 L2,22 L2,10 C2,7.86084848 3.68692011,6.1091056 5.80062799,6.00490369 L6,6 L26,6 Z M28,16 L4,16 L4,22 C4,23.0528636 4.81730785,23.9180289 5.85093266,23.994505 L6,24 L26,24 L26.1490673,23.994505 C27.1310109,23.9218527 27.9177284,23.1374084 27.9939453,22.1564467 L28,22 L28,16 Z M28,12 L4,12 L4,14 L28,14 L28,12 Z M26,8 L6,8 L5.85093266,8.00549502 C4.86898909,8.07814727 4.08227158,8.86259156 4.00605469,9.84355332 L4,10 L28,10 C28,8.94713636 27.1826921,8.08197107 26.1490673,8.00549502 L26,8 Z M19,18 L7,18 C6.447,18 6,18.448 6,19 C6,19.552 6.447,20 7,20 L19,20 C19.553,20 20,19.552 20,19 C20,18.448 19.553,18 19,18 Z" id="â—-icon"></path>
        </g>
    </g>
</svg>