<?xml version="1.0" encoding="UTF-8"?>
<svg width="32px" height="32px" viewBox="0 0 32 32" version="1.1" xmlns="http://www.w3.org/2000/svg" xmlns:xlink="http://www.w3.org/1999/xlink">
    <title>icon/container/energy_account/currency_euro</title>
    <g id="Icons-variable-width---for-Exporting-only" stroke="none" stroke-width="1" fill="none" fill-rule="evenodd">
        <g id="icon-/-32-/-currency-euro" fill="#39393A">
            <path d="M17.3496,22.3721 C18.5556,22.3721 19.5816,22.1011 20.4466,21.6701 L19.8166,19.3661 C18.9526,19.8511 18.1236,19.9961 17.4946,19.9961 C16.4676,19.9961 15.7116,19.2941 15.3336,18.1601 L18.1066,18.1601 L18.6276,16.5581 L15.0816,16.5581 C15.0646,16.3961 15.0646,16.2341 15.0646,16.0541 L15.0646,15.7301 L18.8626,15.7301 L19.4026,14.1281 L15.2076,14.1281 C15.4596,12.9401 16.0176,12.2021 17.2786,12.2021 C18.2326,12.2021 19.0956,12.4721 19.7446,12.7421 L20.5536,10.5101 C19.5096,10.0781 18.6276,9.8261 17.3496,9.8261 C14.3076,9.8261 12.8686,11.4821 12.4356,14.1281 L11.4466,14.1281 L11.4466,15.7301 L12.2746,15.7301 L12.2746,16.5581 L11.4466,16.5581 L11.4466,18.1601 L12.4536,18.1601 C12.9756,20.9321 14.6506,22.3721 17.3496,22.3721" id="â—-icon"></path>
        </g>
    </g>
</svg>