<?xml version="1.0" encoding="UTF-8"?>
<svg width="32px" height="32px" viewBox="0 0 32 32" version="1.1" xmlns="http://www.w3.org/2000/svg" xmlns:xlink="http://www.w3.org/1999/xlink">
    <title>icon/container/energy_account/dashboard_02</title>
    <g id="Icons-variable-width---for-Exporting-only" stroke="none" stroke-width="1" fill="none" fill-rule="evenodd">
        <g id="icon-/-32-/-dashboard-02" fill="#39393A">
            <path d="M17,5 C17,4.44771525 17.4477153,4 18,4 L27,4 C27.5522847,4 28,4.44771525 28,5 L28,13 C28,13.5522847 27.5522847,14 27,14 L18,14 C17.4477153,14 17,13.5522847 17,13 L17,5 Z M6,19 L6,25 L26,25 L26,19 L6,19 Z M5,17 C4.44771525,17 4,17.4477153 4,18 L4,26 C4,26.5522847 4.44771525,27 5,27 L27,27 C27.5522847,27 28,26.5522847 28,26 L28,18 C28,17.4477153 27.5522847,17 27,17 L5,17 Z M5,4 C4.44771525,4 4,4.44771525 4,5 C4,5.55228475 4.44771525,6 5,6 L14,6 C14.5522847,6 15,5.55228475 15,5 C15,4.44771525 14.5522847,4 14,4 L5,4 Z M4,9 C4,8.44771525 4.44771525,8 5,8 L14,8 C14.5522847,8 15,8.44771525 15,9 C15,9.55228475 14.5522847,10 14,10 L5,10 C4.44771525,10 4,9.55228475 4,9 Z M5,12 C4.44771525,12 4,12.4477153 4,13 C4,13.5522847 4.44771525,14 5,14 L14,14 C14.5522847,14 15,13.5522847 15,13 C15,12.4477153 14.5522847,12 14,12 L5,12 Z" id="â—-icon"></path>
        </g>
    </g>
</svg>