<?xml version="1.0" encoding="UTF-8"?>
<svg width="32px" height="32px" viewBox="0 0 32 32" version="1.1" xmlns="http://www.w3.org/2000/svg" xmlns:xlink="http://www.w3.org/1999/xlink">
    <title>icon/container/energy_account/floor_plan</title>
    <g id="Icons-variable-width---for-Exporting-only" stroke="none" stroke-width="1" fill="none" fill-rule="evenodd">
        <g id="icon-/-32-/-floor-plan" fill="#39393A">
            <path d="M2,30 C1.44771525,30 1,29.5522847 1,29 L1,19 C1,18.4477153 1.44771525,18 2,18 L7,18 L7,20 L3,20 L3,28 L17,28 L17,20 L12,20 L12,18 L22,18 L22,20 L19,20 L19,28 L29,28 L29,20 L26,20 L26,18 L29,18 L29,4 L19,4 L19,13 C19,13.5522847 18.5522847,14 18,14 L12,14 L12,12 L17,12 L17,4 L3,4 L3,12 L7,12 L7,14 L2,14 C1.44771525,14 1,13.5522847 1,13 L1,3 C1,2.44771525 1.44771525,2 2,2 L30,2 C30.5522847,2 31,2.44771525 31,3 L31,29 C31,29.5522847 30.5522847,30 30,30 L2,30 Z" id="â—-icon"></path>
        </g>
    </g>
</svg>