<svg xmlns="http://www.w3.org/2000/svg" width="32" height="32" viewBox="0 0 32 32">
  <path fill="#39393A" fill-rule="evenodd" d="M13.9694601,3.11798483 C20.3159827,6.492385 25.5,13.0824065 25.5,19.0009385 C25.5,24.7348166 22.148047,29.0009385 15.5,29.0009385 C10.1178575,29.0009385 6.5,25.7119772 6.5,21.0009385 C6.5,18.3084004 7.2422842,16.5586273 9.11782368,13.9226642 L9.73530525,13.0708221 C12.1337207,9.77618237 12.8934712,7.8000689 12.505469,4.10538038 C12.4218004,3.30865952 13.262124,2.74189936 13.9694601,3.11798483 Z M14.6028164,5.80834934 C14.6042765,8.85213918 13.6674905,11.0019597 11.6051345,13.8968412 L10.9763568,14.7638179 C9.14970032,17.2785622 8.5,18.7158208 8.5,21.0009385 C8.5,23.4851782 9.80483899,25.4229046 12.0594406,26.367931 C11.6263532,25.7638785 11.396,25.0248244 11.396,24.2089385 C11.396,20.4179385 15.29,19.8529385 16.5,15.0009385 C19.058,17.0719385 20.5,20.0009385 20.5,23.0009385 C20.5,23.9780454 20.2663279,25.1938366 19.5851209,26.1818719 C22.2260166,24.9270947 23.5,22.3203435 23.5,19.0009385 C23.5,14.4059733 19.6206892,9.04820508 14.6028164,5.80834934 Z"/>
</svg>
