<?xml version="1.0" encoding="UTF-8"?>
<svg width="32px" height="32px" viewBox="0 0 32 32" version="1.1" xmlns="http://www.w3.org/2000/svg" xmlns:xlink="http://www.w3.org/1999/xlink">
    <title>icon/container/energy_account/lang_select</title>
    <g id="Icons-variable-width---for-Exporting-only" stroke="none" stroke-width="1" fill="none" fill-rule="evenodd">
        <g id="icon-/-32-/-lang-select" fill="#39393A">
            <path d="M21.302,24.463 C22.483,22.527 23.243,19.927 23.387,17 L25.949,17 C25.6467931,20.0384828 23.9732854,22.6714483 21.5630317,24.2931441 L21.302,24.463 Z M6.051,17 L8.614,17 C8.757,19.927 9.519,22.527 10.699,24.464 C8.23693103,22.9153103 6.4889453,20.3327848 6.08869765,17.3239759 L6.051,17 Z M10.699,7.536 C9.519,9.472 8.757,12.073 8.614,15 L6.051,15 C6.35417241,11.9615172 8.02771344,9.32668728 10.4379682,7.70576293 L10.699,7.536 Z M17,15 L17,6.185 C19.304,7.018 21.142,10.644 21.389,15 L17,15 Z M17,25.815 L17,17 L21.389,17 C21.1483333,21.2452821 19.3972104,24.7965707 17.1762927,25.7455239 L17,25.815 Z M15,17 L15,25.815 C12.697,24.983 10.859,21.357 10.612,17 L15,17 Z M15,6.186 L15,15 L10.612,15 C10.8526667,10.7556923 12.6037896,7.20442867 14.8237823,6.25547605 L15,6.186 Z M25.949,15 L23.387,15 C23.244,12.073 22.483,9.473 21.302,7.537 C23.764069,9.08472414 25.5120547,11.6681486 25.9114023,14.6761206 L25.949,15 Z M16,4 C9.384,4 4,9.383 4,16 C4,22.617 9.384,28 16,28 C22.617,28 28,22.617 28,16 C28,9.4848 22.7813567,4.16592284 16.3045087,4.00380714 L16,4 Z" id="â—-icon"></path>
        </g>
    </g>
</svg>