<?xml version="1.0" encoding="UTF-8"?>
<svg width="32px" height="32px" viewBox="0 0 32 32" version="1.1" xmlns="http://www.w3.org/2000/svg" xmlns:xlink="http://www.w3.org/1999/xlink">
    <title>icon/container/energy_account/meter_read</title>
    <g id="Icons-variable-width---for-Exporting-only" stroke="none" stroke-width="1" fill="none" fill-rule="evenodd">
        <g id="icon-/-32-/-meter-read" fill="#39393A">
            <path d="M30,23 C30,23.551 29.551,24 29,24 L26.2,24 C26.298,23.753 26.36,23.488 26.36,23.197 C26.36,22.213 25.725,21.458 24.897,21.266 C25.688,21.074 26.252,20.318 26.252,19.443 C26.252,18.087 25.173,17.14 23.458,17.14 C21.551,17.14 20.735,18.147 20.735,19.443 L22.546,19.443 C22.546,18.951 22.87,18.651 23.458,18.651 C24.034,18.651 24.381,18.987 24.381,19.539 C24.381,20.222 23.961,20.534 23.158,20.534 L22.367,20.534 L22.367,21.997 L23.158,21.997 C24.094,21.997 24.501,22.417 24.501,23.089 C24.501,23.676 24.045,24 23.458,24 C22.822,24 22.438,23.712 22.438,23.173 L20.64,23.173 C20.64,23.472 20.688,23.746 20.771,24 L17,24 L17,8 L29,8 C29.551,8 30,8.449 30,9 L30,23 Z M15,24 L3,24 C2.449,24 2,23.551 2,23 L2,9 C2,8.449 2.449,8 3,8 L15,8 L15,24 Z M29,6 L3,6 C1.346,6 0,7.346 0,9 L0,23 C0,24.654 1.346,26 3,26 L29,26 C30.654,26 32,24.654 32,23 L32,9 C32,7.40507143 30.748426,6.09653571 29.1759884,6.00510323 L29,6 Z M8.4102,13.3911 C8.9862,13.3911 9.2622,13.8231 9.2622,14.4111 C9.2622,15.0701 8.8782,15.6581 8.2662,16.3061 L5.8552,18.8841 L5.8552,20.1201 L11.1442,20.1201 L11.1442,18.6561 L8.2662,18.6561 L9.4662,17.3851 L9.7850457,17.0414867 C10.5145906,16.2344906 11.1202,15.386725 11.1202,14.4111 C11.1202,12.9351 10.0412,11.8801 8.4102,11.8801 C6.5512,11.8801 5.6872,12.9831 5.6872,14.6021 L7.4872,14.6021 C7.4872,13.8591 7.7632,13.3911 8.4102,13.3911 Z" id="â—-icon"></path>
        </g>
    </g>
</svg>