<?xml version="1.0" encoding="UTF-8"?>
<svg width="32px" height="32px" viewBox="0 0 32 32" version="1.1" xmlns="http://www.w3.org/2000/svg" xmlns:xlink="http://www.w3.org/1999/xlink">
    <title>icon/container/energy_account/meter_read_no_read</title>
    <g id="Icons-variable-width---for-Exporting-only" stroke="none" stroke-width="1" fill="none" fill-rule="evenodd">
        <g id="icon-/-32-/-meter-read-no-read" fill="#39393A">
            <path d="M30,23 C30,23.5522847 29.5522847,24 29,24 L17,24 L17,8 L29,8 C29.5522847,8 30,8.44771525 30,9 L30,23 Z M3,24 C2.44771525,24 2,23.5522847 2,23 L2,9 C2,8.44771525 2.44771525,8 3,8 L15,8 L15,24 L3,24 Z M3,6 C1.34314575,6 0,7.34314575 0,9 L0,23 C0,24.6568542 1.34314575,26 3,26 L29,26 C30.6568542,26 32,24.6568542 32,23 L32,9 C32,7.34314575 30.6568542,6 29,6 L3,6 Z M6,15 C5.44771525,15 5,15.4477153 5,16 C5,16.5522847 5.44771525,17 6,17 L11,17 C11.5522847,17 12,16.5522847 12,16 C12,15.4477153 11.5522847,15 11,15 L6,15 Z M21,15 C20.4477153,15 20,15.4477153 20,16 C20,16.5522847 20.4477153,17 21,17 L26,17 C26.5522847,17 27,16.5522847 27,16 C27,15.4477153 26.5522847,15 26,15 L21,15 Z" id="â—-icon"></path>
        </g>
    </g>
</svg>