<?xml version="1.0" encoding="UTF-8"?>
<svg width="32px" height="32px" viewBox="0 0 32 32" version="1.1" xmlns="http://www.w3.org/2000/svg" xmlns:xlink="http://www.w3.org/1999/xlink">
    <title>icon/container/energy_account/meter_read_add_01</title>
    <g id="Icons-variable-width---for-Exporting-only" stroke="none" stroke-width="1" fill="none" fill-rule="evenodd">
        <g id="icon-/-32-/-meter-read-add-01" fill="#39393A">
            <path d="M18.062,9.003 C17.9959036,9.53428549 17.9826843,10.0704858 18.0223421,10.6037372 L18.062,11.003 L17,11.003 L17,27.003 L20.772,27.003 C20.706463,26.8027931 20.6652035,26.5957042 20.6489252,26.3861763 L20.641,26.176 L22.441,26.176 C22.441,26.715 22.825,27.003 23.461,27.003 C23.7234794,27.0361174 23.9876026,26.9555074 24.1868584,26.781469 C24.3861141,26.6074307 24.5015147,26.3565487 24.504,26.092 C24.504,25.462 24.1462852,25.0534844 23.3303306,25.0048809 L23.161,25 L22.37,25 L22.37,23.534 L23.161,23.534 C23.964,23.534 24.384,23.222 24.384,22.539 C24.4011332,22.2923617 24.3080878,22.0508112 24.1299226,21.879402 C23.9814515,21.736561 23.7865916,21.6546689 23.5835217,21.6467618 L23.461,21.651 C22.9182308,21.651 22.6004083,21.9066213 22.5547242,22.332919 L22.549,22.443 L20.738,22.443 C20.738,21.15 21.554,20.143 23.461,20.143 C25.176,20.143 26.255,21.087 26.255,22.443 C26.2752479,23.2896289 25.7165249,24.0413278 24.9,24.266 C25.7811592,24.4867473 26.3891127,25.2920774 26.36,26.2 C26.3586052,26.4058201 26.3277081,26.6100169 26.2685426,26.8064214 L26.2,27 L29,27 C29.5128358,27 29.9355072,26.6139598 29.9932723,26.1166211 L30,26 L30,16.921 C30.6438373,16.5477325 31.2320665,16.0869853 31.7480851,15.5523891 L32,15.279 L32,26.003 C32,27.6006809 30.75108,28.9066609 29.1762728,28.9979073 L29,29.003 L3,29.003 C1.40231912,29.003 0.0963391206,27.75408 0.00509269341,26.1792728 L0,26.003 L0,12.003 C0,10.4053191 1.24891996,9.09933912 2.82372721,9.00809269 L3,9.003 L18.062,9.003 Z M15,11 L3,11 C2.48716416,11 2.06449284,11.3860402 2.00672773,11.8833789 L2,12 L2,26 C2,26.5128358 2.38604019,26.9355072 2.88337887,26.9932723 L3,27 L15,27 L15,11 Z M8.22430814,14.8676664 L8.41,14.881 C9.11386092,14.82158 9.81000974,15.0626917 10.3263379,15.544725 C10.8426661,16.0267583 11.13098,16.7047208 11.12,17.411 C10.9732892,18.4920857 10.4536608,19.4850973 9.65517361,20.2208537 L9.466,20.386 L8.266,21.656 L11.14,21.656 L11.14,23.12 L5.852,23.12 L5.852,21.885 L8.262,19.307 C8.82746883,18.8281139 9.18580035,18.1490757 9.262,17.412 C9.262,16.866 9.02402041,16.4545102 8.52884548,16.3985117 L8.41,16.392 L8.28551852,16.3981695 C7.76729037,16.4513905 7.52296741,16.8457161 7.49070815,17.4555105 L7.487,17.6 L5.687,17.6 C5.60646182,16.8563739 5.86750843,16.1163455 6.39679507,15.5878363 C6.88197448,15.1033696 7.5445573,14.8445601 8.22430814,14.8676664 L8.22430814,14.8676664 Z M26,4 C29.3137085,4 32,6.6862915 32,10 C32,13.3137085 29.3137085,16 26,16 C22.6862915,16 20,13.3137085 20,10 C20,6.6862915 22.6862915,4 26,4 Z M26,6 C25.4871642,6 25.0644928,6.38604019 25.0067277,6.88337887 L25,7 L25,9 L22.8849047,9.00009794 C22.656224,9.0142464 22.4389385,9.11122426 22.2750814,9.2750814 C22.1112243,9.43893854 22.0142464,9.65622402 22.0000979,9.88490467 L22.0000979,10.1150953 C22.0142464,10.343776 22.1112243,10.5610615 22.2750814,10.7249186 C22.4389385,10.8887757 22.656224,10.9857536 22.8849047,10.9999021 L25,11 L25,13 C25,13.5522847 25.4477153,14 26,14 C26.5128358,14 26.9355072,13.6139598 26.9932723,13.1166211 L27,13 L27,11 L29,11 C29.2698634,11.0162218 29.5337519,10.9160853 29.7249186,10.7249186 C29.8887757,10.5610615 29.9857536,10.343776 29.9999021,10.1150953 L30,10 C30.0162218,9.73013663 29.9160853,9.46624806 29.7249186,9.2750814 C29.5610615,9.11122426 29.343776,9.0142464 29.1150953,9.00009794 L27,9 L27,7 C27,6.44771525 26.5522847,6 26,6 Z" id="â—-icon"></path>
        </g>
    </g>
</svg>