<?xml version="1.0" encoding="UTF-8"?>
<svg width="32px" height="32px" viewBox="0 0 32 32" version="1.1" xmlns="http://www.w3.org/2000/svg" xmlns:xlink="http://www.w3.org/1999/xlink">
    <title>icon/container/energy_account/my_product</title>
    <g id="Icons-variable-width---for-Exporting-only" stroke="none" stroke-width="1" fill="none" fill-rule="evenodd">
        <g id="icon-/-32-/-my-product" fill="#39393A">
            <path d="M26,1 C27.1045695,1 28,1.8954305 28,3 L28,28 C28,29.1045695 27.1045695,30 26,30 L6,30 C4.8954305,30 4,29.1045695 4,28 L4,3 C4,1.8954305 4.8954305,1 6,1 L26,1 Z M26,3 L6,3 L6,28 L26,28 L26,3 Z M22,14.5 L22,16.5 L10,16.5 L10,14.5 L22,14.5 Z M22,8.5 L22,10.5 L10,10.5 L10,8.5 L22,8.5 Z" id="â—-icon"></path>
        </g>
    </g>
</svg>