<?xml version="1.0" encoding="UTF-8"?>
<svg width="32px" height="32px" viewBox="0 0 32 32" version="1.1" xmlns="http://www.w3.org/2000/svg" xmlns:xlink="http://www.w3.org/1999/xlink">
    <title>icon/container/energy_account/protection</title>
    <g id="Icons-variable-width---for-Exporting-only" stroke="none" stroke-width="1" fill="none" fill-rule="evenodd">
        <g id="icon-/-32-/-protection" fill="#39393A">
            <path d="M14.841,31.543 C15.5351129,32.0368816 16.4658871,32.0368816 17.16,31.543 C17.51,31.293 17.8576667,31.0463333 18.203,30.803 C20.946031,29.0152917 23.4981009,26.9504473 25.819,24.641 C28.3404558,21.9547881 29.8508213,18.476317 30.092,14.8 C30.145,14.223 30.208,13.617 30.271,13.018 L30.271,13.018 C30.356,12.208 30.439,11.411 30.493,10.718 C30.621171,9.47012716 30.5939631,8.21117037 30.412,6.97 C30.2138233,5.66538017 29.618078,4.4536355 28.706,3.5 C27.636556,2.4756618 26.312953,1.75551682 24.872,1.414 C22.5875395,0.84293649 20.2697153,0.414773575 17.932,0.132 C16.6498133,-0.0360038102 15.3511867,-0.0360038102 14.069,0.132 C11.7305458,0.415661392 9.41204927,0.844827048 7.127,1.417 C5.68636175,1.75765924 4.36278978,2.47675168 3.293,3.5 C2.38428431,4.45245632 1.79074713,5.66152648 1.593,6.963 C1.41085345,8.20416864 1.38398,9.4631896 1.513,10.711 C1.566,11.401 1.649,12.197 1.734,13.011 C1.797,13.611 1.861,14.22 1.914,14.797 C2.15307461,18.4732521 3.6613099,21.9524085 6.181,24.64 C8.50296853,26.9488812 11.0560433,29.0130551 13.8,30.8 L13.8,30.8 L14.841,31.543 Z M14.971,29.183 L16,29.913 L17.029,29.183 L17.029,29.183 C23.274,24.758 27.443,21.805 28.099,14.614 C28.158,13.966 28.224,13.343 28.287,12.746 C28.8,7.871 29.137,4.673 24.338,3.346 C22.1429585,2.79826948 19.9159999,2.38747779 17.67,2.116 C16.5611162,1.97003359 15.4378838,1.97003359 14.329,2.116 C12.0823524,2.38755646 9.85473326,2.79834679 7.659,3.346 C2.859,4.674 3.198,7.87 3.711,12.746 L3.711,12.746 C3.774,13.346 3.84,13.969 3.899,14.618 C4.555,21.809 8.725,24.762 14.97,29.187 L14.971,29.183 Z M12.671,13.913 L19.338,13.913 C20.2569344,13.9152062 21.0005542,14.6610631 20.9999997,15.58 L20.9999997,22.154 L10.9999997,22.154 L10.9999997,15.58 C10.9997347,15.1379761 11.175142,14.7139655 11.4876064,14.4013136 C11.8000708,14.0886617 12.223976,13.913 12.666,13.913 L12.671,13.913 Z M17.625,11.755 C16.4226518,12.5577025 14.8137533,12.3586477 13.8432868,11.287122 C12.8728202,10.2155964 12.8335993,8.59490555 13.751098,7.47769084 C14.6685967,6.36047614 16.2659831,6.08382878 17.5057521,6.82743167 C18.7455212,7.57103456 19.253604,9.11052436 18.7,10.446 C18.477952,10.9795901 18.1024014,11.4351932 17.621,11.755 L17.625,11.755 Z" id="â—-icon"></path>
        </g>
    </g>
</svg>