<svg width="1600" height="1200" viewBox="0 0 1600 1200" xmlns="http://www.w3.org/2000/svg"><path d="M1300 150a150 150 0 01150 150v600a150 150 0 01-150 150h-200v225a62.5 62.5 0 01-100 50l-366.65-275H300a150 150 0 01-150-150V300a150 150 0 01150-150h1000zm0 100H300a50 50 0 00-50 50v600a50 50 0 0050 50h333.35a100 100 0 0160 20L1000 1200v-190a60 60 0 0160-60h240a50 50 0 0050-50V300a50 50 0 00-50-50zM550 525a75 75 0 110 150 75 75 0 010-150zm250.15 0a75 75 0 110 150 75 75 0 010-150zm250 0a75 75 0 110 150 75 75 0 010-150z" fill-rule="evenodd"/></svg>