<svg width="1600" height="1200" viewBox="0 0 1600 1200" xmlns="http://www.w3.org/2000/svg"><path d="M1349.45 852.65L1225.5 728.7a87.15 87.15 0 00-123.25 0l-88.9 89.15-25.8-11.2a1352.7 1352.7 0 01-88.85-43.7c-54.1-29.15-113.6-67-153-106.5-41.5-41.3-81.4-105.1-111.6-161.7l-8-15.2c-13.35-25.75-24.5-49.35-32.85-67.85l-11.05-25 89.1-88.9a86.9 86.9 0 000-123.25L547.4 50.6a87 87 0 00-123.25 0l-182 182.05c-14.55 15.2-16.85 33.45-17.15 52.4.15 33 10.1 74.35 26.6 122.75 49.95 144.25 160.5 346.4 276 462.5 77.45 77.25 193.7 152.2 305.6 208.95a1297.75 1297.75 0 00159 68.75c48.6 16.7 90.1 26.8 123.15 26.95 18.8-.3 36.95-2.65 52-17l182.1-182.05a87.15 87.15 0 000-123.25z" fill-rule="evenodd"/></svg>