<svg width="1600" height="1200" viewBox="0 0 1600 1200" xmlns="http://www.w3.org/2000/svg"><path d="M250 350c-85 0-150 65-150 150s65 150 150 150 150-65 150-150c0-82-60.45-145.35-141-149.75l-9-.25zm750 200H600c-55 0-100 45-100 100v450h600V650c0-52.5-41-95.9-92.55-99.7l-7.45-.3zm200 200v350h350V835c0-50-40-85-85-85h-265zm150-100c85 0 150-65 150-150s-65-150-150-150-150 65-150 150c0 82 60.45 145.35 141 149.75l9 .25zM800 450c95 0 175-80 175-175s-80-175-175-175-175 80-175 175c0 91.85 74.75 169.65 165.55 174.75l9.45.25zM50 885v215h350V750H140c-50 0-85 40-85 85l-5 50z" fill-rule="evenodd"/></svg>