<svg width="48" height="48" viewBox="0 0 48 48" xmlns="http://www.w3.org/2000/svg">
    <path d="M26 22c2.5 0 4.5-2 4.5-4.5S28.5 13 26 13s-4.5 2-4.5 4.5 2 4.5 4.5 4.5zm0-7c1.4 0 2.5 1.1 2.5 2.5S27.4 20 26 20s-2.5-1.1-2.5-2.5S24.6 15 26 15zm-10 7c2.5 0 4.5-2 4.5-4.5S18.5 13 16 13s-4.5 2-4.5 4.5 2 4.5 4.5 4.5zm0-7c1.4 0 2.5 1.1 2.5 2.5S17.4 20 16 20s-2.5-1.1-2.5-2.5S14.6 15 16 15zm21.1 9.3c-.5-.4-1.2-.4-1.9-.2L31 25.9V25c0-1.1-.9-2-2-2H13c-1.1 0-2 .9-2 2v8c0 1.1.9 2 2 2h16c1.1 0 2-.9 2-2v-.8l4.3 1.7c1 .4 2.2-.1 2.6-1.1.1-.3.1-.5.1-.8v-6c0-.7-.3-1.3-.9-1.7zM29 33H13v-8h16v8zm7-1l-5-2v-2l5-2v6z" fill-rule="evenodd" fill="#EA1B0A"/>
</svg>
