<svg width="48" height="48" viewBox="0 0 48 48" xmlns="http://www.w3.org/2000/svg">
    <path d="M34.244 27.704v1.94H32.74v9.406c0 1.019-.79 1.857-1.789 1.934l-.151.006H17.2c-1.07 0-1.94-.87-1.94-1.94v-9.406h-1.506v-1.94h20.49zm-3.444 1.94H17.2v9.406h13.6v-9.406zm-1.95 5.526v1.94h-9.71v-1.94h9.71zm8.21-17.03c1.07 0 1.94.87 1.93 1.94V31.3c0 1.07-.87 1.94-1.94 1.94h-2.81V31.3h2.81V20.08H10.94V31.3h2.81v1.94h-2.81C9.87 33.24 9 32.37 9 31.3V20.08c0-1.07.87-1.94 1.94-1.94zm-8.21 13.14v1.94h-9.71v-1.94h9.71zm4.33-9.1a1.06 1.06 0 1 1 0 2.12 1.06 1.06 0 0 1 0-2.12zM24.02 8c2.33.01 5.47.93 7.43 1.86.65.32 1.17.64 1.5.97.18.19.34.4.35.7v3.66c0 .35-.14.66-.36.88-.23.22-.54.36-.88.36h-2.49c-.35 0-.66-.14-.88-.36-.22-.23-.36-.54-.36-.88V13.4c-.06-.02-.14-.05-.23-.09-.187-.073-.427-.16-.702-.254l-.438-.146c-.92-.3-2.07-.58-2.98-.58-.8 0-1.77.22-2.61.47-.76.23-1.39.47-1.7.6v1.79c0 .35-.14.66-.36.88-.23.22-.54.36-.88.36h-2.49c-.34 0-.65-.14-.88-.35-.22-.23-.36-.54-.36-.88v-3.66c.01-.29.16-.5.35-.69.34-.33.85-.65 1.51-.97.66-.32 1.44-.63 2.29-.91 1.7-.55 3.62-.97 5.17-.97z" fill-rule="evenodd" fill="#EA1B0A"/>
</svg>
