<svg width="48" height="48" viewBox="0 0 48 48" xmlns="http://www.w3.org/2000/svg">
    <path d="M33.1 19.8c.5.1.9.5.9 1 0 .6-.4 1-1 1h-.1c-1-.1-2-.3-3-.5-1.6-.3-2.8-1.6-3.2-3.2-.2-1-.4-2-.5-3-.1-.5.3-1 .9-1.1h.1c.5 0 .9.4 1 .9.1 1 .3 1.9.5 2.9.2.8.8 1.4 1.5 1.5 1 .3 2 .4 2.9.5m-13.3-4.9c-.1 1-.3 1.9-.5 2.9-.2.8-.8 1.4-1.5 1.5-1 .2-1.9.3-2.9.5-.5.1-.9.5-.9 1 0 .6.4 1 1 1h.1c1-.1 2-.3 3-.5 1.6-.3 2.9-1.6 3.2-3.2.2-1 .4-2 .5-3 .1-.5-.3-1-.9-1.1h-.1c-.5 0-1 .4-1 .9m-4.9 13.3c1 .1 1.9.3 2.9.5.8.2 1.4.8 1.5 1.5.2 1 .3 1.9.5 2.9.1.5.5.9 1 .9.6 0 1-.4 1-1v-.1c-.1-1-.3-2-.5-3-.3-1.6-1.6-2.8-3.2-3.2-1-.2-2-.4-3-.5-.5-.1-1 .3-1.1.9v.1c0 .6.4 1 .9 1m13.3 4.9c.1-1 .3-1.9.5-2.9.2-.8.8-1.4 1.5-1.5 1-.2 1.9-.3 2.9-.5.5-.1.9-.5.9-1 0-.6-.4-1-1-1h-.1c-1 .1-2 .3-3 .5-1.6.3-2.9 1.6-3.2 3.2-.2 1-.4 2-.5 3-.1.5.3 1 .9 1.1h.1c.5 0 1-.4 1-.9" fill-rule="evenodd" fill="#EA1B0A"/>
</svg>
