<svg width="48" height="48" viewBox="0 0 48 48" xmlns="http://www.w3.org/2000/svg">
    <path d="M34.6 13.387l.013.013a1 1 0 0 1 0 1.414l-3.38 3.382A12.833 12.833 0 0 1 35.5 24c-1.777 4.844-6.273 8.257-11.5 8.257-1.967 0-3.83-.483-5.484-1.344l-3.702 3.7a1 1 0 0 1-1.414 0l-.013-.013a1 1 0 0 1 0-1.414l3.38-3.382A12.833 12.833 0 0 1 12.5 24c1.777-4.844 6.273-8.257 11.5-8.257 1.967 0 3.83.483 5.484 1.344l3.702-3.7a1 1 0 0 1 1.414 0zm-6.187 7.627l-1.568 1.57c.188.424.291.904.291 1.416 0 1.855-1.359 3.273-3.136 3.273-.54 0-1.042-.131-1.48-.366l-1.58 1.582A5.066 5.066 0 0 0 24 29.505l.213-.004c2.825-.115 5.014-2.493 5.014-5.501 0-1.108-.297-2.13-.814-2.986zM24 18.495c-2.927 0-5.227 2.422-5.227 5.505 0 1.108.297 2.13.814 2.986l1.568-1.57A3.497 3.497 0 0 1 20.864 24c0-1.855 1.359-3.273 3.136-3.273.54 0 1.042.131 1.48.366l1.58-1.582A5.066 5.066 0 0 0 24 18.495z" fill-rule="evenodd" fill="#EA1B0A"/>
</svg>
