<svg width="48" height="48" viewBox="0 0 48 48" xmlns="http://www.w3.org/2000/svg">
    <path d="M24 15.818c-5.227 0-9.723 3.382-11.5 8.182 1.777 4.8 6.273 8.182 11.5 8.182S33.723 28.8 35.5 24c-1.777-4.8-6.273-8.182-11.5-8.182zm0 13.637c-2.927 0-5.227-2.4-5.227-5.455s2.3-5.455 5.227-5.455c2.927 0 5.227 2.4 5.227 5.455s-2.3 5.455-5.227 5.455zm0-8.728c-1.777 0-3.136 1.418-3.136 3.273 0 1.855 1.359 3.273 3.136 3.273 1.777 0 3.136-1.418 3.136-3.273 0-1.855-1.359-3.273-3.136-3.273z" fill-rule="evenodd" fill="#EA1B0A"/>
</svg>
