<svg width="48" height="48" viewBox="0 0 48 48" xmlns="http://www.w3.org/2000/svg">
    <path d="M31.019 27.223c-1.303-.271-2.29-1.188-2.836-2.392a.78.78 0 0 1-.1-.357c0-.646 1.775-.516 1.775-1.433 0-.387-.473-.63-.817-.63-.312 0-.571.228-.903.228a.696.696 0 0 1-.17-.028c.044-.545.07-1.103.07-1.646 0-.488-.026-1.176-.242-1.634-.688-1.49-2.005-2.362-3.652-2.362-1.791 0-3.15.673-3.94 2.362-.214.458-.257 1.146-.257 1.647 0 .545.043 1.088.086 1.633-.071.015-.144.028-.214.028-.317 0-.588-.229-.888-.229-.359 0-.786.244-.786.646 0 .887 1.774.772 1.774 1.418a.808.808 0 0 1-.1.357c-.558 1.204-1.518 2.106-2.836 2.392a.374.374 0 0 0-.316.387c0 .674 1.518.916 1.978.988.126.344.07.945.57.945.373 0 .732-.143 1.104-.143 1.518 0 1.92 1.36 3.667 1.36 1.82 0 2.164-1.36 3.695-1.36.372 0 .746.128 1.118.128.486 0 .445-.6.558-.93.46-.072 1.976-.314 1.976-.988a.372.372 0 0 0-.314-.387zM35 30.875A4.126 4.126 0 0 1 30.875 35H17.127A4.127 4.127 0 0 1 13 30.875v-13.75A4.127 4.127 0 0 1 17.127 13h13.748A4.126 4.126 0 0 1 35 17.125v13.75z" fill-rule="evenodd" fill="#EA1B0A"/>
</svg>
