<svg width="48" height="48" viewBox="0 0 48 48" xmlns="http://www.w3.org/2000/svg">
    <path d="M29.902 16.737c-.764 0-1.359.595-1.359 1.36 0 .763.595 1.358 1.359 1.358s1.359-.595 1.359-1.359-.595-1.359-1.359-1.359zM28.968 13h-9.853A6.09 6.09 0 0 0 13 19.115v9.768a6.09 6.09 0 0 0 6.115 6.115h9.768a6.09 6.09 0 0 0 6.115-6.115v-9.768c.085-3.397-2.633-6.115-6.03-6.115zm3.992 15.968c0 2.208-1.784 4.077-4.077 4.077h-9.768c-2.208 0-4.077-1.784-4.077-4.077v-9.853c0-2.208 1.784-3.992 4.077-4.077h9.768c2.208 0 4.077 1.784 4.077 4.077v9.853zM24.04 18.35a5.69 5.69 0 1 0 0 11.381 5.69 5.69 0 0 0 0-11.381zm0 9.343a3.625 3.625 0 0 1-3.652-3.653 3.625 3.625 0 0 1 3.652-3.652 3.625 3.625 0 0 1 3.653 3.652 3.625 3.625 0 0 1-3.653 3.653z" fill-rule="evenodd" fill="#EA1B0A"/>
</svg>
