<svg width="48" height="48" viewBox="0 0 48 48" xmlns="http://www.w3.org/2000/svg">
    <path d="M31.605 31.419v-5.701c0-3.051-1.634-4.469-3.809-4.469-1.776 0-2.563.99-2.995 1.677h.03V21.48h-3.31s.045.93 0 9.939h3.31V25.86c0-.286.015-.588.1-.802.242-.588.787-1.203 1.704-1.203 1.187 0 1.662.902 1.662 2.25v5.313h3.308zm-15.21 0h3.308V21.48h-3.308v9.939zm1.675-14.724c-1.131 0-1.876.744-1.876 1.719 0 .945.717 1.72 1.833 1.72h.013c1.16 0 1.877-.775 1.877-1.72-.015-.975-.716-1.72-1.847-1.72zM35 30.875A4.126 4.126 0 0 1 30.873 35H17.127A4.126 4.126 0 0 1 13 30.875v-13.75A4.126 4.126 0 0 1 17.127 13h13.746A4.126 4.126 0 0 1 35 17.125v13.75z" fill-rule="evenodd" fill="#EA1B0A"/>
</svg>
