<svg width="48" height="48" viewBox="0 0 48 48" xmlns="http://www.w3.org/2000/svg">
    <path d="M39.403 17.673a7.287 7.287 0 0 0-1.265-3.115c-.876-.877-1.947-1.266-3.115-1.363-4.381-.195-11-.195-11-.195s-6.62 0-11 .292c-1.169 0-2.337.487-3.115 1.363-.682.876-1.071 1.947-1.266 3.115a44.126 44.126 0 0 0-.292 5.062v2.336c0 1.655.097 3.407.292 5.062a7.287 7.287 0 0 0 1.266 3.115c.973.876 2.141 1.363 3.407 1.363 2.53.195 10.61.292 10.61.292s6.62 0 11-.292c1.168 0 2.337-.487 3.115-1.363.682-.876 1.071-1.947 1.266-3.115.194-1.655.292-3.407.292-5.062v-2.336c.097-1.752 0-3.505-.195-5.16zm-18.3 10.61v-8.956l8.37 4.381-8.37 4.575z" fill-rule="evenodd" fill="#EA1B0A"/>
</svg>
