<svg width="48" height="48" viewBox="0 0 48 48" xmlns="http://www.w3.org/2000/svg">
    <path d="M24 12c2.711 0 5.423.3 8.134.8 1.606.3 2.811 1.5 3.113 3.1a43.942 43.942 0 0 1 0 16.2c-.302 1.6-1.507 2.8-3.113 3.1-2.71.5-5.423.8-8.134.8-2.71 0-5.422-.3-8.134-.8-1.607-.3-2.812-1.5-3.113-3.1-1.004-5.3-1.004-10.8 0-16.2.301-1.6 1.506-2.8 3.113-3.1 2.712-.5 5.423-.8 8.134-.8zm0 3.838a.5.5 0 0 0-.472.334L21.8 21.106l-5.225.118a.498.498 0 0 0-.292.897l4.158 3.168-1.502 5.007a.498.498 0 0 0 .763.554l4.013-2.779a.502.502 0 0 1 .57 0l4.012 2.78c.174.12.407.117.58-.008a.496.496 0 0 0 .183-.547l-1.502-5.007 4.158-3.168a.498.498 0 1 0-.292-.897l-5.225-.118-1.728-4.934a.498.498 0 0 0-.47-.334z" fill-rule="evenodd" fill="#EA1B0A"/>
</svg>
