<svg width="48" height="48" viewBox="0 0 48 48" xmlns="http://www.w3.org/2000/svg">
    <path d="M40.2 21.1c0-2.6-1.9-3.8-3.7-3.8h-6c.4-1.2.8-2.7.9-3.9.1-2-.6-3.3-1.2-3.9-.9-1-2.3-1.5-3.8-1.5h-.7c-.8 0-1.5.6-1.7 1.4 0 0-.8 3.3-2.1 5.9-1 2.2-1.9 4-2.5 4h-1.2v-.2c0-.4-.3-.8-.8-.8H8.7c-.4 0-.7.4-.7.8v17.6c0 .4.3.8.8.8h8.7c.4 0 .7-.3.7-.7 1.2.7 3 1.2 5.4 1.2h9.6c2.9 0 3.4-1.8 3.5-3 0-.3 0-.9-.3-1.4 1.1-.5 1.7-1.3 1.8-2.6 0-.7-.1-1.4-.4-1.9.9-.4 1.6-1.2 1.7-2.8 0-.9-.2-1.6-.7-2.2.9-.6 1.4-1.7 1.4-3zM13.1 34c-.9 0-1.7-.8-1.7-1.7 0-1 .8-1.7 1.7-1.7.9 0 1.7.8 1.7 1.7 0 .9-.7 1.7-1.7 1.7zM36 22.9h-4.1c-.5 0-1 .5-1 1s.5 1 1 1H36c.3 0 .8.1 1.1.4.3.3.3.7.3 1 0 .8-.1 1.3-2.5 1.3h-2.7c-.5 0-1 .5-1 1s.5 1 1 1h2.6c.5 0 .8.1 1 .3.3.3.3.8.3 1-.1.7-.3.8-.6.9-.4.2-1.1.2-2 .2H30c-.5 0-1 .5-1 1s.5 1 1 1h3c1.5 0 1.5.6 1.5 1 0 .5 0 1-1.5 1h-9.6c-2.8 0-4.5-.9-5.4-1.6V21.3h1.2c1.9 0 2.8-1.8 4.4-5.1 1.3-2.9 2.2-6.3 2.2-6.3h.5c1 0 3.2.3 3 3.3-.2 2.5-1.9 6.1-1.9 6.1h9c.8 0 1.7.3 1.7 1.8.1 1.2-.6 1.8-2.1 1.8z" fill-rule="evenodd" fill="#EA1B0A"/>
</svg>
