<svg xmlns="http://www.w3.org/2000/svg" width="56" height="53" viewBox="0 0 56 53">
  <path fill="#EA1B0A" fill-rule="evenodd" d="M37.81,26 C37.7245932,25.7080115 37.7495066,25.3948147 37.88,25.12 C38.6185411,23.5726355 39.5492122,22.1245516 40.65,20.81 C40.9474137,20.4838936 41.4495908,20.4516974 41.7862137,20.7371537 C42.1228366,21.0226099 42.1731272,21.5232987 41.9,21.87 C41.3008233,22.5932292 40.7591694,23.362244 40.28,24.17 C47.1775105,21.9882516 54.6819284,22.901353 60.8550017,26.673467 C67.0280749,30.4455811 71.2644683,36.706812 72.47,43.84 C72.516332,44.1027221 72.455767,44.3730659 72.3017742,44.5909094 C72.1477814,44.8087528 71.9131284,44.9560344 71.65,45.000084 L71.48,45.000084 C70.9846072,45.006376 70.5592284,44.6490578 70.48,44.16 C69.3721595,37.5598838 65.438536,31.7721425 59.7094986,28.3128109 C53.9804612,24.8534794 47.0268183,24.0672256 40.67,26.16 C41.5675027,26.6123977 42.5006381,26.9903342 43.46,27.29 C43.8188554,27.4663812 43.9981673,27.8758756 43.8844035,28.2592101 C43.7706397,28.6425446 43.3969764,28.8879302 43,28.84 C41.3669329,28.3274907 39.8047057,27.6118899 38.35,26.71 L38.35,26.71 C38.0881591,26.5485121 37.8956953,26.2954578 37.81,26 Z M31.39,59.6 C31.1697871,59.6428043 30.9767264,59.7739603 30.8557981,59.9629108 C30.7348698,60.1518612 30.6966344,60.3821055 30.75,60.6 C30.96193,61.6475641 31.0823835,62.7115702 31.11,63.78 C26.5152953,58.9044179 24.274773,52.2678004 24.9741031,45.604952 C25.6734332,38.9421036 29.2431013,32.9153215 34.75,29.1 L35.75,28.46 C36.0465304,28.2599313 36.2138005,27.916863 36.1888011,27.5600258 C36.1638017,27.2031885 35.9503309,26.8867943 35.6288011,26.7300258 C35.3072713,26.5732572 34.9265304,26.5999313 34.63,26.8 L33.63,27.42 C27.6824661,31.5264111 23.8031043,38.0058048 22.9921334,45.1875941 C22.1811626,52.3693834 24.51795,59.5507075 29.4,64.88 C28.5166044,64.8387777 27.637506,64.7318152 26.77,64.56 C26.4449485,64.496143 26.113402,64.6341376 25.9296495,64.9097663 C25.745897,65.1853951 25.7460353,65.5445129 25.93,65.82 C26.0493391,66.0017236 26.2367201,66.1278455 26.45,66.17 C27.7666545,66.4353325 29.1068901,66.5660055 30.45,66.5601979 C30.8366667,66.5601979 31.2233333,66.5601979 31.61,66.5601979 C32.241227,66.5252672 32.7452672,66.021227 32.78,65.39 C32.8709505,63.6812112 32.7466418,61.9677674 32.41,60.29 C32.3802307,60.0561609 32.2512671,59.8464431 32.0560189,59.7143634 C31.8607706,59.5822837 31.6181245,59.5406185 31.39,59.6 L31.39,59.6 Z M65.16,48 C65.1520656,48.9149026 65.0718156,49.8277463 64.92,50.73 C64.92,50.97 64.85,51.21 64.8,51.45 C64.8,51.52 64.8,51.6 64.8,51.67 L64.8,51.67 L64.8,51.75 L64.8,51.9 C63.2165981,58.8285769 57.5567801,64.0838388 50.53,65.15 L50.06,65.21 L49.9,65.21 C49.2037095,65.3027353 48.5024022,65.3528286 47.8,65.36 C47.2179087,65.3518047 46.6368467,65.308392 46.06,65.23 L46,65.23 L45.36,65.14 L45.19,65.14 C42.4109492,64.7007502 39.7870782,63.5693563 37.56,61.85 C34.0022627,59.1862611 31.6237196,55.2399604 30.93,50.85 C30.93,50.6566667 30.9,50.46 30.84,50.26 C30.84,50.26 30.84,50.16 30.84,50.12 C30.7263306,49.4185586 30.659516,48.7103238 30.64,48 C30.64,47.79 30.64,47.56 30.64,47.34 L30.64,47.34 C30.64,46.64 30.76,45.92 30.86,45.28 L30.86,45.28 C30.86,45.28 30.86,45.22 30.86,45.19 C31.2716746,42.5820862 32.3002018,40.1101925 33.86,37.98 C36.5468513,34.2345051 40.6395043,31.7406575 45.2,31.07 L45.2,31.07 C46.0866471,30.9303543 46.9824492,30.8568183 47.88,30.85 C48.7407177,30.8555214 49.5998035,30.925719 50.45,31.06 C50.81,31.06 51.16,31.16 51.51,31.23 L51.58,31.23 C54.2361468,31.8015166 56.7137947,33.0094557 58.8,34.75 C62.0487203,37.3763937 64.2166314,41.1070518 64.89,45.23 C64.8916888,45.2599762 64.8916888,45.2900238 64.89,45.32 L64.89,45.32 C65.0464017,46.2053925 65.1366513,47.1012029 65.16,48 Z M44.63,34.42 C43.6017003,35.6346096 42.8051603,37.0277072 42.28,38.53 C43.8393776,38.8043971 45.4171322,38.961504 47,39 L47,32.79 C46.0673945,33.0894616 45.2432868,33.656253 44.63,34.42 Z M37.3,36.89 C38.2942066,37.4305995 39.352532,37.8438504 40.45,38.12 C41.0354148,36.438942 41.8972509,34.8673586 43,33.47 C40.8695486,34.1724489 38.9223732,35.3407541 37.3,36.89 L37.3,36.89 Z M32.5,47.17 L38.85,47.17 C38.8875972,44.7052337 39.2233721,42.2540772 39.85,39.87 L39.39,39.72 C38.88,39.55 38.39,39.4 37.9,39.2 C37.41,39 36.9,38.76 36.42,38.51 L36,38.27 C33.9196056,40.7907711 32.6939736,43.907378 32.5,47.17 L32.5,47.17 Z M39.86,56.37 L39.66,55.37 C39.48,54.5 39.3,53.6 39.17,52.71 C39.04,51.82 39,50.87 38.89,50 C38.89,49.6866667 38.8633333,49.3733333 38.81,49.06 L32.5,49.06 C32.6949134,52.3632377 33.9425011,55.5172517 36.06,58.06 C37.2354635,57.3106203 38.5162587,56.7410035 39.86,56.37 L39.86,56.37 Z M43.08,62.79 C42.5421769,62.180526 42.0789097,61.5091243 41.7,60.79 C41.36,60.14 41.05,59.47 40.7,58.79 L40.37,58.09 C39.2899747,58.3657199 38.2510203,58.7826466 37.28,59.33 C38.9624775,60.8596216 40.9347236,62.0361684 43.08,62.79 L43.08,62.79 Z M47,57.19 C45.4197833,57.2252974 43.8448508,57.3858 42.29,57.67 C42.6443428,58.6337834 43.0967153,59.5586338 43.64,60.43 C44.1897103,61.3685714 44.9287068,62.1824892 45.81,62.82 C46.1747488,63.0790826 46.5803784,63.275137 47.01,63.4 L47,57.19 Z M47,49 L40.66,49 C40.7065272,51.3358054 41.0424216,53.6568359 41.66,55.91 C43.4223529,55.586477 45.2084359,55.4092066 47,55.38 L47,49 Z M47,40.79 C45.218136,40.7490244 43.4424349,40.5651005 41.69,40.24 C41.0696718,42.4925897 40.7337274,44.8139659 40.69,47.15 L47,47.15 L47,40.79 Z M52.82,33.45 C53.9227491,34.8473586 54.7845852,36.418942 55.37,38.1 C56.4713667,37.8260897 57.533277,37.4127511 58.53,36.87 C56.8987615,35.3320028 54.9494513,34.1712927 52.82,33.47 L52.82,33.45 Z M48.82,38.98 C50.3997367,38.9444629 51.9743915,38.7873318 53.53,38.51 C53.0590828,37.1804839 52.3843612,35.932249 51.53,34.81 C50.9483172,34.0310258 50.1819671,33.4090107 49.3,33 C49.15,32.93 48.99,32.88 48.83,32.83 L48.82,38.98 Z M48.82,47.15 L55.15,47.15 C55.1040903,44.814144 54.7681849,42.4930376 54.15,40.24 C52.4041877,40.5643352 50.6351933,40.7482571 48.86,40.79 L48.82,47.15 Z M48.82,55.34 L49.49,55.34 C50.14,55.34 50.81,55.42 51.49,55.49 C52.17,55.56 52.86,55.66 53.49,55.76 L54.11,55.85 C54.7281767,53.6003677 55.0640895,51.2825694 55.11,48.95 L48.83,48.95 L48.82,55.34 Z M51.06,61.89 C52.1536678,60.6525007 52.9929649,59.2117641 53.53,57.65 C51.9839357,57.3750644 50.4196856,57.2146285 48.85,57.17 L48.85,57.17 L48.85,63.4 C49.7138145,63.1187289 50.4824297,62.6028565 51.07,61.91 L51.06,61.89 Z M58.48,59.31 C57.499611,58.7600936 56.4504017,58.3431002 55.36,58.07 C54.7746274,59.7449534 53.9126897,61.309962 52.81,62.7 C54.9265011,62.004466 56.8651738,60.8542324 58.49,59.33 L58.48,59.31 Z M63.33,49 L57,49 C56.9649051,51.4715362 56.6291024,53.9296123 56,56.32 L56.46,56.47 C56.95,56.63 57.46,56.8 57.95,57 C58.44,57.2 58.95,57.45 59.41,57.7 L59.87,57.93 C61.9424936,55.3963587 63.1543702,52.2685964 63.33,49 L63.33,49 Z M63.33,47.16 C63.1282806,43.8847134 61.8922825,40.7579531 59.8,38.23 C58.5934004,38.9461547 57.2900514,39.4850069 55.93,39.83 C56.5835697,42.2241042 56.942886,44.6889466 57,47.17 L63.33,47.16 Z M75.48,51.5 C74.6164139,50.0167749 73.5680339,48.6491766 72.36,47.43 C71.9156622,46.9814692 71.205254,46.9384141 70.71,47.33 L70.71,47.33 C69.3677918,48.3987029 68.1650549,49.6316762 67.13,51 C66.8538576,51.3617465 66.9232535,51.8788576 67.285,52.155 C67.6467465,52.4311424 68.1638576,52.3617465 68.44,52 C69.0724029,51.1649749 69.7749551,50.3854766 70.54,49.67 C69.8567611,61.9126074 59.5358566,71.3771342 47.28,71 C43.2561797,70.9133893 39.326767,69.7645795 35.89,67.67 C35.55,67.46 35.34,67.34 35.22,67.26 C34.7708124,66.9594064 34.1640659,67.0701266 33.85,67.51 C33.538003,67.9656442 33.6544026,68.5879346 34.11,68.9 C34.31,69.04 34.51,69.18 34.92,69.42 C38.640724,71.6668758 42.8846055,72.9010834 47.23,73 C60.4527081,73.40097 71.623041,63.2690185 72.51,50.07 C73.0833917,50.7792986 73.6015759,51.5315015 74.06,52.32 C74.2267122,52.6056786 74.5487382,52.7632249 74.8766013,52.7195099 C75.2044644,52.6757948 75.4739621,52.4393786 75.56,52.12 C75.617371,51.9109545 75.5888845,51.6876356 75.48,51.5 L75.48,51.5 Z" transform="translate(-20 -20)"/>
</svg>
