<?xml version="1.0" encoding="UTF-8"?>
<svg width="24px" height="45px" viewBox="0 0 24 45" version="1.1" xmlns="http://www.w3.org/2000/svg" xmlns:xlink="http://www.w3.org/1999/xlink">
    <title>pictograms/no_container/2_pin_plug</title>
    <g id="Symbols" stroke="none" stroke-width="1" fill="none" fill-rule="evenodd">
        <g id="pictograms/home&amp;temperature/2-pin-plug" transform="translate(-36.000000, -27.000000)" fill="#39393A">
            <path d="M60,44 L60,36 C60,34.8954305 59.1045695,34 58,34 L55,34 L55,29 C55,27.8954305 54.1045695,27 53,27 C51.8954305,27 51,27.8954305 51,29 L51,34 L45,34 L45,29 C45,27.8954305 44.1045695,27 43,27 C41.8954305,27 41,27.8954305 41,29 L41,34 L38,34 C36.8954305,34 36,34.8954305 36,36 L36,44 C36,48.418278 39.581722,52 44,52 L47,52 L47,58.16 C46.9999861,59.181906 47.4073007,60.1616683 48.1317718,60.8823856 C48.8562429,61.603103 49.8381078,62.0053224 50.86,62 L54,62 C55.1045695,62 56,62.8954305 56,64 L56,71 C56,71.5522847 56.4477153,72 57,72 C57.5522847,72 58,71.5522847 58,71 L58,64 C58,61.790861 56.209139,60 54,60 L50.86,60 C50.3685456,60.0053422 49.89538,59.8138466 49.5459753,59.4681989 C49.1965706,59.1225513 48.999971,58.6514834 49,58.16 L49,52 L52,52 C56.418278,52 60,48.418278 60,44 Z M44,50 C40.6862915,50 38,47.3137085 38,44 L38,36 L58,36 L58,44 C58,47.3137085 55.3137085,50 52,50 L44,50 Z" id="â—-Pictogram"></path>
        </g>
    </g>
</svg>