<?xml version="1.0" encoding="UTF-8"?>
<svg width="22px" height="44px" viewBox="0 0 22 44" version="1.1" xmlns="http://www.w3.org/2000/svg" xmlns:xlink="http://www.w3.org/1999/xlink">
    <title>pictograms/no_container/autarky</title>
    <g id="Symbols" stroke="none" stroke-width="1" fill="none" fill-rule="evenodd">
        <g id="pictograms/e_world/autarky" transform="translate(-37.000000, -26.000000)" fill="#39393A">
            <path d="M41.0000217,52 L55.0000217,52 L55.0000217,58 L41.0000217,58 L41.0000217,52 Z M41.0000217,66 L55.0000217,66 L55.0000217,60 L41.0000217,60 L41.0000217,66 Z M41.0000217,50 L55.0000217,50 L55.0000217,44 L41.0000217,44 L41.0000217,50 Z M41.0000217,42 L55.0000217,42 L55.0000217,36 L41.0000217,36 L41.0000217,42 Z M59.0000322,65.23 C59.0026775,66.4941622 58.5023516,67.7074575 57.6093904,68.6022946 C56.7164292,69.4971317 55.5041867,70.0001684 54.2400217,70.0001684 L41.8000217,70.0001684 C40.5289396,70.0106846 39.3063859,69.5125315 38.4047502,68.616531 C37.5031145,67.7205306 36.9973063,66.501124 37.0000108,65.23 L37.0000108,33.23 C37.0109436,32.5474671 37.5674014,31.9999126 38.2500217,32 L41.0000217,32 L41.0000217,28.31 C41.0000217,27.6973499 41.243396,27.1097924 41.676605,26.6765833 C42.109814,26.2433743 42.6973716,26 43.3100217,26 L52.6900217,26 C53.3376227,26.0092641 53.9498238,26.2971443 54.3700217,26.79 C54.7721946,27.24599 54.9959472,27.8320087 55.0000217,28.44 L55.0000217,32 L57.7000217,32 C58.0401177,31.9863852 58.3710591,32.1120459 58.616408,32.3479583 C58.8617568,32.5838706 59.0002941,32.9096317 59.0000322,33.25 L59.0000322,65.23 Z M43.0000217,32 L53.0000217,32 L53.0000217,28.36 C53.0113654,28.2701614 52.9841158,28.1797226 52.9250286,28.1111052 C52.8659413,28.0424877 52.7805489,28.0021164 52.6900217,28 L43.3100217,28 C43.1388134,28 43.0000217,28.1387917 43.0000217,28.31 L43.0000217,32 Z M57.0000217,65.23 L57.0000217,34 L39.0000217,34 L39.0000217,65.23 C39.0000217,65.9698772 39.2959313,66.6790223 39.8219136,67.1993692 C40.347896,67.719716 41.0601879,68.0080131 41.8000217,68.0001627 L54.2400217,68.0001627 C55.7659437,67.9944912 57.0000217,66.755932 57.0000217,65.23 Z" id="â—-Pictogram"></path>
        </g>
    </g>
</svg>