<?xml version="1.0" encoding="UTF-8"?>
<svg width="85px" height="52px" viewBox="0 0 85 52" version="1.1" xmlns="http://www.w3.org/2000/svg" xmlns:xlink="http://www.w3.org/1999/xlink">
    <title>pictograms/no_container/bike_sharing</title>
    <g id="Symbols" stroke="none" stroke-width="1" fill="none" fill-rule="evenodd">
        <g id="pictograms/e_world/bike-sharing" transform="translate(-6.000000, -22.000000)" fill="#39393A">
            <path d="M14.93,32 L15,32 C17.7456757,31.9623459 19.9623459,29.7456757 20,27 C20,24.2385763 17.7614237,22 15,22 L15,22 C12.2385763,22 10,24.2385763 10,27 C10,29.7614237 12.2385763,32 15,32 L14.93,32 Z M14.93,23.9999473 L14.93,23.9999473 C15.747076,23.9951617 16.5307748,24.3238096 17.1,24.91 C17.67319,25.4542748 17.9984368,26.2095701 18,27 C17.9680794,28.6434507 16.6434507,29.9680794 15,30 C14.2121745,29.9861097 13.4614411,29.6628274 12.91,29.1 C12.3238096,28.5307748 11.9951617,27.747076 11.9999473,26.93 C12.0380309,25.3005456 13.3701019,23.9995562 15,23.9999473 L14.93,23.9999473 Z M20.93,56.37 L20.93,70 C20.93,71.6568542 19.5868542,73 17.93,73 L12,73 C10.3431458,73 9,71.6568542 9,70 L9,56.8 C9.04470258,56.1571762 8.98046503,55.5114197 8.81,54.89 C8.0444784,54.9107281 7.30521543,54.6101456 6.77136415,54.0610958 C6.23751287,53.5120459 5.95779595,52.7646383 6,52 L6,38 C6,35.790861 7.790861,34 10,34 L19.44,34 C19.0053575,34.5975087 18.6989442,35.2784271 18.54,36 L10,36 C8.8954305,36 8,36.8954305 8,38 L8,52 C8,52.55 8.17,52.89 9,52.89 C11,52.89 11,55.63 11,56.79 L11,70 C11,70.5522847 11.4477153,71 12,71 L18,71 C18.5522847,71 19,70.5522847 19,70 L19,54.5 C19.4686666,55.30613 20.1642361,55.9564875 21,56.37 L20.93,56.37 Z M24,27 C24.0002697,24.2477481 26.2247699,22.0132074 28.9769926,22.0004889 C31.7292154,21.9878786 33.9741855,24.201853 33.9997837,26.9539858 C34.025382,29.7061187 31.8219822,31.9614685 29.07,32.0000108 C26.2948091,32.0056796 24.0329017,29.7750017 24,27 Z M29.67,63 C29.6810949,66.5270483 31.1248441,69.8982027 33.67,72.34 C33.0679089,72.7184444 32.3799432,72.9385934 31.67,72.98 C31.36,72.98 30.07,72.98 28.79,72.98 C27.51,72.98 26.23,72.98 25.92,72.98 C25.0959737,73.0146574 24.2980757,72.6868397 23.7364279,72.082876 C23.1747801,71.4789123 22.9056823,70.659344 23,69.84 L23,56.84 C23,56.67 23,56.48 23,56.28 C23.0548389,55.8550954 23.0548389,55.4249046 23,55 C21.3814253,55.0008994 20.0539522,53.7176755 20,52.1 L20,37.82 C20,34.64 22.06,34 23.79,34 L33.67,34 C36.34,34 38,35.44 38,37.82 L38,50.82 C32.9648912,52.7580974 29.6501902,57.6048031 29.67,63 Z M79.67,52.31 C79.1713933,52.3123232 78.6735423,52.3490773 78.18,52.42 L77.1,47.84 L77.1,47.84 L74.74,37.84 C74.6311882,37.3788324 74.2136615,37.0573369 73.74,37.07 L68.29,37.07 C67.7377153,37.07 67.29,37.5177153 67.29,38.07 C67.29,38.6222847 67.7377153,39.07 68.29,39.07 L73,39.07 L73.81,42.5 L52.93,42.5 L52.13,39 L56.31,39 C56.8622847,39 57.31,38.5522847 57.31,38 C57.31,37.4477153 56.8622847,37 56.31,37 L48.43,37 C47.8777153,37 47.43,37.4477153 47.43,38 C47.43,38.5522847 47.8777153,39 48.43,39 L50.08,39 L51.16,43.61 L46.45,53 C42.107354,51.3091867 37.1700133,52.583157 34.1876094,56.1640355 C31.2052056,59.7449141 30.8452465,64.8312451 33.2936142,68.7964587 C35.741982,72.7616724 40.4506941,74.7182928 44.9881824,73.6559256 C49.5256707,72.5935584 52.8763753,68.7499778 53.31,64.11 L56.74,64.11 C57.0136792,64.1063614 57.2739059,63.9907051 57.46,63.79 L75.56,49.79 L76.27,52.79 C70.9303573,54.595388 67.8711878,60.1976364 69.2390614,65.6657377 C70.606935,71.133839 75.9435773,74.635832 81.5043523,73.7144245 C87.0651273,72.793017 90.9870255,67.7569054 90.5181142,62.1398482 C90.0492028,56.5227909 85.3465798,52.2066535 79.71,52.22 L79.67,52.31 Z M42.52,72.0001006 C38.9838601,72.0168125 35.7779282,69.9246839 34.369452,66.6811114 C32.9609758,63.4375389 33.6209863,59.6666785 36.0474189,57.0943269 C38.4738515,54.5219753 42.1997912,53.6431265 45.52,54.86 L41.59,62.71 C41.4340308,63.0195182 41.4494547,63.3877279 41.6307631,63.6831178 C41.8120714,63.9785078 42.1334068,64.1589511 42.48,64.16 L51.3,64.16 C50.7873231,68.6229553 47.0123011,71.9938177 42.52,72.0001006 L42.52,72.0001006 Z M44.14,62.16 L47.34,55.75 C49.566773,57.1836936 51.0344355,59.5392918 51.34,62.17 L44.14,62.16 Z M53.32,62.16 C53.0061126,58.7787002 51.1258272,55.7398925 48.24,53.95 L51.87,46.69 L55.49,62.17 L53.32,62.16 Z M57.32,61.4 L53.32,44.46 L74.29,44.46 L75.05,47.7 L57.32,61.4 Z M79.71,72 C75.4102924,72.0062518 71.7296862,68.9178475 70.9892188,64.6823743 C70.2487515,60.4469012 72.6632075,56.2929265 76.71,54.84 L78.71,63.39 C78.8188118,63.8511676 79.2363385,64.1726631 79.71,64.16 L79.94,64.16 C80.1986729,64.1004765 80.4230686,63.9405542 80.5637478,63.7154674 C80.7044271,63.4903806 80.7498468,63.2185983 80.69,62.96 L78.69,54.41 C81.9522865,54.0281033 85.1573529,55.4864388 87.0126039,58.1968636 C88.8678548,60.9072884 89.0673776,64.42288 87.5307052,67.3258089 C85.9940328,70.2287379 82.9745474,72.0403398 79.69,72.030044 L79.71,72 Z" id="â—-Pictogram"></path>
        </g>
    </g>
</svg>