<svg xmlns="http://www.w3.org/2000/svg" width="61" height="34" viewBox="0 0 61 34">
  <path fill="#EA1B0A" fill-rule="evenodd" d="M75,29 C78.8659932,29 82,25.8659932 82,22 L82,17 C82,15.8954305 81.1045695,15 80,15 L77.5,15 L77.5,11 C77.5,10.4477153 77.0522847,10 76.5,10 C75.9477153,10 75.5,10.4477153 75.5,11 L75.5,15 L70.5,15 L70.5,11 C70.5,10.4477153 70.0522847,10 69.5,10 C68.9477153,10 68.5,10.4477153 68.5,11 L68.5,15 L66,15 C64.8954305,15 64,15.8954305 64,17 L64,22 C64,25.8659932 67.1340068,29 71,29 L72,29 L72,32.11 C71.9999816,32.8799535 72.3072067,33.6180836 72.8535202,34.1606423 C73.3998337,34.703201 74.1400649,35.0053284 74.91,35 L77,35 C77.5522847,35 78,35.4477153 78,36 L78,40 C78,40.5522847 78.4477153,41 79,41 C79.5522847,41 80,40.5522847 80,40 L80,36 C80,34.3431458 78.6568542,33 77,33 L74.91,33 C74.4207237,32.9945931 74.0254069,32.5992763 74.02,32.11 L74.02,30 L74.02,30 L74.02,29 L75.02,29 L75,29 Z M67.46,25.54 C66.5228605,24.6004927 65.99763,23.3269886 65.999992,22 L65.999992,17 L79.999992,17 L79.999992,22 C79.999992,24.7614237 77.7614237,27 74.999992,27 L70.999992,27 C69.6730114,27.00237 68.3995073,26.4771395 67.46,25.54 L67.46,25.54 Z M65,52 C64.5651708,52.001704 64.1309157,52.0317678 63.7,52.09 L60.58,38.79 C60.4793583,38.3208621 60.0596928,37.9893264 59.58,37.9997495 L54.58,37.9997495 C54.0277153,37.9997495 53.58,38.4477153 53.58,39 C53.58,39.5522847 54.0277153,40 54.58,40 L58.83,40 L59.53,43 L40.59,43 L39.9,40 L43.61,40 C44.1622847,40 44.61,39.5522847 44.61,39 C44.61,38.4477153 44.1622847,37.9997495 43.61,37.9997495 L36.4,37.9997495 C35.8477153,37.9997495 35.4,38.4477153 35.4,39 C35.4,39.5522847 35.8477153,40 36.4,40 L37.84,40 L38.84,44.14 L34.59,52.66 C30.8452567,51.2275815 26.6070027,52.170258 23.8224695,55.0549244 C21.0379364,57.9395908 20.245519,62.2084912 21.8092871,65.9003138 C23.3730553,69.5921364 26.9906513,71.9930602 31,72 C36.1356533,72.0000645 40.4364347,68.1099105 40.95,63 L44,63 C44.2707138,63.0015811 44.5305017,62.8933362 44.72,62.7 L61.15,50 L61.75,52.58 C56.850242,54.3266258 54.1077774,59.5379647 55.4426138,64.5655428 C56.7774502,69.593121 61.7437604,72.7577581 66.8646159,71.8438823 C71.9854714,70.9300065 75.5505379,66.2428469 75.0639017,61.0638976 C74.5772655,55.8849483 70.2014602,51.9439469 65,52 L65,52 Z M31,70.0000349 C27.8118259,70.0093858 24.9224272,68.1248503 23.6458043,65.2034164 C22.3691814,62.2819825 22.9490715,58.8814197 25.1217601,56.5481889 C27.2944487,54.214958 30.6451191,53.394527 33.65,54.46 L30.1,61.55 C29.9432203,61.8611094 29.9596532,62.2313893 30.1433761,62.5273872 C30.327099,62.8233852 30.6516281,63.002433 31,63 L38.93,63 C38.4263943,66.9972598 35.0288573,69.9963467 31,70.0000349 Z M32.62,61 L35.45,55.35 C37.373214,56.6407566 38.6426057,58.7016943 38.93,61 L32.62,61 Z M41,61 C40.7130894,57.9349619 39.0068774,55.1813356 36.39,53.56 L39.57,47.2 L42.74,61 L41,61 Z M44.67,60.26 L41,45 L60,45 L60.67,47.84 L44.67,60.26 Z M65,70 C61.1365222,69.9900489 57.8321553,67.2204427 57.1472983,63.4181367 C56.4624414,59.6158307 58.5927941,55.8673434 62.21,54.51 L64,62.23 C64.1088118,62.6911676 64.5263385,63.0126631 65,63 L65.23,63 C65.4886729,62.9404765 65.7130686,62.7805542 65.8537478,62.5554674 C65.9944271,62.3303806 66.0398468,62.0585983 65.98,61.8 L64.16,54 C67.0181248,53.8499484 69.7391925,55.2360864 71.2982034,57.6362693 C72.8572143,60.0364521 73.0173174,63.086035 71.7182034,65.6362694 C70.4190895,68.1865038 67.8581248,69.8499485 65,70 Z M46.48,57.3 C45.8396726,57.3016818 45.2688825,56.8967019 45.0589589,56.2917605 C44.8490352,55.6868192 45.0462718,55.0153226 45.55,54.62 L51.24,50.13 C51.891696,49.6163752 52.8363752,49.728304 53.35,50.38 C53.8636248,51.031696 53.751696,51.9763752 53.1,52.49 L47.41,57 C47.1421763,57.2010037 46.8147959,57.3066103 46.48,57.3 Z" transform="translate(-21 -38)"/>
</svg>
