<?xml version="1.0" encoding="UTF-8"?>
<svg width="63px" height="74px" viewBox="0 0 63 74" version="1.1" xmlns="http://www.w3.org/2000/svg" xmlns:xlink="http://www.w3.org/1999/xlink">
    <title>pictograms/no_container/boiler</title>
    <g id="Symbols" stroke="none" stroke-width="1" fill="none" fill-rule="evenodd">
        <g id="pictograms/home&amp;temperature/boiler" transform="translate(-17.000000, -11.000000)" fill="#39393A">
            <path d="M36.48,28.8 L37.493723,28.8047726 C49.131088,28.9151003 54.1566667,30.9019444 54.39,30.97 C55.118,31.25 55.6108,31.922 55.6732711,32.6689156 L55.68,32.83 L55.68,82.34 C55.68,83.4090909 54.8508471,84.2868388 53.8013599,84.3644252 L53.65,84.37 L19.31,84.37 C18.2409091,84.37 17.3631612,83.5408471 17.2855748,82.4913599 L17.28,82.34 L17.28,32.83 C17.28,32.074 17.7242667,31.3702667 18.4176711,31.0358844 L18.6513374,30.9357853 C19.3860802,30.6463889 24.8066667,28.8 36.48,28.8 Z M53.65,69.71 L19.31,69.71 L19.31,82.34 L53.65,82.34 L53.65,69.71 Z M36.48,74.2 C37.601138,74.2 38.51,75.108862 38.51,76.23 C38.51,77.351138 37.601138,78.26 36.48,78.26 C35.358862,78.26 34.45,77.351138 34.45,76.23 C34.45,75.108862 35.358862,74.2 36.48,74.2 Z M36.48,30.8 L35.4721607,30.8047454 C25.3961176,30.9003116 20.5009255,32.4110023 19.5039874,32.7589243 L19.31,32.83 L19.31,67.67 L53.65,67.67 L53.65,32.83 L53.4093359,32.7427734 C52.2770312,32.3542188 47.085,30.8 36.48,30.8 Z M41.03,40.37 C41.27,40.37 41.4862963,40.5596296 41.5313992,40.7913992 L41.54,40.88 L41.54,44.4 C41.54,44.64 41.3503704,44.8562963 41.1186008,44.9013992 L41.03,44.91 L31.95,44.91 C31.71,44.91 31.4937037,44.7203704 31.4486008,44.4886008 L31.44,44.4 L31.44,40.88 C31.44,40.64 31.6217284,40.4237037 31.8587654,40.3786008 L31.95,40.37 L41.03,40.37 Z M68.29,10.67 C68.63,10.5 69.04,10.54 69.34,10.74 C72.31,12.83 74.91,15.5 76.8,18.37 C78.69,21.24 79.84,24.31 79.85,27.21 C79.85,30.08 78.73,32.72 76.91,34.64 C75.12,36.57 72.58,37.75 69.78,37.75 C66.98,37.75 64.44,36.56 62.62,34.64 C60.79,32.75 59.68,30.11 59.68,27.21 C59.68,26.03 60.05,24.95 60.56,24 C61.06,23.06 61.77,22.21 62.48,21.37 C63.93,19.72 65.55,18.13 66.6,16.17 C67.31,14.89 67.75,13.4 67.75,11.58 C67.75,11.18 67.95,10.84 68.29,10.67 Z M69.63,13.44 C69.26,15.77 68.21,17.66 67.03,19.21 C65.55,21.17 63.82,22.72 62.81,24.21 C62.14,25.22 61.73,26.13 61.73,27.18 C61.73,29.54 62.64,31.67 64.09,33.22 C65.14,34.33 66.45,35.11 67.94,35.48 C67.2,35.07 66.05,34.13 66.05,32.64 C66.05,30.61 68.18,28.69 67.74,26.63 L67.7900797,26.6532271 C68.0255257,26.7698612 69.0210082,27.3480246 69.2619618,28.8844948 L69.29,29.1 C69.5,31.16 72.67,27.25 71.76,22.62 L71.9430612,22.8017784 C72.6361224,23.5165306 75.0557143,26.2642857 74.97,29.71 C74.9,32.48 73.58,34.37 72.2,35.35 C73.45,34.95 74.57,34.21 75.48,33.26 C76.94,31.74 77.85,29.58 77.87,27.18 C77.87,24.82 76.85,22.08 75.13,19.45 C73.72,17.26 71.79,15.2 69.63,13.44 Z" id="â—-Pictogram"></path>
        </g>
    </g>
</svg>