<svg xmlns="http://www.w3.org/2000/svg" width="34" height="46" viewBox="0 0 34 46">
  <path fill="#EA1B0A" fill-rule="evenodd" d="M40,35 C40,33.8954305 40.8954305,33 42,33 L54,33 C55.1045695,33 56,33.8954305 56,35 C56,36.1045695 55.1045695,37 54,37 L42,37 C40.8954305,37 40,36.1045695 40,35 Z M65,27 L65,69 C65,70.1045695 64.1045695,71 63,71 L37,71 C33.6862915,71 31,68.3137085 31,65 L31,27 C31,25.8954305 31.8954305,25 33,25 L63,25 C64.1045695,25 65,25.8954305 65,27 Z M33,27 L33,61 C33.8634151,60.3469564 34.9174418,59.9956142 36,60 L63,60 L63,27 L33,27 Z M63,68.9999982 C61.7758994,68.0269909 61.0439469,66.563086 61,64.9999982 C60.9948717,63.917323 61.3462911,62.8630646 62,61.9999982 L36,61.9999982 C34.3963142,61.9982529 33.0748378,63.2580604 33,64.86 L33,64.9999982 C33,67.209139 34.790861,68.9999982 37,68.9999982 L63,68.9999982 Z" transform="translate(-31 -25)"/>
</svg>
