<svg xmlns="http://www.w3.org/2000/svg" width="52" height="35" viewBox="0 0 52 35">
  <path fill="#EA1B0A" fill-rule="evenodd" d="M61.88,60 C65.1937085,60 67.88,62.6862915 67.88,66 C67.88,69.3137085 65.1937085,72 61.88,72 C58.5662915,72 55.88,69.3137085 55.88,66 C55.88,62.6862915 58.5662915,60 61.88,60 L61.88,60 Z M32.76,60 C36.0737085,60 38.76,62.6862915 38.76,66 C38.76,69.3137085 36.0737085,72 32.76,72 C29.4462915,72 26.76,69.3137085 26.76,66 C26.76,62.6862915 29.4462915,60 32.76,60 L32.76,60 Z M72.64,56.62 C72.01,55.35 69.64,53.4 67.77,51.68 C65.9,49.96 56.77,40.97 54.34,38.68 C51.91,36.39 31.82,37.18 29.44,37.18 C27.06,37.18 29.61,38.9 28.89,40.12 C28.17,41.34 24.45,48.78 23.45,50.83 C22.45,52.88 22.51,54.55 22.51,56.83 C22.51,59.11 22.29,64.16 23.9,66.04 C24.26,66.47 24.57,66.8 24.9,67.04 C24.431044,63.7926043 25.9925122,60.5880936 28.8389992,58.9562203 C31.6854861,57.324347 35.2398181,57.5960011 37.8052469,59.6415019 C40.3706756,61.6870027 41.4270169,65.0915901 40.47,68.23 L54.3,68.32 C53.2705918,65.0245844 54.4713687,61.4405471 57.2783104,59.4304418 C60.0852522,57.4203365 63.865052,57.4376864 66.6534224,59.4734751 C69.4417929,61.5092638 70.6096171,65.1041733 69.55,68.3900993 L69.76,68.3900993 C71.65,68.3900993 73.55,68.45 73.55,65.62 C73.55,62.79 73.28,57.9 72.65,56.62 L72.64,56.62 Z M59.22,49.62 L59.22,49.62 C54.42,48.92 43.85,47.53 40.22,47.39 L34.34,47.17 L38.4,38.73 C44.57,38.73 51.35,39.08 52.7,40.37 C54.05,41.66 57.53,45.1 60.64,48.19 C61.21,48.68 60.88,49.81 59.22,49.58 L59.22,49.62 Z" transform="translate(-22 -37)"/>
</svg>
