<?xml version="1.0" encoding="UTF-8"?>
<svg width="46px" height="44px" viewBox="0 0 46 44" version="1.1" xmlns="http://www.w3.org/2000/svg" xmlns:xlink="http://www.w3.org/1999/xlink">
    <title>pictograms/no_container/car_front</title>
    <g id="Symbols" stroke="none" stroke-width="1" fill="none" fill-rule="evenodd">
        <g id="pictograms/energy&amp;mobility/car-front" transform="translate(-25.000000, -28.000000)" fill="#39393A">
            <path d="M69.87,44.84 C70.8314781,44.3418027 71.2218064,43.1688666 70.7505686,42.1938918 C70.2793308,41.2189171 69.1177156,40.796087 68.13,41.24 L66.33,42 C64.39,36 62.23,30.27 61.33,29.52 C59.49,28 48,28 48,28 C48,28 36.51,28 34.67,29.52 C33.76,30.27 31.6,36 29.67,42 L27.89,41.21 C27.2473405,40.8653638 26.4680409,40.8978303 25.8562745,41.2947272 C25.244508,41.6916241 24.8972539,42.3900341 24.950051,43.1173564 C25.0028481,43.8446787 25.4473269,44.485616 26.11,44.79 L28.11,45.87 C28.225568,45.9247427 28.3461199,45.9682753 28.47,46 C27.05,50.69 26,54.72 26,55.73 C26,60 27.41,67.5 27.91,68 L29.68,68 L29.68,71 C29.68,71.5522847 30.1277153,72 30.68,72 L35,72 C35.5522847,72 36,71.5522847 36,71 L36,68 L60,68 L60,71 C60,71.5522847 60.4477153,72 61,72 L65.37,72 C65.9222847,72 66.37,71.5522847 66.37,71 L66.37,68 L68.14,68 C68.63,67.5 70.05,60 70.05,55.73 C70.05,54.73 69,50.73 67.58,46 C67.6967151,45.9703181 67.8105107,45.930155 67.92,45.88 L69.87,44.84 Z M31.28,52.84 C30.3052175,52.3180909 29.938091,51.1047826 30.4600001,50.13 C30.9819091,49.1552175 32.1952174,48.788091 33.17,49.31 L37.17,51.44 C38.1530669,51.9701934 38.5201934,53.1969331 37.99,54.18 C37.4598066,55.1630669 36.2330669,55.5301934 35.25,55 L31.28,52.84 Z M58,54.14 C57.7488084,53.6720036 57.6940934,53.1233091 57.8479219,52.6149247 C58.0017504,52.1065403 58.3514865,51.6802259 58.82,51.43 L62.82,49.3 C63.4505738,48.962384 64.213364,48.986821 64.8210349,49.3641059 C65.4287058,49.7413908 65.7889378,50.4142051 65.7660349,51.129106 C65.7431321,51.8440069 65.3405738,52.492384 64.71,52.83 L60.71,54.96 C60.2420036,55.2111916 59.6933091,55.2659066 59.1849247,55.1120781 C58.6765403,54.9582496 58.2502259,54.6085135 58,54.14 L58,54.14 Z M31,44 C32.81,38.3 35,32.42 36,31.06 C37.9569512,30.5286496 39.9724659,30.2431183 42,30.21 C45,30.07 47.88,30.01 48,30.01 L48,30.01 C48.15,30.01 51.08,30.07 54.05,30.21 C56.0776488,30.2416578 58.0933443,30.5272147 60.05,31.06 C61,32.42 63.19,38.3 65,44 L31,44 Z" id="â—-Pictogram"></path>
        </g>
    </g>
</svg>