<svg xmlns="http://www.w3.org/2000/svg" width="60" height="35" viewBox="0 0 60 35">
  <path fill="#EA1B0A" fill-rule="evenodd" d="M61.88,60 C65.1937085,60 67.88,62.6862915 67.88,66 C67.88,69.3137085 65.1937085,72 61.88,72 C58.5662915,72 55.88,69.3137085 55.88,66 C55.88,62.6862915 58.5662915,60 61.88,60 L61.88,60 Z M32.76,60 C36.0737085,60 38.76,62.6862915 38.76,66 C38.76,69.3137085 36.0737085,72 32.76,72 C29.4462915,72 26.76,69.3137085 26.76,66 C26.76,62.6862915 29.4462915,60 32.76,60 L32.76,60 Z M72.64,56.62 C72.01,55.35 69.64,53.4 67.77,51.68 C65.9,49.96 56.77,40.97 54.34,38.68 C51.91,36.39 31.82,37.18 29.44,37.18 C27.06,37.18 29.61,38.9 28.89,40.12 C28.17,41.34 24.45,48.78 23.45,50.83 C22.45,52.88 22.51,54.55 22.51,56.83 C22.51,59.11 22.29,64.16 23.9,66.04 C24.26,66.47 24.57,66.8 24.9,67.04 C24.431044,63.7926043 25.9925122,60.5880936 28.8389992,58.9562203 C31.6854861,57.324347 35.2398181,57.5960011 37.8052469,59.6415019 C40.3706756,61.6870027 41.4270169,65.0915901 40.47,68.23 L54.3,68.32 C53.2705918,65.0245844 54.4713687,61.4405471 57.2783104,59.4304418 C60.0852522,57.4203365 63.865052,57.4376864 66.6534224,59.4734751 C69.4417929,61.5092638 70.6096171,65.1041733 69.55,68.3900993 L69.76,68.3900993 C71.65,68.3900993 73.55,68.45 73.55,65.62 C73.55,62.79 73.28,57.9 72.65,56.62 L72.64,56.62 Z M59.22,49.62 L59.22,49.62 C54.42,48.92 43.85,47.53 40.22,47.39 L34.34,47.17 L38.4,38.73 C44.57,38.73 51.35,39.08 52.7,40.37 C54.05,41.66 57.53,45.1 60.64,48.19 C61.21,48.68 60.88,49.81 59.22,49.58 L59.22,49.62 Z M75,29 C78.8659932,29 82,25.8659932 82,22 L82,17 C82,15.8954305 81.1045695,15 80,15 L77.5,15 L77.5,11 C77.5,10.4477153 77.0522847,10 76.5,10 C75.9477153,10 75.5,10.4477153 75.5,11 L75.5,15 L70.5,15 L70.5,11 C70.5,10.4477153 70.0522847,10 69.5,10 C68.9477153,10 68.5,10.4477153 68.5,11 L68.5,15 L66,15 C64.8954305,15 64,15.8954305 64,17 L64,22 C64,25.8659932 67.1340068,29 71,29 L72,29 L72,32.11 C71.9999816,32.8799535 72.3072067,33.6180836 72.8535202,34.1606423 C73.3998337,34.703201 74.1400649,35.0053284 74.91,35 L77,35 C77.5522847,35 78,35.4477153 78,36 L78,40 C78,40.5522847 78.4477153,41 79,41 C79.5522847,41 80,40.5522847 80,40 L80,36 C80,34.3431458 78.6568542,33 77,33 L74.91,33 C74.4207237,32.9945931 74.0254069,32.5992763 74.02,32.11 L74.02,30 L74.02,30 L74.02,29 L75.02,29 L75,29 Z M67.46,25.54 C66.5228605,24.6004927 65.99763,23.3269886 65.999992,22 L65.999992,17 L79.999992,17 L79.999992,22 C79.999992,24.7614237 77.7614237,27 74.999992,27 L70.999992,27 C69.6730114,27.00237 68.3995073,26.4771395 67.46,25.54 L67.46,25.54 Z" transform="translate(-22 -37)"/>
</svg>
