<?xml version="1.0" encoding="UTF-8"?>
<svg width="96px" height="96px" viewBox="0 0 96 96" version="1.1" xmlns="http://www.w3.org/2000/svg" xmlns:xlink="http://www.w3.org/1999/xlink">
    <title>pictograms/no_container/carrier_96x96_solid</title>
    <g id="Symbols" stroke="none" stroke-width="1" fill="none" fill-rule="evenodd">
        <g id="carrier/carrier-96x96-solid" fill="#39393A">
            <path d="M15.5352229,3.08769432 C9.22074192,4.28907085 4.28896278,9.22083779 3.08758328,15.5353032 C-1.02919443,37.1785926 -1.02919443,58.8214074 3.08758328,80.4646968 C4.28896278,86.7791622 9.22074192,91.7109292 15.5352229,92.9123057 C26.3566571,94.9704521 37.1785658,96 48,96 C58.8214342,96 69.6433429,94.9704521 80.4647771,92.9123057 C86.7792582,91.7109292 91.7110372,86.7791622 92.9124168,80.4646968 C97.0291944,58.8214074 97.0291944,37.1785926 92.9124168,15.5353032 C91.7110372,9.22083779 86.7792582,4.28907085 80.4647771,3.08769432 C69.6433429,1.02907322 58.8214342,0 48,0 C37.1785658,0 26.3566571,1.02907322 15.5352229,3.08769432 Z" id="carrier"></path>
        </g>
    </g>
</svg>