<svg xmlns="http://www.w3.org/2000/svg" width="40" height="35" viewBox="0 0 40 35">
  <path fill="#EA1B0A" fill-rule="evenodd" d="M67.9999999,60 L62.9999999,60 L62.9999999,48 L64.9999999,48 C66.1045695,48 66.9999999,47.1045695 66.9999999,46 L66.9999999,43 C66.9999999,41.8954305 66.1045695,41 64.9999999,41 L62.9,41 C62.5066689,39.0709293 61.0179176,37.5522416 59.0970589,37.120588 C57.1762002,36.6889343 55.1808358,37.4246747 53.9999999,39 C53.0557281,37.7409708 51.5737865,37 49.9999999,37 C48.4262135,37 46.9442719,37.7409708 45.9999999,39 C45.0557281,37.7409708 43.5737865,37 41.9999999,37 C40.4262135,37 38.9442719,37.7409708 37.9999999,39 C36.7087088,37.2782784 34.4605719,36.5760133 32.4188612,37.2565835 C30.3771505,37.9371537 28.9999999,39.847848 28.9999999,42 L28.9999999,63 C28.999515,65.3763431 30.6716687,67.4247314 32.9999999,67.9 L32.9999999,70 L31.9999999,70 C31.4477153,70 30.9999999,70.4477153 30.9999999,71 C30.9999999,71.5522847 31.4477153,72 31.9999999,72 L35.9999999,72 C36.5522847,72 36.9999999,71.5522847 36.9999999,71 C36.9999999,70.4477153 36.5522847,70 35.9999999,70 L34.9999999,70 L34.9999999,67.9 C36.1987913,67.6550674 37.2661605,66.979067 37.9999999,66 C38.9442719,67.2590292 40.4262135,68 41.9999999,68 C43.5737865,68 45.0557281,67.2590292 45.9999999,66 C46.9442719,67.2590292 48.4262135,68 49.9999999,68 C51.5737865,68 53.0557281,67.2590292 53.9999999,66 C54.7286915,66.9903045 55.7967177,67.6774014 56.9999999,67.93 L56.9999999,70 L55.9999999,70 C55.4477153,70 54.9999999,70.4477153 54.9999999,71 C54.9999999,71.5522847 55.4477153,72 55.9999999,72 L59.9999999,72 C60.5522847,72 60.9999999,71.5522847 60.9999999,71 C60.9999999,70.4477153 60.5522847,70 59.9999999,70 L58.9999999,70 L58.9999999,67.9 C61.3283313,67.4247314 63.000485,65.3763431 62.9999999,63 L62.9999999,62 L67.9999999,62 C68.5522847,62 68.9999999,61.5522847 68.9999999,61 C68.9999999,60.4477153 68.5522847,60 67.9999999,60 Z M65,43 L65,46 L63,46 L63,43 L65,43 Z M34,66 C32.3431458,66 31,64.6568542 31,63 L31,42 C31,40.3431458 32.3431458,39 34,39 C35.6568542,39 37,40.3431458 37,42 L37,63 C37,64.6568542 35.6568542,66 34,66 Z M42,66 C40.3431458,66 39,64.6568542 39,63 L39,42 C39,40.3431458 40.3431458,39 42,39 C43.6568542,39 45,40.3431458 45,42 L45,63 C45,64.6568542 43.6568542,66 42,66 Z M50,66 C48.3431458,66 47,64.6568542 47,63 L47,42 C47,40.3431458 48.3431458,39 50,39 C51.6568542,39 53,40.3431458 53,42 L53,63 C53,64.6568542 51.6568542,66 50,66 L50,66 Z M61,63 C61,64.6568542 59.6568542,66 58,66 C56.3431458,66 55,64.6568542 55,63 L55,42 C55,40.3431458 56.3431458,39 58,39 C59.6568542,39 61,40.3431458 61,42 L61,63 Z" transform="translate(-29 -37)"/>
</svg>
