<svg xmlns="http://www.w3.org/2000/svg" width="55" height="35" viewBox="0 0 55 35">
  <path fill="#EA1B0A" fill-rule="evenodd" d="M79.64,32.54 C78.7470047,33.4886507 77.6342921,34.2029847 76.4,34.62 C78.1635661,33.2959737 79.1830828,31.204848 79.14,29 C79.22,25 75.97,22 75.97,22 C76.87,26.58 73.71,30.46 73.51,28.44 C73.4890152,27.4122402 72.9104375,26.4773198 72,26 C72.45,28.05 70.32,30 70.32,32 C70.3904506,33.2087679 71.1152915,34.2826062 72.21,34.8 C70.745136,34.4355875 69.4157645,33.6580961 68.38,32.56 C66.8539294,30.9360636 66.0091974,28.7884399 66.0198977,26.56 C66.0570816,25.488518 66.4315502,24.4561044 67.09,23.61 C68.09,22.13 69.8,20.61 71.28,18.61 C72.6032057,16.9454846 73.486932,14.9751531 73.85,12.88 C75.9683649,14.586635 77.810121,16.6105428 79.31,18.88 C80.9115382,21.1245767 81.8442346,23.7770404 82.0001023,26.53 C82.0108026,28.7584399 81.1660706,30.9060636 79.64,32.53 L79.64,32.54 Z M81,17.75 C79.0246128,14.7892003 76.5151768,12.2221151 73.6,10.18 C73.2940979,9.95045204 72.8840615,9.91548226 72.5437061,10.0899144 C72.2033507,10.2643465 71.9922927,10.6176272 72,11 C72.0110024,12.5938105 71.6225078,14.1649787 70.87,15.57 C69.7205961,17.4495634 68.3509034,19.185179 66.79,20.74 C66.057556,21.534433 65.4137643,22.4062343 64.87,23.34 C64.3111313,24.311087 64.0115265,25.4096378 63.9998801,26.53 C63.9870154,29.2752499 65.0287153,31.9206666 66.91,33.92 C68.7429373,35.8874839 71.3110128,37.0048505 74,37.0048505 C76.6889872,37.0048505 79.2570627,35.8874839 81.09,33.92 C82.9721657,31.9212253 84.01401,29.275442 84.0001395,26.53 C83.8573946,23.3802804 82.8164152,20.3371507 81,17.76 L81,17.75 Z M67.9999999,60 L62.9999999,60 L62.9999999,48 L64.9999999,48 C66.1045695,48 66.9999999,47.1045695 66.9999999,46 L66.9999999,43 C66.9999999,41.8954305 66.1045695,41 64.9999999,41 L62.9,41 C62.5066689,39.0709293 61.0179176,37.5522416 59.0970589,37.120588 C57.1762002,36.6889343 55.1808358,37.4246747 53.9999999,39 C53.0557281,37.7409708 51.5737865,37 49.9999999,37 C48.4262135,37 46.9442719,37.7409708 45.9999999,39 C45.0557281,37.7409708 43.5737865,37 41.9999999,37 C40.4262135,37 38.9442719,37.7409708 37.9999999,39 C36.7087088,37.2782784 34.4605719,36.5760133 32.4188612,37.2565835 C30.3771505,37.9371537 28.9999999,39.847848 28.9999999,42 L28.9999999,63 C28.999515,65.3763431 30.6716687,67.4247314 32.9999999,67.9 L32.9999999,70 L31.9999999,70 C31.4477153,70 30.9999999,70.4477153 30.9999999,71 C30.9999999,71.5522847 31.4477153,72 31.9999999,72 L35.9999999,72 C36.5522847,72 36.9999999,71.5522847 36.9999999,71 C36.9999999,70.4477153 36.5522847,70 35.9999999,70 L34.9999999,70 L34.9999999,67.9 C36.1987913,67.6550674 37.2661605,66.979067 37.9999999,66 C38.9442719,67.2590292 40.4262135,68 41.9999999,68 C43.5737865,68 45.0557281,67.2590292 45.9999999,66 C46.9442719,67.2590292 48.4262135,68 49.9999999,68 C51.5737865,68 53.0557281,67.2590292 53.9999999,66 C54.7286915,66.9903045 55.7967177,67.6774014 56.9999999,67.93 L56.9999999,70 L55.9999999,70 C55.4477153,70 54.9999999,70.4477153 54.9999999,71 C54.9999999,71.5522847 55.4477153,72 55.9999999,72 L59.9999999,72 C60.5522847,72 60.9999999,71.5522847 60.9999999,71 C60.9999999,70.4477153 60.5522847,70 59.9999999,70 L58.9999999,70 L58.9999999,67.9 C61.3283313,67.4247314 63.000485,65.3763431 62.9999999,63 L62.9999999,62 L67.9999999,62 C68.5522847,62 68.9999999,61.5522847 68.9999999,61 C68.9999999,60.4477153 68.5522847,60 67.9999999,60 Z M65,43 L65,46 L63,46 L63,43 L65,43 Z M34,66 C32.3431458,66 31,64.6568542 31,63 L31,42 C31,40.3431458 32.3431458,39 34,39 C35.6568542,39 37,40.3431458 37,42 L37,63 C37,64.6568542 35.6568542,66 34,66 Z M42,66 C40.3431458,66 39,64.6568542 39,63 L39,42 C39,40.3431458 40.3431458,39 42,39 C43.6568542,39 45,40.3431458 45,42 L45,63 C45,64.6568542 43.6568542,66 42,66 Z M50,66 C48.3431458,66 47,64.6568542 47,63 L47,42 C47,40.3431458 48.3431458,39 50,39 C51.6568542,39 53,40.3431458 53,42 L53,63 C53,64.6568542 51.6568542,66 50,66 L50,66 Z M61,63 C61,64.6568542 59.6568542,66 58,66 C56.3431458,66 55,64.6568542 55,63 L55,42 C55,40.3431458 56.3431458,39 58,39 C59.6568542,39 61,40.3431458 61,42 L61,63 Z" transform="translate(-29 -37)"/>
</svg>
