<svg xmlns="http://www.w3.org/2000/svg" width="88" height="42" viewBox="0 0 88 42">
  <path fill="#EA1B0A" fill-rule="evenodd" d="M20.26,78 C20.26,81.3137085 17.5737085,84 14.26,84 C10.9462915,84 8.26,81.3137085 8.26,78 C8.26,74.6862915 10.9462915,72 14.26,72 C17.5737085,72 20.26,74.6862915 20.26,78 Z M54.15,68.62 C54.78,69.89 55,74.84 55,77.62 C55,80.4 53.09,80.3900003 51.21,80.3900003 L51,80.3900003 C52.0596171,77.1041733 50.8917929,73.5092638 48.1034224,71.4734751 C45.315052,69.4376864 41.5352522,69.4203365 38.7283104,71.4304418 C35.9213687,73.4405471 34.7205918,77.0245844 35.75,80.32 L21.93,80.23 C22.8689628,77.0893654 21.7969831,73.6936997 19.2249869,71.6614418 C16.6529906,69.6291839 13.101465,69.3715957 10.2631347,71.0114487 C7.42480435,72.6513016 5.87405371,75.8567436 6.35,79.1 C6.06,78.82 5.76,78.48 5.35,78.1 C3.79,76.17 4,71.18 4,68.85 C4,66.52 3.94,64.85 4.94,62.85 C5.94,60.85 9.65,53.36 10.38,52.14 C11.11,50.92 8.55,49.2 10.93,49.2 C13.31,49.2 33.39,48.37 35.83,50.7 C38.27,53.03 47.38,62 49.28,63.69 C51.18,65.38 53.52,67.35 54.15,68.62 Z M42.15,60.15 C39.03,57.06 35.48,53.54 34.2,52.33 C32.92,51.12 26.07,50.72 19.9,50.69 L15.84,59.13 L21.72,59.35 C25.31,59.48 35.88,60.88 40.72,61.58 L40.72,61.58 C42.38,61.81 42.71,60.68 42.19,60.16 L42.15,60.15 Z M43.38,72 C40.0662915,72 37.38,74.6862915 37.38,78 C37.38,81.3137085 40.0662915,84 43.38,84 C46.6937085,84 49.38,81.3137085 49.38,78 C49.38,74.6862915 46.6937085,72 43.38,72 Z M83.48,54.44 L80.64,54.44 L81.51,49.74 L81.51,49.61 C81.5100556,49.3432381 81.2967064,49.1254441 81.03,49.12 L81,49.12 C80.9210931,49.1276849 80.8454124,49.1552052 80.78,49.2 C80.7344731,49.2301394 80.693977,49.2672608 80.66,49.31 L76.22,56.63 C76.1339237,56.7748436 76.1339237,56.9551564 76.22,57.1 C76.3108145,57.2491878 76.4754968,57.3372737 76.65,57.33 L79.43,57.33 L78.11,62 C78.0439563,62.233519 78.1587914,62.4802018 78.38,62.58 C78.4492421,62.5945678 78.5207579,62.5945678 78.59,62.58 C78.7531019,62.582609 78.9068079,62.5038815 79,62.37 L83.9,55.09 C83.9900956,54.9426831 83.9900956,54.7573169 83.9,54.61 C83.7972371,54.4866641 83.6396196,54.4228665 83.48,54.44 Z M92,83 C92,83.5522847 91.5522847,84 91,84 L69,84 C68.4477153,84 68,83.5522847 68,83 C68,82.4477153 68.4477153,82 69,82 L72,82 L72,46.72 C72,43.59 74.58,42 79.65,42 L80.18,42 C85.37,42 88,43.59 88,46.72 L88,82 L91,82 C91.5522847,82 92,82.4477153 92,83 Z M86,46.72 C86,45.55 85.4,44 80.19,44 L79.66,44 C74.59,44 74,45.55 74,46.72 L74,82 L86,82 L86,46.72 Z M69.94,56.0699997 L65,56.0699997 C64.2288813,56.0696264 63.4900517,56.3795745 62.95,56.93 C62.3487966,57.4803284 61.9893727,58.2459013 61.95,59.06 L61.95,77.06 C61.9759463,77.3228381 61.8968581,77.5852674 61.73,77.79 C61.5189359,77.9436727 61.2604579,78.0180293 61,78 L57.1,78 L57.1,80 L60.91,80 C61.7097509,80.0442728 62.4952918,79.775252 63.1,79.25 C63.6891477,78.6740956 64.0023899,77.8727782 63.96,77.05 L63.96,59.05 C64.0137097,58.7822263 64.1543194,58.5396746 64.36,58.36 C64.5231034,58.1820224 64.7490224,58.0744419 64.99,58.06 L69.93,58.06 L69.94,56.0699997 Z" transform="translate(-4 -42)"/>
</svg>
