<svg xmlns="http://www.w3.org/2000/svg" width="34" height="46" viewBox="0 0 34 46">
  <path fill="#EA1B0A" fill-rule="evenodd" d="M63,27 L63,69 L33,69 L33,27 L63,27 L63,27 Z M63,25 L33,25 C31.8954305,25 31,25.8954305 31,27 L31,69 C31,70.1045695 31.8954305,71 33,71 L63,71 C64.1045695,71 65,70.1045695 65,69 L65,27 C65,25.8954305 64.1045695,25 63,25 Z M59,34 L44,34 L44,36 L59,36 L59,34 Z M59,41 L44,41 L44,43 L59,43 L59,41 Z M59,48 L44,48 L44,50 L59,50 L59,48 Z M59,55 L44,55 L44,57 L59,57 L59,55 Z M41,33 L37,33 L37,37 L41,37 L41,33 Z M41,40 L37,40 L37,44 L41,44 L41,40 Z M41,47 L37,47 L37,51 L41,51 L41,47 Z M41,54 L37,54 L37,58 L41,58 L41,54 Z" transform="translate(-31 -25)"/>
</svg>
