<?xml version="1.0" encoding="UTF-8"?>
<svg width="85px" height="96px" viewBox="0 0 85 96" version="1.1" xmlns="http://www.w3.org/2000/svg" xmlns:xlink="http://www.w3.org/1999/xlink">
    <title>pictograms/no_container/city</title>
    <g id="Symbols" stroke="none" stroke-width="1" fill="none" fill-rule="evenodd">
        <g id="pictograms/home&amp;temperature/city" transform="translate(-5.000000, 0.000000)" fill="#39393A">
            <path d="M21,75 L10,75 L10,89 C8.34314575,89 7,87.6568542 7,86 L7,12 L43,25.75 L43,36 L45,36 L45,25.75 C45,24.9192444 44.4866455,24.1749182 43.71,23.88 L19,14.5 L19,8 C19,7.45 18.7,7 18.15,7 C17.5977153,7 17.15,7.44771525 17.15,8 L17.15,13.74 L14,12.59 L14,2 C14,1.44771525 13.5522847,1 13,1 C12.7481762,1.00682698 12.5107406,1.11888398 12.3453914,1.30894052 C12.1800422,1.49899706 12.1019168,1.74965388 12.13,2 L12.13,11.82 L7.71,10.14 C7.09700237,9.90721543 6.40883312,9.98969778 5.86821026,10.3607526 C5.3275874,10.7318074 5.00318794,11.3442984 5,12 L5,86 C5,88.7614237 7.23857625,91 10,91 L30,91 L30,89 L21,89 L21,75 Z M19,89 L12,89 L12,77 L19,77 L19,89 Z M18,27 L10,27 L10,35 L18,35 L18,27 Z M16,33 L12,33 L12,29 L16,29 L16,33 Z M32,35 L40,35 L40,27 L32,27 L32,35 Z M34,29 L38,29 L38,33 L34,33 L34,29 Z M29,27 L21,27 L21,35 L29,35 L29,27 Z M27,33 L23,33 L23,29 L27,29 L27,33 Z M18,49 L10,49 L10,57 L18,57 L18,49 Z M16,55 L12,55 L12,51 L16,51 L16,55 Z M29,38 L21,38 L21,46 L29,46 L29,38 Z M27,44 L23,44 L23,40 L27,40 L27,44 Z M10,68 L18,68 L18,60 L10,60 L10,68 Z M12,62 L16,62 L16,66 L12,66 L12,62 Z M29,49 L21,49 L21,57 L29,57 L29,49 Z M27,55 L23,55 L23,51 L27,51 L27,55 Z M18,38 L10,38 L10,46 L18,46 L18,38 Z M16,44 L12,44 L12,40 L16,40 L16,44 Z M21,68 L29,68 L29,60 L21,60 L21,68 Z M23,62 L27,62 L27,66 L23,66 L23,62 Z M65,85 L65,94 L60,94 L60,85 L65,85 L65,85 Z M71,38 L33,38 C32.4477153,38 32,38.4477153 32,39 L32,50 L32,50 L32,91 C32,92.3260824 32.5267842,93.597852 33.4644661,94.5355339 C34.402148,95.4732158 35.6739176,96 37,96 L67,96 C69.7614237,96 72,93.7614237 72,91 L72,50 L72,50 L72,39 C72,38.4477153 71.5522847,38 71,38 Z M37,94 C35.3431458,94 34,92.6568542 34,91 L34,51 L70,51 L70,91 C70,92.6568542 68.6568542,94 67,94 L67,94 L67,83 L58,83 L58,94 L37,94 Z M43,56 L43,62 L39,62 L39,56 L43,56 L43,56 Z M45,54 L37,54 L37,64 L45,64 L45,54 Z M54,56 L54,62 L50,62 L50,56 L54,56 L54,56 Z M56,54 L48,54 L48,64 L56,64 L56,54 Z M65,56 L65,62 L61,62 L61,56 L65,56 L65,56 Z M67,54 L59,54 L59,64 L67,64 L67,54 Z M43,70 L43,76 L39,76 L39,70 L43,70 L43,70 Z M45,68 L37,68 L37,78 L45,78 L45,68 Z M54,70 L54,76 L50,76 L50,70 L54,70 L54,70 Z M56,68 L48,68 L48,78 L56,78 L56,68 Z M65,70 L65,76 L61,76 L61,70 L65,70 L65,70 Z M67,68 L59,68 L59,78 L67,78 L67,68 Z M55,25 L55,35 L63,35 L63,25 L55,25 Z M61,33 L57,33 L57,27 L61,27 L61,33 Z M90,20 L90,10 C90,9.44771525 89.5522847,9 89,9 L51,9 C50.4477153,9 50,9.44771525 50,10 L50,20 C50,20 50,20 50,20 L50,36 L52,36 L52,21 L88,21 L88,84 C88,84.5522847 87.5522847,85 87,85 L84,85 L84,72 L74,72 L74,87 L87,87 C88.6568542,87 90,85.6568542 90,84 L90,20 C90,20 90,20 90,20 Z M82,85 L76,85 L76,74 L82,74 L82,85 Z M84,41 L74,41 L74,51 L84,51 L84,41 Z M82,49 L76,49 L76,43 L82,43 L82,49 Z M84,57 L74,57 L74,67 L84,67 L84,57 Z M82,65 L76,65 L76,59 L82,59 L82,65 Z M84,25 L66,25 L66,35 L84,35 L84,25 Z M74,33 L68,33 L68,27 L74,27 L74,33 Z M82,33 L76,33 L76,27 L82,27 L82,33 Z" id="â—-Pictogram"></path>
        </g>
    </g>
</svg>