<?xml version="1.0" encoding="UTF-8"?>
<svg width="45px" height="46px" viewBox="0 0 45 46" version="1.1" xmlns="http://www.w3.org/2000/svg" xmlns:xlink="http://www.w3.org/1999/xlink">
    <title>pictograms/no_container/climate_change</title>
    <g id="Symbols" stroke="none" stroke-width="1" fill="none" fill-rule="evenodd">
        <g id="pictograms/e_world/climate-change" transform="translate(-29.000000, -25.000000)" fill="#39393A">
            <path d="M51.75,30.19 C51.4102232,29.7932397 51.4330677,29.2018058 51.8024368,28.8324368 C52.1718058,28.4630677 52.7632397,28.4402232 53.16,28.78 L55.3,30.92 C55.5853762,31.1643899 55.7096819,31.5481184 55.6218101,31.913419 C55.5339383,32.2787195 55.2487195,32.5639383 54.883419,32.6518101 C54.5181184,32.7396819 54.1343899,32.6153762 53.89,32.33 L51.75,30.19 Z M68.07,43.68 C67.6732397,43.3402232 67.0818058,43.3630677 66.7124368,43.7324368 C66.3430677,44.1018058 66.3202232,44.6932397 66.66,45.09 L68.8,47.23 C69.1967603,47.5697768 69.7881942,47.5469323 70.1575632,47.1775632 C70.5269323,46.8081942 70.5497768,46.2167603 70.21,45.82 L68.07,43.68 Z M53.89,43.68 L51.75,45.82 C51.4646238,46.0643899 51.3403181,46.4481184 51.4281899,46.813419 C51.5160617,47.1787195 51.8012805,47.4639383 52.166581,47.5518101 C52.5318816,47.6396819 52.9156101,47.5153762 53.16,47.23 L55.3,45.09 C55.6397768,44.6932397 55.6169323,44.1018058 55.2475632,43.7324368 C54.8781942,43.3630677 54.2867603,43.3402232 53.89,43.68 Z M67.36,32.62 C67.625803,32.6215368 67.8812812,32.5171865 68.07,32.33 L70.21,30.19 C70.5497768,29.7932397 70.5269323,29.2018058 70.1575632,28.8324368 C69.7881942,28.4630677 69.1967603,28.4402232 68.8,28.78 L66.66,30.92 C66.3715401,31.2060905 66.2848381,31.6382668 66.440629,32.0134815 C66.59642,32.3886962 66.9637349,32.6323626 67.37,32.630017 L67.36,32.62 Z M61,32 C57.6862915,32 55,34.6862915 55,38 C55,41.3137085 57.6862915,44 61,44 C64.3137085,44 67,41.3137085 67,38 C67,34.6862915 64.3137085,32 61,32 Z M61,30 C61.5522847,30 62,29.5522847 62,29 L62,26 C62,25.4477153 61.5522847,25 61,25 C60.4477153,25 60,25.4477153 60,26 L60,29 C60,29.5522847 60.4477153,30 61,30 Z M61,46 C60.4477153,46 60,46.4477153 60,47 L60,50 C60,50.5522847 60.4477153,51 61,51 C61.5522847,51 62,50.5522847 62,50 L62,47 C62,46.4477153 61.5522847,46 61,46 Z M48.93,39 L51.93,39 C52.4822847,39 52.93,38.5522847 52.93,38 C52.93,37.4477153 52.4822847,37 51.93,37 L48.93,37 C48.3777153,37 47.93,37.4477153 47.93,38 C47.93,38.5522847 48.3777153,39 48.93,39 Z M73,37 L70,37 C69.4477153,37 69,37.4477153 69,38 C69,38.5522847 69.4477153,39 70,39 L73,39 C73.5522847,39 74,38.5522847 74,38 C74,37.4477153 73.5522847,37 73,37 Z M49.0001099,61.0000002 C49.0223583,65.7998602 45.6312135,69.9385772 40.9206554,70.8604228 C36.2100972,71.7822685 31.5089911,69.2271868 29.7203501,64.7729842 C27.931709,60.3187815 29.5601152,55.2220047 33.6,52.63 L33.6,30.42 C33.6000001,27.4266167 36.0266167,25.0000002 39.02,25.0000002 C42.0133833,25.0000002 44.4399999,27.4266167 44.44,30.42 L44.44,52.68 C47.262616,54.5098523 48.9761114,57.6362298 49.0001099,61.0000002 L49.0001099,61.0000002 Z M47,61 C46.9912888,57.9227245 45.2182703,55.1232215 42.44,53.8 L42.44,30.42 C42.44,28.5311862 40.9088138,27 39.02,27 C37.1311862,27 35.6,28.5311862 35.6,30.42 L35.6,53.85 C31.998132,55.54144 30.1869749,59.623029 31.3495863,63.4286507 C32.5121978,67.2342724 36.2951032,69.6068841 40.2272878,68.9966828 C44.1594725,68.3864815 47.0454142,64.9789898 47,61 L47,61 Z M40,56 L40,32 L38,32 L38,56.06 C35.4850368,56.5733647 33.7673305,58.9076987 34.0253192,61.4615243 C34.283308,64.0153499 36.4331764,65.9589795 39,65.9589795 C41.5668236,65.9589795 43.716692,64.0153499 43.9746808,61.4615243 C44.2326695,58.9076987 42.5149632,56.5733647 40,56.06 L40,56 Z" id="â—-Pictogram"></path>
        </g>
    </g>
</svg>