<svg xmlns="http://www.w3.org/2000/svg" width="48" height="46" viewBox="0 0 48 46">
  <path fill="#EA1B0A" fill-rule="evenodd" d="M72,59 L72,64 C72,69 68.74,72 64.73,72 L31.27,72 C27.27,72 24,69 24,64 L24,59 C24,58.4477153 24.4477153,58 25,58 C25.5522847,58 26,58.4477153 26,59 L26,64 C26,68 28.37,70 31.27,70 L64.73,70 C67.63,70 70,68 70,64 L70,59 C70,58.4477153 70.4477153,58 71,58 C71.5522847,58 72,58.4477153 72,59 Z M52,38 L60,38 L60,36 L52,36 L52,38 Z M52,44 L60,44 L60,42 L52,42 L52,44 Z M52,50 L60,50 L60,48 L52,48 L52,50 Z M46,38.5 L49,38.5 L49,35.5 L46,35.5 L46,38.5 Z M46,44.5 L49,44.5 L49,41.5 L46,41.5 L46,44.5 Z M46,50.5 L49,50.5 L49,47.5 L46,47.5 L46,50.5 Z M52,56 L60,56 L60,54 L52,54 L52,56 Z M46,56.5 L49,56.5 L49,53.5 L46,53.5 L46,56.5 Z M32,56 L32,28 C32,26.8954305 32.8954305,26 34,26 L54,26 C55.1045695,26 56,26.8954305 56,28 L56,31 L63,31 C64.1045695,31 65,31.8954305 65,33 L65,61 C65,62.1045695 64.1045695,63 63,63 L43,63 C41.8954305,63 41,62.1045695 41,61 L41,58 L34,58 C32.8954305,58 32,57.1045695 32,56 Z M56,33 L43,33 L43,61 L63,61 L63,33 L56,33 Z M34,56 L41,56 L41,53 L37,53 L37,51 L41,51 L41,48 L37,48 L37,46 L41,46 L41,43 L37,43 L37,41 L41,41 L41,38 L37,38 L37,36 L41,36 L41,33 L37,33 L37,31 L54,31 L54,28 L34,28 L34,56 Z" transform="translate(-24 -26)"/>
</svg>
