<?xml version="1.0" encoding="UTF-8"?>
<svg width="40px" height="28px" viewBox="0 0 40 28" version="1.1" xmlns="http://www.w3.org/2000/svg" xmlns:xlink="http://www.w3.org/1999/xlink">
    <title>pictograms/no_container/credit_card</title>
    <g id="Symbols" stroke="none" stroke-width="1" fill="none" fill-rule="evenodd">
        <g id="pictograms/Marketing-&amp;-Payment/credit-card" transform="translate(-28.000000, -34.000000)" fill="#39393A">
            <path d="M64,34 L32,34 C29.790861,34 28,35.790861 28,38 L28,58 C28,60.209139 29.790861,62 32,62 L64,62 C66.209139,62 68,60.209139 68,58 L68,38 C68,35.790861 66.209139,34 64,34 Z M66,58 C66,59.1045695 65.1045695,60 64,60 L32,60 C30.8954305,60 30,59.1045695 30,58 L30,47 L66,47 L66,58 Z M66,40.62 L30,40.62 L30,38 C30,36.8954305 30.8954305,36 32,36 L64,36 C65.1045695,36 66,36.8954305 66,38 L66,40.62 Z" id="â—-Pictogram"></path>
        </g>
    </g>
</svg>