<?xml version="1.0" encoding="UTF-8"?>
<svg width="38px" height="32px" viewBox="0 0 38 32" version="1.1" xmlns="http://www.w3.org/2000/svg" xmlns:xlink="http://www.w3.org/1999/xlink">
    <title>pictograms/no_container/date</title>
    <g id="Symbols" stroke="none" stroke-width="1" fill="none" fill-rule="evenodd">
        <g id="pictograms/Marketing-&amp;-Payment/date" transform="translate(-29.000000, -33.000000)" fill="#39393A">
            <path d="M65,33 L60.5,33 L60.5,31 C60.5,30.1715729 59.8284271,29.5 59,29.5 L59,29.5 C58.1715729,29.5 57.5,30.1715729 57.5,31 L57.5,33 L38.5,33 L38.5,31 C38.5,30.1715729 37.8284271,29.5 37,29.5 L37,29.5 C36.1715729,29.5 35.5,30.1715729 35.5,31 L35.5,33 L31,33 C29.8954305,33 29,33.8954305 29,35 L29,63 C29,64.1045695 29.8954305,65 31,65 L65,65 C66.1045695,65 67,64.1045695 67,63 L67,35 C67,33.8954305 66.1045695,33 65,33 Z M65,63 L31,63 L31,39 L65,39 L65,63 Z M37.82,47.92 L37,45.18 L42.07,43 L45,43 L45,59 L41.57,59 L41.57,46.38 L37.82,47.92 Z M51.63,48.28 L48,48.28 C48,45.14 49.74,43 53.49,43 C56.78,43 59,45 59,47.91 C59,50.08 57.4,51.91 55.66,53.69 L53.2,56.16 L59,56.16 L59,59 L48.34,59 L48.34,56.6 L53.2,51.6 C54.43,50.34 55.2,49.2 55.2,47.92 C55.2,46.64 54.64,45.92 53.48,45.92 C52.32,45.92 51.63,46.84 51.63,48.29 L51.63,48.28 Z" id="â—-Pictogram"></path>
        </g>
    </g>
</svg>