<?xml version="1.0" encoding="UTF-8"?>
<svg width="66px" height="49px" viewBox="0 0 66 49" version="1.1" xmlns="http://www.w3.org/2000/svg" xmlns:xlink="http://www.w3.org/1999/xlink">
    <title>pictograms/no_container/dial_meter</title>
    <g id="Symbols" stroke="none" stroke-width="1" fill="none" fill-rule="evenodd">
        <g id="pictograms/home&amp;temperature/dial-meter" transform="translate(-15.000000, -22.000000)" fill="#39393A">
            <path d="M34,35.26 L34,38 L32,38 L32,29 L34,29 L34,32.67 L37,29 L39.34,29 L36.34,32.71 L39.34,38 L37,38 L35,34.18 L34,35.26 Z M48,29 L49.59,35.72 L51,29 L53,29 L50.84,38 L48.43,38 L46.85,31.78 L45.27,38 L42.83,38 L40.66,29 L42.66,29 L44.1,35.72 L45.72,29 L48,29 Z M60,29 L62,29 L62,38 L60,38 L60,34.21 L56.68,34.21 L56.68,38 L54.68,38 L54.68,29 L56.68,29 L56.68,32.54 L60,32.54 L60,29 Z M75,22 L21,22 C17.6862915,22 15,24.6862915 15,28 L15,65 C15,68.3137085 17.6862915,71 21,71 L75,71 C78.3137085,71 81,68.3137085 81,65 L81,28 C81,24.6862915 78.3137085,22 75,22 Z M30,62 C27.2385763,62 25,59.7614237 25,57 C25,54.2385763 27.2385763,52 30,52 C32.7614237,52 35,54.2385763 35,57 C35,59.7614237 32.7614237,62 30,62 Z M42,65 C39.2385763,65 37,62.7614237 37,60 C37,57.2385763 39.2385763,55 42,55 C44.7614237,55 47,57.2385763 47,60 C47,62.7614237 44.7614237,65 42,65 Z M54,65 C51.2385763,65 49,62.7614237 49,60 C49,57.2385763 51.2385763,55 54,55 C56.7614237,55 59,57.2385763 59,60 C59,62.7614237 56.7614237,65 54,65 Z M66,62 C63.2385763,62 61,59.7614237 61,57 C61,54.2385763 63.2385763,52 66,52 C68.7614237,52 71,54.2385763 71,57 C71,59.7614237 68.7614237,62 66,62 Z M47.93,42.19 C34.63,42.19 23.08,48.19 17,58.19 L17,28 C17,25.790861 18.790861,24 21,24 L75,24 C77.209139,24 79,25.790861 79,28 L79,58.23 C72.89,48.22 61.25,42.19 47.93,42.19 Z M32.5,53.82 L33.21,54.53 L30.38,57.36 L29.67,56.65 L32.5,53.82 Z M41.5,64 L42.5,64 L42.5,60 L41.5,60 L41.5,64 Z M50.84,62.48 L51.55,63.19 L54.38,60.36 L53.67,59.65 L50.84,62.48 Z M66,56.48 L66,57.48 L69.85,57.48 L69.85,56.48 L66,56.48 Z" id="â—-Pictogram"></path>
        </g>
    </g>
</svg>