<?xml version="1.0" encoding="UTF-8"?>
<svg width="40px" height="40px" viewBox="0 0 40 40" version="1.1" xmlns="http://www.w3.org/2000/svg" xmlns:xlink="http://www.w3.org/1999/xlink">
    <title>pictograms/no_container/digitalisation</title>
    <g id="Symbols" stroke="none" stroke-width="1" fill="none" fill-rule="evenodd">
        <g id="pictograms/e_world/digitalisierung" transform="translate(-28.000000, -28.000000)" fill="#39393A">
            <path d="M48,28 C36.954305,28 28,36.954305 28,48 C28,59.045695 36.954305,68 48,68 C59.045695,68 68,59.045695 68,48 C68,42.6956702 65.8928632,37.6085919 62.1421356,33.8578644 C58.3914081,30.1071368 53.3043298,28 48,28 Z M30.73,53 L36.89,53 L36.89,62.13 C33.9331638,59.8050417 31.7789583,56.6122013 30.73,53 L30.73,53 Z M47.08,52.86 C46.0140904,52.86 45.15,51.9959096 45.15,50.93 C45.15,49.8640904 46.0140904,49 47.08,49 C48.1459096,49 49.01,49.8640904 49.01,50.93 C49.01,51.4418678 48.8066613,51.9327709 48.4447161,52.2947161 C48.0827709,52.6566613 47.5918678,52.86 47.08,52.86 L47.08,52.86 Z M54.89,64.62 L54.89,56 L59.89,56 L59.89,49.91 C61.8664389,49.5232952 63.2471707,47.7274976 63.1130544,45.7180539 C62.9789381,43.7086102 61.3718023,42.1122318 59.3615032,41.9916138 C57.3512041,41.8709959 55.5647199,43.2637571 55.1912975,45.2427485 C54.8178751,47.2217398 55.9739786,49.1697476 57.89,49.79 L57.89,54 L52.89,54 L52.89,65.31 C51.2996552,65.764574 49.6540326,65.9967784 48,66 L47.89,66 L47.89,54.77 C49.8664389,54.3832952 51.2471707,52.5874976 51.1130544,50.5780539 C50.9789381,48.5686102 49.3718023,46.9722318 47.3615032,46.8516138 C45.3512041,46.7309959 43.5647199,48.1237571 43.1912975,50.1027485 C42.8178751,52.0817398 43.9739786,54.0297476 45.89,54.65 L45.89,65.86 C43.4168197,65.5672563 41.0323307,64.7599365 38.89,63.49 L38.89,51 L30.28,51 C29.8617979,48.6783892 29.9264761,46.2955068 30.47,44 L36.17,44 C36.6725631,45.9048666 38.510807,47.1408268 40.4644912,46.8874406 C42.4181754,46.6340545 43.8803034,44.9700473 43.8803034,43 C43.8803034,41.0299527 42.4181754,39.3659455 40.4644912,39.1125594 C38.510807,38.8591732 36.6725631,40.0951334 36.17,42 L31.05,42 C32.904491,36.7967371 37.0454115,32.7330866 42.2826794,30.9769238 C47.5199472,29.2207609 53.2735766,29.9665668 57.89,33 L57.89,33 L57.89,37 L53.84,37 C53.3374369,35.0951334 51.499193,33.8591732 49.5455088,34.1125594 C47.5918246,34.3659455 46.1296966,36.0299527 46.1296966,38 C46.1296966,39.9700473 47.5918246,41.6340545 49.5455088,41.8874406 C51.499193,42.1408268 53.3374369,40.9048666 53.84,39 L59.84,39 L59.84,34.52 C64.4903144,38.6271117 66.6976626,44.8396152 65.6813021,50.9601382 C64.6649416,57.0806611 60.5681617,62.2463151 54.84,64.63 L54.89,64.62 Z M59.08,48 C58.0140904,48 57.15,47.1359096 57.15,46.07 C57.15,45.0040904 58.0140904,44.14 59.08,44.14 C60.1459096,44.14 61.01,45.0040904 61.01,46.07 C61.01,47.1359096 60.1459096,48 59.08,48 L59.08,48 Z M38.0099999,42.93 C38.0102635,42.1448941 38.4860875,41.43819 39.2134361,41.1426307 C39.9407847,40.8470713 40.7746855,41.0215665 41.3225066,41.5839573 C41.8703277,42.1463481 42.0228794,42.9845408 41.7083346,43.7038828 C41.3937898,44.4232248 40.6748424,44.8803395 39.89,44.86 C38.8436665,44.8328839 38.0096487,43.9766848 38.0099999,42.93 L38.0099999,42.93 Z M52.01,38.07 C52.01,39.1359096 51.1459096,40 50.08,40 C49.0140904,40 48.15,39.1359096 48.15,38.07 C48.15,37.0040904 49.0140904,36.14 50.08,36.14 C51.1459096,36.14 52.01,37.0040904 52.01,38.07 L52.01,38.07 Z" id="â—-Pictogram"></path>
        </g>
    </g>
</svg>