<svg xmlns="http://www.w3.org/2000/svg" width="34" height="46" viewBox="0 0 34 46">
  <path fill="#EA1B0A" fill-rule="evenodd" d="M63,27 L63,69 L33,69 L33,27 L63,27 L63,27 Z M63,25 L33,25 C31.8954305,25 31,25.8954305 31,27 L31,69 C31,70.1045695 31.8954305,71 33,71 L63,71 C64.1045695,71 65,70.1045695 65,69 L65,27 C65,25.8954305 64.1045695,25 63,25 Z M59,34 L37,34 L37,36 L59,36 L59,34 Z M59,39 L37,39 L37,41 L59,41 L59,39 Z M59,44 L37,44 L37,46 L59,46 L59,44 Z M59,49 L37,49 L37,51 L59,51 L59,49 Z M59,54 L37,54 L37,56 L59,56 L59,54 Z M53,59 L37,59 L37,61 L53,61 L53,59 Z" transform="translate(-31 -25)"/>
</svg>
