<svg xmlns="http://www.w3.org/2000/svg" width="32" height="62" viewBox="0 0 32 62">
  <path fill="#EA1B0A" fill-rule="evenodd" d="M45.53,17.3989163 C46.21,17.38 46.67,17.9 46.67,18.75 L46.66,36.4 C46.72,39.3 45.1,41.26 42.7,41.51 L42.71,74.52 L42.71,74.52 C42.71,76.04 42.42,77.38 41.04,78.18 C39.63,78.99 38.26,78.54 37.36,77.46 C36.68,76.64 36.55,75.62 36.55,74.58 L36.54125,67.845 L36.54125,67.845 L36.54,41.48 C34.91,41.32 33.64,40.63 32.97,39.07 C32.7,38.42 32.52,37.67 32.51,36.96 C32.48,30.9 32.51,24.83 32.51,18.77 C32.51,17.94 32.92,17.42 33.56,17.3989163 C34.24,17.38 34.7,17.9 34.7,18.75 L34.71,32.26 L36.5,32.26 C36.49,27.81 36.5,23.22 36.5,18.77 C36.5,17.94 36.91,17.42 37.55,17.3989163 C38.23,17.38 38.69,17.9 38.69,18.75 L38.7,32.26 L40.49,32.26 C40.48,27.81 40.49,23.22 40.49,18.77 C40.49,17.94 40.9,17.42 41.54,17.3989163 C42.22,17.38 42.68,17.9 42.68,18.75 L42.69,32.27 L44.48,32.27 C44.47,27.81 44.48,23.22 44.48,18.77 C44.48,17.94 44.89,17.42 45.53,17.3989163 Z M58.72,17.41 C60.57,17.34 62.48,18.74 63.24,20.58 C63.61,22.06 63.47,73.21 63.43,75.01 C63.5,77.21 62.35,77.92 61.46,78.27 C60.13,78.8 58.46,78.2 57.85,76.81 C57.54,76.11 57.39,75.28 57.39,74.51 L57.3668511,67.9314001 L57.3668511,67.9314001 L57.36,54.33 L54.11,54.33 L54.11,23.23 L54.11,23.23 C54.11,22.37 54.22,21.48 54.46,20.68 C55.05,18.72 56.74,17.48 58.72,17.41 Z" transform="translate(-32 -17)"/>
</svg>
