<svg xmlns="http://www.w3.org/2000/svg" width="82" height="71" viewBox="0 0 82 71">
  <path fill="#EA1B0A" fill-rule="evenodd" d="M34.27,57 L28.9999921,57 L28.9999921,44 L18.9999921,44 L18.9999921,57 L15.9999921,57 C15.4217721,56.9285268 14.9904887,56.4325508 14.9999921,55.85 L14.9999921,41 L50.9999921,41 L50.9999921,47 L52.9999921,47 L52.9999921,41 L56.9999921,41 C57.636392,40.9805047 58.2276016,40.6664246 58.6,40.15 C58.9776587,39.627269 59.0955346,38.9605331 58.92,38.34 L51.92,14.34 C51.652058,13.5139434 50.8677821,12.9665842 49.9999921,13 L15.9999921,13 C15.1240007,12.9705021 14.3370306,13.532038 14.08,14.37 L7.08,38.3 C6.90401823,38.9269833 7.02169395,39.5999413 7.4,40.13 C7.77025613,40.6516448 8.36088877,40.9728013 8.99999206,41 L12.9999921,41 L12.9999921,55.85 C12.9877672,57.5368674 14.314542,58.9299809 15.9999921,59 L33.27,59 L34.27,57 Z M14,39 L9,39 L16,15 L50,15 L57,39 L14,39 Z M27,57 L21,57 L21,46 L27,46 L27,57 Z M89,37 L89,32.2 C89,31.614787 88.7668488,31.0536875 88.3521034,30.6408188 C87.937358,30.2279501 87.375207,29.9973399 86.79,30 L85,30 L85,26 C85,25.4477153 84.5522847,25 84,25 L83,25 C82.4477153,25 82,25.4477153 82,26 L82,30 L78,30 L78,26 C78,25.4477153 77.5522847,25 77,25 L76,25 C75.4477153,25 75,25.4477153 75,26 L75,30 L73.2,30 C71.9849736,30 71,30.9849736 71,32.2 L71,37 C71,40.8659932 74.1340068,44 78,44 L79,44 L79,47.11 C78.9999816,47.8799535 79.3072067,48.6180836 79.8535202,49.1606423 C80.3998337,49.703201 81.1400649,50.0053284 81.91,50 L84,50 C84.5522847,50 85,50.4477153 85,51 L85,55 C85,55.5522847 85.4477153,56 86,56 C86.5522847,56 87,55.5522847 87,55 L87,51 C87,49.3431458 85.6568542,48 84,48 L81.91,48 C81.4207237,47.9945931 81.0254069,47.5992763 81.02,47.11 L81.02,45 L81.02,45 L81.02,44 L82.02,44 C85.8781805,43.9889766 89,40.8581962 89,37 Z M78,41.9999999 C75.2385763,41.9999999 73,39.7614237 73,36.9999999 L73,32.2 C73,32.0895431 73.0895431,31.9999999 73.2,31.9999999 L86.79,31.9999999 C86.9021842,31.9998727 86.994658,32.087943 87,32.2 L87,36.9999999 C87,39.7614237 84.7614237,41.9999999 82,41.9999999 L78,41.9999999 Z M49,78 C49,81.3137085 46.3137085,84 43,84 C39.6862915,84 37,81.3137085 37,78 C37,74.6862915 39.6862915,72 43,72 C46.3137085,72 49,74.6862915 49,78 Z M78,63.69 C76.06,62 67,53 64.52,50.65 C62.04,48.3 42,49.15 39.62,49.15 C37.24,49.15 39.79,50.87 39.07,52.09 C38.35,53.31 34.63,60.75 33.63,62.8 C32.63,64.85 32.69,66.52 32.69,68.8 C32.69,71.08 32.47,76.13 34.08,78.01 C34.44,78.44 34.75,78.77 35.08,79.01 C34.5818082,75.738578 36.1491871,72.4980712 39.0231331,70.8576958 C41.8970791,69.2173205 45.484354,69.5156818 48.0478191,71.6082984 C50.6112841,73.7009149 51.6217904,77.1558299 50.59,80.3 L64.41,80.39 C63.3805918,77.0945844 64.5813687,73.5105471 67.3883104,71.5004418 C70.1952522,69.4903365 73.975052,69.5076864 76.7634224,71.5434751 C79.5517929,73.5792638 80.7196171,77.1741733 79.66,80.4600993 L79.87,80.4600993 C81.76,80.4600993 83.66,80.52 83.66,77.69 C83.66,74.86 83.44,69.92 82.81,68.69 C82.18,67.46 79.84,65.41 78,63.69 Z M69.45,61.59 L69.45,61.59 C64.65,60.89 54.08,59.5 50.45,59.36 L44.57,59.14 L48.63,50.7 C54.8,50.7 61.58,51.05 62.93,52.34 C64.28,53.63 67.76,57.07 70.88,60.16 C71.39,60.69 71.06,61.82 69.4,61.59 L69.45,61.59 Z M77.9,76.59 C78.3788849,78.6145512 77.7748396,80.7426845 76.303762,82.213762 C74.8326845,83.6848396 72.7045512,84.2888849 70.68,83.81 C68.4622475,83.2893869 66.7306131,81.5577525 66.21,79.34 C65.7311151,77.3154488 66.3351604,75.1873155 67.806238,73.716238 C69.2773155,72.2451604 71.4054488,71.6411151 73.43,72.12 C75.6365421,72.6620891 77.3475742,74.4040901 77.85,76.62 L77.9,76.59 Z" transform="translate(-7 -13)"/>
</svg>
