<svg xmlns="http://www.w3.org/2000/svg" width="52" height="44" viewBox="0 0 52 44">
  <path fill="#EA1B0A" fill-rule="evenodd" d="M74,69 C74,69.5522847 73.5522847,70 73,70 L23,70 C22.4477153,70 22,69.5522847 22,69 C22,68.4477153 22.4477153,68 23,68 L73,68 C73.5522847,68 74,68.4477153 74,69 Z M74,28 L74,63 C74,64.1045695 73.1045695,65 72,65 L24,65 C22.8954305,65 22,64.1045695 22,63 L22,28 C22,26.8954305 22.8954305,26 24,26 L72,26 C73.1045695,26 74,26.8954305 74,28 Z M72,28 L24,28 L24,63 L72,63 L72,28 Z M28,61 L26,61 L26,30 L70,30 L70,61 L68,61 L68,47 L62,49 L55.5,41 L49,51 L42,46 L35,49 L28,43.23 L28,61 Z M64,35.38 C64.0328781,35.4369857 64.0942269,35.4714944 64.16,35.47 L66.07,35.47 L65.24,38.47 C65.2175589,38.5550296 65.2598432,38.6438266 65.34,38.6800003 L65.42,38.6800003 C65.4802362,38.6801116 65.5365355,38.6500853 65.57,38.6 L68.57,34.31 C68.6069314,34.2547264 68.6103919,34.1835974 68.5790003,34.1249998 C68.5476087,34.0664023 68.4864762,34.0298767 68.42,34.03 L66.54,34.03 L67.04,31.21 L67.04,31.21 C67.04,31.162261 67.0210358,31.1164773 66.9872792,31.0827208 C66.9535227,31.0489642 66.907739,31.03 66.86,31.03 L66.86,31.03 L66.78,31.03 L66.78,31.03 L66.78,31.03 L64,35.19 C63.9638518,35.2481753 63.9638518,35.3218247 64,35.38 L64,35.38 Z M47,34 L53,34 L53,32 L47,32 L47,34 Z M41,34 L45,34 L45,32 L41,32 L41,34 Z M28,34 L39,34 L39,32 L28,32 L28,34 Z" transform="translate(-22 -26)"/>
</svg>
