<svg xmlns="http://www.w3.org/2000/svg" width="64" height="49" viewBox="0 0 64 49">
  <path fill="#EA1B0A" fill-rule="evenodd" d="M34.26,40 L34.32,40 C37.0678934,39.967605 39.287605,37.7478934 39.32,35 C39.32,32.2385763 37.0814237,30 34.32,30 L34.32,30 C31.5585763,30 29.32,32.2385763 29.32,35 C29.32,37.7614237 31.5585763,40 34.32,40 L34.26,40 Z M34.26,31.9999473 L34.26,31.9999473 C35.077076,31.9951617 35.8607748,32.3238096 36.43,32.91 C37.0022129,33.4549556 37.3272707,34.2098122 37.33,35 C37.3032363,36.6456409 35.9756409,37.9732363 34.33,38 C33.5421745,37.9861097 32.7914411,37.6628274 32.24,37.1 C31.6721482,36.5224215 31.361973,35.7397701 31.38,34.93 C31.416759,33.3311434 32.7012784,32.0422249 34.3,31.9999473 L34.26,31.9999473 Z M62.26,40 L62.32,40 C65.0814237,40 67.32,37.7614237 67.32,35 C67.32,32.2385763 65.0814237,30 62.32,30 L62.32,30 C59.5585763,30 57.32,32.2385763 57.32,35 C57.3526758,37.7594558 59.5903981,39.9838319 62.35,40 L62.26,40 Z M60.1,32.91 C60.6907078,32.3006567 61.5118633,31.9700145 62.36,32 L62.36,32 C63.9898981,31.9995562 65.3219691,33.3005456 65.36,34.93 C65.378027,35.7397701 65.0678518,36.5224215 64.5,37.1 C63.9387857,37.6725669 63.1717377,37.9966717 62.37,38 C60.7131458,38 59.37,36.6568542 59.37,35 C59.3462004,34.2146227 59.6421076,33.4532032 60.19,32.89 L60.1,32.91 Z M42.91,35 C42.9104455,32.2503907 45.1309769,30.0170983 47.8805385,30.0008082 C50.6301001,29.9846954 52.8767953,32.1916651 52.9096431,34.9410782 C52.942491,37.6904913 50.7491639,39.950507 48,40 C45.223646,40.000434 42.9590907,37.77592 42.91,35 L42.91,35 Z M39,45.79 C39,43.31 40.41,41.94 43,41.94 L53,41.94 C55.54,41.94 57,43.34 57,45.79 L57,60 C56.999376,60.1987007 56.9758881,60.3966696 56.93,60.59 C51.26,58.35 46.3,56.4 41.26,54.44 C40.5259763,54.1660418 39.7698953,53.9552759 39,53.81 L39,45.79 Z M27.33,57.79 L25.33,59.36 L25.33,46 C25.33,43.790861 27.120861,42 29.33,42 L38.24,42 C37.7679659,42.5877966 37.4270168,43.2696948 37.24,44 L29.33,44 C28.2254305,44 27.33,44.8954305 27.33,46 L27.33,57.79 Z M57.76,42 L67.34,42 C69.549139,42 71.34,43.790861 71.34,46 L71.34,54.39 L69.34,55.54 L69.34,46 C69.34,44.8954305 68.4445695,44 67.34,44 L58.76,44 C58.5729832,43.2696948 58.2320341,42.5877966 57.76,42 Z M79.9,57.59 C79.6138381,58.5680751 79.0471187,59.4407535 78.27,60.1 C72.2,65 66.07,69.83 60,74.67 C59.6977549,74.8876917 59.4073419,75.1213572 59.13,75.37 C57.7934331,76.784557 55.9360961,77.5903666 53.99,77.6 C53.060726,77.5893511 52.1378632,77.4445223 51.25,77.17 C46.25,75.69 41.25,74.56 36.25,73.17 C35.7304149,73.0147449 35.1921803,72.9306458 34.65,72.92 C33.6258309,72.9232063 32.6458444,73.3375388 31.93,74.07 C30.74,75.18 29.44,76.16 28.19,77.13 L25.99,78.92 C25.2779257,79.5510877 24.1909864,79.493177 23.55,78.79 L16.88,70.79 C16.3190382,70.018309 16.4840838,68.9388212 17.25,68.37 L18.4,67.44 L18.4,67.44 L18.71,67.21 L20,66 C20.12613,65.9005024 20.2637887,65.8165642 20.41,65.75 L21.97,64.52 C24.82,62.31 27.66,60.07 30.49,57.84 C32.2297607,56.3803248 34.4192678,55.5645568 36.69,55.53 C38.0167256,55.5431303 39.3292921,55.804287 40.56,56.3 C46.56,58.64 52.58,61.0033333 58.62,63.39 C59.4878802,63.6457801 60.2098497,64.2517713 60.6122037,65.0621729 C61.0145576,65.8725745 61.0608707,66.8140204 60.74,67.66 C60.3013318,68.9313041 59.0840303,69.7671844 57.74,69.72 C57.2019751,69.71488 56.6695928,69.6097599 56.17,69.41 C52.43,68 48.7,66.51 44.94,65.06 C44.69406,64.9666182 44.4330702,64.9191655 44.17,64.92 C43.998128,64.9180018 43.8267155,64.9381679 43.66,64.98 C43.45,65.03 43.16,65.61 43.24,65.76 C43.4600386,66.1900835 43.8099165,66.5399614 44.24,66.76 C47.24,68 50.33,69.17 53.39,70.37 C54.16,70.67 54.93,70.98 55.71,71.27 C56.3497773,71.5110092 57.0264127,71.6395699 57.71,71.65 C59.2837865,71.65 60.7657281,70.9090292 61.71,69.65 C63.1242183,67.857717 63.1447942,65.3351134 61.76,63.52 C61.33,62.89 61.18,62.52 61.97,62.05 C66.37,59.54 70.73,56.98 75.13,54.47 C75.6939688,54.1263335 76.3396442,53.9398818 77,53.93 C77.575925,53.9342916 78.1345189,54.1275159 78.59,54.48 C79.6494279,55.1276036 80.1767782,56.3795572 79.9,57.59 Z" transform="translate(-16 -30)"/>
</svg>
