<svg xmlns="http://www.w3.org/2000/svg" width="36" height="36" viewBox="0 0 36 36">
  <path fill="#EA1B0A" fill-rule="evenodd" d="M66,48 L66,33 C66,31.8954305 65.1045695,31 64,31 L61.5,31 C62.5467342,29.3770911 62.783055,27.3609794 62.14,25.54 C61.3175474,23.415367 59.2782396,22.0108632 57,21.9999619 C56.3160857,21.99745 55.6377373,22.1229445 55,22.37 C53.13,23.09 49.79,26.88 48,29.05 C46.19,26.88 42.85,23.05 41,22.37 C40.3621983,22.1231718 39.6838931,21.9976854 39,21.9999619 L39,21.9999619 C36.7251277,22.0120396 34.6879513,23.4111122 33.86,25.53 C33.3261191,27.2041345 33.6434563,29.0334902 34.71,30.43 C34.84,30.63 34.99,30.81 35.14,30.99 L32,30.99 C30.8954305,30.99 30,31.8854305 30,32.99 L30,48 C29.4477153,48 29,48.4477153 29,49 C29,49.5522847 29.4477153,50 30,50 L30,65 C30,66.1045695 30.8954305,67 32,67 L47,67 C47,67.5522847 47.4477153,68 48,68 C48.5522847,68 49,67.5522847 49,67 L64,67 C65.1045695,67 66,66.1045695 66,65 L66,50 C66.5522847,50 67,49.5522847 67,49 C67,48.4477153 66.5522847,48 66,48 Z M64,48 L49,48 L49,33 L64,33 L64,48 Z M55.74,24.24 C57.5459439,23.5398149 59.5777192,24.43487 60.28,26.24 C61,28.06 60,31 58,31 L49,31 C49,31 53.93,24.93 55.74,24.24 Z M35.74,26.24 C36.4422808,24.43487 38.4740561,23.5398149 40.28,24.24 C42.07,24.93 47,31 47,31 L39,31 C37,31 35,28.06 35.72,26.25 L35.74,26.24 Z M32,33 L47,33 L47,48 L32,48 L32,33 Z M32,65 L32,50 L47,50 L47,65 L32,65 Z M64,65 L49,65 L49,50 L64,50 L64,65 Z" transform="translate(-30 -31)"/>
</svg>
