<?xml version="1.0" encoding="UTF-8"?>
<svg width="43px" height="38px" viewBox="0 0 43 38" version="1.1" xmlns="http://www.w3.org/2000/svg" xmlns:xlink="http://www.w3.org/1999/xlink">
    <title>pictograms/no_container/graph_downwards</title>
    <g id="Symbols" stroke="none" stroke-width="1" fill="none" fill-rule="evenodd">
        <g id="pictograms/Marketing-&amp;-Payment/graph-downwards" transform="translate(-27.000000, -29.000000)" fill="#39393A">
            <path d="M70,66 C70,66.5522847 69.5522847,67 69,67 L28,67 C27.4477153,67 27,66.5522847 27,66 L27,30 C27,29.4477153 27.4477153,29 28,29 C28.5522847,29 29,29.4477153 29,30 L29,65 L69,65 C69.5522847,65 70,65.4477153 70,66 Z M67,54 L60,48 L53,52 L45,43 L39,45 L32,34 L32,62 L67,62 L67,54 Z" id="â—-Pictogram"></path>
        </g>
    </g>
</svg>