<?xml version="1.0" encoding="UTF-8"?>
<svg width="32px" height="30px" viewBox="0 0 32 30" version="1.1" xmlns="http://www.w3.org/2000/svg" xmlns:xlink="http://www.w3.org/1999/xlink">
    <title>pictograms/no_container/home2_nowindow_small</title>
    <g id="Symbols" stroke="none" stroke-width="1" fill="none" fill-rule="evenodd">
        <g id="pictograms/home&amp;temperature/home2-nowindow-small" transform="translate(-32.000000, -33.000000)" fill="#39393A">
            <path d="M63.94,49.24 L59,34 C58.8116463,33.4025837 58.2563993,32.9972939 57.63,32.9997595 L38.39,32.9997595 C37.7562442,32.9884279 37.1904961,33.395441 37,34 L32,49.17 C31.8637251,49.5947354 31.9380055,50.0589877 32.2,50.42 C32.4727489,50.7929955 32.9079268,51.0124442 33.37,51.01 L36,51.01 L36,61.01 C36,62.1145695 36.8954305,63.01 38,63.01 L58,63.01 C59.1045695,63.01 60,62.1145695 60,61.01 L60,51.01 L62.57,51.01 C63.0354998,51.0236019 63.4788392,50.8112461 63.76,50.44 C64.0128067,50.0935775 64.0800409,49.6453496 63.94,49.24 Z M54,61 L51,61 L51,55 L54,55 L54,61 Z M58,61 L56,61 L56,53 L49,53 L49,61 L38,61 L38,51 L58,51 L58,61 Z M34.22,49 L38.79,35 L57.21,35 L61.76,49 L34.22,49 Z" id="â—-Pictogram"></path>
        </g>
    </g>
</svg>