<?xml version="1.0" encoding="UTF-8"?>
<svg width="54px" height="43px" viewBox="0 0 54 43" version="1.1" xmlns="http://www.w3.org/2000/svg" xmlns:xlink="http://www.w3.org/1999/xlink">
    <title>pictograms/no_container/home_wifi</title>
    <g id="Symbols" stroke="none" stroke-width="1" fill="none" fill-rule="evenodd">
        <g id="pictograms/e_world/home-wifi" transform="translate(-21.000000, -26.000000)" fill="#39393A">
            <path d="M58.71,53.32 C59.0846537,53.7075966 59.0846537,54.3224034 58.71,54.71 C58.5222334,54.8993127 58.2666375,55.0057983 58,55.0057983 C57.7333625,55.0057983 57.4777666,54.8993127 57.29,54.71 C52.1130351,49.7113249 43.9069649,49.7113249 38.73,54.71 C38.5422334,54.8993127 38.2866375,55.0057983 38.02,55.0057983 C37.7533625,55.0057983 37.4977666,54.8993127 37.31,54.71 C36.9353463,54.3224034 36.9353463,53.7075966 37.31,53.32 C43.2816021,47.5529635 52.7483979,47.5529635 58.72,53.32 L58.71,53.32 Z M44.47,60.46 C43.0396969,61.8898712 42.6116414,64.0405788 43.3854579,65.9091361 C44.1592744,67.7776935 45.9825514,68.9960677 48.005,68.9960677 C50.0274486,68.9960677 51.8507256,67.7776935 52.6245421,65.9091361 C53.3983586,64.0405788 52.9703031,61.8898712 51.54,60.46 C49.5875007,58.5080903 46.4224993,58.5080903 44.47,60.46 Z M29.29,46.21 C28.9085061,46.6295812 28.9085061,47.2704188 29.29,47.69 C29.6788435,48.0711429 30.3011565,48.0711429 30.69,47.69 C35.1452886,42.8512314 41.4225174,40.0981555 48,40.0981555 C54.5774826,40.0981555 60.8547114,42.8512314 65.31,47.69 C65.4899268,47.886102 65.7438616,47.9977384 66.01,47.9977384 C66.2761384,47.9977384 66.5300732,47.886102 66.71,47.69 C67.0914939,47.2704188 67.0914939,46.6295812 66.71,46.21 C61.894856,40.9790296 55.1097583,38.0026827 48,38.0026827 C40.8902417,38.0026827 34.105144,40.9790296 29.29,46.21 L29.29,46.21 Z M74.21,37.74 C67.3821057,30.56038 57.9079303,26.4959864 48,26.4959864 C38.0920697,26.4959864 28.6178943,30.56038 21.79,37.74 C21.4014268,38.1491038 21.4014268,38.7908962 21.79,39.2 C22.1800375,39.5877236 22.8099625,39.5877236 23.2,39.2 C29.6614257,32.4081545 38.62561,28.5634927 48,28.5634927 C57.37439,28.5634927 66.3385743,32.4081545 72.8,39.2 C73.1900375,39.5877236 73.8199625,39.5877236 74.21,39.2 C74.5985732,38.7908962 74.5985732,38.1491038 74.21,37.74 L74.21,37.74 Z" id="â—-Pictogram"></path>
        </g>
    </g>
</svg>