<svg xmlns="http://www.w3.org/2000/svg" width="45" height="65" viewBox="0 0 45 65">
  <path fill="#EA1B0A" fill-rule="evenodd" d="M69,21 L26,21 C25.4477153,21 25,21.4477153 25,22 L25,37 C25,37.5522847 25.4477153,38 26,38 L28,38 L28,81 C28,83.7614237 30.2385763,86 33,86 L62,86 C64.7614237,86 67,83.7614237 67,81 L67,38 L69,38 C69.5522847,38 70,37.5522847 70,37 L70,22 C70,21.4477153 69.5522847,21 69,21 Z M55,84 L55,75 L60,75 L60,84 L55,84 Z M65,81 C65,82.6568542 63.6568542,84 62,84 L62,73 L53,73 L53,84 L33,84 C31.3431458,84 30,82.6568542 30,81 L30,38 L65,38 L65,81 Z M40,41 L33,41 L33,51 L40,51 L40,41 Z M38,49 L35,49 L35,43 L38,43 L38,49 Z M51,41 L44,41 L44,51 L51,51 L51,41 Z M49,49 L46,49 L46,43 L49,43 L49,49 Z M62,41 L55,41 L55,51 L62,51 L62,41 Z M60,49 L57,49 L57,43 L60,43 L60,49 Z M40,55 L33,55 L33,65 L40,65 L40,55 Z M38,63 L35,63 L35,57 L38,57 L38,63 Z M51,55 L44,55 L44,65 L51,65 L51,55 Z M49,63 L46,63 L46,57 L49,57 L49,63 Z M62,55 L55,55 L55,65 L62,65 L62,55 Z M60,63 L57,63 L57,57 L60,57 L60,63 Z" transform="translate(-25 -21)"/>
</svg>
