<?xml version="1.0" encoding="UTF-8"?>
<svg width="64px" height="56px" viewBox="0 0 64 56" version="1.1" xmlns="http://www.w3.org/2000/svg" xmlns:xlink="http://www.w3.org/1999/xlink">
    <title>pictograms/no_container/house_big</title>
    <g id="Symbols" stroke="none" stroke-width="1" fill="none" fill-rule="evenodd">
        <g id="pictograms/Weather-&amp;-More/house_big" transform="translate(-16.000000, -17.000000)" fill="#39393A">
            <path d="M68.972,17.0005 L68.972,23.6105 L78.773,29.2695 C79.556,29.7205 79.939,30.6465 79.705,31.5195 C79.471,32.3925 78.677,33.0015 77.773,33.0015 L77.773,33.0015 L75.5,33.0015 L75.5,71.0005 C75.5,72.1025 74.603,73.0005 73.5,73.0005 L73.5,73.0005 L23.5,73.0005 C22.397,73.0005 21.5,72.1025 21.5,71.0005 L21.5,71.0005 L21.5,33.0015 L18.227,33.0015 C17.323,33.0015 16.529,32.3925 16.295,31.5195 C16.061,30.6465 16.444,29.7205 17.227,29.2695 L17.227,29.2695 L38.012,17.2695 C38.315,17.0945 38.661,17.0015 39.012,17.0015 L39.012,17.0015 L56.988,17.0015 C57.339,17.0015 57.685,17.0945 57.988,17.2695 L57.988,17.2695 L63.972,20.7235 L63.972,17.0005 L68.972,17.0005 Z M73.5,33.0015 L23.5,33.0015 L23.5,71.0005 L61,71.0005 L61,55.0005 L71,55.0005 L71,71.0005 L73.5,71.0005 L73.5,33.0015 Z M69,57.0005 L63,57.0005 L63,71.0005 L69,71.0005 L69,57.0005 Z M40,55 L40,65 L26,65 L26,55 L40,55 Z M57.5,55 L57.5,65 L43.5,65 L43.5,55 L57.5,55 Z M38,57 L34,57 L34,63 L38,63 L38,57 Z M32,57 L28,57 L28,63 L32,63 L32,57 Z M55.5,57 L51.5,57 L51.5,63 L55.5,63 L55.5,57 Z M49.5,57 L45.5,57 L45.5,63 L49.5,63 L49.5,57 Z M40,36.001 L40,46.001 L26,46.001 L26,36.001 L40,36.001 Z M57.5,36.001 L57.5,46.001 L43.5,46.001 L43.5,36.001 L57.5,36.001 Z M70,36.001 L70,46.001 L62,46.001 L62,36.001 L70,36.001 Z M38,38.001 L34,38.001 L34,44.001 L38,44.001 L38,38.001 Z M32,38.001 L28,38.001 L28,44.001 L32,44.001 L32,38.001 Z M55.5,38.001 L51.5,38.001 L51.5,44.001 L55.5,44.001 L55.5,38.001 Z M49.5,38.001 L45.5,38.001 L45.5,44.001 L49.5,44.001 L49.5,38.001 Z M68,38.001 L64,38.001 L64,44.001 L68,44.001 L68,38.001 Z M56.988,19.0015 L39.012,19.0015 L18.227,31.0015 L77.773,31.0015 L56.988,19.0015 Z" id="â—-Pictogram"></path>
        </g>
    </g>
</svg>