<?xml version="1.0" encoding="UTF-8"?>
<svg width="44px" height="62px" viewBox="0 0 44 62" version="1.1" xmlns="http://www.w3.org/2000/svg" xmlns:xlink="http://www.w3.org/1999/xlink">
    <title>pictograms/no_container/house_flat</title>
    <g id="Symbols" stroke="none" stroke-width="1" fill="none" fill-rule="evenodd">
        <g id="pictograms/Weather-&amp;-More/house_flat" transform="translate(-26.000000, -17.000000)" fill="#39393A">
            <path d="M68,17 C69.104,17 70,17.896 70,19 L70,19 L70,77 C70,78.104 69.104,79 68,79 L68,79 L28,79 C26.896,79 26,78.104 26,77 L26,77 L26,19 C26,17.896 26.896,17 28,17 L28,17 Z M68,29 L28,29 L28,77 L56,77 L56,63 L64,63 L64,77 L68,77 L68,29 Z M62,65 L58,65 L58,77 L62,77 L62,65 Z M40,63 L40,74 L32,74 L32,63 L40,63 Z M52,63 L52,74 L44,74 L44,63 L52,63 Z M38,65 L34,65 L34,72 L38,72 L38,65 Z M50,65 L46,65 L46,72 L50,72 L50,65 Z M40,48 L40,59 L32,59 L32,48 L40,48 Z M52,48 L52,59 L44,59 L44,48 L52,48 Z M64,48 L64,59 L56,59 L56,48 L64,48 Z M38,50 L34,50 L34,57 L38,57 L38,50 Z M50,50 L46,50 L46,57 L50,57 L50,50 Z M62,50 L58,50 L58,57 L62,57 L62,50 Z M64,33 L64,44 L56,44 L56,33 L64,33 Z M40,33 L40,44 L32,44 L32,33 L40,33 Z M52,33 L52,44 L44,44 L44,33 L52,33 Z M62,35 L58,35 L58,42 L62,42 L62,35 Z M38,35 L34,35 L34,42 L38,42 L38,35 Z M50,35 L46,35 L46,42 L50,42 L50,35 Z" id="â—-Pictogram"></path>
        </g>
    </g>
</svg>