<svg xmlns="http://www.w3.org/2000/svg" width="40" height="89" viewBox="0 0 40 89">
  <path fill="#EA1B0A" fill-rule="evenodd" d="M66.71,23.89 L42,14.5 L42,9 C42,8.45 41.7,8 41.15,8 C40.5977153,8 40.15,8.44771525 40.15,9 L40.15,13.74 L37,12.59 L37,3 C37,2.44771525 36.5522847,2 36,2 C35.7481762,2.00682698 35.5107406,2.11888398 35.3453914,2.30894052 C35.1800422,2.49899706 35.1019168,2.74965388 35.13,3 L35.13,11.82 L30.71,10.13 C30.0953525,9.89659779 29.4052503,9.98019282 28.8641083,10.3536008 C28.3229663,10.7270087 28,11.342529 28,12 L28,86 C28,88.7614237 30.2385763,91 33,91 L63,91 C65.7614237,91 68,88.7614237 68,86 L68,25.75 C67.9959713,24.9229036 67.4832374,24.1836129 66.71,23.89 Z M42.5,89 L42.5,80 L53.5,80 L53.5,89 L42.5,89 Z M66,86 C66,87.6568542 64.6568542,89 63,89 L55.5,89 L55.5,78 L40.5,78 L40.5,89 L33,89 C31.3431458,89 30,87.6568542 30,86 L30,12 L66,25.75 L66,86 Z M33,29 L33,37 L41,37 L41,29 L33,29 Z M39,35 L35,35 L35,31 L39,31 L39,35 Z M44,29 L44,37 L52,37 L52,29 L44,29 Z M50,35 L46,35 L46,31 L50,31 L50,35 Z M55,29 L55,37 L63,37 L63,29 L55,29 Z M61,35 L57,35 L57,31 L61,31 L61,35 Z M33,41 L33,49 L41,49 L41,41 L33,41 Z M39,47 L35,47 L35,43 L39,43 L39,47 Z M44,41 L44,49 L52,49 L52,41 L44,41 Z M50,47 L46,47 L46,43 L50,43 L50,47 Z M55,41 L55,49 L63,49 L63,41 L55,41 Z M61,47 L57,47 L57,43 L61,43 L61,47 Z M33,53 L33,61 L41,61 L41,53 L33,53 Z M39,59 L35,59 L35,55 L39,55 L39,59 Z M44,53 L44,61 L52,61 L52,53 L44,53 Z M50,59 L46,59 L46,55 L50,55 L50,59 Z M55,53 L55,61 L63,61 L63,53 L55,53 Z M61,59 L57,59 L57,55 L61,55 L61,59 Z M33,65 L33,73 L41,73 L41,65 L33,65 Z M39,71 L35,71 L35,67 L39,67 L39,71 Z M44,65 L44,73 L52,73 L52,65 L44,65 Z M50,71 L46,71 L46,67 L50,67 L50,71 Z M55,65 L55,73 L63,73 L63,65 L55,65 Z M61,71 L57,71 L57,67 L61,67 L61,71 Z" transform="translate(-28 -2)"/>
</svg>
