<?xml version="1.0" encoding="UTF-8"?>
<svg width="48px" height="39px" viewBox="0 0 48 39" version="1.1" xmlns="http://www.w3.org/2000/svg" xmlns:xlink="http://www.w3.org/1999/xlink">
    <title>pictograms/no_container/house_s</title>
    <g id="Symbols" stroke="none" stroke-width="1" fill="none" fill-rule="evenodd">
        <g id="pictograms/Weather-&amp;-More/house_s" transform="translate(-24.000000, -34.000000)" fill="#39393A">
            <path d="M46.906,34.52 C47.572,34.086 48.43,34.087 49.094,34.52 L49.094,34.52 L55.5,38.704 L55.5,35 L60.5,35 L60.5,41.969 L70.234,48.326 C70.97,48.806 71.309,49.729 71.059,50.57 C70.806,51.413 70.018,52 69.141,52 L69.141,52 L66.5,52 L66.5,71 C66.5,72.103 65.603,73 64.5,73 L64.5,73 L31.5,73 C30.397,73 29.5,72.103 29.5,71 L29.5,71 L29.5,52 L26.859,52 C25.982,52 25.194,51.413 24.942,50.572 C24.691,49.728 25.03,48.805 25.767,48.325 L25.767,48.325 Z M64.5,52 L31.5,52 L31.5,71 L51,71 L51,55 L61,55 L61,71 L64.5,71 L64.5,52 Z M59,57 L53,57 L53,71 L59,71 L59,57 Z M48,55 L48,65 L34,65 L34,55 L48,55 Z M46,57 L42,57 L42,63 L46,63 L46,57 Z M40,57 L36,57 L36,63 L40,63 L40,57 Z M48,36.195 L26.859,50 L69.141,50 L48,36.195 Z" id="â—-Pictogram"></path>
        </g>
    </g>
</svg>