<?xml version="1.0" encoding="UTF-8"?>
<svg width="56px" height="57px" viewBox="0 0 56 57" version="1.1" xmlns="http://www.w3.org/2000/svg" xmlns:xlink="http://www.w3.org/1999/xlink">
    <title>pictograms/no_container/house_semi_detached</title>
    <g id="Symbols" stroke="none" stroke-width="1" fill="none" fill-rule="evenodd">
        <g id="pictograms/Weather-&amp;-More/house_semi_detached" transform="translate(-20.000000, -22.000000)" fill="#39393A">
            <path d="M69.645386,21.9998 C70.463386,21.9998 71.199386,22.4978 71.502386,23.2568 L71.502386,23.2568 L75.903386,34.2568 C76.149386,34.8728 76.074386,35.5708 75.702386,36.1208 C75.330386,36.6708 74.709386,36.9998 74.045386,36.9998 L74.045386,36.9998 L72.999686,37 L72.999686,76 C72.999686,77.654 71.653686,79 69.999686,79 L69.999686,79 L49.999686,79 C49.2317575,79 48.5302217,78.7098546 47.998964,78.2334489 L47.8748347,78.340035 C47.3608289,78.7527755 46.7085432,79 45.999686,79 L45.999686,79 L25.999686,79 C24.344686,79 22.999686,77.654 22.999686,76 L22.999686,76 L22.999686,37 L21.954386,36.9998 C21.290386,36.9998 20.669386,36.6708 20.297386,36.1208 C19.925386,35.5708 19.850386,34.8728 20.097386,34.2568 L20.097386,34.2568 L24.497386,23.2568 C24.800386,22.4978 25.536386,21.9998 26.353386,21.9998 L26.353386,21.9998 Z M70.999686,37 L48.999686,37 L48.999686,76 C48.999686,76.551 49.446686,77 49.999686,77 L49.999686,77 L54.999686,77 L54.999686,62 L64.999686,62 L64.999686,77 L69.999686,77 C70.551686,77 70.999686,76.551 70.999686,76 L70.999686,76 L70.999686,37 Z M46.999686,37 L24.999686,37 L24.999686,76 C24.999686,76.551 25.447686,77 25.999686,77 L25.999686,77 L30.999686,77 L30.999686,62 L40.999686,62 L40.999686,77 L45.999686,77 C46.551686,77 46.999686,76.551 46.999686,76 L46.999686,76 L46.999686,37 Z M62.999686,64 L56.999686,64 L56.999686,77 L62.999686,77 L62.999686,64 Z M38.999686,64 L32.999686,64 L32.999686,77 L38.999686,77 L38.999686,64 Z M66.999686,42 L66.999686,52 L52.999686,52 L52.999686,42 L66.999686,42 Z M42.999686,42 L42.999686,52 L28.999686,52 L28.999686,42 L42.999686,42 Z M64.999686,44 L60.999686,44 L60.999686,50 L64.999686,50 L64.999686,44 Z M58.999686,44 L54.999686,44 L54.999686,50 L58.999686,50 L58.999686,44 Z M34.999686,44 L30.999686,44 L30.999686,50 L34.999686,50 L34.999686,44 Z M40.999686,44 L36.999686,44 L36.999686,50 L40.999686,50 L40.999686,44 Z" id="â—-Pictogram"></path>
        </g>
    </g>
</svg>