<?xml version="1.0" encoding="UTF-8"?>
<svg width="92px" height="64px" viewBox="0 0 92 64" version="1.1" xmlns="http://www.w3.org/2000/svg" xmlns:xlink="http://www.w3.org/1999/xlink">
    <title>pictograms/no_container/house_terrace</title>
    <g id="Symbols" stroke="none" stroke-width="1" fill="none" fill-rule="evenodd">
        <g id="pictograms/Weather-&amp;-More/house_terrace" transform="translate(-2.000000, -15.000000)" fill="#39393A">
            <path d="M24.9816,15.0002 C25.5625091,15.0002 26.1128397,15.2530926 26.4905932,15.6875028 L26.5986,15.8232 L33,24.6262 L39.4016,15.8232 C39.7434182,15.3532 40.2711868,15.0575802 40.8451612,15.0077154 L41.0186,15.0002 L54.9816,15.0002 C55.5625091,15.0002 56.1128397,15.2530926 56.4905932,15.6875028 L56.5986,15.8232 L63,24.6262 L69.4016,15.8232 C69.7434182,15.3532 70.2711868,15.0575802 70.8451612,15.0077154 L71.0186,15.0002 L84.9816,15.0002 C85.5625091,15.0002 86.1128397,15.2530926 86.4905932,15.6875028 L86.5986,15.8232 L93.998,25.9992 L94,26 L94,76 C94,77.654 92.654,79 91,79 L65,79 C64.2911429,79 63.6388571,78.7527755 63.1248513,78.340035 L63.000722,78.2334489 C62.4694643,78.7098546 61.7679286,79 61,79 L35,79 C34.2911429,79 33.6388571,78.7527755 33.1248513,78.340035 L33.000722,78.2334489 C32.4694643,78.7098546 31.7679286,79 31,79 L5,79 C3.346,79 2,77.654 2,76 L2,26 L2.001,25.9992 L9.4016,15.8232 C9.74341818,15.3532 10.2711868,15.0575802 10.8451612,15.0077154 L11.0186,15.0002 L24.9816,15.0002 Z M92,28 L64,28 L64,76 C64,76.552 64.448,77 65,77 L80,76.9992 L80,62 L88,62 L88,76.9992 L91,77 C91.552,77 92,76.552 92,76 L92,28 Z M86,64 L82,64 L82,77 L86,77 L86,64 Z M32,28 L4,28 L4,76 C4,76.552 4.448,77 5,77 L20,76.9992 L20,62 L28,62 L28,76.9992 L31,77 C31.552,77 32,76.552 32,76 L32,28 Z M26,64 L22,64 L22,77 L26,77 L26,64 Z M56,64 L52,64 L52,77 L56,77 L56,64 Z M62,28 L34,28 L34,76 C34,76.552 34.448,77 35,77 L50,76.9992 L50,62 L58,62 L58,76.9992 L61,77 C61.552,77 62,76.552 62,76 L62,28 Z M76,62 L76,72 L68,72 L68,62 L76,62 Z M16,62 L16,72 L8,72 L8,62 L16,62 Z M46,62 L46,72 L38,72 L38,62 L46,62 Z M74,64 L70,64 L70,70 L74,70 L74,64 Z M14,64 L10,64 L10,70 L14,70 L14,64 Z M44,64 L40,64 L40,70 L44,70 L44,64 Z M88,47 L88,57 L80,57 L80,47 L88,47 Z M76,47 L76,57 L68,57 L68,47 L76,47 Z M28,47 L28,57 L20,57 L20,47 L28,47 Z M16,47 L16,57 L8,57 L8,47 L16,47 Z M46,47 L46,57 L38,57 L38,47 L46,47 Z M58,47 L58,57 L50,57 L50,47 L58,47 Z M86,49 L82,49 L82,55 L86,55 L86,49 Z M74,49 L70,49 L70,55 L74,55 L74,49 Z M26,49 L22,49 L22,55 L26,55 L26,49 Z M14,49 L10,49 L10,55 L14,55 L14,49 Z M44,49 L40,49 L40,55 L44,55 L44,49 Z M56,49 L52,49 L52,55 L56,55 L56,49 Z M76,32 L76,42 L68,42 L68,32 L76,32 Z M16,32 L16,42 L8,42 L8,32 L16,32 Z M28,32 L28,42 L20,42 L20,32 L28,32 Z M88,32 L88,42 L80,42 L80,32 L88,32 Z M58,32 L58,42 L50,42 L50,32 L58,32 Z M46,32 L46,42 L38,42 L38,32 L46,32 Z M26,34 L22,34 L22,40 L26,40 L26,34 Z M74,34 L70,34 L70,40 L74,40 L74,34 Z M86,34 L82,34 L82,40 L86,40 L86,34 Z M14,34 L10,34 L10,40 L14,40 L14,34 Z M56,34 L52,34 L52,40 L56,40 L56,34 Z M44,34 L40,34 L40,40 L44,40 L44,34 Z" id="â—-Pictogram"></path>
        </g>
    </g>
</svg>