<?xml version="1.0" encoding="UTF-8"?>
<svg width="58px" height="37px" viewBox="0 0 58 37" version="1.1" xmlns="http://www.w3.org/2000/svg" xmlns:xlink="http://www.w3.org/1999/xlink">
    <title>pictograms/no_container/house_m</title>
    <g id="Symbols" stroke="none" stroke-width="1" fill="none" fill-rule="evenodd">
        <g id="pictograms/Weather-&amp;-More/house_m" transform="translate(-19.000000, -36.000000)" fill="#39393A">
            <path d="M53.9885,36 C54.3375,36 54.6835,36.092 54.9865,36.267 L54.9865,36.267 L60.9725,39.722 L60.9725,36 L65.9725,36 L65.9725,42.609 L75.7725,48.268 C76.5555,48.721 76.9375,49.646 76.7045,50.518 C76.4715,51.391 75.6765,52 74.7725,52 L74.7725,52 L72.5005,52 L72.5005,71 C72.5005,72.103 71.6035,73 70.5005,73 L70.5005,73 L26.5005,73 C25.3975,73 24.5005,72.103 24.5005,71 L24.5005,71 L24.5005,52 L21.2275,52 C20.3235,52 19.5285,51.391 19.2955,50.518 C19.0625,49.646 19.4445,48.721 20.2265,48.268 L20.2265,48.268 L41.0115,36.268 C41.3165,36.092 41.6625,36 42.0115,36 L42.0115,36 Z M70.5005,52 L26.5005,52 L26.5005,71 L46.0005,71 L46.0005,55 L56.0005,55 L56.0005,71 L70.5005,71 L70.5005,52 Z M54.0005,57 L48.0005,57 L48.0005,71 L54.0005,71 L54.0005,57 Z M43,55 L43,65 L29,65 L29,55 L43,55 Z M67.5,55 L67.5,65 L59.5,65 L59.5,55 L67.5,55 Z M41,57 L37,57 L37,63 L41,63 L41,57 Z M35,57 L31,57 L31,63 L35,63 L35,57 Z M65.5,57 L61.5,57 L61.5,63 L65.5,63 L65.5,57 Z M53.9885,38 L42.0115,38 L21.2275,50 L74.7725,50 L53.9885,38 Z" id="â—-Pictogram"></path>
        </g>
    </g>
</svg>