<?xml version="1.0" encoding="UTF-8"?>
<svg width="48px" height="73px" viewBox="0 0 48 73" version="1.1" xmlns="http://www.w3.org/2000/svg" xmlns:xlink="http://www.w3.org/1999/xlink">
    <title>pictograms/no_container/led_industry</title>
    <g id="Symbols" stroke="none" stroke-width="1" fill="none" fill-rule="evenodd">
        <g id="pictograms/e_world/led-industry" transform="translate(-24.000000, -18.000000)" fill="#39393A">
            <path d="M71.41,43.47 L69.9999938,42.05 L69.9999938,19.88 C69.9999938,18.7754305 69.1045695,17.88 67.9999938,17.88 L63.9999938,17.88 C62.8954305,17.88 61.9999938,18.7754305 61.9999938,19.88 L61.9999938,35.68 L49.26,25.33 C48.6614826,24.844461 47.8372333,24.7460221 47.1412058,25.0769554 C46.4451783,25.4078887 46.0012286,26.1093058 45.9999938,26.88 L45.9999938,31.66 L38.27,25.33 C37.671688,24.8381874 36.8432076,24.7360299 36.143346,25.0677686 C35.4434844,25.3995073 34.9980712,26.1054981 34.9999938,26.88 L34.9999938,31.66 L27.27,25.33 C26.671688,24.8381874 25.8432076,24.7360299 25.143346,25.0677686 C24.4434844,25.3995073 23.9980712,26.1054981 23.9999938,26.88 L23.9999938,89 C23.9999938,90.1045695 24.8954305,91 25.9999938,91 L69.9999938,91 C71.1045695,91 71.9999938,90.1045695 71.9999938,89 L71.9999938,44.88 C71.9977672,44.3504232 71.7855878,43.8433503 71.41,43.47 Z M70,89 L26,89 L26,26.88 L37,35.88 L37,26.88 L48,35.88 L48,26.88 L64,39.88 L64,19.88 L68,19.88 L68,42.88 L70,44.88 L70,89 Z M46.86,57.51 L46.86,55.51 C46.86,54.9577153 47.3077153,54.51 47.86,54.51 L47.86,54.51 C48.4122847,54.51 48.86,54.9577153 48.86,55.51 L48.86,57.51 C48.86,58.0622847 48.4122847,58.51 47.86,58.51 L47.86,58.51 C47.3077153,58.51 46.86,58.0622847 46.86,57.51 Z M59.86,65.51 C59.86,66.0622847 59.4122847,66.51 58.86,66.51 L56.86,66.51 C56.3077153,66.51 55.86,66.0622847 55.86,65.51 C55.86,64.9577153 56.3077153,64.51 56.86,64.51 L58.86,64.51 C59.1269405,64.5019371 59.3860156,64.6009847 59.5794948,64.7850718 C59.7729741,64.9691588 59.8847805,65.2229888 59.89,65.49 L59.86,65.51 Z M53.22,60.16 C53.0306873,59.9722334 52.9242017,59.7166375 52.9242017,59.45 C52.9242017,59.1833625 53.0306873,58.9277666 53.22,58.74 L54.64,57.33 C55.0321222,56.9406393 55.6656392,56.9428779 56.055,57.335 C56.4443607,57.7271222 56.4421221,58.3606392 56.05,58.75 L54.63,60.16 C54.2399625,60.5477236 53.6100375,60.5477236 53.22,60.16 L53.22,60.16 Z M39.82,58.72 C39.5681277,58.4663414 39.4707134,58.097579 39.5644521,57.7526219 C39.6581907,57.4076649 39.9288412,57.1389204 40.2744521,57.0476219 C40.620063,56.9563235 40.9881278,57.0563414 41.24,57.31 L42.65,58.73 C43.0393607,59.1221222 43.0371221,59.7556392 42.645,60.145 C42.2528778,60.5343607 41.6193608,60.5321221 41.23,60.14 L39.82,58.72 Z M54.88,71.51 L53.88,71.51 L53.88,66.85 C53.88,63.5362915 51.1937085,60.85 47.88,60.85 C44.5662915,60.85 41.88,63.5362915 41.88,66.85 L41.88,71.52 L40.88,71.52 C40.3277153,71.52 39.88,71.9677153 39.88,72.52 C39.88,73.0722847 40.3277153,73.52 40.88,73.52 L43.88,73.52 L43.88,80.52 C43.88,81.0722847 44.3277153,81.52 44.88,81.52 C45.4322847,81.52 45.88,81.0722847 45.88,80.52 L45.88,73.52 L49.88,73.52 L49.88,78.52 C49.88,79.0722847 50.3277153,79.52 50.88,79.52 C51.4322847,79.52 51.88,79.0722847 51.88,78.52 L51.88,73.52 L54.88,73.52 C55.4322847,73.52 55.88,73.0722847 55.88,72.52 C55.88,71.9677153 55.4322847,71.52 54.88,71.52 L54.88,71.51 Z M51.88,71.51 L43.88,71.51 L43.88,66.85 C43.88,64.640861 45.670861,62.85 47.88,62.85 C50.089139,62.85 51.88,64.640861 51.88,66.85 L51.88,71.51 Z M39.88,65.51 C39.88,66.0622847 39.4322847,66.51 38.88,66.51 L36.88,66.51 C36.3277153,66.51 35.88,66.0622847 35.88,65.51 C35.88,64.9577153 36.3277153,64.51 36.88,64.51 L38.88,64.51 C39.4322847,64.51 39.88,64.9577153 39.88,65.51 Z" id="â—-Pictogram"></path>
        </g>
    </g>
</svg>