<svg xmlns="http://www.w3.org/2000/svg" width="40" height="87" viewBox="0 0 40 87">
  <path fill="#EA1B0A" fill-rule="evenodd" d="M65.71,26.37 L41.15,17 L41.15,11.44 C41.15,10.8877153 40.7022847,10.44 40.15,10.44 C39.5977153,10.44 39.15,10.8877153 39.15,11.44 L39.15,16.22 L36.15,15.07 L36.15,5.48 C36.15,4.92771525 35.7022847,4.48 35.15,4.48 C34.5977153,4.48 34.15,4.92771525 34.15,5.48 L34.15,14.3 L29.73,12.61 C29.1114316,12.3674602 28.4127976,12.4479425 27.8655812,12.8247801 C27.3183648,13.2016178 26.9940147,13.8256081 26.9999186,14.49 L26.9999186,86 C26.9999186,88.7614237 29.2385763,91 32,91 L62,91 C64.7614237,91 67,88.7614237 67,86 L67,28.24 C67,27.4092444 66.4866455,26.6649182 65.71,26.37 Z M65,86 C65,87.6568542 63.6568542,89 62,89 L32,89 C30.3431458,89 29,87.6568542 29,86 L29,14.49 L65,28.24 L65,86 Z M46,57.63 L46,55.63 C46,55.0777153 46.4477153,54.63 47,54.63 L47,54.63 C47.5522847,54.63 48,55.0777153 48,55.63 L48,57.63 C48,58.1822847 47.5522847,58.63 47,58.63 L47,58.63 C46.4477153,58.63 46,58.1822847 46,57.63 Z M56,64.63 L58,64.63 C58.5522847,64.63 59,65.0777153 59,65.63 C59,66.1822847 58.5522847,66.63 58,66.63 L56,66.63 C55.4477153,66.63 55,66.1822847 55,65.63 C55,65.0777153 55.4477153,64.63 56,64.63 Z M52.36,60.28 C52.1706873,60.0922334 52.0642017,59.8366375 52.0642017,59.57 C52.0642017,59.3033625 52.1706873,59.0477666 52.36,58.86 L53.78,57.45 C54.1721222,57.0606393 54.8056392,57.0628779 55.195,57.455 C55.5843607,57.8471222 55.5821221,58.4806392 55.19,58.87 L53.77,60.28 C53.3799625,60.6677236 52.7500375,60.6677236 52.36,60.28 Z M38.93,58.84 C38.5406393,58.4478778 38.5428778,57.8143607 38.935,57.425 C39.3271222,57.0356393 39.9606393,57.0378778 40.35,57.43 L41.76,58.85 C42.0118722,59.1036586 42.1092866,59.472421 42.0155479,59.817378 C41.9218093,60.1623351 41.6511588,60.4310796 41.3055479,60.522378 C40.959937,60.6136765 40.5918722,60.5136586 40.34,60.26 L38.93,58.84 Z M41,71.63 L40,71.63 C39.4477153,71.63 39,72.0777153 39,72.63 C39,73.1822847 39.4477153,73.63 40,73.63 L43,73.63 L43,80.63 C43,81.1822847 43.4477153,81.63 44,81.63 C44.5522847,81.63 45,81.1822847 45,80.63 L45,73.63 L49,73.63 L49,78.63 C49,79.1822847 49.4477153,79.63 50,79.63 C50.5522847,79.63 51,79.1822847 51,78.63 L51,73.63 L54,73.63 C54.5522847,73.63 55,73.1822847 55,72.63 C55,72.0777153 54.5522847,71.63 54,71.63 L53,71.63 L53,66.9999998 C53,64.8564064 51.8564065,62.8756442 50,61.8038474 C48.1435936,60.7320506 45.8564064,60.7320506 44,61.8038474 C42.1435935,62.8756442 41,64.8564064 41,66.9999998 L41,71.63 Z M43,67 C43,64.790861 44.790861,63 47,63 C49.209139,63 51,64.790861 51,67 L51,71.67 L43,71.67 L43,67 Z M35,65.68 C35,65.1277153 35.4477153,64.68 36,64.68 L38,64.68 C38.5522847,64.68 39,65.1277153 39,65.68 C39,66.2322847 38.5522847,66.68 38,66.68 L36,66.68 C35.7277053,66.6802179 35.4670965,66.5693881 35.2783666,66.373109 C35.0896367,66.17683 34.9891081,65.9120768 35,65.64 L35,65.68 Z" transform="translate(-27 -4)"/>
</svg>
