<svg xmlns="http://www.w3.org/2000/svg" width="45" height="52" viewBox="0 0 45 52">
  <path fill="#EA1B0A" fill-rule="evenodd" d="M33.9,38.84 C31.3491535,35.1076769 31.6443691,30.1228032 34.6179134,26.7176471 C37.5914577,23.312491 42.491124,22.3484427 46.5330564,24.3732478 C50.5749888,26.398053 52.7367144,30.8995039 51.79,35.32 C50.1494441,34.946248 48.4725838,34.755086 46.79,34.75 C42.1719287,34.7356314 37.6649547,36.1656953 33.9,38.84 Z M69.4400125,51.17 L69.4400125,57.17 C69.4400125,59.379139 67.649139,61.17 65.44,61.17 L63.89,61.17 C62.9466967,62.9450715 61.7014202,64.5422739 60.21,65.89 L60.21,69.71 C60.21,71.919139 58.419139,73.7100011 56.21,73.7100011 L52.21,73.7100011 C50.4469647,73.7108345 48.8912801,72.557272 48.38,70.87 C47.86,70.91 47.34,70.93 46.82,70.93 C45.9774844,70.9292979 45.1358389,70.8758601 44.3,70.77 C43.8224649,72.5075963 42.2420208,73.7113542 40.44,73.7100011 L36.44,73.7100011 C34.230861,73.7100011 32.44,71.919139 32.44,69.71 L32.44,64.91 C30.8378271,63.2266935 29.604842,61.2273504 28.82,59.04 C26.5803525,58.5374435 24.9705475,56.5745336 24.9161373,54.279839 C24.861727,51.9851444 26.3766887,49.9481421 28.59,49.34 C30.8,41.96 38.22,36.74 46.83,36.74 C49.507765,36.7402947 52.1600612,37.2598866 54.64,38.27 L57.5,36.72 C58.504179,36.173224 59.7278074,36.2235978 60.6836458,36.8510629 C61.6394843,37.4785279 62.1723269,38.5811986 62.07,39.72 L61.74,43.33 C62.7453455,44.4857398 63.586595,45.774534 64.24,47.16 L65.45,47.16 C66.510867,47.1626489 67.527231,47.5866187 68.2755019,48.3386403 C69.0237727,49.0906619 69.4426555,50.109133 69.4400125,51.17 Z M67.44,51.17 C67.44,50.0654305 66.5445695,49.17 65.44,49.17 L62.9,49.17 C62.1870212,47.2375614 61.0764175,45.4762665 59.64,44 C59.6430279,43.9533824 59.6430279,43.9066176 59.64,43.86 L60.03,39.53 C60.0519536,39.2364581 59.9553396,38.9463638 59.7617674,38.7246014 C59.5681951,38.502839 59.2938162,38.3679123 59,38.35 C58.8176855,38.3524404 58.6388958,38.4005761 58.48,38.49 C57.34,39.11 55.89,39.9 54.78,40.49 L54.78,40.49 C52.3082742,39.3302452 49.6102756,38.7325873 46.88,38.74 C38.55,38.74 31.64,44.12 30.24,51.19 L29.97,51.19 C28.3131458,51.19 26.97,52.5331458 26.97,54.19 C26.97,55.8468542 28.3131458,57.19 29.97,57.19 C30.1064967,57.1996397 30.2435033,57.1996397 30.38,57.19 C31.0620276,59.8667009 32.4908909,62.2943813 34.5,64.19 L34.5,69.81 C34.5,70.9145695 35.3954305,71.81 36.5,71.81 L40.5,71.81 C41.6045695,71.81 42.5,70.9145695 42.5,69.81 L42.5,68.4 C45.0451761,69.0209731 47.6925496,69.099338 50.27,68.63 L50.27,69.72 C50.27,70.8245695 51.1654305,71.72 52.27,71.72 L56.27,71.72 C57.3745695,71.72 58.27,70.8245695 58.27,69.72 L58.27,65 C60.1938793,63.4556588 61.711223,61.4645743 62.69,59.2 L65.51,59.2 C66.6145695,59.2 67.51,58.3045695 67.51,57.2 L67.44,51.17 Z M56,47.34 C54.8954305,47.34 54,48.2354305 54,49.34 C54,50.4445695 54.8954305,51.34 56,51.34 C57.1045695,51.34 58,50.4445695 58,49.34 C58,48.2354305 57.1045695,47.34 56,47.34 Z" transform="translate(-25 -22)"/>
</svg>
