<?xml version="1.0" encoding="UTF-8"?>
<svg width="38px" height="33px" viewBox="0 0 38 33" version="1.1" xmlns="http://www.w3.org/2000/svg" xmlns:xlink="http://www.w3.org/1999/xlink">
    <title>pictograms/no_container/manage_online</title>
    <g id="Symbols" stroke="none" stroke-width="1" fill="none" fill-rule="evenodd">
        <g id="pictograms/Marketing-&amp;-Payment/manage-online" transform="translate(-29.000000, -32.000000)" fill="#39393A">
            <path d="M31,60 L65,60 C66.1045695,60 67,59.1045695 67,58 L67,34 C67,32.8954305 66.1045695,32 65,32 L31,32 C29.8954305,32 29,32.8954305 29,34 L29,58 C29,59.1045695 29.8954305,60 31,60 Z M31,34 L65,34 L65,58 L31,58 L31,34 Z M67,64 C67,64.5522847 66.5522847,65 66,65 L30,65 C29.4477153,65 29,64.5522847 29,64 C29,63.4477153 29.4477153,63 30,63 L66,63 C66.5522847,63 67,63.4477153 67,64 Z M42.31,44 L46.74,48.44 L45.33,49.85 L40.9,45.41 L37.83,48.5 L33.55,36.62 L45.4,40.91 L42.31,44 Z" id="â—-Pictogram"></path>
        </g>
    </g>
</svg>