<svg xmlns="http://www.w3.org/2000/svg" width="65" height="22" viewBox="0 0 65 22">
  <path fill="#EA1B0A" fill-rule="evenodd" d="M27.52,50 C27.52,49.36 27.08,49 26.25,49 L25.6,49 L25.6,47.91 L26.25,47.91 C26.98,47.91 27.41,47.6 27.41,46.97 C27.4205897,46.7235921 27.3223535,46.4849807 27.1413466,46.3174531 C26.9603397,46.1499255 26.714854,46.0704112 26.47,46.1 C25.87,46.1 25.55,46.42 25.55,46.88 L24.25,46.88 C24.25,45.88 24.92,45.01 26.47,45.01 C28.02,45.01 28.75,45.8 28.75,46.92 C28.7654417,47.6385885 28.278615,48.2710472 27.58,48.44 C28.339184,48.6155408 28.8700303,49.3010432 28.85,50.08 C28.85,51.22 27.91,52.01 26.47,52.01 C24.88,52.01 24.16,51.21 24.16,50.11 L25.45,50.11 C25.45,50.61 25.82,50.91 26.45,50.91 C27.08,50.91 27.52,50.57 27.52,50 Z M56.16,61 L21,61 C19.8954305,61 19,60.1045695 19,59 L19,41 C19,39.8954305 19.8954305,39 21,39 L61.56,39 C61.02,39.72 60.46,40.43 59.9,41.13 C57,44.82 54,48.63 54,53 C53.9930176,55.8116636 54.7388315,58.5739372 56.16,61 L56.16,61 Z M30,42 L23,42 L23,55 L30,55 L30,42 Z M40,42 L33,42 L33,55 L40,55 L40,42 Z M47,50.17 L45.29,52.94 L47,52.94 L47,50.17 Z M50,42 L48.32,42 C48.5619656,42.3039152 48.6925443,42.6815346 48.69,43.07 C48.69,44.21 47.75,45 46.31,45 C44.71,45 44,44.2 44,43.1 L45.29,43.1 C45.29,43.6 45.66,43.9 46.29,43.9 C46.92,43.9 47.34,43.56 47.34,43 C47.34,42.4477153 46.8922847,42 46.34,42 L43,42 L43,55 L47,55 L47,54 L44,54 L44,53 L46.93,48.41 L48.24,48.41 L48.24,52.95 L49,52.95 L49,54 L48.23,54 L48.23,55 L50,55 L50,42 Z M36.47,46.11 C36.7285901,46.1011239 36.9777134,46.2078083 37.1497324,46.4010881 C37.3217515,46.5943679 37.3988149,46.8541856 37.36,47.11 C37.2921592,47.787837 36.9619898,48.4122877 36.44,48.85 L34.34,51.09 L34.34,52 L38.76,52 L38.76,50.93 L36.09,50.93 L37.31,49.63 C38.0822919,48.9975004 38.5803067,48.0910419 38.7,47.1 C38.7133487,46.5159672 38.4781004,45.9537308 38.0528086,45.5532318 C37.6275168,45.1527328 37.0521801,44.951638 36.47,45 C35.8585229,44.9245032 35.2463773,45.1350519 34.8107146,45.5707146 C34.3750519,46.0063773 34.1645032,46.6185229 34.24,47.23 L35.55,47.23 C35.55,46.55 35.84,46.11 36.47,46.11 Z M84,53 C84,60.7319865 77.7319865,67 70,67 C62.2680135,67 56,60.7319865 56,53 C56,49.28 58.64,45.9 61.44,42.33 C64.44,38.5 67.54,34.54 67.54,29.96 C67.5372758,29.5878193 67.7414745,29.2449196 68.07,29.07 C68.3918052,28.9125108 68.7732741,28.9392136 69.07,29.14 C77.6,35.12 84,45.37 84,53 Z M82,53 C82,46.47 76.56,37.46 69.38,31.83 C68.69,36.29 65.69,40.13 62.99,43.57 C60.29,47.01 58,50 58,53 C58.0211643,58.2614374 61.4672761,62.8954443 66.5,64.43 C65.2348464,63.720991 64.3923002,62.4422594 64.24,61 C64.24,58.12 67.73,55.36 67.08,52.41 C68.4000384,53.0825804 69.2503455,54.4193244 69.3,55.9 C69.58,58.81 74.15,53.22 72.85,46.62 C72.85,46.62 77.64,50.56 77.37,56.44 C77.19,60.44 76,62.78 74.48,64.12 C79.0193996,62.2932118 81.994956,57.893187 82,53 L82,53 Z" transform="translate(-19 -39)"/>
</svg>
