<svg xmlns="http://www.w3.org/2000/svg" width="61" height="22" viewBox="0 0 61 22">
  <path fill="#EA1B0A" fill-rule="evenodd" d="M64.87,67 C64.6729685,66.9972634 64.478734,66.9529643 64.3,66.87 C63.6849601,66.5935097 63.3625791,65.9105711 63.54,65.26 L67.2,52 L59.38,52 C58.8918705,52.0163531 58.4329723,51.7677832 58.18,51.35 C57.9315971,50.9414621 57.9315971,50.4285379 58.18,50.02 L70.65,29.54 C70.7417638,29.4188258 70.8533326,29.3140188 70.98,29.23 C71.1649718,29.104218 71.3777471,29.0252852 71.6,29 L71.78,29 C72.5287941,29.0163796 73.1256461,29.6310481 73.12,30.38 L73.12,30.74 L70.65,44 L78.65,44 C79.1484466,43.9838434 79.6146293,44.2458303 79.86,44.68 C80.0773587,45.1025926 80.0427067,45.610821 79.77,46 L66,66.4 C65.7443983,66.773072 65.3222248,66.9972349 64.87,67 L64.87,67 Z M26.47,50.91 C25.83,50.91 25.47,50.61 25.47,50.11 L24.16,50.11 C24.16,51.2 24.87,52.01 26.47,52.01 C27.9,52.01 28.85,51.23 28.85,50.08 C28.8700303,49.3010432 28.339184,48.6155408 27.58,48.44 C28.278615,48.2710472 28.7654417,47.6385885 28.75,46.92 C28.75,45.81 27.88,45.01 26.47,45.01 C25.06,45.01 24.25,45.85 24.25,46.89 L25.54,46.89 C25.54,46.43 25.86,46.11 26.46,46.11 C26.704854,46.0804112 26.9503397,46.1599255 27.1313466,46.3274531 C27.3123535,46.4949807 27.4105897,46.7335921 27.4,46.98 C27.4,47.61 26.97,47.92 26.24,47.92 L25.59,47.92 L25.59,49 L26.24,49 C27.07,49 27.51,49.4 27.51,50 C27.51,50.6 27.09,50.91 26.47,50.91 Z M62.65,61 L21,61 C19.8954305,61 19,60.1045695 19,59 L19,41 C19,39.8954305 19.8954305,39 21,39 L62.58,39 L56.48,49.06 C55.8411842,50.0802928 55.8227502,51.3711741 56.4321716,52.409292 C57.041593,53.4474098 58.1777425,54.0604992 59.38,54 L64.57,54 L62.65,61 Z M30,42 L23,42 L23,55 L30,55 L30,42 Z M40,42 L33,42 L33,55 L40,55 L40,42 Z M47,50.17 L45.29,52.94 L47,52.94 L47,50.17 Z M50,42 L48.32,42 C48.5619656,42.3039152 48.6925443,42.6815346 48.69,43.07 C48.69,44.21 47.75,45 46.31,45 C44.71,45 44,44.2 44,43.1 L45.29,43.1 C45.29,43.6 45.66,43.9 46.29,43.9 C46.92,43.9 47.34,43.56 47.34,43 C47.34,42.4477153 46.8922847,42 46.34,42 L43,42 L43,55 L47,55 L47,54 L44,54 L44,53 L46.93,48.41 L48.24,48.41 L48.24,52.95 L49,52.95 L49,54 L48.23,54 L48.23,55 L50,55 L50,42 Z M36.47,46.11 C36.7285901,46.1011239 36.9777134,46.2078083 37.1497324,46.4010881 C37.3217515,46.5943679 37.3988149,46.8541856 37.36,47.11 C37.2921592,47.787837 36.9619898,48.4122877 36.44,48.85 L34.34,51.09 L34.34,52 L38.76,52 L38.76,50.93 L36.09,50.93 L37.31,49.63 C38.0822919,48.9975004 38.5803067,48.0910419 38.7,47.1 C38.7133487,46.5159672 38.4781004,45.9537308 38.0528086,45.5532318 C37.6275168,45.1527328 37.0521801,44.951638 36.47,45 C35.8585229,44.9245032 35.2463773,45.1350519 34.8107146,45.5707146 C34.3750519,46.0063773 34.1645032,46.6185229 34.24,47.23 L35.55,47.23 C35.55,46.55 35.84,46.11 36.47,46.11 Z" transform="translate(-19 -39)"/>
</svg>
