<?xml version="1.0" encoding="UTF-8"?>
<svg width="54px" height="22px" viewBox="0 0 54 22" version="1.1" xmlns="http://www.w3.org/2000/svg" xmlns:xlink="http://www.w3.org/1999/xlink">
    <title>pictograms/no_container/meter_default</title>
    <g id="Symbols" stroke="none" stroke-width="1" fill="none" fill-rule="evenodd">
        <g id="pictograms/home&amp;temperature/meter-default" transform="translate(-19.000000, -39.000000)" fill="#39393A">
            <path d="M71,39 L21,39 C19.8954305,39 19,39.8954305 19,41 L19,59 C19,60.1045695 19.8954305,61 21,61 L71,61 C72.1045695,61 73,60.1045695 73,59 L73,41 C73,39.8954305 72.1045695,39 71,39 Z M30,55 L23,55 L23,42 L30,42 L30,55 Z M40,55 L33,55 L33,42 L40,42 L40,55 Z M47,52.94 L45.29,52.94 L47,50.17 L47,52.94 Z M50,55 L48.23,55 L48.23,54 L49,54 L49,52.94 L48.23,52.94 L48.23,48.41 L46.93,48.41 L44,53 L44,54 L47,54 L47,55 L43,55 L43,42 L46.38,42 C46.9322847,42 47.38,42.4477153 47.38,43 C47.38,43.56 46.95,43.9 46.33,43.9 C45.71,43.9 45.33,43.6 45.33,43.1 L44,43.1 C44,44.19 44.71,45 46.31,45 C47.74,45 48.69,44.22 48.69,43.07 C48.6925443,42.6815346 48.5619656,42.3039152 48.32,42 L50,42 L50,55 Z M27.52,50 C27.52,49.36 27.08,49 26.25,49 L25.6,49 L25.6,47.91 L26.25,47.91 C26.98,47.91 27.41,47.6 27.41,46.97 C27.4205897,46.7235921 27.3223535,46.4849807 27.1413466,46.3174531 C26.9603397,46.1499255 26.714854,46.0704112 26.47,46.1 C25.87,46.1 25.55,46.42 25.55,46.88 L24.25,46.88 C24.25,45.88 24.92,45.01 26.47,45.01 C28.02,45.01 28.75,45.8 28.75,46.92 C28.7654417,47.6385885 28.278615,48.2710472 27.58,48.44 C28.339184,48.6155408 28.8700303,49.3010432 28.85,50.08 C28.85,51.22 27.91,52.01 26.47,52.01 C24.88,52.01 24.16,51.21 24.16,50.11 L25.45,50.11 C25.45,50.61 25.82,50.91 26.45,50.91 C27.08,50.91 27.52,50.57 27.52,50 Z M35.52,47.23 L34.24,47.23 C34.1645032,46.6185229 34.3750519,46.0063773 34.8107146,45.5707146 C35.2463773,45.1350519 35.8585229,44.9245032 36.47,45 C37.0521801,44.951638 37.6275168,45.1527328 38.0528086,45.5532318 C38.4781004,45.9537308 38.7133487,46.5159672 38.7,47.1 C38.5803067,48.0910419 38.0822919,48.9975004 37.31,49.63 L36.09,50.93 L38.76,50.93 L38.76,52 L34.34,52 L34.34,51.08 L36.44,48.84 C36.9619898,48.4022877 37.2921592,47.777837 37.36,47.1 C37.3988149,46.8441856 37.3217515,46.5843679 37.1497324,46.3910881 C36.9777134,46.1978083 36.7285901,46.0911239 36.47,46.1 C35.84,46.11 35.55,46.55 35.55,47.23 L35.52,47.23 Z" id="â—-Pictogram"></path>
        </g>
    </g>
</svg>