<?xml version="1.0" encoding="UTF-8"?>
<svg width="76px" height="73px" viewBox="0 0 76 73" version="1.1" xmlns="http://www.w3.org/2000/svg" xmlns:xlink="http://www.w3.org/1999/xlink">
    <title>pictograms/no_container/p2p_sharing</title>
    <g id="Symbols" stroke="none" stroke-width="1" fill="none" fill-rule="evenodd">
        <g id="pictograms/e_world/p2p-sharing" transform="translate(-10.000000, -10.000000)" fill="#39393A">
            <path d="M37,54 C36.8116463,53.4025837 36.2563993,52.9972939 35.63,52.9997595 L16.39,52.9997595 C15.7562442,52.9884279 15.1904961,53.395441 15,54 L10,69.17 C9.86536661,69.5948588 9.93952653,70.0583583 10.2,70.42 C10.4738291,70.7917192 10.9083109,71.0108168 11.37,71.01 L14,71.01 L14,81 C14,82.1045695 14.8954305,83 16,83 L36,83 C37.1045695,83 38,82.1045695 38,81 L38,71 L40.57,71 C41.0354998,71.0136019 41.4788392,70.8012461 41.76,70.43 C42.0094929,70.0860024 42.0765498,69.6423838 41.94,69.24 L37,54 Z M32,81 L29,81 L29,75 L32,75 L32,81 Z M36,81 L34,81 L34,73 L27,73 L27,81 L16,81 L16,71 L36,71 L36,81 Z M12.22,69 L16.8,55 L35.21,55 L39.76,69 L12.22,69 Z M33.43,28 L36,28 L36,38 C36,39.1045695 36.8954305,40 38,40 L58,40 C59.1045695,40 60,39.1045695 60,38 L60,28 L62.54,28 C63.0054998,28.0136019 63.4488392,27.8012461 63.73,27.43 C63.9794929,27.0860024 64.0465498,26.6423838 63.91,26.24 L59,11 C58.8116463,10.4025837 58.2563993,9.99729392 57.63,9.99975948 L38.39,9.99975948 C37.7562442,9.98842795 37.1904961,10.395441 37,11 L32,26.17 C31.8653666,26.5948588 31.9395265,27.0583583 32.2,27.42 C32.4882991,27.8055271 32.9491403,28.0228343 33.43,28 Z M54,38 L51,38 L51,32 L54,32 L54,38 Z M58,38 L56,38 L56,30 L49,30 L49,38 L38,38 L38,28 L58,28 L58,38 Z M38.79,12 L57.2,12 L61.75,26 L34.22,26 L38.79,12 Z M85.94,69.24 L81,54 C80.8116463,53.4025837 80.2563993,52.9972939 79.63,52.9997595 L60.39,52.9997595 C59.7562442,52.9884279 59.1904961,53.395441 59,54 L54,69.17 C53.8653666,69.5948588 53.9395265,70.0583583 54.2,70.42 C54.4738291,70.7917192 54.9083109,71.0108168 55.37,71.01 L58,71.01 L58,81 C58,82.1045695 58.8954305,83 60,83 L80,83 C81.1045695,83 82,82.1045695 82,81 L82,71 L84.54,71 C85.0054998,71.0136019 85.4488392,70.8012461 85.73,70.43 C85.9896948,70.0912363 86.0680558,69.6471903 85.94,69.24 Z M76,81 L73,81 L73,75 L76,75 L76,81 Z M80,81 L78,81 L78,73 L71,73 L71,81 L60,81 L60,71 L80,71 L80,81 Z M56.23,69 L60.8,55 L79.21,55 L83.76,69 L56.23,69 Z M46.39,43.11 C46.7777236,43.5000375 46.7777236,44.1299625 46.39,44.52 L40,50.89 C39.6032397,51.2297768 39.0118058,51.2069323 38.6424368,50.8375632 C38.2730677,50.4681942 38.2502232,49.8767603 38.59,49.48 L45,43.11 C45.3875966,42.7353463 46.0024034,42.7353463 46.39,43.11 Z M51.03,43.11 L57.39,49.47 C57.6935067,49.7060444 57.8348019,50.0951963 57.7534408,50.4709803 C57.6720796,50.8467644 57.3824729,51.1426216 57.0085116,51.2319871 C56.6345503,51.3213526 56.2424704,51.188398 56,50.89 L49.64,44.53 C49.3589772,44.1387729 49.3968018,43.6027965 49.7299844,43.2549146 C50.063167,42.9070328 50.5970124,42.8461186 51,43.11 L51.03,43.11 Z M53.5,55 L42.5,55 C41.9477153,55 41.5,54.5522847 41.5,54 C41.5,53.4477153 41.9477153,53 42.5,53 L53.5,53 C54.0522847,53 54.5,53.4477153 54.5,54 C54.5,54.5522847 54.0522847,55 53.5,55 Z" id="â—-Pictogram"></path>
        </g>
    </g>
</svg>