<?xml version="1.0" encoding="UTF-8"?>
<svg width="48px" height="47px" viewBox="0 0 48 47" version="1.1" xmlns="http://www.w3.org/2000/svg" xmlns:xlink="http://www.w3.org/1999/xlink">
    <title>pictograms/no_container/quote</title>
    <g id="Symbols" stroke="none" stroke-width="1" fill="none" fill-rule="evenodd">
        <g id="pictograms/Weather-&amp;-More/quote" transform="translate(-24.000000, -26.000000)" fill="#39393A">
            <path d="M66,26 L30,26 C26.6862915,26 24,28.6862915 24,32 L24,54.4090909 L24.0041385,54.6340292 C24.1224282,57.843516 26.7616031,60.4090909 30,60.4090909 L41.024,60.409 L55.9986416,71.8463983 C56.2601389,72.0461146 56.5800507,72.1543068 56.9090909,72.1543068 L57.0535509,72.1474402 C57.8142028,72.0747555 58.4090909,71.4340029 58.4090909,70.6543068 L58.409,60.409 L66,60.4090909 C69.3137085,60.4090909 72,57.7227994 72,54.4090909 L72,32 C72,28.6862915 69.3137085,26 66,26 Z M30,28 L66,28 C68.209139,28 70,29.790861 70,32 L70,54.4090909 C70,56.6182299 68.209139,58.4090909 66,58.4090909 L57.4090909,58.4090909 L57.2924698,58.4158186 C56.7951311,58.4735837 56.4090909,58.8962551 56.4090909,59.4090909 L56.409,69.643 L41.9684306,58.6143633 C41.794099,58.4812191 41.5808245,58.4090909 41.3614644,58.4090909 L30,58.4090909 C27.790861,58.4090909 26,56.6182299 26,54.4090909 L26,32 C26,29.790861 27.790861,28 30,28 Z M44.5,36 C45.3284271,36 46,36.6715729 46,37.5 L46,44.6300759 C46,44.8687872 45.9146078,45.0996242 45.7592566,45.2808673 L40.1496608,51.8253957 L40.1496608,51.8253957 C40.0546697,51.9362186 39.915995,52 39.7700325,52 L38.3791348,52 C38.2410636,52 38.1291348,51.8880712 38.1291348,51.75 C38.1291348,51.7161433 38.1360117,51.6826394 38.1493485,51.6515202 L40.8506515,45.3484798 C40.9050404,45.2215724 40.8462525,45.0746026 40.7193451,45.0202137 C40.6882259,45.0068769 40.6547219,45 40.6208652,45 L39.5,45 L39.5,45 C38.6715729,45 38,44.3284271 38,43.5 L38,37.5 C38,36.6715729 38.6715729,36 39.5,36 M56.5,36 C57.3284271,36 58,36.6715729 58,37.5 L58,44.6300759 C58,44.8687872 57.9146078,45.0996242 57.7592566,45.2808673 L52.1496608,51.8253957 L52.1496608,51.8253957 C52.0546697,51.9362186 51.915995,52 51.7700325,52 L50.3791348,52 C50.2410636,52 50.1291348,51.8880712 50.1291348,51.75 C50.1291348,51.7161433 50.1360117,51.6826394 50.1493485,51.6515202 L52.8506515,45.3484798 C52.9050404,45.2215724 52.8462525,45.0746026 52.7193451,45.0202137 C52.6882259,45.0068769 52.6547219,45 52.6208652,45 L51.5,45 L51.5,45 C50.6715729,45 50,44.3284271 50,43.5 L50,37.5 C50,36.6715729 50.6715729,36 51.5,36" id="â—-Pictogram"></path>
        </g>
    </g>
</svg>