<svg xmlns="http://www.w3.org/2000/svg" width="40" height="73" viewBox="0 0 40 73">
  <path fill="#EA1B0A" fill-rule="evenodd" d="M64,90 L60,90 L60,57.94 C60,56.25 58.65,55.34 57.08,55.08 L57.08,27.53 C57,22.27 53.47,19 47.92,19 L27.44,19 C26,19 25,20.27 25,22 C25,23.73 26,25 27.45,25 L31,25 L31,27.5 C31,29.9852814 33.0147186,32 35.5,32 C37.9852814,32 40,29.9852814 40,27.5 L40,25 L43.63,25 C44.3900584,25.0139082 45.103917,24.6362053 45.52,24 C45.858946,23.4368173 46.0257939,22.7868058 46,22.13 C46.0074573,21.7485845 45.9603131,21.3680634 45.86,21 L47.92,21 C52.38,21 54.99,23.4 55.08,27.55 L55.08,47.69 C54.4416291,47.2564648 53.6914835,47.0168349 52.92,47 L48.56,47 L49.73,46.5 C50.7455652,46.0685898 51.2198863,44.8962112 50.79,43.88 L48.79,39.28 C48.3585898,38.2644348 47.1862112,37.7901137 46.17,38.22 L38.5,41.47 C37.5754377,41.8686605 37.0913773,42.8924696 37.37,43.86 L35.57,44.15 C35.0151793,44.2448768 34.529424,44.5772357 34.24,45.06 C33.995923,45.5407973 33.995923,46.1092027 34.24,46.59 L35.42,49.36 C35.6131988,49.8701617 36.035706,50.2593131 36.56,50.41 C36.6967403,50.4484395 36.8379662,50.4686146 36.98,50.47 C37.4091406,50.4575802 37.8242819,50.3145483 38.17,50.06 L39.59,49 C40.1140991,49.8263539 41.159163,50.1521431 42.06,49.77 L43.84,49 L53,49 C53.4670017,49.0282545 53.9093194,49.2193357 54.25,49.54 C54.8183323,50.2270213 55.0883755,51.1127629 55,52 L55,55.08 C53.41,55.33 52,56.24 52,57.94 L52,90 L48,90 C47.4477153,90 47,90.4477153 47,91 C47,91.5522847 47.4477153,92 48,92 L64,92 C64.5522847,92 65,91.5522847 65,91 C65,90.4477153 64.5522847,90 64,90 Z M38,27.5 C38,28.8807119 36.8807119,30 35.5,30 C34.1192881,30 33,28.8807119 33,27.5 L33,25 L38,25 L38,27.5 Z M43.85,22.87 C43.8119291,22.9558469 43.7235632,23.0080631 43.63,23 L27.46,23 C27.15,23 27.01,22.41 27.01,22 C27.01,21.59 27.22,21 27.45,21 L43.52,21 C43.78,21 44.03,21.55 44.03,22.13 C44.0384996,22.388455 43.976261,22.6443246 43.85,22.87 Z M37.17,48.32 L36.22,46.09 L38.22,45.77 L38.79,47.11 L37.17,48.32 Z M41.28,47.92 L39.28,43.32 L47,40.06 L49,44.66 L41.28,47.92 Z M54,57.94 C54,57 55.82,57 55.9,57 L56.13,57 C56.21,57 58.01,57 58.01,57.94 L58.01,90 L54,90 L54,57.94 Z" transform="translate(-25 -19)"/>
</svg>
