<svg xmlns="http://www.w3.org/2000/svg" width="50" height="50" viewBox="0 0 50 50">
  <path fill="#EA1B0A" fill-rule="evenodd" d="M24,23 C24.552,23 25,23.447 25,24 L25,71 L72,71 C72.553,71 73,71.447 73,72 C73,72.553 72.553,73 72,73 L24,73 C23.448,73 23,72.553 23,72 L23,24 C23,23.447 23.448,23 24,23 Z M28,36.0003 L35.999,48.0003 L44,46.0303 L52,60.0713 L60,54.0533 L68,64.0713 L68,68.0003 L28,68.0003 L28,36.0003 Z M63.5,25.698 C63.754,25.799 63.902,26.063 63.855,26.332 L62.587,33.517 L67.248,33.517 C67.535,33.517 67.798,33.676 67.93,33.931 C68.062,34.186 68.04,34.492 67.874,34.727 L60.304,45.414 C60.142,45.643 59.84,45.722 59.586,45.603 C59.334,45.481 59.204,45.198 59.279,44.929 L61.378,37.374 L56.752,37.374 C56.471,37.374 56.211,37.22 56.077,36.972 C55.942,36.725 55.956,36.424 56.109,36.187 L62.808,25.918 C62.956,25.69 63.246,25.598 63.5,25.698 Z" transform="translate(-23 -23)"/>
</svg>
