<?xml version="1.0" encoding="UTF-8"?>
<svg width="51px" height="38px" viewBox="0 0 51 38" version="1.1" xmlns="http://www.w3.org/2000/svg" xmlns:xlink="http://www.w3.org/1999/xlink">
    <title>pictograms/no_container/serious_injuries</title>
    <g id="Symbols" stroke="none" stroke-width="1" fill="none" fill-rule="evenodd">
        <g id="pictograms/Weather-&amp;-More/serious-injuries" transform="translate(-20.000000, -28.000000)" fill="#39393A">
            <path d="M70.1,41.09 C68.75,52.89 54.44,65.83 49,65.83 C45.52,65.83 39.43,60.62 35.22,55.47 C34.8692992,55.0419793 34.9319793,54.4107008 35.36,54.06 C35.7880207,53.7092992 36.4192992,53.7719793 36.77,54.2 C41.63,60.15 46.9,63.83 49,63.83 C53.13,63.83 66.85,51.89 68.11,40.83 C68.56,36.83 67.9,31.76 62.11,30.18 C57,28.81 49.7,34.55 49.62,34.61 C49.2546672,34.9025003 48.7353328,34.9025003 48.37,34.61 C48.3,34.55 40.97,28.81 35.83,30.21 C30.06,31.79 29.4,36.87 29.83,40.86 C30.0381035,42.5805136 30.4857714,44.2634757 31.16,45.86 L37.3,45.86 L40.04,39.47 C40.2101412,39.0762182 40.612479,38.8348155 41.04,38.87 C41.4551321,38.8856436 41.8173581,39.156318 41.95,39.55 L45.33,49.69 L49.19,44.29 C49.3766758,44.0278044 49.6781426,43.8714883 50,43.87 L56,43.87 C56.5522847,43.87 57,44.3177153 57,44.87 C57,45.4222847 56.5522847,45.87 56,45.87 L50.51,45.87 L45.81,52.45 C45.6233242,52.7121956 45.3218574,52.8685117 45,52.87 L44.85,52.87 C44.4787111,52.8145348 44.1697649,52.5557923 44.05,52.2 L40.88,42.7 L38.88,47.28 C38.7235008,47.6495049 38.3612802,47.889673 37.96,47.89 L21,47.89 C20.4477153,47.89 20,47.4422847 20,46.89 C20,46.3377153 20.4477153,45.89 21,45.89 L29,45.89 C28.4178904,44.3637096 28.0249635,42.7718518 27.83,41.15 C27.06,34.42 29.7,29.87 35.26,28.35 C40.51,26.86 47,31.11 49,32.58 C51,31.11 57.46,26.86 62.66,28.29 C68.23,29.82 70.87,34.36 70.1,41.09 Z" id="â—-Pictogram"></path>
        </g>
    </g>
</svg>