<?xml version="1.0" encoding="UTF-8"?>
<svg width="64px" height="34px" viewBox="0 0 64 34" version="1.1" xmlns="http://www.w3.org/2000/svg" xmlns:xlink="http://www.w3.org/1999/xlink">
    <title>pictograms/no_container/sleep</title>
    <g id="Symbols" stroke="none" stroke-width="1" fill="none" fill-rule="evenodd">
        <g id="pictograms/home&amp;temperature/sleep" transform="translate(-16.000000, -31.000000)" fill="#39393A">
            <path d="M23.08,30.79 L23.08,52.96 L79.56,52.96 L79.56,65.21 L72.92,65.21 L72.92,59.41 L23.08,59.41 L23.08,65.21 L16.44,65.21 L16.44,30.79 L23.08,30.79 Z M45.11,49.45 L45.11,35.83 L55.8948224,35.7868837 C60.9250567,35.7751247 66.1880952,35.777619 67.95,35.83 C75.0020548,36.0371233 80.3030869,42.1879959 79.4779382,49.1590773 L79.44,49.45 L45.11,49.45 Z M34,35.78 C37.91,35.74 40.94,38.72 40.9300492,42.62 C40.92,46.41 37.99,49.39 34.22,49.45 C30.38,49.51 27.24,46.42 27.2598109,42.59 C27.28,38.81 30.24,35.83 34,35.78 Z" id="â—-Pictogram"></path>
        </g>
    </g>
</svg>