<?xml version="1.0" encoding="UTF-8"?>
<svg width="62px" height="63px" viewBox="0 0 62 63" version="1.1" xmlns="http://www.w3.org/2000/svg" xmlns:xlink="http://www.w3.org/1999/xlink">
    <title>pictograms/no_container/smartconnect_connected_heating</title>
    <g id="Symbols" stroke="none" stroke-width="1" fill="none" fill-rule="evenodd">
        <g id="pictograms/e_world/smartconnect-connected-heating" transform="translate(-20.000000, -13.000000)" fill="#39393A">
            <path d="M64.93,31.4 C64.6655615,30.5589513 63.8815871,29.9902652 63,29.9998769 L29,29.9998769 C28.1220946,29.9946842 27.3433603,30.5625112 27.08,31.4 L20.08,55.4 C19.9033039,56.0140055 20.0215143,56.6752449 20.4,57.19 C20.7756094,57.6973822 21.3687206,57.9976448 22,58 L26,58 L26,73 C26,74.6568542 27.3431458,76 29,76 L63,76 C64.6568542,76 66,74.6568542 66,73 L66,58 L70,58 C70.636637,57.9906447 71.2307794,57.6787199 71.6,57.16 C71.977351,56.6409457 72.0953309,55.9773088 71.92,55.36 L64.93,31.4 Z M58,74 L52,74 L52,63 L58,63 L58,74 Z M64,73 C64,73.5522847 63.5522847,74 63,74 L60,74 L60,61 L50,61 L50,74 L29,74 C28.4477153,74 28,73.5522847 28,73 L28,58 L64,58 L64,73 Z M65,56 L22,56 L29,32 L63,32 L70,56 L65,56 Z M42,61 L32,61 L32,71 L42,71 L42,61 Z M40,69 L34,69 L34,63 L40,63 L40,69 Z M72,31 C72,31.5522847 71.5522847,32 71,32 C70.4477153,32 70,31.5522847 70,31 C70,27.6862915 67.3137085,25 64,25 C63.4477153,25 63,24.5522847 63,24 C63,23.4477153 63.4477153,23 64,23 C68.418278,23 72,26.581722 72,31 Z M82,31 C82,31.5522847 81.5522847,32 81,32 C80.4477153,32 80,31.5522847 80,31 C80,22.163444 72.836556,15 64,15 C63.4477153,15 63,14.5522847 63,14 C63,13.4477153 63.4477153,13 64,13 C73.9411255,13 82,21.0588745 82,31 Z M77,31 C77,31.5522847 76.5522847,32 76,32 C75.4477153,32 75,31.5522847 75,31 C75,24.9248678 70.0751322,20 64,20 C63.4477153,20 63,19.5522847 63,19 C63,18.4477153 63.4477153,18 64,18 C71.1797017,18 77,23.8202983 77,31 Z" id="â—-Pictogram"></path>
        </g>
    </g>
</svg>