<?xml version="1.0" encoding="UTF-8"?>
<svg width="81px" height="64px" viewBox="0 0 81 64" version="1.1" xmlns="http://www.w3.org/2000/svg" xmlns:xlink="http://www.w3.org/1999/xlink">
    <title>pictograms/no_container/smartmeter_metering</title>
    <g id="Symbols" stroke="none" stroke-width="1" fill="none" fill-rule="evenodd">
        <g id="pictograms/e_world/smartmeter-metering" transform="translate(-9.000000, -8.000000)" fill="#39393A">
            <path d="M67.67,62.63 C68.1108166,63.1262417 68.1108166,63.8737583 67.67,64.37 C66.8319273,65.3104562 65.8775972,66.1404546 64.83,66.84 C64.3692618,67.1326417 63.7589759,67.0017756 63.458734,66.5459537 C63.158492,66.0901318 63.2792197,65.4777596 63.73,65.17 C64.4526297,64.6840018 65.1228848,64.1243389 65.73,63.5 C65.1213854,62.8802384 64.4512649,62.3240383 63.73,61.84 C63.4316832,61.6417176 63.2618095,61.299347 63.2843687,60.9418559 C63.306928,60.5843648 63.5184928,60.2660646 63.8393688,60.1068559 C64.1602448,59.9476472 64.5416832,59.9717176 64.84,60.17 C65.8825161,60.8683996 66.8332763,61.6948555 67.67,62.63 L67.67,62.63 Z M59.56,60.45 C59.4132684,60.2279797 59.1840911,60.0736048 58.9232053,60.0210523 C58.6623195,59.9684998 58.3912469,60.0221048 58.17,60.17 C57.123382,60.8708265 56.1692055,61.7006912 55.33,62.64 C54.884628,63.1345016 54.884628,63.8854984 55.33,64.38 C56.1691469,65.3164755 57.1233883,66.1430367 58.17,66.84 C58.6307382,67.1326417 59.2410241,67.0017756 59.541266,66.5459537 C59.841508,66.0901318 59.7207803,65.4777596 59.27,65.17 C58.5489831,64.68563 57.8788949,64.1294568 57.27,63.51 C57.8776493,62.8862375 58.5478421,62.3266264 59.27,61.84 C59.4936491,61.6948538 59.6500754,61.4664056 59.7045287,61.2054053 C59.758982,60.9444049 59.706953,60.6724661 59.56,60.45 Z M63.33,34.28 L61.64,37 L63.34,37 L63.33,34.28 Z M39,38.14 L39,47.24 C39.9880959,47.4635747 40.9313525,47.8523723 41.79,48.39 L48.22,42 C45.5727032,39.8687125 42.3761104,38.5304426 39,38.14 Z M45.77,54 L54.87,54 C54.4766622,50.6228481 53.1348836,47.426156 51,44.78 L44.57,51.21 C45.1251627,52.065306 45.5309391,53.0087362 45.77,54 Z M15,29 L69,29 L69,57 L15,57 L15,29 Z M59.83,38.4 L63.33,38.4 L63.33,39.87 L65.08,39.87 L65.08,38.4 L65.89,38.4 L65.89,37 L65.08,37 L65.08,32 L63.23,32 L59.83,37.16 L59.83,38.4 Z M56.75,37.33 C56.75,38.06 56.44,38.53 55.75,38.53 C55.18,38.53 54.75,38.25 54.75,37.71 L53,37.71 C53,39 53.85,40 55.71,40 C56.4520549,40.0784886 57.1917481,39.8318547 57.7382129,39.3237384 C58.2846776,38.815622 58.584385,38.0957957 58.56,37.35 C58.63542,36.6622213 58.4025955,35.9763265 57.9240747,35.476581 C57.4455539,34.9768355 56.7704026,34.7144814 56.08,34.76 C55.7356426,34.7592369 55.394961,34.83078 55.08,34.97 L55.26,33.42 L58.18,33.42 L58.18,32 L53.87,32 L53.36,36.33 L54.73,36.57 C55.009197,36.3347609 55.3650443,36.2102144 55.73,36.22 C56.0188815,36.2124558 56.2969025,36.3302499 56.4924337,36.5430339 C56.6879649,36.7558178 56.7818863,37.0427845 56.75,37.33 Z M51.11,43.33 L43.31,51.1 C44.1895714,52.2314322 44.7490664,53.5783644 44.93,55 L55.93,55 C55.7139514,50.6653285 54.0118724,46.5372574 51.11,43.31 L51.11,43.33 Z M38,48.07 C39.4224036,48.2480423 40.7700744,48.8078441 41.9,49.69 L49.69,41.9 C46.4669479,38.9872246 42.3384312,37.2743669 38,37.05 L38,48.07 Z M24.31,41.89 L32.1,49.68 C33.2310097,48.8014286 34.5785909,48.2451195 36,48.07 L36,37.07 C31.6653285,37.2860486 27.5372574,38.9881276 24.31,41.89 Z M18.05,55 L29.05,55 C29.2309336,53.5783644 29.7904286,52.2314322 30.67,51.1 L22.88,43.31 C19.9744939,46.5358568 18.2688224,50.6640762 18.05,55 L18.05,55 Z M75,29 L75,66 C75,69.3137085 72.3137085,72 69,72 L15,72 C11.6862915,72 9,69.3137085 9,66 L9,29 C9,25.6862915 11.6862915,23 15,23 L69,23 C72.3137085,23 75,25.6862915 75,29 Z M73,29 C73,26.790861 71.209139,25 69,25 L15,25 C12.790861,25 11,26.790861 11,29 L11,66 C11,68.209139 12.790861,70 15,70 L69,70 C71.209139,70 73,68.209139 73,66 L73,29 Z M72,18 C71.4477153,18 71,18.4477153 71,19 C71,19.5522847 71.4477153,20 72,20 C75.3137085,20 78,22.6862915 78,26 C78,26.5522847 78.4477153,27 79,27 C79.5522847,27 80,26.5522847 80,26 C80,21.581722 76.418278,18 72,18 Z M72,8 C71.4477153,8 71,8.44771525 71,9 C71,9.55228475 71.4477153,10 72,10 C80.836556,10 88,17.163444 88,26 C88,26.5522847 88.4477153,27 89,27 C89.5522847,27 90,26.5522847 90,26 C90,16.0588745 81.9411255,8 72,8 Z M72,13 C71.4477153,13 71,13.4477153 71,14 C71,14.5522847 71.4477153,15 72,15 C78.0751322,15 83,19.9248678 83,26 C83,26.5522847 83.4477153,27 84,27 C84.5522847,27 85,26.5522847 85,26 C85,18.8202983 79.1797017,13 72,13 Z" id="â—-Pictogram"></path>
        </g>
    </g>
</svg>