<svg xmlns="http://www.w3.org/2000/svg" width="36" height="48" viewBox="0 0 36 48">
  <path fill="#EA1B0A" fill-rule="evenodd" d="M62,62 L34,62 L34,28 L62,28 L62,62 Z M62,26 L34,26 C32.8954305,26 32,26.8954305 32,28 L32,68 C32,69.1045695 32.8954305,70 34,70 L62,70 C63.1045695,70 64,69.1045695 64,68 L64,28 C64,26.8954305 63.1045695,26 62,26 L62,26 Z M62,24 C64.209139,24 66,25.790861 66,28 L66,68 C66,70.209139 64.209139,72 62,72 L34,72 C31.790861,72 30,70.209139 30,68 L30,28 C30,25.790861 31.790861,24 34,24 L62,24 Z M50,66 C50,64.8954305 49.1045695,64 48,64 C46.8954305,64 46,64.8954305 46,66 C46,67.1045695 46.8954305,68 48,68 C49.1045695,68 50,67.1045695 50,66 Z" transform="translate(-30 -24)"/>
</svg>
