<svg xmlns="http://www.w3.org/2000/svg" width="62" height="44" viewBox="0 0 62 44">
  <path fill="#EA1B0A" fill-rule="evenodd" d="M45.5144853,72.1 C44.5305315,71.1556635 43.9560857,69.8631603 43.9144853,68.5 C43.8453855,67.125497 44.352799,65.7844758 45.3144853,64.8 C45.6588297,64.5417418 45.7992827,64.0921144 45.6631686,63.6837722 C45.5270546,63.2754301 45.1449157,63 44.7144853,63 C43.7144853,63 42.7144853,65.2 42.6144853,65.5 C41.4122999,68.2528428 42.0062544,71.4601973 44.1144853,73.6 C45.2832984,74.6811414 45.9376678,76.2080033 45.9144853,77.8 C45.8263841,79.1659599 45.1743499,80.4338041 44.1144853,81.3 C43.7762945,81.6749315 43.7706598,82.2431539 44.1013489,82.6247183 C44.432038,83.0062826 44.9952925,83.0814677 45.4144853,82.8 C46.8167108,81.5256008 47.7056533,79.7832735 47.9144853,77.9 L47.9144853,77.5 C47.7701292,75.5893597 47.0057636,73.7814348 45.7425576,72.3488562 L45.5144853,72.1 Z M50.6144853,63 C51.0449157,63 51.4270546,63.2754301 51.5631686,63.6837722 C51.6992827,64.0921144 51.5588297,64.5417418 51.2144853,64.8 C50.2584045,65.828465 49.7541791,67.1970766 49.8144853,68.6 C49.9251246,69.917088 50.490833,71.1545751 51.4144853,72.1 C52.7049584,73.4607905 53.5242403,75.1962448 53.7576206,77.0509147 L53.7944853,77.4 L53.7944853,77.8 C53.5856533,79.6832735 52.6967108,81.4256008 51.2944853,82.7 C50.8752925,82.9814677 50.312038,82.9062826 49.9813489,82.5247183 C49.6506598,82.1431539 49.6562945,81.5749315 49.9944853,81.2 C51.0543499,80.3338041 51.7063841,79.0659599 51.7944853,77.7 C51.8176678,76.1080033 51.1632984,74.5811414 49.9944853,73.5 C47.9099368,71.4482817 47.2891979,68.3433993 48.4014309,65.6584713 L48.5144853,65.4 C48.6144853,65.2 49.6144853,63 50.6144853,63 Z M68,39 C69.5976809,39 70.9036609,40.24892 70.9949073,41.8237272 L71,42 L71,46 C71,47.5976809 69.75108,48.9036609 68.1762728,48.9949073 L68,49 L64.75,49 L63.31,54.06 C62.9916128,55.1455028 62.033375,55.9111 60.9174404,55.9928312 L60.74,56 L35.26,56 C34.135452,55.9871369 33.1438382,55.279855 32.758524,54.2368765 L32.7,54.06 L31.26,49 L28,49 C26.4023191,49 25.0963391,47.75108 25.0050927,46.1762728 L25,46 L25,42 C25,40.4023191 26.24892,39.0963391 27.8237272,39.0050927 L28,39 L68,39 Z M39.13,49 L33.33,49 L34.61,53.51 C34.6848298,53.7671545 34.9021484,53.9532843 35.1611271,53.9923798 L35.26,54 L39.85,54 L39.13,49 Z M45.15,49 L41.15,49 L41.87,54 L47,54 L47,50.82 C46.2007421,50.5462976 45.5569182,49.949528 45.2217882,49.1804657 L45.15,49 Z M54.82,49 L50.82,49 C50.5392165,49.7886504 49.9429206,50.4212225 49.1791582,50.7496704 L49,50.82 L49,54 L54.13,54 L54.82,49 Z M62.67,49 L56.87,49 L56.15,54 L60.74,54 C61.0078183,53.9988506 61.24658,53.8411659 61.3554566,53.6029552 L61.39,53.51 L62.67,49 Z M68,41 L28,41 C27.4871642,41 27.0644928,41.3860402 27.0067277,41.8833789 L27,42 L27,46 C27,46.5128358 27.3860402,46.9355072 27.8833789,46.9932723 L28,47 L45.18,47 C45.6106251,45.8135466 46.7378155,45.0235233 48,45.0235233 C49.1990753,45.0235233 50.2763184,45.7365193 50.7502522,46.8250544 L50.82,47 L68,47 C68.5128358,47 68.9355072,46.6139598 68.9932723,46.1166211 L69,46 L69,42 C69,41.4871642 68.6139598,41.0644928 68.1166211,41.0067277 L68,41 Z M68,34 C72.418278,34 76,37.581722 76,42 C76,42.5522847 75.5522847,43 75,43 C74.4477153,43 74,42.5522847 74,42 C74,38.6862915 71.3137085,36 68,36 C67.4477153,36 67,35.5522847 67,35 C67,34.4477153 67.4477153,34 68,34 Z M68,23 C78.4934102,23 87,31.5065898 87,42 C87,42.5522847 86.5522847,43 86,43 C85.4477153,43 85,42.5522847 85,42 C85,32.6111593 77.3888407,25 68,25 C67.4477153,25 67,24.5522847 67,24 C67,23.4477153 67.4477153,23 68,23 Z M68,28.24 C75.5981289,28.2509799 81.7579843,34.4018951 81.78,42 L81.81,42 C81.81,42.5522847 81.3622847,43 80.81,43 C80.2577153,43 79.81,42.5522847 79.81,42 C79.7934507,35.4924672 74.5075444,30.2289398 68,30.24 C67.4477153,30.24 67,29.7922847 67,29.24 C67,28.6877153 67.4477153,28.24 68,28.24 Z" transform="translate(-25 -39)"/>
</svg>
