<svg xmlns="http://www.w3.org/2000/svg" width="38" height="45" viewBox="0 0 38 45">
  <path fill="#EA1B0A" fill-rule="evenodd" d="M62.77,49.38 L51,52.3 C50.8519665,53.753981 49.6777176,54.8897073 48.2196091,54.9891769 C46.7615005,55.0886465 45.4438936,54.1229104 45.0997743,52.7025031 C44.755655,51.2820959 45.4851743,49.8204065 46.8271329,49.2415093 C48.1690915,48.6626122 49.7329318,49.1349869 50.53,50.36 L62.31,47.45 L62.77,49.38 Z M67.0000154,52 C67.0105443,60.326208 61.5987896,67.6892838 53.6491053,70.1648384 C45.6994211,72.6403929 37.0640726,69.6516255 32.3455477,62.7914962 C27.6270229,55.9313669 27.9247315,46.7982763 33.08,40.26 L31.4,38.58 C31.3053437,38.4861167 31.2521008,38.3583188 31.2521008,38.225 C31.2521008,38.0916812 31.3053437,37.9638833 31.4,37.87 L34.77,34.5 C34.8638833,34.4053437 34.9916812,34.3521008 35.125,34.3521008 C35.2583188,34.3521008 35.3861167,34.4053437 35.48,34.5 L37.3,36.3 C39.3565489,34.8937075 41.6709711,33.9081239 44.11,33.4 L44.11,31.33 L43,31.33 C41.8954305,31.33 41,30.4345695 41,29.33 L41,28.33 C41,27.2254305 41.8954305,26.33 43,26.33 L53,26.33 C54.1045695,26.33 55,27.2254305 55,28.33 L55,29.33 C55,30.4345695 54.1045695,31.33 53,31.33 L51.89,31.33 L51.89,33.4 C60.6945244,35.2416214 67.0011722,43.0049337 67.0000154,52 Z M65,52 C65,42.6111593 57.3888407,35 48,35 C38.6111593,35 31,42.6111593 31,52 C31,61.3888407 38.6111593,69 48,69 C57.3888407,69 65,61.3888407 65,52 Z M53.52,47.71 C52.1965262,46.0035594 50.1595162,45.0035056 48,45 L48,47 C49.2132141,47.0069362 50.3825208,47.4547558 51.29,48.26 L53.52,47.71 Z M59.62,46.2 L61.62,45.71 C59.1668878,40.3991542 53.8500292,36.9990192 48,36.9999998 L48,38.9999998 C52.9284048,38.9913356 57.433834,41.7829957 59.62,46.2 L59.62,46.2 Z M55.62,47.2 L57.62,46.7 C55.6901994,43.1903037 52.0052529,41.0069154 48,41 L48,43 C51.0873027,42.9890102 53.9612841,44.5734815 55.6,47.19 L55.62,47.2 Z" transform="translate(-29 -26)"/>
</svg>
