<svg xmlns="http://www.w3.org/2000/svg" width="48" height="36" viewBox="0 0 48 36">
  <path fill="#EA1B0A" fill-rule="evenodd" d="M28,34 L62,34 L62,62 L28,62 L28,34 Z M72,34 L72,62 C72,64.209139 70.209139,66 68,66 L28,66 C25.790861,66 24,64.209139 24,62 L24,34 C24,31.790861 25.790861,30 28,30 L68,30 C70.209139,30 72,31.790861 72,34 Z M70,34 C70,32.8954305 69.1045695,32 68,32 L28,32 C26.8954305,32 26,32.8954305 26,34 L26,62 C26,63.1045695 26.8954305,64 28,64 L68,64 C69.1045695,64 70,63.1045695 70,62 L70,34 Z M66,46 C64.8954305,46 64,46.8954305 64,48 C64,49.1045695 64.8954305,50 66,50 C67.1045695,50 68,49.1045695 68,48 C68,46.8954305 67.1045695,46 66,46 Z" transform="translate(-24 -30)"/>
</svg>
