<svg xmlns="http://www.w3.org/2000/svg" width="34" height="48" viewBox="0 0 34 48">
  <path fill="#EA1B0A" fill-rule="evenodd" d="M62,24 L36,24 C33.790861,24 32,25.790861 32,28 L32,68 C32,70.209139 33.790861,72 36,72 L62,72 C64.209139,72 66,70.209139 66,68 L66,28 C66,25.790861 64.209139,24 62,24 Z M36,30 L62,30 L62,33 L36,33 L36,30 Z M36,37 L62,37 L62,40 L36,40 L36,37 Z M36,44 L62,44 L62,47 L36,47 L36,44 Z M36,51 L62,51 L62,54 L36,54 L36,51 Z M36,58 L62,58 L62,61 L36,61 L36,58 Z M61.5,68.5 C60.6715729,68.5 60,67.8284271 60,67 C60,66.1715729 60.6715729,65.5 61.5,65.5 C62.3284271,65.5 63,66.1715729 63,67 C63,67.8284271 62.3284271,68.5 61.5,68.5 Z" transform="translate(-32 -24)"/>
</svg>
