<svg xmlns="http://www.w3.org/2000/svg" width="31" height="46" viewBox="0 0 31 46">
  <path fill="#EA1B0A" fill-rule="evenodd" d="M65.68,42.62 C65.5557021,41.9603155 65.0396845,41.4442979 64.38,41.32 C62.1468882,40.8930769 59.8531118,40.8930769 57.62,41.32 C56.9603155,41.4442979 56.4442979,41.9603155 56.32,42.62 C55.8930769,44.8531118 55.8930769,47.1468882 56.32,49.38 C56.4442979,50.0396845 56.9603155,50.5557021 57.62,50.68 C59.8531118,51.1069231 62.1468882,51.1069231 64.38,50.68 C65.0396845,50.5557021 65.5557021,50.0396845 65.68,49.38 C66.1069231,47.1468882 66.1069231,44.8531118 65.68,42.62 Z M64,47 L58,47 L58,45 L64,45 L64,47 Z M65.68,29.62 C65.5557021,28.9603155 65.0396845,28.4442979 64.38,28.32 C62.1468882,27.8930769 59.8531118,27.8930769 57.62,28.32 C56.9603155,28.4442979 56.4442979,28.9603155 56.32,29.62 C55.8930769,31.8531118 55.8930769,34.1468882 56.32,36.38 C56.4442979,37.0396845 56.9603155,37.5557021 57.62,37.68 C59.8531118,38.1069231 62.1468882,38.1069231 64.38,37.68 C65.0396845,37.5557021 65.5557021,37.0396845 65.68,36.38 C66.1069231,34.1468882 66.1069231,31.8531118 65.68,29.62 L65.68,29.62 Z M64,34 L62,34 L62,36 L60,36 L60,34 L58,34 L58,32 L60,32 L60,30 L62,30 L62,32 L64,32 L64,34 Z M55,61 C55.0401215,65.8013654 51.6620635,69.9535248 46.9529531,70.891074 C42.2438427,71.8286233 37.5330796,69.2868886 35.7312004,64.8362762 C33.9293211,60.3856639 35.5450031,55.2825985 39.58,52.68 L39.58,30.42 C39.58,27.4266167 42.0066167,25 45,25 C47.9933833,25 50.42,27.4266167 50.42,30.42 L50.42,52.68 C53.2502477,54.5051929 54.9717068,57.6323851 55,61 L55,61 Z M53,61 C52.9878654,57.9305144 51.2032197,55.1444409 48.42,53.85 L48.42,30.42 C48.42,28.5311862 46.8888138,27 45,27 C43.1111862,27 41.58,28.5311862 41.58,30.42 L41.58,53.85 C38.7967803,55.1444409 37.0121346,57.9305144 37,61 C37,65.418278 40.581722,69 45,69 C49.418278,69 53,65.418278 53,61 Z M45.9999984,56 L45.9999984,33 L43.9999984,33 L43.9999984,56 C41.6604074,56.5244877 39.9981262,58.6023392 39.9999984,61 C39.9999984,63.7614237 42.2385763,66 44.9999984,66 C47.7614237,66 49.9999984,63.7614237 49.9999984,61 C50.0018738,58.6023392 48.3395926,56.5244877 45.9999984,56 Z" transform="translate(-35 -25)"/>
</svg>
