<svg xmlns="http://www.w3.org/2000/svg" width="66" height="49" viewBox="0 0 66 49">
  <path fill="#EA1B0A" fill-rule="evenodd" d="M70,34 L74,34 L74,36 L70,36 L70,40 L68,40 L68,36 L64,36 L64,34 L68,34 L68,30 L70,30 L70,34 Z M74,59 L74,57 L64,57 L64,59 L74,59 Z M81,28 L81,65 C81,68.3137085 78.3137085,71 75,71 L21,71 C17.6862915,71 15,68.3137085 15,65 L15,28 C15,24.6862915 17.6862915,22 21,22 L75,22 C78.3137085,22 81,24.6862915 81,28 Z M36,54.23 L29.4,54.23 L32.14,51.32 C34.14,49.24 35.92,47.07 35.92,44.52 C35.92,41.15 33.45,38.73 29.72,38.73 C25.47,38.73 23.5,41.25 23.5,44.95 L27.61,44.95 C27.61,43.25 28.24,42.18 29.72,42.18 C31.04,42.18 31.67,43.18 31.67,44.51 C31.67,46.02 30.79,47.36 29.39,48.84 L23.88,54.74 L23.88,57.56 L36,57.56 L36,54.23 Z M47,39 L43.46,39 L37.35,41.56 L38.35,44.74 L42.86,43 L42.86,57.58 L47,57.58 L47,39 Z M56,35.5 C56,33.5670034 54.4329966,32 52.5,32 C50.5670034,32 49,33.5670034 49,35.5 C49,37.4329966 50.5670034,39 52.5,39 C54.4329966,39 56,37.4329966 56,35.5 Z M79,47.42 L60,47.42 L60,69 L75,69 C77.209139,69 79,67.209139 79,65 L79,47.42 Z M79,28 C79,25.790861 77.209139,24 75,24 L60,24 L60,45.42 L79,45.42 L79,28 Z M52.5,34 C51.6715729,34 51,34.6715729 51,35.5 C51,36.3284271 51.6715729,37 52.5,37 C53.3284271,37 54,36.3284271 54,35.5 C54,34.6715729 53.3284271,34 52.5,34 Z" transform="translate(-15 -22)"/>
</svg>
