<?xml version="1.0" encoding="UTF-8"?>
<svg width="16px" height="33px" viewBox="0 0 16 33" version="1.1" xmlns="http://www.w3.org/2000/svg" xmlns:xlink="http://www.w3.org/1999/xlink">
    <title>pictograms/no_container/tree_small</title>
    <g id="Symbols" stroke="none" stroke-width="1" fill="none" fill-rule="evenodd">
        <g id="pictograms/Weather-&amp;-More/tree-small" transform="translate(-40.000000, -37.000000)" fill="#39393A">
            <path d="M55.12,60.19 C53.8399146,62.3891383 51.5406047,63.7980292 49,63.94 L49,69 C49,69.5522847 48.5522847,70 48,70 C47.4477153,70 47,69.5522847 47,69 L47,63.94 C44.4593953,63.7980292 42.1600854,62.3891383 40.88,60.19 C39.59,57.84 39.79,54.59 41.03,51 C42.2050658,47.8338949 43.6191408,44.7617083 45.26,41.81 C46.56,39.46 47.31,38 48,38 C48.69,38 49.44,39.46 50.74,41.81 C52.3909234,44.7609079 53.8150301,47.8331006 55,51 C56.21,54.59 56.41,57.84 55.12,60.19 Z" id="â—-Pictogram"></path>
        </g>
    </g>
</svg>