<svg xmlns="http://www.w3.org/2000/svg" width="61" height="56" viewBox="0 0 61 56">
  <path fill="#EA1B0A" fill-rule="evenodd" d="M79.92,75.39 C79.8145912,75.6345777 79.6159747,75.8270041 79.3681832,75.924619 C79.1203917,76.0222338 78.8438981,76.016972 78.6,75.91 C60.0055836,68.0205184 39.0044164,68.0205184 20.41,75.91 C20.0813157,76.0511199 19.7023122,76.0061691 19.4157566,75.7920801 C19.129201,75.577991 18.9786278,75.227289 19.0207566,74.87208 C19.0628853,74.5168711 19.2913156,74.2111199 19.62,74.07 C24.5659909,71.968437 29.7217312,70.3995901 35,69.39 L35,64.94 C32.4593953,64.7980292 30.1600854,63.3891383 28.88,61.19 C27.59,58.84 27.79,55.59 29.03,52 C30.2050658,48.8338949 31.6191408,45.7617083 33.26,42.81 C34.56,40.46 35.31,39 36,39 C36.69,39 37.44,40.46 38.74,42.81 C40.3907514,45.7609957 41.814852,48.8331751 43,52 C44.24,55.59 44.44,58.84 43.15,61.19 C41.8641633,63.3977247 39.5514654,64.8079064 37,64.94 L37,69 C41.1324471,68.3265321 45.3130422,67.9920845 49.5,68 C51.68,68 53.85,68.11 56,68.29 L56,61.94 C52.08,61.65 48.77,59.73 47.21,56.73 C45.43,53.47 45.71,48.97 47.42,44 C49.0359115,39.6158511 50.9814731,35.360353 53.24,31.27 C55,28 56.06,26 57,26 C57.94,26 59,28 60.76,31.27 C63.0185269,35.360353 64.9640885,39.6158511 66.58,44 C68.28,49 68.58,53.47 66.79,56.73 C65.23,59.73 61.91,61.66 58,61.94 L58,68.48 C65.3659702,69.2879946 72.5730753,71.1748477 79.39,74.08 C79.8977826,74.2957051 80.1349432,74.8818944 79.92,75.39 Z" transform="translate(-19 -20)"/>
</svg>
