<svg xmlns="http://www.w3.org/2000/svg" width="50" height="50" viewBox="0 0 50 50">
  <path fill="#EA1B0A" fill-rule="evenodd" d="M24,23 C24.552,23 25,23.448 25,24 L25,71 L72,71 C72.553,71 73,71.447 73,72 C73,72.553 72.553,73 72,73 L24,73 C23.448,73 23,72.553 23,72 L23,24 C23,23.448 23.448,23 24,23 Z M28,36.0003 L35.999,48.0003 L44,46.0293 L52,60.0713 L60,54.0533 L68,64.0713 L68,68.0003 L28,68.0003 L28,36.0003 Z M70,37 C70.553,37 71,37.448 71,38 L71,42 C71,43.654 69.654,45 68,45 L56,45 C54.346,45 53,43.654 53,42 L53,38 C53,37.448 53.447,37 54,37 C54.553,37 55,37.448 55,38 L55,42 C55,42.551 55.448,43 56,43 L68,43 C68.552,43 69,42.551 69,42 L69,38 C69,37.448 69.447,37 70,37 Z M66.4822,30.0762 C66.8262,30.5092 66.7562,31.1382 66.3232,31.4822 C66.1392,31.6292 65.9192,31.7002549 65.7012,31.7002549 C65.4072,31.7002549 65.1162,31.5712 64.9182,31.3242 C64.3151802,30.5674101 63.6052523,29.7418936 62.9998002,29.0947767 L63,39.6001 C63,40.1521 62.553,40.6001 62,40.6001 C61.447,40.6001 61,40.1521 61,39.6001 L61.0015472,29.0937641 C60.3958884,29.7410324 59.6855344,30.5670154 59.0822,31.3242 C58.7372,31.7542 58.1072,31.8272 57.6772,31.4822 C57.2442,31.1382 57.1742,30.5092 57.5172,30.0762 C60.6327417,26.1700333 61.526667,26.0072764 61.9478063,26.0004948 L62.0524739,26.0004948 C62.472733,26.0072764 63.3666583,26.1700333 66.4822,30.0762 Z" transform="translate(-23 -23)"/>
</svg>
