<?xml version="1.0" encoding="UTF-8"?>
<svg width="85px" height="96px" viewBox="0 0 85 96" version="1.1" xmlns="http://www.w3.org/2000/svg" xmlns:xlink="http://www.w3.org/1999/xlink">
    <title>pictograms/no_container/urbanisation</title>
    <g id="Symbols" stroke="none" stroke-width="1" fill="none" fill-rule="evenodd">
        <g id="pictograms/e_world/urbanisation" transform="translate(-5.000000, 0.000000)" fill="#39393A">
            <path d="M21,68 L29,68 L29,60 L21,60 L21,68 Z M23,62 L27,62 L27,66 L23,66 L23,62 Z M29,49 L21,49 L21,57 L29,57 L29,49 Z M27,55 L23,55 L23,51 L27,51 L27,55 Z M74,67 L84,67 L84,57 L74,57 L74,67 Z M76,59 L82,59 L82,65 L76,65 L76,59 Z M90,20 L90,10 C90,9.44771525 89.5522847,9 89,9 L51,9 C50.4477153,9 50,9.44771525 50,10 L50,20 C50,20 50,20 50,20 L50,36 L52,36 L52,21 L88,21 L88,84 C88,84.5522847 87.5522847,85 87,85 L84,85 L84,72 L74,72 L74,85 L74,85 L74,87 L87,87 C88.6568542,87 90,85.6568542 90,84 L90,20 C90,20 90,20 90,20 Z M82,85 L76,85 L76,74 L82,74 L82,85 Z M55,25 L55,35 L63,35 L63,25 L55,25 Z M61,33 L57,33 L57,27 L61,27 L61,33 Z M84,25 L66,25 L66,35 L84,35 L84,25 Z M74,33 L68,33 L68,27 L74,27 L74,33 Z M82,33 L76,33 L76,27 L82,27 L82,33 Z M40,35 L40,27 L32,27 L32,35 L40,35 Z M34,29 L38,29 L38,33 L34,33 L34,29 Z M21,75 L9.99999998,75 L9.99999998,89 L9.99999998,89 C8.34314575,89 6.99999998,87.6568542 6.99999998,86 L6.99999998,12 L42.76,25.66 L42.76,36 L44.76,36 L44.76,25.66 C44.76,24.8292444 44.2466455,24.0849182 43.47,23.79 L19.15,14.5 L19.15,8 C19.15,7.44771525 18.7022847,7 18.15,7 C17.5977153,7 17.15,7.44771525 17.15,8 L17.15,13.78 L14.06,12.6 C14.1018527,12.4947578 14.1255227,12.3831704 14.13,12.27 L14.13,2 C14.13,1.44771525 13.6822847,1 13.13,1 C12.5777153,1 12.13,1.44771525 12.13,2 L12.13,11.82 L7.71,10.13 C7.09535251,9.89659779 6.40525025,9.98019282 5.86410827,10.3536008 C5.32296629,10.7270087 4.99999998,11.342529 4.99999998,12 L4.99999998,86 C4.99999998,88.7614237 7.23857625,91 9.99999998,91 L30,91 L30,89 L21,89 L21,75 Z M19,89 L12,89 L12,77 L19,77 L19,89 Z M18,27 L10,27 L10,35 L18,35 L18,27 Z M16,33 L12,33 L12,29 L16,29 L16,33 Z M29,38 L21,38 L21,46 L29,46 L29,38 Z M27,44 L23,44 L23,40 L27,40 L27,44 Z M18,38 L10,38 L10,46 L18,46 L18,38 Z M16,44 L12,44 L12,40 L16,40 L16,44 Z M29,27 L21,27 L21,35 L29,35 L29,27 Z M27,33 L23,33 L23,29 L27,29 L27,33 Z M84,41 L74,41 L74,51 L84,51 L84,41 Z M82,49 L76,49 L76,43 L82,43 L82,49 Z M18,49 L10,49 L10,57 L18,57 L18,49 Z M16,55 L12,55 L12,51 L16,51 L16,55 Z M10,68 L18,68 L18,60 L10,60 L10,68 Z M12,62 L16,62 L16,66 L12,66 L12,62 Z M71,38 L33,38 C32.4477153,38 32,38.4477153 32,39 L32,91 C32,92.3260824 32.5267842,93.597852 33.4644661,94.5355339 C34.402148,95.4732158 35.6739176,96 37,96 L67,96 C69.7614237,96 72,93.7614237 72,91 L72,39 C72,38.4477153 71.5522847,38 71,38 Z M65,94 L60,94 L60,84.79 L65,84.79 L65,94 Z M70,91 C70,92.6568542 68.6568542,94 67,94 L67,82.79 L58,82.79 L58,94 L37,94 C35.3431458,94 34,92.6568542 34,91 L34,51 L70,51 L70,91 Z M44.38,54 L37,54 L37,64 L44.38,64 L44.38,54 Z M42.38,62 L39,62 L39,56 L42.38,56 L42.38,62 Z M55.69,54 L48.31,54 L48.31,64 L55.68,64 L55.69,54 Z M53.69,62 L50.31,62 L50.31,56 L53.68,56 L53.69,62 Z M67,54 L59.62,54 L59.62,64 L67,64 L67,54 Z M65,62 L61.62,62 L61.62,56 L65,56 L65,62 Z M44.38,68 L37,68 L37,78 L44.38,78 L44.38,68 Z M42.38,76 L39,76 L39,70 L42.38,70 L42.38,76 Z M55.69,68 L48.31,68 L48.31,78 L55.68,78 L55.69,68 Z M53.69,76 L50.31,76 L50.31,70 L53.68,70 L53.69,76 Z M67,68 L59.62,68 L59.62,78 L67,78 L67,68 Z M65,76 L61.62,76 L61.62,70 L65,70 L65,76 Z" id="â—-Pictogram"></path>
        </g>
    </g>
</svg>