<svg xmlns="http://www.w3.org/2000/svg" width="40" height="46" viewBox="0 0 40 46">
  <path fill="#EA1B0A" fill-rule="evenodd" d="M62.8,30.6 C64.1,29.4 65.3,29 66.4,29 C68.4,28.9 69.9,30.1 70.1,30.4 C70.4,30.8 70.9,30.9 71.3,30.7 C71.7,30.5 71.9,30.2 71.9,29.8 C71.9,28.8 69.7,27.8 69.4,27.7 C67.8,27 64.6,26.3 61.3,29.2 C59.9,30.5 58.5,31.1 57.1,31 C55,30.9 53.6,29.3 53.6,29.2 C53.2,28.8 52.6,28.7 52.2,29.1 C51.8,29.5 51.7,30.1 52.1,30.5 C52.2,30.6 54.1,32.8 57,33 C57.1,33 57.3,33 57.4,33 C59.3,32.9 61.1,32.1 62.8,30.6 Z M62.8,36.5 C64.1,35.4 65.3,34.9 66.3,34.9 C68.3,34.8 69.9,36 70.1,36.3 C70.4,36.7 70.9,36.8 71.3,36.6 C71.7,36.4 71.9,36.1 71.9,35.7 C71.9,34.7 69.7,33.7 69.5,33.6 C67.9,32.9 64.7,32.1 61.4,35.1 C60,36.4 58.6,37 57.2,36.9 C55.1,36.8 53.7,35.2 53.7,35.1 C53.3,34.7 52.7,34.6 52.3,35 C51.9,35.4 51.8,36 52.2,36.4 C52.3,36.5 54.2,38.7 57.1,38.9 C57.2,38.9 57.4,38.9 57.5,38.9 C59.3,38.8 61.1,38 62.8,36.5 Z M62.8,42.4 C64.1,41.3 65.3,40.8 66.4,40.8 C68.4,40.7 69.9,41.9 70.2,42.2 C70.5,42.6 71,42.7 71.4,42.5 C71.8,42.3 72,42 72,41.6 C72,40.6 69.8,39.6 69.6,39.5 C68,38.8 64.8,38 61.5,41 C60.1,42.3 58.7,42.9 57.3,42.8 C55.2,42.7 53.8,41.1 53.8,41 C53.4,40.6 52.8,40.5 52.4,40.9 C52,41.3 51.9,41.9 52.3,42.3 C52.4,42.4 54.3,44.6 57.2,44.8 C57.3,44.8 57.5,44.8 57.6,44.8 C59.3,44.7 61.1,43.9 62.8,42.4 Z M52,61 C52,66.5 47.5,71 42,71 C36.5,71 32,66.5 32,61 C32,57.6 33.8,54.5 36.6,52.7 L36.6,30.4 C36.6,27.4 39,25 42,25 C45,25 47.4,27.4 47.4,30.4 L47.4,52.7 C50.2,54.5 52,57.6 52,61 Z M50,61 C50,57.8 48.1,55.1 45.4,53.8 L45.4,30.4 C45.4,28.5 43.9,27 42,27 C40.1,27 38.6,28.5 38.6,30.4 L38.6,53.8 C35.9,55.1 34,57.8 34,61 C34,65.4 37.6,69 42,69 C46.4,69 50,65.4 50,61 Z M43,56 L43,33 L41,33 L41,56 C38.7,56.5 37,58.6 37,61 C37,63.8 39.2,65.9 42,65.9 C44.8,65.9 47,63.7 47,61 C47,58.6 45.3,56.5 43,56 Z" transform="translate(-32 -25)"/>
</svg>
