<?xml version="1.0" encoding="UTF-8"?>
<svg width="74px" height="54px" viewBox="0 0 74 54" version="1.1" xmlns="http://www.w3.org/2000/svg" xmlns:xlink="http://www.w3.org/1999/xlink">
    <title>pictograms/no_container/weather_windy</title>
    <g id="Symbols" stroke="none" stroke-width="1" fill="none" fill-rule="evenodd">
        <g id="pictograms/Weather-&amp;-More/weather-windy" transform="translate(-14.000000, -25.000000)" fill="#39393A">
            <path d="M53.85,60.23 C53.8495015,61.2251212 53.5344998,62.1946265 52.95,63 C52.8271223,63.1684312 52.6935118,63.3287638 52.55,63.48 L52.29,63.73 C52.1504241,63.8584143 52.0035102,63.9786166 51.85,64.09 L51.57,64.28 C51.3993392,64.3842839 51.2223275,64.4777995 51.04,64.56 L50.83,64.65 C50.5866498,64.7468756 50.3358227,64.8237959 50.08,64.88 L49.9,64.88 C49.604423,64.9481132 49.3030974,64.9882899 49,65 L15,65 C14.4477153,65 14,64.5522847 14,64 C14,63.4477153 14.4477153,63 15,63 L26.52,63 C27.706349,63.0144467 28.8499847,62.5577117 29.7,61.73 C30.5506973,60.9125832 31.0402013,59.7896034 31.06,58.61 C31.1054257,57.4411942 30.68039,56.3029632 29.88,55.45 C29.1239681,54.6609139 28.0918847,54.1950429 27,54.15 L26.52,54.15 C25.9677153,54.15 25.52,53.7022847 25.52,53.15 C25.52,52.5977153 25.9677153,52.15 26.52,52.15 C28.2253427,52.1526501 29.859786,52.8326375 31.06377,54.0403722 C32.2677539,55.2481069 32.9426542,56.8846573 32.94,58.59 C32.9673867,60.2421642 32.3211405,61.8343128 31.15,63 L49,63 C50.5298288,63 51.77,61.7598288 51.77,60.23 C51.77,58.7001712 50.5298288,57.46 49,57.46 C48.4477153,57.46 48,57.0122847 48,56.46 C48,55.9077153 48.4477153,55.46 49,55.46 C50.2780876,55.4412787 51.5104299,55.9352328 52.4217561,56.8315268 C53.3330823,57.7278208 53.847463,58.9517778 53.85,60.23 L53.85,60.23 Z M40.68,68 L19,68 C18.4477153,68 18,68.4477153 18,69 C18,69.5522847 18.4477153,70 19,70 L40.68,70 C41.5785378,69.9993209 42.4396826,70.3596326 43.07,71 C44.3968916,72.3405067 44.3968916,74.4994933 43.07,75.84 C42.4396826,76.4803674 41.5785378,76.8406791 40.68,76.84 C40.1277153,76.84 39.68,77.2877153 39.68,77.84 C39.68,78.3922847 40.1277153,78.84 40.68,78.84 C43.6761448,78.84 46.105,76.4111448 46.105,73.415 C46.105,70.4188552 43.6761448,67.99 40.68,67.99 L40.68,68 Z M79.59,37.92 C79.59,37.85 79.59,37.77 79.59,37.7 C79.7182739,30.8202076 74.249629,25.1367551 67.37,25 C63.0968284,25.0302757 59.1559401,27.3104426 57,31 C57.5699357,31.4269707 58.108025,31.8948745 58.61,32.4 C60.8871667,34.7234646 62.3472156,37.7242862 62.77,40.95 C64.8346826,41.8196502 66.647089,43.1952907 68.04,44.95 C71.4453482,49.2539686 71.9605067,55.1723922 69.35,60 L77.26,60 C83.3000543,59.8579432 88.0950424,54.870977 88,48.83 C88.0689144,43.6820839 84.5859004,39.1636912 79.59,37.92 L79.59,37.92 Z M60.9,42.41 C60.7877001,36.1829146 56.1662886,30.9608645 49.9990561,30.0922752 C43.8318236,29.223686 37.9478533,32.9661646 36.12,38.92 C35.1335446,38.5269976 34.0818537,38.3234445 33.02,38.32 C28.5160486,38.3619101 24.7869628,41.8308271 24.42,46.32 C25.0699235,46.1374847 25.7473349,46.0731306 26.42,46.13 C26.6202417,44.6819957 27.2791075,43.3362274 28.3,42.29 C30.3942708,40.1277803 33.688784,39.6624303 36.3,41.16 L37.45,41.82 L37.74,40.51 C38.8133193,35.5798116 43.1545586,32.0478855 48.2,32 C51.0626385,32.0009247 53.8034379,33.1585519 55.8,35.21 C57.8577992,37.2793689 59.0089303,40.0816536 59,43 L59,44 L59.78,44.18 C64.0475348,45.2311625 67.0349272,49.0750511 67,53.47 C67.0074492,55.9893583 66.0232024,58.4104615 64.26,60.21 C62.5334146,61.98438 60.1657661,62.9898197 57.69,63 L55.24,63 C54.9038096,63.7441139 54.4363478,64.4215947 53.86,65 L57.69,65 C63.3513487,64.8768367 68.0900814,60.6708015 68.8843039,55.0640869 C69.6785264,49.4573723 66.2944063,44.1006895 60.89,42.41 L60.9,42.41 Z" id="â—-Pictogram"></path>
        </g>
    </g>
</svg>