<svg xmlns="http://www.w3.org/2000/svg" width="50" height="35" viewBox="0 0 50 35">
  <path fill="#EA1B0A" fill-rule="evenodd" d="M64.89,43.41 C64.7629379,37.1950249 60.1458184,31.99018 53.9903428,31.1228966 C47.8348672,30.2556132 41.9593585,33.9820862 40.12,39.92 C39.1336122,39.526767 38.081877,39.3232053 37.02,39.32 C32.2492474,39.363643 28.3971254,43.2291249 28.37,48 C25.0716807,49.5759892 22.9797174,52.9145601 22.999552,56.57 C22.9500355,61.7245709 27.0854798,65.9450514 32.24,66 L61.69,66 C67.3513487,65.8768367 72.0900814,61.6708015 72.8843039,56.0640869 C73.6785264,50.4573723 70.2944063,45.1006895 64.89,43.41 L64.89,43.41 Z M68.3,61.2 C66.5660626,62.9889368 64.1813517,63.9991018 61.69,64 L32.24,64 C30.3039633,64 28.4500953,63.217617 27.1,61.83 C25.3477577,60.0354694 24.6100278,57.483004 25.1347293,55.0303765 C25.6594307,52.577749 27.3769112,50.5505376 29.71,49.63 L30.4,49.37 L30.4,48.62 C30.4,48.46 30.4,48.31 30.4,48.16 C30.4056702,46.3525979 31.1243996,44.6204601 32.4,43.34 C34.4942708,41.1777803 37.788784,40.7124303 40.4,42.21 L41.55,42.87 L41.84,41.56 C42.8846874,36.6459598 47.1771224,33.0993147 52.2,33 C55.0626385,33.0009247 57.8034379,34.1585519 59.8,36.21 C61.8577992,38.2793689 63.0089303,41.0816536 63,44 L63,45 L63.78,45.18 C68.0475348,46.2311625 71.0349272,50.0750511 71.0003031,54.47 C71.0155169,56.9802492 70.0461411,59.3965081 68.3,61.2 Z" transform="translate(-23 -31)"/>
</svg>
