<svg xmlns="http://www.w3.org/2000/svg" width="64" height="44" viewBox="0 0 64 44">
  <path fill="#EA1B0A" fill-rule="evenodd" d="M62,29 L62,26 C62,25.4477153 62.4477153,25 63,25 C63.5522847,25 64,25.4477153 64,26 L64,29 C64,29.5522847 63.5522847,30 63,30 C62.4477153,30 62,29.5522847 62,29 Z M53.1,33.51 C53.4967603,33.8497768 54.0881942,33.8269323 54.4575632,33.4575632 C54.8269323,33.0881942 54.8497768,32.4967603 54.51,32.1 L52.39,30 C52.1631068,29.668411 51.7597896,29.5048173 51.3660151,29.5846508 C50.9722405,29.6644844 50.6644844,29.9722405 50.5846508,30.3660151 C50.5048173,30.7597896 50.668411,31.1631068 51,31.39 L53.1,33.51 Z M72.9,33.51 L75,31.39 C75.331589,31.1631068 75.4951827,30.7597896 75.4153492,30.3660151 C75.3355156,29.9722405 75.0277595,29.6644844 74.6339849,29.5846508 C74.2402104,29.5048173 73.8368932,29.668411 73.61,30 L71.49,32.1 C71.1502232,32.4967603 71.1730677,33.0881942 71.5424368,33.4575632 C71.9118058,33.8269323 72.5032397,33.8497768 72.9,33.51 L72.9,33.51 Z M72.9,50.51 C72.5032397,50.1702232 71.9118058,50.1930677 71.5424368,50.5624368 C71.1730677,50.9318058 71.1502232,51.5232397 71.49,51.92 L73.61,54 C73.8368932,54.331589 74.2402104,54.4951827 74.6339849,54.4153492 C75.0277595,54.3355156 75.3355156,54.0277595 75.4153492,53.6339849 C75.4951827,53.2402104 75.331589,52.8368932 75,52.61 L72.9,50.51 Z M79,41 L76,41 C75.4477153,41 75,41.4477153 75,42 C75,42.5522847 75.4477153,43 76,43 L79,43 C79.5522847,43 80,42.5522847 80,42 C80,41.4477153 79.5522847,41 79,41 Z M63,32 C59.9084823,32.0026527 56.9920084,33.4350475 55.1,35.88 C55.27,36.03 55.44,36.18 55.61,36.34 C57.8800874,38.6363689 59.3404138,41.6096777 59.77,44.81 C61.8351168,45.6788986 63.6476961,47.0546704 65.04,48.81 C65.6651242,49.5932648 66.1985923,50.4454717 66.63,51.35 C71.1589799,49.6326683 73.8060865,44.9164373 72.9130128,40.1558379 C72.0199391,35.3952385 67.8434712,31.9590889 63,32 L63,32 Z M66,57.47 C66.0293147,60.498814 64.8541645,63.4152062 62.7330978,65.5775314 C60.6120312,67.7398566 57.7188167,68.9709663 54.69,69 L25.24,69 C20.0854798,68.9450514 15.9500355,64.7245709 15.999552,59.57 C15.9797174,55.9145601 18.0716807,52.5759892 21.37,51 C21.3969693,46.2368297 25.237065,42.3744855 30,42.32 C31.061877,42.3232053 32.1136122,42.526767 33.1,42.92 C34.9040986,36.9336105 40.8053603,33.1582501 46.9966852,34.0295293 C53.1880101,34.9008084 57.8181297,40.158206 57.9,46.41 C62.7424662,47.9085682 66.0326297,52.4010631 66,57.47 L66,57.47 Z M64.0002165,57.47 C64.0297193,53.0448037 60.9969777,49.1864593 56.69,48.17 L55.94,48 L55.94,47 C55.9516501,44.1026293 54.8196958,41.3176624 52.79,39.25 C50.802579,37.1863197 48.065034,36.0141166 45.2,36 C40.1372561,36.0360067 35.7777117,39.5809937 34.71,44.53 L34.42,45.84 L33.27,45.18 C30.658784,43.6824303 27.3642708,44.1477803 25.27,46.31 C23.9943996,47.5904601 23.2756702,49.3225979 23.27,51.13 C23.27,51.28 23.27,51.43 23.27,51.59 L23.27,52.34 L22.58,52.6 C20.2469112,53.5205376 18.5294307,55.547749 18.0047293,58.0003765 C17.4800278,60.453004 18.2177577,63.0054694 19.97,64.8 C21.3469266,66.2304411 23.2547123,67.0268602 25.24,67 L54.69,67 C57.1764137,66.9990245 59.5567996,65.9927704 61.29,64.21 C63.0422291,62.4056353 64.0154654,59.9851142 64.0002165,57.47 Z" transform="translate(-16 -25)"/>
</svg>
