<?xml version="1.0" encoding="UTF-8"?>
<svg width="69px" height="56px" viewBox="0 0 69 56" version="1.1" xmlns="http://www.w3.org/2000/svg" xmlns:xlink="http://www.w3.org/1999/xlink">
    <title>pictograms/no_container/weather_lightning</title>
    <g id="Symbols" stroke="none" stroke-width="1" fill="none" fill-rule="evenodd">
        <g id="pictograms/Weather-&amp;-More/weather-lightning" transform="translate(-14.000000, -18.000000)" fill="#39393A">
            <path d="M31,74.0000033 C30.6773994,74.0008335 30.3742109,73.845986 30.1857655,73.5841461 C29.9973201,73.3223061 29.9467664,72.9856381 30.05,72.68 L31.05,69.68 C31.1625387,69.3405977 31.4475976,69.0870157 31.797798,69.0147758 C32.1479984,68.942536 32.5101363,69.0626133 32.747798,69.3297758 C32.9854597,69.5969383 33.0625387,69.9705977 32.95,70.31 L31.95,73.31 C31.8159022,73.721264 31.4325739,73.9996813 31,74.0000033 Z M34.95,64.32 L35.95,61.32 C36.0625387,60.9805977 35.9854597,60.6069384 35.747798,60.3397759 C35.5101363,60.0726134 35.1479984,59.9525361 34.797798,60.0247759 C34.4475976,60.0970157 34.1625387,60.3505977 34.05,60.69 L33.05,63.69 C32.8760303,64.2146705 33.1603295,64.7810303 33.685,64.955 C34.2096705,65.1289697 34.7760303,64.8446705 34.95,64.32 Z M21.95,71.32 L22.95,68.32 C23.0625387,67.9805977 22.9854597,67.6069383 22.747798,67.3397758 C22.5101363,67.0726133 22.1479984,66.952536 21.797798,67.0247758 C21.4475976,67.0970157 21.1625387,67.3505977 21.05,67.69 L20.05,70.69 C19.9374613,71.0294023 20.0145403,71.4030617 20.252202,71.6702242 C20.4898637,71.9373867 20.8520016,72.057464 21.202202,71.9852242 C21.5524024,71.9129843 21.8374613,71.6594023 21.95,71.32 L21.95,71.32 Z M22.95,64.32 L23.95,61.32 C24.0625387,60.9805977 23.9854597,60.6069384 23.747798,60.3397759 C23.5101363,60.0726134 23.1479984,59.9525361 22.797798,60.0247759 C22.4475976,60.0970157 22.1625387,60.3505977 22.05,60.69 L21.05,63.69 C20.8760303,64.2146705 21.1603295,64.7810303 21.685,64.955 C22.2096705,65.1289697 22.7760303,64.8446705 22.95,64.32 L22.95,64.32 Z M26.95,68.32 L27.95,65.32 C28.0625387,64.9805977 27.9854597,64.6069383 27.747798,64.3397758 C27.5101363,64.0726133 27.1479984,63.952536 26.797798,64.0247758 C26.4475976,64.0970157 26.1625387,64.3505977 26.05,64.69 L25.05,67.69 C24.9374613,68.0294023 25.0145403,68.4030617 25.252202,68.6702242 C25.4898637,68.9373867 25.8520016,69.057464 26.202202,68.9852242 C26.5524024,68.9129843 26.8374613,68.6594023 26.95,68.32 Z M47.95,70.32 L48.95,67.32 C49.0625387,66.9805977 48.9854597,66.6069384 48.747798,66.3397759 C48.5101363,66.0726134 48.1479984,65.9525361 47.797798,66.0247759 C47.4475976,66.0970157 47.1625387,66.3505977 47.05,66.69 L46.05,69.69 C45.9374613,70.0294023 46.0145403,70.4030617 46.252202,70.6702242 C46.4898637,70.9373867 46.8520016,71.057464 47.202202,70.9852242 C47.5524024,70.9129843 47.8374613,70.6594023 47.95,70.32 L47.95,70.32 Z M38.95,71.32 L39.95,68.32 C40.0625387,67.9805977 39.9854597,67.6069383 39.747798,67.3397758 C39.5101363,67.0726133 39.1479984,66.952536 38.797798,67.0247758 C38.4475976,67.0970157 38.1625387,67.3505977 38.05,67.69 L37.05,70.69 C36.9374613,71.0294023 37.0145403,71.4030617 37.252202,71.6702242 C37.4898637,71.9373867 37.8520016,72.057464 38.202202,71.9852242 C38.5524024,71.9129843 38.8374613,71.6594023 38.95,71.32 Z M56.95,70.32 L57.95,67.32 C58.0625387,66.9805977 57.9854597,66.6069383 57.747798,66.3397758 C57.5101363,66.0726133 57.1479984,65.952536 56.797798,66.0247758 C56.4475976,66.0970157 56.1625387,66.3505977 56.05,66.69 L55.05,69.69 C54.9374613,70.0294023 55.0145403,70.4030617 55.252202,70.6702242 C55.4898637,70.9373867 55.8520016,71.057464 56.202202,70.9852242 C56.5524024,70.9129843 56.8374613,70.6594023 56.95,70.32 Z M51.95,73.32 L55.95,61.32 C56.0625387,60.9805977 55.9854597,60.6069384 55.747798,60.3397759 C55.5101363,60.0726134 55.1479984,59.9525361 54.797798,60.0247759 C54.4475976,60.0970157 54.1625387,60.3505977 54.05,60.69 L50.05,72.69 C49.9374613,73.0294023 50.0145403,73.4030617 50.252202,73.6702242 C50.4898637,73.9373867 50.8520016,74.057464 51.202202,73.9852242 C51.5524024,73.9129843 51.8374613,73.6594023 51.95,73.32 Z M55.9,35.41 C55.7729379,29.1950249 51.1558184,23.99018 45.0003428,23.1228966 C38.8448672,22.2556132 32.9693585,25.9820862 31.13,31.92 C30.1435446,31.5269976 29.0918537,31.3234445 28.03,31.32 C23.2553399,31.3582086 19.3971943,35.2252645 19.37,40 C16.0716807,41.5759892 13.9797174,44.9145601 13.999552,48.57 C13.9500355,53.7245709 18.0854798,57.9450514 23.24,58 L39.35,58 L39.9,56 L23.24,56 C21.3027293,55.9965158 19.4490734,55.2103349 18.1,53.82 C16.3481414,52.0234905 15.610771,49.4699102 16.1353016,47.0160718 C16.6598321,44.5622334 18.3767608,42.5332822 20.71,41.61 L21.4,41.35 L21.4,40.6 C21.4,40.44 21.4,40.29 21.4,40.14 C21.4056702,38.3325979 22.1243996,36.6004601 23.4,35.32 C25.4942708,33.1577803 28.788784,32.6924303 31.4,34.19 L32.55,34.85 L32.84,33.54 C33.8927472,28.6338909 38.1831549,25.0972035 43.2,25 C46.0626385,25.0009247 48.8034379,26.1585519 50.8,28.21 C52.8577992,30.2793689 54.0089303,33.0816536 54,36 L54,37 L54.78,37.18 C59.0475348,38.2311625 62.0349272,42.0750511 62,46.47 C62.0063728,48.9891494 61.0222856,51.4098601 59.26,53.21 C57.5334146,54.98438 55.1657661,55.9898197 52.69,56 L49.69,56 L48.55,57.72 L48.36,58 L52.66,58 C58.3213487,57.8768367 63.0600814,53.6708015 63.8543039,48.0640869 C64.6485264,42.4573723 61.2644063,37.1006895 55.86,35.41 L55.9,35.41 Z M74.59,30.92 C74.59,30.85 74.59,30.77 74.59,30.7 C74.7182739,23.8202076 69.249629,18.1367551 62.37,18 C58.0968284,18.0302757 54.1559401,20.3104426 52,24 C52.5695935,24.4237658 53.1076741,24.8883199 53.61,25.39 C55.8835807,27.715991 57.3430146,30.7155486 57.77,33.94 C59.834466,34.810025 61.6467862,36.1856002 63.04,37.94 C66.4464283,42.2481623 66.9577667,48.1718208 64.34,53 L72.25,53 C78.293989,52.8633476 83.0949756,47.8747875 83,41.83 C83.0689144,36.6820839 79.5859004,32.1636912 74.59,30.92 L74.59,30.92 Z M52.64,47 C52.4667616,46.6746528 52.1285937,46.4709835 51.76,46.47 L45.31,46.47 L47.31,35.77 C47.3862255,35.475278 47.3240518,35.1618834 47.1410886,34.9185814 C46.9581255,34.6752793 46.6742992,34.5285674 46.37,34.52 L46.24,34.52 C45.9661003,34.5494122 45.7164647,34.6905105 45.55,34.91 L45.48,35.02 L35.62,51.49 C35.4376393,51.7975306 35.4333396,52.179024 35.6087225,52.4905867 C35.7841055,52.8021493 36.1124845,52.9963732 36.47,53 L42.8,53 L39.88,63.68 C39.7436756,64.1559953 39.9762052,64.660085 40.4267853,64.8653492 C40.8773655,65.0706135 41.410316,64.9152426 41.68,64.5 L52.59,48.07 C52.8123926,47.7530848 52.8318698,47.3362733 52.64,47 Z" id="â—-Pictogram"></path>
        </g>
    </g>
</svg>