<?xml version="1.0" encoding="UTF-8"?>
<svg width="69px" height="59px" viewBox="0 0 69 59" version="1.1" xmlns="http://www.w3.org/2000/svg" xmlns:xlink="http://www.w3.org/1999/xlink">
    <title>pictograms/no_container/weather_snow</title>
    <g id="Symbols" stroke="none" stroke-width="1" fill="none" fill-rule="evenodd">
        <g id="pictograms/Weather-&amp;-More/weather-snow" transform="translate(-14.000000, -18.000000)" fill="#39393A">
            <path d="M28,64.22 C28,64.7722847 27.5522847,65.22 27,65.22 L25.49,65.22 L26.06,66.62 C26.1957609,66.9504707 26.1449052,67.3282658 25.9265897,67.6110735 C25.7082741,67.8938813 25.3556661,68.0387365 25.0015897,67.9910735 C24.6475132,67.9434106 24.3457609,67.7104707 24.21,67.38 L23.5,65.64 L21.85,66.54 C21.5373926,66.7186328 21.153232,66.7169223 20.8422277,66.5355128 C20.5312235,66.3541032 20.3406245,66.0205551 20.3422177,65.6605127 C20.3438309,65.3004704 20.5373926,64.9686328 20.85,64.79 L22.17,64.06 L21,63.12 C20.7213328,62.8949227 20.5839111,62.5382755 20.6395002,62.184404 C20.6950893,61.8305325 20.9352439,61.5331982 21.2695002,61.404404 C21.6037564,61.2756098 21.9813328,61.3349227 22.26,61.56 L23.49,62.56 L24.02,61.06 C24.1221733,60.701567 24.4152036,60.4296989 24.7802764,60.3546294 C25.1453492,60.2795599 25.5218763,60.4137477 25.757188,60.702784 C25.9924997,60.9918204 26.0475431,61.387736 25.9,61.73 L25.37,63.22 L27,63.22 C27.5522847,63.22 28,63.6677153 28,64.22 Z M43.5,63.22 L41.91,63.22 L42.44,61.73 C42.5875431,61.387736 42.5324997,60.9918204 42.297188,60.702784 C42.0618763,60.4137477 41.6853492,60.2795599 41.3202764,60.3546294 C40.9552036,60.4296989 40.6621733,60.701567 40.56,61.06 L40,62.56 L38.77,61.56 C38.4913328,61.3349227 38.1137564,61.2756098 37.7795002,61.404404 C37.4452439,61.5331982 37.2050893,61.8305325 37.1495002,62.184404 C37.0939111,62.5382755 37.2313328,62.8949227 37.51,63.12 L38.68,64.07 L37.36,64.8 C37.0473926,64.9786328 36.8538309,65.3104704 36.8522177,65.6705127 C36.8506246,66.0305551 37.0412235,66.3641032 37.3522277,66.5455127 C37.663232,66.7269223 38.0473926,66.7286328 38.36,66.55 L40.01,65.65 L40.72,67.39 C40.9298682,67.9008634 41.5141366,68.1448682 42.025,67.935 C42.5358634,67.7251318 42.7798682,67.1408634 42.57,66.63 L42,65.22 L43.5,65.22 C44.0522847,65.22 44.5,64.7722847 44.5,64.22 C44.5,63.6677153 44.0522847,63.22 43.5,63.22 Z M60,63.22 L58.41,63.22 L58.94,61.73 C59.0875431,61.387736 59.0324997,60.9918204 58.797188,60.702784 C58.5618763,60.4137477 58.1853492,60.2795599 57.8202764,60.3546294 C57.4552036,60.4296989 57.1621733,60.701567 57.06,61.06 L56.53,62.56 L55.3,61.56 C54.8692179,61.2010149 54.2289851,61.2592179 53.87,61.69 C53.5110149,62.1207821 53.5692179,62.7610149 54,63.12 L55.17,64.07 L53.85,64.8 C53.5373926,64.9786328 53.3438309,65.3104704 53.3422177,65.6705127 C53.3406246,66.0305551 53.5312235,66.3641032 53.8422277,66.5455127 C54.153232,66.7269223 54.5373926,66.7286328 54.85,66.55 L56.5,65.65 L57.21,67.39 C57.4198682,67.9008634 58.0041366,68.1448682 58.515,67.935 C59.0258634,67.7251318 59.2698682,67.1408634 59.06,66.63 L58.49,65.23 L60,65.23 C60.5522847,65.23 61,64.7822847 61,64.23 C61,63.6777153 60.5522847,63.23 60,63.23 L60,63.22 Z M35.07,72.33 L33.48,72.33 L34,70.84 C34.1475431,70.497736 34.0924997,70.1018204 33.857188,69.812784 C33.6218763,69.5237477 33.2453492,69.3895599 32.8802764,69.4646294 C32.5152036,69.5396989 32.2221733,69.811567 32.12,70.17 L31.59,71.66 L30.36,70.66 C29.9292179,70.3120606 29.2979394,70.3792179 28.95,70.81 C28.6020606,71.2407821 28.6692179,71.8720606 29.1,72.22 L30.27,73.17 L29,73.9 C28.6873926,74.0786328 28.4938309,74.4104704 28.4922177,74.7705127 C28.4906246,75.130555 28.6812235,75.4641032 28.9922278,75.6455127 C29.303232,75.8269222 29.6873926,75.8286328 30,75.65 L31.65,74.74 L32.37,76.48 C32.5798682,76.9908634 33.1641366,77.2348682 33.675,77.025 C34.1858634,76.8151318 34.4298682,76.2308634 34.22,75.72 L33.65,74.32 L35.16,74.32 C35.7122847,74.32 36.16,73.8722847 36.16,73.32 C36.16,72.7677153 35.7122847,72.32 35.16,72.32 L35.07,72.33 Z M51.57,72.33 L50,72.33 L50.53,70.84 C50.6775431,70.497736 50.6224997,70.1018204 50.387188,69.812784 C50.1518763,69.5237477 49.7753492,69.3895599 49.4102764,69.4646294 C49.0452036,69.5396989 48.7521733,69.811567 48.65,70.17 L48.12,71.66 L46.89,70.66 C46.4592179,70.3120607 45.8279394,70.379218 45.4800001,70.81 C45.1320607,71.2407821 45.1992179,71.8720606 45.63,72.22 L46.8,73.17 L45.48,73.9 C45.1673926,74.0786328 44.9738309,74.4104704 44.9722177,74.7705127 C44.9706246,75.130555 45.1612235,75.4641032 45.4722278,75.6455127 C45.783232,75.8269222 46.1673926,75.8286328 46.48,75.65 L48.13,74.74 L48.85,76.48 C49.0598682,76.9908634 49.6441366,77.2348682 50.155,77.025 C50.6658634,76.8151318 50.9098682,76.2308634 50.7,75.72 L50.13,74.32 L51.64,74.32 C52.1922847,74.32 52.64,73.8722847 52.64,73.32 C52.64,72.7677153 52.1922847,72.32 51.64,72.32 L51.57,72.33 Z M52.69,58 L23.24,58 C18.0854798,57.9450514 13.9500355,53.7245709 13.999552,48.57 C13.9797174,44.9145601 16.0716807,41.5759892 19.37,40 C19.3969693,35.2368297 23.237065,31.3744855 28,31.32 C29.061877,31.3232053 30.1136122,31.526767 31.1,31.92 C32.9040986,25.9336105 38.8053603,22.1582501 44.9966852,23.0295293 C51.1880101,23.9008084 55.8181297,29.158206 55.9,35.41 C61.305878,37.1014935 64.6898472,42.4608559 63.8929604,48.0688536 C63.0960736,53.6768513 58.3530909,57.8813878 52.69,58 Z M59.29,53.2 C61.0397966,51.3981101 62.0128401,48.9816589 62.0002165,46.47 C62.0297193,42.0448037 58.9969777,38.1864593 54.69,37.17 L53.94,37 L53.94,36 C53.9516501,33.1026293 52.8196958,30.3176624 50.79,28.25 C48.802579,26.1863197 46.065034,25.0141166 43.2,25 C38.1372561,25.0360067 33.7777117,28.5809937 32.71,33.53 L32.42,34.84 L31.27,34.18 C28.658784,32.6824303 25.3642708,33.1477803 23.27,35.31 C21.9943996,36.5904601 21.2756702,38.3225979 21.27,40.13 C21.27,40.28 21.27,40.43 21.27,40.59 L21.27,41.34 L20.58,41.6 C18.2469112,42.5205376 16.5294307,44.547749 16.0047293,47.0003765 C15.4800278,49.453004 16.2177577,52.0054694 17.97,53.8 C19.3469266,55.2304411 21.2547123,56.0268602 23.24,56 L52.69,56 C55.1813517,55.9991018 57.5660626,54.9889368 59.3,53.2 L59.29,53.2 Z M74.59,30.92 C74.59,30.85 74.59,30.77 74.59,30.7 C74.7182739,23.8202076 69.249629,18.1367551 62.37,18 C58.0968284,18.0302757 54.1559401,20.3104426 52,24 C52.5699357,24.4269707 53.108025,24.8948745 53.61,25.4 C55.8871667,27.7234646 57.3472156,30.7242862 57.77,33.95 C59.8346826,34.8196502 61.647089,36.1952907 63.04,37.95 C66.4453482,42.2539686 66.9605067,48.1723922 64.35,53 L72.26,53 C78.3000543,52.8579432 83.0950424,47.870977 83,41.83 C83.0689144,36.6820839 79.5859004,32.1636912 74.59,30.92 Z" id="â—-Pictogram"></path>
        </g>
    </g>
</svg>