<svg xmlns="http://www.w3.org/2000/svg" width="44" height="58" viewBox="0 0 44 58">
  <path fill="#EA1B0A" fill-rule="evenodd" d="M51.5704791,72.0160687 L43.0004791,72.0160687 L43.0004791,61.8660687 C50.8252225,60.8133703 56.4944869,53.8753549 55.9669588,45.9977603 C55.4394308,38.1201657 48.8957171,32 41.0004791,32 C33.1052411,32 26.5615274,38.1201657 26.0339994,45.9977603 C25.5064713,53.8753549 31.1757357,60.8133703 39.0004791,61.8660687 L39.0004791,72.0160687 L30.4304791,72.0160687 C29.8799102,72.0155718 29.3644732,72.286472 29.0526448,72.7402223 C28.7408164,73.1939726 28.6726696,73.7722617 28.8704791,74.2860687 L29.5104791,75.9460687 C29.7611852,76.5894252 30.3800037,77.0138712 31.0704791,77.0160687 L50.9304791,77.0160687 C51.6209545,77.0138712 52.239773,76.5894252 52.4904791,75.9460687 L53.1304791,74.2860687 C53.3282886,73.7722617 53.2601418,73.1939726 52.9483134,72.7402223 C52.6676678,72.331847 52.2220993,72.0715803 51.7344273,72.023973 L51.5704791,72.0160687 Z M28.0004791,47.0160687 C28.0004791,39.836367 33.8207773,34.0160687 41.0004791,34.0160687 C48.1801808,34.0160687 54.0004791,39.836367 54.0004791,47.0160687 C54.0004791,54.1957705 48.1801808,60.0160687 41.0004791,60.0160687 C33.9233445,60.0160687 28.1670508,54.3608769 28.0040295,47.322925 L28.0004791,47.0160687 Z M59,38 C59,38.5522847 58.5522847,39 58,39 C57.4477153,39 57,38.5522847 57,38 C57,34.6862915 54.3137085,32 51,32 C50.4477153,32 50,31.5522847 50,31 C50,30.4477153 50.4477153,30 51,30 C55.418278,30 59,33.581722 59,38 Z M64.81,38 C64.81,38.5522847 64.3622847,39 63.81,39 C63.2577153,39 62.81,38.5522847 62.81,38 C62.7934507,31.4924672 57.5075444,26.2289398 51,26.24 C50.4477153,26.24 50,25.7922847 50,25.24 C50,24.6877153 50.4477153,24.24 51,24.24 C58.5981289,24.2509799 64.7579843,30.4018951 64.78,38 L64.81,38 Z M70,38 C70,38.5522847 69.5522847,39 69,39 C68.4477153,39 68,38.5522847 68,38 C68,33.4913197 66.2089337,29.1673032 63.0208153,25.9791847 C59.8326968,22.7910663 55.5086803,21 51,21 C50.4477153,21 50,20.5522847 50,20 C50,19.4477153 50.4477153,19 51,19 C61.3805779,19 69.8168329,27.3246359 69.9970575,37.6622002 L70,38 Z M41,45 C42.1045695,45 43,45.8954305 43,47 C43,48.1045695 42.1045695,49 41,49 C39.8954305,49 39,48.1045695 39,47 C39,45.9456382 39.8158778,45.0818349 40.8507377,45.0054857 L41,45 Z M41,40 C37.1340068,40 34,43.1340068 34,47 C34,50.8659932 37.1340068,54 41,54 C44.8659932,54 48,50.8659932 48,47 C48,43.2145483 44.9952166,40.1309013 41.2406498,40.004059 L41,40 Z M41,37 L41.1166211,37.0067277 C41.6139598,37.0644928 42,37.4871642 42,38 C42,38.5522847 41.5522847,39 41,39 C40.4477153,39 40,38.5522847 40,38 C40,37.4871642 40.3860402,37.0644928 40.8833789,37.0067277 L41,37 Z" transform="translate(-26 -19)"/>
</svg>
