<svg xmlns="http://www.w3.org/2000/svg" width="96" height="66" viewBox="0 0 96 66">
  <path fill="#EA1B0A" fill-rule="evenodd" d="M22.53,42.72 L23,42.49 L24.19,43.18 C26.0706111,44.2521394 28.0103777,45.2170147 30,46.07 L30.24,45.85 C30.69,45.45 31.18,45.03 31.7,44.61 C29.4819181,43.6978991 27.3271365,42.6388824 25.25,41.44 L24.74,41.15 C25.6235847,40.1690471 26.1732726,38.9331245 26.31,37.62 L27.17,38.12 C29.5699808,39.5069612 31.8540675,41.0854223 34,42.84 C34.5533333,42.44 35.12,42.0466667 35.7,41.66 C33.3293379,39.6936042 30.7970269,37.9306877 28.13,36.39 L26,35.19 C25.634795,33.9681707 24.9057073,32.8867487 23.91,32.09 L23.91,28 C23.91,21.49 22.61,12.46 19.99,12.46 C17.37,12.46 16.1,21.48 16.1,28 L16.1,32.09 C15.1055921,32.8773684 14.3733654,33.9478142 14,35.16 L11.87,36.39 C6.25,39.65 -0.93,45.29 0.38,47.56 C0.826856694,48.1283304 1.54564577,48.411258 2.26,48.3 C5.39,48.3 11.44,45.7 15.8,43.18 L17.01,42.48 L17.5,42.72 C17.4758046,42.7879907 17.4590402,42.8584009 17.45,42.93 L15.1,76.93 C15.0805529,77.2071218 15.1772604,77.4798443 15.3669458,77.6828077 C15.5566312,77.885771 15.8221975,78.0006815 16.1,78.000003 L23.94,78.000003 C24.2178025,78.0006815 24.4833688,77.885771 24.6730542,77.6828077 C24.8627396,77.4798443 24.9594471,77.2071218 24.94,76.93 L22.59,42.93 C22.577727,42.8580194 22.5576071,42.7875995 22.53,42.72 Z M14.81,41.45 C10.21,44.1 5.06,46.13 2.56,46.29 C3.7,44.6 7.56,41.19 12.89,38.12 L13.78,37.61 C13.9139188,38.9219499 14.4600478,40.1577419 15.34,41.14 L14.81,41.45 Z M18.1,28 C18.1,21.85 19.1,16.76 20.02,15 C20.92,16.81 21.94,21.9 21.94,28 L21.94,31 C21.94,31 21.67,30.91 21.29,30.82 C20.8655732,30.7344594 20.4327822,30.6975547 20,30.71 C19.5733031,30.7091586 19.1476772,30.7527266 18.73,30.84 C18.5087265,30.8819132 18.2913135,30.9421199 18.08,31.02 L18.1,28 Z M15.75,37 C15.7390887,35.0258274 17.0829428,33.3015593 19,32.83 C19.325291,32.7393776 19.6625037,32.6989121 20,32.71 C20.3368277,32.7115918 20.6723586,32.7518556 21,32.83 C23.1664354,33.3463755 24.5721609,35.4411152 24.2289662,37.6416386 C23.8857714,39.842162 21.908929,41.4093545 19.6881387,41.2414961 C17.4673484,41.0736376 15.7485322,39.2271087 15.74,37 L15.75,37 Z M84.12,36.41 L82,35.19 C81.634795,33.9681707 80.9057073,32.8867487 79.91,32.09 L79.91,28 C79.91,21.49 78.61,12.46 75.99,12.46 C73.37,12.46 72.1,21.48 72.1,28 L72.1,32.09 C71.1055921,32.8773684 70.3733654,33.9478142 70,35.16 L67.87,36.39 C65.2068175,37.9280129 62.6778822,39.6875631 60.31,41.65 C60.85,42.01 61.43,42.4 62.02,42.82 C64.1730436,41.0714287 66.4638278,39.4996498 68.87,38.12 L69.76,37.61 C69.8939188,38.9219499 70.4400478,40.1577419 71.32,41.14 L70.79,41.45 C68.7189833,42.6445137 66.5709234,43.7001698 64.36,44.61 C64.94,45.08 65.5,45.61 66.04,46.07 C68.0091943,45.214934 69.9288762,44.2500852 71.79,43.18 L73,42.48 L73.49,42.72 C73.4658046,42.7879907 73.4490402,42.8584009 73.44,42.93 L71.09,76.93 C71.0705529,77.2071218 71.1672604,77.4798443 71.3569458,77.6828077 C71.5466312,77.885771 71.8121975,78.0006815 72.09,78.000003 L79.93,78.000003 C80.2078025,78.0006815 80.4733688,77.885771 80.6630542,77.6828077 C80.8527396,77.4798443 80.9494471,77.2071218 80.93,76.93 L78.58,42.93 C78.567727,42.8580194 78.5476071,42.7875995 78.52,42.72 L78.99,42.49 L80.18,43.18 C84.54,45.7 90.59,48.3 93.72,48.3 C94.4343542,48.411258 95.1531433,48.1283304 95.6,47.56 C96.93,45.29 89.76,39.65 84.11,36.39 L84.12,36.41 Z M74.1,28 C74.1,21.85 75.1,16.76 76.02,15 C76.92,16.81 77.94,21.9 77.94,28 L77.94,31 C77.7286031,30.922379 77.5112117,30.8621783 77.29,30.82 C76.8649186,30.7391298 76.4326366,30.7022686 76,30.71 C75.5731497,30.7059752 75.1471825,30.7495781 74.73,30.84 C74.34,30.93 74.08,31.02 74.08,31.02 L74.1,28 Z M76,41.25 C73.8385129,41.2473811 72.0198905,39.629994 71.7649731,37.4835899 C71.5100557,35.3371858 72.8992541,33.3388223 75,32.83 C75.325291,32.7393776 75.6625037,32.6989121 76,32.71 C76.3368277,32.7115918 76.6723586,32.7518556 77,32.83 C79.1007459,33.3388223 80.4899443,35.3371858 80.2350269,37.4835899 C79.9801095,39.629994 78.1614871,41.2473811 76,41.25 L76,41.25 Z M81.18,41.45 L80.67,41.16 C81.5535847,40.1790471 82.1032726,38.9431245 82.24,37.63 L83.1,38.13 C88.4,41.19 92.29,44.61 93.43,46.29 C90.95,46.13 85.79,44.1 81.19,41.45 L81.18,41.45 Z M67.62,52.56 C68.93,50.29 61.76,44.65 56.12,41.39 L54,40.19 C53.634795,38.9681707 52.9057073,37.8867487 51.91,37.09 L51.91,33 C51.91,26.49 50.61,17.46 47.99,17.46 C45.37,17.46 44.1,26.48 44.1,33 L44.1,37.09 C43.1055921,37.8773684 42.3733654,38.9478142 42,40.16 L39.87,41.39 C34.23,44.65 27.06,50.28 28.37,52.56 C28.8168567,53.1283304 29.5356458,53.411258 30.25,53.3 C33.38,53.3 39.43,50.7 43.79,48.18 L45,47.48 L45.49,47.72 C45.4658046,47.7879907 45.4490402,47.8584009 45.44,47.93 L43.09,81.93 C43.0705529,82.2071218 43.1672604,82.4798443 43.3569458,82.6828077 C43.5466312,82.885771 43.8121975,83.0006815 44.09,83.000003 L51.93,83.000003 C52.2078025,83.0006815 52.4733688,82.885771 52.6630542,82.6828077 C52.8527396,82.4798443 52.9494471,82.2071218 52.93,81.93 L50.58,47.93 C50.567727,47.8580194 50.5476071,47.7875995 50.52,47.72 L50.99,47.49 L52.18,48.18 C56.54,50.7 62.59,53.3 65.72,53.3 C66.4409607,53.4189393 67.1694004,53.1352312 67.62,52.56 Z M42.81,46.45 C38.21,49.1 33.06,51.13 30.57,51.29 C31.71,49.6 35.57,46.19 40.9,43.12 L41.79,42.61 C41.9239188,43.9219499 42.4700478,45.1577419 43.35,46.14 L42.81,46.45 Z M46.1,33 C46.1,26.85 47.1,21.76 48.02,20 C48.92,21.81 49.94,26.9 49.94,33 L49.94,36 C49.7286031,35.922379 49.5112117,35.8621783 49.29,35.82 C48.8649186,35.7391298 48.4326366,35.7022686 48,35.71 C47.5734058,35.711163 47.1479828,35.7547102 46.73,35.84 C46.4,35.91 46.08,36.02 46.08,36.02 L46.1,33 Z M48,46.25 C45.8385129,46.2473811 44.0198905,44.629994 43.7649731,42.4835899 C43.5100557,40.3371858 44.8992541,38.3388223 47,37.83 C47.325291,37.7393776 47.6625037,37.6989121 48,37.71 C48.3368277,37.7115918 48.6723586,37.7518556 49,37.83 C51.1007459,38.3388223 52.4899443,40.3371858 52.2350269,42.4835899 C51.9801095,44.629994 50.1614871,46.2473811 48,46.25 L48,46.25 Z M53.18,46.45 L52.67,46.16 C53.5535847,45.1790471 54.1032726,43.9431245 54.24,42.63 L55.1,43.13 C60.4,46.19 64.29,49.61 65.43,51.29 C62.95,51.13 57.79,49.1 53.19,46.45 L53.18,46.45 Z" transform="translate(0 -17)"/>
</svg>
