<svg width="4800" height="1200" viewBox="0 0 4800 1200" xmlns="http://www.w3.org/2000/svg"><path d="M3600 1150v250c0 250-163 400-363.5 400h-1673c-200 0-363.5-150-363.5-400v-250a50 50 0 01100 0v250c0 200 118.5 300 263.5 300h1673c145 0 263.5-100 263.5-300v-250a50 50 0 01100 0zM2600 100h400V0h-400v100zm0 300h400V300h-400v100zm0 300h400V600h-400v100zm-300-575h150V-25h-150v150zm0 300h150V275h-150v150zm0 300h150V575h-150v150zm300 275h400V900h-400v100zm-300 25h150V875h-150v150zm-700-25V-400a100 100 0 01100-100h1000a100 100 0 01100 100v150h350a100 100 0 01100 100v1400a100 100 0 01-100 100H2150a100 100 0 01-100-100v-150h-350a100 100 0 01-100-100zM2800-150h-650v1400h1000V-150h-350zM1700 1000h350V850h-200V750h200V600h-200V500h200V350h-200V250h200V100h-200V0h200v-150h-200v-100h850v-150H1700v1400z" fill-rule="evenodd"/></svg>