<svg width="4800" height="1200" viewBox="0 0 4800 1200" xmlns="http://www.w3.org/2000/svg"><path d="M3300-300a100 100 0 00-100-100H1600a100 100 0 00-100 100v500a100 100 0 0014 50 100 100 0 00-14 50v500a100 100 0 0014 50 100 100 0 00-14 50v500a100 100 0 00100 100h1600a100 100 0 00100-100V900a100 100 0 00-14-50 100 100 0 0014-50V300a100 100 0 00-14-50 100 100 0 0014-50v-500zm-1700 0h1600v500H1600v-500zM3200 800H1600V300h1600v500zm0 600H1600V900h1600v500zm-300-250a100 100 0 11200 0 100 100 0 01-200 0zm0-600a100 100 0 11200 0 100 100 0 01-200 0zm200-600a100 100 0 11-200 0 100 100 0 01200 0z" fill-rule="evenodd"/></svg>