<svg width="4800" height="1200" viewBox="0 0 4800 1200" xmlns="http://www.w3.org/2000/svg"><path d="M3300 600v-750a100 100 0 00-100-100h-125a312 312 0 0032-273 277 277 0 00-257-177 274 274 0 00-100 18.5c-93.5 36-260.5 225.5-350 334-90.5-108.5-257.5-300-350-334a274.5 274.5 0 00-100-18.5 277.5 277.5 0 00-257 176.5 269 269 0 0042.5 245c6.5 10 14 19 21.5 28h-157a100 100 0 00-100 100V600a50 50 0 000 100v750a100 100 0 00100 100h750a50 50 0 00100 0h750a100 100 0 00100-100V700a50 50 0 000-100zm-100 0h-750v-750h750v750zM2787-588a175.5 175.5 0 01227 100c36 91-14 238-114 238h-450s246.5-303.5 337-338zM1787-488a175.5 175.5 0 01227-100c89.5 34.5 336 338 336 338h-400c-100 0-200-147-164-237.5l1-.5zm-187 338h750v750h-750v-750zm0 1600V700h750v750h-750zm1600 0h-750V700h750v750z" fill-rule="evenodd"/></svg>