<svg width="4800" height="1200" viewBox="0 0 4800 1200" xmlns="http://www.w3.org/2000/svg"><path d="M3482.25-700a100 100 0 0192.85 62.85l220.05 550A100.1 100.1 0 013702.25 50H3650v1950c0 82.7-67.3 150-150 150H2500c-38.4 0-73.5-14.5-100.05-38.35l-6.2 5.35a149.3 149.3 0 01-93.75 33H1300c-82.75 0-150-67.3-150-150V50h-52.3a100 100 0 01-92.85-137.15l220-550a100 100 0 0192.8-62.85zM3550 50H2450v1950a50 50 0 0050 50h250v-750h500v750h250c27.6 0 50-22.45 50-50V50zm-1200 0H1250v1950c0 27.55 22.4 50 50 50h250v-750h500v750h250c27.6 0 50-22.45 50-50V50zm800 1350h-300v650h300v-650zm-1200 0h-300v650h300v-650zM3350 300v500h-700V300h700zm-1200 0v500h-700V300h700zm1100 100h-200v300h200V400zm-300 0h-200v300h200V400zm-1200 0h-200v300h200V400zm300 0h-200v300h200V400z" fill-rule="evenodd"/></svg>