<svg width="4800" height="1200" viewBox="0 0 4800 1200" xmlns="http://www.w3.org/2000/svg"><path d="M2998.65-950v330.45l490 282.95a100.1 100.1 0 0146.6 112.5 100.1 100.1 0 01-96.6 74.1H3325v1900c0 55.15-44.85 100-100 100H1625c-55.15 0-100-44.85-100-100V-150h-163.6a100.1 100.1 0 01-96.6-74.1 100.1 100.1 0 0146.6-112.5l1039.2-600a99.4 99.4 0 0197.95-.5l300.1 173.25V-950h250zM3225-150H1625v1900h975V950h500v800h125V-150zm-225 1200h-300v700h300v-700zm-550-100v500h-700V950h700zm-100 100h-200v300h200v-300zm-300 0h-200v300h200v-300zM2450 0v500h-700V0h700zm600 0v500h-400V0h400zm-700 100h-200v300h200V100zm-300 0h-200v300h200V100zm900 0h-200v300h200V100zm-550-949.65L1361.4-250h2077.25L2400-849.65z" fill-rule="evenodd"/></svg>