<svg width="4800" height="1200" viewBox="0 0 4800 1200" xmlns="http://www.w3.org/2000/svg"><path d="M2699.45 0a100 100 0 0149.9 13.35L3048.6 186.1V0h250v330.45l490 282.95a100.05 100.05 0 01-50 186.6H3625v950c0 55.15-44.85 100-100 100H1325c-55.1 0-100-44.85-100-100V800h-163.65a100.05 100.05 0 01-50-186.6l1039.2-600a100.2 100.2 0 0150-13.4zM3525 800H1325v950h975V950h500v800h725V800zm-825 250h-300v700h300v-700zm-550-100v500h-700V950h700zm1225 0v500h-400V950h400zm-1325 100h-200v300h200v-300zm-300 0h-200v300h200v-300zm1525 0h-200v300h200v-300zm-575.55-950h-598.9L1061.3 700h2677.25L2699.4 100z" fill-rule="evenodd"/></svg>