<svg width="4800" height="1200" viewBox="0 0 4800 1200" xmlns="http://www.w3.org/2000/svg"><path d="M2345.3-74a100.15 100.15 0 01109.4 0L2775 135.2V-50h250v348.45l486.7 317.85a100.6 100.6 0 0141.25 112.2 100.8 100.8 0 01-95.9 71.5H3325v950c0 55.15-44.85 100-100 100H1575c-55.15 0-100-44.85-100-100V800h-132.05a100.7 100.7 0 01-95.85-71.4 100.55 100.55 0 0141.25-112.35zM3225 800H1575v950h975V950h500v800h175V800zm-275 250h-300v700h300v-700zm-550-100v500h-700V950h700zm-100 100h-200v300h200v-300zm-300 0h-200v300h200v-300zM2400 9.75L1342.95 700h2114.1L2400 9.75z" fill-rule="evenodd"/></svg>