<svg width="4850" height="1200" viewBox="0 0 4850 1200" xmlns="http://www.w3.org/2000/svg"><path d="M3350-500H1550a300 300 0 00-300 300V920.5l.2 11.2a300 300 0 00299.8 288.75h551.2l748.75 571.85c13.05 10 29.05 15.4 45.5 15.4l7.25-.35a75 75 0 0067.75-74.65v-512.2H3350a300 300 0 00300-300V-200a300 300 0 00-300-300zM1550-400h1800a200 200 0 01200 200V920.5a200 200 0 01-200 200h-429.5l-5.9.3a50 50 0 00-44.15 49.65v511.7l-722-551.45a50 50 0 00-30.4-10.25H1550a200 200 0 01-200-200V-200a200 200 0 01200-200zM2275 0a75 75 0 0175 75v356.5a50 50 0 01-12 32.5l-280.5 327.25a25 25 0 01-19 8.75H1969a12.5 12.5 0 01-11.5-17.4l135-315.2A12.5 12.5 0 002081 450h-56a75 75 0 01-75-75V75a75 75 0 0175-75m850 0a75 75 0 0175 75v356.5a50 50 0 01-12 32.5l-280.5 327.25a25 25 0 01-19 8.75H2569a12.5 12.5 0 01-11.5-17.4l135-315.2A12.5 12.5 0 002681 450h-56a75 75 0 01-75-75V75a75 75 0 0175-75" fill-rule="evenodd"/></svg>