<svg width="4800" height="1200" viewBox="0 0 4800 1200" xmlns="http://www.w3.org/2000/svg"><path d="M3505 254.5c-67.5 590-783 1237-1055 1237-174 0-478.5-260.5-689-518a50.1 50.1 0 1177.5-63.5c243 297.5 506.5 481.5 611.5 481.5 206.5 0 892.5-597 955.5-1150 22.5-200-10.5-453.5-300-532.5C2850-359.5 2485-72.5 2481-69.5a50 50 0 01-62.5 0c-3.5-3-370-290-627-220-288.5 79-321.5 333-300 532.5a929.5 929.5 0 0066.5 250h307l137-319.5a50 50 0 0150-30 50 50 0 0145.5 34l169 507 193-270a50 50 0 0140.5-21h300a50 50 0 010 100h-274.5l-235 329a50 50 0 01-40.5 21h-7.5a50 50 0 01-40-33.5L2044 335l-100 229a50 50 0 01-46 30.5h-848a50 50 0 010-100h400a1000 1000 0 01-58.5-237C1353-79 1485-306.5 1763-382.5c262.5-74.5 587 138 687 211.5 100-73.5 423-286 683-214.5 278.5 76.5 410.5 303.5 372 640z" fill-rule="evenodd"/></svg>