<svg width="4800" height="1200" viewBox="0 0 4800 1200" xmlns="http://www.w3.org/2000/svg"><path d="M3300-150h-500v-150c0-55-45-100-100-100h-600c-55 0-100 45-100 100v150h-500c-110.5 0-200 89.5-200 200v1200c0 110.5 89.5 200 200 200h1800c110.5 0 200-89.5 200-200V50c0-110-90-200-200-200zM2100-300h600v150h-600v-150zm787.5 938a321.15 321.15 0 01-351.5 69c-5-2-10-5-15-7l-519 518.5c-41.5 41.5-108 41.5-149.5 0s-41.5-108 0-149.5l519-519-7.5-15a321.3 321.3 0 01389-432c3 1 5.5 2 8.5 3L2573 294.5l49 154.5 154 49 188.5-188.5c1 3 2 5.5 3 8.5 33.5 110 6.5 233.5-80 320z" fill-rule="evenodd"/></svg>