<svg width="4800" height="1200" viewBox="0 0 4800 1200" xmlns="http://www.w3.org/2000/svg"><path d="M4300 841.5c4.75 302.25-235.3 551.65-537.5 558.5H3367a686.5 686.5 0 00-67-753.5 667.5 667.5 0 00-263.5-200 753 753 0 00-208-427.5 733 733 0 00-78.5-69 605.5 605.5 0 01518.5-300c344 6.85 617.4 291 611 635v11A554.5 554.5 0 014300 841.5zm-950 232a571 571 0 01-565.5 576.5H1312a467 467 0 01-462-471.5A472.05 472.05 0 011118.5 750 436.5 436.5 0 011550 316a422 422 0 01155 30 633.5 633.5 0 011238.5 174.5 575 575 0 01406.5 553zm-100 0a474.5 474.5 0 00-365.5-465L2847 600v-50a550 550 0 00-157.5-387.5A530.5 530.5 0 002310 0a540.5 540.5 0 00-524.5 426.5L1771 492l-57.5-33a329 329 0 00-400 56.5 343 343 0 00-100 241V817l-34.5 13a374.5 374.5 0 00-130.5 610 358.5 358.5 0 00263.5 110h1472.5a460.5 460.5 0 00330-139.5 479.55 479.55 0 00135.5-337z" fill-rule="evenodd"/></svg>