<svg width="4800" height="1200" viewBox="0 0 4800 1200" xmlns="http://www.w3.org/2000/svg"><path d="M1400 1411a50 50 0 01-50 50h-75.5l28.5 70a50 50 0 01-92.5 38l-35.5-87-82.5 45a50.4 50.4 0 11-50-87.5l66-36.5-58.5-47a50.15 50.15 0 1163-78l61.5 50 26.5-75a50 50 0 1194 33.5l-26.5 74.5h81.5a50 50 0 0150 50zm775-50h-79.5l26.5-74.5a50 50 0 10-94-33.5l-28 75-61.5-50a50.15 50.15 0 00-63 78l58.5 47.5-66 36.5a50.4 50.4 0 0050 87.5l82.5-45 35.5 87a50 50 0 1092.5-38L2100 1461h75a50 50 0 000-100zm825 0h-79.5l26.5-74.5a50 50 0 10-94-33.5l-26.5 75-61.5-50a50.767 50.767 0 10-65 78l58.5 47.5-66 36.5a50.4 50.4 0 0050 87.5l82.5-45 35.5 87a50 50 0 1092.5-38l-28.5-70h75.5a50 50 0 000-100v-.5zm-1246.5 455.5H1674l26-74.5a50 50 0 10-94-33.5l-26.5 74.5-61.5-50a50.15 50.15 0 10-63 78l58.5 47.5-63.5 36.5a50.4 50.4 0 0050 87.5l82.5-45.5 36 87a50 50 0 1092.5-38l-28.5-70h75.5a50 50 0 000-100l-4.5.5zm825 0H2500l26.5-74.5a50 50 0 10-94-33.5L2406 1783l-61.5-50a50.15 50.15 0 00-63 78l58.5 47.5-66 36.5a50.4 50.4 0 0050 87.5l82.5-45.5 36 87a50 50 0 1092.5-38l-28.5-70h75.5a50 50 0 000-100l-3.5.5zm56-716.5H1162a467 467 0 01-462-471.5A472.05 472.05 0 01968.5 200 436.5 436.5 0 011400-234a422 422 0 01155 30A633.5 633.5 0 012795-29.5 578 578 0 012634.5 1100zm330-240A479.55 479.55 0 003100 523.5a474.5 474.5 0 00-365.5-465L2697 50V0a550 550 0 00-157.5-387.5A530.5 530.5 0 002160-550a540.5 540.5 0 00-524.5 426.5L1621-58l-57.5-33a329 329 0 00-400 56.5 343 343 0 00-100 241V267l-34.5 13a374.5 374.5 0 00-130.5 610 359 359 0 00263.5 110h1472.5A460.5 460.5 0 002965 860h-.5zm765-1114v-11c6.4-344-267-628.15-611-635A605.5 605.5 0 002600-600c28.5 21.35 55.4 44.75 80.5 70a750 750 0 01208 427.5 667 667 0 01263.5 200 686.5 686.5 0 0165.5 752.5H3613c302-7.1 541.75-256.45 537-558.5A554.5 554.5 0 003729.5-254z" fill-rule="evenodd"/></svg>