<svg width="4800" height="1200" viewBox="0 0 4800 1200" xmlns="http://www.w3.org/2000/svg"><path d="M2400 100c276.15 0 500 223.85 500 500s-223.85 500-500 500-500-223.85-500-500 223.85-500 500-500zm0-100c-331.35 0-600 268.65-600 600s268.65 600 600 600 600-268.65 600-600S2731.35 0 2400 0zm50-200v-250a50 50 0 00-100 0v250a50 50 0 00100 0zm0 1850v-250a50 50 0 00-100 0v250a50 50 0 00100 0zM1650 600a50 50 0 00-50-50h-250a50 50 0 000 100h250a50 50 0 0050-50zm1850 0a50 50 0 00-50-50h-250a50 50 0 000 100h250a50 50 0 0050-50zM1870 70a50 50 0 000-70.5l-177-177a50 50 0 00-70.5 70.5L1800 70a50 50 0 0070.5 0h-.5zm1308 1308a50 50 0 000-70.5L3000 1130a50 50 0 10-70 70l177 177a50 50 0 0070.5 0l.5 1zm-1485 0l177-178a50 50 0 00-70-70l-177 177a50 50 0 1070.5 70.5l-.5.5zM3000 70l177-177a50 50 0 10-70.5-70.5L2930 0a50 50 0 1070 70z" fill-rule="evenodd"/></svg>