<svg width="4800" height="1200" viewBox="0 0 4800 1200" xmlns="http://www.w3.org/2000/svg"><path d="M3244.5 370.5A633.5 633.5 0 002006 196a422 422 0 00-155-30 436.5 436.5 0 00-432.5 434 472.05 472.05 0 00-268.5 428.5 467 467 0 00462 471.5h1472.5a578 578 0 00160-1129.5zM3415 1260a460.5 460.5 0 01-330.5 140H1612a358.55 358.55 0 01-257-108.5 374.5 374.5 0 01130.5-610l34.5-13V608a343 343 0 01100-241 329 329 0 01400-56.5l57.5 33L2092 278a540.5 540.5 0 01518-428 530.5 530.5 0 01380 160.5A550 550 0 013150 400v50l39 9a474.5 474.5 0 01361 464.5 479.6 479.6 0 01-135 336.5z" fill-rule="evenodd"/></svg>