<svg width="4800" height="1200" viewBox="0 0 4800 1200" xmlns="http://www.w3.org/2000/svg"><path d="M1550 1900a50 50 0 01-47.5-66l50-150a50.043 50.043 0 0195 31.5l-50 150a50 50 0 01-47.5 34.5zm197.5-484l50-150a50.043 50.043 0 10-95-31.5l-50 150a50.043 50.043 0 0095 31.5zm-750 450l50-150a50.043 50.043 0 00-95-31.5l-50 150a50.043 50.043 0 1095 31.5zm150-450l50-150a50.043 50.043 0 10-95-31.5l-50 150a50.043 50.043 0 0095 31.5zm200 200l50-150a50.043 50.043 0 10-95-31.5l-50 150a50.043 50.043 0 1095 31.5zm550 250l200-600a50.043 50.043 0 10-95-31.5l-200 600a50.043 50.043 0 1095 31.5zm300 0l50-150a50.043 50.043 0 10-95-31.5l-50 150a50.043 50.043 0 1095 31.5zm550-150l50-150a50.043 50.043 0 10-95-31.5l-50 150a50.043 50.043 0 1095 31.5zm-250 150l200-600a50.043 50.043 0 10-95-31.5l-200 600a50.043 50.043 0 1095 31.5zm1232-2120v-11c6.4-344-267-628.15-611-635A605.5 605.5 0 002600-600c28.5 21.2 55.4 44.4 80.5 69.5a750 750 0 01208 427.5A667 667 0 013152 97a686.5 686.5 0 0165.5 753H3613c302-7.1 541.75-256.45 537-558.5A554.5 554.5 0 003729.5-254zM3200 523.5a571 571 0 01-565.5 576.5H1162a467 467 0 01-462-471.5A472.05 472.05 0 01968.5 200 436.5 436.5 0 011400-234a422 422 0 01155 30A633.5 633.5 0 012795-29.5a575 575 0 01405 553zm-100 0a474.5 474.5 0 00-365.5-465L2697 50V0a550 550 0 00-157.5-387.5A530.5 530.5 0 002160-550a540.5 540.5 0 00-524.5 426.5L1621-58l-57.5-33a329 329 0 00-400 56.5 343 343 0 00-100 241V267l-34.5 13a374.5 374.5 0 00-130.5 610 359 359 0 00263.5 110h1472.5a460.5 460.5 0 00330-139.5 479.55 479.55 0 00135.5-337z" fill-rule="evenodd"/></svg>