<svg width="1600" height="1200" viewBox="0 0 1600 1200" xmlns="http://www.w3.org/2000/svg"><path d="M800 100c359 0 650 291 650 650 0 76.75-13.3 151.65-39 222.35a50.014 50.014 0 01-94-34.2c21.75-59.75 33-123.1 33-188.15 0-303.75-246.25-550-550-550S250 446.25 250 750c0 65 11.25 128.35 33 188.15a50 50 0 01-93.95 34.2A649.1 649.1 0 01150 750c0-359 291-650 650-650zM574.8 360.35a50 50 0 0158.7 6.35l4.1 4.2 256.7 297.35A125 125 0 11684.45 798.3l-2.8-7.3-129.1-371a49.9 49.9 0 0122.25-59.65z" fill-rule="evenodd"/></svg>