<svg width="1600" height="1200" viewBox="0 0 1600 1200" xmlns="http://www.w3.org/2000/svg"><path d="M1029.25-100a50 50 0 0150 50v253.1l131.7-228.05a49.85 49.85 0 0163.1-20.95l5.2 2.65 216.5 125a50.1 50.1 0 0121.2 62.35l-2.9 5.95-434.8 753V1250a50 50 0 01-50 50h-900a50 50 0 01-50-50V-50a50 50 0 0150-50h900zm-50 100h-800v1200h800v-186.9l-168.3 89.5a50.85 50.85 0 01-17.4 5.5l-6 .35a50 50 0 01-19.1-3.8l-5.95-2.9-5.35-3.55a50.05 50.05 0 01-19-31.65l-.65-6.35-7.35-210.2h-450.9V750H763.5l57.75-100h-542V550h599.7l100.3-173.7V0zm-550 950v100h-150V950h150zm743.3-708.5l-325 562.95 129.9 75 325-562.9-129.9-75zM779.25 350v100h-500V350h500zm100-200v100h-600V150h600zm393.3-81.65l-50 86.5 129.9 75 50-86.5-129.9-75z" fill-rule="evenodd"/></svg>