<svg width="1600" height="1200" viewBox="0 0 1600 1200" xmlns="http://www.w3.org/2000/svg"><path d="M1300 100l10 .25a200.25 200.25 0 01189.75 189.5L1500 300v600c0 107-84.35 194.5-190 199.75l-10 .25H300a200.2 200.2 0 01-199.75-190l-.25-10V300c0-107 84.35-194.5 190-199.75l10-.25h1000zm100 500H200v300c0 52.65 40.85 95.9 92.5 99.75l7.5.25h1000l7.5-.25a100.15 100.15 0 0092.2-91.95l.3-7.8V600zm0-200H200v100h1200V400zm-100-200H300l-7.5.25a100.15 100.15 0 00-92.2 91.95l-.3 7.8h1200a100.1 100.1 0 00-92.5-99.75l-7.5-.25zM950 700H350a50 50 0 100 100h600a50 50 0 100-100z" fill-rule="evenodd"/></svg>