<svg width="1600" height="1200" viewBox="0 0 1600 1200" xmlns="http://www.w3.org/2000/svg"><path d="M867.5 918.6c60.3 0 111.6-13.5 154.85-35.1l-31.5-115.2a238.35 238.35 0 01-116.1 31.5c-51.35 0-89.15-35.1-108.05-91.8h138.65l26-80.1H754.1c-.85-8.1-.85-16.2-.85-25.2v-16.2h189.9l27-80.1H760.4c12.6-59.4 40.5-96.3 103.5-96.3 47.75 0 90.9 13.5 123.35 27l40.45-111.6c-52.2-21.6-96.3-34.2-160.2-34.2-152.1 0-224.05 82.8-245.7 215.1h-49.5v80.1h41.45v41.4h-41.4V708h50.35c26.1 138.6 109.85 210.6 244.8 210.6" fill-rule="evenodd"/></svg>