<svg width="1600" height="1200" viewBox="0 0 1600 1200" xmlns="http://www.w3.org/2000/svg"><path d="M849.05 1001.4V915c100.8-15.25 174.55-79.2 174.55-187.2 0-71.95-32.35-134-150.3-170.95l-24.25-7.2v-139.5a119.4 119.4 0 0177.4 47.65l92.65-76.45c-31.5-43.2-81-81.95-170-89.1V225.6h-74.75v67.5c-124.25 16.2-171 100.8-171 187.2 0 72.9 31.5 136.75 145.8 172.75l25.2 8.1v139.5c-58.5-6.3-84.65-35.1-105.35-71.1l-92.65 79.2c24.25 45.05 81.9 101.75 198 108.9v83.75h74.7zm-74.7-477c-22.5-13.5-29.75-30.6-29.75-53.15 0-22.45 9.9-42.25 29.75-53.1v106.2zm74.7 268.15v-106.2c23.4 12.65 33.3 29.75 33.3 53.15 0 25.2-11.7 43.2-33.3 53.05z" fill-rule="evenodd"/></svg>