<svg width="1600" height="1200" viewBox="0 0 1600 1200" xmlns="http://www.w3.org/2000/svg"><path d="M1065.1 1023.15c59.05-96.8 97.05-226.8 104.25-373.15h128.1c-15.1 151.9-98.8 283.55-219.3 364.65l-13.05 8.5zM302.55 650H430.7c7.15 146.35 45.25 276.35 104.25 373.2-123.1-77.45-210.5-206.55-230.5-357L302.5 650zm232.4-473.2c-59 96.8-97.1 226.85-104.25 373.2H302.55C317.7 398.1 401.4 266.35 521.9 185.3l13.05-8.5zM850 550V109.25C965.2 150.9 1057.1 332.2 1069.45 550H850zm0 540.75V650h219.45c-12 212.25-99.6 389.85-210.65 437.3l-8.8 3.45zM750 650v440.75c-115.15-41.6-207.05-222.9-219.4-440.75H750zm0-540.7V550H530.6c12-212.2 99.6-389.8 210.6-437.25l8.8-3.45zM1297.45 550h-128.1c-7.15-146.35-45.2-276.35-104.25-373.15 123.1 77.4 210.5 206.55 230.5 357l1.85 16.15zM800 0C469.2 0 200 269.15 200 600s269.2 600 600 600c330.85 0 600-269.15 600-600C1400 274.25 1139.05 8.3 815.25.2L800 0z" fill-rule="evenodd"/></svg>