<svg width="1600" height="1200" viewBox="0 0 1600 1200" xmlns="http://www.w3.org/2000/svg"><path d="M903.1 200.15a405 405 0 00-2 80l2 20H850v800h188.6a132 132 0 01-6.15-30.85l-.4-10.5h90c0 26.95 19.2 41.35 51 41.35a46.35 46.35 0 0052.15-45.55c0-31.5-17.9-51.95-58.7-54.35l-8.45-.25h-39.55v-73.3h39.55c40.15 0 61.15-15.6 61.15-49.75a41.75 41.75 0 00-40-44.6l-6.15.2c-27.15 0-43 12.8-45.3 34.1l-.3 5.5h-90.55c0-64.65 40.8-115 136.15-115 85.75 0 139.7 47.2 139.7 115A92.25 92.25 0 011245 963.3a96.5 96.5 0 0173 96.7c-.05 10.3-1.6 20.5-4.55 30.3l-3.45 9.7h140a50 50 0 0049.65-44.15l.35-5.85V596.05a401.05 401.05 0 0087.4-68.45L1600 514v536.2a150 150 0 01-141.2 149.75l-8.8.25H150A150 150 0 01.25 1059l-.25-8.85v-700A150 150 0 01141.2 200.4l8.8-.25h753.1zM750 300H150a50 50 0 00-49.65 44.15L100 350v700a50 50 0 0044.15 49.65l5.85.35h600V300zM411.2 493.4l9.3.65A125 125 0 01556 620.55a233.8 233.8 0 01-73.25 140.5l-9.45 8.25-60 63.5H557V906H292.6v-61.75l120.5-128.9a143.5 143.5 0 0050-94.75c0-27.3-11.9-47.85-36.65-50.65l-5.95-.35-6.2.3c-25.95 2.65-38.15 22.4-39.75 52.9l-.2 7.2h-90A123.4 123.4 0 01411.2 493.4zm676.7-455.5a300 300 0 11424.25 424.25 300.008 300.008 0 01-424.25-424.3zm353.5 90.1a47.25 47.25 0 00-31.3 11.9l-145.45 145.45-70.7-70.7a50 50 0 00-74.9 66l4.15 4.7 141.45 141.45 212.15-212.15a47.25 47.25 0 004.05-66.65l-8.1-8.1a47.25 47.25 0 00-31.35-11.9z" fill-rule="evenodd"/></svg>