<svg width="1600" height="1200" viewBox="0 0 1600 1200" xmlns="http://www.w3.org/2000/svg"><path d="M742.05 1377.15a100 100 0 00115.95 0c17.5-12.5 34.9-24.85 52.15-37a2389.7 2389.7 0 00380.8-308.1A795 795 0 001504.6 540c2.65-28.85 5.8-59.15 8.95-89.1 4.25-40.5 8.4-80.35 11.1-115a758 758 0 00-4.05-187.4A320.7 320.7 0 001435.3-25a415.75 415.75 0 00-191.7-104.3c-114.2-28.55-230.1-50-347-64.1a743.35 743.35 0 00-193.15 0 2833.95 2833.95 0 00-347.1 64.25A415.75 415.75 0 00164.65-25a320.6 320.6 0 00-85 173.15 755.5 755.5 0 00-4 187.4c2.65 34.5 6.8 74.3 11.05 115 3.15 30 6.35 60.45 9 89.3A795 795 0 00309.05 1032 2390 2390 0 00690 1340l52.05 37.15zm6.5-118l51.45 36.5 51.45-36.5c312.25-221.25 520.7-368.9 553.5-728.45 2.95-32.4 6.25-63.55 9.4-93.4 25.65-243.75 42.5-403.65-197.45-470a2730.35 2730.35 0 00-333.4-61.5 640 640 0 00-167.05 0 2733.5 2733.5 0 00-333.5 61.5c-240 66.4-223.05 226.2-197.4 470 3.15 30 6.45 61.15 9.4 93.6 32.8 359.55 241.3 507.2 553.55 728.45l.05-.2zm-115-763.5H966.9A83.3 83.3 0 011050 579v328.7H550V579a83.3 83.3 0 0183.3-83.35h.25zm247.7-107.9A145.85 145.85 0 11935 322.3c-11.1 26.7-29.9 49.5-53.95 65.45h.2z" fill-rule="evenodd"/></svg>