<svg width="1600" height="1200" viewBox="0 0 1600 1200" xmlns="http://www.w3.org/2000/svg"><path d="M411.1 918.2a49.992 49.992 0 1170.7 70.7l-141.4 141.4a49.85 49.85 0 01-70.7 0 49.95 49.95 0 010-70.7zM800 250c96.5 0 184 39.25 247.35 102.65h-.05a348.7 348.7 0 01102.35 232.2L1150 600c0 193-157 350-350 350a348.9 348.9 0 01-247.35-102.65A348.9 348.9 0 01450 600c0-193 157-350 350-350zm0 100c-137.85 0-250 112.15-250 250 0 68.95 28.05 131.45 73.3 176.7v-.05l353.35-353.4a249.25 249.25 0 00-163.8-72.9zM300 550a50 50 0 010 100H100a50 50 0 010-100h200zm959.6-480.3a49.992 49.992 0 1170.7 70.7l-141.4 141.4a49.85 49.85 0 01-70.7 0 49.95 49.95 0 010-70.7zm-989.9 0a49.95 49.95 0 0170.7 0l141.4 141.4a49.992 49.992 0 11-70.7 70.7L269.7 140.4a49.95 49.95 0 010-70.7zM800-150a50 50 0 0150 50v200a50 50 0 01-100 0v-200a50 50 0 0150-50z" fill-rule="evenodd"/></svg>