<?xml version="1.0" encoding="UTF-8"?>
<svg width="32px" height="32px" viewBox="0 0 32 32" version="1.1" xmlns="http://www.w3.org/2000/svg" xmlns:xlink="http://www.w3.org/1999/xlink">
    <title>icon/container/connect/communities</title>
    <g id="Icons-variable-width---for-Exporting-only" stroke="none" stroke-width="1" fill="none" fill-rule="evenodd">
        <g id="icon-/-32-/-communities" fill="#39393A">
            <path d="M4,18.125 C4,13.625 6.4,9.625 10.2,7.525 C10.4,8.225 10.6,8.825 11,9.325 C7.99393939,11.0704545 6.11625344,14.2263774 6.00521468,17.6985871 L6,18.125 C5.3,18.025 4.7,18.025 4,18.125 Z M16,28.025 C14.1,28.025 12.1,27.425 10.5,26.325 L10.2381924,26.8369534 C10.0122449,27.2596939 9.75714286,27.6678571 9.4,28.025 C13.4,30.625 18.5,30.625 22.5,28.025 C22,27.525 21.7,26.925 21.4,26.325 C19.9,27.425 18,28.025 16,28.025 Z M25.9947853,17.6985871 L26,18.025 C26.7,18.025 27.3,18.025 28,18.125 L28,18.025 C28,13.625 25.6,9.625 21.8,7.525 C21.6,8.225 21.4,8.825 21,9.325 C24.0060606,11.0704545 25.8837466,14.2263774 25.9947853,17.6985871 Z M16,10.025 C18.2,10.025 20,8.225 20,6.025 C20,3.825 18.2,2.025 16,2.025 C13.8,2.025 12,3.825 12,6.025 C12,8.225 13.8,10.025 16,10.025 Z M5,20.025 C2.8,20.025 1,21.825 1,24.025 C1,26.225 2.8,28.025 5,28.025 C7.2,28.025 9,26.225 9,24.025 C9,21.825 7.2,20.025 5,20.025 Z M27,20.025 C24.8,20.025 23,21.825 23,24.025 C23,26.225 24.8,28.025 27,28.025 C29.2,28.025 31,26.225 31,24.025 C31,21.825 29.2,20.025 27,20.025 Z" id="â—-icon"></path>
        </g>
    </g>
</svg>