<?xml version="1.0" encoding="UTF-8"?>
<svg width="32px" height="32px" viewBox="0 0 32 32" version="1.1" xmlns="http://www.w3.org/2000/svg" xmlns:xlink="http://www.w3.org/1999/xlink">
    <title>icon/container/connect/emergency_numbers</title>
    <g id="Icons-variable-width---for-Exporting-only" stroke="none" stroke-width="1" fill="none" fill-rule="evenodd">
        <g id="icon-/-32-/-emergency-numbers" fill="#39393A">
            <path d="M6.672727,28.793104 L25.327273,28.793104 L25.327273,26.365518 L6.672727,26.365518 L6.672727,28.793104 Z M15.945454,7.716138 C20.438909,7.716138 24.236364,11.557242 24.236364,16.103449 L24.236364,24.158621 L25.545454,24.158621 C26.591636,24.158621 27.509091,25.086621 27.509091,26.144828 L27.487273,29.228966 C27.272364,30.32138 26.486909,31 25.436364,31 L6.454545,31 C5.408364,31 4.490909,30.070897 4.490909,29.01269 L4.490909,26.144828 C4.490909,25.086621 5.408364,24.158621 6.454545,24.158621 L7.654545,24.158621 L7.654545,16.103449 C7.654545,11.557242 11.450909,7.716138 15.945454,7.716138 Z M15.945454,9.923035 C12.707054,9.923035 9.96093339,12.6289846 9.84048279,15.8809064 L9.836364,16.103449 L9.836364,24.158621 L22.054545,24.158621 L22.054545,16.103449 C22.054545,12.75338 19.256364,9.923035 15.945454,9.923035 Z M15.945454,5.730594 C15.343273,5.730594 14.854545,5.236249 14.854545,4.627145 L14.854545,1.978869 C14.854545,1.369766 15.343273,0.875421 15.945454,0.875421 C16.547636,0.875421 17.036364,1.369766 17.036364,1.978869 L17.036364,4.627145 C17.036364,5.236249 16.547636,5.730594 15.945454,5.730594 Z M7.343854,8.069573 L5.707491,5.973021 C5.3344,5.495228 5.414036,4.801159 5.887491,4.42378 C6.360945,4.0464 7.047127,4.126952 7.419127,4.605849 L9.055491,6.7024 C9.429673,7.180194 9.348945,7.874263 8.875491,8.251642 C8.675854,8.411642 8.436945,8.488883 8.200218,8.488883 C7.8784,8.488883 7.558764,8.345435 7.343854,8.069573 Z M23.689382,8.489214 C23.452654,8.489214 23.213745,8.411973 23.014109,8.251973 C22.541745,7.874594 22.461018,7.180525 22.834109,6.701628 L24.470473,4.605076 C24.843564,4.128387 25.529745,4.045628 26.0032,4.423007 C26.475564,4.800387 26.556291,5.494456 26.1832,5.973352 L24.546836,8.069904 C24.331927,8.345766 24.012291,8.489214 23.689382,8.489214 Z" id="â—-icon"></path>
        </g>
    </g>
</svg>