<?xml version="1.0" encoding="UTF-8"?>
<svg width="32px" height="32px" viewBox="0 0 32 32" version="1.1" xmlns="http://www.w3.org/2000/svg" xmlns:xlink="http://www.w3.org/1999/xlink">
    <title>icon/container/connect/newsfeed</title>
    <g id="Icons-variable-width---for-Exporting-only" stroke="none" stroke-width="1" fill="none" fill-rule="evenodd">
        <g id="icon-/-32-/-newsfeed" fill="#39393A">
            <path d="M11,25 L28,25 L28,23 L11,23 L11,25 Z M11,9 L28,9 L28,7 L11,7 L11,9 Z M11,17 L28,17 L28,15 L11,15 L11,17 Z M4,26 L8,26 L8,22 L4,22 L4,26 Z M4,10 L8,10 L8,6 L4,6 L4,10 Z M4,18 L8,18 L8,14 L4,14 L4,18 Z" id="â—-icon"></path>
        </g>
    </g>
</svg>