<svg xmlns="http://www.w3.org/2000/svg" width="32" height="32" viewBox="0 0 32 32">
  <path fill="#39393A" fill-rule="evenodd" d="M26.989,21.053 L24.51,18.574 C24.171,18.235 23.722,18.064 23.277,18.064 C22.833,18.064 22.385,18.235 22.045,18.574 L20.267,20.357 L19.7507524,20.1327579 C19.2845917,19.9242012 18.6566154,19.6273077 17.974,19.259 C16.892,18.676 15.702,17.919 14.914,17.129 C14.0844167,16.3030833 13.2859236,15.0267778 12.6818148,13.8954902 L12.522,13.591 C12.2554286,13.0758571 12.0322041,12.6040612 11.8649213,12.2335481 L11.644,11.734 L11.644,11.734 L13.426,9.956 C13.766,9.616 13.938,9.168 13.937,8.724 C13.938,8.28 13.766,7.83 13.426,7.491 L10.948,5.012 C10.609,4.672 10.16,4.501 9.716,4.501 C9.271,4.501 8.822,4.672 8.483,5.012 L4.843,8.653 C4.552,8.957 4.506,9.322 4.5,9.701 C4.503,10.361 4.702,11.188 5.032,12.156 C6.031,15.041 8.242,19.084 10.552,21.406 C12.101,22.951 14.426,24.45 16.664,25.585 C17.782,26.153 18.877,26.625 19.844,26.96 C20.816,27.294 21.646,27.496 22.307,27.499 C22.683,27.493 23.046,27.446 23.347,27.159 L26.989,23.518 C27.328,23.179 27.5,22.731 27.5,22.285 C27.5,21.841 27.329,21.393 26.989,21.053 Z"/>
</svg>
