<svg xmlns="http://www.w3.org/2000/svg" width="32" height="32" viewBox="0 0 32 32">
  <path fill="#39393A" fill-rule="evenodd" d="M23.8464412,24.0385275 C24.5464412,24.7385275 24.5464412,25.8385275 23.8464412,26.6385275 L20.1464412,30.2385275 C19.8464412,30.4385275 19.5464412,30.5385275 19.1464412,30.5385275 C18.2464412,30.5385275 17.4464412,30.3385275 16.6464412,30.0385275 C15.5464412,29.6385275 14.4464412,29.1385275 13.4464412,28.6385275 C11.2464412,27.5385275 9.14644119,26.1385275 7.34644119,24.4385275 C4.94644119,21.8385275 3.04644119,18.6385275 1.84644119,15.2385275 C1.54644119,14.4385275 1.44644119,13.5385275 1.34644119,12.7385275 C1.24644119,12.3385275 1.44644119,12.0385275 1.64644119,11.7385275 L5.24644119,8.13852751 C5.94644119,7.43852751 7.04644119,7.43852751 7.74644119,8.13852751 L10.2464412,10.6385275 C10.9464412,11.3385275 10.9464412,12.4385275 10.2464412,13.1385275 L8.44644119,14.9385275 L8.54644119,15.2385275 C8.64644119,15.6385275 8.94644119,16.1385275 9.24644119,16.7385275 C9.84644119,18.0385275 10.6464412,19.1385275 11.6464412,20.2385275 C12.6464412,21.0385275 13.6464412,21.7385275 14.7464412,22.3385275 L15.4178568,22.6674761 L16.9454398,23.3888689 C16.9819441,23.4065748 17.015672,23.4231429 17.0464412,23.4385275 L18.8464412,21.6385275 C19.5464412,20.9385275 20.6464412,20.9385275 21.3464412,21.6385275 L23.8464412,24.0385275 Z M21.7081922,15.5306525 C21.5585442,15.3827125 21.4735042,15.1817215 21.4718592,14.9720805 C21.4707122,13.9225625 21.0512322,12.9136395 20.3063002,12.1687075 C19.5613682,11.4237755 18.5524462,11.0042955 17.5029272,11.0031495 C17.2160332,11.0060515 16.9482272,10.8556605 16.8003912,10.6086275 C16.6525552,10.3615945 16.6471482,10.0554495 16.7862072,9.80551451 C16.9252662,9.55557851 17.1876642,9.39982451 17.4745592,9.39692251 C18.9446562,9.39793251 20.3580622,9.98525151 21.4015182,11.0287065 C22.4449732,12.0721615 23.0322922,13.4855685 23.0333751,14.9556655 C23.0358332,15.2760905 22.8442572,15.5647365 22.5485842,15.6859885 C22.2529102,15.8072415 21.9119122,15.7369985 21.6858012,15.5082615 L21.7081922,15.5306525 Z M25.9526342,15.4759335 L25.9694282,15.4927276 C25.7591392,15.4927276 25.5568962,15.4088765 25.4076352,15.2596155 C25.2583732,15.1103535 25.1744542,14.9081105 25.1745222,14.6978215 C25.1424142,10.3336975 21.5951852,6.78646951 17.2310622,6.75436051 C16.7952432,6.75425651 16.4393612,6.40086151 16.4361135,5.96503151 C16.4329922,5.52920151 16.7837112,5.17597651 17.2195292,5.17608144 C22.4450572,5.22133951 26.6907502,9.46703151 26.736009,14.6925605 C26.7363542,15.1263035 26.3863782,15.4762795 25.9526342,15.4759335 Z M29.8967842,15.3495983 C29.6864942,15.3495983 29.4842522,15.2657465 29.3349902,15.1164845 C29.1857282,14.9672235 29.1018092,14.7649805 29.1018782,14.5546915 C29.0628982,8.22527951 23.9163502,3.07873151 17.5869382,3.03975151 C17.3050142,3.03968451 17.0434052,2.88921251 16.9006592,2.64501851 C16.7579122,2.40082351 16.7557142,2.10000551 16.8948922,1.85587851 C17.0340712,1.61175151 17.2934812,1.46147249 17.5754062,1.46147249 C24.7792202,1.50454451 30.6370852,7.36240951 30.680158,14.5662235 C30.6805032,14.9999675 30.3305272,15.3499435 29.8967842,15.3495983 Z"/>
</svg>
