<?xml version="1.0" encoding="UTF-8"?>
<svg width="96px" height="96px" viewBox="0 0 96 96" version="1.1" xmlns="http://www.w3.org/2000/svg" xmlns:xlink="http://www.w3.org/1999/xlink">
    <title>pictograms/OMNe/state_important_parameters</title>
    <g id="Symbols" stroke="none" stroke-width="1" fill="none" fill-rule="evenodd">
        <g id="pictograms/OMNe/state-important-parameters" fill="#39393A">
            <path d="M28,65 C29.104,65 30,65.896 30,67 L30,71 C30,72.104 29.104,73 28,73 L24,73 C22.896,73 22,72.104 22,71 L22,67 C22,65.896 22.896,65 24,65 L28,65 Z M74,68 C74.553,68 75,68.447 75,69 C75,69.553 74.553,70 74,70 L38,70 C37.448,70 37,69.553 37,69 C37,68.447 37.448,68 38,68 L74,68 Z M28,51 C29.104,51 30,51.896 30,53 L30,57 C30,58.104 29.104,59 28,59 L24,59 C22.896,59 22,58.104 22,57 L22,53 C22,51.896 22.896,51 24,51 L28,51 Z M74,54 C74.553,54 75,54.447 75,55 C75,55.553 74.553,56 74,56 L38,56 C37.448,56 37,55.553 37,55 C37,54.447 37.448,54 38,54 L74,54 Z M28,37 C29.104,37 30,37.896 30,39 L30,43 C30,44.104 29.104,45 28,45 L24,45 C22.896,45 22,44.104 22,43 L22,39 C22,37.896 22.896,37 24,37 L28,37 Z M74,40 C74.553,40 75,40.447 75,41 C75,41.553 74.553,42 74,42 L38,42 C37.448,42 37,41.553 37,41 C37,40.447 37.448,40 38,40 L74,40 Z M28,23 C29.104,23 30,23.896 30,25 L30,29 C30,30.104 29.104,31 28,31 L24,31 C22.896,31 22,30.104 22,29 L22,25 C22,23.896 22.896,23 24,23 L28,23 Z M74,26 C74.553,26 75,26.447 75,27 C75,27.553 74.553,28 74,28 L38,28 C37.448,28 37,27.553 37,27 C37,26.447 37.448,26 38,26 L74,26 Z" id="â—-Pictogram"></path>
        </g>
    </g>
</svg>