<svg width="4800" height="1200" viewBox="0 0 4800 1200" xmlns="http://www.w3.org/2000/svg"><path d="M2750 300h-700V0h700v300zm0 100h-700v300h700V400zm0 800h-700v300h700v-300zm0-400h-700v300h700V800zm200 661.5a238.5 238.5 0 01-238 238.5h-622a238.5 238.5 0 01-240-238.5v-1600a62.5 62.5 0 0162.5-61.5H2050v-184.5A115.5 115.5 0 012165.5-500h469A120.5 120.5 0 012750-378v178h135a62.5 62.5 0 0165 62.5v1599zM2150-200h500v-178c0-11-10-22-15.5-22h-469a15.5 15.5 0 00-15.5 15.5V-200zm700 100h-900v1561.5a138.5 138.5 0 00140 138.5h622a138.5 138.5 0 00138-138.5V-100z" fill-rule="evenodd"/></svg>