<svg width="4800" height="1200" viewBox="0 0 4800 1200" xmlns="http://www.w3.org/2000/svg"><path d="M3185 804.5l-156-665a50 50 0 00-50-39.5h-250a50 50 0 000 100h212.5l35 150h-947L1995 200h185.5a50 50 0 000-100H1820a50 50 0 000 100h72l50 207-212.5 426a500 500 0 10-179.5 967 500 500 0 00497.5-450H2200a50 50 0 0036-15l821.5-635 30 129a500 500 0 10162.5-29 500 500 0 00-65 4.5zM1550 1700a400 400 0 11132.5-777L1505 1277.5a50 50 0 0045 72.5h396.5a400 400 0 01-396.5 350zm81-450l141.5-282.5a400 400 0 01174 282.5H1631zm419 0a491.5 491.5 0 00-230.5-372l159-318 158.5 690h-87zm183.5-37L2050 450h950l33.5 142-800 621zM3250 1700a400 400 0 01-139.5-774.5l89.5 386a50 50 0 0050 38.5h11.5a50 50 0 0037.5-60l-91-390a400.55 400.55 0 1142 800z" fill-rule="evenodd"/></svg>