<svg width="4800" height="1200" viewBox="0 0 4800 1200" xmlns="http://www.w3.org/2000/svg"><path d="M4187-1142a50 50 0 00-70.5 70.5l100 100V-850a50 50 0 0085 35.5v532a63.5 63.5 0 01-127 0v-455a163.5 163.5 0 00-165-162.5v-138a125 125 0 00-125-125H3397a125 125 0 00-125 125v884.5a122 122 0 000 18.5h-30a50 50 0 00-50 50V0a50 50 0 0050 50h796a50 50 0 0050-50v-85a50 50 0 00-50-50h-30a127.5 127.5 0 000-18.5V-800c35.05 0 63.5 28.45 63.5 63.5v455A163.5 163.5 0 004235-118a163.5 163.5 0 00165-164.5v-646L4187-1142zm-290.5 461h-511v-340.5H3896l.5 340.5zM3094 1200a300 300 0 110 600 300 300 0 010-600zm-1456 0a300 300 0 110 600 300 300 0 010-600zm1994-169c-31.5-63.5-150-161-243.5-247s-550-535.5-671.5-650-1126-75-1245-75 8.5 86-27.5 147-222 433-272 535.5-47 186-47 300-11 366.5 69.5 460.5c18 21.5 33.5 38 50 50a400 400 0 11778.5 59.5l691.5 4.5a400 400 0 11762.5 3.5h10.5c94.5 0 189.5 3 189.5-138.5s-13.5-386-45-450h-.5zm-671-350c-240-35-768.5-104.5-950-111.5l-294-11 203-422c308.5 0 647.5 17.5 715 82s241.5 236.5 397 391c28.5 24.5 12 81-71 69.5v2z" fill-rule="evenodd"/></svg>