<svg width="4800" height="1200" viewBox="0 0 4800 1200" xmlns="http://www.w3.org/2000/svg"><path d="M3493.5 442a100 100 0 00-87-180l-90 38c-97-300-205-586.5-250-624-92-76-666.5-76-666.5-76s-574.5 0-666.5 76c-45.5 37.5-153.5 324-250 624l-89-39.5a100 100 0 10-89 179l100 54a100 100 0 0018 6.5c-71 234.5-123.5 436-123.5 486.5 0 213.5 70.5 588.5 95.5 613.5h88.5v150a50 50 0 0050 50h216a50 50 0 0050-50v-150h1200v150a50 50 0 0050 50h218.5a50 50 0 0050-50v-150h88.5c24.5-25 95.5-400 95.5-613.5 0-50-52.5-250-123.5-486.5a100 100 0 0017-6l97.5-52zM1564 842a100.103 100.103 0 0194.5-176.5l200 106.5a101.119 101.119 0 11-96 178L1564 842zm1336 65a100 100 0 0141-135.5L3141 665a100.103 100.103 0 1194.5 176.5l-200 106.5a100 100 0 01-135.5-41zM1550 400c90.5-285 200-579 250-647a1221 1221 0 01300-42.5c150-7 294-10 300-10 7.5 0 154 3 302.5 10a1214 1214 0 01300 42.5c47.5 68 157 362 247.5 647H1550z" fill-rule="evenodd"/></svg>