<svg width="4800" height="1200" viewBox="0 0 4800 1200" xmlns="http://www.w3.org/2000/svg"><path d="M3094 1200a300 300 0 110 600 300 300 0 010-600zm-1456 0a300 300 0 110 600 300 300 0 010-600zm1994-169c-31.5-63.5-150-161-243.5-247s-550-535.5-671.5-650-1126-75-1245-75 8.5 86-27.5 147-222 433-272 535.5-47 186-47 300-11 366.5 69.5 460.5c18 21.5 33.5 38 50 50a400 400 0 11778.5 59.5l691.5 4.5a400 400 0 11762.5 3.5h10.5c94.5 0 189.5 3 189.5-138.5s-13.5-386-45-450h-.5zm-671-350c-240-35-768.5-104.5-950-111.5l-294-11 203-422c308.5 0 647.5 17.5 715 82s241.5 236.5 397 391c28.5 24.5 12 81-71 69.5v2zm789-1031a350 350 0 00350-350v-250a100 100 0 00-100-100h-50v-150a50 50 0 00-100 0v150h-150v-250a50 50 0 00-100 0v250h-150v-150a50 50 0 00-100 0v150h-50a100 100 0 00-100 100v250a350 350 0 00350 350h50v150a150 150 0 00145.5 150H3850a50 50 0 0150 50v200a50 50 0 00100 0V0a150 150 0 00-150-150h-100a54.5 54.5 0 01-50-50v-150h50zm-377-173a250 250 0 01-73-177v-250h700v250a250 250 0 01-250 250h-200a250 250 0 01-177-73z" fill-rule="evenodd"/></svg>