<svg width="4800" height="1200" viewBox="0 0 4800 1200" xmlns="http://www.w3.org/2000/svg"><path d="M3259.5 757.5V751c0-1.5 0-3.5-1.5-5 0-1.5-1.5-3.5-1.5-5s-1.5-3.5-1.5-5-1.5-3.5-1.5-5c-1.5-1.5-1.5-3.5-3.5-3.5-1.5-1.5-1.5-3.5-3.5-3.5l-3.5-3.5-3.5-3.5c-1.5-1.5-3.5-1.5-5-3.5-1.5 0-1.5-1.5-3.5-1.5l-547-245-48.5-260h322v100.5c0 28.5 22 50.5 50.5 50.5s50.5-22 50.5-50.5v-156c0-6.5-3.5-13.5-6.5-20a36.15 36.15 0 00-15-15c-1.5-1.5-3.5-1.5-5-3.5l-451.5-251.5c-3.5-1.5-6.5-3.5-10-3.5l-116-616c0-3.5-1.5-6.5-1.5-8.5-3.5-6.5-6.5-13.5-11.5-18.5s-13.5-10-20-11.5c-5-1.5-10-3.5-17-3.5s-11.5 1.5-17 3.5C2381-793 2374-790 2369-785s-8.5 11.5-11.5 18.5c-1.5 3.5-1.5 6.5-1.5 8.5l-116 614c-3.5 1.5-6.5 1.5-10 3.5L1778.5 111c-1.5 1.5-3.5 1.5-5 3.5-6.5 5-10 10-15 15-3.5 6.5-6.5 13.5-6.5 20V307c0 28.5 22 50.5 50.5 50.5s50.5-22 50.5-50.5V206.5h322l-48.5 260-547 248.5c-1.5 0-1.5 1.5-3.5 1.5-1.5 1.5-3.5 1.5-5 3.5-1.5 1.5-3.5 1.5-3.5 3.5l-3.5 3.5c-1.5 1.5-1.5 3.5-3.5 3.5l-3.5 3.5c-2.5 1.5-2.5 3-2.5 3 0 1.5-1.5 3.5-1.5 5s-1.5 3.5-1.5 5-1.5 3.5-1.5 5v159.5c0 28.5 22 50.5 50.5 50.5s50.5-22 50.5-50.5V811h409.5L1854 1908.5c-5 27 13.5 53.5 40.5 58.5 13.5 1.5 25 0 35.5-6.5l475-290.5 476.5 292c8.5 5 17 6.5 27 6.5 3.5 0 6.5 0 10-1.5 27-5 45.5-32 40.5-58.5L2749.5 811H3159v100.5c0 28.5 22 50.5 50.5 50.5s50.5-22 50.5-50.5v-154h-.5zm-446.5-651h-196.5L2593-16l220 122.5zm-298.5 0H2293l28.5-151h163l30 151zm-111-584l62 332h-126l64-332zm-129 684.5H2533l47 251.5h-352.5l47-251.5zM2600 559.5l28.5 151H2179l28.5-151H2600zm-606-453L2214-16l-23.5 122.5H1994zm-162.5 604l270-122.5-25 122.5h-245zm287 320.5l183 104-226.5 129 43.5-233zM1971 1816l69-369 267 162.5-336 206.5zm129-449.5l303.5-174.5 303.5 173-303.5 188-303.5-186.5zm632.5-102.5l-228-129 183-104 45 233zm35.5 183l69 369-335.5-206.5L2768 1447zm-99-522l-265 151-265-151 22-114h486.5l21.5 114zm38.5-337L2976 710.5h-245L2707.5 588z" fill-rule="evenodd"/></svg>