<svg width="4800" height="1200" viewBox="0 0 4800 1200" xmlns="http://www.w3.org/2000/svg"><path d="M3332.5 754C3137.5 241.5 2820 71.5 2806 64.5a50 50 0 00-73 47v39h-183a50 50 0 000 100h192l8 153.5a50 50 0 000 13 1466 1466 0 0168.5 400c0 183-265.5 415.5-319.5 423.5h-275c-74.5-100-32-295.5 0-393h26a100 100 0 00100-100V646a150 150 0 00-140-150l-600-40.5h-10a150 150 0 00-150 150V750a100 100 0 004.5 27.5c-358 363.5-300 592-300 600a50 50 0 0050 36.5h737l142.5 142.5a150 150 0 00106 43.5h574a150 150 0 0092-30.5l683.5-529a50 50 0 0019.5-39.5c0-155.5-134.5-226-226.5-247zM1550 750V600a44.5 44.5 0 0150-44.5l600 40.5a54.5 54.5 0 0150 54v100h-700zm400 866a379 379 0 01-327 184 394.5 394.5 0 01-373-250h631l69 66zm1667-202.5a385.5 385.5 0 01-677 254l610-471.5a381.5 381.5 0 0167 217.5zM3750-350a350 350 0 00350-350v-250a100 100 0 00-100-100h-50v-150a50 50 0 00-100 0v150h-150v-250a50 50 0 00-100 0v250h-150v-150a50 50 0 00-100 0v150h-50a100 100 0 00-100 100v250a350 350 0 00350 350h50v150a150 150 0 00145.5 150H3850a50 50 0 0150 50v200a50 50 0 00100 0V0a150 150 0 00-150-150h-100a54.5 54.5 0 01-50-50v-150h50zm-377-173a250 250 0 01-73-177v-250h700v250a250 250 0 01-250 250h-200a250 250 0 01-177-73z" fill-rule="evenodd"/></svg>