<svg width="4800" height="1200" viewBox="0 0 4800 1200" xmlns="http://www.w3.org/2000/svg"><path d="M4137-1142a50 50 0 00-70.5 70.5l100 100V-850a50 50 0 0085 35.5v532a63.5 63.5 0 01-127 0v-455a163.5 163.5 0 00-165-162.5v-138a125 125 0 00-125-125H3347a125 125 0 00-125 125v884.5a121.5 121.5 0 000 18.5h-30a50 50 0 00-50 50V0a50 50 0 0050 50h796a50 50 0 0050-50v-85a50 50 0 00-50-50h-30a127.5 127.5 0 000-18.5V-800c35.05 0 63.5 28.45 63.5 63.5v455A163.5 163.5 0 004185-118a163.5 163.5 0 00165-164.5v-646L4137-1142zm-290.5 461h-511v-340.5H3846l.5 340.5zm-514 1435C3137.5 241.5 2820 71.5 2806 64.5a50 50 0 00-73 47v39h-183a50 50 0 000 100h192l8 153.5a50 50 0 000 13 1466 1466 0 0168.5 400c0 183-265.5 415.5-319.5 423.5h-275c-74.5-100-32-295.5 0-393h26a100 100 0 00100-100V646a150 150 0 00-140-150l-600-40.5h-10a150 150 0 00-150 150V750a100 100 0 004.5 27.5c-358 363.5-300 592-300 600a50 50 0 0050 36.5h737l142.5 142.5a150 150 0 00106 43.5h574a150 150 0 0092-30.5l683.5-529a50 50 0 0019.5-39.5c0-155.5-134.5-226-226.5-247zM1550 750V600a44.5 44.5 0 0150-44.5l600 40.5a54.5 54.5 0 0150 54v100h-700zm400 866a379 379 0 01-327 184 394.5 394.5 0 01-373-250h631l69 66zm1667-202.5a385.5 385.5 0 01-677 254l610-471.5a381.5 381.5 0 0167 217.5z" fill-rule="evenodd"/></svg>