<svg width="4800" height="1200" viewBox="0 0 4800 1200" xmlns="http://www.w3.org/2000/svg"><path d="M850 0h200a50 50 0 000-100H850a50 50 0 000 100zm1000-800v-200a50 50 0 00-100 0v200a50 50 0 00100 0zm515.5 255L2507-686.5a50 50 0 10-70.5-70.5L2295-615.5a50 50 0 0070.5 70.5zm-1200 1200L1307 513.5a50 50 0 10-70.5-70.5L1095 584.5a50 50 0 1070.5 70.5zM1305-615.5L1163.5-757a50 50 0 10-70.5 70.5L1234.5-545a50 50 0 1070.5-70.5zM1200-50a604.5 604.5 0 011200-100h-545A200 200 0 001662-8.5l-4.5 14c-10.5 24.5-20 56-32.5 95.5-18 58-41.5 135-65 212.5L1510 475a600 600 0 01-310-525zm691.5 650H2300V250h-300l-108.5 350zm508.5 400h500V700h-500v300zm-615-50l-15 50h530V700h-439l-76 250zm1615-377.5l-7-22.5-30.5-100-62.5-200h-300v350h408.5l-8.5-27.5zM2400 600h500V250h-500v350zm1495.5 571l-50-171-137-450-91.5-300-69.5-229a100 100 0 00-97.5-71H1850a100 100 0 00-95.5 71l-4.5 14c-7 0-187 615-187 615l-76 250-82.5 271a100 100 0 0095.5 129h750v300h-103a97 97 0 00-97 97v6a97 97 0 0097 97h1006a97 97 0 0097-97v-6a97 97 0 00-97-97h-103v-300h750a100 100 0 0095.5-129zM1500 1200L1850 50h1600l61 200 289 950H1500zm1992-325l-7.5-25-45.5-150h-439v300h530l-15-50-15-50-8-25z" fill-rule="evenodd"/></svg>