<svg width="4800" height="1200" viewBox="0 0 4800 1200" xmlns="http://www.w3.org/2000/svg"><path d="M2150 400h500v300h-500V400zM2050-50h-300l-106.5 350H2050V-50zm-530 750h530V400h-439l-91 300zm630-750v350h500V-50h-500zm600 350h408.5l-8.5-27.5-7-22.5-15-50-15-50-63-200h-300v350zm530 400l-91.5-300H2750v300h530zm350 259.5a100 100 0 01-80 40.5h-750v300h103a97 97 0 0197 97v6a97 97 0 01-97 97H1897a97 97 0 01-97-97v-6a97 97 0 0197-97h103v-300h-750a100 100 0 01-95.5-129l82.5-271 76-250s180-615 187-615l4.5-14.5A100 100 0 011600-350h1600a100 100 0 0195.5 71l70 229 91.5 300 137 450 50 171a100 100 0 01-13.5 88.5h-.5zm-80-59.5L3261-50l-61-200H1600L1250 900h2300z" fill-rule="evenodd"/></svg>