<svg width="4800" height="1200" viewBox="0 0 4800 1200" xmlns="http://www.w3.org/2000/svg"><path d="M3670.5 2129.5l-529-529.5H3250a200 200 0 00200-200V-650a350 350 0 00-350-350h-150a150 150 0 00-300 0h-500a150 150 0 00-300 0h-150a350 350 0 00-350 350v2050a200 200 0 00200 200h107.5l-529 529.5A100.056 100.056 0 001270 2271l670.5-671h918l671 670.5A100.056 100.056 0 003671 2129l-.5.5zM3100 1300a150 150 0 110-300 150 150 0 010 300zM1500 400v-900h1800v900H1500zm50 750a150 150 0 11300 0 150 150 0 01-300 0z" fill-rule="evenodd"/></svg>