<svg width="4800" height="1200" viewBox="0 0 4800 1200" xmlns="http://www.w3.org/2000/svg"><path d="M3032 796l-225.5-130A423 423 0 002700 485V225c0-437-100-775-300-775s-300 337.5-300 775v260a423 423 0 00-106.5 181L1768 796c-378.5 218.5-621.5 473.5-521 647.5 37.5 64.5 107.5 93.5 200 93.5 158 0 382-84 620-221.5l215.5-124.5a416.5 416.5 0 00232.5 0l215.5 124.5c238 137.5 462 221.5 620 221.5 93.5 0 164-29 200-93.5 103-174-139.5-428.5-518.5-647.5zm-632-214.5a202.5 202.5 0 110 405 202.5 202.5 0 010-405zm0-1031.5c97 0 200 236.5 200 675v185.5a423.5 423.5 0 00-400 0V225c0-438.5 103-675 200-675zm-382 1679c-229 132-437 208-570 208-89 0-108-33-114.5-43.5-33.5-56.5 30-143.5 70.5-193.5a1607 1607 0 01414-318.5l159-91.5a423 423 0 00195 350l-154 89zm1450 164.5c-6 11-25 43.5-114.5 43.5-133.5 0-341.5-76-570-208l-153.5-88.5a423 423 0 00195-350l158.5 91.5c378 218 531.5 427.5 483 511.5h1.5z" fill-rule="evenodd"/></svg>