<svg width="4800" height="1200" viewBox="0 0 4800 1200" xmlns="http://www.w3.org/2000/svg"><path d="M1126.5 336l23.5-11.5 59.5 34.5A2869.5 2869.5 0 001500 503.5l12-11c22.5-20 47-41 73-62A2697 2697 0 011262.5 272l-25.5-14.5A312 312 0 001315.5 81l43 25A2575 2575 0 011700 342c27.65-20 56-39.65 85-59a2738.5 2738.5 0 00-378.5-263.5l-106.5-60a313.5 313.5 0 00-104.5-155V-400c0-325.5-65-777-196-777S805-726 805-400v204.5A313.5 313.5 0 00700-42L593.5 19.5c-281 163-640 445-574.5 558.5a100 100 0 0094 37c156.5 0 459-130 677-256l60.5-35 24.5 12a50 50 0 00-2.5 10.5L755 2046.5a50 50 0 0050 53.5h392a50 50 0 0050-53.5l-117.5-1700a50 50 0 00-3-10.5zm-386-63.5C510.5 405 253 506.5 128 514.5c57-84.5 250-255 516.5-408.5L689 80.5A312 312 0 00767 257l-26.5 15.5zM905-400c0-307.5 50-562 96-650 45 90.5 96 345 96 650v150s-13.5-4.5-32.5-9a285 285 0 00-64.5-5.5 307.5 307.5 0 00-63.5 6.5 203.5 203.5 0 00-32.5 9l1-151zM787.5 50A213.5 213.5 0 01950-158.5a166 166 0 0150-6 220 220 0 0150 6A213.5 213.5 0 11787 50h.5zM4206 20.5l-106-61a313.5 313.5 0 00-104.5-155V-400c0-325.5-65-777-196-777S3605-726 3605-400v204.5A313.5 313.5 0 003500-42l-106.5 61.5a2739 2739 0 00-378 263c27 18 56 37.5 85.5 58.5a2575 2575 0 01342.5-235l44.5-25.5a312 312 0 0078 176.5l-26.5 15.5a2700 2700 0 01-321.5 158c29 23.5 57 50 84 73A2870.5 2870.5 0 003589.5 359l60.5-35 24.5 12a50 50 0 00-2.5 10.5l-117.5 1700a50 50 0 0050 53.5h392a50 50 0 0050-53.5L3929 346.5a50 50 0 00-3-10.5l23.5-11.5L4009 359c218 126 520.5 256 677 256a100 100 0 0094-37c66.5-113.5-292-395.5-574.5-558.5l.5 1zM3705-400c0-307.5 50-562 96-650 45 90.5 96 345 96 650v150a206.5 206.5 0 00-32.5-9 315 315 0 00-64.5-5.5 287 287 0 00-96 15.5l1-151zm95 662.5a213.5 213.5 0 01-50-421 166 166 0 0150-6 213.5 213.5 0 010 427zm259 10l-25.5-14.5A312 312 0 004112 81.5l43 25c265 153 459.5 324 516.5 408-124-8-382-109.5-612-242h-.5zM3381 828c65.5-113.5-293-395.5-575-558.5l-106-60a313.5 313.5 0 00-104.5-155V-150c0-325.5-65-777-196-777S2205-476 2205-150V54.5A313.5 313.5 0 002100 208l-106.5 61.5c-282 163-640.5 444.5-575 558.5a100 100 0 0094 37c156.5 0 459-130 677-256l60.5-35 24.5 12a50 50 0 00-2.5 10.5l-117.5 1700a50 50 0 0050 53.5h392a50 50 0 0050-53.5L2529 596.5a50 50 0 00-3-10.5l23.5-11.5L2609 609c218 126 520.5 256 677 256a100 100 0 0095-37zM2140.5 522.5c-230 132.5-487.5 234-612 242 57-84.5 250-255 516.5-408.5l44.5-25.5a312 312 0 0078 176.5l-27 15.5zM2305-150c0-307.5 50-562 96-650 45 90.5 96 345 96 650V0a206.5 206.5 0 00-32.5-9 315 315 0 00-64.5-5.5 322 322 0 00-63.5 6.5C2320-4.5 2304 1 2304 1l1-151zm95 662.5a213.5 213.5 0 01-50-421 166 166 0 0150-6 213.5 213.5 0 010 427zm259 10l-25.5-14.5a312 312 0 0078.5-176.5l43 25c265 153 459.5 324 516.5 408-124-8-382-109.5-612-242h-.5z" fill-rule="evenodd"/></svg>