<svg width="1200" height="1200" viewBox="0 0 1200 1200" xmlns="http://www.w3.org/2000/svg"><path d="M416.15 510.5a50.012 50.012 0 1161.35 79c-139.8 108.85-251.8 213-334 310.5h956.6a50 50 0 110 100H143.6c82.15 97.55 194.2 201.75 334 310.55a50 50 0 11-61.4 78.9C240.95 1253.1 106.65 1122.5 17 1001.1a85.6 85.6 0 010-102.2c89.5-121.25 223.8-252 399.1-388.35zm367.7-700c175.3 136.45 309.6 267.15 399.1 388.4 22.55 30.4 22.6 71.5 0 102.2-89.6 121.3-223.9 252-399.15 388.35a50 50 0 01-61.4-78.9c139.8-108.85 251.85-213 334-310.5L100.05 300a50 50 0 110-100h956.45c-82.15-97.5-194.15-201.7-334-310.55a50 50 0 1161.35-78.95z" fill-rule="evenodd"/></svg>