<svg width="1400" height="1200" viewBox="0 0 1400 1200" xmlns="http://www.w3.org/2000/svg"><path d="M1200 100l10 .25a200.25 200.25 0 01189.75 189.5L1400 300v600c0 107-84.35 194.5-190 199.75l-10 .25H200A200.2 200.2 0 01.25 910L0 900V300c0-107 84.35-194.5 190-199.75l10-.25h1000zm100 500H100v300c0 52.65 40.85 95.9 92.5 99.75l7.5.25h1000l7.5-.25a100.15 100.15 0 0092.2-91.95l.3-7.8V600zm0-200H100v100h1200V400zm-100-200H200l-7.5.25a100.15 100.15 0 00-92.2 91.95l-.3 7.8h1200a100.1 100.1 0 00-92.5-99.75l-7.5-.25zM850 700H250a50 50 0 100 100h600a50 50 0 100-100z" fill-rule="evenodd"/></svg>