<svg width="1200" height="1200" viewBox="0 0 1200 1200" xmlns="http://www.w3.org/2000/svg"><path d="M150 50v100h-50v1150h750v-50h100v100a50 50 0 01-50 50H50a50 50 0 01-50-50V100a50 50 0 0150-50h100zm700-250a50 50 0 0130.4 10.3l5 4.35 300 300a50 50 0 0114.15 28.8l.45 6.55v950a50 50 0 01-44.15 49.65l-5.85.35H300a50 50 0 01-49.65-44.15L250 1100V-150a50 50 0 0144.15-49.65L300-200h550zm-50 100H350v1150h750V200H850a50 50 0 01-49.65-44.15L800 150v-250zM700 750a75 75 0 110 150 75 75 0 010-150zm0-500a50 50 0 0150 50v300a50 50 0 01-100 0V300a50 50 0 0150-50zm329.25-150L900-29.25V100h129.25z" fill-rule="evenodd"/></svg>