<svg width="1200" height="1200" viewBox="0 0 1200 1200" xmlns="http://www.w3.org/2000/svg"><path d="M855 99.6c-25-5-45-25-45-50 0-30 20-50 50-50h5c50 5 100 15 150 25 80 15 140 80 160 160 10 50 15 100 25 150 5 25-15 50-45 55h-5c-25 0-45-20-50-45-5-50-15-95-20-145-10-35-40-65-75-75l-66.4-12.45c-28.1-5.2-55-9.7-83.6-12.5zm-755 245c5-50 15-95 20-145 9.35-37.3 36.1-65.95 72.15-73.65l7.85-1.35c50-10 95-15 145-20 25-5 45-25 45-50 0-30-20-50-50-50h-5c-50 5-100 15-150 25-80 15-145 80-160 160-10 50-15 100-25 150-5 25 15 50 45 55h5c25-5 45-25 50-50zm245 755c-50-5-95-15-145-25-37.35-9.3-66-36.05-73.65-68.05L125 999.6c-10-50-15-95-20-145-5-25-25-45-50-45-30 0-50 20-50 50v5c5 50 15 100 25 150 15 80 80 140 160 160 50 10 100 15 150 25 25 5 50-15 55-45v-5c-5-30-25-50-50-50zm755-245c-5 50-15 95-20 145-9.35 37.35-36.1 66-72.15 73.7l-7.85 1.3c-50 10-95 15-145 25-25 5-45 25-45 50 0 30 20 50 50 50h5c50-5 100-15 150-25 80-15 140-80 160-160 8-40 16-80 21.45-120l3.55-30c5-25-15-50-45-55h-5c-25 0-50 20-50 45z" fill-rule="evenodd"/></svg>