<svg width="1000" height="1200" viewBox="0 0 1000 1200" xmlns="http://www.w3.org/2000/svg"><path d="M955 390c25 5 45 25 45 50 0 30-20 50-50 50h-5c-50-5-100-15-150-25-80-15-140-80-160-160-10-50-20-100-25-150-5-25 15-50 45-55h5c25 0 45 20 50 45 5 50 15 95 25 145 10 40 40 70 75 75 50 15 100 20 145 25zM290 145c-5 50-15 95-25 145-10 40-40 70-75 75-50 10-95 15-145 25-25 5-45 25-45 50 0 30 20 50 50 50h5c50-5 100-15 150-25 80-15 145-80 160-160 8-40 16-80 21.45-120l3.55-30c5-25-15-50-45-55h-5c-25 0-50 20-50 45zM45 810c50 5 95 15 145 25 37.35 9.35 66 36.1 73.65 68.05L265 910c10 50 15 95 25 145 5 25 25 45 50 45 30 0 50-20 50-50v-5c-5-50-15-100-25-150-15-80-80-140-160-160-50-10-100-20-150-25-25-5-50 15-55 45v5c0 30 20 50 45 50zm665 245c5-50 15-95 25-145 9.35-37.35 36.1-66 68.05-73.65L810 835c50-10 95-15 145-25 25-5 45-25 45-50 0-30-20-50-50-50h-5c-50 5-100 15-150 25-80 15-145 80-160 160-10 50-20 100-25 150-5 25 15 50 45 55h5c25 0 50-20 50-45z" fill-rule="evenodd"/></svg>