<svg width="1000" height="1200" viewBox="0 0 1000 1200" xmlns="http://www.w3.org/2000/svg"><path d="M398.5-44.1C715.8 124.6 975 454.1 975 750.05c0 286.7-167.6 500-500 500-269.1 0-450-164.45-450-400 0-134.65 37.1-222.1 130.9-353.9l30.85-42.6c119.95-164.75 157.9-263.5 138.5-448.3A50 50 0 01398.5-44.1zm31.65 134.5c.05 152.2-46.8 259.7-149.9 404.45L248.8 538.2C157.5 663.95 125 735.8 125 850c0 124.2 65.25 221.1 178 268.35-21.7-30.2-33.2-67.15-33.2-108C269.8 820.85 464.5 792.6 525 550c127.9 103.5 200 250 200 400 0 48.85-11.7 109.65-45.75 159C811.3 1046.3 875 916 875 750c0-229.75-194-497.65-444.85-659.65z" fill-rule="evenodd"/></svg>