<svg width="1300" height="1200" viewBox="0 0 1300 1200" xmlns="http://www.w3.org/2000/svg"><path d="M1000-125a200 200 0 01173.2 300h26.8a50 50 0 0150 50v450a50 50 0 015.85 99.65l-5.85.35v450a50 50 0 01-50 50H700a50 50 0 01-99.65 5.85L600 1275H100a50 50 0 01-50-50V775a50 50 0 01-5.85-99.65L50 675V225a50 50 0 0150-50h26.7A200 200 0 01431.4-75.7l218.55 190.8 218.6-190.8a199 199 0 01119.25-48.95zM600 775H150v400h450V775zm550 0H700v400h450V775zm0-500H700v400h450V275zm-550 0H150v400h450V275zm400-300c-24.55 0-47.6 8.8-65.7 24.6L733.3 175H1000a100 100 0 0099.75-92.5l.25-7.5a100 100 0 00-100-100zm-700.1 0a100 100 0 00-100 100l.25 7.5A100 100 0 00299.9 175h266.7L365.6-.4A99.2 99.2 0 00299.9-25z" fill-rule="evenodd"/></svg>