<svg width="1200" height="1200" viewBox="0 0 1200 1200" xmlns="http://www.w3.org/2000/svg"><path d="M1064.1 213.6a91.9 91.9 0 00-75.5-75.25C851.1 113 722.9 100 600 100c-123 0-251.15 13-388.35 38.3-39.85 7.45-68.3 35.8-75.7 75C88 471.15 88 733.65 135.95 986.5a91.85 91.85 0 0075.5 75.15C348.85 1087 477 1100 600 1100s251.15-13 388.35-38.3c39.85-7.45 68.3-35.8 75.75-75.3a2096.75 2096.75 0 000-772.8zm98.25-18.6a2196.7 2196.7 0 010 810c-15.05 80-75.3 140-155.65 155-135.55 25-271.15 40-406.7 40s-271.15-15-406.7-40c-80.35-15-140.6-75-155.65-155-50.15-265-50.15-540 0-810C52.7 115 113 55 193.3 40 328.85 15 464.5 0 600 0c135.55 0 271.15 15 406.7 40 80.35 15 140.6 75 155.65 155zM650 900c0 25-25 50-50 50s-50-25-50-50V550c0-25 25-50 50-50s50 25 50 50v350zm-50-500c-40 0-75-35-75-75s35-75 75-75 75 35 75 75-35 75-75 75z" fill-rule="evenodd"/></svg>