<svg width="1200" height="1200" viewBox="0 0 1200 1200" xmlns="http://www.w3.org/2000/svg"><path d="M826.3 450l-31.5-106.95L971.05 450h-144.8zM600 629l-115.25-79h230.5L600 629zm351.6 599.55l-252.9-148.4L877 975.5l74.6 253.05zM688.4 689.6l86.8-59.45 43.9 149.1-130.7-89.65zM386.3 896.75L600 750.25l213.6 146.5-213.6 125.4-213.7-125.4zm-137.95 331.8L323 975.5l178.2 104.65-252.85 148.4zm176.5-598.4l86.7 59.45-130.7 89.6 44-149.05zM228.8 450l176.35-107-31.5 107H228.8zM600 35.9l40.75 138.3h-81.5L600 35.9zm-70.3 238.3h140.55l51.8 175.8H477.9l51.8-175.8zm646.2 183.05L752.8 200.6 648-155.1a50 50 0 00-95.9 0L447.15 200.6 24.05 457.25A50 50 0 0050 550h294.15l-98.5 334.45c-.4.95-.65 1.9-.9 2.85l-128 434.25A49.95 49.95 0 00190 1378.8l410-240.65 410 240.65a49.8 49.8 0 0056.1-3.7 50 50 0 0017.15-53.55L855.8 550H1150a50 50 0 0025.9-92.75z" fill-rule="evenodd"/></svg>