<svg width="1600" height="1200" viewBox="0 0 1600 1200" xmlns="http://www.w3.org/2000/svg"><path d="M1500 950c0 27.55-22.45 50-50 50h-140c4.9-12.35 8-25.6 8-40.15 0-49.2-31.75-86.95-73.15-96.55 39.55-9.6 67.75-47.4 67.75-91.15 0-67.8-53.95-115.15-139.7-115.15-95.35 0-136.15 50.35-136.15 115.15h90.55c0-24.6 16.2-39.6 45.6-39.6 28.8 0 46.15 16.8 46.15 44.4 0 34.15-21 49.75-61.15 49.75h-39.55v73.15h39.55c46.8 0 67.15 21 67.15 54.6 0 29.35-22.8 45.55-52.15 45.55-31.8 0-51-14.4-51-41.35H1032c0 14.95 2.4 28.65 6.55 41.35H850V200h600c27.55 0 50 22.45 50 50v700zm-750 50H150c-27.55 0-50-22.45-50-50V250c0-27.55 22.45-50 50-50h600v800zm700-900H150C67.3 100 0 167.3 0 250v700c0 82.7 67.3 150 150 150h1300c82.7 0 150-67.3 150-150V250a150.2 150.2 0 00-141.2-149.75l-8.8-.25zM420.5 469.55c28.8 0 42.6 21.6 42.6 51 0 33-19.2 62.35-49.8 94.75L292.8 744.2V806h264.4v-73.2H413.3l60-63.5 15.95-17.25c36.5-40.35 66.75-82.7 66.75-131.5 0-73.8-53.95-126.5-135.5-126.5-92.95 0-136.15 55.1-136.15 136.05h90c0-37.15 13.8-60.5 46.15-60.5z" fill-rule="evenodd"/></svg>