<svg width="1400" height="1200" viewBox="0 0 1400 1200" xmlns="http://www.w3.org/2000/svg"><path d="M1397.5 1026.2v-60l-36.85-39.5-17-18.75c-124-138.5-172-235.25-216.15-561.75a491.2 491.2 0 00-65.3-184.75l-9.7-15.25c-55-90-145-155-250-180v-10c0-55-45-100-100-100s-100 45-100 100v10a401.9 401.9 0 00-241.9 167.35l-8.1 12.65c-40 60-65 130-75 200l-5.9 42.25C223 722.65 166 802.9 7.5 966.2a16.4 16.4 0 00-5 12v48c0 55 45 100 100 100h350c20 135 145 235 280 215 110-15 200-105 215-215h350c55 0 100-45 100-100zm-95 0h-1200c35-40 70-85 100-135 5-10 15-25 20-35 80-135 130-285 145-445 0-30 0-60 6.3-90l3.7-15c35-150 170-255 325-250 155-5 290 100 320 250 10 35 15 70 10 105 10 155 60 310 140 445l30 45c30 45 65 90 100 125z" fill-rule="evenodd"/></svg>