<svg width="1400" height="1200" viewBox="0 0 1400 1200" xmlns="http://www.w3.org/2000/svg"><path d="M950 1175c-227.35 0-350-71-350-100v-70c86.8 46.1 218.7 70 350 70s263.2-23.9 350-70v70c0 28.25-116.45 96.4-332.7 99.85l-17.3.15zM100 925v-70c86.8 46.1 218.7 70 350 70 16.85 0 33.3-1.6 50-2.4v100.05l-33.25 1.95a366.25 366.25 0 01-16.75.4c-221.5 0-343.65-67.4-349.75-97.7L100 925zm0-270c86.8 46.1 218.7 70 350 70s263.2-23.9 350-70v30.75c-133.75 19.4-247.7 65.3-285.9 136.2-21.3 1.4-42.5 3.05-64.1 3.05-227.35 0-350-71-350-100v-70zm0-200c86.8 46.1 218.7 70 350 70s263.2-23.9 350-70v70c0 29.05-122.65 100-350 100s-350-70.95-350-100v-70zm0-200c86.8 46.1 218.7 70 350 70s263.2-23.9 350-70v70c0 29.05-122.65 100-350 100s-350-70.95-350-100v-70zM450 25c227.35 0 350 70.95 350 100S677.35 225 450 225s-350-70.95-350-100c0-28.3 116.45-96.4 332.7-99.85L450 25zm850 850c0 29-122.65 100-350 100s-350-71-350-100 122.65-100 350-100c221.5 0 343.65 67.4 349.75 97.7l.25 2.3zM950 675c-16.75 0-33.5.5-50.2 1.25l.05-150.1c0-.35.15-.75.15-1.15h-.15l.15-400C900-3.55 683-72.1 464-74.9l-14-.1C226.35-75 0-6.3 0 125v800c0 131.3 226.35 200 450 200 20.45 0 40.45-1.75 60.65-2.9C557.75 1222.65 754.9 1275 950 1275c223.65 0 450-68.7 450-200V875c0-128.55-217-197.1-436-199.9l-14-.1z" fill-rule="evenodd"/></svg>