<svg width="1600" height="1200" viewBox="0 0 1600 1200" xmlns="http://www.w3.org/2000/svg"><path d="M1366.65 557.95c12.55 0 23.85 5.5 31.5 14.2 79.25 68.75 155.65 181.5 187.8 268.95a42.007 42.007 0 01-78.85 29c-19.5-53-59.75-119.35-105.9-174.55-45.85 290.7-297.5 513-601 513a607.35 607.35 0 01-459.4-209.2 42.015 42.015 0 0163.4-55.15 523.35 523.35 0 00395.95 180.35c266.35 0 486.25-198.5 520-455.6-67.8 37.5-135.75 92-175 139.5a42 42 0 11-64.8-53.4c60.3-73.15 172.6-155.9 271.4-193.75l-7 2.75a41.8 41.8 0 0121.9-6.15zM800-8.55c178.5 0 344.5 77.2 459.35 209.2a42.015 42.015 0 01-63.4 55.15A523.15 523.15 0 00800 75.4c-266.3.05-486.3 198.6-520 455.7 67.8-37.5 135.7-91.95 174.8-139.4a42.003 42.003 0 1164.85 53.4c-57.1 69.25-160.95 147.2-255.7 187.4l-9.1 3.75a41.8 41.8 0 01-47.2-3.1l-4.05-3.6C123.8 561 46.45 447.15 14 359.05a42.007 42.007 0 0178.85-29c19.5 53 59.8 119.4 106 174.65C244.7 213.9 496.4-8.5 800-8.5z" fill-rule="evenodd"/></svg>