<svg width="800" height="1200" viewBox="0 0 800 1200" xmlns="http://www.w3.org/2000/svg"><path d="M600-50H200C90-50 0 40 0 150v900c0 110 90 200 200 200h400c110 0 200-90 200-200V150c0-110-90-200-200-200zm100 1100c0 55-45 100-100 100H200c-55 0-100-45-100-100V900h600v150zm-300 50c40 0 75-35 75-75s-35-75-75-75-75 35-75 75 35 75 75 75zm214.65-824.7a50 50 0 0174.85 66l-4.15 4.75-300 300a50 50 0 01-66 4.15l-4.7-4.15-136.5-136.5a50 50 0 0166-74.85l4.7 4.15L350 539.95 614.65 275.3z" fill-rule="evenodd"/></svg>