<svg width="1600" height="1200" viewBox="0 0 1600 1200" xmlns="http://www.w3.org/2000/svg"><path d="M642.85 835.7V364.3L1051.1 600 642.85 835.7zm910-613.95A196.85 196.85 0 001414 82.85C1291.4 50 799.95 50 799.95 50s-491.3 0-613.85 32.85a196.8 196.8 0 00-138.95 138.9C14.3 344.3 14.3 600 14.3 600s0 255.7 32.85 378.25a196.8 196.8 0 00138.9 138.9C308.6 1150 800 1150 800 1150s491.4 0 613.95-32.85a196.85 196.85 0 00138.95-138.9C1585.7 855.7 1585.7 600 1585.7 600s0-255.7-32.8-378.25z" fill-rule="evenodd"/></svg>