<svg width="1600" height="1200" viewBox="0 0 1600 1200" xmlns="http://www.w3.org/2000/svg"><path d="M502.9 97.1c131.4 0 231.35 52.55 319.95 117.25l11.5 8.5-148.6 148.6C640 325.7 571.45 302.9 502.9 302.9c-160 0-297.15 137.1-297.15 297.1S342.9 897.1 502.9 897.1c133.05 0 233.9-86.1 260.65-195.65l2.2-10H502.9V497.1h468.5c11.5 34.35 11.5 80 11.5 114.35 0 285.65-194.35 491.45-480 491.45C228.5 1102.9 0 874.3 0 600S228.55 97.1 502.9 97.1zm925.6 240.05V508.6H1600v125.65h-182.8v171.5h-125.7v-171.5h-171.4V508.6h182.8V337.15h125.65z" fill-rule="evenodd"/></svg>