<svg width="1400" height="1200" viewBox="0 0 1400 1200" xmlns="http://www.w3.org/2000/svg"><path d="M1092.9 550l28.5 200H914.65L903 550h189.9zm-290 0l11.65 200H585.5l11.65-200H802.9zM497 550l-11.65 200h-206.8l28.55-200H497zm288.35-300L797 450H603l11.65-200h170.7zm-270.8 0L502.9 450H321.4L350 250h164.5zm535.45 0l28.55 200H897.1l-11.65-200H1050zM900 850H150.55l99.95-700h899l99.95 700H900zm342.4-757.1a50.05 50.05 0 00-49.55-42.9h-985.7c-24.9 0-46 18.3-49.55 42.9l-114.25 800a50 50 0 0049.5 57.1H500v100h-50a50 50 0 100 100h500a50 50 0 100-100h-50V950h407.15a50 50 0 0049.5-57.1l-114.25-800z" fill-rule="evenodd"/></svg>