<svg width="1400" height="1200" viewBox="0 0 1400 1200" xmlns="http://www.w3.org/2000/svg"><path d="M500 175V75h400v100h100V25a50 50 0 00-50-50H450a50 50 0 00-50 50v150h100zM100 1225h1200a100 100 0 00100-100V275a100 100 0 00-100-100H100A100 100 0 000 275v850a100 100 0 00100 100zm0-950h1200v850H100V275zm852.95 623.45c-81.6 0-155-49.45-185.8-125a52.85 52.85 0 01-1.75-5 46.3 46.3 0 00-1.8-5H305.2a66.05 66.05 0 110-132.1h458.65l3.3-10a200.8 200.8 0 01362.75-19l1.25 2.55 1.2 2.55h-166.6l-46.6 90 46.4 89.7h166.55l-1.2 2.55-1.2 2.55a200 200 0 01-176.75 106.2z" fill-rule="evenodd"/></svg>