<svg width="1400" height="1200" viewBox="0 0 1400 1200" xmlns="http://www.w3.org/2000/svg"><path d="M600-37A100.05 100.05 0 01700 63v1074a100 100 0 01-174.8 66.4L300 949.9H100a100 100 0 01-100-100V350a100 100 0 01100-100h200L525.2-3.4A100.05 100.05 0 01600-37zm501.45 63.6a705.5 705.5 0 0193.5 78.4 695.5 695.5 0 01205 495c0 186.95-72.75 362.75-205 494.95a702.1 702.1 0 01-93.5 78.45 49.8 49.8 0 01-69.6-12.3 50 50 0 0112.3-69.6 600.1 600.1 0 0080.1-67.25A596 596 0 001300 600a596 596 0 00-175.75-424.25 600.1 600.1 0 00-80.1-67.25 50 50 0 1157.3-81.9zm-501.5 36.45L374.65 316.4l-29.8 33.6H100v500h244.85l29.85 33.65 225.3 253.3V63zM929.3 272.3a402 402 0 0153.5 44.8A397.6 397.6 0 011100 600a397.5 397.5 0 01-117.1 282.85 402.2 402.2 0 01-53.5 44.85 50.004 50.004 0 11-57.25-82 303 303 0 0040.1-33.65A298 298 0 001000 600a298.2 298.2 0 00-127.85-245.7 50 50 0 0157.2-82z" fill-rule="evenodd"/></svg>